<svg id="my-svg" width="100%" xmlns="http://www.w3.org/2000/svg" xmlns:xlink="http://www.w3.org/1999/xlink" style="max-width: 700px; background-color: white;" viewBox="0 0 700 500" role="graphics-document document" aria-roledescription="xychart"><style>#my-svg{font-family:"trebuchet ms",verdana,arial,sans-serif;font-size:16px;fill:#333;}@keyframes edge-animation-frame{from{stroke-dashoffset:0;}}@keyframes dash{to{stroke-dashoffset:0;}}#my-svg .edge-animation-slow{stroke-dasharray:9,5!important;stroke-dashoffset:900;animation:dash 50s linear infinite;stroke-linecap:round;}#my-svg .edge-animation-fast{stroke-dasharray:9,5!important;stroke-dashoffset:900;animation:dash 20s linear infinite;stroke-linecap:round;}#my-svg .error-icon{fill:#552222;}#my-svg .error-text{fill:#552222;stroke:#552222;}#my-svg .edge-thickness-normal{stroke-width:1px;}#my-svg .edge-thickness-thick{stroke-width:3.5px;}#my-svg .edge-pattern-solid{stroke-dasharray:0;}#my-svg .edge-thickness-invisible{stroke-width:0;fill:none;}#my-svg .edge-pattern-dashed{stroke-dasharray:3;}#my-svg .edge-pattern-dotted{stroke-dasharray:2;}#my-svg .marker{fill:#333333;stroke:#333333;}#my-svg .marker.cross{stroke:#333333;}#my-svg svg{font-family:"trebuchet ms",verdana,arial,sans-serif;font-size:16px;}#my-svg p{margin:0;}#my-svg :root{--mermaid-font-family:"trebuchet ms",verdana,arial,sans-serif;}</style><g/><g class="main"><rect width="700" height="500" class="background" fill="white"/><g class="chart-title"><text x="0" y="0" fill="#131300" font-size="20" dominant-baseline="middle" text-anchor="middle" transform="translate(350, 21.58984375) rotate(0)">Daily Cumulative Member Tally (2026) - Full Scale</text></g><g class="plot"><g class="bar-plot-0"><rect x="74.05722849369049" y="215.76431361607143" width="15.119921827316285" height="251.23568638392857" fill="#ECECFF" stroke="#ECECFF" stroke-width="0"/><rect x="92.95713077783584" y="211.39481026785717" width="15.119921827316285" height="255.60518973214283" fill="#ECECFF" stroke="#ECECFF" stroke-width="0"/><rect x="111.8570330619812" y="207.02530691964284" width="15.119921827316285" height="259.97469308035716" fill="#ECECFF" stroke="#ECECFF" stroke-width="0"/><rect x="130.75693534612657" y="204.1123046875" width="15.119921827316285" height="262.8876953125" fill="#ECECFF" stroke="#ECECFF" stroke-width="0"/><rect x="149.65683763027192" y="195.3732979910714" width="15.119921827316285" height="271.6267020089286" fill="#ECECFF" stroke="#ECECFF" stroke-width="0"/><rect x="168.55673991441728" y="192.46029575892857" width="15.119921827316285" height="274.53970424107143" fill="#ECECFF" stroke="#ECECFF" stroke-width="0"/><rect x="187.45664219856263" y="192.46029575892857" width="15.119921827316285" height="274.53970424107143" fill="#ECECFF" stroke="#ECECFF" stroke-width="0"/><rect x="206.356544482708" y="188.0907924107143" width="15.119921827316285" height="278.9092075892857" fill="#ECECFF" stroke="#ECECFF" stroke-width="0"/><rect x="225.25644676685334" y="186.63429129464288" width="15.119921827316285" height="280.3657087053571" fill="#ECECFF" stroke="#ECECFF" stroke-width="0"/><rect x="244.1563490509987" y="182.26478794642856" width="15.119921827316285" height="284.73521205357144" fill="#ECECFF" stroke="#ECECFF" stroke-width="0"/><rect x="263.05625133514405" y="173.52578125000002" width="15.119921827316285" height="293.47421875" fill="#ECECFF" stroke="#ECECFF" stroke-width="0"/><rect x="281.9561536192894" y="163.3302734375" width="15.119921827316285" height="303.6697265625" fill="#ECECFF" stroke="#ECECFF" stroke-width="0"/><rect x="300.85605590343476" y="151.67826450892858" width="15.119921827316285" height="315.3217354910714" fill="#ECECFF" stroke="#ECECFF" stroke-width="0"/><rect x="319.7559581875801" y="147.3087611607143" width="15.119921827316285" height="319.6912388392857" fill="#ECECFF" stroke="#ECECFF" stroke-width="0"/><rect x="338.6558604717255" y="142.9392578125" width="15.119921827316285" height="324.0607421875" fill="#ECECFF" stroke="#ECECFF" stroke-width="0"/><rect x="357.55576275587083" y="142.9392578125" width="15.119921827316285" height="324.0607421875" fill="#ECECFF" stroke="#ECECFF" stroke-width="0"/><rect x="376.4556650400162" y="142.9392578125" width="15.119921827316285" height="324.0607421875" fill="#ECECFF" stroke="#ECECFF" stroke-width="0"/><rect x="395.35556732416154" y="138.56975446428572" width="15.119921827316285" height="328.4302455357143" fill="#ECECFF" stroke="#ECECFF" stroke-width="0"/><rect x="414.2554696083069" y="131.28724888392856" width="15.119921827316285" height="335.71275111607144" fill="#ECECFF" stroke="#ECECFF" stroke-width="0"/><rect x="433.15537189245225" y="122.54824218750002" width="15.119921827316285" height="344.4517578125" fill="#ECECFF" stroke="#ECECFF" stroke-width="0"/><rect x="452.0552741765976" y="118.1787388392857" width="15.119921827316285" height="348.8212611607143" fill="#ECECFF" stroke="#ECECFF" stroke-width="0"/><rect x="470.95517646074296" y="113.80923549107143" width="15.119921827316285" height="353.19076450892857" fill="#ECECFF" stroke="#ECECFF" stroke-width="0"/><rect x="489.8550787448883" y="109.43973214285717" width="15.119921827316285" height="357.56026785714283" fill="#ECECFF" stroke="#ECECFF" stroke-width="0"/><rect x="508.7549810290337" y="109.43973214285717" width="15.119921827316285" height="357.56026785714283" fill="#ECECFF" stroke="#ECECFF" stroke-width="0"/><rect x="527.654883313179" y="103.61372767857142" width="15.119921827316285" height="363.3862723214286" fill="#ECECFF" stroke="#ECECFF" stroke-width="0"/><rect x="546.5547855973243" y="100.70072544642858" width="15.119921827316285" height="366.2992745535714" fill="#ECECFF" stroke="#ECECFF" stroke-width="0"/><rect x="565.4546878814697" y="100.70072544642858" width="15.119921827316285" height="366.2992745535714" fill="#ECECFF" stroke="#ECECFF" stroke-width="0"/><rect x="584.354590165615" y="100.70072544642858" width="15.119921827316285" height="366.2992745535714" fill="#ECECFF" stroke="#ECECFF" stroke-width="0"/><rect x="603.2544924497604" y="100.70072544642858" width="15.119921827316285" height="366.2992745535714" fill="#ECECFF" stroke="#ECECFF" stroke-width="0"/><rect x="92.95713077783584" y="100.70072544642858" width="15.119921827316285" height="366.2992745535714" fill="#ECECFF" stroke="#ECECFF" stroke-width="0"/><rect x="111.8570330619812" y="100.70072544642858" width="15.119921827316285" height="366.2992745535714" fill="#ECECFF" stroke="#ECECFF" stroke-width="0"/><rect x="130.75693534612657" y="100.70072544642858" width="15.119921827316285" height="366.2992745535714" fill="#ECECFF" stroke="#ECECFF" stroke-width="0"/><rect x="622.1543947339057" y="100.70072544642858" width="15.119921827316285" height="366.2992745535714" fill="#ECECFF" stroke="#ECECFF" stroke-width="0"/><rect x="641.0542970180511" y="100.70072544642858" width="15.119921827316285" height="366.2992745535714" fill="#ECECFF" stroke="#ECECFF" stroke-width="0"/><rect x="659.9541993021965" y="99.24422433035716" width="15.119921827316285" height="367.75577566964284" fill="#ECECFF" stroke="#ECECFF" stroke-width="0"/><rect x="678.8541015863418" y="97.78772321428573" width="15.119921827316285" height="369.21227678571427" fill="#ECECFF" stroke="#ECECFF" stroke-width="0"/><rect x="168.55673991441728" y="94.87472098214283" width="15.119921827316285" height="372.12527901785717" fill="#ECECFF" stroke="#ECECFF" stroke-width="0"/><rect x="187.45664219856263" y="70.11420200892854" width="15.119921827316285" height="396.88579799107146" fill="#ECECFF" stroke="#ECECFF" stroke-width="0"/></g></g><g class="bottom-axis"><g class="axis-line"><path d="M 68.03125190734863,468 L 700,468" fill="none" stroke="#131300" stroke-width="2"/></g><g class="label"><text x="0" y="0" fill="#131300" font-size="14" dominant-baseline="text-before-edge" text-anchor="middle" transform="translate(81.61718940734863, 479) rotate(0)">2.25</text><text x="0" y="0" fill="#131300" font-size="14" dominant-baseline="text-before-edge" text-anchor="middle" transform="translate(100.51709169149399, 479) rotate(0)">26</text><text x="0" y="0" fill="#131300" font-size="14" dominant-baseline="text-before-edge" text-anchor="middle" transform="translate(119.41699397563934, 479) rotate(0)">27</text><text x="0" y="0" fill="#131300" font-size="14" dominant-baseline="text-before-edge" text-anchor="middle" transform="translate(138.3168962597847, 479) rotate(0)">28</text><text x="0" y="0" fill="#131300" font-size="14" dominant-baseline="text-before-edge" text-anchor="middle" transform="translate(157.21679854393005, 479) rotate(0)">3.1</text><text x="0" y="0" fill="#131300" font-size="14" dominant-baseline="text-before-edge" text-anchor="middle" transform="translate(176.1167008280754, 479) rotate(0)">2</text><text x="0" y="0" fill="#131300" font-size="14" dominant-baseline="text-before-edge" text-anchor="middle" transform="translate(195.01660311222076, 479) rotate(0)">3</text><text x="0" y="0" fill="#131300" font-size="14" dominant-baseline="text-before-edge" text-anchor="middle" transform="translate(213.91650539636612, 479) rotate(0)">4</text><text x="0" y="0" fill="#131300" font-size="14" dominant-baseline="text-before-edge" text-anchor="middle" transform="translate(232.81640768051147, 479) rotate(0)">5</text><text x="0" y="0" fill="#131300" font-size="14" dominant-baseline="text-before-edge" text-anchor="middle" transform="translate(251.71630996465683, 479) rotate(0)">6</text><text x="0" y="0" fill="#131300" font-size="14" dominant-baseline="text-before-edge" text-anchor="middle" transform="translate(270.6162122488022, 479) rotate(0)">7</text><text x="0" y="0" fill="#131300" font-size="14" dominant-baseline="text-before-edge" text-anchor="middle" transform="translate(289.51611453294754, 479) rotate(0)">8</text><text x="0" y="0" fill="#131300" font-size="14" dominant-baseline="text-before-edge" text-anchor="middle" transform="translate(308.4160168170929, 479) rotate(0)">9</text><text x="0" y="0" fill="#131300" font-size="14" dominant-baseline="text-before-edge" text-anchor="middle" transform="translate(327.31591910123825, 479) rotate(0)">10</text><text x="0" y="0" fill="#131300" font-size="14" dominant-baseline="text-before-edge" text-anchor="middle" transform="translate(346.2158213853836, 479) rotate(0)">11</text><text x="0" y="0" fill="#131300" font-size="14" dominant-baseline="text-before-edge" text-anchor="middle" transform="translate(365.11572366952896, 479) rotate(0)">12</text><text x="0" y="0" fill="#131300" font-size="14" dominant-baseline="text-before-edge" text-anchor="middle" transform="translate(384.0156259536743, 479) rotate(0)">13</text><text x="0" y="0" fill="#131300" font-size="14" dominant-baseline="text-before-edge" text-anchor="middle" transform="translate(402.9155282378197, 479) rotate(0)">14</text><text x="0" y="0" fill="#131300" font-size="14" dominant-baseline="text-before-edge" text-anchor="middle" transform="translate(421.815430521965, 479) rotate(0)">15</text><text x="0" y="0" fill="#131300" font-size="14" dominant-baseline="text-before-edge" text-anchor="middle" transform="translate(440.7153328061104, 479) rotate(0)">16</text><text x="0" y="0" fill="#131300" font-size="14" dominant-baseline="text-before-edge" text-anchor="middle" transform="translate(459.61523509025574, 479) rotate(0)">17</text><text x="0" y="0" fill="#131300" font-size="14" dominant-baseline="text-before-edge" text-anchor="middle" transform="translate(478.5151373744011, 479) rotate(0)">18</text><text x="0" y="0" fill="#131300" font-size="14" dominant-baseline="text-before-edge" text-anchor="middle" transform="translate(497.41503965854645, 479) rotate(0)">19</text><text x="0" y="0" fill="#131300" font-size="14" dominant-baseline="text-before-edge" text-anchor="middle" transform="translate(516.3149419426918, 479) rotate(0)">20</text><text x="0" y="0" fill="#131300" font-size="14" dominant-baseline="text-before-edge" text-anchor="middle" transform="translate(535.2148442268372, 479) rotate(0)">21</text><text x="0" y="0" fill="#131300" font-size="14" dominant-baseline="text-before-edge" text-anchor="middle" transform="translate(554.1147465109825, 479) rotate(0)">22</text><text x="0" y="0" fill="#131300" font-size="14" dominant-baseline="text-before-edge" text-anchor="middle" transform="translate(573.0146487951279, 479) rotate(0)">23</text><text x="0" y="0" fill="#131300" font-size="14" dominant-baseline="text-before-edge" text-anchor="middle" transform="translate(591.9145510792732, 479) rotate(0)">24</text><text x="0" y="0" fill="#131300" font-size="14" dominant-baseline="text-before-edge" text-anchor="middle" transform="translate(610.8144533634186, 479) rotate(0)">25</text><text x="0" y="0" fill="#131300" font-size="14" dominant-baseline="text-before-edge" text-anchor="middle" transform="translate(100.51709169149399, 479) rotate(0)">26</text><text x="0" y="0" fill="#131300" font-size="14" dominant-baseline="text-before-edge" text-anchor="middle" transform="translate(119.41699397563934, 479) rotate(0)">27</text><text x="0" y="0" fill="#131300" font-size="14" dominant-baseline="text-before-edge" text-anchor="middle" transform="translate(138.3168962597847, 479) rotate(0)">28</text><text x="0" y="0" fill="#131300" font-size="14" dominant-baseline="text-before-edge" text-anchor="middle" transform="translate(629.7143556475639, 479) rotate(0)">29</text><text x="0" y="0" fill="#131300" font-size="14" dominant-baseline="text-before-edge" text-anchor="middle" transform="translate(648.6142579317093, 479) rotate(0)">30</text><text x="0" y="0" fill="#131300" font-size="14" dominant-baseline="text-before-edge" text-anchor="middle" transform="translate(667.5141602158546, 479) rotate(0)">31</text><text x="0" y="0" fill="#131300" font-size="14" dominant-baseline="text-before-edge" text-anchor="middle" transform="translate(686.4140625, 479) rotate(0)">4.1</text><text x="0" y="0" fill="#131300" font-size="14" dominant-baseline="text-before-edge" text-anchor="middle" transform="translate(176.1167008280754, 479) rotate(0)">2</text><text x="0" y="0" fill="#131300" font-size="14" dominant-baseline="text-before-edge" text-anchor="middle" transform="translate(195.01660311222076, 479) rotate(0)">3</text></g><g class="ticks"><path d="M 81.61718940734863,469 L 81.61718940734863,474" fill="none" stroke="#131300" stroke-width="2"/><path d="M 100.51709169149399,469 L 100.51709169149399,474" fill="none" stroke="#131300" stroke-width="2"/><path d="M 119.41699397563934,469 L 119.41699397563934,474" fill="none" stroke="#131300" stroke-width="2"/><path d="M 138.3168962597847,469 L 138.3168962597847,474" fill="none" stroke="#131300" stroke-width="2"/><path d="M 157.21679854393005,469 L 157.21679854393005,474" fill="none" stroke="#131300" stroke-width="2"/><path d="M 176.1167008280754,469 L 176.1167008280754,474" fill="none" stroke="#131300" stroke-width="2"/><path d="M 195.01660311222076,469 L 195.01660311222076,474" fill="none" stroke="#131300" stroke-width="2"/><path d="M 213.91650539636612,469 L 213.91650539636612,474" fill="none" stroke="#131300" stroke-width="2"/><path d="M 232.81640768051147,469 L 232.81640768051147,474" fill="none" stroke="#131300" stroke-width="2"/><path d="M 251.71630996465683,469 L 251.71630996465683,474" fill="none" stroke="#131300" stroke-width="2"/><path d="M 270.6162122488022,469 L 270.6162122488022,474" fill="none" stroke="#131300" stroke-width="2"/><path d="M 289.51611453294754,469 L 289.51611453294754,474" fill="none" stroke="#131300" stroke-width="2"/><path d="M 308.4160168170929,469 L 308.4160168170929,474" fill="none" stroke="#131300" stroke-width="2"/><path d="M 327.31591910123825,469 L 327.31591910123825,474" fill="none" stroke="#131300" stroke-width="2"/><path d="M 346.2158213853836,469 L 346.2158213853836,474" fill="none" stroke="#131300" stroke-width="2"/><path d="M 365.11572366952896,469 L 365.11572366952896,474" fill="none" stroke="#131300" stroke-width="2"/><path d="M 384.0156259536743,469 L 384.0156259536743,474" fill="none" stroke="#131300" stroke-width="2"/><path d="M 402.9155282378197,469 L 402.9155282378197,474" fill="none" stroke="#131300" stroke-width="2"/><path d="M 421.815430521965,469 L 421.815430521965,474" fill="none" stroke="#131300" stroke-width="2"/><path d="M 440.7153328061104,469 L 440.7153328061104,474" fill="none" stroke="#131300" stroke-width="2"/><path d="M 459.61523509025574,469 L 459.61523509025574,474" fill="none" stroke="#131300" stroke-width="2"/><path d="M 478.5151373744011,469 L 478.5151373744011,474" fill="none" stroke="#131300" stroke-width="2"/><path d="M 497.41503965854645,469 L 497.41503965854645,474" fill="none" stroke="#131300" stroke-width="2"/><path d="M 516.3149419426918,469 L 516.3149419426918,474" fill="none" stroke="#131300" stroke-width="2"/><path d="M 535.2148442268372,469 L 535.2148442268372,474" fill="none" stroke="#131300" stroke-width="2"/><path d="M 554.1147465109825,469 L 554.1147465109825,474" fill="none" stroke="#131300" stroke-width="2"/><path d="M 573.0146487951279,469 L 573.0146487951279,474" fill="none" stroke="#131300" stroke-width="2"/><path d="M 591.9145510792732,469 L 591.9145510792732,474" fill="none" stroke="#131300" stroke-width="2"/><path d="M 610.8144533634186,469 L 610.8144533634186,474" fill="none" stroke="#131300" stroke-width="2"/><path d="M 100.51709169149399,469 L 100.51709169149399,474" fill="none" stroke="#131300" stroke-width="2"/><path d="M 119.41699397563934,469 L 119.41699397563934,474" fill="none" stroke="#131300" stroke-width="2"/><path d="M 138.3168962597847,469 L 138.3168962597847,474" fill="none" stroke="#131300" stroke-width="2"/><path d="M 629.7143556475639,469 L 629.7143556475639,474" fill="none" stroke="#131300" stroke-width="2"/><path d="M 648.6142579317093,469 L 648.6142579317093,474" fill="none" stroke="#131300" stroke-width="2"/><path d="M 667.5141602158546,469 L 667.5141602158546,474" fill="none" stroke="#131300" stroke-width="2"/><path d="M 686.4140625,469 L 686.4140625,474" fill="none" stroke="#131300" stroke-width="2"/><path d="M 176.1167008280754,469 L 176.1167008280754,474" fill="none" stroke="#131300" stroke-width="2"/><path d="M 195.01660311222076,469 L 195.01660311222076,474" fill="none" stroke="#131300" stroke-width="2"/></g></g><g class="left-axis"><g class="axisl-line"><path d="M 67.03125190734863,43.1796875 L 67.03125190734863,467" fill="none" stroke="#131300" stroke-width="2"/></g><g class="label"><text x="0" y="0" fill="#131300" font-size="14" dominant-baseline="middle" text-anchor="end" transform="translate(56.03125190734863, 51.1796875) rotate(0)">280</text><text x="0" y="0" fill="#131300" font-size="14" dominant-baseline="middle" text-anchor="end" transform="translate(56.03125190734863, 80.30970982142856) rotate(0)">260</text><text x="0" y="0" fill="#131300" font-size="14" dominant-baseline="middle" text-anchor="end" transform="translate(56.03125190734863, 109.43973214285717) rotate(0)">240</text><text x="0" y="0" fill="#131300" font-size="14" dominant-baseline="middle" text-anchor="end" transform="translate(56.03125190734863, 138.56975446428572) rotate(0)">220</text><text x="0" y="0" fill="#131300" font-size="14" dominant-baseline="middle" text-anchor="end" transform="translate(56.03125190734863, 167.69977678571428) rotate(0)">200</text><text x="0" y="0" fill="#131300" font-size="14" dominant-baseline="middle" text-anchor="end" transform="translate(56.03125190734863, 196.82979910714283) rotate(0)">180</text><text x="0" y="0" fill="#131300" font-size="14" dominant-baseline="middle" text-anchor="end" transform="translate(56.03125190734863, 225.95982142857144) rotate(0)">160</text><text x="0" y="0" fill="#131300" font-size="14" dominant-baseline="middle" text-anchor="end" transform="translate(56.03125190734863, 255.08984375) rotate(0)">140</text><text x="0" y="0" fill="#131300" font-size="14" dominant-baseline="middle" text-anchor="end" transform="translate(56.03125190734863, 284.21986607142856) rotate(0)">120</text><text x="0" y="0" fill="#131300" font-size="14" dominant-baseline="middle" text-anchor="end" transform="translate(56.03125190734863, 313.3498883928571) rotate(0)">100</text><text x="0" y="0" fill="#131300" font-size="14" dominant-baseline="middle" text-anchor="end" transform="translate(56.03125190734863, 342.4799107142857) rotate(0)">80</text><text x="0" y="0" fill="#131300" font-size="14" dominant-baseline="middle" text-anchor="end" transform="translate(56.03125190734863, 371.6099330357143) rotate(0)">60</text><text x="0" y="0" fill="#131300" font-size="14" dominant-baseline="middle" text-anchor="end" transform="translate(56.03125190734863, 400.7399553571429) rotate(0)">40</text><text x="0" y="0" fill="#131300" font-size="14" dominant-baseline="middle" text-anchor="end" transform="translate(56.03125190734863, 429.86997767857144) rotate(0)">20</text><text x="0" y="0" fill="#131300" font-size="14" dominant-baseline="middle" text-anchor="end" transform="translate(56.03125190734863, 459) rotate(0)">0</text></g><g class="ticks"><path d="M 66.03125190734863,51.1796875 L 61.03125190734863,51.1796875" fill="none" stroke="#131300" stroke-width="2"/><path d="M 66.03125190734863,80.30970982142856 L 61.03125190734863,80.30970982142856" fill="none" stroke="#131300" stroke-width="2"/><path d="M 66.03125190734863,109.43973214285717 L 61.03125190734863,109.43973214285717" fill="none" stroke="#131300" stroke-width="2"/><path d="M 66.03125190734863,138.56975446428572 L 61.03125190734863,138.56975446428572" fill="none" stroke="#131300" stroke-width="2"/><path d="M 66.03125190734863,167.69977678571428 L 61.03125190734863,167.69977678571428" fill="none" stroke="#131300" stroke-width="2"/><path d="M 66.03125190734863,196.82979910714283 L 61.03125190734863,196.82979910714283" fill="none" stroke="#131300" stroke-width="2"/><path d="M 66.03125190734863,225.95982142857144 L 61.03125190734863,225.95982142857144" fill="none" stroke="#131300" stroke-width="2"/><path d="M 66.03125190734863,255.08984375 L 61.03125190734863,255.08984375" fill="none" stroke="#131300" stroke-width="2"/><path d="M 66.03125190734863,284.21986607142856 L 61.03125190734863,284.21986607142856" fill="none" stroke="#131300" stroke-width="2"/><path d="M 66.03125190734863,313.3498883928571 L 61.03125190734863,313.3498883928571" fill="none" stroke="#131300" stroke-width="2"/><path d="M 66.03125190734863,342.4799107142857 L 61.03125190734863,342.4799107142857" fill="none" stroke="#131300" stroke-width="2"/><path d="M 66.03125190734863,371.6099330357143 L 61.03125190734863,371.6099330357143" fill="none" stroke="#131300" stroke-width="2"/><path d="M 66.03125190734863,400.7399553571429 L 61.03125190734863,400.7399553571429" fill="none" stroke="#131300" stroke-width="2"/><path d="M 66.03125190734863,429.86997767857144 L 61.03125190734863,429.86997767857144" fill="none" stroke="#131300" stroke-width="2"/><path d="M 66.03125190734863,459 L 61.03125190734863,459" fill="none" stroke="#131300" stroke-width="2"/></g><g class="title"><text x="0" y="0" fill="#131300" font-size="16" dominant-baseline="text-before-edge" text-anchor="middle" transform="translate(5, 255.08984375) rotate(270)">Members</text></g></g></g><g class="mermaid-tmp-group"/></svg>