<svg id="my-svg" width="100%" xmlns="http://www.w3.org/2000/svg" xmlns:xlink="http://www.w3.org/1999/xlink" style="max-width: 700px; background-color: white;" viewBox="0 0 700 500" role="graphics-document document" aria-roledescription="xychart"><style>#my-svg{font-family:"trebuchet ms",verdana,arial,sans-serif;font-size:16px;fill:#333;}@keyframes edge-animation-frame{from{stroke-dashoffset:0;}}@keyframes dash{to{stroke-dashoffset:0;}}#my-svg .edge-animation-slow{stroke-dasharray:9,5!important;stroke-dashoffset:900;animation:dash 50s linear infinite;stroke-linecap:round;}#my-svg .edge-animation-fast{stroke-dasharray:9,5!important;stroke-dashoffset:900;animation:dash 20s linear infinite;stroke-linecap:round;}#my-svg .error-icon{fill:#552222;}#my-svg .error-text{fill:#552222;stroke:#552222;}#my-svg .edge-thickness-normal{stroke-width:1px;}#my-svg .edge-thickness-thick{stroke-width:3.5px;}#my-svg .edge-pattern-solid{stroke-dasharray:0;}#my-svg .edge-thickness-invisible{stroke-width:0;fill:none;}#my-svg .edge-pattern-dashed{stroke-dasharray:3;}#my-svg .edge-pattern-dotted{stroke-dasharray:2;}#my-svg .marker{fill:#333333;stroke:#333333;}#my-svg .marker.cross{stroke:#333333;}#my-svg svg{font-family:"trebuchet ms",verdana,arial,sans-serif;font-size:16px;}#my-svg p{margin:0;}#my-svg :root{--mermaid-font-family:"trebuchet ms",verdana,arial,sans-serif;}</style><g/><g class="main"><rect width="700" height="500" class="background" fill="white"/><g class="chart-title"><text x="0" y="0" fill="#131300" font-size="20" dominant-baseline="middle" text-anchor="middle" transform="translate(350, 21.58984375) rotate(0)">Daily Cumulative Member Tally (2026) - Full Scale</text></g><g class="plot"><g class="bar-plot-0"><rect x="68.71054878234864" y="186.57603124999997" width="25.81328125" height="280.42396875000003" fill="#ECECFF" stroke="#ECECFF" stroke-width="0"/><rect x="100.54196315564607" y="181.68218749999997" width="25.81328125" height="285.31781250000006" fill="#ECECFF" stroke="#ECECFF" stroke-width="0"/><rect x="132.3733775289435" y="176.78834375000002" width="25.81328125" height="290.21165625" fill="#ECECFF" stroke="#ECECFF" stroke-width="0"/><rect x="164.20479190224097" y="173.52578125000002" width="25.81328125" height="293.47421875" fill="#ECECFF" stroke="#ECECFF" stroke-width="0"/><rect x="196.0362062755384" y="163.73809375000002" width="25.81328125" height="303.26190625" fill="#ECECFF" stroke="#ECECFF" stroke-width="0"/><rect x="227.86762064883584" y="160.47553125000002" width="25.81328125" height="306.52446875" fill="#ECECFF" stroke="#ECECFF" stroke-width="0"/><rect x="259.6990350221333" y="160.47553125000002" width="25.81328125" height="306.52446875" fill="#ECECFF" stroke="#ECECFF" stroke-width="0"/><rect x="291.5304493954307" y="155.58168750000002" width="25.81328125" height="311.41831249999996" fill="#ECECFF" stroke="#ECECFF" stroke-width="0"/><rect x="323.36186376872814" y="153.95040625000001" width="25.81328125" height="313.04959375" fill="#ECECFF" stroke="#ECECFF" stroke-width="0"/><rect x="355.1932781420256" y="149.05656249999998" width="25.81328125" height="317.9434375" fill="#ECECFF" stroke="#ECECFF" stroke-width="0"/><rect x="387.024692515323" y="139.26887499999998" width="25.81328125" height="327.731125" fill="#ECECFF" stroke="#ECECFF" stroke-width="0"/><rect x="418.85610688862045" y="127.84990624999998" width="25.81328125" height="339.15009375" fill="#ECECFF" stroke="#ECECFF" stroke-width="0"/><rect x="450.68752126191794" y="114.79965625000001" width="25.81328125" height="352.20034375" fill="#ECECFF" stroke="#ECECFF" stroke-width="0"/><rect x="482.51893563521537" y="109.9058125" width="25.81328125" height="357.0941875" fill="#ECECFF" stroke="#ECECFF" stroke-width="0"/><rect x="514.3503500085128" y="105.01196875" width="25.81328125" height="361.98803125" fill="#ECECFF" stroke="#ECECFF" stroke-width="0"/><rect x="546.1817643818102" y="105.01196875" width="25.81328125" height="361.98803125" fill="#ECECFF" stroke="#ECECFF" stroke-width="0"/><rect x="578.0131787551077" y="105.01196875" width="25.81328125" height="361.98803125" fill="#ECECFF" stroke="#ECECFF" stroke-width="0"/><rect x="609.8445931284051" y="100.11812499999999" width="25.81328125" height="366.88187500000004" fill="#ECECFF" stroke="#ECECFF" stroke-width="0"/><rect x="641.6760075017025" y="91.96171874999999" width="25.81328125" height="375.03828125" fill="#ECECFF" stroke="#ECECFF" stroke-width="0"/><rect x="673.507421875" y="82.17403124999998" width="25.81328125" height="384.82596875" fill="#ECECFF" stroke="#ECECFF" stroke-width="0"/></g></g><g class="bottom-axis"><g class="axis-line"><path d="M 68.03125190734863,468 L 700,468" fill="none" stroke="#131300" stroke-width="2"/></g><g class="label"><text x="0" y="0" fill="#131300" font-size="14" dominant-baseline="text-before-edge" text-anchor="middle" transform="translate(81.61718940734863, 479) rotate(0)">2.25</text><text x="0" y="0" fill="#131300" font-size="14" dominant-baseline="text-before-edge" text-anchor="middle" transform="translate(113.44860378064607, 479) rotate(0)">26</text><text x="0" y="0" fill="#131300" font-size="14" dominant-baseline="text-before-edge" text-anchor="middle" transform="translate(145.2800181539435, 479) rotate(0)">27</text><text x="0" y="0" fill="#131300" font-size="14" dominant-baseline="text-before-edge" text-anchor="middle" transform="translate(177.11143252724096, 479) rotate(0)">28</text><text x="0" y="0" fill="#131300" font-size="14" dominant-baseline="text-before-edge" text-anchor="middle" transform="translate(208.9428469005384, 479) rotate(0)">3.1</text><text x="0" y="0" fill="#131300" font-size="14" dominant-baseline="text-before-edge" text-anchor="middle" transform="translate(240.77426127383583, 479) rotate(0)">2</text><text x="0" y="0" fill="#131300" font-size="14" dominant-baseline="text-before-edge" text-anchor="middle" transform="translate(272.6056756471333, 479) rotate(0)">3</text><text x="0" y="0" fill="#131300" font-size="14" dominant-baseline="text-before-edge" text-anchor="middle" transform="translate(304.43709002043073, 479) rotate(0)">4</text><text x="0" y="0" fill="#131300" font-size="14" dominant-baseline="text-before-edge" text-anchor="middle" transform="translate(336.26850439372816, 479) rotate(0)">5</text><text x="0" y="0" fill="#131300" font-size="14" dominant-baseline="text-before-edge" text-anchor="middle" transform="translate(368.0999187670256, 479) rotate(0)">6</text><text x="0" y="0" fill="#131300" font-size="14" dominant-baseline="text-before-edge" text-anchor="middle" transform="translate(399.93133314032303, 479) rotate(0)">7</text><text x="0" y="0" fill="#131300" font-size="14" dominant-baseline="text-before-edge" text-anchor="middle" transform="translate(431.76274751362047, 479) rotate(0)">8</text><text x="0" y="0" fill="#131300" font-size="14" dominant-baseline="text-before-edge" text-anchor="middle" transform="translate(463.59416188691796, 479) rotate(0)">9</text><text x="0" y="0" fill="#131300" font-size="14" dominant-baseline="text-before-edge" text-anchor="middle" transform="translate(495.4255762602154, 479) rotate(0)">10</text><text x="0" y="0" fill="#131300" font-size="14" dominant-baseline="text-before-edge" text-anchor="middle" transform="translate(527.2569906335128, 479) rotate(0)">11</text><text x="0" y="0" fill="#131300" font-size="14" dominant-baseline="text-before-edge" text-anchor="middle" transform="translate(559.0884050068103, 479) rotate(0)">12</text><text x="0" y="0" fill="#131300" font-size="14" dominant-baseline="text-before-edge" text-anchor="middle" transform="translate(590.9198193801077, 479) rotate(0)">13</text><text x="0" y="0" fill="#131300" font-size="14" dominant-baseline="text-before-edge" text-anchor="middle" transform="translate(622.7512337534051, 479) rotate(0)">14</text><text x="0" y="0" fill="#131300" font-size="14" dominant-baseline="text-before-edge" text-anchor="middle" transform="translate(654.5826481267026, 479) rotate(0)">15</text><text x="0" y="0" fill="#131300" font-size="14" dominant-baseline="text-before-edge" text-anchor="middle" transform="translate(686.4140625, 479) rotate(0)">16</text></g><g class="ticks"><path d="M 81.61718940734863,469 L 81.61718940734863,474" fill="none" stroke="#131300" stroke-width="2"/><path d="M 113.44860378064607,469 L 113.44860378064607,474" fill="none" stroke="#131300" stroke-width="2"/><path d="M 145.2800181539435,469 L 145.2800181539435,474" fill="none" stroke="#131300" stroke-width="2"/><path d="M 177.11143252724096,469 L 177.11143252724096,474" fill="none" stroke="#131300" stroke-width="2"/><path d="M 208.9428469005384,469 L 208.9428469005384,474" fill="none" stroke="#131300" stroke-width="2"/><path d="M 240.77426127383583,469 L 240.77426127383583,474" fill="none" stroke="#131300" stroke-width="2"/><path d="M 272.6056756471333,469 L 272.6056756471333,474" fill="none" stroke="#131300" stroke-width="2"/><path d="M 304.43709002043073,469 L 304.43709002043073,474" fill="none" stroke="#131300" stroke-width="2"/><path d="M 336.26850439372816,469 L 336.26850439372816,474" fill="none" stroke="#131300" stroke-width="2"/><path d="M 368.0999187670256,469 L 368.0999187670256,474" fill="none" stroke="#131300" stroke-width="2"/><path d="M 399.93133314032303,469 L 399.93133314032303,474" fill="none" stroke="#131300" stroke-width="2"/><path d="M 431.76274751362047,469 L 431.76274751362047,474" fill="none" stroke="#131300" stroke-width="2"/><path d="M 463.59416188691796,469 L 463.59416188691796,474" fill="none" stroke="#131300" stroke-width="2"/><path d="M 495.4255762602154,469 L 495.4255762602154,474" fill="none" stroke="#131300" stroke-width="2"/><path d="M 527.2569906335128,469 L 527.2569906335128,474" fill="none" stroke="#131300" stroke-width="2"/><path d="M 559.0884050068103,469 L 559.0884050068103,474" fill="none" stroke="#131300" stroke-width="2"/><path d="M 590.9198193801077,469 L 590.9198193801077,474" fill="none" stroke="#131300" stroke-width="2"/><path d="M 622.7512337534051,469 L 622.7512337534051,474" fill="none" stroke="#131300" stroke-width="2"/><path d="M 654.5826481267026,469 L 654.5826481267026,474" fill="none" stroke="#131300" stroke-width="2"/><path d="M 686.4140625,469 L 686.4140625,474" fill="none" stroke="#131300" stroke-width="2"/></g></g><g class="left-axis"><g class="axisl-line"><path d="M 67.03125190734863,43.1796875 L 67.03125190734863,467" fill="none" stroke="#131300" stroke-width="2"/></g><g class="label"><text x="0" y="0" fill="#131300" font-size="14" dominant-baseline="middle" text-anchor="end" transform="translate(56.03125190734863, 67.49250000000002) rotate(0)">240</text><text x="0" y="0" fill="#131300" font-size="14" dominant-baseline="middle" text-anchor="end" transform="translate(56.03125190734863, 100.11812499999999) rotate(0)">220</text><text x="0" y="0" fill="#131300" font-size="14" dominant-baseline="middle" text-anchor="end" transform="translate(56.03125190734863, 132.74374999999998) rotate(0)">200</text><text x="0" y="0" fill="#131300" font-size="14" dominant-baseline="middle" text-anchor="end" transform="translate(56.03125190734863, 165.36937500000002) rotate(0)">180</text><text x="0" y="0" fill="#131300" font-size="14" dominant-baseline="middle" text-anchor="end" transform="translate(56.03125190734863, 197.99499999999998) rotate(0)">160</text><text x="0" y="0" fill="#131300" font-size="14" dominant-baseline="middle" text-anchor="end" transform="translate(56.03125190734863, 230.620625) rotate(0)">140</text><text x="0" y="0" fill="#131300" font-size="14" dominant-baseline="middle" text-anchor="end" transform="translate(56.03125190734863, 263.24625000000003) rotate(0)">120</text><text x="0" y="0" fill="#131300" font-size="14" dominant-baseline="middle" text-anchor="end" transform="translate(56.03125190734863, 295.871875) rotate(0)">100</text><text x="0" y="0" fill="#131300" font-size="14" dominant-baseline="middle" text-anchor="end" transform="translate(56.03125190734863, 328.49749999999995) rotate(0)">80</text><text x="0" y="0" fill="#131300" font-size="14" dominant-baseline="middle" text-anchor="end" transform="translate(56.03125190734863, 361.123125) rotate(0)">60</text><text x="0" y="0" fill="#131300" font-size="14" dominant-baseline="middle" text-anchor="end" transform="translate(56.03125190734863, 393.74875000000003) rotate(0)">40</text><text x="0" y="0" fill="#131300" font-size="14" dominant-baseline="middle" text-anchor="end" transform="translate(56.03125190734863, 426.37437500000004) rotate(0)">20</text><text x="0" y="0" fill="#131300" font-size="14" dominant-baseline="middle" text-anchor="end" transform="translate(56.03125190734863, 459) rotate(0)">0</text></g><g class="ticks"><path d="M 66.03125190734863,67.49250000000002 L 61.03125190734863,67.49250000000002" fill="none" stroke="#131300" stroke-width="2"/><path d="M 66.03125190734863,100.11812499999999 L 61.03125190734863,100.11812499999999" fill="none" stroke="#131300" stroke-width="2"/><path d="M 66.03125190734863,132.74374999999998 L 61.03125190734863,132.74374999999998" fill="none" stroke="#131300" stroke-width="2"/><path d="M 66.03125190734863,165.36937500000002 L 61.03125190734863,165.36937500000002" fill="none" stroke="#131300" stroke-width="2"/><path d="M 66.03125190734863,197.99499999999998 L 61.03125190734863,197.99499999999998" fill="none" stroke="#131300" stroke-width="2"/><path d="M 66.03125190734863,230.620625 L 61.03125190734863,230.620625" fill="none" stroke="#131300" stroke-width="2"/><path d="M 66.03125190734863,263.24625000000003 L 61.03125190734863,263.24625000000003" fill="none" stroke="#131300" stroke-width="2"/><path d="M 66.03125190734863,295.871875 L 61.03125190734863,295.871875" fill="none" stroke="#131300" stroke-width="2"/><path d="M 66.03125190734863,328.49749999999995 L 61.03125190734863,328.49749999999995" fill="none" stroke="#131300" stroke-width="2"/><path d="M 66.03125190734863,361.123125 L 61.03125190734863,361.123125" fill="none" stroke="#131300" stroke-width="2"/><path d="M 66.03125190734863,393.74875000000003 L 61.03125190734863,393.74875000000003" fill="none" stroke="#131300" stroke-width="2"/><path d="M 66.03125190734863,426.37437500000004 L 61.03125190734863,426.37437500000004" fill="none" stroke="#131300" stroke-width="2"/><path d="M 66.03125190734863,459 L 61.03125190734863,459" fill="none" stroke="#131300" stroke-width="2"/></g><g class="title"><text x="0" y="0" fill="#131300" font-size="16" dominant-baseline="text-before-edge" text-anchor="middle" transform="translate(5, 255.08984375) rotate(270)">Members</text></g></g></g><g class="mermaid-tmp-group"/></svg>