<svg id="my-svg" width="100%" xmlns="http://www.w3.org/2000/svg" xmlns:xlink="http://www.w3.org/1999/xlink" style="max-width: 700px; background-color: white;" viewBox="0 0 700 500" role="graphics-document document" aria-roledescription="xychart"><style>#my-svg{font-family:"trebuchet ms",verdana,arial,sans-serif;font-size:16px;fill:#333;}@keyframes edge-animation-frame{from{stroke-dashoffset:0;}}@keyframes dash{to{stroke-dashoffset:0;}}#my-svg .edge-animation-slow{stroke-dasharray:9,5!important;stroke-dashoffset:900;animation:dash 50s linear infinite;stroke-linecap:round;}#my-svg .edge-animation-fast{stroke-dasharray:9,5!important;stroke-dashoffset:900;animation:dash 20s linear infinite;stroke-linecap:round;}#my-svg .error-icon{fill:#552222;}#my-svg .error-text{fill:#552222;stroke:#552222;}#my-svg .edge-thickness-normal{stroke-width:1px;}#my-svg .edge-thickness-thick{stroke-width:3.5px;}#my-svg .edge-pattern-solid{stroke-dasharray:0;}#my-svg .edge-thickness-invisible{stroke-width:0;fill:none;}#my-svg .edge-pattern-dashed{stroke-dasharray:3;}#my-svg .edge-pattern-dotted{stroke-dasharray:2;}#my-svg .marker{fill:#333333;stroke:#333333;}#my-svg .marker.cross{stroke:#333333;}#my-svg svg{font-family:"trebuchet ms",verdana,arial,sans-serif;font-size:16px;}#my-svg p{margin:0;}#my-svg :root{--mermaid-font-family:"trebuchet ms",verdana,arial,sans-serif;}</style><g/><g class="main"><rect width="700" height="500" class="background" fill="white"/><g class="chart-title"><text x="0" y="0" fill="#131300" font-size="20" dominant-baseline="middle" text-anchor="middle" transform="translate(350, 21.58984375) rotate(0)">Daily Cumulative Member Tally (2026) - Full Scale</text></g><g class="plot"><g class="bar-plot-0"><rect x="74.77722477118175" y="224.1517510775862" width="13.67992927233378" height="242.8482489224138" fill="#ECECFF" stroke="#ECECFF" stroke-width="0"/><rect x="89.52836801734398" y="219.9329202586207" width="13.67992927233378" height="247.0670797413793" fill="#ECECFF" stroke="#ECECFF" stroke-width="0"/><rect x="104.27951126350621" y="215.7140894396552" width="13.67992927233378" height="251.2859105603448" fill="#ECECFF" stroke="#ECECFF" stroke-width="0"/><rect x="119.03065450966844" y="212.90153556034483" width="13.67992927233378" height="254.09846443965517" fill="#ECECFF" stroke="#ECECFF" stroke-width="0"/><rect x="133.78179775583067" y="204.46387392241377" width="13.67992927233378" height="262.53612607758623" fill="#ECECFF" stroke="#ECECFF" stroke-width="0"/><rect x="148.5329410019929" y="201.65132004310345" width="13.67992927233378" height="265.34867995689655" fill="#ECECFF" stroke="#ECECFF" stroke-width="0"/><rect x="163.28408424815512" y="201.65132004310345" width="13.67992927233378" height="265.34867995689655" fill="#ECECFF" stroke="#ECECFF" stroke-width="0"/><rect x="178.03522749431735" y="197.43248922413795" width="13.67992927233378" height="269.56751077586205" fill="#ECECFF" stroke="#ECECFF" stroke-width="0"/><rect x="192.78637074047958" y="196.0262122844828" width="13.67992927233378" height="270.97378771551723" fill="#ECECFF" stroke="#ECECFF" stroke-width="0"/><rect x="207.5375139866418" y="191.80738146551724" width="13.67992927233378" height="275.1926185344828" fill="#ECECFF" stroke="#ECECFF" stroke-width="0"/><rect x="222.28865723280404" y="183.36971982758618" width="13.67992927233378" height="283.6302801724138" fill="#ECECFF" stroke="#ECECFF" stroke-width="0"/><rect x="237.03980047896627" y="173.52578125000002" width="13.67992927233378" height="293.47421875" fill="#ECECFF" stroke="#ECECFF" stroke-width="0"/><rect x="251.7909437251285" y="162.27556573275862" width="13.67992927233378" height="304.72443426724135" fill="#ECECFF" stroke="#ECECFF" stroke-width="0"/><rect x="266.5420869712907" y="158.0567349137931" width="13.67992927233378" height="308.9432650862069" fill="#ECECFF" stroke="#ECECFF" stroke-width="0"/><rect x="281.29323021745296" y="153.83790409482756" width="13.67992927233378" height="313.16209590517246" fill="#ECECFF" stroke="#ECECFF" stroke-width="0"/><rect x="296.0443734636152" y="153.83790409482756" width="13.67992927233378" height="313.16209590517246" fill="#ECECFF" stroke="#ECECFF" stroke-width="0"/><rect x="310.7955167097774" y="153.83790409482756" width="13.67992927233378" height="313.16209590517246" fill="#ECECFF" stroke="#ECECFF" stroke-width="0"/><rect x="325.5466599559396" y="149.6190732758621" width="13.67992927233378" height="317.3809267241379" fill="#ECECFF" stroke="#ECECFF" stroke-width="0"/><rect x="340.2978032021019" y="142.58768857758622" width="13.67992927233378" height="324.4123114224138" fill="#ECECFF" stroke="#ECECFF" stroke-width="0"/><rect x="355.04894644826413" y="134.15002693965516" width="13.67992927233378" height="332.84997306034484" fill="#ECECFF" stroke="#ECECFF" stroke-width="0"/><rect x="369.80008969442633" y="129.9311961206897" width="13.67992927233378" height="337.0688038793103" fill="#ECECFF" stroke="#ECECFF" stroke-width="0"/><rect x="384.55123294058853" y="125.71236530172416" width="13.67992927233378" height="341.28763469827584" fill="#ECECFF" stroke="#ECECFF" stroke-width="0"/><rect x="399.3023761867508" y="121.49353448275863" width="13.67992927233378" height="345.5064655172414" fill="#ECECFF" stroke="#ECECFF" stroke-width="0"/><rect x="414.05351943291305" y="121.49353448275863" width="13.67992927233378" height="345.5064655172414" fill="#ECECFF" stroke="#ECECFF" stroke-width="0"/><rect x="428.80466267907525" y="115.86842672413793" width="13.67992927233378" height="351.1315732758621" fill="#ECECFF" stroke="#ECECFF" stroke-width="0"/><rect x="443.55580592523745" y="113.05587284482758" width="13.67992927233378" height="353.9441271551724" fill="#ECECFF" stroke="#ECECFF" stroke-width="0"/><rect x="458.3069491713997" y="113.05587284482758" width="13.67992927233378" height="353.9441271551724" fill="#ECECFF" stroke="#ECECFF" stroke-width="0"/><rect x="473.05809241756197" y="113.05587284482758" width="13.67992927233378" height="353.9441271551724" fill="#ECECFF" stroke="#ECECFF" stroke-width="0"/><rect x="487.80923566372417" y="113.05587284482758" width="13.67992927233378" height="353.9441271551724" fill="#ECECFF" stroke="#ECECFF" stroke-width="0"/><rect x="502.56037890988637" y="113.05587284482758" width="13.67992927233378" height="353.9441271551724" fill="#ECECFF" stroke="#ECECFF" stroke-width="0"/><rect x="517.3115221560487" y="113.05587284482758" width="13.67992927233378" height="353.9441271551724" fill="#ECECFF" stroke="#ECECFF" stroke-width="0"/><rect x="532.0626654022109" y="113.05587284482758" width="13.67992927233378" height="353.9441271551724" fill="#ECECFF" stroke="#ECECFF" stroke-width="0"/><rect x="546.8138086483731" y="113.05587284482758" width="13.67992927233378" height="353.9441271551724" fill="#ECECFF" stroke="#ECECFF" stroke-width="0"/><rect x="561.5649518945353" y="113.05587284482758" width="13.67992927233378" height="353.9441271551724" fill="#ECECFF" stroke="#ECECFF" stroke-width="0"/><rect x="576.3160951406975" y="111.64959590517239" width="13.67992927233378" height="355.3504040948276" fill="#ECECFF" stroke="#ECECFF" stroke-width="0"/><rect x="591.0672383868598" y="110.24331896551723" width="13.67992927233378" height="356.75668103448277" fill="#ECECFF" stroke="#ECECFF" stroke-width="0"/><rect x="605.818381633022" y="107.43076508620692" width="13.67992927233378" height="359.5692349137931" fill="#ECECFF" stroke="#ECECFF" stroke-width="0"/><rect x="620.5695248791842" y="107.43076508620692" width="13.67992927233378" height="359.5692349137931" fill="#ECECFF" stroke="#ECECFF" stroke-width="0"/><rect x="635.3206681253465" y="83.52405711206899" width="13.67992927233378" height="383.475942887931" fill="#ECECFF" stroke="#ECECFF" stroke-width="0"/><rect x="650.0718113715087" y="79.30522629310346" width="13.67992927233378" height="387.6947737068965" fill="#ECECFF" stroke="#ECECFF" stroke-width="0"/><rect x="664.8229546176709" y="79.30522629310346" width="13.67992927233378" height="387.6947737068965" fill="#ECECFF" stroke="#ECECFF" stroke-width="0"/><rect x="679.5740978638331" y="75.08639547413793" width="13.67992927233378" height="391.91360452586207" fill="#ECECFF" stroke="#ECECFF" stroke-width="0"/></g></g><g class="bottom-axis"><g class="axis-line"><path d="M 68.03125190734863,468 L 700,468" fill="none" stroke="#131300" stroke-width="2"/></g><g class="label"><text x="0" y="0" fill="#131300" font-size="14" dominant-baseline="text-before-edge" text-anchor="middle" transform="translate(81.61718940734863, 479) rotate(0)">2.25</text><text x="0" y="0" fill="#131300" font-size="14" dominant-baseline="text-before-edge" text-anchor="middle" transform="translate(96.36833265351086, 479) rotate(0)">вЂ‹вЂ‹</text><text x="0" y="0" fill="#131300" font-size="14" dominant-baseline="text-before-edge" text-anchor="middle" transform="translate(111.11947589967309, 479) rotate(0)">вЂ‹вЂ‹вЂ‹</text><text x="0" y="0" fill="#131300" font-size="14" dominant-baseline="text-before-edge" text-anchor="middle" transform="translate(125.87061914583532, 479) rotate(0)">вЂ‹вЂ‹вЂ‹вЂ‹</text><text x="0" y="0" fill="#131300" font-size="14" dominant-baseline="text-before-edge" text-anchor="middle" transform="translate(140.62176239199755, 479) rotate(0)">3.1</text><text x="0" y="0" fill="#131300" font-size="14" dominant-baseline="text-before-edge" text-anchor="middle" transform="translate(155.37290563815978, 479) rotate(0)">вЂ‹вЂ‹вЂ‹вЂ‹вЂ‹вЂ‹</text><text x="0" y="0" fill="#131300" font-size="14" dominant-baseline="text-before-edge" text-anchor="middle" transform="translate(170.124048884322, 479) rotate(0)">вЂ‹вЂ‹вЂ‹вЂ‹вЂ‹вЂ‹вЂ‹</text><text x="0" y="0" fill="#131300" font-size="14" dominant-baseline="text-before-edge" text-anchor="middle" transform="translate(184.87519213048424, 479) rotate(0)">вЂ‹вЂ‹вЂ‹вЂ‹вЂ‹вЂ‹вЂ‹вЂ‹</text><text x="0" y="0" fill="#131300" font-size="14" dominant-baseline="text-before-edge" text-anchor="middle" transform="translate(199.62633537664647, 479) rotate(0)">вЂ‹вЂ‹вЂ‹вЂ‹вЂ‹вЂ‹вЂ‹вЂ‹вЂ‹</text><text x="0" y="0" fill="#131300" font-size="14" dominant-baseline="text-before-edge" text-anchor="middle" transform="translate(214.3774786228087, 479) rotate(0)">вЂ‹вЂ‹вЂ‹вЂ‹вЂ‹вЂ‹вЂ‹вЂ‹вЂ‹вЂ‹</text><text x="0" y="0" fill="#131300" font-size="14" dominant-baseline="text-before-edge" text-anchor="middle" transform="translate(229.12862186897092, 479) rotate(0)">вЂ‹вЂ‹вЂ‹вЂ‹вЂ‹вЂ‹вЂ‹вЂ‹вЂ‹вЂ‹вЂ‹</text><text x="0" y="0" fill="#131300" font-size="14" dominant-baseline="text-before-edge" text-anchor="middle" transform="translate(243.87976511513315, 479) rotate(0)">3.8</text><text x="0" y="0" fill="#131300" font-size="14" dominant-baseline="text-before-edge" text-anchor="middle" transform="translate(258.6309083612954, 479) rotate(0)">вЂ‹вЂ‹вЂ‹вЂ‹вЂ‹вЂ‹вЂ‹вЂ‹вЂ‹вЂ‹вЂ‹вЂ‹вЂ‹</text><text x="0" y="0" fill="#131300" font-size="14" dominant-baseline="text-before-edge" text-anchor="middle" transform="translate(273.3820516074576, 479) rotate(0)">вЂ‹вЂ‹вЂ‹вЂ‹вЂ‹вЂ‹вЂ‹вЂ‹вЂ‹вЂ‹вЂ‹вЂ‹вЂ‹вЂ‹</text><text x="0" y="0" fill="#131300" font-size="14" dominant-baseline="text-before-edge" text-anchor="middle" transform="translate(288.13319485361984, 479) rotate(0)">вЂ‹вЂ‹вЂ‹вЂ‹вЂ‹вЂ‹вЂ‹вЂ‹вЂ‹вЂ‹вЂ‹вЂ‹вЂ‹вЂ‹вЂ‹</text><text x="0" y="0" fill="#131300" font-size="14" dominant-baseline="text-before-edge" text-anchor="middle" transform="translate(302.8843380997821, 479) rotate(0)">вЂ‹вЂ‹вЂ‹вЂ‹вЂ‹вЂ‹вЂ‹вЂ‹вЂ‹вЂ‹вЂ‹вЂ‹вЂ‹вЂ‹вЂ‹вЂ‹</text><text x="0" y="0" fill="#131300" font-size="14" dominant-baseline="text-before-edge" text-anchor="middle" transform="translate(317.6354813459443, 479) rotate(0)">вЂ‹вЂ‹вЂ‹вЂ‹вЂ‹вЂ‹вЂ‹вЂ‹вЂ‹вЂ‹вЂ‹вЂ‹вЂ‹вЂ‹вЂ‹вЂ‹вЂ‹</text><text x="0" y="0" fill="#131300" font-size="14" dominant-baseline="text-before-edge" text-anchor="middle" transform="translate(332.3866245921065, 479) rotate(0)">вЂ‹вЂ‹вЂ‹вЂ‹вЂ‹вЂ‹вЂ‹вЂ‹вЂ‹вЂ‹вЂ‹вЂ‹вЂ‹вЂ‹вЂ‹вЂ‹вЂ‹вЂ‹</text><text x="0" y="0" fill="#131300" font-size="14" dominant-baseline="text-before-edge" text-anchor="middle" transform="translate(347.13776783826876, 479) rotate(0)">3.15</text><text x="0" y="0" fill="#131300" font-size="14" dominant-baseline="text-before-edge" text-anchor="middle" transform="translate(361.888911084431, 479) rotate(0)">вЂ‹вЂ‹вЂ‹вЂ‹вЂ‹вЂ‹вЂ‹вЂ‹вЂ‹вЂ‹вЂ‹вЂ‹вЂ‹вЂ‹вЂ‹вЂ‹вЂ‹вЂ‹вЂ‹вЂ‹</text><text x="0" y="0" fill="#131300" font-size="14" dominant-baseline="text-before-edge" text-anchor="middle" transform="translate(376.6400543305932, 479) rotate(0)">вЂ‹вЂ‹вЂ‹вЂ‹вЂ‹вЂ‹вЂ‹вЂ‹вЂ‹вЂ‹вЂ‹вЂ‹вЂ‹вЂ‹вЂ‹вЂ‹вЂ‹вЂ‹вЂ‹вЂ‹вЂ‹</text><text x="0" y="0" fill="#131300" font-size="14" dominant-baseline="text-before-edge" text-anchor="middle" transform="translate(391.3911975767554, 479) rotate(0)">вЂ‹вЂ‹вЂ‹вЂ‹вЂ‹вЂ‹вЂ‹вЂ‹вЂ‹вЂ‹вЂ‹вЂ‹вЂ‹вЂ‹вЂ‹вЂ‹вЂ‹вЂ‹вЂ‹вЂ‹вЂ‹вЂ‹</text><text x="0" y="0" fill="#131300" font-size="14" dominant-baseline="text-before-edge" text-anchor="middle" transform="translate(406.1423408229177, 479) rotate(0)">вЂ‹вЂ‹вЂ‹вЂ‹вЂ‹вЂ‹вЂ‹вЂ‹вЂ‹вЂ‹вЂ‹вЂ‹вЂ‹вЂ‹вЂ‹вЂ‹вЂ‹вЂ‹вЂ‹вЂ‹вЂ‹вЂ‹вЂ‹</text><text x="0" y="0" fill="#131300" font-size="14" dominant-baseline="text-before-edge" text-anchor="middle" transform="translate(420.89348406907993, 479) rotate(0)">вЂ‹вЂ‹вЂ‹вЂ‹вЂ‹вЂ‹вЂ‹вЂ‹вЂ‹вЂ‹вЂ‹вЂ‹вЂ‹вЂ‹вЂ‹вЂ‹вЂ‹вЂ‹вЂ‹вЂ‹вЂ‹вЂ‹вЂ‹вЂ‹</text><text x="0" y="0" fill="#131300" font-size="14" dominant-baseline="text-before-edge" text-anchor="middle" transform="translate(435.64462731524213, 479) rotate(0)">вЂ‹вЂ‹вЂ‹вЂ‹вЂ‹вЂ‹вЂ‹вЂ‹вЂ‹вЂ‹вЂ‹вЂ‹вЂ‹вЂ‹вЂ‹вЂ‹вЂ‹вЂ‹вЂ‹вЂ‹вЂ‹вЂ‹вЂ‹вЂ‹вЂ‹</text><text x="0" y="0" fill="#131300" font-size="14" dominant-baseline="text-before-edge" text-anchor="middle" transform="translate(450.39577056140433, 479) rotate(0)">3.22</text><text x="0" y="0" fill="#131300" font-size="14" dominant-baseline="text-before-edge" text-anchor="middle" transform="translate(465.1469138075666, 479) rotate(0)">вЂ‹вЂ‹вЂ‹вЂ‹вЂ‹вЂ‹вЂ‹вЂ‹вЂ‹вЂ‹вЂ‹вЂ‹вЂ‹вЂ‹вЂ‹вЂ‹вЂ‹вЂ‹вЂ‹вЂ‹вЂ‹вЂ‹вЂ‹вЂ‹вЂ‹вЂ‹вЂ‹</text><text x="0" y="0" fill="#131300" font-size="14" dominant-baseline="text-before-edge" text-anchor="middle" transform="translate(479.89805705372885, 479) rotate(0)">вЂ‹вЂ‹вЂ‹вЂ‹вЂ‹вЂ‹вЂ‹вЂ‹вЂ‹вЂ‹вЂ‹вЂ‹вЂ‹вЂ‹вЂ‹вЂ‹вЂ‹вЂ‹вЂ‹вЂ‹вЂ‹вЂ‹вЂ‹вЂ‹вЂ‹вЂ‹вЂ‹вЂ‹</text><text x="0" y="0" fill="#131300" font-size="14" dominant-baseline="text-before-edge" text-anchor="middle" transform="translate(494.64920029989105, 479) rotate(0)">вЂ‹вЂ‹вЂ‹вЂ‹вЂ‹вЂ‹вЂ‹вЂ‹вЂ‹вЂ‹вЂ‹вЂ‹вЂ‹вЂ‹вЂ‹вЂ‹вЂ‹вЂ‹вЂ‹вЂ‹вЂ‹вЂ‹вЂ‹вЂ‹вЂ‹вЂ‹вЂ‹вЂ‹вЂ‹</text><text x="0" y="0" fill="#131300" font-size="14" dominant-baseline="text-before-edge" text-anchor="middle" transform="translate(509.40034354605325, 479) rotate(0)">вЂ‹вЂ‹вЂ‹вЂ‹вЂ‹вЂ‹вЂ‹вЂ‹вЂ‹вЂ‹вЂ‹вЂ‹вЂ‹вЂ‹вЂ‹вЂ‹вЂ‹вЂ‹вЂ‹вЂ‹вЂ‹вЂ‹вЂ‹вЂ‹вЂ‹вЂ‹вЂ‹вЂ‹вЂ‹вЂ‹</text><text x="0" y="0" fill="#131300" font-size="14" dominant-baseline="text-before-edge" text-anchor="middle" transform="translate(524.1514867922156, 479) rotate(0)">вЂ‹вЂ‹вЂ‹вЂ‹вЂ‹вЂ‹вЂ‹вЂ‹вЂ‹вЂ‹вЂ‹вЂ‹вЂ‹вЂ‹вЂ‹вЂ‹вЂ‹вЂ‹вЂ‹вЂ‹вЂ‹вЂ‹вЂ‹вЂ‹вЂ‹вЂ‹вЂ‹вЂ‹вЂ‹вЂ‹вЂ‹</text><text x="0" y="0" fill="#131300" font-size="14" dominant-baseline="text-before-edge" text-anchor="middle" transform="translate(538.9026300383778, 479) rotate(0)">вЂ‹вЂ‹вЂ‹вЂ‹вЂ‹вЂ‹вЂ‹вЂ‹вЂ‹вЂ‹вЂ‹вЂ‹вЂ‹вЂ‹вЂ‹вЂ‹вЂ‹вЂ‹вЂ‹вЂ‹вЂ‹вЂ‹вЂ‹вЂ‹вЂ‹вЂ‹вЂ‹вЂ‹вЂ‹вЂ‹вЂ‹вЂ‹</text><text x="0" y="0" fill="#131300" font-size="14" dominant-baseline="text-before-edge" text-anchor="middle" transform="translate(553.65377328454, 479) rotate(0)">3.29</text><text x="0" y="0" fill="#131300" font-size="14" dominant-baseline="text-before-edge" text-anchor="middle" transform="translate(568.4049165307022, 479) rotate(0)">вЂ‹вЂ‹вЂ‹вЂ‹вЂ‹вЂ‹вЂ‹вЂ‹вЂ‹вЂ‹вЂ‹вЂ‹вЂ‹вЂ‹вЂ‹вЂ‹вЂ‹вЂ‹вЂ‹вЂ‹вЂ‹вЂ‹вЂ‹вЂ‹вЂ‹вЂ‹вЂ‹вЂ‹вЂ‹вЂ‹вЂ‹вЂ‹вЂ‹вЂ‹</text><text x="0" y="0" fill="#131300" font-size="14" dominant-baseline="text-before-edge" text-anchor="middle" transform="translate(583.1560597768644, 479) rotate(0)">вЂ‹вЂ‹вЂ‹вЂ‹вЂ‹вЂ‹вЂ‹вЂ‹вЂ‹вЂ‹вЂ‹вЂ‹вЂ‹вЂ‹вЂ‹вЂ‹вЂ‹вЂ‹вЂ‹вЂ‹вЂ‹вЂ‹вЂ‹вЂ‹вЂ‹вЂ‹вЂ‹вЂ‹вЂ‹вЂ‹вЂ‹вЂ‹вЂ‹вЂ‹вЂ‹</text><text x="0" y="0" fill="#131300" font-size="14" dominant-baseline="text-before-edge" text-anchor="middle" transform="translate(597.9072030230267, 479) rotate(0)">4.1</text><text x="0" y="0" fill="#131300" font-size="14" dominant-baseline="text-before-edge" text-anchor="middle" transform="translate(612.6583462691889, 479) rotate(0)">вЂ‹вЂ‹вЂ‹вЂ‹вЂ‹вЂ‹вЂ‹вЂ‹вЂ‹вЂ‹вЂ‹вЂ‹вЂ‹вЂ‹вЂ‹вЂ‹вЂ‹вЂ‹вЂ‹вЂ‹вЂ‹вЂ‹вЂ‹вЂ‹вЂ‹вЂ‹вЂ‹вЂ‹вЂ‹вЂ‹вЂ‹вЂ‹вЂ‹вЂ‹вЂ‹вЂ‹вЂ‹</text><text x="0" y="0" fill="#131300" font-size="14" dominant-baseline="text-before-edge" text-anchor="middle" transform="translate(627.4094895153511, 479) rotate(0)">вЂ‹вЂ‹вЂ‹вЂ‹вЂ‹вЂ‹вЂ‹вЂ‹вЂ‹вЂ‹вЂ‹вЂ‹вЂ‹вЂ‹вЂ‹вЂ‹вЂ‹вЂ‹вЂ‹вЂ‹вЂ‹вЂ‹вЂ‹вЂ‹вЂ‹вЂ‹вЂ‹вЂ‹вЂ‹вЂ‹вЂ‹вЂ‹вЂ‹вЂ‹вЂ‹вЂ‹вЂ‹вЂ‹</text><text x="0" y="0" fill="#131300" font-size="14" dominant-baseline="text-before-edge" text-anchor="middle" transform="translate(642.1606327615134, 479) rotate(0)">вЂ‹вЂ‹вЂ‹вЂ‹вЂ‹вЂ‹вЂ‹вЂ‹вЂ‹вЂ‹вЂ‹вЂ‹вЂ‹вЂ‹вЂ‹вЂ‹вЂ‹вЂ‹вЂ‹вЂ‹вЂ‹вЂ‹вЂ‹вЂ‹вЂ‹вЂ‹вЂ‹вЂ‹вЂ‹вЂ‹вЂ‹вЂ‹вЂ‹вЂ‹вЂ‹вЂ‹вЂ‹вЂ‹вЂ‹</text><text x="0" y="0" fill="#131300" font-size="14" dominant-baseline="text-before-edge" text-anchor="middle" transform="translate(656.9117760076756, 479) rotate(0)">вЂ‹вЂ‹вЂ‹вЂ‹вЂ‹вЂ‹вЂ‹вЂ‹вЂ‹вЂ‹вЂ‹вЂ‹вЂ‹вЂ‹вЂ‹вЂ‹вЂ‹вЂ‹вЂ‹вЂ‹вЂ‹вЂ‹вЂ‹вЂ‹вЂ‹вЂ‹вЂ‹вЂ‹вЂ‹вЂ‹вЂ‹вЂ‹вЂ‹вЂ‹вЂ‹вЂ‹вЂ‹вЂ‹вЂ‹вЂ‹</text><text x="0" y="0" fill="#131300" font-size="14" dominant-baseline="text-before-edge" text-anchor="middle" transform="translate(671.6629192538378, 479) rotate(0)">вЂ‹вЂ‹вЂ‹вЂ‹вЂ‹вЂ‹вЂ‹вЂ‹вЂ‹вЂ‹вЂ‹вЂ‹вЂ‹вЂ‹вЂ‹вЂ‹вЂ‹вЂ‹вЂ‹вЂ‹вЂ‹вЂ‹вЂ‹вЂ‹вЂ‹вЂ‹вЂ‹вЂ‹вЂ‹вЂ‹вЂ‹вЂ‹вЂ‹вЂ‹вЂ‹вЂ‹вЂ‹вЂ‹вЂ‹вЂ‹вЂ‹</text><text x="0" y="0" fill="#131300" font-size="14" dominant-baseline="text-before-edge" text-anchor="middle" transform="translate(686.4140625, 479) rotate(0)">4.7</text></g><g class="ticks"><path d="M 81.61718940734863,469 L 81.61718940734863,474" fill="none" stroke="#131300" stroke-width="2"/><path d="M 96.36833265351086,469 L 96.36833265351086,474" fill="none" stroke="#131300" stroke-width="2"/><path d="M 111.11947589967309,469 L 111.11947589967309,474" fill="none" stroke="#131300" stroke-width="2"/><path d="M 125.87061914583532,469 L 125.87061914583532,474" fill="none" stroke="#131300" stroke-width="2"/><path d="M 140.62176239199755,469 L 140.62176239199755,474" fill="none" stroke="#131300" stroke-width="2"/><path d="M 155.37290563815978,469 L 155.37290563815978,474" fill="none" stroke="#131300" stroke-width="2"/><path d="M 170.124048884322,469 L 170.124048884322,474" fill="none" stroke="#131300" stroke-width="2"/><path d="M 184.87519213048424,469 L 184.87519213048424,474" fill="none" stroke="#131300" stroke-width="2"/><path d="M 199.62633537664647,469 L 199.62633537664647,474" fill="none" stroke="#131300" stroke-width="2"/><path d="M 214.3774786228087,469 L 214.3774786228087,474" fill="none" stroke="#131300" stroke-width="2"/><path d="M 229.12862186897092,469 L 229.12862186897092,474" fill="none" stroke="#131300" stroke-width="2"/><path d="M 243.87976511513315,469 L 243.87976511513315,474" fill="none" stroke="#131300" stroke-width="2"/><path d="M 258.6309083612954,469 L 258.6309083612954,474" fill="none" stroke="#131300" stroke-width="2"/><path d="M 273.3820516074576,469 L 273.3820516074576,474" fill="none" stroke="#131300" stroke-width="2"/><path d="M 288.13319485361984,469 L 288.13319485361984,474" fill="none" stroke="#131300" stroke-width="2"/><path d="M 302.8843380997821,469 L 302.8843380997821,474" fill="none" stroke="#131300" stroke-width="2"/><path d="M 317.6354813459443,469 L 317.6354813459443,474" fill="none" stroke="#131300" stroke-width="2"/><path d="M 332.3866245921065,469 L 332.3866245921065,474" fill="none" stroke="#131300" stroke-width="2"/><path d="M 347.13776783826876,469 L 347.13776783826876,474" fill="none" stroke="#131300" stroke-width="2"/><path d="M 361.888911084431,469 L 361.888911084431,474" fill="none" stroke="#131300" stroke-width="2"/><path d="M 376.6400543305932,469 L 376.6400543305932,474" fill="none" stroke="#131300" stroke-width="2"/><path d="M 391.3911975767554,469 L 391.3911975767554,474" fill="none" stroke="#131300" stroke-width="2"/><path d="M 406.1423408229177,469 L 406.1423408229177,474" fill="none" stroke="#131300" stroke-width="2"/><path d="M 420.89348406907993,469 L 420.89348406907993,474" fill="none" stroke="#131300" stroke-width="2"/><path d="M 435.64462731524213,469 L 435.64462731524213,474" fill="none" stroke="#131300" stroke-width="2"/><path d="M 450.39577056140433,469 L 450.39577056140433,474" fill="none" stroke="#131300" stroke-width="2"/><path d="M 465.1469138075666,469 L 465.1469138075666,474" fill="none" stroke="#131300" stroke-width="2"/><path d="M 479.89805705372885,469 L 479.89805705372885,474" fill="none" stroke="#131300" stroke-width="2"/><path d="M 494.64920029989105,469 L 494.64920029989105,474" fill="none" stroke="#131300" stroke-width="2"/><path d="M 509.40034354605325,469 L 509.40034354605325,474" fill="none" stroke="#131300" stroke-width="2"/><path d="M 524.1514867922156,469 L 524.1514867922156,474" fill="none" stroke="#131300" stroke-width="2"/><path d="M 538.9026300383778,469 L 538.9026300383778,474" fill="none" stroke="#131300" stroke-width="2"/><path d="M 553.65377328454,469 L 553.65377328454,474" fill="none" stroke="#131300" stroke-width="2"/><path d="M 568.4049165307022,469 L 568.4049165307022,474" fill="none" stroke="#131300" stroke-width="2"/><path d="M 583.1560597768644,469 L 583.1560597768644,474" fill="none" stroke="#131300" stroke-width="2"/><path d="M 597.9072030230267,469 L 597.9072030230267,474" fill="none" stroke="#131300" stroke-width="2"/><path d="M 612.6583462691889,469 L 612.6583462691889,474" fill="none" stroke="#131300" stroke-width="2"/><path d="M 627.4094895153511,469 L 627.4094895153511,474" fill="none" stroke="#131300" stroke-width="2"/><path d="M 642.1606327615134,469 L 642.1606327615134,474" fill="none" stroke="#131300" stroke-width="2"/><path d="M 656.9117760076756,469 L 656.9117760076756,474" fill="none" stroke="#131300" stroke-width="2"/><path d="M 671.6629192538378,469 L 671.6629192538378,474" fill="none" stroke="#131300" stroke-width="2"/><path d="M 686.4140625,469 L 686.4140625,474" fill="none" stroke="#131300" stroke-width="2"/></g></g><g class="left-axis"><g class="axisl-line"><path d="M 67.03125190734863,43.1796875 L 67.03125190734863,467" fill="none" stroke="#131300" stroke-width="2"/></g><g class="label"><text x="0" y="0" fill="#131300" font-size="14" dominant-baseline="middle" text-anchor="end" transform="translate(56.03125190734863, 65.2424568965517) rotate(0)">280</text><text x="0" y="0" fill="#131300" font-size="14" dominant-baseline="middle" text-anchor="end" transform="translate(56.03125190734863, 93.36799568965517) rotate(0)">260</text><text x="0" y="0" fill="#131300" font-size="14" dominant-baseline="middle" text-anchor="end" transform="translate(56.03125190734863, 121.49353448275863) rotate(0)">240</text><text x="0" y="0" fill="#131300" font-size="14" dominant-baseline="middle" text-anchor="end" transform="translate(56.03125190734863, 149.6190732758621) rotate(0)">220</text><text x="0" y="0" fill="#131300" font-size="14" dominant-baseline="middle" text-anchor="end" transform="translate(56.03125190734863, 177.74461206896552) rotate(0)">200</text><text x="0" y="0" fill="#131300" font-size="14" dominant-baseline="middle" text-anchor="end" transform="translate(56.03125190734863, 205.87015086206895) rotate(0)">180</text><text x="0" y="0" fill="#131300" font-size="14" dominant-baseline="middle" text-anchor="end" transform="translate(56.03125190734863, 233.9956896551724) rotate(0)">160</text><text x="0" y="0" fill="#131300" font-size="14" dominant-baseline="middle" text-anchor="end" transform="translate(56.03125190734863, 262.1212284482758) rotate(0)">140</text><text x="0" y="0" fill="#131300" font-size="14" dominant-baseline="middle" text-anchor="end" transform="translate(56.03125190734863, 290.2467672413793) rotate(0)">120</text><text x="0" y="0" fill="#131300" font-size="14" dominant-baseline="middle" text-anchor="end" transform="translate(56.03125190734863, 318.37230603448273) rotate(0)">100</text><text x="0" y="0" fill="#131300" font-size="14" dominant-baseline="middle" text-anchor="end" transform="translate(56.03125190734863, 346.4978448275862) rotate(0)">80</text><text x="0" y="0" fill="#131300" font-size="14" dominant-baseline="middle" text-anchor="end" transform="translate(56.03125190734863, 374.62338362068965) rotate(0)">60</text><text x="0" y="0" fill="#131300" font-size="14" dominant-baseline="middle" text-anchor="end" transform="translate(56.03125190734863, 402.7489224137931) rotate(0)">40</text><text x="0" y="0" fill="#131300" font-size="14" dominant-baseline="middle" text-anchor="end" transform="translate(56.03125190734863, 430.8744612068965) rotate(0)">20</text><text x="0" y="0" fill="#131300" font-size="14" dominant-baseline="middle" text-anchor="end" transform="translate(56.03125190734863, 459) rotate(0)">0</text></g><g class="ticks"><path d="M 66.03125190734863,65.2424568965517 L 61.03125190734863,65.2424568965517" fill="none" stroke="#131300" stroke-width="2"/><path d="M 66.03125190734863,93.36799568965517 L 61.03125190734863,93.36799568965517" fill="none" stroke="#131300" stroke-width="2"/><path d="M 66.03125190734863,121.49353448275863 L 61.03125190734863,121.49353448275863" fill="none" stroke="#131300" stroke-width="2"/><path d="M 66.03125190734863,149.6190732758621 L 61.03125190734863,149.6190732758621" fill="none" stroke="#131300" stroke-width="2"/><path d="M 66.03125190734863,177.74461206896552 L 61.03125190734863,177.74461206896552" fill="none" stroke="#131300" stroke-width="2"/><path d="M 66.03125190734863,205.87015086206895 L 61.03125190734863,205.87015086206895" fill="none" stroke="#131300" stroke-width="2"/><path d="M 66.03125190734863,233.9956896551724 L 61.03125190734863,233.9956896551724" fill="none" stroke="#131300" stroke-width="2"/><path d="M 66.03125190734863,262.1212284482758 L 61.03125190734863,262.1212284482758" fill="none" stroke="#131300" stroke-width="2"/><path d="M 66.03125190734863,290.2467672413793 L 61.03125190734863,290.2467672413793" fill="none" stroke="#131300" stroke-width="2"/><path d="M 66.03125190734863,318.37230603448273 L 61.03125190734863,318.37230603448273" fill="none" stroke="#131300" stroke-width="2"/><path d="M 66.03125190734863,346.4978448275862 L 61.03125190734863,346.4978448275862" fill="none" stroke="#131300" stroke-width="2"/><path d="M 66.03125190734863,374.62338362068965 L 61.03125190734863,374.62338362068965" fill="none" stroke="#131300" stroke-width="2"/><path d="M 66.03125190734863,402.7489224137931 L 61.03125190734863,402.7489224137931" fill="none" stroke="#131300" stroke-width="2"/><path d="M 66.03125190734863,430.8744612068965 L 61.03125190734863,430.8744612068965" fill="none" stroke="#131300" stroke-width="2"/><path d="M 66.03125190734863,459 L 61.03125190734863,459" fill="none" stroke="#131300" stroke-width="2"/></g><g class="title"><text x="0" y="0" fill="#131300" font-size="16" dominant-baseline="text-before-edge" text-anchor="middle" transform="translate(5, 255.08984375) rotate(270)">Members</text></g></g></g><g class="mermaid-tmp-group"/></svg>