<svg id="my-svg" width="100%" xmlns="http://www.w3.org/2000/svg" xmlns:xlink="http://www.w3.org/1999/xlink" style="max-width: 700px; background-color: white;" viewBox="0 0 700 500" role="graphics-document document" aria-roledescription="xychart"><style>#my-svg{font-family:"trebuchet ms",verdana,arial,sans-serif;font-size:16px;fill:#333;}@keyframes edge-animation-frame{from{stroke-dashoffset:0;}}@keyframes dash{to{stroke-dashoffset:0;}}#my-svg .edge-animation-slow{stroke-dasharray:9,5!important;stroke-dashoffset:900;animation:dash 50s linear infinite;stroke-linecap:round;}#my-svg .edge-animation-fast{stroke-dasharray:9,5!important;stroke-dashoffset:900;animation:dash 20s linear infinite;stroke-linecap:round;}#my-svg .error-icon{fill:#552222;}#my-svg .error-text{fill:#552222;stroke:#552222;}#my-svg .edge-thickness-normal{stroke-width:1px;}#my-svg .edge-thickness-thick{stroke-width:3.5px;}#my-svg .edge-pattern-solid{stroke-dasharray:0;}#my-svg .edge-thickness-invisible{stroke-width:0;fill:none;}#my-svg .edge-pattern-dashed{stroke-dasharray:3;}#my-svg .edge-pattern-dotted{stroke-dasharray:2;}#my-svg .marker{fill:#333333;stroke:#333333;}#my-svg .marker.cross{stroke:#333333;}#my-svg svg{font-family:"trebuchet ms",verdana,arial,sans-serif;font-size:16px;}#my-svg p{margin:0;}#my-svg :root{--mermaid-font-family:"trebuchet ms",verdana,arial,sans-serif;}</style><g/><g class="main"><rect width="700" height="500" class="background" fill="white"/><g class="chart-title"><text x="0" y="0" fill="#131300" font-size="20" dominant-baseline="middle" text-anchor="middle" transform="translate(350, 21.58984375) rotate(0)">Daily Cumulative Member Tally (2026) - Full Scale</text></g><g class="plot"><g class="bar-plot-0"><rect x="75.08813225464388" y="231.9800260416667" width="13.058114305409516" height="235.0199739583333" fill="#ECECFF" stroke="#ECECFF" stroke-width="0"/><rect x="89.1531758149381" y="227.90182291666667" width="13.058114305409516" height="239.09817708333333" fill="#ECECFF" stroke="#ECECFF" stroke-width="0"/><rect x="103.21821937523231" y="223.82361979166666" width="13.058114305409516" height="243.17638020833334" fill="#ECECFF" stroke="#ECECFF" stroke-width="0"/><rect x="117.28326293552654" y="221.10481770833331" width="13.058114305409516" height="245.89518229166669" fill="#ECECFF" stroke="#ECECFF" stroke-width="0"/><rect x="131.34830649582074" y="212.9484114583333" width="13.058114305409516" height="254.0515885416667" fill="#ECECFF" stroke="#ECECFF" stroke-width="0"/><rect x="145.41335005611495" y="210.22960937500002" width="13.058114305409516" height="256.770390625" fill="#ECECFF" stroke="#ECECFF" stroke-width="0"/><rect x="159.4783936164092" y="210.22960937500002" width="13.058114305409516" height="256.770390625" fill="#ECECFF" stroke="#ECECFF" stroke-width="0"/><rect x="173.5434371767034" y="206.15140625" width="13.058114305409516" height="260.84859374999996" fill="#ECECFF" stroke="#ECECFF" stroke-width="0"/><rect x="187.60848073699762" y="204.79200520833334" width="13.058114305409516" height="262.2079947916667" fill="#ECECFF" stroke="#ECECFF" stroke-width="0"/><rect x="201.67352429729183" y="200.71380208333335" width="13.058114305409516" height="266.28619791666665" fill="#ECECFF" stroke="#ECECFF" stroke-width="0"/><rect x="215.73856785758605" y="192.55739583333335" width="13.058114305409516" height="274.4426041666667" fill="#ECECFF" stroke="#ECECFF" stroke-width="0"/><rect x="229.80361141788026" y="183.0415885416667" width="13.058114305409516" height="283.95841145833333" fill="#ECECFF" stroke="#ECECFF" stroke-width="0"/><rect x="243.8686549781745" y="172.16638020833332" width="13.058114305409516" height="294.8336197916667" fill="#ECECFF" stroke="#ECECFF" stroke-width="0"/><rect x="257.9336985384687" y="168.08817708333333" width="13.058114305409516" height="298.91182291666667" fill="#ECECFF" stroke="#ECECFF" stroke-width="0"/><rect x="271.99874209876293" y="164.00997395833332" width="13.058114305409516" height="302.9900260416667" fill="#ECECFF" stroke="#ECECFF" stroke-width="0"/><rect x="286.06378565905715" y="164.00997395833332" width="13.058114305409516" height="302.9900260416667" fill="#ECECFF" stroke="#ECECFF" stroke-width="0"/><rect x="300.12882921935136" y="164.00997395833332" width="13.058114305409516" height="302.9900260416667" fill="#ECECFF" stroke="#ECECFF" stroke-width="0"/><rect x="314.1938727796456" y="159.93177083333336" width="13.058114305409516" height="307.06822916666664" fill="#ECECFF" stroke="#ECECFF" stroke-width="0"/><rect x="328.2589163399398" y="153.134765625" width="13.058114305409516" height="313.865234375" fill="#ECECFF" stroke="#ECECFF" stroke-width="0"/><rect x="342.323959900234" y="144.978359375" width="13.058114305409516" height="322.02164062500003" fill="#ECECFF" stroke="#ECECFF" stroke-width="0"/><rect x="356.3890034605282" y="140.90015624999998" width="13.058114305409516" height="326.09984375" fill="#ECECFF" stroke="#ECECFF" stroke-width="0"/><rect x="370.45404702082243" y="136.821953125" width="13.058114305409516" height="330.178046875" fill="#ECECFF" stroke="#ECECFF" stroke-width="0"/><rect x="384.51909058111664" y="132.74374999999998" width="13.058114305409516" height="334.25625" fill="#ECECFF" stroke="#ECECFF" stroke-width="0"/><rect x="398.58413414141086" y="132.74374999999998" width="13.058114305409516" height="334.25625" fill="#ECECFF" stroke="#ECECFF" stroke-width="0"/><rect x="412.6491777017051" y="127.30614583333332" width="13.058114305409516" height="339.6938541666667" fill="#ECECFF" stroke="#ECECFF" stroke-width="0"/><rect x="426.71422126199934" y="124.58734375000002" width="13.058114305409516" height="342.41265625" fill="#ECECFF" stroke="#ECECFF" stroke-width="0"/><rect x="440.77926482229356" y="124.58734375000002" width="13.058114305409516" height="342.41265625" fill="#ECECFF" stroke="#ECECFF" stroke-width="0"/><rect x="454.84430838258777" y="124.58734375000002" width="13.058114305409516" height="342.41265625" fill="#ECECFF" stroke="#ECECFF" stroke-width="0"/><rect x="468.909351942882" y="124.58734375000002" width="13.058114305409516" height="342.41265625" fill="#ECECFF" stroke="#ECECFF" stroke-width="0"/><rect x="482.9743955031762" y="124.58734375000002" width="13.058114305409516" height="342.41265625" fill="#ECECFF" stroke="#ECECFF" stroke-width="0"/><rect x="497.0394390634704" y="124.58734375000002" width="13.058114305409516" height="342.41265625" fill="#ECECFF" stroke="#ECECFF" stroke-width="0"/><rect x="511.1044826237647" y="124.58734375000002" width="13.058114305409516" height="342.41265625" fill="#ECECFF" stroke="#ECECFF" stroke-width="0"/><rect x="525.1695261840588" y="124.58734375000002" width="13.058114305409516" height="342.41265625" fill="#ECECFF" stroke="#ECECFF" stroke-width="0"/><rect x="539.2345697443529" y="124.58734375000002" width="13.058114305409516" height="342.41265625" fill="#ECECFF" stroke="#ECECFF" stroke-width="0"/><rect x="553.2996133046472" y="123.22794270833333" width="13.058114305409516" height="343.77205729166667" fill="#ECECFF" stroke="#ECECFF" stroke-width="0"/><rect x="567.3646568649415" y="121.86854166666666" width="13.058114305409516" height="345.13145833333334" fill="#ECECFF" stroke="#ECECFF" stroke-width="0"/><rect x="581.4297004252356" y="119.14973958333331" width="13.058114305409516" height="347.8502604166667" fill="#ECECFF" stroke="#ECECFF" stroke-width="0"/><rect x="595.4947439855299" y="119.14973958333331" width="13.058114305409516" height="347.8502604166667" fill="#ECECFF" stroke="#ECECFF" stroke-width="0"/><rect x="609.5597875458241" y="96.039921875" width="13.058114305409516" height="370.960078125" fill="#ECECFF" stroke="#ECECFF" stroke-width="0"/><rect x="623.6248311061183" y="91.96171874999999" width="13.058114305409516" height="375.03828125" fill="#ECECFF" stroke="#ECECFF" stroke-width="0"/><rect x="637.6898746664125" y="91.96171874999999" width="13.058114305409516" height="375.03828125" fill="#ECECFF" stroke="#ECECFF" stroke-width="0"/><rect x="651.7549182267068" y="87.88351562499999" width="13.058114305409516" height="379.116484375" fill="#ECECFF" stroke="#ECECFF" stroke-width="0"/><rect x="665.8199617870009" y="87.88351562499999" width="13.058114305409516" height="379.116484375" fill="#ECECFF" stroke="#ECECFF" stroke-width="0"/><rect x="679.8850053472952" y="78.36770833333333" width="13.058114305409516" height="388.6322916666667" fill="#ECECFF" stroke="#ECECFF" stroke-width="0"/></g></g><g class="bottom-axis"><g class="axis-line"><path d="M 68.03125190734863,468 L 700,468" fill="none" stroke="#131300" stroke-width="2"/></g><g class="label"><text x="0" y="0" fill="#131300" font-size="14" dominant-baseline="text-before-edge" text-anchor="middle" transform="translate(81.61718940734863, 479) rotate(0)">2.25</text><text x="0" y="0" fill="#131300" font-size="14" dominant-baseline="text-before-edge" text-anchor="middle" transform="translate(95.68223296764285, 479) rotate(0)">‚Äč‚Äč</text><text x="0" y="0" fill="#131300" font-size="14" dominant-baseline="text-before-edge" text-anchor="middle" transform="translate(109.74727652793706, 479) rotate(0)">‚Äč‚Äč‚Äč</text><text x="0" y="0" fill="#131300" font-size="14" dominant-baseline="text-before-edge" text-anchor="middle" transform="translate(123.81232008823129, 479) rotate(0)">‚Äč‚Äč‚Äč‚Äč</text><text x="0" y="0" fill="#131300" font-size="14" dominant-baseline="text-before-edge" text-anchor="middle" transform="translate(137.8773636485255, 479) rotate(0)">3.1</text><text x="0" y="0" fill="#131300" font-size="14" dominant-baseline="text-before-edge" text-anchor="middle" transform="translate(151.9424072088197, 479) rotate(0)">‚Äč‚Äč‚Äč‚Äč‚Äč‚Äč</text><text x="0" y="0" fill="#131300" font-size="14" dominant-baseline="text-before-edge" text-anchor="middle" transform="translate(166.00745076911394, 479) rotate(0)">‚Äč‚Äč‚Äč‚Äč‚Äč‚Äč‚Äč</text><text x="0" y="0" fill="#131300" font-size="14" dominant-baseline="text-before-edge" text-anchor="middle" transform="translate(180.07249432940816, 479) rotate(0)">‚Äč‚Äč‚Äč‚Äč‚Äč‚Äč‚Äč‚Äč</text><text x="0" y="0" fill="#131300" font-size="14" dominant-baseline="text-before-edge" text-anchor="middle" transform="translate(194.13753788970237, 479) rotate(0)">‚Äč‚Äč‚Äč‚Äč‚Äč‚Äč‚Äč‚Äč‚Äč</text><text x="0" y="0" fill="#131300" font-size="14" dominant-baseline="text-before-edge" text-anchor="middle" transform="translate(208.2025814499966, 479) rotate(0)">‚Äč‚Äč‚Äč‚Äč‚Äč‚Äč‚Äč‚Äč‚Äč‚Äč</text><text x="0" y="0" fill="#131300" font-size="14" dominant-baseline="text-before-edge" text-anchor="middle" transform="translate(222.2676250102908, 479) rotate(0)">‚Äč‚Äč‚Äč‚Äč‚Äč‚Äč‚Äč‚Äč‚Äč‚Äč‚Äč</text><text x="0" y="0" fill="#131300" font-size="14" dominant-baseline="text-before-edge" text-anchor="middle" transform="translate(236.332668570585, 479) rotate(0)">3.8</text><text x="0" y="0" fill="#131300" font-size="14" dominant-baseline="text-before-edge" text-anchor="middle" transform="translate(250.39771213087926, 479) rotate(0)">‚Äč‚Äč‚Äč‚Äč‚Äč‚Äč‚Äč‚Äč‚Äč‚Äč‚Äč‚Äč‚Äč</text><text x="0" y="0" fill="#131300" font-size="14" dominant-baseline="text-before-edge" text-anchor="middle" transform="translate(264.46275569117347, 479) rotate(0)">‚Äč‚Äč‚Äč‚Äč‚Äč‚Äč‚Äč‚Äč‚Äč‚Äč‚Äč‚Äč‚Äč‚Äč</text><text x="0" y="0" fill="#131300" font-size="14" dominant-baseline="text-before-edge" text-anchor="middle" transform="translate(278.5277992514677, 479) rotate(0)">‚Äč‚Äč‚Äč‚Äč‚Äč‚Äč‚Äč‚Äč‚Äč‚Äč‚Äč‚Äč‚Äč‚Äč‚Äč</text><text x="0" y="0" fill="#131300" font-size="14" dominant-baseline="text-before-edge" text-anchor="middle" transform="translate(292.5928428117619, 479) rotate(0)">‚Äč‚Äč‚Äč‚Äč‚Äč‚Äč‚Äč‚Äč‚Äč‚Äč‚Äč‚Äč‚Äč‚Äč‚Äč‚Äč</text><text x="0" y="0" fill="#131300" font-size="14" dominant-baseline="text-before-edge" text-anchor="middle" transform="translate(306.6578863720561, 479) rotate(0)">‚Äč‚Äč‚Äč‚Äč‚Äč‚Äč‚Äč‚Äč‚Äč‚Äč‚Äč‚Äč‚Äč‚Äč‚Äč‚Äč‚Äč</text><text x="0" y="0" fill="#131300" font-size="14" dominant-baseline="text-before-edge" text-anchor="middle" transform="translate(320.7229299323503, 479) rotate(0)">‚Äč‚Äč‚Äč‚Äč‚Äč‚Äč‚Äč‚Äč‚Äč‚Äč‚Äč‚Äč‚Äč‚Äč‚Äč‚Äč‚Äč‚Äč</text><text x="0" y="0" fill="#131300" font-size="14" dominant-baseline="text-before-edge" text-anchor="middle" transform="translate(334.78797349264454, 479) rotate(0)">3.15</text><text x="0" y="0" fill="#131300" font-size="14" dominant-baseline="text-before-edge" text-anchor="middle" transform="translate(348.85301705293875, 479) rotate(0)">‚Äč‚Äč‚Äč‚Äč‚Äč‚Äč‚Äč‚Äč‚Äč‚Äč‚Äč‚Äč‚Äč‚Äč‚Äč‚Äč‚Äč‚Äč‚Äč‚Äč</text><text x="0" y="0" fill="#131300" font-size="14" dominant-baseline="text-before-edge" text-anchor="middle" transform="translate(362.91806061323297, 479) rotate(0)">‚Äč‚Äč‚Äč‚Äč‚Äč‚Äč‚Äč‚Äč‚Äč‚Äč‚Äč‚Äč‚Äč‚Äč‚Äč‚Äč‚Äč‚Äč‚Äč‚Äč‚Äč</text><text x="0" y="0" fill="#131300" font-size="14" dominant-baseline="text-before-edge" text-anchor="middle" transform="translate(376.9831041735272, 479) rotate(0)">‚Äč‚Äč‚Äč‚Äč‚Äč‚Äč‚Äč‚Äč‚Äč‚Äč‚Äč‚Äč‚Äč‚Äč‚Äč‚Äč‚Äč‚Äč‚Äč‚Äč‚Äč‚Äč</text><text x="0" y="0" fill="#131300" font-size="14" dominant-baseline="text-before-edge" text-anchor="middle" transform="translate(391.0481477338214, 479) rotate(0)">‚Äč‚Äč‚Äč‚Äč‚Äč‚Äč‚Äč‚Äč‚Äč‚Äč‚Äč‚Äč‚Äč‚Äč‚Äč‚Äč‚Äč‚Äč‚Äč‚Äč‚Äč‚Äč‚Äč</text><text x="0" y="0" fill="#131300" font-size="14" dominant-baseline="text-before-edge" text-anchor="middle" transform="translate(405.1131912941156, 479) rotate(0)">‚Äč‚Äč‚Äč‚Äč‚Äč‚Äč‚Äč‚Äč‚Äč‚Äč‚Äč‚Äč‚Äč‚Äč‚Äč‚Äč‚Äč‚Äč‚Äč‚Äč‚Äč‚Äč‚Äč‚Äč</text><text x="0" y="0" fill="#131300" font-size="14" dominant-baseline="text-before-edge" text-anchor="middle" transform="translate(419.1782348544099, 479) rotate(0)">‚Äč‚Äč‚Äč‚Äč‚Äč‚Äč‚Äč‚Äč‚Äč‚Äč‚Äč‚Äč‚Äč‚Äč‚Äč‚Äč‚Äč‚Äč‚Äč‚Äč‚Äč‚Äč‚Äč‚Äč‚Äč</text><text x="0" y="0" fill="#131300" font-size="14" dominant-baseline="text-before-edge" text-anchor="middle" transform="translate(433.2432784147041, 479) rotate(0)">3.22</text><text x="0" y="0" fill="#131300" font-size="14" dominant-baseline="text-before-edge" text-anchor="middle" transform="translate(447.3083219749983, 479) rotate(0)">‚Äč‚Äč‚Äč‚Äč‚Äč‚Äč‚Äč‚Äč‚Äč‚Äč‚Äč‚Äč‚Äč‚Äč‚Äč‚Äč‚Äč‚Äč‚Äč‚Äč‚Äč‚Äč‚Äč‚Äč‚Äč‚Äč‚Äč</text><text x="0" y="0" fill="#131300" font-size="14" dominant-baseline="text-before-edge" text-anchor="middle" transform="translate(461.3733655352925, 479) rotate(0)">‚Äč‚Äč‚Äč‚Äč‚Äč‚Äč‚Äč‚Äč‚Äč‚Äč‚Äč‚Äč‚Äč‚Äč‚Äč‚Äč‚Äč‚Äč‚Äč‚Äč‚Äč‚Äč‚Äč‚Äč‚Äč‚Äč‚Äč‚Äč</text><text x="0" y="0" fill="#131300" font-size="14" dominant-baseline="text-before-edge" text-anchor="middle" transform="translate(475.43840909558674, 479) rotate(0)">‚Äč‚Äč‚Äč‚Äč‚Äč‚Äč‚Äč‚Äč‚Äč‚Äč‚Äč‚Äč‚Äč‚Äč‚Äč‚Äč‚Äč‚Äč‚Äč‚Äč‚Äč‚Äč‚Äč‚Äč‚Äč‚Äč‚Äč‚Äč‚Äč</text><text x="0" y="0" fill="#131300" font-size="14" dominant-baseline="text-before-edge" text-anchor="middle" transform="translate(489.50345265588095, 479) rotate(0)">‚Äč‚Äč‚Äč‚Äč‚Äč‚Äč‚Äč‚Äč‚Äč‚Äč‚Äč‚Äč‚Äč‚Äč‚Äč‚Äč‚Äč‚Äč‚Äč‚Äč‚Äč‚Äč‚Äč‚Äč‚Äč‚Äč‚Äč‚Äč‚Äč‚Äč</text><text x="0" y="0" fill="#131300" font-size="14" dominant-baseline="text-before-edge" text-anchor="middle" transform="translate(503.56849621617516, 479) rotate(0)">‚Äč‚Äč‚Äč‚Äč‚Äč‚Äč‚Äč‚Äč‚Äč‚Äč‚Äč‚Äč‚Äč‚Äč‚Äč‚Äč‚Äč‚Äč‚Äč‚Äč‚Äč‚Äč‚Äč‚Äč‚Äč‚Äč‚Äč‚Äč‚Äč‚Äč‚Äč</text><text x="0" y="0" fill="#131300" font-size="14" dominant-baseline="text-before-edge" text-anchor="middle" transform="translate(517.6335397764694, 479) rotate(0)">‚Äč‚Äč‚Äč‚Äč‚Äč‚Äč‚Äč‚Äč‚Äč‚Äč‚Äč‚Äč‚Äč‚Äč‚Äč‚Äč‚Äč‚Äč‚Äč‚Äč‚Äč‚Äč‚Äč‚Äč‚Äč‚Äč‚Äč‚Äč‚Äč‚Äč‚Äč‚Äč</text><text x="0" y="0" fill="#131300" font-size="14" dominant-baseline="text-before-edge" text-anchor="middle" transform="translate(531.6985833367636, 479) rotate(0)">3.29</text><text x="0" y="0" fill="#131300" font-size="14" dominant-baseline="text-before-edge" text-anchor="middle" transform="translate(545.7636268970577, 479) rotate(0)">‚Äč‚Äč‚Äč‚Äč‚Äč‚Äč‚Äč‚Äč‚Äč‚Äč‚Äč‚Äč‚Äč‚Äč‚Äč‚Äč‚Äč‚Äč‚Äč‚Äč‚Äč‚Äč‚Äč‚Äč‚Äč‚Äč‚Äč‚Äč‚Äč‚Äč‚Äč‚Äč‚Äč‚Äč</text><text x="0" y="0" fill="#131300" font-size="14" dominant-baseline="text-before-edge" text-anchor="middle" transform="translate(559.828670457352, 479) rotate(0)">‚Äč‚Äč‚Äč‚Äč‚Äč‚Äč‚Äč‚Äč‚Äč‚Äč‚Äč‚Äč‚Äč‚Äč‚Äč‚Äč‚Äč‚Äč‚Äč‚Äč‚Äč‚Äč‚Äč‚Äč‚Äč‚Äč‚Äč‚Äč‚Äč‚Äč‚Äč‚Äč‚Äč‚Äč‚Äč</text><text x="0" y="0" fill="#131300" font-size="14" dominant-baseline="text-before-edge" text-anchor="middle" transform="translate(573.8937140176463, 479) rotate(0)">4.1</text><text x="0" y="0" fill="#131300" font-size="14" dominant-baseline="text-before-edge" text-anchor="middle" transform="translate(587.9587575779404, 479) rotate(0)">‚Äč‚Äč‚Äč‚Äč‚Äč‚Äč‚Äč‚Äč‚Äč‚Äč‚Äč‚Äč‚Äč‚Äč‚Äč‚Äč‚Äč‚Äč‚Äč‚Äč‚Äč‚Äč‚Äč‚Äč‚Äč‚Äč‚Äč‚Äč‚Äč‚Äč‚Äč‚Äč‚Äč‚Äč‚Äč‚Äč‚Äč</text><text x="0" y="0" fill="#131300" font-size="14" dominant-baseline="text-before-edge" text-anchor="middle" transform="translate(602.0238011382347, 479) rotate(0)">‚Äč‚Äč‚Äč‚Äč‚Äč‚Äč‚Äč‚Äč‚Äč‚Äč‚Äč‚Äč‚Äč‚Äč‚Äč‚Äč‚Äč‚Äč‚Äč‚Äč‚Äč‚Äč‚Äč‚Äč‚Äč‚Äč‚Äč‚Äč‚Äč‚Äč‚Äč‚Äč‚Äč‚Äč‚Äč‚Äč‚Äč‚Äč</text><text x="0" y="0" fill="#131300" font-size="14" dominant-baseline="text-before-edge" text-anchor="middle" transform="translate(616.0888446985289, 479) rotate(0)">‚Äč‚Äč‚Äč‚Äč‚Äč‚Äč‚Äč‚Äč‚Äč‚Äč‚Äč‚Äč‚Äč‚Äč‚Äč‚Äč‚Äč‚Äč‚Äč‚Äč‚Äč‚Äč‚Äč‚Äč‚Äč‚Äč‚Äč‚Äč‚Äč‚Äč‚Äč‚Äč‚Äč‚Äč‚Äč‚Äč‚Äč‚Äč‚Äč</text><text x="0" y="0" fill="#131300" font-size="14" dominant-baseline="text-before-edge" text-anchor="middle" transform="translate(630.1538882588231, 479) rotate(0)">‚Äč‚Äč‚Äč‚Äč‚Äč‚Äč‚Äč‚Äč‚Äč‚Äč‚Äč‚Äč‚Äč‚Äč‚Äč‚Äč‚Äč‚Äč‚Äč‚Äč‚Äč‚Äč‚Äč‚Äč‚Äč‚Äč‚Äč‚Äč‚Äč‚Äč‚Äč‚Äč‚Äč‚Äč‚Äč‚Äč‚Äč‚Äč‚Äč‚Äč</text><text x="0" y="0" fill="#131300" font-size="14" dominant-baseline="text-before-edge" text-anchor="middle" transform="translate(644.2189318191173, 479) rotate(0)">‚Äč‚Äč‚Äč‚Äč‚Äč‚Äč‚Äč‚Äč‚Äč‚Äč‚Äč‚Äč‚Äč‚Äč‚Äč‚Äč‚Äč‚Äč‚Äč‚Äč‚Äč‚Äč‚Äč‚Äč‚Äč‚Äč‚Äč‚Äč‚Äč‚Äč‚Äč‚Äč‚Äč‚Äč‚Äč‚Äč‚Äč‚Äč‚Äč‚Äč‚Äč</text><text x="0" y="0" fill="#131300" font-size="14" dominant-baseline="text-before-edge" text-anchor="middle" transform="translate(658.2839753794116, 479) rotate(0)">‚Äč‚Äč‚Äč‚Äč‚Äč‚Äč‚Äč‚Äč‚Äč‚Äč‚Äč‚Äč‚Äč‚Äč‚Äč‚Äč‚Äč‚Äč‚Äč‚Äč‚Äč‚Äč‚Äč‚Äč‚Äč‚Äč‚Äč‚Äč‚Äč‚Äč‚Äč‚Äč‚Äč‚Äč‚Äč‚Äč‚Äč‚Äč‚Äč‚Äč‚Äč‚Äč</text><text x="0" y="0" fill="#131300" font-size="14" dominant-baseline="text-before-edge" text-anchor="middle" transform="translate(672.3490189397057, 479) rotate(0)">4.8</text><text x="0" y="0" fill="#131300" font-size="14" dominant-baseline="text-before-edge" text-anchor="middle" transform="translate(686.4140625, 479) rotate(0)">4.9</text></g><g class="ticks"><path d="M 81.61718940734863,469 L 81.61718940734863,474" fill="none" stroke="#131300" stroke-width="2"/><path d="M 95.68223296764285,469 L 95.68223296764285,474" fill="none" stroke="#131300" stroke-width="2"/><path d="M 109.74727652793706,469 L 109.74727652793706,474" fill="none" stroke="#131300" stroke-width="2"/><path d="M 123.81232008823129,469 L 123.81232008823129,474" fill="none" stroke="#131300" stroke-width="2"/><path d="M 137.8773636485255,469 L 137.8773636485255,474" fill="none" stroke="#131300" stroke-width="2"/><path d="M 151.9424072088197,469 L 151.9424072088197,474" fill="none" stroke="#131300" stroke-width="2"/><path d="M 166.00745076911394,469 L 166.00745076911394,474" fill="none" stroke="#131300" stroke-width="2"/><path d="M 180.07249432940816,469 L 180.07249432940816,474" fill="none" stroke="#131300" stroke-width="2"/><path d="M 194.13753788970237,469 L 194.13753788970237,474" fill="none" stroke="#131300" stroke-width="2"/><path d="M 208.2025814499966,469 L 208.2025814499966,474" fill="none" stroke="#131300" stroke-width="2"/><path d="M 222.2676250102908,469 L 222.2676250102908,474" fill="none" stroke="#131300" stroke-width="2"/><path d="M 236.332668570585,469 L 236.332668570585,474" fill="none" stroke="#131300" stroke-width="2"/><path d="M 250.39771213087926,469 L 250.39771213087926,474" fill="none" stroke="#131300" stroke-width="2"/><path d="M 264.46275569117347,469 L 264.46275569117347,474" fill="none" stroke="#131300" stroke-width="2"/><path d="M 278.5277992514677,469 L 278.5277992514677,474" fill="none" stroke="#131300" stroke-width="2"/><path d="M 292.5928428117619,469 L 292.5928428117619,474" fill="none" stroke="#131300" stroke-width="2"/><path d="M 306.6578863720561,469 L 306.6578863720561,474" fill="none" stroke="#131300" stroke-width="2"/><path d="M 320.7229299323503,469 L 320.7229299323503,474" fill="none" stroke="#131300" stroke-width="2"/><path d="M 334.78797349264454,469 L 334.78797349264454,474" fill="none" stroke="#131300" stroke-width="2"/><path d="M 348.85301705293875,469 L 348.85301705293875,474" fill="none" stroke="#131300" stroke-width="2"/><path d="M 362.91806061323297,469 L 362.91806061323297,474" fill="none" stroke="#131300" stroke-width="2"/><path d="M 376.9831041735272,469 L 376.9831041735272,474" fill="none" stroke="#131300" stroke-width="2"/><path d="M 391.0481477338214,469 L 391.0481477338214,474" fill="none" stroke="#131300" stroke-width="2"/><path d="M 405.1131912941156,469 L 405.1131912941156,474" fill="none" stroke="#131300" stroke-width="2"/><path d="M 419.1782348544099,469 L 419.1782348544099,474" fill="none" stroke="#131300" stroke-width="2"/><path d="M 433.2432784147041,469 L 433.2432784147041,474" fill="none" stroke="#131300" stroke-width="2"/><path d="M 447.3083219749983,469 L 447.3083219749983,474" fill="none" stroke="#131300" stroke-width="2"/><path d="M 461.3733655352925,469 L 461.3733655352925,474" fill="none" stroke="#131300" stroke-width="2"/><path d="M 475.43840909558674,469 L 475.43840909558674,474" fill="none" stroke="#131300" stroke-width="2"/><path d="M 489.50345265588095,469 L 489.50345265588095,474" fill="none" stroke="#131300" stroke-width="2"/><path d="M 503.56849621617516,469 L 503.56849621617516,474" fill="none" stroke="#131300" stroke-width="2"/><path d="M 517.6335397764694,469 L 517.6335397764694,474" fill="none" stroke="#131300" stroke-width="2"/><path d="M 531.6985833367636,469 L 531.6985833367636,474" fill="none" stroke="#131300" stroke-width="2"/><path d="M 545.7636268970577,469 L 545.7636268970577,474" fill="none" stroke="#131300" stroke-width="2"/><path d="M 559.828670457352,469 L 559.828670457352,474" fill="none" stroke="#131300" stroke-width="2"/><path d="M 573.8937140176463,469 L 573.8937140176463,474" fill="none" stroke="#131300" stroke-width="2"/><path d="M 587.9587575779404,469 L 587.9587575779404,474" fill="none" stroke="#131300" stroke-width="2"/><path d="M 602.0238011382347,469 L 602.0238011382347,474" fill="none" stroke="#131300" stroke-width="2"/><path d="M 616.0888446985289,469 L 616.0888446985289,474" fill="none" stroke="#131300" stroke-width="2"/><path d="M 630.1538882588231,469 L 630.1538882588231,474" fill="none" stroke="#131300" stroke-width="2"/><path d="M 644.2189318191173,469 L 644.2189318191173,474" fill="none" stroke="#131300" stroke-width="2"/><path d="M 658.2839753794116,469 L 658.2839753794116,474" fill="none" stroke="#131300" stroke-width="2"/><path d="M 672.3490189397057,469 L 672.3490189397057,474" fill="none" stroke="#131300" stroke-width="2"/><path d="M 686.4140625,469 L 686.4140625,474" fill="none" stroke="#131300" stroke-width="2"/></g></g><g class="left-axis"><g class="axisl-line"><path d="M 67.03125190734863,43.1796875 L 67.03125190734863,467" fill="none" stroke="#131300" stroke-width="2"/></g><g class="label"><text x="0" y="0" fill="#131300" font-size="14" dominant-baseline="middle" text-anchor="end" transform="translate(56.03125190734863, 51.1796875) rotate(0)">300</text><text x="0" y="0" fill="#131300" font-size="14" dominant-baseline="middle" text-anchor="end" transform="translate(56.03125190734863, 78.36770833333333) rotate(0)">280</text><text x="0" y="0" fill="#131300" font-size="14" dominant-baseline="middle" text-anchor="end" transform="translate(56.03125190734863, 105.55572916666665) rotate(0)">260</text><text x="0" y="0" fill="#131300" font-size="14" dominant-baseline="middle" text-anchor="end" transform="translate(56.03125190734863, 132.74374999999998) rotate(0)">240</text><text x="0" y="0" fill="#131300" font-size="14" dominant-baseline="middle" text-anchor="end" transform="translate(56.03125190734863, 159.93177083333336) rotate(0)">220</text><text x="0" y="0" fill="#131300" font-size="14" dominant-baseline="middle" text-anchor="end" transform="translate(56.03125190734863, 187.11979166666669) rotate(0)">200</text><text x="0" y="0" fill="#131300" font-size="14" dominant-baseline="middle" text-anchor="end" transform="translate(56.03125190734863, 214.3078125) rotate(0)">180</text><text x="0" y="0" fill="#131300" font-size="14" dominant-baseline="middle" text-anchor="end" transform="translate(56.03125190734863, 241.49583333333334) rotate(0)">160</text><text x="0" y="0" fill="#131300" font-size="14" dominant-baseline="middle" text-anchor="end" transform="translate(56.03125190734863, 268.68385416666666) rotate(0)">140</text><text x="0" y="0" fill="#131300" font-size="14" dominant-baseline="middle" text-anchor="end" transform="translate(56.03125190734863, 295.871875) rotate(0)">120</text><text x="0" y="0" fill="#131300" font-size="14" dominant-baseline="middle" text-anchor="end" transform="translate(56.03125190734863, 323.05989583333337) rotate(0)">100</text><text x="0" y="0" fill="#131300" font-size="14" dominant-baseline="middle" text-anchor="end" transform="translate(56.03125190734863, 350.2479166666667) rotate(0)">80</text><text x="0" y="0" fill="#131300" font-size="14" dominant-baseline="middle" text-anchor="end" transform="translate(56.03125190734863, 377.4359375) rotate(0)">60</text><text x="0" y="0" fill="#131300" font-size="14" dominant-baseline="middle" text-anchor="end" transform="translate(56.03125190734863, 404.62395833333335) rotate(0)">40</text><text x="0" y="0" fill="#131300" font-size="14" dominant-baseline="middle" text-anchor="end" transform="translate(56.03125190734863, 431.8119791666667) rotate(0)">20</text><text x="0" y="0" fill="#131300" font-size="14" dominant-baseline="middle" text-anchor="end" transform="translate(56.03125190734863, 459) rotate(0)">0</text></g><g class="ticks"><path d="M 66.03125190734863,51.1796875 L 61.03125190734863,51.1796875" fill="none" stroke="#131300" stroke-width="2"/><path d="M 66.03125190734863,78.36770833333333 L 61.03125190734863,78.36770833333333" fill="none" stroke="#131300" stroke-width="2"/><path d="M 66.03125190734863,105.55572916666665 L 61.03125190734863,105.55572916666665" fill="none" stroke="#131300" stroke-width="2"/><path d="M 66.03125190734863,132.74374999999998 L 61.03125190734863,132.74374999999998" fill="none" stroke="#131300" stroke-width="2"/><path d="M 66.03125190734863,159.93177083333336 L 61.03125190734863,159.93177083333336" fill="none" stroke="#131300" stroke-width="2"/><path d="M 66.03125190734863,187.11979166666669 L 61.03125190734863,187.11979166666669" fill="none" stroke="#131300" stroke-width="2"/><path d="M 66.03125190734863,214.3078125 L 61.03125190734863,214.3078125" fill="none" stroke="#131300" stroke-width="2"/><path d="M 66.03125190734863,241.49583333333334 L 61.03125190734863,241.49583333333334" fill="none" stroke="#131300" stroke-width="2"/><path d="M 66.03125190734863,268.68385416666666 L 61.03125190734863,268.68385416666666" fill="none" stroke="#131300" stroke-width="2"/><path d="M 66.03125190734863,295.871875 L 61.03125190734863,295.871875" fill="none" stroke="#131300" stroke-width="2"/><path d="M 66.03125190734863,323.05989583333337 L 61.03125190734863,323.05989583333337" fill="none" stroke="#131300" stroke-width="2"/><path d="M 66.03125190734863,350.2479166666667 L 61.03125190734863,350.2479166666667" fill="none" stroke="#131300" stroke-width="2"/><path d="M 66.03125190734863,377.4359375 L 61.03125190734863,377.4359375" fill="none" stroke="#131300" stroke-width="2"/><path d="M 66.03125190734863,404.62395833333335 L 61.03125190734863,404.62395833333335" fill="none" stroke="#131300" stroke-width="2"/><path d="M 66.03125190734863,431.8119791666667 L 61.03125190734863,431.8119791666667" fill="none" stroke="#131300" stroke-width="2"/><path d="M 66.03125190734863,459 L 61.03125190734863,459" fill="none" stroke="#131300" stroke-width="2"/></g><g class="title"><text x="0" y="0" fill="#131300" font-size="16" dominant-baseline="text-before-edge" text-anchor="middle" transform="translate(5, 255.08984375) rotate(270)">Members</text></g></g></g><g class="mermaid-tmp-group"/></svg>