<svg id="my-svg" width="100%" xmlns="http://www.w3.org/2000/svg" xmlns:xlink="http://www.w3.org/1999/xlink" style="max-width: 700px; background-color: white;" viewBox="0 0 700 500" role="graphics-document document" aria-roledescription="xychart"><style>#my-svg{font-family:"trebuchet ms",verdana,arial,sans-serif;font-size:16px;fill:#333;}@keyframes edge-animation-frame{from{stroke-dashoffset:0;}}@keyframes dash{to{stroke-dashoffset:0;}}#my-svg .edge-animation-slow{stroke-dasharray:9,5!important;stroke-dashoffset:900;animation:dash 50s linear infinite;stroke-linecap:round;}#my-svg .edge-animation-fast{stroke-dasharray:9,5!important;stroke-dashoffset:900;animation:dash 20s linear infinite;stroke-linecap:round;}#my-svg .error-icon{fill:#552222;}#my-svg .error-text{fill:#552222;stroke:#552222;}#my-svg .edge-thickness-normal{stroke-width:1px;}#my-svg .edge-thickness-thick{stroke-width:3.5px;}#my-svg .edge-pattern-solid{stroke-dasharray:0;}#my-svg .edge-thickness-invisible{stroke-width:0;fill:none;}#my-svg .edge-pattern-dashed{stroke-dasharray:3;}#my-svg .edge-pattern-dotted{stroke-dasharray:2;}#my-svg .marker{fill:#333333;stroke:#333333;}#my-svg .marker.cross{stroke:#333333;}#my-svg svg{font-family:"trebuchet ms",verdana,arial,sans-serif;font-size:16px;}#my-svg p{margin:0;}#my-svg :root{--mermaid-font-family:"trebuchet ms",verdana,arial,sans-serif;}</style><g/><g class="main"><rect width="700" height="500" class="background" fill="white"/><g class="chart-title"><text x="0" y="0" fill="#131300" font-size="20" dominant-baseline="middle" text-anchor="middle" transform="translate(350, 21.58984375) rotate(0)">Daily Cumulative Member Tally (2026) - Full Scale</text></g><g class="plot"><g class="bar-plot-0"><rect x="68.78125190734863" y="162.88699048913043" width="28.5" height="304.1130095108696" fill="#ECECFF" stroke="#ECECFF" stroke-width="0"/><rect x="115.08654022216797" y="157.56759510869568" width="28.5" height="309.4324048913043" fill="#ECECFF" stroke="#ECECFF" stroke-width="0"/><rect x="161.3918285369873" y="152.2481997282609" width="28.5" height="314.7518002717391" fill="#ECECFF" stroke="#ECECFF" stroke-width="0"/><rect x="207.69711685180664" y="148.70193614130432" width="28.5" height="318.2980638586957" fill="#ECECFF" stroke="#ECECFF" stroke-width="0"/><rect x="254.00240516662598" y="138.06314538043478" width="28.5" height="328.9368546195652" fill="#ECECFF" stroke="#ECECFF" stroke-width="0"/><rect x="300.3076934814453" y="134.5168817934783" width="28.5" height="332.4831182065217" fill="#ECECFF" stroke="#ECECFF" stroke-width="0"/><rect x="346.61298179626465" y="134.5168817934783" width="28.5" height="332.4831182065217" fill="#ECECFF" stroke="#ECECFF" stroke-width="0"/><rect x="392.918270111084" y="129.19748641304346" width="28.5" height="337.80251358695654" fill="#ECECFF" stroke="#ECECFF" stroke-width="0"/><rect x="439.2235584259033" y="127.42435461956524" width="28.5" height="339.57564538043476" fill="#ECECFF" stroke="#ECECFF" stroke-width="0"/><rect x="485.52884674072266" y="122.10495923913044" width="28.5" height="344.89504076086956" fill="#ECECFF" stroke="#ECECFF" stroke-width="0"/><rect x="531.834135055542" y="111.4661684782609" width="28.5" height="355.5338315217391" fill="#ECECFF" stroke="#ECECFF" stroke-width="0"/><rect x="578.1394233703613" y="99.05424592391304" width="28.5" height="367.9457540760869" fill="#ECECFF" stroke="#ECECFF" stroke-width="0"/><rect x="624.4447116851807" y="84.86919157608693" width="28.5" height="382.1308084239131" fill="#ECECFF" stroke="#ECECFF" stroke-width="0"/><rect x="670.75" y="79.54979619565219" width="28.5" height="387.4502038043478" fill="#ECECFF" stroke="#ECECFF" stroke-width="0"/></g></g><g class="bottom-axis"><g class="axis-line"><path d="M 68.03125190734863,468 L 700,468" fill="none" stroke="#131300" stroke-width="2"/></g><g class="label"><text x="0" y="0" fill="#131300" font-size="14" dominant-baseline="text-before-edge" text-anchor="middle" transform="translate(83.03125190734863, 479) rotate(0)">2.25</text><text x="0" y="0" fill="#131300" font-size="14" dominant-baseline="text-before-edge" text-anchor="middle" transform="translate(129.33654022216797, 479) rotate(0)">26</text><text x="0" y="0" fill="#131300" font-size="14" dominant-baseline="text-before-edge" text-anchor="middle" transform="translate(175.6418285369873, 479) rotate(0)">27</text><text x="0" y="0" fill="#131300" font-size="14" dominant-baseline="text-before-edge" text-anchor="middle" transform="translate(221.94711685180664, 479) rotate(0)">28</text><text x="0" y="0" fill="#131300" font-size="14" dominant-baseline="text-before-edge" text-anchor="middle" transform="translate(268.252405166626, 479) rotate(0)">3.1</text><text x="0" y="0" fill="#131300" font-size="14" dominant-baseline="text-before-edge" text-anchor="middle" transform="translate(314.5576934814453, 479) rotate(0)">2</text><text x="0" y="0" fill="#131300" font-size="14" dominant-baseline="text-before-edge" text-anchor="middle" transform="translate(360.86298179626465, 479) rotate(0)">3</text><text x="0" y="0" fill="#131300" font-size="14" dominant-baseline="text-before-edge" text-anchor="middle" transform="translate(407.168270111084, 479) rotate(0)">4</text><text x="0" y="0" fill="#131300" font-size="14" dominant-baseline="text-before-edge" text-anchor="middle" transform="translate(453.4735584259033, 479) rotate(0)">5</text><text x="0" y="0" fill="#131300" font-size="14" dominant-baseline="text-before-edge" text-anchor="middle" transform="translate(499.77884674072266, 479) rotate(0)">6</text><text x="0" y="0" fill="#131300" font-size="14" dominant-baseline="text-before-edge" text-anchor="middle" transform="translate(546.084135055542, 479) rotate(0)">7</text><text x="0" y="0" fill="#131300" font-size="14" dominant-baseline="text-before-edge" text-anchor="middle" transform="translate(592.3894233703613, 479) rotate(0)">8</text><text x="0" y="0" fill="#131300" font-size="14" dominant-baseline="text-before-edge" text-anchor="middle" transform="translate(638.6947116851807, 479) rotate(0)">9</text><text x="0" y="0" fill="#131300" font-size="14" dominant-baseline="text-before-edge" text-anchor="middle" transform="translate(685, 479) rotate(0)">10</text></g><g class="ticks"><path d="M 83.03125190734863,469 L 83.03125190734863,474" fill="none" stroke="#131300" stroke-width="2"/><path d="M 129.33654022216797,469 L 129.33654022216797,474" fill="none" stroke="#131300" stroke-width="2"/><path d="M 175.6418285369873,469 L 175.6418285369873,474" fill="none" stroke="#131300" stroke-width="2"/><path d="M 221.94711685180664,469 L 221.94711685180664,474" fill="none" stroke="#131300" stroke-width="2"/><path d="M 268.252405166626,469 L 268.252405166626,474" fill="none" stroke="#131300" stroke-width="2"/><path d="M 314.5576934814453,469 L 314.5576934814453,474" fill="none" stroke="#131300" stroke-width="2"/><path d="M 360.86298179626465,469 L 360.86298179626465,474" fill="none" stroke="#131300" stroke-width="2"/><path d="M 407.168270111084,469 L 407.168270111084,474" fill="none" stroke="#131300" stroke-width="2"/><path d="M 453.4735584259033,469 L 453.4735584259033,474" fill="none" stroke="#131300" stroke-width="2"/><path d="M 499.77884674072266,469 L 499.77884674072266,474" fill="none" stroke="#131300" stroke-width="2"/><path d="M 546.084135055542,469 L 546.084135055542,474" fill="none" stroke="#131300" stroke-width="2"/><path d="M 592.3894233703613,469 L 592.3894233703613,474" fill="none" stroke="#131300" stroke-width="2"/><path d="M 638.6947116851807,469 L 638.6947116851807,474" fill="none" stroke="#131300" stroke-width="2"/><path d="M 685,469 L 685,474" fill="none" stroke="#131300" stroke-width="2"/></g></g><g class="left-axis"><g class="axisl-line"><path d="M 67.03125190734863,43.1796875 L 67.03125190734863,467" fill="none" stroke="#131300" stroke-width="2"/></g><g class="label"><text x="0" y="0" fill="#131300" font-size="14" dominant-baseline="middle" text-anchor="end" transform="translate(56.03125190734863, 68.9110054347826) rotate(0)">220</text><text x="0" y="0" fill="#131300" font-size="14" dominant-baseline="middle" text-anchor="end" transform="translate(56.03125190734863, 104.37364130434784) rotate(0)">200</text><text x="0" y="0" fill="#131300" font-size="14" dominant-baseline="middle" text-anchor="end" transform="translate(56.03125190734863, 139.83627717391303) rotate(0)">180</text><text x="0" y="0" fill="#131300" font-size="14" dominant-baseline="middle" text-anchor="end" transform="translate(56.03125190734863, 175.29891304347828) rotate(0)">160</text><text x="0" y="0" fill="#131300" font-size="14" dominant-baseline="middle" text-anchor="end" transform="translate(56.03125190734863, 210.76154891304347) rotate(0)">140</text><text x="0" y="0" fill="#131300" font-size="14" dominant-baseline="middle" text-anchor="end" transform="translate(56.03125190734863, 246.2241847826087) rotate(0)">120</text><text x="0" y="0" fill="#131300" font-size="14" dominant-baseline="middle" text-anchor="end" transform="translate(56.03125190734863, 281.68682065217394) rotate(0)">100</text><text x="0" y="0" fill="#131300" font-size="14" dominant-baseline="middle" text-anchor="end" transform="translate(56.03125190734863, 317.1494565217391) rotate(0)">80</text><text x="0" y="0" fill="#131300" font-size="14" dominant-baseline="middle" text-anchor="end" transform="translate(56.03125190734863, 352.6120923913043) rotate(0)">60</text><text x="0" y="0" fill="#131300" font-size="14" dominant-baseline="middle" text-anchor="end" transform="translate(56.03125190734863, 388.07472826086956) rotate(0)">40</text><text x="0" y="0" fill="#131300" font-size="14" dominant-baseline="middle" text-anchor="end" transform="translate(56.03125190734863, 423.5373641304348) rotate(0)">20</text><text x="0" y="0" fill="#131300" font-size="14" dominant-baseline="middle" text-anchor="end" transform="translate(56.03125190734863, 459) rotate(0)">0</text></g><g class="ticks"><path d="M 66.03125190734863,68.9110054347826 L 61.03125190734863,68.9110054347826" fill="none" stroke="#131300" stroke-width="2"/><path d="M 66.03125190734863,104.37364130434784 L 61.03125190734863,104.37364130434784" fill="none" stroke="#131300" stroke-width="2"/><path d="M 66.03125190734863,139.83627717391303 L 61.03125190734863,139.83627717391303" fill="none" stroke="#131300" stroke-width="2"/><path d="M 66.03125190734863,175.29891304347828 L 61.03125190734863,175.29891304347828" fill="none" stroke="#131300" stroke-width="2"/><path d="M 66.03125190734863,210.76154891304347 L 61.03125190734863,210.76154891304347" fill="none" stroke="#131300" stroke-width="2"/><path d="M 66.03125190734863,246.2241847826087 L 61.03125190734863,246.2241847826087" fill="none" stroke="#131300" stroke-width="2"/><path d="M 66.03125190734863,281.68682065217394 L 61.03125190734863,281.68682065217394" fill="none" stroke="#131300" stroke-width="2"/><path d="M 66.03125190734863,317.1494565217391 L 61.03125190734863,317.1494565217391" fill="none" stroke="#131300" stroke-width="2"/><path d="M 66.03125190734863,352.6120923913043 L 61.03125190734863,352.6120923913043" fill="none" stroke="#131300" stroke-width="2"/><path d="M 66.03125190734863,388.07472826086956 L 61.03125190734863,388.07472826086956" fill="none" stroke="#131300" stroke-width="2"/><path d="M 66.03125190734863,423.5373641304348 L 61.03125190734863,423.5373641304348" fill="none" stroke="#131300" stroke-width="2"/><path d="M 66.03125190734863,459 L 61.03125190734863,459" fill="none" stroke="#131300" stroke-width="2"/></g><g class="title"><text x="0" y="0" fill="#131300" font-size="16" dominant-baseline="text-before-edge" text-anchor="middle" transform="translate(5, 255.08984375) rotate(270)">Members</text></g></g></g><g class="mermaid-tmp-group"/></svg>