<svg id="my-svg" width="100%" xmlns="http://www.w3.org/2000/svg" xmlns:xlink="http://www.w3.org/1999/xlink" style="max-width: 700px; background-color: white;" viewBox="0 0 700 500" role="graphics-document document" aria-roledescription="xychart"><style>#my-svg{font-family:"trebuchet ms",verdana,arial,sans-serif;font-size:16px;fill:#333;}@keyframes edge-animation-frame{from{stroke-dashoffset:0;}}@keyframes dash{to{stroke-dashoffset:0;}}#my-svg .edge-animation-slow{stroke-dasharray:9,5!important;stroke-dashoffset:900;animation:dash 50s linear infinite;stroke-linecap:round;}#my-svg .edge-animation-fast{stroke-dasharray:9,5!important;stroke-dashoffset:900;animation:dash 20s linear infinite;stroke-linecap:round;}#my-svg .error-icon{fill:#552222;}#my-svg .error-text{fill:#552222;stroke:#552222;}#my-svg .edge-thickness-normal{stroke-width:1px;}#my-svg .edge-thickness-thick{stroke-width:3.5px;}#my-svg .edge-pattern-solid{stroke-dasharray:0;}#my-svg .edge-thickness-invisible{stroke-width:0;fill:none;}#my-svg .edge-pattern-dashed{stroke-dasharray:3;}#my-svg .edge-pattern-dotted{stroke-dasharray:2;}#my-svg .marker{fill:#333333;stroke:#333333;}#my-svg .marker.cross{stroke:#333333;}#my-svg svg{font-family:"trebuchet ms",verdana,arial,sans-serif;font-size:16px;}#my-svg p{margin:0;}#my-svg :root{--mermaid-font-family:"trebuchet ms",verdana,arial,sans-serif;}</style><g/><g class="main"><rect width="700" height="500" class="background" fill="white"/><g class="chart-title"><text x="0" y="0" fill="#131300" font-size="20" dominant-baseline="middle" text-anchor="middle" transform="translate(350, 21.58984375) rotate(0)">Daily Cumulative Member Tally (2026) - Full Scale</text></g><g class="plot"><g class="bar-plot-0"><rect x="68.71054878234864" y="186.57603124999997" width="25.81328125" height="280.42396875000003" fill="#ECECFF" stroke="#ECECFF" stroke-width="0"/><rect x="98.9503924369812" y="181.68218749999997" width="25.81328125" height="285.31781250000006" fill="#ECECFF" stroke="#ECECFF" stroke-width="0"/><rect x="129.19023609161377" y="176.78834375000002" width="25.81328125" height="290.21165625" fill="#ECECFF" stroke="#ECECFF" stroke-width="0"/><rect x="159.43007974624635" y="173.52578125000002" width="25.81328125" height="293.47421875" fill="#ECECFF" stroke="#ECECFF" stroke-width="0"/><rect x="189.6699234008789" y="163.73809375000002" width="25.81328125" height="303.26190625" fill="#ECECFF" stroke="#ECECFF" stroke-width="0"/><rect x="219.90976705551148" y="160.47553125000002" width="25.81328125" height="306.52446875" fill="#ECECFF" stroke="#ECECFF" stroke-width="0"/><rect x="250.14961071014406" y="160.47553125000002" width="25.81328125" height="306.52446875" fill="#ECECFF" stroke="#ECECFF" stroke-width="0"/><rect x="280.3894543647766" y="155.58168750000002" width="25.81328125" height="311.41831249999996" fill="#ECECFF" stroke="#ECECFF" stroke-width="0"/><rect x="310.62929801940913" y="153.95040625000001" width="25.81328125" height="313.04959375" fill="#ECECFF" stroke="#ECECFF" stroke-width="0"/><rect x="340.8691416740417" y="149.05656249999998" width="25.81328125" height="317.9434375" fill="#ECECFF" stroke="#ECECFF" stroke-width="0"/><rect x="371.1089853286743" y="139.26887499999998" width="25.81328125" height="327.731125" fill="#ECECFF" stroke="#ECECFF" stroke-width="0"/><rect x="401.3488289833069" y="127.84990624999998" width="25.81328125" height="339.15009375" fill="#ECECFF" stroke="#ECECFF" stroke-width="0"/><rect x="431.58867263793945" y="114.79965625000001" width="25.81328125" height="352.20034375" fill="#ECECFF" stroke="#ECECFF" stroke-width="0"/><rect x="461.82851629257203" y="109.9058125" width="25.81328125" height="357.0941875" fill="#ECECFF" stroke="#ECECFF" stroke-width="0"/><rect x="492.06835994720456" y="105.01196875" width="25.81328125" height="361.98803125" fill="#ECECFF" stroke="#ECECFF" stroke-width="0"/><rect x="522.3082036018371" y="105.01196875" width="25.81328125" height="361.98803125" fill="#ECECFF" stroke="#ECECFF" stroke-width="0"/><rect x="552.5480472564697" y="105.01196875" width="25.81328125" height="361.98803125" fill="#ECECFF" stroke="#ECECFF" stroke-width="0"/><rect x="582.7878909111023" y="100.11812499999999" width="25.81328125" height="366.88187500000004" fill="#ECECFF" stroke="#ECECFF" stroke-width="0"/><rect x="613.0277345657348" y="91.96171874999999" width="25.81328125" height="375.03828125" fill="#ECECFF" stroke="#ECECFF" stroke-width="0"/><rect x="643.2675782203675" y="82.17403124999998" width="25.81328125" height="384.82596875" fill="#ECECFF" stroke="#ECECFF" stroke-width="0"/><rect x="673.507421875" y="77.28018749999998" width="25.81328125" height="389.7198125" fill="#ECECFF" stroke="#ECECFF" stroke-width="0"/></g></g><g class="bottom-axis"><g class="axis-line"><path d="M 68.03125190734863,468 L 700,468" fill="none" stroke="#131300" stroke-width="2"/></g><g class="label"><text x="0" y="0" fill="#131300" font-size="14" dominant-baseline="text-before-edge" text-anchor="middle" transform="translate(81.61718940734863, 479) rotate(0)">2.25</text><text x="0" y="0" fill="#131300" font-size="14" dominant-baseline="text-before-edge" text-anchor="middle" transform="translate(111.8570330619812, 479) rotate(0)">26</text><text x="0" y="0" fill="#131300" font-size="14" dominant-baseline="text-before-edge" text-anchor="middle" transform="translate(142.09687671661376, 479) rotate(0)">27</text><text x="0" y="0" fill="#131300" font-size="14" dominant-baseline="text-before-edge" text-anchor="middle" transform="translate(172.33672037124634, 479) rotate(0)">28</text><text x="0" y="0" fill="#131300" font-size="14" dominant-baseline="text-before-edge" text-anchor="middle" transform="translate(202.5765640258789, 479) rotate(0)">3.1</text><text x="0" y="0" fill="#131300" font-size="14" dominant-baseline="text-before-edge" text-anchor="middle" transform="translate(232.81640768051147, 479) rotate(0)">2</text><text x="0" y="0" fill="#131300" font-size="14" dominant-baseline="text-before-edge" text-anchor="middle" transform="translate(263.05625133514405, 479) rotate(0)">3</text><text x="0" y="0" fill="#131300" font-size="14" dominant-baseline="text-before-edge" text-anchor="middle" transform="translate(293.29609498977663, 479) rotate(0)">4</text><text x="0" y="0" fill="#131300" font-size="14" dominant-baseline="text-before-edge" text-anchor="middle" transform="translate(323.53593864440916, 479) rotate(0)">5</text><text x="0" y="0" fill="#131300" font-size="14" dominant-baseline="text-before-edge" text-anchor="middle" transform="translate(353.77578229904174, 479) rotate(0)">6</text><text x="0" y="0" fill="#131300" font-size="14" dominant-baseline="text-before-edge" text-anchor="middle" transform="translate(384.0156259536743, 479) rotate(0)">7</text><text x="0" y="0" fill="#131300" font-size="14" dominant-baseline="text-before-edge" text-anchor="middle" transform="translate(414.2554696083069, 479) rotate(0)">8</text><text x="0" y="0" fill="#131300" font-size="14" dominant-baseline="text-before-edge" text-anchor="middle" transform="translate(444.4953132629395, 479) rotate(0)">9</text><text x="0" y="0" fill="#131300" font-size="14" dominant-baseline="text-before-edge" text-anchor="middle" transform="translate(474.73515691757206, 479) rotate(0)">10</text><text x="0" y="0" fill="#131300" font-size="14" dominant-baseline="text-before-edge" text-anchor="middle" transform="translate(504.9750005722046, 479) rotate(0)">11</text><text x="0" y="0" fill="#131300" font-size="14" dominant-baseline="text-before-edge" text-anchor="middle" transform="translate(535.2148442268372, 479) rotate(0)">12</text><text x="0" y="0" fill="#131300" font-size="14" dominant-baseline="text-before-edge" text-anchor="middle" transform="translate(565.4546878814697, 479) rotate(0)">13</text><text x="0" y="0" fill="#131300" font-size="14" dominant-baseline="text-before-edge" text-anchor="middle" transform="translate(595.6945315361023, 479) rotate(0)">14</text><text x="0" y="0" fill="#131300" font-size="14" dominant-baseline="text-before-edge" text-anchor="middle" transform="translate(625.9343751907348, 479) rotate(0)">15</text><text x="0" y="0" fill="#131300" font-size="14" dominant-baseline="text-before-edge" text-anchor="middle" transform="translate(656.1742188453675, 479) rotate(0)">16</text><text x="0" y="0" fill="#131300" font-size="14" dominant-baseline="text-before-edge" text-anchor="middle" transform="translate(686.4140625, 479) rotate(0)">17</text></g><g class="ticks"><path d="M 81.61718940734863,469 L 81.61718940734863,474" fill="none" stroke="#131300" stroke-width="2"/><path d="M 111.8570330619812,469 L 111.8570330619812,474" fill="none" stroke="#131300" stroke-width="2"/><path d="M 142.09687671661376,469 L 142.09687671661376,474" fill="none" stroke="#131300" stroke-width="2"/><path d="M 172.33672037124634,469 L 172.33672037124634,474" fill="none" stroke="#131300" stroke-width="2"/><path d="M 202.5765640258789,469 L 202.5765640258789,474" fill="none" stroke="#131300" stroke-width="2"/><path d="M 232.81640768051147,469 L 232.81640768051147,474" fill="none" stroke="#131300" stroke-width="2"/><path d="M 263.05625133514405,469 L 263.05625133514405,474" fill="none" stroke="#131300" stroke-width="2"/><path d="M 293.29609498977663,469 L 293.29609498977663,474" fill="none" stroke="#131300" stroke-width="2"/><path d="M 323.53593864440916,469 L 323.53593864440916,474" fill="none" stroke="#131300" stroke-width="2"/><path d="M 353.77578229904174,469 L 353.77578229904174,474" fill="none" stroke="#131300" stroke-width="2"/><path d="M 384.0156259536743,469 L 384.0156259536743,474" fill="none" stroke="#131300" stroke-width="2"/><path d="M 414.2554696083069,469 L 414.2554696083069,474" fill="none" stroke="#131300" stroke-width="2"/><path d="M 444.4953132629395,469 L 444.4953132629395,474" fill="none" stroke="#131300" stroke-width="2"/><path d="M 474.73515691757206,469 L 474.73515691757206,474" fill="none" stroke="#131300" stroke-width="2"/><path d="M 504.9750005722046,469 L 504.9750005722046,474" fill="none" stroke="#131300" stroke-width="2"/><path d="M 535.2148442268372,469 L 535.2148442268372,474" fill="none" stroke="#131300" stroke-width="2"/><path d="M 565.4546878814697,469 L 565.4546878814697,474" fill="none" stroke="#131300" stroke-width="2"/><path d="M 595.6945315361023,469 L 595.6945315361023,474" fill="none" stroke="#131300" stroke-width="2"/><path d="M 625.9343751907348,469 L 625.9343751907348,474" fill="none" stroke="#131300" stroke-width="2"/><path d="M 656.1742188453675,469 L 656.1742188453675,474" fill="none" stroke="#131300" stroke-width="2"/><path d="M 686.4140625,469 L 686.4140625,474" fill="none" stroke="#131300" stroke-width="2"/></g></g><g class="left-axis"><g class="axisl-line"><path d="M 67.03125190734863,43.1796875 L 67.03125190734863,467" fill="none" stroke="#131300" stroke-width="2"/></g><g class="label"><text x="0" y="0" fill="#131300" font-size="14" dominant-baseline="middle" text-anchor="end" transform="translate(56.03125190734863, 67.49250000000002) rotate(0)">240</text><text x="0" y="0" fill="#131300" font-size="14" dominant-baseline="middle" text-anchor="end" transform="translate(56.03125190734863, 100.11812499999999) rotate(0)">220</text><text x="0" y="0" fill="#131300" font-size="14" dominant-baseline="middle" text-anchor="end" transform="translate(56.03125190734863, 132.74374999999998) rotate(0)">200</text><text x="0" y="0" fill="#131300" font-size="14" dominant-baseline="middle" text-anchor="end" transform="translate(56.03125190734863, 165.36937500000002) rotate(0)">180</text><text x="0" y="0" fill="#131300" font-size="14" dominant-baseline="middle" text-anchor="end" transform="translate(56.03125190734863, 197.99499999999998) rotate(0)">160</text><text x="0" y="0" fill="#131300" font-size="14" dominant-baseline="middle" text-anchor="end" transform="translate(56.03125190734863, 230.620625) rotate(0)">140</text><text x="0" y="0" fill="#131300" font-size="14" dominant-baseline="middle" text-anchor="end" transform="translate(56.03125190734863, 263.24625000000003) rotate(0)">120</text><text x="0" y="0" fill="#131300" font-size="14" dominant-baseline="middle" text-anchor="end" transform="translate(56.03125190734863, 295.871875) rotate(0)">100</text><text x="0" y="0" fill="#131300" font-size="14" dominant-baseline="middle" text-anchor="end" transform="translate(56.03125190734863, 328.49749999999995) rotate(0)">80</text><text x="0" y="0" fill="#131300" font-size="14" dominant-baseline="middle" text-anchor="end" transform="translate(56.03125190734863, 361.123125) rotate(0)">60</text><text x="0" y="0" fill="#131300" font-size="14" dominant-baseline="middle" text-anchor="end" transform="translate(56.03125190734863, 393.74875000000003) rotate(0)">40</text><text x="0" y="0" fill="#131300" font-size="14" dominant-baseline="middle" text-anchor="end" transform="translate(56.03125190734863, 426.37437500000004) rotate(0)">20</text><text x="0" y="0" fill="#131300" font-size="14" dominant-baseline="middle" text-anchor="end" transform="translate(56.03125190734863, 459) rotate(0)">0</text></g><g class="ticks"><path d="M 66.03125190734863,67.49250000000002 L 61.03125190734863,67.49250000000002" fill="none" stroke="#131300" stroke-width="2"/><path d="M 66.03125190734863,100.11812499999999 L 61.03125190734863,100.11812499999999" fill="none" stroke="#131300" stroke-width="2"/><path d="M 66.03125190734863,132.74374999999998 L 61.03125190734863,132.74374999999998" fill="none" stroke="#131300" stroke-width="2"/><path d="M 66.03125190734863,165.36937500000002 L 61.03125190734863,165.36937500000002" fill="none" stroke="#131300" stroke-width="2"/><path d="M 66.03125190734863,197.99499999999998 L 61.03125190734863,197.99499999999998" fill="none" stroke="#131300" stroke-width="2"/><path d="M 66.03125190734863,230.620625 L 61.03125190734863,230.620625" fill="none" stroke="#131300" stroke-width="2"/><path d="M 66.03125190734863,263.24625000000003 L 61.03125190734863,263.24625000000003" fill="none" stroke="#131300" stroke-width="2"/><path d="M 66.03125190734863,295.871875 L 61.03125190734863,295.871875" fill="none" stroke="#131300" stroke-width="2"/><path d="M 66.03125190734863,328.49749999999995 L 61.03125190734863,328.49749999999995" fill="none" stroke="#131300" stroke-width="2"/><path d="M 66.03125190734863,361.123125 L 61.03125190734863,361.123125" fill="none" stroke="#131300" stroke-width="2"/><path d="M 66.03125190734863,393.74875000000003 L 61.03125190734863,393.74875000000003" fill="none" stroke="#131300" stroke-width="2"/><path d="M 66.03125190734863,426.37437500000004 L 61.03125190734863,426.37437500000004" fill="none" stroke="#131300" stroke-width="2"/><path d="M 66.03125190734863,459 L 61.03125190734863,459" fill="none" stroke="#131300" stroke-width="2"/></g><g class="title"><text x="0" y="0" fill="#131300" font-size="16" dominant-baseline="text-before-edge" text-anchor="middle" transform="translate(5, 255.08984375) rotate(270)">Members</text></g></g></g><g class="mermaid-tmp-group"/></svg>