<svg id="my-svg" width="100%" xmlns="http://www.w3.org/2000/svg" xmlns:xlink="http://www.w3.org/1999/xlink" style="max-width: 700px; background-color: white;" viewBox="0 0 700 500" role="graphics-document document" aria-roledescription="xychart"><style>#my-svg{font-family:"trebuchet ms",verdana,arial,sans-serif;font-size:16px;fill:#333;}@keyframes edge-animation-frame{from{stroke-dashoffset:0;}}@keyframes dash{to{stroke-dashoffset:0;}}#my-svg .edge-animation-slow{stroke-dasharray:9,5!important;stroke-dashoffset:900;animation:dash 50s linear infinite;stroke-linecap:round;}#my-svg .edge-animation-fast{stroke-dasharray:9,5!important;stroke-dashoffset:900;animation:dash 20s linear infinite;stroke-linecap:round;}#my-svg .error-icon{fill:#552222;}#my-svg .error-text{fill:#552222;stroke:#552222;}#my-svg .edge-thickness-normal{stroke-width:1px;}#my-svg .edge-thickness-thick{stroke-width:3.5px;}#my-svg .edge-pattern-solid{stroke-dasharray:0;}#my-svg .edge-thickness-invisible{stroke-width:0;fill:none;}#my-svg .edge-pattern-dashed{stroke-dasharray:3;}#my-svg .edge-pattern-dotted{stroke-dasharray:2;}#my-svg .marker{fill:#333333;stroke:#333333;}#my-svg .marker.cross{stroke:#333333;}#my-svg svg{font-family:"trebuchet ms",verdana,arial,sans-serif;font-size:16px;}#my-svg p{margin:0;}#my-svg :root{--mermaid-font-family:"trebuchet ms",verdana,arial,sans-serif;}</style><g/><g class="main"><rect width="700" height="500" class="background" fill="white"/><g class="chart-title"><text x="0" y="0" fill="#131300" font-size="20" dominant-baseline="middle" text-anchor="middle" transform="translate(350, 21.58984375) rotate(0)">Daily Cumulative Member Tally (2026) - Full Scale</text></g><g class="plot"><g class="bar-plot-0"><rect x="69.12681920217432" y="186.57603124999997" width="24.98074041034864" height="280.42396875000003" fill="#ECECFF" stroke="#ECECFF" stroke-width="0"/><rect x="96.6175861609312" y="181.68218749999997" width="24.98074041034864" height="285.31781250000006" fill="#ECECFF" stroke="#ECECFF" stroke-width="0"/><rect x="124.10835311968808" y="176.78834375000002" width="24.98074041034864" height="290.21165625" fill="#ECECFF" stroke="#ECECFF" stroke-width="0"/><rect x="151.59912007844497" y="173.52578125000002" width="24.98074041034864" height="293.47421875" fill="#ECECFF" stroke="#ECECFF" stroke-width="0"/><rect x="179.08988703720183" y="163.73809375000002" width="24.98074041034864" height="303.26190625" fill="#ECECFF" stroke="#ECECFF" stroke-width="0"/><rect x="206.5806539959587" y="160.47553125000002" width="24.98074041034864" height="306.52446875" fill="#ECECFF" stroke="#ECECFF" stroke-width="0"/><rect x="234.0714209547156" y="160.47553125000002" width="24.98074041034864" height="306.52446875" fill="#ECECFF" stroke="#ECECFF" stroke-width="0"/><rect x="261.5621879134725" y="155.58168750000002" width="24.98074041034864" height="311.41831249999996" fill="#ECECFF" stroke="#ECECFF" stroke-width="0"/><rect x="289.05295487222935" y="153.95040625000001" width="24.98074041034864" height="313.04959375" fill="#ECECFF" stroke="#ECECFF" stroke-width="0"/><rect x="316.5437218309862" y="149.05656249999998" width="24.98074041034864" height="317.9434375" fill="#ECECFF" stroke="#ECECFF" stroke-width="0"/><rect x="344.0344887897431" y="139.26887499999998" width="24.98074041034864" height="327.731125" fill="#ECECFF" stroke="#ECECFF" stroke-width="0"/><rect x="371.5252557485" y="127.84990624999998" width="24.98074041034864" height="339.15009375" fill="#ECECFF" stroke="#ECECFF" stroke-width="0"/><rect x="399.01602270725687" y="114.79965625000001" width="24.98074041034864" height="352.20034375" fill="#ECECFF" stroke="#ECECFF" stroke-width="0"/><rect x="426.50678966601373" y="109.9058125" width="24.98074041034864" height="357.0941875" fill="#ECECFF" stroke="#ECECFF" stroke-width="0"/><rect x="453.99755662477065" y="105.01196875" width="24.98074041034864" height="361.98803125" fill="#ECECFF" stroke="#ECECFF" stroke-width="0"/><rect x="481.4883235835275" y="105.01196875" width="24.98074041034864" height="361.98803125" fill="#ECECFF" stroke="#ECECFF" stroke-width="0"/><rect x="508.9790905422844" y="105.01196875" width="24.98074041034864" height="361.98803125" fill="#ECECFF" stroke="#ECECFF" stroke-width="0"/><rect x="536.4698575010412" y="100.11812499999999" width="24.98074041034864" height="366.88187500000004" fill="#ECECFF" stroke="#ECECFF" stroke-width="0"/><rect x="563.960624459798" y="91.96171874999999" width="24.98074041034864" height="375.03828125" fill="#ECECFF" stroke="#ECECFF" stroke-width="0"/><rect x="591.451391418555" y="82.17403124999998" width="24.98074041034864" height="384.82596875" fill="#ECECFF" stroke="#ECECFF" stroke-width="0"/><rect x="618.9421583773118" y="77.28018749999998" width="24.98074041034864" height="389.7198125" fill="#ECECFF" stroke="#ECECFF" stroke-width="0"/><rect x="646.4329253360687" y="72.38634375000002" width="24.98074041034864" height="394.61365624999996" fill="#ECECFF" stroke="#ECECFF" stroke-width="0"/><rect x="673.9236922948256" y="69.12378125000001" width="24.98074041034864" height="397.87621875" fill="#ECECFF" stroke="#ECECFF" stroke-width="0"/></g></g><g class="bottom-axis"><g class="axis-line"><path d="M 68.03125190734863,468 L 700,468" fill="none" stroke="#131300" stroke-width="2"/></g><g class="label"><text x="0" y="0" fill="#131300" font-size="14" dominant-baseline="text-before-edge" text-anchor="middle" transform="translate(81.61718940734863, 479) rotate(0)">2.25</text><text x="0" y="0" fill="#131300" font-size="14" dominant-baseline="text-before-edge" text-anchor="middle" transform="translate(109.10795636610551, 479) rotate(0)">26</text><text x="0" y="0" fill="#131300" font-size="14" dominant-baseline="text-before-edge" text-anchor="middle" transform="translate(136.5987233248624, 479) rotate(0)">27</text><text x="0" y="0" fill="#131300" font-size="14" dominant-baseline="text-before-edge" text-anchor="middle" transform="translate(164.08949028361928, 479) rotate(0)">28</text><text x="0" y="0" fill="#131300" font-size="14" dominant-baseline="text-before-edge" text-anchor="middle" transform="translate(191.58025724237615, 479) rotate(0)">3.1</text><text x="0" y="0" fill="#131300" font-size="14" dominant-baseline="text-before-edge" text-anchor="middle" transform="translate(219.071024201133, 479) rotate(0)">2</text><text x="0" y="0" fill="#131300" font-size="14" dominant-baseline="text-before-edge" text-anchor="middle" transform="translate(246.5617911598899, 479) rotate(0)">3</text><text x="0" y="0" fill="#131300" font-size="14" dominant-baseline="text-before-edge" text-anchor="middle" transform="translate(274.0525581186468, 479) rotate(0)">4</text><text x="0" y="0" fill="#131300" font-size="14" dominant-baseline="text-before-edge" text-anchor="middle" transform="translate(301.54332507740367, 479) rotate(0)">5</text><text x="0" y="0" fill="#131300" font-size="14" dominant-baseline="text-before-edge" text-anchor="middle" transform="translate(329.03409203616053, 479) rotate(0)">6</text><text x="0" y="0" fill="#131300" font-size="14" dominant-baseline="text-before-edge" text-anchor="middle" transform="translate(356.5248589949174, 479) rotate(0)">7</text><text x="0" y="0" fill="#131300" font-size="14" dominant-baseline="text-before-edge" text-anchor="middle" transform="translate(384.0156259536743, 479) rotate(0)">8</text><text x="0" y="0" fill="#131300" font-size="14" dominant-baseline="text-before-edge" text-anchor="middle" transform="translate(411.5063929124312, 479) rotate(0)">9</text><text x="0" y="0" fill="#131300" font-size="14" dominant-baseline="text-before-edge" text-anchor="middle" transform="translate(438.99715987118805, 479) rotate(0)">10</text><text x="0" y="0" fill="#131300" font-size="14" dominant-baseline="text-before-edge" text-anchor="middle" transform="translate(466.48792682994497, 479) rotate(0)">11</text><text x="0" y="0" fill="#131300" font-size="14" dominant-baseline="text-before-edge" text-anchor="middle" transform="translate(493.97869378870183, 479) rotate(0)">12</text><text x="0" y="0" fill="#131300" font-size="14" dominant-baseline="text-before-edge" text-anchor="middle" transform="translate(521.4694607474587, 479) rotate(0)">13</text><text x="0" y="0" fill="#131300" font-size="14" dominant-baseline="text-before-edge" text-anchor="middle" transform="translate(548.9602277062156, 479) rotate(0)">14</text><text x="0" y="0" fill="#131300" font-size="14" dominant-baseline="text-before-edge" text-anchor="middle" transform="translate(576.4509946649724, 479) rotate(0)">15</text><text x="0" y="0" fill="#131300" font-size="14" dominant-baseline="text-before-edge" text-anchor="middle" transform="translate(603.9417616237293, 479) rotate(0)">16</text><text x="0" y="0" fill="#131300" font-size="14" dominant-baseline="text-before-edge" text-anchor="middle" transform="translate(631.4325285824862, 479) rotate(0)">17</text><text x="0" y="0" fill="#131300" font-size="14" dominant-baseline="text-before-edge" text-anchor="middle" transform="translate(658.9232955412431, 479) rotate(0)">18</text><text x="0" y="0" fill="#131300" font-size="14" dominant-baseline="text-before-edge" text-anchor="middle" transform="translate(686.4140625, 479) rotate(0)">19</text></g><g class="ticks"><path d="M 81.61718940734863,469 L 81.61718940734863,474" fill="none" stroke="#131300" stroke-width="2"/><path d="M 109.10795636610551,469 L 109.10795636610551,474" fill="none" stroke="#131300" stroke-width="2"/><path d="M 136.5987233248624,469 L 136.5987233248624,474" fill="none" stroke="#131300" stroke-width="2"/><path d="M 164.08949028361928,469 L 164.08949028361928,474" fill="none" stroke="#131300" stroke-width="2"/><path d="M 191.58025724237615,469 L 191.58025724237615,474" fill="none" stroke="#131300" stroke-width="2"/><path d="M 219.071024201133,469 L 219.071024201133,474" fill="none" stroke="#131300" stroke-width="2"/><path d="M 246.5617911598899,469 L 246.5617911598899,474" fill="none" stroke="#131300" stroke-width="2"/><path d="M 274.0525581186468,469 L 274.0525581186468,474" fill="none" stroke="#131300" stroke-width="2"/><path d="M 301.54332507740367,469 L 301.54332507740367,474" fill="none" stroke="#131300" stroke-width="2"/><path d="M 329.03409203616053,469 L 329.03409203616053,474" fill="none" stroke="#131300" stroke-width="2"/><path d="M 356.5248589949174,469 L 356.5248589949174,474" fill="none" stroke="#131300" stroke-width="2"/><path d="M 384.0156259536743,469 L 384.0156259536743,474" fill="none" stroke="#131300" stroke-width="2"/><path d="M 411.5063929124312,469 L 411.5063929124312,474" fill="none" stroke="#131300" stroke-width="2"/><path d="M 438.99715987118805,469 L 438.99715987118805,474" fill="none" stroke="#131300" stroke-width="2"/><path d="M 466.48792682994497,469 L 466.48792682994497,474" fill="none" stroke="#131300" stroke-width="2"/><path d="M 493.97869378870183,469 L 493.97869378870183,474" fill="none" stroke="#131300" stroke-width="2"/><path d="M 521.4694607474587,469 L 521.4694607474587,474" fill="none" stroke="#131300" stroke-width="2"/><path d="M 548.9602277062156,469 L 548.9602277062156,474" fill="none" stroke="#131300" stroke-width="2"/><path d="M 576.4509946649724,469 L 576.4509946649724,474" fill="none" stroke="#131300" stroke-width="2"/><path d="M 603.9417616237293,469 L 603.9417616237293,474" fill="none" stroke="#131300" stroke-width="2"/><path d="M 631.4325285824862,469 L 631.4325285824862,474" fill="none" stroke="#131300" stroke-width="2"/><path d="M 658.9232955412431,469 L 658.9232955412431,474" fill="none" stroke="#131300" stroke-width="2"/><path d="M 686.4140625,469 L 686.4140625,474" fill="none" stroke="#131300" stroke-width="2"/></g></g><g class="left-axis"><g class="axisl-line"><path d="M 67.03125190734863,43.1796875 L 67.03125190734863,467" fill="none" stroke="#131300" stroke-width="2"/></g><g class="label"><text x="0" y="0" fill="#131300" font-size="14" dominant-baseline="middle" text-anchor="end" transform="translate(56.03125190734863, 67.49250000000002) rotate(0)">240</text><text x="0" y="0" fill="#131300" font-size="14" dominant-baseline="middle" text-anchor="end" transform="translate(56.03125190734863, 100.11812499999999) rotate(0)">220</text><text x="0" y="0" fill="#131300" font-size="14" dominant-baseline="middle" text-anchor="end" transform="translate(56.03125190734863, 132.74374999999998) rotate(0)">200</text><text x="0" y="0" fill="#131300" font-size="14" dominant-baseline="middle" text-anchor="end" transform="translate(56.03125190734863, 165.36937500000002) rotate(0)">180</text><text x="0" y="0" fill="#131300" font-size="14" dominant-baseline="middle" text-anchor="end" transform="translate(56.03125190734863, 197.99499999999998) rotate(0)">160</text><text x="0" y="0" fill="#131300" font-size="14" dominant-baseline="middle" text-anchor="end" transform="translate(56.03125190734863, 230.620625) rotate(0)">140</text><text x="0" y="0" fill="#131300" font-size="14" dominant-baseline="middle" text-anchor="end" transform="translate(56.03125190734863, 263.24625000000003) rotate(0)">120</text><text x="0" y="0" fill="#131300" font-size="14" dominant-baseline="middle" text-anchor="end" transform="translate(56.03125190734863, 295.871875) rotate(0)">100</text><text x="0" y="0" fill="#131300" font-size="14" dominant-baseline="middle" text-anchor="end" transform="translate(56.03125190734863, 328.49749999999995) rotate(0)">80</text><text x="0" y="0" fill="#131300" font-size="14" dominant-baseline="middle" text-anchor="end" transform="translate(56.03125190734863, 361.123125) rotate(0)">60</text><text x="0" y="0" fill="#131300" font-size="14" dominant-baseline="middle" text-anchor="end" transform="translate(56.03125190734863, 393.74875000000003) rotate(0)">40</text><text x="0" y="0" fill="#131300" font-size="14" dominant-baseline="middle" text-anchor="end" transform="translate(56.03125190734863, 426.37437500000004) rotate(0)">20</text><text x="0" y="0" fill="#131300" font-size="14" dominant-baseline="middle" text-anchor="end" transform="translate(56.03125190734863, 459) rotate(0)">0</text></g><g class="ticks"><path d="M 66.03125190734863,67.49250000000002 L 61.03125190734863,67.49250000000002" fill="none" stroke="#131300" stroke-width="2"/><path d="M 66.03125190734863,100.11812499999999 L 61.03125190734863,100.11812499999999" fill="none" stroke="#131300" stroke-width="2"/><path d="M 66.03125190734863,132.74374999999998 L 61.03125190734863,132.74374999999998" fill="none" stroke="#131300" stroke-width="2"/><path d="M 66.03125190734863,165.36937500000002 L 61.03125190734863,165.36937500000002" fill="none" stroke="#131300" stroke-width="2"/><path d="M 66.03125190734863,197.99499999999998 L 61.03125190734863,197.99499999999998" fill="none" stroke="#131300" stroke-width="2"/><path d="M 66.03125190734863,230.620625 L 61.03125190734863,230.620625" fill="none" stroke="#131300" stroke-width="2"/><path d="M 66.03125190734863,263.24625000000003 L 61.03125190734863,263.24625000000003" fill="none" stroke="#131300" stroke-width="2"/><path d="M 66.03125190734863,295.871875 L 61.03125190734863,295.871875" fill="none" stroke="#131300" stroke-width="2"/><path d="M 66.03125190734863,328.49749999999995 L 61.03125190734863,328.49749999999995" fill="none" stroke="#131300" stroke-width="2"/><path d="M 66.03125190734863,361.123125 L 61.03125190734863,361.123125" fill="none" stroke="#131300" stroke-width="2"/><path d="M 66.03125190734863,393.74875000000003 L 61.03125190734863,393.74875000000003" fill="none" stroke="#131300" stroke-width="2"/><path d="M 66.03125190734863,426.37437500000004 L 61.03125190734863,426.37437500000004" fill="none" stroke="#131300" stroke-width="2"/><path d="M 66.03125190734863,459 L 61.03125190734863,459" fill="none" stroke="#131300" stroke-width="2"/></g><g class="title"><text x="0" y="0" fill="#131300" font-size="16" dominant-baseline="text-before-edge" text-anchor="middle" transform="translate(5, 255.08984375) rotate(270)">Members</text></g></g></g><g class="mermaid-tmp-group"/></svg>