<svg id="my-svg" width="100%" xmlns="http://www.w3.org/2000/svg" xmlns:xlink="http://www.w3.org/1999/xlink" style="max-width: 700px; background-color: white;" viewBox="0 0 700 500" role="graphics-document document" aria-roledescription="xychart"><style>#my-svg{font-family:"trebuchet ms",verdana,arial,sans-serif;font-size:16px;fill:#333;}@keyframes edge-animation-frame{from{stroke-dashoffset:0;}}@keyframes dash{to{stroke-dashoffset:0;}}#my-svg .edge-animation-slow{stroke-dasharray:9,5!important;stroke-dashoffset:900;animation:dash 50s linear infinite;stroke-linecap:round;}#my-svg .edge-animation-fast{stroke-dasharray:9,5!important;stroke-dashoffset:900;animation:dash 20s linear infinite;stroke-linecap:round;}#my-svg .error-icon{fill:#552222;}#my-svg .error-text{fill:#552222;stroke:#552222;}#my-svg .edge-thickness-normal{stroke-width:1px;}#my-svg .edge-thickness-thick{stroke-width:3.5px;}#my-svg .edge-pattern-solid{stroke-dasharray:0;}#my-svg .edge-thickness-invisible{stroke-width:0;fill:none;}#my-svg .edge-pattern-dashed{stroke-dasharray:3;}#my-svg .edge-pattern-dotted{stroke-dasharray:2;}#my-svg .marker{fill:#333333;stroke:#333333;}#my-svg .marker.cross{stroke:#333333;}#my-svg svg{font-family:"trebuchet ms",verdana,arial,sans-serif;font-size:16px;}#my-svg p{margin:0;}#my-svg :root{--mermaid-font-family:"trebuchet ms",verdana,arial,sans-serif;}</style><g/><g class="main"><rect width="700" height="500" class="background" fill="white"/><g class="chart-title"><text x="0" y="0" fill="#131300" font-size="20" dominant-baseline="middle" text-anchor="middle" transform="translate(350, 21.58984375) rotate(0)">Daily Cumulative Member Tally (2026) - Full Scale</text></g><g class="plot"><g class="bar-plot-0"><rect x="70.5680157643098" y="197.05387620192306" width="22.098347286077647" height="269.94612379807694" fill="#ECECFF" stroke="#ECECFF" stroke-width="0"/><rect x="94.75989068801586" y="192.34825721153845" width="22.098347286077647" height="274.65174278846155" fill="#ECECFF" stroke="#ECECFF" stroke-width="0"/><rect x="118.95176561172191" y="187.64263822115387" width="22.098347286077647" height="279.3573617788461" fill="#ECECFF" stroke="#ECECFF" stroke-width="0"/><rect x="143.14364053542798" y="184.50555889423077" width="22.098347286077647" height="282.4944411057692" fill="#ECECFF" stroke="#ECECFF" stroke-width="0"/><rect x="167.33551545913403" y="175.09432091346156" width="22.098347286077647" height="291.90567908653844" fill="#ECECFF" stroke="#ECECFF" stroke-width="0"/><rect x="191.52739038284008" y="171.95724158653846" width="22.098347286077647" height="295.04275841346157" fill="#ECECFF" stroke="#ECECFF" stroke-width="0"/><rect x="215.71926530654616" y="171.95724158653846" width="22.098347286077647" height="295.04275841346157" fill="#ECECFF" stroke="#ECECFF" stroke-width="0"/><rect x="239.91114023025222" y="167.25162259615385" width="22.098347286077647" height="299.7483774038461" fill="#ECECFF" stroke="#ECECFF" stroke-width="0"/><rect x="264.1030151539582" y="165.68308293269232" width="22.098347286077647" height="301.3169170673077" fill="#ECECFF" stroke="#ECECFF" stroke-width="0"/><rect x="288.2948900776643" y="160.9774639423077" width="22.098347286077647" height="306.02253605769226" fill="#ECECFF" stroke="#ECECFF" stroke-width="0"/><rect x="312.4867650013703" y="151.56622596153846" width="22.098347286077647" height="315.43377403846154" fill="#ECECFF" stroke="#ECECFF" stroke-width="0"/><rect x="336.6786399250764" y="140.58644831730768" width="22.098347286077647" height="326.4135516826923" fill="#ECECFF" stroke="#ECECFF" stroke-width="0"/><rect x="360.8705148487825" y="128.03813100961537" width="22.098347286077647" height="338.96186899038463" fill="#ECECFF" stroke="#ECECFF" stroke-width="0"/><rect x="385.06238977248853" y="123.33251201923079" width="22.098347286077647" height="343.66748798076924" fill="#ECECFF" stroke="#ECECFF" stroke-width="0"/><rect x="409.2542646961946" y="118.62689302884613" width="22.098347286077647" height="348.3731069711539" fill="#ECECFF" stroke="#ECECFF" stroke-width="0"/><rect x="433.44613961990063" y="118.62689302884613" width="22.098347286077647" height="348.3731069711539" fill="#ECECFF" stroke="#ECECFF" stroke-width="0"/><rect x="457.6380145436067" y="118.62689302884613" width="22.098347286077647" height="348.3731069711539" fill="#ECECFF" stroke="#ECECFF" stroke-width="0"/><rect x="481.82988946731274" y="113.92127403846153" width="22.098347286077647" height="353.07872596153845" fill="#ECECFF" stroke="#ECECFF" stroke-width="0"/><rect x="506.02176439101885" y="106.07857572115384" width="22.098347286077647" height="360.9214242788462" fill="#ECECFF" stroke="#ECECFF" stroke-width="0"/><rect x="530.2136393147249" y="96.66733774038464" width="22.098347286077647" height="370.33266225961535" fill="#ECECFF" stroke="#ECECFF" stroke-width="0"/><rect x="554.4055142384309" y="91.96171874999999" width="22.098347286077647" height="375.03828125" fill="#ECECFF" stroke="#ECECFF" stroke-width="0"/><rect x="578.597389162137" y="87.2560997596154" width="22.098347286077647" height="379.7439002403846" fill="#ECECFF" stroke="#ECECFF" stroke-width="0"/><rect x="602.7892640858431" y="82.55048076923075" width="22.098347286077647" height="384.4495192307693" fill="#ECECFF" stroke="#ECECFF" stroke-width="0"/><rect x="626.9811390095491" y="82.55048076923075" width="22.098347286077647" height="384.4495192307693" fill="#ECECFF" stroke="#ECECFF" stroke-width="0"/><rect x="651.1730139332552" y="76.27632211538462" width="22.098347286077647" height="390.72367788461537" fill="#ECECFF" stroke="#ECECFF" stroke-width="0"/><rect x="675.3648888569612" y="73.13924278846156" width="22.098347286077647" height="393.86075721153844" fill="#ECECFF" stroke="#ECECFF" stroke-width="0"/></g></g><g class="bottom-axis"><g class="axis-line"><path d="M 68.03125190734863,468 L 700,468" fill="none" stroke="#131300" stroke-width="2"/></g><g class="label"><text x="0" y="0" fill="#131300" font-size="14" dominant-baseline="text-before-edge" text-anchor="middle" transform="translate(81.61718940734863, 479) rotate(0)">2.25</text><text x="0" y="0" fill="#131300" font-size="14" dominant-baseline="text-before-edge" text-anchor="middle" transform="translate(105.80906433105469, 479) rotate(0)">26</text><text x="0" y="0" fill="#131300" font-size="14" dominant-baseline="text-before-edge" text-anchor="middle" transform="translate(130.00093925476074, 479) rotate(0)">27</text><text x="0" y="0" fill="#131300" font-size="14" dominant-baseline="text-before-edge" text-anchor="middle" transform="translate(154.1928141784668, 479) rotate(0)">28</text><text x="0" y="0" fill="#131300" font-size="14" dominant-baseline="text-before-edge" text-anchor="middle" transform="translate(178.38468910217284, 479) rotate(0)">3.1</text><text x="0" y="0" fill="#131300" font-size="14" dominant-baseline="text-before-edge" text-anchor="middle" transform="translate(202.5765640258789, 479) rotate(0)">2</text><text x="0" y="0" fill="#131300" font-size="14" dominant-baseline="text-before-edge" text-anchor="middle" transform="translate(226.76843894958498, 479) rotate(0)">3</text><text x="0" y="0" fill="#131300" font-size="14" dominant-baseline="text-before-edge" text-anchor="middle" transform="translate(250.96031387329103, 479) rotate(0)">4</text><text x="0" y="0" fill="#131300" font-size="14" dominant-baseline="text-before-edge" text-anchor="middle" transform="translate(275.15218879699705, 479) rotate(0)">5</text><text x="0" y="0" fill="#131300" font-size="14" dominant-baseline="text-before-edge" text-anchor="middle" transform="translate(299.34406372070316, 479) rotate(0)">6</text><text x="0" y="0" fill="#131300" font-size="14" dominant-baseline="text-before-edge" text-anchor="middle" transform="translate(323.53593864440916, 479) rotate(0)">7</text><text x="0" y="0" fill="#131300" font-size="14" dominant-baseline="text-before-edge" text-anchor="middle" transform="translate(347.72781356811527, 479) rotate(0)">8</text><text x="0" y="0" fill="#131300" font-size="14" dominant-baseline="text-before-edge" text-anchor="middle" transform="translate(371.9196884918213, 479) rotate(0)">9</text><text x="0" y="0" fill="#131300" font-size="14" dominant-baseline="text-before-edge" text-anchor="middle" transform="translate(396.11156341552737, 479) rotate(0)">10</text><text x="0" y="0" fill="#131300" font-size="14" dominant-baseline="text-before-edge" text-anchor="middle" transform="translate(420.3034383392334, 479) rotate(0)">11</text><text x="0" y="0" fill="#131300" font-size="14" dominant-baseline="text-before-edge" text-anchor="middle" transform="translate(444.4953132629395, 479) rotate(0)">12</text><text x="0" y="0" fill="#131300" font-size="14" dominant-baseline="text-before-edge" text-anchor="middle" transform="translate(468.6871881866455, 479) rotate(0)">13</text><text x="0" y="0" fill="#131300" font-size="14" dominant-baseline="text-before-edge" text-anchor="middle" transform="translate(492.8790631103516, 479) rotate(0)">14</text><text x="0" y="0" fill="#131300" font-size="14" dominant-baseline="text-before-edge" text-anchor="middle" transform="translate(517.0709380340577, 479) rotate(0)">15</text><text x="0" y="0" fill="#131300" font-size="14" dominant-baseline="text-before-edge" text-anchor="middle" transform="translate(541.2628129577637, 479) rotate(0)">16</text><text x="0" y="0" fill="#131300" font-size="14" dominant-baseline="text-before-edge" text-anchor="middle" transform="translate(565.4546878814697, 479) rotate(0)">17</text><text x="0" y="0" fill="#131300" font-size="14" dominant-baseline="text-before-edge" text-anchor="middle" transform="translate(589.6465628051758, 479) rotate(0)">18</text><text x="0" y="0" fill="#131300" font-size="14" dominant-baseline="text-before-edge" text-anchor="middle" transform="translate(613.8384377288819, 479) rotate(0)">19</text><text x="0" y="0" fill="#131300" font-size="14" dominant-baseline="text-before-edge" text-anchor="middle" transform="translate(638.0303126525879, 479) rotate(0)">20</text><text x="0" y="0" fill="#131300" font-size="14" dominant-baseline="text-before-edge" text-anchor="middle" transform="translate(662.222187576294, 479) rotate(0)">21</text><text x="0" y="0" fill="#131300" font-size="14" dominant-baseline="text-before-edge" text-anchor="middle" transform="translate(686.4140625, 479) rotate(0)">22</text></g><g class="ticks"><path d="M 81.61718940734863,469 L 81.61718940734863,474" fill="none" stroke="#131300" stroke-width="2"/><path d="M 105.80906433105469,469 L 105.80906433105469,474" fill="none" stroke="#131300" stroke-width="2"/><path d="M 130.00093925476074,469 L 130.00093925476074,474" fill="none" stroke="#131300" stroke-width="2"/><path d="M 154.1928141784668,469 L 154.1928141784668,474" fill="none" stroke="#131300" stroke-width="2"/><path d="M 178.38468910217284,469 L 178.38468910217284,474" fill="none" stroke="#131300" stroke-width="2"/><path d="M 202.5765640258789,469 L 202.5765640258789,474" fill="none" stroke="#131300" stroke-width="2"/><path d="M 226.76843894958498,469 L 226.76843894958498,474" fill="none" stroke="#131300" stroke-width="2"/><path d="M 250.96031387329103,469 L 250.96031387329103,474" fill="none" stroke="#131300" stroke-width="2"/><path d="M 275.15218879699705,469 L 275.15218879699705,474" fill="none" stroke="#131300" stroke-width="2"/><path d="M 299.34406372070316,469 L 299.34406372070316,474" fill="none" stroke="#131300" stroke-width="2"/><path d="M 323.53593864440916,469 L 323.53593864440916,474" fill="none" stroke="#131300" stroke-width="2"/><path d="M 347.72781356811527,469 L 347.72781356811527,474" fill="none" stroke="#131300" stroke-width="2"/><path d="M 371.9196884918213,469 L 371.9196884918213,474" fill="none" stroke="#131300" stroke-width="2"/><path d="M 396.11156341552737,469 L 396.11156341552737,474" fill="none" stroke="#131300" stroke-width="2"/><path d="M 420.3034383392334,469 L 420.3034383392334,474" fill="none" stroke="#131300" stroke-width="2"/><path d="M 444.4953132629395,469 L 444.4953132629395,474" fill="none" stroke="#131300" stroke-width="2"/><path d="M 468.6871881866455,469 L 468.6871881866455,474" fill="none" stroke="#131300" stroke-width="2"/><path d="M 492.8790631103516,469 L 492.8790631103516,474" fill="none" stroke="#131300" stroke-width="2"/><path d="M 517.0709380340577,469 L 517.0709380340577,474" fill="none" stroke="#131300" stroke-width="2"/><path d="M 541.2628129577637,469 L 541.2628129577637,474" fill="none" stroke="#131300" stroke-width="2"/><path d="M 565.4546878814697,469 L 565.4546878814697,474" fill="none" stroke="#131300" stroke-width="2"/><path d="M 589.6465628051758,469 L 589.6465628051758,474" fill="none" stroke="#131300" stroke-width="2"/><path d="M 613.8384377288819,469 L 613.8384377288819,474" fill="none" stroke="#131300" stroke-width="2"/><path d="M 638.0303126525879,469 L 638.0303126525879,474" fill="none" stroke="#131300" stroke-width="2"/><path d="M 662.222187576294,469 L 662.222187576294,474" fill="none" stroke="#131300" stroke-width="2"/><path d="M 686.4140625,469 L 686.4140625,474" fill="none" stroke="#131300" stroke-width="2"/></g></g><g class="left-axis"><g class="axisl-line"><path d="M 67.03125190734863,43.1796875 L 67.03125190734863,467" fill="none" stroke="#131300" stroke-width="2"/></g><g class="label"><text x="0" y="0" fill="#131300" font-size="14" dominant-baseline="middle" text-anchor="end" transform="translate(56.03125190734863, 51.1796875) rotate(0)">260</text><text x="0" y="0" fill="#131300" font-size="14" dominant-baseline="middle" text-anchor="end" transform="translate(56.03125190734863, 82.55048076923075) rotate(0)">240</text><text x="0" y="0" fill="#131300" font-size="14" dominant-baseline="middle" text-anchor="end" transform="translate(56.03125190734863, 113.92127403846153) rotate(0)">220</text><text x="0" y="0" fill="#131300" font-size="14" dominant-baseline="middle" text-anchor="end" transform="translate(56.03125190734863, 145.2920673076923) rotate(0)">200</text><text x="0" y="0" fill="#131300" font-size="14" dominant-baseline="middle" text-anchor="end" transform="translate(56.03125190734863, 176.66286057692307) rotate(0)">180</text><text x="0" y="0" fill="#131300" font-size="14" dominant-baseline="middle" text-anchor="end" transform="translate(56.03125190734863, 208.03365384615384) rotate(0)">160</text><text x="0" y="0" fill="#131300" font-size="14" dominant-baseline="middle" text-anchor="end" transform="translate(56.03125190734863, 239.40444711538464) rotate(0)">140</text><text x="0" y="0" fill="#131300" font-size="14" dominant-baseline="middle" text-anchor="end" transform="translate(56.03125190734863, 270.77524038461536) rotate(0)">120</text><text x="0" y="0" fill="#131300" font-size="14" dominant-baseline="middle" text-anchor="end" transform="translate(56.03125190734863, 302.14603365384613) rotate(0)">100</text><text x="0" y="0" fill="#131300" font-size="14" dominant-baseline="middle" text-anchor="end" transform="translate(56.03125190734863, 333.5168269230769) rotate(0)">80</text><text x="0" y="0" fill="#131300" font-size="14" dominant-baseline="middle" text-anchor="end" transform="translate(56.03125190734863, 364.8876201923077) rotate(0)">60</text><text x="0" y="0" fill="#131300" font-size="14" dominant-baseline="middle" text-anchor="end" transform="translate(56.03125190734863, 396.25841346153845) rotate(0)">40</text><text x="0" y="0" fill="#131300" font-size="14" dominant-baseline="middle" text-anchor="end" transform="translate(56.03125190734863, 427.6292067307693) rotate(0)">20</text><text x="0" y="0" fill="#131300" font-size="14" dominant-baseline="middle" text-anchor="end" transform="translate(56.03125190734863, 459) rotate(0)">0</text></g><g class="ticks"><path d="M 66.03125190734863,51.1796875 L 61.03125190734863,51.1796875" fill="none" stroke="#131300" stroke-width="2"/><path d="M 66.03125190734863,82.55048076923075 L 61.03125190734863,82.55048076923075" fill="none" stroke="#131300" stroke-width="2"/><path d="M 66.03125190734863,113.92127403846153 L 61.03125190734863,113.92127403846153" fill="none" stroke="#131300" stroke-width="2"/><path d="M 66.03125190734863,145.2920673076923 L 61.03125190734863,145.2920673076923" fill="none" stroke="#131300" stroke-width="2"/><path d="M 66.03125190734863,176.66286057692307 L 61.03125190734863,176.66286057692307" fill="none" stroke="#131300" stroke-width="2"/><path d="M 66.03125190734863,208.03365384615384 L 61.03125190734863,208.03365384615384" fill="none" stroke="#131300" stroke-width="2"/><path d="M 66.03125190734863,239.40444711538464 L 61.03125190734863,239.40444711538464" fill="none" stroke="#131300" stroke-width="2"/><path d="M 66.03125190734863,270.77524038461536 L 61.03125190734863,270.77524038461536" fill="none" stroke="#131300" stroke-width="2"/><path d="M 66.03125190734863,302.14603365384613 L 61.03125190734863,302.14603365384613" fill="none" stroke="#131300" stroke-width="2"/><path d="M 66.03125190734863,333.5168269230769 L 61.03125190734863,333.5168269230769" fill="none" stroke="#131300" stroke-width="2"/><path d="M 66.03125190734863,364.8876201923077 L 61.03125190734863,364.8876201923077" fill="none" stroke="#131300" stroke-width="2"/><path d="M 66.03125190734863,396.25841346153845 L 61.03125190734863,396.25841346153845" fill="none" stroke="#131300" stroke-width="2"/><path d="M 66.03125190734863,427.6292067307693 L 61.03125190734863,427.6292067307693" fill="none" stroke="#131300" stroke-width="2"/><path d="M 66.03125190734863,459 L 61.03125190734863,459" fill="none" stroke="#131300" stroke-width="2"/></g><g class="title"><text x="0" y="0" fill="#131300" font-size="16" dominant-baseline="text-before-edge" text-anchor="middle" transform="translate(5, 255.08984375) rotate(270)">Members</text></g></g></g><g class="mermaid-tmp-group"/></svg>