<svg id="my-svg" width="100%" xmlns="http://www.w3.org/2000/svg" xmlns:xlink="http://www.w3.org/1999/xlink" style="max-width: 700px; background-color: white;" viewBox="0 0 700 500" role="graphics-document document" aria-roledescription="xychart"><style>#my-svg{font-family:"trebuchet ms",verdana,arial,sans-serif;font-size:16px;fill:#333;}@keyframes edge-animation-frame{from{stroke-dashoffset:0;}}@keyframes dash{to{stroke-dashoffset:0;}}#my-svg .edge-animation-slow{stroke-dasharray:9,5!important;stroke-dashoffset:900;animation:dash 50s linear infinite;stroke-linecap:round;}#my-svg .edge-animation-fast{stroke-dasharray:9,5!important;stroke-dashoffset:900;animation:dash 20s linear infinite;stroke-linecap:round;}#my-svg .error-icon{fill:#552222;}#my-svg .error-text{fill:#552222;stroke:#552222;}#my-svg .edge-thickness-normal{stroke-width:1px;}#my-svg .edge-thickness-thick{stroke-width:3.5px;}#my-svg .edge-pattern-solid{stroke-dasharray:0;}#my-svg .edge-thickness-invisible{stroke-width:0;fill:none;}#my-svg .edge-pattern-dashed{stroke-dasharray:3;}#my-svg .edge-pattern-dotted{stroke-dasharray:2;}#my-svg .marker{fill:#333333;stroke:#333333;}#my-svg .marker.cross{stroke:#333333;}#my-svg svg{font-family:"trebuchet ms",verdana,arial,sans-serif;font-size:16px;}#my-svg p{margin:0;}#my-svg :root{--mermaid-font-family:"trebuchet ms",verdana,arial,sans-serif;}</style><g/><g class="main"><rect width="700" height="500" class="background" fill="white"/><g class="chart-title"><text x="0" y="0" fill="#131300" font-size="20" dominant-baseline="middle" text-anchor="middle" transform="translate(350, 21.58984375) rotate(0)">Daily Cumulative Member Tally (2026) - Full Scale</text></g><g class="plot"><g class="bar-plot-0"><rect x="73.63723066515392" y="197.05387620192306" width="15.959917484389411" height="269.94612379807694" fill="#ECECFF" stroke="#ECECFF" stroke-width="0"/><rect x="92.53713294929928" y="192.34825721153845" width="15.959917484389411" height="274.65174278846155" fill="#ECECFF" stroke="#ECECFF" stroke-width="0"/><rect x="111.43703523344463" y="187.64263822115387" width="15.959917484389411" height="279.3573617788461" fill="#ECECFF" stroke="#ECECFF" stroke-width="0"/><rect x="130.33693751759" y="184.50555889423077" width="15.959917484389411" height="282.4944411057692" fill="#ECECFF" stroke="#ECECFF" stroke-width="0"/><rect x="149.23683980173536" y="175.09432091346156" width="15.959917484389411" height="291.90567908653844" fill="#ECECFF" stroke="#ECECFF" stroke-width="0"/><rect x="168.1367420858807" y="171.95724158653846" width="15.959917484389411" height="295.04275841346157" fill="#ECECFF" stroke="#ECECFF" stroke-width="0"/><rect x="187.03664437002607" y="171.95724158653846" width="15.959917484389411" height="295.04275841346157" fill="#ECECFF" stroke="#ECECFF" stroke-width="0"/><rect x="205.93654665417142" y="167.25162259615385" width="15.959917484389411" height="299.7483774038461" fill="#ECECFF" stroke="#ECECFF" stroke-width="0"/><rect x="224.83644893831678" y="165.68308293269232" width="15.959917484389411" height="301.3169170673077" fill="#ECECFF" stroke="#ECECFF" stroke-width="0"/><rect x="243.73635122246213" y="160.9774639423077" width="15.959917484389411" height="306.02253605769226" fill="#ECECFF" stroke="#ECECFF" stroke-width="0"/><rect x="262.6362535066075" y="151.56622596153846" width="15.959917484389411" height="315.43377403846154" fill="#ECECFF" stroke="#ECECFF" stroke-width="0"/><rect x="281.53615579075284" y="140.58644831730768" width="15.959917484389411" height="326.4135516826923" fill="#ECECFF" stroke="#ECECFF" stroke-width="0"/><rect x="300.4360580748982" y="128.03813100961537" width="15.959917484389411" height="338.96186899038463" fill="#ECECFF" stroke="#ECECFF" stroke-width="0"/><rect x="319.33596035904355" y="123.33251201923079" width="15.959917484389411" height="343.66748798076924" fill="#ECECFF" stroke="#ECECFF" stroke-width="0"/><rect x="338.2358626431889" y="118.62689302884613" width="15.959917484389411" height="348.3731069711539" fill="#ECECFF" stroke="#ECECFF" stroke-width="0"/><rect x="357.13576492733426" y="118.62689302884613" width="15.959917484389411" height="348.3731069711539" fill="#ECECFF" stroke="#ECECFF" stroke-width="0"/><rect x="376.0356672114796" y="118.62689302884613" width="15.959917484389411" height="348.3731069711539" fill="#ECECFF" stroke="#ECECFF" stroke-width="0"/><rect x="394.935569495625" y="113.92127403846153" width="15.959917484389411" height="353.07872596153845" fill="#ECECFF" stroke="#ECECFF" stroke-width="0"/><rect x="413.83547177977033" y="106.07857572115384" width="15.959917484389411" height="360.9214242788462" fill="#ECECFF" stroke="#ECECFF" stroke-width="0"/><rect x="432.7353740639157" y="96.66733774038464" width="15.959917484389411" height="370.33266225961535" fill="#ECECFF" stroke="#ECECFF" stroke-width="0"/><rect x="451.63527634806104" y="91.96171874999999" width="15.959917484389411" height="375.03828125" fill="#ECECFF" stroke="#ECECFF" stroke-width="0"/><rect x="470.5351786322064" y="87.2560997596154" width="15.959917484389411" height="379.7439002403846" fill="#ECECFF" stroke="#ECECFF" stroke-width="0"/><rect x="489.43508091635175" y="82.55048076923075" width="15.959917484389411" height="384.4495192307693" fill="#ECECFF" stroke="#ECECFF" stroke-width="0"/><rect x="508.3349832004971" y="82.55048076923075" width="15.959917484389411" height="384.4495192307693" fill="#ECECFF" stroke="#ECECFF" stroke-width="0"/><rect x="527.2348854846424" y="76.27632211538462" width="15.959917484389411" height="390.72367788461537" fill="#ECECFF" stroke="#ECECFF" stroke-width="0"/><rect x="546.1347877687878" y="73.13924278846156" width="15.959917484389411" height="393.86075721153844" fill="#ECECFF" stroke="#ECECFF" stroke-width="0"/><rect x="565.0346900529331" y="73.13924278846156" width="15.959917484389411" height="393.86075721153844" fill="#ECECFF" stroke="#ECECFF" stroke-width="0"/><rect x="583.9345923370785" y="73.13924278846156" width="15.959917484389411" height="393.86075721153844" fill="#ECECFF" stroke="#ECECFF" stroke-width="0"/><rect x="602.8344946212238" y="73.13924278846156" width="15.959917484389411" height="393.86075721153844" fill="#ECECFF" stroke="#ECECFF" stroke-width="0"/><rect x="92.53713294929928" y="73.13924278846156" width="15.959917484389411" height="393.86075721153844" fill="#ECECFF" stroke="#ECECFF" stroke-width="0"/><rect x="111.43703523344463" y="73.13924278846156" width="15.959917484389411" height="393.86075721153844" fill="#ECECFF" stroke="#ECECFF" stroke-width="0"/><rect x="130.33693751759" y="73.13924278846156" width="15.959917484389411" height="393.86075721153844" fill="#ECECFF" stroke="#ECECFF" stroke-width="0"/><rect x="621.7343969053692" y="73.13924278846156" width="15.959917484389411" height="393.86075721153844" fill="#ECECFF" stroke="#ECECFF" stroke-width="0"/><rect x="640.6342991895145" y="73.13924278846156" width="15.959917484389411" height="393.86075721153844" fill="#ECECFF" stroke="#ECECFF" stroke-width="0"/><rect x="659.5342014736599" y="71.57070312500002" width="15.959917484389411" height="395.429296875" fill="#ECECFF" stroke="#ECECFF" stroke-width="0"/><rect x="678.4341037578052" y="70.00216346153844" width="15.959917484389411" height="396.99783653846157" fill="#ECECFF" stroke="#ECECFF" stroke-width="0"/></g></g><g class="bottom-axis"><g class="axis-line"><path d="M 68.03125190734863,468 L 700,468" fill="none" stroke="#131300" stroke-width="2"/></g><g class="label"><text x="0" y="0" fill="#131300" font-size="14" dominant-baseline="text-before-edge" text-anchor="middle" transform="translate(81.61718940734863, 479) rotate(0)">2.25</text><text x="0" y="0" fill="#131300" font-size="14" dominant-baseline="text-before-edge" text-anchor="middle" transform="translate(100.51709169149399, 479) rotate(0)">26</text><text x="0" y="0" fill="#131300" font-size="14" dominant-baseline="text-before-edge" text-anchor="middle" transform="translate(119.41699397563934, 479) rotate(0)">27</text><text x="0" y="0" fill="#131300" font-size="14" dominant-baseline="text-before-edge" text-anchor="middle" transform="translate(138.3168962597847, 479) rotate(0)">28</text><text x="0" y="0" fill="#131300" font-size="14" dominant-baseline="text-before-edge" text-anchor="middle" transform="translate(157.21679854393005, 479) rotate(0)">3.1</text><text x="0" y="0" fill="#131300" font-size="14" dominant-baseline="text-before-edge" text-anchor="middle" transform="translate(176.1167008280754, 479) rotate(0)">2</text><text x="0" y="0" fill="#131300" font-size="14" dominant-baseline="text-before-edge" text-anchor="middle" transform="translate(195.01660311222076, 479) rotate(0)">3</text><text x="0" y="0" fill="#131300" font-size="14" dominant-baseline="text-before-edge" text-anchor="middle" transform="translate(213.91650539636612, 479) rotate(0)">4</text><text x="0" y="0" fill="#131300" font-size="14" dominant-baseline="text-before-edge" text-anchor="middle" transform="translate(232.81640768051147, 479) rotate(0)">5</text><text x="0" y="0" fill="#131300" font-size="14" dominant-baseline="text-before-edge" text-anchor="middle" transform="translate(251.71630996465683, 479) rotate(0)">6</text><text x="0" y="0" fill="#131300" font-size="14" dominant-baseline="text-before-edge" text-anchor="middle" transform="translate(270.6162122488022, 479) rotate(0)">7</text><text x="0" y="0" fill="#131300" font-size="14" dominant-baseline="text-before-edge" text-anchor="middle" transform="translate(289.51611453294754, 479) rotate(0)">8</text><text x="0" y="0" fill="#131300" font-size="14" dominant-baseline="text-before-edge" text-anchor="middle" transform="translate(308.4160168170929, 479) rotate(0)">9</text><text x="0" y="0" fill="#131300" font-size="14" dominant-baseline="text-before-edge" text-anchor="middle" transform="translate(327.31591910123825, 479) rotate(0)">10</text><text x="0" y="0" fill="#131300" font-size="14" dominant-baseline="text-before-edge" text-anchor="middle" transform="translate(346.2158213853836, 479) rotate(0)">11</text><text x="0" y="0" fill="#131300" font-size="14" dominant-baseline="text-before-edge" text-anchor="middle" transform="translate(365.11572366952896, 479) rotate(0)">12</text><text x="0" y="0" fill="#131300" font-size="14" dominant-baseline="text-before-edge" text-anchor="middle" transform="translate(384.0156259536743, 479) rotate(0)">13</text><text x="0" y="0" fill="#131300" font-size="14" dominant-baseline="text-before-edge" text-anchor="middle" transform="translate(402.9155282378197, 479) rotate(0)">14</text><text x="0" y="0" fill="#131300" font-size="14" dominant-baseline="text-before-edge" text-anchor="middle" transform="translate(421.815430521965, 479) rotate(0)">15</text><text x="0" y="0" fill="#131300" font-size="14" dominant-baseline="text-before-edge" text-anchor="middle" transform="translate(440.7153328061104, 479) rotate(0)">16</text><text x="0" y="0" fill="#131300" font-size="14" dominant-baseline="text-before-edge" text-anchor="middle" transform="translate(459.61523509025574, 479) rotate(0)">17</text><text x="0" y="0" fill="#131300" font-size="14" dominant-baseline="text-before-edge" text-anchor="middle" transform="translate(478.5151373744011, 479) rotate(0)">18</text><text x="0" y="0" fill="#131300" font-size="14" dominant-baseline="text-before-edge" text-anchor="middle" transform="translate(497.41503965854645, 479) rotate(0)">19</text><text x="0" y="0" fill="#131300" font-size="14" dominant-baseline="text-before-edge" text-anchor="middle" transform="translate(516.3149419426918, 479) rotate(0)">20</text><text x="0" y="0" fill="#131300" font-size="14" dominant-baseline="text-before-edge" text-anchor="middle" transform="translate(535.2148442268372, 479) rotate(0)">21</text><text x="0" y="0" fill="#131300" font-size="14" dominant-baseline="text-before-edge" text-anchor="middle" transform="translate(554.1147465109825, 479) rotate(0)">22</text><text x="0" y="0" fill="#131300" font-size="14" dominant-baseline="text-before-edge" text-anchor="middle" transform="translate(573.0146487951279, 479) rotate(0)">23</text><text x="0" y="0" fill="#131300" font-size="14" dominant-baseline="text-before-edge" text-anchor="middle" transform="translate(591.9145510792732, 479) rotate(0)">24</text><text x="0" y="0" fill="#131300" font-size="14" dominant-baseline="text-before-edge" text-anchor="middle" transform="translate(610.8144533634186, 479) rotate(0)">25</text><text x="0" y="0" fill="#131300" font-size="14" dominant-baseline="text-before-edge" text-anchor="middle" transform="translate(100.51709169149399, 479) rotate(0)">26</text><text x="0" y="0" fill="#131300" font-size="14" dominant-baseline="text-before-edge" text-anchor="middle" transform="translate(119.41699397563934, 479) rotate(0)">27</text><text x="0" y="0" fill="#131300" font-size="14" dominant-baseline="text-before-edge" text-anchor="middle" transform="translate(138.3168962597847, 479) rotate(0)">28</text><text x="0" y="0" fill="#131300" font-size="14" dominant-baseline="text-before-edge" text-anchor="middle" transform="translate(629.7143556475639, 479) rotate(0)">29</text><text x="0" y="0" fill="#131300" font-size="14" dominant-baseline="text-before-edge" text-anchor="middle" transform="translate(648.6142579317093, 479) rotate(0)">30</text><text x="0" y="0" fill="#131300" font-size="14" dominant-baseline="text-before-edge" text-anchor="middle" transform="translate(667.5141602158546, 479) rotate(0)">31</text><text x="0" y="0" fill="#131300" font-size="14" dominant-baseline="text-before-edge" text-anchor="middle" transform="translate(686.4140625, 479) rotate(0)">4.1</text></g><g class="ticks"><path d="M 81.61718940734863,469 L 81.61718940734863,474" fill="none" stroke="#131300" stroke-width="2"/><path d="M 100.51709169149399,469 L 100.51709169149399,474" fill="none" stroke="#131300" stroke-width="2"/><path d="M 119.41699397563934,469 L 119.41699397563934,474" fill="none" stroke="#131300" stroke-width="2"/><path d="M 138.3168962597847,469 L 138.3168962597847,474" fill="none" stroke="#131300" stroke-width="2"/><path d="M 157.21679854393005,469 L 157.21679854393005,474" fill="none" stroke="#131300" stroke-width="2"/><path d="M 176.1167008280754,469 L 176.1167008280754,474" fill="none" stroke="#131300" stroke-width="2"/><path d="M 195.01660311222076,469 L 195.01660311222076,474" fill="none" stroke="#131300" stroke-width="2"/><path d="M 213.91650539636612,469 L 213.91650539636612,474" fill="none" stroke="#131300" stroke-width="2"/><path d="M 232.81640768051147,469 L 232.81640768051147,474" fill="none" stroke="#131300" stroke-width="2"/><path d="M 251.71630996465683,469 L 251.71630996465683,474" fill="none" stroke="#131300" stroke-width="2"/><path d="M 270.6162122488022,469 L 270.6162122488022,474" fill="none" stroke="#131300" stroke-width="2"/><path d="M 289.51611453294754,469 L 289.51611453294754,474" fill="none" stroke="#131300" stroke-width="2"/><path d="M 308.4160168170929,469 L 308.4160168170929,474" fill="none" stroke="#131300" stroke-width="2"/><path d="M 327.31591910123825,469 L 327.31591910123825,474" fill="none" stroke="#131300" stroke-width="2"/><path d="M 346.2158213853836,469 L 346.2158213853836,474" fill="none" stroke="#131300" stroke-width="2"/><path d="M 365.11572366952896,469 L 365.11572366952896,474" fill="none" stroke="#131300" stroke-width="2"/><path d="M 384.0156259536743,469 L 384.0156259536743,474" fill="none" stroke="#131300" stroke-width="2"/><path d="M 402.9155282378197,469 L 402.9155282378197,474" fill="none" stroke="#131300" stroke-width="2"/><path d="M 421.815430521965,469 L 421.815430521965,474" fill="none" stroke="#131300" stroke-width="2"/><path d="M 440.7153328061104,469 L 440.7153328061104,474" fill="none" stroke="#131300" stroke-width="2"/><path d="M 459.61523509025574,469 L 459.61523509025574,474" fill="none" stroke="#131300" stroke-width="2"/><path d="M 478.5151373744011,469 L 478.5151373744011,474" fill="none" stroke="#131300" stroke-width="2"/><path d="M 497.41503965854645,469 L 497.41503965854645,474" fill="none" stroke="#131300" stroke-width="2"/><path d="M 516.3149419426918,469 L 516.3149419426918,474" fill="none" stroke="#131300" stroke-width="2"/><path d="M 535.2148442268372,469 L 535.2148442268372,474" fill="none" stroke="#131300" stroke-width="2"/><path d="M 554.1147465109825,469 L 554.1147465109825,474" fill="none" stroke="#131300" stroke-width="2"/><path d="M 573.0146487951279,469 L 573.0146487951279,474" fill="none" stroke="#131300" stroke-width="2"/><path d="M 591.9145510792732,469 L 591.9145510792732,474" fill="none" stroke="#131300" stroke-width="2"/><path d="M 610.8144533634186,469 L 610.8144533634186,474" fill="none" stroke="#131300" stroke-width="2"/><path d="M 100.51709169149399,469 L 100.51709169149399,474" fill="none" stroke="#131300" stroke-width="2"/><path d="M 119.41699397563934,469 L 119.41699397563934,474" fill="none" stroke="#131300" stroke-width="2"/><path d="M 138.3168962597847,469 L 138.3168962597847,474" fill="none" stroke="#131300" stroke-width="2"/><path d="M 629.7143556475639,469 L 629.7143556475639,474" fill="none" stroke="#131300" stroke-width="2"/><path d="M 648.6142579317093,469 L 648.6142579317093,474" fill="none" stroke="#131300" stroke-width="2"/><path d="M 667.5141602158546,469 L 667.5141602158546,474" fill="none" stroke="#131300" stroke-width="2"/><path d="M 686.4140625,469 L 686.4140625,474" fill="none" stroke="#131300" stroke-width="2"/></g></g><g class="left-axis"><g class="axisl-line"><path d="M 67.03125190734863,43.1796875 L 67.03125190734863,467" fill="none" stroke="#131300" stroke-width="2"/></g><g class="label"><text x="0" y="0" fill="#131300" font-size="14" dominant-baseline="middle" text-anchor="end" transform="translate(56.03125190734863, 51.1796875) rotate(0)">260</text><text x="0" y="0" fill="#131300" font-size="14" dominant-baseline="middle" text-anchor="end" transform="translate(56.03125190734863, 82.55048076923075) rotate(0)">240</text><text x="0" y="0" fill="#131300" font-size="14" dominant-baseline="middle" text-anchor="end" transform="translate(56.03125190734863, 113.92127403846153) rotate(0)">220</text><text x="0" y="0" fill="#131300" font-size="14" dominant-baseline="middle" text-anchor="end" transform="translate(56.03125190734863, 145.2920673076923) rotate(0)">200</text><text x="0" y="0" fill="#131300" font-size="14" dominant-baseline="middle" text-anchor="end" transform="translate(56.03125190734863, 176.66286057692307) rotate(0)">180</text><text x="0" y="0" fill="#131300" font-size="14" dominant-baseline="middle" text-anchor="end" transform="translate(56.03125190734863, 208.03365384615384) rotate(0)">160</text><text x="0" y="0" fill="#131300" font-size="14" dominant-baseline="middle" text-anchor="end" transform="translate(56.03125190734863, 239.40444711538464) rotate(0)">140</text><text x="0" y="0" fill="#131300" font-size="14" dominant-baseline="middle" text-anchor="end" transform="translate(56.03125190734863, 270.77524038461536) rotate(0)">120</text><text x="0" y="0" fill="#131300" font-size="14" dominant-baseline="middle" text-anchor="end" transform="translate(56.03125190734863, 302.14603365384613) rotate(0)">100</text><text x="0" y="0" fill="#131300" font-size="14" dominant-baseline="middle" text-anchor="end" transform="translate(56.03125190734863, 333.5168269230769) rotate(0)">80</text><text x="0" y="0" fill="#131300" font-size="14" dominant-baseline="middle" text-anchor="end" transform="translate(56.03125190734863, 364.8876201923077) rotate(0)">60</text><text x="0" y="0" fill="#131300" font-size="14" dominant-baseline="middle" text-anchor="end" transform="translate(56.03125190734863, 396.25841346153845) rotate(0)">40</text><text x="0" y="0" fill="#131300" font-size="14" dominant-baseline="middle" text-anchor="end" transform="translate(56.03125190734863, 427.6292067307693) rotate(0)">20</text><text x="0" y="0" fill="#131300" font-size="14" dominant-baseline="middle" text-anchor="end" transform="translate(56.03125190734863, 459) rotate(0)">0</text></g><g class="ticks"><path d="M 66.03125190734863,51.1796875 L 61.03125190734863,51.1796875" fill="none" stroke="#131300" stroke-width="2"/><path d="M 66.03125190734863,82.55048076923075 L 61.03125190734863,82.55048076923075" fill="none" stroke="#131300" stroke-width="2"/><path d="M 66.03125190734863,113.92127403846153 L 61.03125190734863,113.92127403846153" fill="none" stroke="#131300" stroke-width="2"/><path d="M 66.03125190734863,145.2920673076923 L 61.03125190734863,145.2920673076923" fill="none" stroke="#131300" stroke-width="2"/><path d="M 66.03125190734863,176.66286057692307 L 61.03125190734863,176.66286057692307" fill="none" stroke="#131300" stroke-width="2"/><path d="M 66.03125190734863,208.03365384615384 L 61.03125190734863,208.03365384615384" fill="none" stroke="#131300" stroke-width="2"/><path d="M 66.03125190734863,239.40444711538464 L 61.03125190734863,239.40444711538464" fill="none" stroke="#131300" stroke-width="2"/><path d="M 66.03125190734863,270.77524038461536 L 61.03125190734863,270.77524038461536" fill="none" stroke="#131300" stroke-width="2"/><path d="M 66.03125190734863,302.14603365384613 L 61.03125190734863,302.14603365384613" fill="none" stroke="#131300" stroke-width="2"/><path d="M 66.03125190734863,333.5168269230769 L 61.03125190734863,333.5168269230769" fill="none" stroke="#131300" stroke-width="2"/><path d="M 66.03125190734863,364.8876201923077 L 61.03125190734863,364.8876201923077" fill="none" stroke="#131300" stroke-width="2"/><path d="M 66.03125190734863,396.25841346153845 L 61.03125190734863,396.25841346153845" fill="none" stroke="#131300" stroke-width="2"/><path d="M 66.03125190734863,427.6292067307693 L 61.03125190734863,427.6292067307693" fill="none" stroke="#131300" stroke-width="2"/><path d="M 66.03125190734863,459 L 61.03125190734863,459" fill="none" stroke="#131300" stroke-width="2"/></g><g class="title"><text x="0" y="0" fill="#131300" font-size="16" dominant-baseline="text-before-edge" text-anchor="middle" transform="translate(5, 255.08984375) rotate(270)">Members</text></g></g></g><g class="mermaid-tmp-group"/></svg>