<svg id="my-svg" width="100%" xmlns="http://www.w3.org/2000/svg" xmlns:xlink="http://www.w3.org/1999/xlink" style="max-width: 700px; background-color: white;" viewBox="0 0 700 500" role="graphics-document document" aria-roledescription="xychart"><style>#my-svg{font-family:"trebuchet ms",verdana,arial,sans-serif;font-size:16px;fill:#333;}@keyframes edge-animation-frame{from{stroke-dashoffset:0;}}@keyframes dash{to{stroke-dashoffset:0;}}#my-svg .edge-animation-slow{stroke-dasharray:9,5!important;stroke-dashoffset:900;animation:dash 50s linear infinite;stroke-linecap:round;}#my-svg .edge-animation-fast{stroke-dasharray:9,5!important;stroke-dashoffset:900;animation:dash 20s linear infinite;stroke-linecap:round;}#my-svg .error-icon{fill:#552222;}#my-svg .error-text{fill:#552222;stroke:#552222;}#my-svg .edge-thickness-normal{stroke-width:1px;}#my-svg .edge-thickness-thick{stroke-width:3.5px;}#my-svg .edge-pattern-solid{stroke-dasharray:0;}#my-svg .edge-thickness-invisible{stroke-width:0;fill:none;}#my-svg .edge-pattern-dashed{stroke-dasharray:3;}#my-svg .edge-pattern-dotted{stroke-dasharray:2;}#my-svg .marker{fill:#333333;stroke:#333333;}#my-svg .marker.cross{stroke:#333333;}#my-svg svg{font-family:"trebuchet ms",verdana,arial,sans-serif;font-size:16px;}#my-svg p{margin:0;}#my-svg :root{--mermaid-font-family:"trebuchet ms",verdana,arial,sans-serif;}</style><g/><g class="main"><rect width="700" height="500" class="background" fill="white"/><g class="chart-title"><text x="0" y="0" fill="#131300" font-size="20" dominant-baseline="middle" text-anchor="middle" transform="translate(350, 21.58984375) rotate(0)">Daily Cumulative Member Tally (2026) - Full Scale</text></g><g class="plot"><g class="bar-plot-0"><rect x="75.50488058353992" y="231.9800260416667" width="12.224617647617421" height="235.0199739583333" fill="#ECECFF" stroke="#ECECFF" stroke-width="0"/><rect x="88.65263869424973" y="227.90182291666667" width="12.224617647617421" height="239.09817708333333" fill="#ECECFF" stroke="#ECECFF" stroke-width="0"/><rect x="101.80039680495955" y="223.82361979166666" width="12.224617647617421" height="243.17638020833334" fill="#ECECFF" stroke="#ECECFF" stroke-width="0"/><rect x="114.94815491566936" y="221.10481770833331" width="12.224617647617421" height="245.89518229166669" fill="#ECECFF" stroke="#ECECFF" stroke-width="0"/><rect x="128.09591302637918" y="212.9484114583333" width="12.224617647617421" height="254.0515885416667" fill="#ECECFF" stroke="#ECECFF" stroke-width="0"/><rect x="141.24367113708897" y="210.22960937500002" width="12.224617647617421" height="256.770390625" fill="#ECECFF" stroke="#ECECFF" stroke-width="0"/><rect x="154.39142924779878" y="210.22960937500002" width="12.224617647617421" height="256.770390625" fill="#ECECFF" stroke="#ECECFF" stroke-width="0"/><rect x="167.5391873585086" y="206.15140625" width="12.224617647617421" height="260.84859374999996" fill="#ECECFF" stroke="#ECECFF" stroke-width="0"/><rect x="180.68694546921841" y="204.79200520833334" width="12.224617647617421" height="262.2079947916667" fill="#ECECFF" stroke="#ECECFF" stroke-width="0"/><rect x="193.83470357992823" y="200.71380208333335" width="12.224617647617421" height="266.28619791666665" fill="#ECECFF" stroke="#ECECFF" stroke-width="0"/><rect x="206.98246169063805" y="192.55739583333335" width="12.224617647617421" height="274.4426041666667" fill="#ECECFF" stroke="#ECECFF" stroke-width="0"/><rect x="220.13021980134786" y="183.0415885416667" width="12.224617647617421" height="283.95841145833333" fill="#ECECFF" stroke="#ECECFF" stroke-width="0"/><rect x="233.27797791205765" y="172.16638020833332" width="12.224617647617421" height="294.8336197916667" fill="#ECECFF" stroke="#ECECFF" stroke-width="0"/><rect x="246.42573602276747" y="168.08817708333333" width="12.224617647617421" height="298.91182291666667" fill="#ECECFF" stroke="#ECECFF" stroke-width="0"/><rect x="259.5734941334773" y="164.00997395833332" width="12.224617647617421" height="302.9900260416667" fill="#ECECFF" stroke="#ECECFF" stroke-width="0"/><rect x="272.7212522441871" y="164.00997395833332" width="12.224617647617421" height="302.9900260416667" fill="#ECECFF" stroke="#ECECFF" stroke-width="0"/><rect x="285.86901035489694" y="164.00997395833332" width="12.224617647617421" height="302.9900260416667" fill="#ECECFF" stroke="#ECECFF" stroke-width="0"/><rect x="299.0167684656068" y="159.93177083333336" width="12.224617647617421" height="307.06822916666664" fill="#ECECFF" stroke="#ECECFF" stroke-width="0"/><rect x="312.1645265763166" y="153.134765625" width="12.224617647617421" height="313.865234375" fill="#ECECFF" stroke="#ECECFF" stroke-width="0"/><rect x="325.31228468702636" y="144.978359375" width="12.224617647617421" height="322.02164062500003" fill="#ECECFF" stroke="#ECECFF" stroke-width="0"/><rect x="338.4600427977362" y="140.90015624999998" width="12.224617647617421" height="326.09984375" fill="#ECECFF" stroke="#ECECFF" stroke-width="0"/><rect x="351.607800908446" y="136.821953125" width="12.224617647617421" height="330.178046875" fill="#ECECFF" stroke="#ECECFF" stroke-width="0"/><rect x="364.75555901915584" y="132.74374999999998" width="12.224617647617421" height="334.25625" fill="#ECECFF" stroke="#ECECFF" stroke-width="0"/><rect x="377.9033171298656" y="132.74374999999998" width="12.224617647617421" height="334.25625" fill="#ECECFF" stroke="#ECECFF" stroke-width="0"/><rect x="391.0510752405754" y="127.30614583333332" width="12.224617647617421" height="339.6938541666667" fill="#ECECFF" stroke="#ECECFF" stroke-width="0"/><rect x="404.19883335128526" y="124.58734375000002" width="12.224617647617421" height="342.41265625" fill="#ECECFF" stroke="#ECECFF" stroke-width="0"/><rect x="417.34659146199505" y="124.58734375000002" width="12.224617647617421" height="342.41265625" fill="#ECECFF" stroke="#ECECFF" stroke-width="0"/><rect x="430.4943495727049" y="124.58734375000002" width="12.224617647617421" height="342.41265625" fill="#ECECFF" stroke="#ECECFF" stroke-width="0"/><rect x="443.6421076834147" y="124.58734375000002" width="12.224617647617421" height="342.41265625" fill="#ECECFF" stroke="#ECECFF" stroke-width="0"/><rect x="456.7898657941245" y="124.58734375000002" width="12.224617647617421" height="342.41265625" fill="#ECECFF" stroke="#ECECFF" stroke-width="0"/><rect x="469.9376239048343" y="124.58734375000002" width="12.224617647617421" height="342.41265625" fill="#ECECFF" stroke="#ECECFF" stroke-width="0"/><rect x="483.08538201554416" y="124.58734375000002" width="12.224617647617421" height="342.41265625" fill="#ECECFF" stroke="#ECECFF" stroke-width="0"/><rect x="496.23314012625394" y="124.58734375000002" width="12.224617647617421" height="342.41265625" fill="#ECECFF" stroke="#ECECFF" stroke-width="0"/><rect x="509.38089823696373" y="124.58734375000002" width="12.224617647617421" height="342.41265625" fill="#ECECFF" stroke="#ECECFF" stroke-width="0"/><rect x="522.5286563476736" y="123.22794270833333" width="12.224617647617421" height="343.77205729166667" fill="#ECECFF" stroke="#ECECFF" stroke-width="0"/><rect x="535.6764144583833" y="121.86854166666666" width="12.224617647617421" height="345.13145833333334" fill="#ECECFF" stroke="#ECECFF" stroke-width="0"/><rect x="548.8241725690932" y="119.14973958333331" width="12.224617647617421" height="347.8502604166667" fill="#ECECFF" stroke="#ECECFF" stroke-width="0"/><rect x="561.971930679803" y="119.14973958333331" width="12.224617647617421" height="347.8502604166667" fill="#ECECFF" stroke="#ECECFF" stroke-width="0"/><rect x="575.1196887905128" y="96.039921875" width="12.224617647617421" height="370.960078125" fill="#ECECFF" stroke="#ECECFF" stroke-width="0"/><rect x="588.2674469012227" y="91.96171874999999" width="12.224617647617421" height="375.03828125" fill="#ECECFF" stroke="#ECECFF" stroke-width="0"/><rect x="601.4152050119325" y="91.96171874999999" width="12.224617647617421" height="375.03828125" fill="#ECECFF" stroke="#ECECFF" stroke-width="0"/><rect x="614.5629631226423" y="87.88351562499999" width="12.224617647617421" height="379.116484375" fill="#ECECFF" stroke="#ECECFF" stroke-width="0"/><rect x="627.710721233352" y="87.88351562499999" width="12.224617647617421" height="379.116484375" fill="#ECECFF" stroke="#ECECFF" stroke-width="0"/><rect x="640.8584793440618" y="78.36770833333333" width="12.224617647617421" height="388.6322916666667" fill="#ECECFF" stroke="#ECECFF" stroke-width="0"/><rect x="654.0062374547717" y="78.36770833333333" width="12.224617647617421" height="388.6322916666667" fill="#ECECFF" stroke="#ECECFF" stroke-width="0"/><rect x="667.1539955654815" y="78.36770833333333" width="12.224617647617421" height="388.6322916666667" fill="#ECECFF" stroke="#ECECFF" stroke-width="0"/><rect x="680.3017536761913" y="72.93010416666667" width="12.224617647617421" height="394.06989583333336" fill="#ECECFF" stroke="#ECECFF" stroke-width="0"/></g></g><g class="bottom-axis"><g class="axis-line"><path d="M 68.03125190734863,468 L 700,468" fill="none" stroke="#131300" stroke-width="2"/></g><g class="label"><text x="0" y="0" fill="#131300" font-size="14" dominant-baseline="text-before-edge" text-anchor="middle" transform="translate(81.61718940734863, 479) rotate(0)">2.25</text><text x="0" y="0" fill="#131300" font-size="14" dominant-baseline="text-before-edge" text-anchor="middle" transform="translate(94.76494751805845, 479) rotate(0)">‚Äč‚Äč</text><text x="0" y="0" fill="#131300" font-size="14" dominant-baseline="text-before-edge" text-anchor="middle" transform="translate(107.91270562876826, 479) rotate(0)">‚Äč‚Äč‚Äč</text><text x="0" y="0" fill="#131300" font-size="14" dominant-baseline="text-before-edge" text-anchor="middle" transform="translate(121.06046373947807, 479) rotate(0)">‚Äč‚Äč‚Äč‚Äč</text><text x="0" y="0" fill="#131300" font-size="14" dominant-baseline="text-before-edge" text-anchor="middle" transform="translate(134.2082218501879, 479) rotate(0)">3.1</text><text x="0" y="0" fill="#131300" font-size="14" dominant-baseline="text-before-edge" text-anchor="middle" transform="translate(147.35597996089768, 479) rotate(0)">‚Äč‚Äč‚Äč‚Äč‚Äč‚Äč</text><text x="0" y="0" fill="#131300" font-size="14" dominant-baseline="text-before-edge" text-anchor="middle" transform="translate(160.5037380716075, 479) rotate(0)">‚Äč‚Äč‚Äč‚Äč‚Äč‚Äč‚Äč</text><text x="0" y="0" fill="#131300" font-size="14" dominant-baseline="text-before-edge" text-anchor="middle" transform="translate(173.65149618231732, 479) rotate(0)">‚Äč‚Äč‚Äč‚Äč‚Äč‚Äč‚Äč‚Äč</text><text x="0" y="0" fill="#131300" font-size="14" dominant-baseline="text-before-edge" text-anchor="middle" transform="translate(186.79925429302713, 479) rotate(0)">‚Äč‚Äč‚Äč‚Äč‚Äč‚Äč‚Äč‚Äč‚Äč</text><text x="0" y="0" fill="#131300" font-size="14" dominant-baseline="text-before-edge" text-anchor="middle" transform="translate(199.94701240373695, 479) rotate(0)">‚Äč‚Äč‚Äč‚Äč‚Äč‚Äč‚Äč‚Äč‚Äč‚Äč</text><text x="0" y="0" fill="#131300" font-size="14" dominant-baseline="text-before-edge" text-anchor="middle" transform="translate(213.09477051444676, 479) rotate(0)">‚Äč‚Äč‚Äč‚Äč‚Äč‚Äč‚Äč‚Äč‚Äč‚Äč‚Äč</text><text x="0" y="0" fill="#131300" font-size="14" dominant-baseline="text-before-edge" text-anchor="middle" transform="translate(226.24252862515658, 479) rotate(0)">3.8</text><text x="0" y="0" fill="#131300" font-size="14" dominant-baseline="text-before-edge" text-anchor="middle" transform="translate(239.39028673586637, 479) rotate(0)">‚Äč‚Äč‚Äč‚Äč‚Äč‚Äč‚Äč‚Äč‚Äč‚Äč‚Äč‚Äč‚Äč</text><text x="0" y="0" fill="#131300" font-size="14" dominant-baseline="text-before-edge" text-anchor="middle" transform="translate(252.53804484657618, 479) rotate(0)">‚Äč‚Äč‚Äč‚Äč‚Äč‚Äč‚Äč‚Äč‚Äč‚Äč‚Äč‚Äč‚Äč‚Äč</text><text x="0" y="0" fill="#131300" font-size="14" dominant-baseline="text-before-edge" text-anchor="middle" transform="translate(265.685802957286, 479) rotate(0)">‚Äč‚Äč‚Äč‚Äč‚Äč‚Äč‚Äč‚Äč‚Äč‚Äč‚Äč‚Äč‚Äč‚Äč‚Äč</text><text x="0" y="0" fill="#131300" font-size="14" dominant-baseline="text-before-edge" text-anchor="middle" transform="translate(278.8335610679958, 479) rotate(0)">‚Äč‚Äč‚Äč‚Äč‚Äč‚Äč‚Äč‚Äč‚Äč‚Äč‚Äč‚Äč‚Äč‚Äč‚Äč‚Äč</text><text x="0" y="0" fill="#131300" font-size="14" dominant-baseline="text-before-edge" text-anchor="middle" transform="translate(291.98131917870563, 479) rotate(0)">‚Äč‚Äč‚Äč‚Äč‚Äč‚Äč‚Äč‚Äč‚Äč‚Äč‚Äč‚Äč‚Äč‚Äč‚Äč‚Äč‚Äč</text><text x="0" y="0" fill="#131300" font-size="14" dominant-baseline="text-before-edge" text-anchor="middle" transform="translate(305.1290772894155, 479) rotate(0)">‚Äč‚Äč‚Äč‚Äč‚Äč‚Äč‚Äč‚Äč‚Äč‚Äč‚Äč‚Äč‚Äč‚Äč‚Äč‚Äč‚Äč‚Äč</text><text x="0" y="0" fill="#131300" font-size="14" dominant-baseline="text-before-edge" text-anchor="middle" transform="translate(318.27683540012526, 479) rotate(0)">3.15</text><text x="0" y="0" fill="#131300" font-size="14" dominant-baseline="text-before-edge" text-anchor="middle" transform="translate(331.42459351083505, 479) rotate(0)">‚Äč‚Äč‚Äč‚Äč‚Äč‚Äč‚Äč‚Äč‚Äč‚Äč‚Äč‚Äč‚Äč‚Äč‚Äč‚Äč‚Äč‚Äč‚Äč‚Äč</text><text x="0" y="0" fill="#131300" font-size="14" dominant-baseline="text-before-edge" text-anchor="middle" transform="translate(344.5723516215449, 479) rotate(0)">‚Äč‚Äč‚Äč‚Äč‚Äč‚Äč‚Äč‚Äč‚Äč‚Äč‚Äč‚Äč‚Äč‚Äč‚Äč‚Äč‚Äč‚Äč‚Äč‚Äč‚Äč</text><text x="0" y="0" fill="#131300" font-size="14" dominant-baseline="text-before-edge" text-anchor="middle" transform="translate(357.7201097322547, 479) rotate(0)">‚Äč‚Äč‚Äč‚Äč‚Äč‚Äč‚Äč‚Äč‚Äč‚Äč‚Äč‚Äč‚Äč‚Äč‚Äč‚Äč‚Äč‚Äč‚Äč‚Äč‚Äč‚Äč</text><text x="0" y="0" fill="#131300" font-size="14" dominant-baseline="text-before-edge" text-anchor="middle" transform="translate(370.86786784296453, 479) rotate(0)">‚Äč‚Äč‚Äč‚Äč‚Äč‚Äč‚Äč‚Äč‚Äč‚Äč‚Äč‚Äč‚Äč‚Äč‚Äč‚Äč‚Äč‚Äč‚Äč‚Äč‚Äč‚Äč‚Äč</text><text x="0" y="0" fill="#131300" font-size="14" dominant-baseline="text-before-edge" text-anchor="middle" transform="translate(384.0156259536743, 479) rotate(0)">‚Äč‚Äč‚Äč‚Äč‚Äč‚Äč‚Äč‚Äč‚Äč‚Äč‚Äč‚Äč‚Äč‚Äč‚Äč‚Äč‚Äč‚Äč‚Äč‚Äč‚Äč‚Äč‚Äč‚Äč</text><text x="0" y="0" fill="#131300" font-size="14" dominant-baseline="text-before-edge" text-anchor="middle" transform="translate(397.1633840643841, 479) rotate(0)">‚Äč‚Äč‚Äč‚Äč‚Äč‚Äč‚Äč‚Äč‚Äč‚Äč‚Äč‚Äč‚Äč‚Äč‚Äč‚Äč‚Äč‚Äč‚Äč‚Äč‚Äč‚Äč‚Äč‚Äč‚Äč</text><text x="0" y="0" fill="#131300" font-size="14" dominant-baseline="text-before-edge" text-anchor="middle" transform="translate(410.31114217509395, 479) rotate(0)">3.22</text><text x="0" y="0" fill="#131300" font-size="14" dominant-baseline="text-before-edge" text-anchor="middle" transform="translate(423.45890028580374, 479) rotate(0)">‚Äč‚Äč‚Äč‚Äč‚Äč‚Äč‚Äč‚Äč‚Äč‚Äč‚Äč‚Äč‚Äč‚Äč‚Äč‚Äč‚Äč‚Äč‚Äč‚Äč‚Äč‚Äč‚Äč‚Äč‚Äč‚Äč‚Äč</text><text x="0" y="0" fill="#131300" font-size="14" dominant-baseline="text-before-edge" text-anchor="middle" transform="translate(436.6066583965136, 479) rotate(0)">‚Äč‚Äč‚Äč‚Äč‚Äč‚Äč‚Äč‚Äč‚Äč‚Äč‚Äč‚Äč‚Äč‚Äč‚Äč‚Äč‚Äč‚Äč‚Äč‚Äč‚Äč‚Äč‚Äč‚Äč‚Äč‚Äč‚Äč‚Äč</text><text x="0" y="0" fill="#131300" font-size="14" dominant-baseline="text-before-edge" text-anchor="middle" transform="translate(449.75441650722337, 479) rotate(0)">‚Äč‚Äč‚Äč‚Äč‚Äč‚Äč‚Äč‚Äč‚Äč‚Äč‚Äč‚Äč‚Äč‚Äč‚Äč‚Äč‚Äč‚Äč‚Äč‚Äč‚Äč‚Äč‚Äč‚Äč‚Äč‚Äč‚Äč‚Äč‚Äč</text><text x="0" y="0" fill="#131300" font-size="14" dominant-baseline="text-before-edge" text-anchor="middle" transform="translate(462.9021746179332, 479) rotate(0)">‚Äč‚Äč‚Äč‚Äč‚Äč‚Äč‚Äč‚Äč‚Äč‚Äč‚Äč‚Äč‚Äč‚Äč‚Äč‚Äč‚Äč‚Äč‚Äč‚Äč‚Äč‚Äč‚Äč‚Äč‚Äč‚Äč‚Äč‚Äč‚Äč‚Äč</text><text x="0" y="0" fill="#131300" font-size="14" dominant-baseline="text-before-edge" text-anchor="middle" transform="translate(476.049932728643, 479) rotate(0)">‚Äč‚Äč‚Äč‚Äč‚Äč‚Äč‚Äč‚Äč‚Äč‚Äč‚Äč‚Äč‚Äč‚Äč‚Äč‚Äč‚Äč‚Äč‚Äč‚Äč‚Äč‚Äč‚Äč‚Äč‚Äč‚Äč‚Äč‚Äč‚Äč‚Äč‚Äč</text><text x="0" y="0" fill="#131300" font-size="14" dominant-baseline="text-before-edge" text-anchor="middle" transform="translate(489.19769083935284, 479) rotate(0)">‚Äč‚Äč‚Äč‚Äč‚Äč‚Äč‚Äč‚Äč‚Äč‚Äč‚Äč‚Äč‚Äč‚Äč‚Äč‚Äč‚Äč‚Äč‚Äč‚Äč‚Äč‚Äč‚Äč‚Äč‚Äč‚Äč‚Äč‚Äč‚Äč‚Äč‚Äč‚Äč</text><text x="0" y="0" fill="#131300" font-size="14" dominant-baseline="text-before-edge" text-anchor="middle" transform="translate(502.34544895006263, 479) rotate(0)">3.29</text><text x="0" y="0" fill="#131300" font-size="14" dominant-baseline="text-before-edge" text-anchor="middle" transform="translate(515.4932070607724, 479) rotate(0)">‚Äč‚Äč‚Äč‚Äč‚Äč‚Äč‚Äč‚Äč‚Äč‚Äč‚Äč‚Äč‚Äč‚Äč‚Äč‚Äč‚Äč‚Äč‚Äč‚Äč‚Äč‚Äč‚Äč‚Äč‚Äč‚Äč‚Äč‚Äč‚Äč‚Äč‚Äč‚Äč‚Äč‚Äč</text><text x="0" y="0" fill="#131300" font-size="14" dominant-baseline="text-before-edge" text-anchor="middle" transform="translate(528.6409651714823, 479) rotate(0)">‚Äč‚Äč‚Äč‚Äč‚Äč‚Äč‚Äč‚Äč‚Äč‚Äč‚Äč‚Äč‚Äč‚Äč‚Äč‚Äč‚Äč‚Äč‚Äč‚Äč‚Äč‚Äč‚Äč‚Äč‚Äč‚Äč‚Äč‚Äč‚Äč‚Äč‚Äč‚Äč‚Äč‚Äč‚Äč</text><text x="0" y="0" fill="#131300" font-size="14" dominant-baseline="text-before-edge" text-anchor="middle" transform="translate(541.788723282192, 479) rotate(0)">4.1</text><text x="0" y="0" fill="#131300" font-size="14" dominant-baseline="text-before-edge" text-anchor="middle" transform="translate(554.9364813929019, 479) rotate(0)">‚Äč‚Äč‚Äč‚Äč‚Äč‚Äč‚Äč‚Äč‚Äč‚Äč‚Äč‚Äč‚Äč‚Äč‚Äč‚Äč‚Äč‚Äč‚Äč‚Äč‚Äč‚Äč‚Äč‚Äč‚Äč‚Äč‚Äč‚Äč‚Äč‚Äč‚Äč‚Äč‚Äč‚Äč‚Äč‚Äč‚Äč</text><text x="0" y="0" fill="#131300" font-size="14" dominant-baseline="text-before-edge" text-anchor="middle" transform="translate(568.0842395036117, 479) rotate(0)">‚Äč‚Äč‚Äč‚Äč‚Äč‚Äč‚Äč‚Äč‚Äč‚Äč‚Äč‚Äč‚Äč‚Äč‚Äč‚Äč‚Äč‚Äč‚Äč‚Äč‚Äč‚Äč‚Äč‚Äč‚Äč‚Äč‚Äč‚Äč‚Äč‚Äč‚Äč‚Äč‚Äč‚Äč‚Äč‚Äč‚Äč‚Äč</text><text x="0" y="0" fill="#131300" font-size="14" dominant-baseline="text-before-edge" text-anchor="middle" transform="translate(581.2319976143215, 479) rotate(0)">‚Äč‚Äč‚Äč‚Äč‚Äč‚Äč‚Äč‚Äč‚Äč‚Äč‚Äč‚Äč‚Äč‚Äč‚Äč‚Äč‚Äč‚Äč‚Äč‚Äč‚Äč‚Äč‚Äč‚Äč‚Äč‚Äč‚Äč‚Äč‚Äč‚Äč‚Äč‚Äč‚Äč‚Äč‚Äč‚Äč‚Äč‚Äč‚Äč</text><text x="0" y="0" fill="#131300" font-size="14" dominant-baseline="text-before-edge" text-anchor="middle" transform="translate(594.3797557250314, 479) rotate(0)">‚Äč‚Äč‚Äč‚Äč‚Äč‚Äč‚Äč‚Äč‚Äč‚Äč‚Äč‚Äč‚Äč‚Äč‚Äč‚Äč‚Äč‚Äč‚Äč‚Äč‚Äč‚Äč‚Äč‚Äč‚Äč‚Äč‚Äč‚Äč‚Äč‚Äč‚Äč‚Äč‚Äč‚Äč‚Äč‚Äč‚Äč‚Äč‚Äč‚Äč</text><text x="0" y="0" fill="#131300" font-size="14" dominant-baseline="text-before-edge" text-anchor="middle" transform="translate(607.5275138357412, 479) rotate(0)">‚Äč‚Äč‚Äč‚Äč‚Äč‚Äč‚Äč‚Äč‚Äč‚Äč‚Äč‚Äč‚Äč‚Äč‚Äč‚Äč‚Äč‚Äč‚Äč‚Äč‚Äč‚Äč‚Äč‚Äč‚Äč‚Äč‚Äč‚Äč‚Äč‚Äč‚Äč‚Äč‚Äč‚Äč‚Äč‚Äč‚Äč‚Äč‚Äč‚Äč‚Äč</text><text x="0" y="0" fill="#131300" font-size="14" dominant-baseline="text-before-edge" text-anchor="middle" transform="translate(620.675271946451, 479) rotate(0)">‚Äč‚Äč‚Äč‚Äč‚Äč‚Äč‚Äč‚Äč‚Äč‚Äč‚Äč‚Äč‚Äč‚Äč‚Äč‚Äč‚Äč‚Äč‚Äč‚Äč‚Äč‚Äč‚Äč‚Äč‚Äč‚Äč‚Äč‚Äč‚Äč‚Äč‚Äč‚Äč‚Äč‚Äč‚Äč‚Äč‚Äč‚Äč‚Äč‚Äč‚Äč‚Äč</text><text x="0" y="0" fill="#131300" font-size="14" dominant-baseline="text-before-edge" text-anchor="middle" transform="translate(633.8230300571607, 479) rotate(0)">4.8</text><text x="0" y="0" fill="#131300" font-size="14" dominant-baseline="text-before-edge" text-anchor="middle" transform="translate(646.9707881678705, 479) rotate(0)">‚Äč‚Äč‚Äč‚Äč‚Äč‚Äč‚Äč‚Äč‚Äč‚Äč‚Äč‚Äč‚Äč‚Äč‚Äč‚Äč‚Äč‚Äč‚Äč‚Äč‚Äč‚Äč‚Äč‚Äč‚Äč‚Äč‚Äč‚Äč‚Äč‚Äč‚Äč‚Äč‚Äč‚Äč‚Äč‚Äč‚Äč‚Äč‚Äč‚Äč‚Äč‚Äč‚Äč‚Äč</text><text x="0" y="0" fill="#131300" font-size="14" dominant-baseline="text-before-edge" text-anchor="middle" transform="translate(660.1185462785804, 479) rotate(0)">‚Äč‚Äč‚Äč‚Äč‚Äč‚Äč‚Äč‚Äč‚Äč‚Äč‚Äč‚Äč‚Äč‚Äč‚Äč‚Äč‚Äč‚Äč‚Äč‚Äč‚Äč‚Äč‚Äč‚Äč‚Äč‚Äč‚Äč‚Äč‚Äč‚Äč‚Äč‚Äč‚Äč‚Äč‚Äč‚Äč‚Äč‚Äč‚Äč‚Äč‚Äč‚Äč‚Äč‚Äč‚Äč</text><text x="0" y="0" fill="#131300" font-size="14" dominant-baseline="text-before-edge" text-anchor="middle" transform="translate(673.2663043892902, 479) rotate(0)">‚Äč‚Äč‚Äč‚Äč‚Äč‚Äč‚Äč‚Äč‚Äč‚Äč‚Äč‚Äč‚Äč‚Äč‚Äč‚Äč‚Äč‚Äč‚Äč‚Äč‚Äč‚Äč‚Äč‚Äč‚Äč‚Äč‚Äč‚Äč‚Äč‚Äč‚Äč‚Äč‚Äč‚Äč‚Äč‚Äč‚Äč‚Äč‚Äč‚Äč‚Äč‚Äč‚Äč‚Äč‚Äč‚Äč</text><text x="0" y="0" fill="#131300" font-size="14" dominant-baseline="text-before-edge" text-anchor="middle" transform="translate(686.4140625, 479) rotate(0)">4.12</text></g><g class="ticks"><path d="M 81.61718940734863,469 L 81.61718940734863,474" fill="none" stroke="#131300" stroke-width="2"/><path d="M 94.76494751805845,469 L 94.76494751805845,474" fill="none" stroke="#131300" stroke-width="2"/><path d="M 107.91270562876826,469 L 107.91270562876826,474" fill="none" stroke="#131300" stroke-width="2"/><path d="M 121.06046373947807,469 L 121.06046373947807,474" fill="none" stroke="#131300" stroke-width="2"/><path d="M 134.2082218501879,469 L 134.2082218501879,474" fill="none" stroke="#131300" stroke-width="2"/><path d="M 147.35597996089768,469 L 147.35597996089768,474" fill="none" stroke="#131300" stroke-width="2"/><path d="M 160.5037380716075,469 L 160.5037380716075,474" fill="none" stroke="#131300" stroke-width="2"/><path d="M 173.65149618231732,469 L 173.65149618231732,474" fill="none" stroke="#131300" stroke-width="2"/><path d="M 186.79925429302713,469 L 186.79925429302713,474" fill="none" stroke="#131300" stroke-width="2"/><path d="M 199.94701240373695,469 L 199.94701240373695,474" fill="none" stroke="#131300" stroke-width="2"/><path d="M 213.09477051444676,469 L 213.09477051444676,474" fill="none" stroke="#131300" stroke-width="2"/><path d="M 226.24252862515658,469 L 226.24252862515658,474" fill="none" stroke="#131300" stroke-width="2"/><path d="M 239.39028673586637,469 L 239.39028673586637,474" fill="none" stroke="#131300" stroke-width="2"/><path d="M 252.53804484657618,469 L 252.53804484657618,474" fill="none" stroke="#131300" stroke-width="2"/><path d="M 265.685802957286,469 L 265.685802957286,474" fill="none" stroke="#131300" stroke-width="2"/><path d="M 278.8335610679958,469 L 278.8335610679958,474" fill="none" stroke="#131300" stroke-width="2"/><path d="M 291.98131917870563,469 L 291.98131917870563,474" fill="none" stroke="#131300" stroke-width="2"/><path d="M 305.1290772894155,469 L 305.1290772894155,474" fill="none" stroke="#131300" stroke-width="2"/><path d="M 318.27683540012526,469 L 318.27683540012526,474" fill="none" stroke="#131300" stroke-width="2"/><path d="M 331.42459351083505,469 L 331.42459351083505,474" fill="none" stroke="#131300" stroke-width="2"/><path d="M 344.5723516215449,469 L 344.5723516215449,474" fill="none" stroke="#131300" stroke-width="2"/><path d="M 357.7201097322547,469 L 357.7201097322547,474" fill="none" stroke="#131300" stroke-width="2"/><path d="M 370.86786784296453,469 L 370.86786784296453,474" fill="none" stroke="#131300" stroke-width="2"/><path d="M 384.0156259536743,469 L 384.0156259536743,474" fill="none" stroke="#131300" stroke-width="2"/><path d="M 397.1633840643841,469 L 397.1633840643841,474" fill="none" stroke="#131300" stroke-width="2"/><path d="M 410.31114217509395,469 L 410.31114217509395,474" fill="none" stroke="#131300" stroke-width="2"/><path d="M 423.45890028580374,469 L 423.45890028580374,474" fill="none" stroke="#131300" stroke-width="2"/><path d="M 436.6066583965136,469 L 436.6066583965136,474" fill="none" stroke="#131300" stroke-width="2"/><path d="M 449.75441650722337,469 L 449.75441650722337,474" fill="none" stroke="#131300" stroke-width="2"/><path d="M 462.9021746179332,469 L 462.9021746179332,474" fill="none" stroke="#131300" stroke-width="2"/><path d="M 476.049932728643,469 L 476.049932728643,474" fill="none" stroke="#131300" stroke-width="2"/><path d="M 489.19769083935284,469 L 489.19769083935284,474" fill="none" stroke="#131300" stroke-width="2"/><path d="M 502.34544895006263,469 L 502.34544895006263,474" fill="none" stroke="#131300" stroke-width="2"/><path d="M 515.4932070607724,469 L 515.4932070607724,474" fill="none" stroke="#131300" stroke-width="2"/><path d="M 528.6409651714823,469 L 528.6409651714823,474" fill="none" stroke="#131300" stroke-width="2"/><path d="M 541.788723282192,469 L 541.788723282192,474" fill="none" stroke="#131300" stroke-width="2"/><path d="M 554.9364813929019,469 L 554.9364813929019,474" fill="none" stroke="#131300" stroke-width="2"/><path d="M 568.0842395036117,469 L 568.0842395036117,474" fill="none" stroke="#131300" stroke-width="2"/><path d="M 581.2319976143215,469 L 581.2319976143215,474" fill="none" stroke="#131300" stroke-width="2"/><path d="M 594.3797557250314,469 L 594.3797557250314,474" fill="none" stroke="#131300" stroke-width="2"/><path d="M 607.5275138357412,469 L 607.5275138357412,474" fill="none" stroke="#131300" stroke-width="2"/><path d="M 620.675271946451,469 L 620.675271946451,474" fill="none" stroke="#131300" stroke-width="2"/><path d="M 633.8230300571607,469 L 633.8230300571607,474" fill="none" stroke="#131300" stroke-width="2"/><path d="M 646.9707881678705,469 L 646.9707881678705,474" fill="none" stroke="#131300" stroke-width="2"/><path d="M 660.1185462785804,469 L 660.1185462785804,474" fill="none" stroke="#131300" stroke-width="2"/><path d="M 673.2663043892902,469 L 673.2663043892902,474" fill="none" stroke="#131300" stroke-width="2"/><path d="M 686.4140625,469 L 686.4140625,474" fill="none" stroke="#131300" stroke-width="2"/></g></g><g class="left-axis"><g class="axisl-line"><path d="M 67.03125190734863,43.1796875 L 67.03125190734863,467" fill="none" stroke="#131300" stroke-width="2"/></g><g class="label"><text x="0" y="0" fill="#131300" font-size="14" dominant-baseline="middle" text-anchor="end" transform="translate(56.03125190734863, 51.1796875) rotate(0)">300</text><text x="0" y="0" fill="#131300" font-size="14" dominant-baseline="middle" text-anchor="end" transform="translate(56.03125190734863, 78.36770833333333) rotate(0)">280</text><text x="0" y="0" fill="#131300" font-size="14" dominant-baseline="middle" text-anchor="end" transform="translate(56.03125190734863, 105.55572916666665) rotate(0)">260</text><text x="0" y="0" fill="#131300" font-size="14" dominant-baseline="middle" text-anchor="end" transform="translate(56.03125190734863, 132.74374999999998) rotate(0)">240</text><text x="0" y="0" fill="#131300" font-size="14" dominant-baseline="middle" text-anchor="end" transform="translate(56.03125190734863, 159.93177083333336) rotate(0)">220</text><text x="0" y="0" fill="#131300" font-size="14" dominant-baseline="middle" text-anchor="end" transform="translate(56.03125190734863, 187.11979166666669) rotate(0)">200</text><text x="0" y="0" fill="#131300" font-size="14" dominant-baseline="middle" text-anchor="end" transform="translate(56.03125190734863, 214.3078125) rotate(0)">180</text><text x="0" y="0" fill="#131300" font-size="14" dominant-baseline="middle" text-anchor="end" transform="translate(56.03125190734863, 241.49583333333334) rotate(0)">160</text><text x="0" y="0" fill="#131300" font-size="14" dominant-baseline="middle" text-anchor="end" transform="translate(56.03125190734863, 268.68385416666666) rotate(0)">140</text><text x="0" y="0" fill="#131300" font-size="14" dominant-baseline="middle" text-anchor="end" transform="translate(56.03125190734863, 295.871875) rotate(0)">120</text><text x="0" y="0" fill="#131300" font-size="14" dominant-baseline="middle" text-anchor="end" transform="translate(56.03125190734863, 323.05989583333337) rotate(0)">100</text><text x="0" y="0" fill="#131300" font-size="14" dominant-baseline="middle" text-anchor="end" transform="translate(56.03125190734863, 350.2479166666667) rotate(0)">80</text><text x="0" y="0" fill="#131300" font-size="14" dominant-baseline="middle" text-anchor="end" transform="translate(56.03125190734863, 377.4359375) rotate(0)">60</text><text x="0" y="0" fill="#131300" font-size="14" dominant-baseline="middle" text-anchor="end" transform="translate(56.03125190734863, 404.62395833333335) rotate(0)">40</text><text x="0" y="0" fill="#131300" font-size="14" dominant-baseline="middle" text-anchor="end" transform="translate(56.03125190734863, 431.8119791666667) rotate(0)">20</text><text x="0" y="0" fill="#131300" font-size="14" dominant-baseline="middle" text-anchor="end" transform="translate(56.03125190734863, 459) rotate(0)">0</text></g><g class="ticks"><path d="M 66.03125190734863,51.1796875 L 61.03125190734863,51.1796875" fill="none" stroke="#131300" stroke-width="2"/><path d="M 66.03125190734863,78.36770833333333 L 61.03125190734863,78.36770833333333" fill="none" stroke="#131300" stroke-width="2"/><path d="M 66.03125190734863,105.55572916666665 L 61.03125190734863,105.55572916666665" fill="none" stroke="#131300" stroke-width="2"/><path d="M 66.03125190734863,132.74374999999998 L 61.03125190734863,132.74374999999998" fill="none" stroke="#131300" stroke-width="2"/><path d="M 66.03125190734863,159.93177083333336 L 61.03125190734863,159.93177083333336" fill="none" stroke="#131300" stroke-width="2"/><path d="M 66.03125190734863,187.11979166666669 L 61.03125190734863,187.11979166666669" fill="none" stroke="#131300" stroke-width="2"/><path d="M 66.03125190734863,214.3078125 L 61.03125190734863,214.3078125" fill="none" stroke="#131300" stroke-width="2"/><path d="M 66.03125190734863,241.49583333333334 L 61.03125190734863,241.49583333333334" fill="none" stroke="#131300" stroke-width="2"/><path d="M 66.03125190734863,268.68385416666666 L 61.03125190734863,268.68385416666666" fill="none" stroke="#131300" stroke-width="2"/><path d="M 66.03125190734863,295.871875 L 61.03125190734863,295.871875" fill="none" stroke="#131300" stroke-width="2"/><path d="M 66.03125190734863,323.05989583333337 L 61.03125190734863,323.05989583333337" fill="none" stroke="#131300" stroke-width="2"/><path d="M 66.03125190734863,350.2479166666667 L 61.03125190734863,350.2479166666667" fill="none" stroke="#131300" stroke-width="2"/><path d="M 66.03125190734863,377.4359375 L 61.03125190734863,377.4359375" fill="none" stroke="#131300" stroke-width="2"/><path d="M 66.03125190734863,404.62395833333335 L 61.03125190734863,404.62395833333335" fill="none" stroke="#131300" stroke-width="2"/><path d="M 66.03125190734863,431.8119791666667 L 61.03125190734863,431.8119791666667" fill="none" stroke="#131300" stroke-width="2"/><path d="M 66.03125190734863,459 L 61.03125190734863,459" fill="none" stroke="#131300" stroke-width="2"/></g><g class="title"><text x="0" y="0" fill="#131300" font-size="16" dominant-baseline="text-before-edge" text-anchor="middle" transform="translate(5, 255.08984375) rotate(270)">Members</text></g></g></g><g class="mermaid-tmp-group"/></svg>