<svg id="my-svg" width="100%" xmlns="http://www.w3.org/2000/svg" xmlns:xlink="http://www.w3.org/1999/xlink" style="max-width: 700px; background-color: white;" viewBox="0 0 700 500" role="graphics-document document" aria-roledescription="xychart"><style>#my-svg{font-family:"trebuchet ms",verdana,arial,sans-serif;font-size:16px;fill:#333;}@keyframes edge-animation-frame{from{stroke-dashoffset:0;}}@keyframes dash{to{stroke-dashoffset:0;}}#my-svg .edge-animation-slow{stroke-dasharray:9,5!important;stroke-dashoffset:900;animation:dash 50s linear infinite;stroke-linecap:round;}#my-svg .edge-animation-fast{stroke-dasharray:9,5!important;stroke-dashoffset:900;animation:dash 20s linear infinite;stroke-linecap:round;}#my-svg .error-icon{fill:#552222;}#my-svg .error-text{fill:#552222;stroke:#552222;}#my-svg .edge-thickness-normal{stroke-width:1px;}#my-svg .edge-thickness-thick{stroke-width:3.5px;}#my-svg .edge-pattern-solid{stroke-dasharray:0;}#my-svg .edge-thickness-invisible{stroke-width:0;fill:none;}#my-svg .edge-pattern-dashed{stroke-dasharray:3;}#my-svg .edge-pattern-dotted{stroke-dasharray:2;}#my-svg .marker{fill:#333333;stroke:#333333;}#my-svg .marker.cross{stroke:#333333;}#my-svg svg{font-family:"trebuchet ms",verdana,arial,sans-serif;font-size:16px;}#my-svg p{margin:0;}#my-svg :root{--mermaid-font-family:"trebuchet ms",verdana,arial,sans-serif;}</style><g/><g class="main"><rect width="700" height="500" class="background" fill="white"/><g class="chart-title"><text x="0" y="0" fill="#131300" font-size="20" dominant-baseline="middle" text-anchor="middle" transform="translate(350, 21.58984375) rotate(0)">Daily Cumulative Member Tally (2026) - Full Scale</text></g><g class="plot"><g class="bar-plot-0"><rect x="70.12604881858826" y="197.05387620192306" width="22.98228117752075" height="269.94612379807694" fill="#ECECFF" stroke="#ECECFF" stroke-width="0"/><rect x="95.32591853078206" y="192.34825721153845" width="22.98228117752075" height="274.65174278846155" fill="#ECECFF" stroke="#ECECFF" stroke-width="0"/><rect x="120.52578824297586" y="187.64263822115387" width="22.98228117752075" height="279.3573617788461" fill="#ECECFF" stroke="#ECECFF" stroke-width="0"/><rect x="145.72565795516968" y="184.50555889423077" width="22.98228117752075" height="282.4944411057692" fill="#ECECFF" stroke="#ECECFF" stroke-width="0"/><rect x="170.92552766736347" y="175.09432091346156" width="22.98228117752075" height="291.90567908653844" fill="#ECECFF" stroke="#ECECFF" stroke-width="0"/><rect x="196.12539737955728" y="171.95724158653846" width="22.98228117752075" height="295.04275841346157" fill="#ECECFF" stroke="#ECECFF" stroke-width="0"/><rect x="221.3252670917511" y="171.95724158653846" width="22.98228117752075" height="295.04275841346157" fill="#ECECFF" stroke="#ECECFF" stroke-width="0"/><rect x="246.5251368039449" y="167.25162259615385" width="22.98228117752075" height="299.7483774038461" fill="#ECECFF" stroke="#ECECFF" stroke-width="0"/><rect x="271.72500651613865" y="165.68308293269232" width="22.98228117752075" height="301.3169170673077" fill="#ECECFF" stroke="#ECECFF" stroke-width="0"/><rect x="296.9248762283325" y="160.9774639423077" width="22.98228117752075" height="306.02253605769226" fill="#ECECFF" stroke="#ECECFF" stroke-width="0"/><rect x="322.1247459405263" y="151.56622596153846" width="22.98228117752075" height="315.43377403846154" fill="#ECECFF" stroke="#ECECFF" stroke-width="0"/><rect x="347.32461565272007" y="140.58644831730768" width="22.98228117752075" height="326.4135516826923" fill="#ECECFF" stroke="#ECECFF" stroke-width="0"/><rect x="372.5244853649139" y="128.03813100961537" width="22.98228117752075" height="338.96186899038463" fill="#ECECFF" stroke="#ECECFF" stroke-width="0"/><rect x="397.7243550771077" y="123.33251201923079" width="22.98228117752075" height="343.66748798076924" fill="#ECECFF" stroke="#ECECFF" stroke-width="0"/><rect x="422.9242247893015" y="118.62689302884613" width="22.98228117752075" height="348.3731069711539" fill="#ECECFF" stroke="#ECECFF" stroke-width="0"/><rect x="448.12409450149534" y="118.62689302884613" width="22.98228117752075" height="348.3731069711539" fill="#ECECFF" stroke="#ECECFF" stroke-width="0"/><rect x="473.3239642136891" y="118.62689302884613" width="22.98228117752075" height="348.3731069711539" fill="#ECECFF" stroke="#ECECFF" stroke-width="0"/><rect x="498.5238339258829" y="113.92127403846153" width="22.98228117752075" height="353.07872596153845" fill="#ECECFF" stroke="#ECECFF" stroke-width="0"/><rect x="523.7237036380768" y="106.07857572115384" width="22.98228117752075" height="360.9214242788462" fill="#ECECFF" stroke="#ECECFF" stroke-width="0"/><rect x="548.9235733502705" y="96.66733774038464" width="22.98228117752075" height="370.33266225961535" fill="#ECECFF" stroke="#ECECFF" stroke-width="0"/><rect x="574.1234430624644" y="91.96171874999999" width="22.98228117752075" height="375.03828125" fill="#ECECFF" stroke="#ECECFF" stroke-width="0"/><rect x="599.3233127746582" y="87.2560997596154" width="22.98228117752075" height="379.7439002403846" fill="#ECECFF" stroke="#ECECFF" stroke-width="0"/><rect x="624.523182486852" y="82.55048076923075" width="22.98228117752075" height="384.4495192307693" fill="#ECECFF" stroke="#ECECFF" stroke-width="0"/><rect x="649.7230521990458" y="82.55048076923075" width="22.98228117752075" height="384.4495192307693" fill="#ECECFF" stroke="#ECECFF" stroke-width="0"/><rect x="674.9229219112397" y="76.27632211538462" width="22.98228117752075" height="390.72367788461537" fill="#ECECFF" stroke="#ECECFF" stroke-width="0"/></g></g><g class="bottom-axis"><g class="axis-line"><path d="M 68.03125190734863,468 L 700,468" fill="none" stroke="#131300" stroke-width="2"/></g><g class="label"><text x="0" y="0" fill="#131300" font-size="14" dominant-baseline="text-before-edge" text-anchor="middle" transform="translate(81.61718940734863, 479) rotate(0)">2.25</text><text x="0" y="0" fill="#131300" font-size="14" dominant-baseline="text-before-edge" text-anchor="middle" transform="translate(106.81705911954244, 479) rotate(0)">26</text><text x="0" y="0" fill="#131300" font-size="14" dominant-baseline="text-before-edge" text-anchor="middle" transform="translate(132.01692883173624, 479) rotate(0)">27</text><text x="0" y="0" fill="#131300" font-size="14" dominant-baseline="text-before-edge" text-anchor="middle" transform="translate(157.21679854393005, 479) rotate(0)">28</text><text x="0" y="0" fill="#131300" font-size="14" dominant-baseline="text-before-edge" text-anchor="middle" transform="translate(182.41666825612384, 479) rotate(0)">3.1</text><text x="0" y="0" fill="#131300" font-size="14" dominant-baseline="text-before-edge" text-anchor="middle" transform="translate(207.61653796831766, 479) rotate(0)">2</text><text x="0" y="0" fill="#131300" font-size="14" dominant-baseline="text-before-edge" text-anchor="middle" transform="translate(232.81640768051147, 479) rotate(0)">3</text><text x="0" y="0" fill="#131300" font-size="14" dominant-baseline="text-before-edge" text-anchor="middle" transform="translate(258.01627739270526, 479) rotate(0)">4</text><text x="0" y="0" fill="#131300" font-size="14" dominant-baseline="text-before-edge" text-anchor="middle" transform="translate(283.21614710489905, 479) rotate(0)">5</text><text x="0" y="0" fill="#131300" font-size="14" dominant-baseline="text-before-edge" text-anchor="middle" transform="translate(308.4160168170929, 479) rotate(0)">6</text><text x="0" y="0" fill="#131300" font-size="14" dominant-baseline="text-before-edge" text-anchor="middle" transform="translate(333.6158865292867, 479) rotate(0)">7</text><text x="0" y="0" fill="#131300" font-size="14" dominant-baseline="text-before-edge" text-anchor="middle" transform="translate(358.81575624148047, 479) rotate(0)">8</text><text x="0" y="0" fill="#131300" font-size="14" dominant-baseline="text-before-edge" text-anchor="middle" transform="translate(384.0156259536743, 479) rotate(0)">9</text><text x="0" y="0" fill="#131300" font-size="14" dominant-baseline="text-before-edge" text-anchor="middle" transform="translate(409.2154956658681, 479) rotate(0)">10</text><text x="0" y="0" fill="#131300" font-size="14" dominant-baseline="text-before-edge" text-anchor="middle" transform="translate(434.4153653780619, 479) rotate(0)">11</text><text x="0" y="0" fill="#131300" font-size="14" dominant-baseline="text-before-edge" text-anchor="middle" transform="translate(459.61523509025574, 479) rotate(0)">12</text><text x="0" y="0" fill="#131300" font-size="14" dominant-baseline="text-before-edge" text-anchor="middle" transform="translate(484.8151048024495, 479) rotate(0)">13</text><text x="0" y="0" fill="#131300" font-size="14" dominant-baseline="text-before-edge" text-anchor="middle" transform="translate(510.0149745146433, 479) rotate(0)">14</text><text x="0" y="0" fill="#131300" font-size="14" dominant-baseline="text-before-edge" text-anchor="middle" transform="translate(535.2148442268372, 479) rotate(0)">15</text><text x="0" y="0" fill="#131300" font-size="14" dominant-baseline="text-before-edge" text-anchor="middle" transform="translate(560.4147139390309, 479) rotate(0)">16</text><text x="0" y="0" fill="#131300" font-size="14" dominant-baseline="text-before-edge" text-anchor="middle" transform="translate(585.6145836512247, 479) rotate(0)">17</text><text x="0" y="0" fill="#131300" font-size="14" dominant-baseline="text-before-edge" text-anchor="middle" transform="translate(610.8144533634186, 479) rotate(0)">18</text><text x="0" y="0" fill="#131300" font-size="14" dominant-baseline="text-before-edge" text-anchor="middle" transform="translate(636.0143230756123, 479) rotate(0)">19</text><text x="0" y="0" fill="#131300" font-size="14" dominant-baseline="text-before-edge" text-anchor="middle" transform="translate(661.2141927878062, 479) rotate(0)">20</text><text x="0" y="0" fill="#131300" font-size="14" dominant-baseline="text-before-edge" text-anchor="middle" transform="translate(686.4140625, 479) rotate(0)">21</text></g><g class="ticks"><path d="M 81.61718940734863,469 L 81.61718940734863,474" fill="none" stroke="#131300" stroke-width="2"/><path d="M 106.81705911954244,469 L 106.81705911954244,474" fill="none" stroke="#131300" stroke-width="2"/><path d="M 132.01692883173624,469 L 132.01692883173624,474" fill="none" stroke="#131300" stroke-width="2"/><path d="M 157.21679854393005,469 L 157.21679854393005,474" fill="none" stroke="#131300" stroke-width="2"/><path d="M 182.41666825612384,469 L 182.41666825612384,474" fill="none" stroke="#131300" stroke-width="2"/><path d="M 207.61653796831766,469 L 207.61653796831766,474" fill="none" stroke="#131300" stroke-width="2"/><path d="M 232.81640768051147,469 L 232.81640768051147,474" fill="none" stroke="#131300" stroke-width="2"/><path d="M 258.01627739270526,469 L 258.01627739270526,474" fill="none" stroke="#131300" stroke-width="2"/><path d="M 283.21614710489905,469 L 283.21614710489905,474" fill="none" stroke="#131300" stroke-width="2"/><path d="M 308.4160168170929,469 L 308.4160168170929,474" fill="none" stroke="#131300" stroke-width="2"/><path d="M 333.6158865292867,469 L 333.6158865292867,474" fill="none" stroke="#131300" stroke-width="2"/><path d="M 358.81575624148047,469 L 358.81575624148047,474" fill="none" stroke="#131300" stroke-width="2"/><path d="M 384.0156259536743,469 L 384.0156259536743,474" fill="none" stroke="#131300" stroke-width="2"/><path d="M 409.2154956658681,469 L 409.2154956658681,474" fill="none" stroke="#131300" stroke-width="2"/><path d="M 434.4153653780619,469 L 434.4153653780619,474" fill="none" stroke="#131300" stroke-width="2"/><path d="M 459.61523509025574,469 L 459.61523509025574,474" fill="none" stroke="#131300" stroke-width="2"/><path d="M 484.8151048024495,469 L 484.8151048024495,474" fill="none" stroke="#131300" stroke-width="2"/><path d="M 510.0149745146433,469 L 510.0149745146433,474" fill="none" stroke="#131300" stroke-width="2"/><path d="M 535.2148442268372,469 L 535.2148442268372,474" fill="none" stroke="#131300" stroke-width="2"/><path d="M 560.4147139390309,469 L 560.4147139390309,474" fill="none" stroke="#131300" stroke-width="2"/><path d="M 585.6145836512247,469 L 585.6145836512247,474" fill="none" stroke="#131300" stroke-width="2"/><path d="M 610.8144533634186,469 L 610.8144533634186,474" fill="none" stroke="#131300" stroke-width="2"/><path d="M 636.0143230756123,469 L 636.0143230756123,474" fill="none" stroke="#131300" stroke-width="2"/><path d="M 661.2141927878062,469 L 661.2141927878062,474" fill="none" stroke="#131300" stroke-width="2"/><path d="M 686.4140625,469 L 686.4140625,474" fill="none" stroke="#131300" stroke-width="2"/></g></g><g class="left-axis"><g class="axisl-line"><path d="M 67.03125190734863,43.1796875 L 67.03125190734863,467" fill="none" stroke="#131300" stroke-width="2"/></g><g class="label"><text x="0" y="0" fill="#131300" font-size="14" dominant-baseline="middle" text-anchor="end" transform="translate(56.03125190734863, 51.1796875) rotate(0)">260</text><text x="0" y="0" fill="#131300" font-size="14" dominant-baseline="middle" text-anchor="end" transform="translate(56.03125190734863, 82.55048076923075) rotate(0)">240</text><text x="0" y="0" fill="#131300" font-size="14" dominant-baseline="middle" text-anchor="end" transform="translate(56.03125190734863, 113.92127403846153) rotate(0)">220</text><text x="0" y="0" fill="#131300" font-size="14" dominant-baseline="middle" text-anchor="end" transform="translate(56.03125190734863, 145.2920673076923) rotate(0)">200</text><text x="0" y="0" fill="#131300" font-size="14" dominant-baseline="middle" text-anchor="end" transform="translate(56.03125190734863, 176.66286057692307) rotate(0)">180</text><text x="0" y="0" fill="#131300" font-size="14" dominant-baseline="middle" text-anchor="end" transform="translate(56.03125190734863, 208.03365384615384) rotate(0)">160</text><text x="0" y="0" fill="#131300" font-size="14" dominant-baseline="middle" text-anchor="end" transform="translate(56.03125190734863, 239.40444711538464) rotate(0)">140</text><text x="0" y="0" fill="#131300" font-size="14" dominant-baseline="middle" text-anchor="end" transform="translate(56.03125190734863, 270.77524038461536) rotate(0)">120</text><text x="0" y="0" fill="#131300" font-size="14" dominant-baseline="middle" text-anchor="end" transform="translate(56.03125190734863, 302.14603365384613) rotate(0)">100</text><text x="0" y="0" fill="#131300" font-size="14" dominant-baseline="middle" text-anchor="end" transform="translate(56.03125190734863, 333.5168269230769) rotate(0)">80</text><text x="0" y="0" fill="#131300" font-size="14" dominant-baseline="middle" text-anchor="end" transform="translate(56.03125190734863, 364.8876201923077) rotate(0)">60</text><text x="0" y="0" fill="#131300" font-size="14" dominant-baseline="middle" text-anchor="end" transform="translate(56.03125190734863, 396.25841346153845) rotate(0)">40</text><text x="0" y="0" fill="#131300" font-size="14" dominant-baseline="middle" text-anchor="end" transform="translate(56.03125190734863, 427.6292067307693) rotate(0)">20</text><text x="0" y="0" fill="#131300" font-size="14" dominant-baseline="middle" text-anchor="end" transform="translate(56.03125190734863, 459) rotate(0)">0</text></g><g class="ticks"><path d="M 66.03125190734863,51.1796875 L 61.03125190734863,51.1796875" fill="none" stroke="#131300" stroke-width="2"/><path d="M 66.03125190734863,82.55048076923075 L 61.03125190734863,82.55048076923075" fill="none" stroke="#131300" stroke-width="2"/><path d="M 66.03125190734863,113.92127403846153 L 61.03125190734863,113.92127403846153" fill="none" stroke="#131300" stroke-width="2"/><path d="M 66.03125190734863,145.2920673076923 L 61.03125190734863,145.2920673076923" fill="none" stroke="#131300" stroke-width="2"/><path d="M 66.03125190734863,176.66286057692307 L 61.03125190734863,176.66286057692307" fill="none" stroke="#131300" stroke-width="2"/><path d="M 66.03125190734863,208.03365384615384 L 61.03125190734863,208.03365384615384" fill="none" stroke="#131300" stroke-width="2"/><path d="M 66.03125190734863,239.40444711538464 L 61.03125190734863,239.40444711538464" fill="none" stroke="#131300" stroke-width="2"/><path d="M 66.03125190734863,270.77524038461536 L 61.03125190734863,270.77524038461536" fill="none" stroke="#131300" stroke-width="2"/><path d="M 66.03125190734863,302.14603365384613 L 61.03125190734863,302.14603365384613" fill="none" stroke="#131300" stroke-width="2"/><path d="M 66.03125190734863,333.5168269230769 L 61.03125190734863,333.5168269230769" fill="none" stroke="#131300" stroke-width="2"/><path d="M 66.03125190734863,364.8876201923077 L 61.03125190734863,364.8876201923077" fill="none" stroke="#131300" stroke-width="2"/><path d="M 66.03125190734863,396.25841346153845 L 61.03125190734863,396.25841346153845" fill="none" stroke="#131300" stroke-width="2"/><path d="M 66.03125190734863,427.6292067307693 L 61.03125190734863,427.6292067307693" fill="none" stroke="#131300" stroke-width="2"/><path d="M 66.03125190734863,459 L 61.03125190734863,459" fill="none" stroke="#131300" stroke-width="2"/></g><g class="title"><text x="0" y="0" fill="#131300" font-size="16" dominant-baseline="text-before-edge" text-anchor="middle" transform="translate(5, 255.08984375) rotate(270)">Members</text></g></g></g><g class="mermaid-tmp-group"/></svg>