<svg id="my-svg" width="100%" xmlns="http://www.w3.org/2000/svg" xmlns:xlink="http://www.w3.org/1999/xlink" style="max-width: 700px; background-color: white;" viewBox="0 0 700 500" role="graphics-document document" aria-roledescription="xychart"><style>#my-svg{font-family:"trebuchet ms",verdana,arial,sans-serif;font-size:16px;fill:#333;}@keyframes edge-animation-frame{from{stroke-dashoffset:0;}}@keyframes dash{to{stroke-dashoffset:0;}}#my-svg .edge-animation-slow{stroke-dasharray:9,5!important;stroke-dashoffset:900;animation:dash 50s linear infinite;stroke-linecap:round;}#my-svg .edge-animation-fast{stroke-dasharray:9,5!important;stroke-dashoffset:900;animation:dash 20s linear infinite;stroke-linecap:round;}#my-svg .error-icon{fill:#552222;}#my-svg .error-text{fill:#552222;stroke:#552222;}#my-svg .edge-thickness-normal{stroke-width:1px;}#my-svg .edge-thickness-thick{stroke-width:3.5px;}#my-svg .edge-pattern-solid{stroke-dasharray:0;}#my-svg .edge-thickness-invisible{stroke-width:0;fill:none;}#my-svg .edge-pattern-dashed{stroke-dasharray:3;}#my-svg .edge-pattern-dotted{stroke-dasharray:2;}#my-svg .marker{fill:#333333;stroke:#333333;}#my-svg .marker.cross{stroke:#333333;}#my-svg svg{font-family:"trebuchet ms",verdana,arial,sans-serif;font-size:16px;}#my-svg p{margin:0;}#my-svg :root{--mermaid-font-family:"trebuchet ms",verdana,arial,sans-serif;}</style><g/><g class="main"><rect width="700" height="500" class="background" fill="white"/><g class="chart-title"><text x="0" y="0" fill="#131300" font-size="20" dominant-baseline="middle" text-anchor="middle" transform="translate(350, 21.58984375) rotate(0)">Daily Cumulative Member Tally (2026) - Full Scale</text></g><g class="plot"><g class="bar-plot-0"><rect x="74.25107364532275" y="215.76431361607143" width="14.732231524051764" height="251.23568638392857" fill="#ECECFF" stroke="#ECECFF" stroke-width="0"/><rect x="90.16678083197147" y="211.39481026785717" width="14.732231524051764" height="255.60518973214283" fill="#ECECFF" stroke="#ECECFF" stroke-width="0"/><rect x="106.08248801862018" y="207.02530691964284" width="14.732231524051764" height="259.97469308035716" fill="#ECECFF" stroke="#ECECFF" stroke-width="0"/><rect x="121.9981952052689" y="204.1123046875" width="14.732231524051764" height="262.8876953125" fill="#ECECFF" stroke="#ECECFF" stroke-width="0"/><rect x="137.91390239191762" y="195.3732979910714" width="14.732231524051764" height="271.6267020089286" fill="#ECECFF" stroke="#ECECFF" stroke-width="0"/><rect x="153.82960957856633" y="192.46029575892857" width="14.732231524051764" height="274.53970424107143" fill="#ECECFF" stroke="#ECECFF" stroke-width="0"/><rect x="169.74531676521508" y="192.46029575892857" width="14.732231524051764" height="274.53970424107143" fill="#ECECFF" stroke="#ECECFF" stroke-width="0"/><rect x="185.6610239518638" y="188.0907924107143" width="14.732231524051764" height="278.9092075892857" fill="#ECECFF" stroke="#ECECFF" stroke-width="0"/><rect x="201.5767311385125" y="186.63429129464288" width="14.732231524051764" height="280.3657087053571" fill="#ECECFF" stroke="#ECECFF" stroke-width="0"/><rect x="217.49243832516123" y="182.26478794642856" width="14.732231524051764" height="284.73521205357144" fill="#ECECFF" stroke="#ECECFF" stroke-width="0"/><rect x="233.40814551180995" y="173.52578125000002" width="14.732231524051764" height="293.47421875" fill="#ECECFF" stroke="#ECECFF" stroke-width="0"/><rect x="249.3238526984587" y="163.3302734375" width="14.732231524051764" height="303.6697265625" fill="#ECECFF" stroke="#ECECFF" stroke-width="0"/><rect x="265.23955988510744" y="151.67826450892858" width="14.732231524051764" height="315.3217354910714" fill="#ECECFF" stroke="#ECECFF" stroke-width="0"/><rect x="281.15526707175616" y="147.3087611607143" width="14.732231524051764" height="319.6912388392857" fill="#ECECFF" stroke="#ECECFF" stroke-width="0"/><rect x="297.0709742584049" y="142.9392578125" width="14.732231524051764" height="324.0607421875" fill="#ECECFF" stroke="#ECECFF" stroke-width="0"/><rect x="312.9866814450536" y="142.9392578125" width="14.732231524051764" height="324.0607421875" fill="#ECECFF" stroke="#ECECFF" stroke-width="0"/><rect x="328.9023886317023" y="142.9392578125" width="14.732231524051764" height="324.0607421875" fill="#ECECFF" stroke="#ECECFF" stroke-width="0"/><rect x="344.818095818351" y="138.56975446428572" width="14.732231524051764" height="328.4302455357143" fill="#ECECFF" stroke="#ECECFF" stroke-width="0"/><rect x="360.73380300499974" y="131.28724888392856" width="14.732231524051764" height="335.71275111607144" fill="#ECECFF" stroke="#ECECFF" stroke-width="0"/><rect x="376.64951019164846" y="122.54824218750002" width="14.732231524051764" height="344.4517578125" fill="#ECECFF" stroke="#ECECFF" stroke-width="0"/><rect x="392.5652173782972" y="118.1787388392857" width="14.732231524051764" height="348.8212611607143" fill="#ECECFF" stroke="#ECECFF" stroke-width="0"/><rect x="408.4809245649459" y="113.80923549107143" width="14.732231524051764" height="353.19076450892857" fill="#ECECFF" stroke="#ECECFF" stroke-width="0"/><rect x="424.3966317515946" y="109.43973214285717" width="14.732231524051764" height="357.56026785714283" fill="#ECECFF" stroke="#ECECFF" stroke-width="0"/><rect x="440.31233893824333" y="109.43973214285717" width="14.732231524051764" height="357.56026785714283" fill="#ECECFF" stroke="#ECECFF" stroke-width="0"/><rect x="456.2280461248921" y="103.61372767857142" width="14.732231524051764" height="363.3862723214286" fill="#ECECFF" stroke="#ECECFF" stroke-width="0"/><rect x="472.1437533115408" y="100.70072544642858" width="14.732231524051764" height="366.2992745535714" fill="#ECECFF" stroke="#ECECFF" stroke-width="0"/><rect x="488.05946049818954" y="100.70072544642858" width="14.732231524051764" height="366.2992745535714" fill="#ECECFF" stroke="#ECECFF" stroke-width="0"/><rect x="503.97516768483825" y="100.70072544642858" width="14.732231524051764" height="366.2992745535714" fill="#ECECFF" stroke="#ECECFF" stroke-width="0"/><rect x="519.890874871487" y="100.70072544642858" width="14.732231524051764" height="366.2992745535714" fill="#ECECFF" stroke="#ECECFF" stroke-width="0"/><rect x="535.8065820581357" y="100.70072544642858" width="14.732231524051764" height="366.2992745535714" fill="#ECECFF" stroke="#ECECFF" stroke-width="0"/><rect x="551.7222892447844" y="100.70072544642858" width="14.732231524051764" height="366.2992745535714" fill="#ECECFF" stroke="#ECECFF" stroke-width="0"/><rect x="567.6379964314331" y="100.70072544642858" width="14.732231524051764" height="366.2992745535714" fill="#ECECFF" stroke="#ECECFF" stroke-width="0"/><rect x="583.5537036180818" y="100.70072544642858" width="14.732231524051764" height="366.2992745535714" fill="#ECECFF" stroke="#ECECFF" stroke-width="0"/><rect x="599.4694108047306" y="100.70072544642858" width="14.732231524051764" height="366.2992745535714" fill="#ECECFF" stroke="#ECECFF" stroke-width="0"/><rect x="615.3851179913793" y="99.24422433035716" width="14.732231524051764" height="367.75577566964284" fill="#ECECFF" stroke="#ECECFF" stroke-width="0"/><rect x="631.300825178028" y="97.78772321428573" width="14.732231524051764" height="369.21227678571427" fill="#ECECFF" stroke="#ECECFF" stroke-width="0"/><rect x="647.2165323646767" y="94.87472098214283" width="14.732231524051764" height="372.12527901785717" fill="#ECECFF" stroke="#ECECFF" stroke-width="0"/><rect x="663.1322395513255" y="70.11420200892854" width="14.732231524051764" height="396.88579799107146" fill="#ECECFF" stroke="#ECECFF" stroke-width="0"/><rect x="679.0479467379741" y="70.11420200892854" width="14.732231524051764" height="396.88579799107146" fill="#ECECFF" stroke="#ECECFF" stroke-width="0"/></g></g><g class="bottom-axis"><g class="axis-line"><path d="M 68.03125190734863,468 L 700,468" fill="none" stroke="#131300" stroke-width="2"/></g><g class="label"><text x="0" y="0" fill="#131300" font-size="14" dominant-baseline="text-before-edge" text-anchor="middle" transform="translate(81.61718940734863, 479) rotate(0)">2.25</text><text x="0" y="0" fill="#131300" font-size="14" dominant-baseline="text-before-edge" text-anchor="middle" transform="translate(97.53289659399735, 479) rotate(0)">‚Äč‚Äč</text><text x="0" y="0" fill="#131300" font-size="14" dominant-baseline="text-before-edge" text-anchor="middle" transform="translate(113.44860378064607, 479) rotate(0)">‚Äč‚Äč‚Äč</text><text x="0" y="0" fill="#131300" font-size="14" dominant-baseline="text-before-edge" text-anchor="middle" transform="translate(129.36431096729478, 479) rotate(0)">‚Äč‚Äč‚Äč‚Äč</text><text x="0" y="0" fill="#131300" font-size="14" dominant-baseline="text-before-edge" text-anchor="middle" transform="translate(145.2800181539435, 479) rotate(0)">3.1</text><text x="0" y="0" fill="#131300" font-size="14" dominant-baseline="text-before-edge" text-anchor="middle" transform="translate(161.19572534059222, 479) rotate(0)">‚Äč‚Äč‚Äč‚Äč‚Äč‚Äč</text><text x="0" y="0" fill="#131300" font-size="14" dominant-baseline="text-before-edge" text-anchor="middle" transform="translate(177.11143252724096, 479) rotate(0)">‚Äč‚Äč‚Äč‚Äč‚Äč‚Äč‚Äč</text><text x="0" y="0" fill="#131300" font-size="14" dominant-baseline="text-before-edge" text-anchor="middle" transform="translate(193.02713971388968, 479) rotate(0)">‚Äč‚Äč‚Äč‚Äč‚Äč‚Äč‚Äč‚Äč</text><text x="0" y="0" fill="#131300" font-size="14" dominant-baseline="text-before-edge" text-anchor="middle" transform="translate(208.9428469005384, 479) rotate(0)">‚Äč‚Äč‚Äč‚Äč‚Äč‚Äč‚Äč‚Äč‚Äč</text><text x="0" y="0" fill="#131300" font-size="14" dominant-baseline="text-before-edge" text-anchor="middle" transform="translate(224.85855408718712, 479) rotate(0)">‚Äč‚Äč‚Äč‚Äč‚Äč‚Äč‚Äč‚Äč‚Äč‚Äč</text><text x="0" y="0" fill="#131300" font-size="14" dominant-baseline="text-before-edge" text-anchor="middle" transform="translate(240.77426127383583, 479) rotate(0)">‚Äč‚Äč‚Äč‚Äč‚Äč‚Äč‚Äč‚Äč‚Äč‚Äč‚Äč</text><text x="0" y="0" fill="#131300" font-size="14" dominant-baseline="text-before-edge" text-anchor="middle" transform="translate(256.6899684604846, 479) rotate(0)">3.8</text><text x="0" y="0" fill="#131300" font-size="14" dominant-baseline="text-before-edge" text-anchor="middle" transform="translate(272.6056756471333, 479) rotate(0)">‚Äč‚Äč‚Äč‚Äč‚Äč‚Äč‚Äč‚Äč‚Äč‚Äč‚Äč‚Äč‚Äč</text><text x="0" y="0" fill="#131300" font-size="14" dominant-baseline="text-before-edge" text-anchor="middle" transform="translate(288.521382833782, 479) rotate(0)">‚Äč‚Äč‚Äč‚Äč‚Äč‚Äč‚Äč‚Äč‚Äč‚Äč‚Äč‚Äč‚Äč‚Äč</text><text x="0" y="0" fill="#131300" font-size="14" dominant-baseline="text-before-edge" text-anchor="middle" transform="translate(304.43709002043073, 479) rotate(0)">‚Äč‚Äč‚Äč‚Äč‚Äč‚Äč‚Äč‚Äč‚Äč‚Äč‚Äč‚Äč‚Äč‚Äč‚Äč</text><text x="0" y="0" fill="#131300" font-size="14" dominant-baseline="text-before-edge" text-anchor="middle" transform="translate(320.35279720707945, 479) rotate(0)">‚Äč‚Äč‚Äč‚Äč‚Äč‚Äč‚Äč‚Äč‚Äč‚Äč‚Äč‚Äč‚Äč‚Äč‚Äč‚Äč</text><text x="0" y="0" fill="#131300" font-size="14" dominant-baseline="text-before-edge" text-anchor="middle" transform="translate(336.26850439372816, 479) rotate(0)">‚Äč‚Äč‚Äč‚Äč‚Äč‚Äč‚Äč‚Äč‚Äč‚Äč‚Äč‚Äč‚Äč‚Äč‚Äč‚Äč‚Äč</text><text x="0" y="0" fill="#131300" font-size="14" dominant-baseline="text-before-edge" text-anchor="middle" transform="translate(352.1842115803769, 479) rotate(0)">‚Äč‚Äč‚Äč‚Äč‚Äč‚Äč‚Äč‚Äč‚Äč‚Äč‚Äč‚Äč‚Äč‚Äč‚Äč‚Äč‚Äč‚Äč</text><text x="0" y="0" fill="#131300" font-size="14" dominant-baseline="text-before-edge" text-anchor="middle" transform="translate(368.0999187670256, 479) rotate(0)">3.15</text><text x="0" y="0" fill="#131300" font-size="14" dominant-baseline="text-before-edge" text-anchor="middle" transform="translate(384.0156259536743, 479) rotate(0)">‚Äč‚Äč‚Äč‚Äč‚Äč‚Äč‚Äč‚Äč‚Äč‚Äč‚Äč‚Äč‚Äč‚Äč‚Äč‚Äč‚Äč‚Äč‚Äč‚Äč</text><text x="0" y="0" fill="#131300" font-size="14" dominant-baseline="text-before-edge" text-anchor="middle" transform="translate(399.93133314032303, 479) rotate(0)">‚Äč‚Äč‚Äč‚Äč‚Äč‚Äč‚Äč‚Äč‚Äč‚Äč‚Äč‚Äč‚Äč‚Äč‚Äč‚Äč‚Äč‚Äč‚Äč‚Äč‚Äč</text><text x="0" y="0" fill="#131300" font-size="14" dominant-baseline="text-before-edge" text-anchor="middle" transform="translate(415.84704032697175, 479) rotate(0)">‚Äč‚Äč‚Äč‚Äč‚Äč‚Äč‚Äč‚Äč‚Äč‚Äč‚Äč‚Äč‚Äč‚Äč‚Äč‚Äč‚Äč‚Äč‚Äč‚Äč‚Äč‚Äč</text><text x="0" y="0" fill="#131300" font-size="14" dominant-baseline="text-before-edge" text-anchor="middle" transform="translate(431.76274751362047, 479) rotate(0)">‚Äč‚Äč‚Äč‚Äč‚Äč‚Äč‚Äč‚Äč‚Äč‚Äč‚Äč‚Äč‚Äč‚Äč‚Äč‚Äč‚Äč‚Äč‚Äč‚Äč‚Äč‚Äč‚Äč</text><text x="0" y="0" fill="#131300" font-size="14" dominant-baseline="text-before-edge" text-anchor="middle" transform="translate(447.6784547002692, 479) rotate(0)">‚Äč‚Äč‚Äč‚Äč‚Äč‚Äč‚Äč‚Äč‚Äč‚Äč‚Äč‚Äč‚Äč‚Äč‚Äč‚Äč‚Äč‚Äč‚Äč‚Äč‚Äč‚Äč‚Äč‚Äč</text><text x="0" y="0" fill="#131300" font-size="14" dominant-baseline="text-before-edge" text-anchor="middle" transform="translate(463.59416188691796, 479) rotate(0)">‚Äč‚Äč‚Äč‚Äč‚Äč‚Äč‚Äč‚Äč‚Äč‚Äč‚Äč‚Äč‚Äč‚Äč‚Äč‚Äč‚Äč‚Äč‚Äč‚Äč‚Äč‚Äč‚Äč‚Äč‚Äč</text><text x="0" y="0" fill="#131300" font-size="14" dominant-baseline="text-before-edge" text-anchor="middle" transform="translate(479.5098690735667, 479) rotate(0)">3.22</text><text x="0" y="0" fill="#131300" font-size="14" dominant-baseline="text-before-edge" text-anchor="middle" transform="translate(495.4255762602154, 479) rotate(0)">‚Äč‚Äč‚Äč‚Äč‚Äč‚Äč‚Äč‚Äč‚Äč‚Äč‚Äč‚Äč‚Äč‚Äč‚Äč‚Äč‚Äč‚Äč‚Äč‚Äč‚Äč‚Äč‚Äč‚Äč‚Äč‚Äč‚Äč</text><text x="0" y="0" fill="#131300" font-size="14" dominant-baseline="text-before-edge" text-anchor="middle" transform="translate(511.3412834468641, 479) rotate(0)">‚Äč‚Äč‚Äč‚Äč‚Äč‚Äč‚Äč‚Äč‚Äč‚Äč‚Äč‚Äč‚Äč‚Äč‚Äč‚Äč‚Äč‚Äč‚Äč‚Äč‚Äč‚Äč‚Äč‚Äč‚Äč‚Äč‚Äč‚Äč</text><text x="0" y="0" fill="#131300" font-size="14" dominant-baseline="text-before-edge" text-anchor="middle" transform="translate(527.2569906335128, 479) rotate(0)">‚Äč‚Äč‚Äč‚Äč‚Äč‚Äč‚Äč‚Äč‚Äč‚Äč‚Äč‚Äč‚Äč‚Äč‚Äč‚Äč‚Äč‚Äč‚Äč‚Äč‚Äč‚Äč‚Äč‚Äč‚Äč‚Äč‚Äč‚Äč‚Äč</text><text x="0" y="0" fill="#131300" font-size="14" dominant-baseline="text-before-edge" text-anchor="middle" transform="translate(543.1726978201616, 479) rotate(0)">‚Äč‚Äč‚Äč‚Äč‚Äč‚Äč‚Äč‚Äč‚Äč‚Äč‚Äč‚Äč‚Äč‚Äč‚Äč‚Äč‚Äč‚Äč‚Äč‚Äč‚Äč‚Äč‚Äč‚Äč‚Äč‚Äč‚Äč‚Äč‚Äč‚Äč</text><text x="0" y="0" fill="#131300" font-size="14" dominant-baseline="text-before-edge" text-anchor="middle" transform="translate(559.0884050068103, 479) rotate(0)">‚Äč‚Äč‚Äč‚Äč‚Äč‚Äč‚Äč‚Äč‚Äč‚Äč‚Äč‚Äč‚Äč‚Äč‚Äč‚Äč‚Äč‚Äč‚Äč‚Äč‚Äč‚Äč‚Äč‚Äč‚Äč‚Äč‚Äč‚Äč‚Äč‚Äč‚Äč</text><text x="0" y="0" fill="#131300" font-size="14" dominant-baseline="text-before-edge" text-anchor="middle" transform="translate(575.0041121934589, 479) rotate(0)">‚Äč‚Äč‚Äč‚Äč‚Äč‚Äč‚Äč‚Äč‚Äč‚Äč‚Äč‚Äč‚Äč‚Äč‚Äč‚Äč‚Äč‚Äč‚Äč‚Äč‚Äč‚Äč‚Äč‚Äč‚Äč‚Äč‚Äč‚Äč‚Äč‚Äč‚Äč‚Äč</text><text x="0" y="0" fill="#131300" font-size="14" dominant-baseline="text-before-edge" text-anchor="middle" transform="translate(590.9198193801077, 479) rotate(0)">3.29</text><text x="0" y="0" fill="#131300" font-size="14" dominant-baseline="text-before-edge" text-anchor="middle" transform="translate(606.8355265667565, 479) rotate(0)">‚Äč‚Äč‚Äč‚Äč‚Äč‚Äč‚Äč‚Äč‚Äč‚Äč‚Äč‚Äč‚Äč‚Äč‚Äč‚Äč‚Äč‚Äč‚Äč‚Äč‚Äč‚Äč‚Äč‚Äč‚Äč‚Äč‚Äč‚Äč‚Äč‚Äč‚Äč‚Äč‚Äč‚Äč</text><text x="0" y="0" fill="#131300" font-size="14" dominant-baseline="text-before-edge" text-anchor="middle" transform="translate(622.7512337534051, 479) rotate(0)">‚Äč‚Äč‚Äč‚Äč‚Äč‚Äč‚Äč‚Äč‚Äč‚Äč‚Äč‚Äč‚Äč‚Äč‚Äč‚Äč‚Äč‚Äč‚Äč‚Äč‚Äč‚Äč‚Äč‚Äč‚Äč‚Äč‚Äč‚Äč‚Äč‚Äč‚Äč‚Äč‚Äč‚Äč‚Äč</text><text x="0" y="0" fill="#131300" font-size="14" dominant-baseline="text-before-edge" text-anchor="middle" transform="translate(638.6669409400539, 479) rotate(0)">4.1</text><text x="0" y="0" fill="#131300" font-size="14" dominant-baseline="text-before-edge" text-anchor="middle" transform="translate(654.5826481267026, 479) rotate(0)">‚Äč‚Äč‚Äč‚Äč‚Äč‚Äč‚Äč‚Äč‚Äč‚Äč‚Äč‚Äč‚Äč‚Äč‚Äč‚Äč‚Äč‚Äč‚Äč‚Äč‚Äč‚Äč‚Äč‚Äč‚Äč‚Äč‚Äč‚Äč‚Äč‚Äč‚Äč‚Äč‚Äč‚Äč‚Äč‚Äč‚Äč</text><text x="0" y="0" fill="#131300" font-size="14" dominant-baseline="text-before-edge" text-anchor="middle" transform="translate(670.4983553133513, 479) rotate(0)">‚Äč‚Äč‚Äč‚Äč‚Äč‚Äč‚Äč‚Äč‚Äč‚Äč‚Äč‚Äč‚Äč‚Äč‚Äč‚Äč‚Äč‚Äč‚Äč‚Äč‚Äč‚Äč‚Äč‚Äč‚Äč‚Äč‚Äč‚Äč‚Äč‚Äč‚Äč‚Äč‚Äč‚Äč‚Äč‚Äč‚Äč‚Äč</text><text x="0" y="0" fill="#131300" font-size="14" dominant-baseline="text-before-edge" text-anchor="middle" transform="translate(686.4140625, 479) rotate(0)">4.4</text></g><g class="ticks"><path d="M 81.61718940734863,469 L 81.61718940734863,474" fill="none" stroke="#131300" stroke-width="2"/><path d="M 97.53289659399735,469 L 97.53289659399735,474" fill="none" stroke="#131300" stroke-width="2"/><path d="M 113.44860378064607,469 L 113.44860378064607,474" fill="none" stroke="#131300" stroke-width="2"/><path d="M 129.36431096729478,469 L 129.36431096729478,474" fill="none" stroke="#131300" stroke-width="2"/><path d="M 145.2800181539435,469 L 145.2800181539435,474" fill="none" stroke="#131300" stroke-width="2"/><path d="M 161.19572534059222,469 L 161.19572534059222,474" fill="none" stroke="#131300" stroke-width="2"/><path d="M 177.11143252724096,469 L 177.11143252724096,474" fill="none" stroke="#131300" stroke-width="2"/><path d="M 193.02713971388968,469 L 193.02713971388968,474" fill="none" stroke="#131300" stroke-width="2"/><path d="M 208.9428469005384,469 L 208.9428469005384,474" fill="none" stroke="#131300" stroke-width="2"/><path d="M 224.85855408718712,469 L 224.85855408718712,474" fill="none" stroke="#131300" stroke-width="2"/><path d="M 240.77426127383583,469 L 240.77426127383583,474" fill="none" stroke="#131300" stroke-width="2"/><path d="M 256.6899684604846,469 L 256.6899684604846,474" fill="none" stroke="#131300" stroke-width="2"/><path d="M 272.6056756471333,469 L 272.6056756471333,474" fill="none" stroke="#131300" stroke-width="2"/><path d="M 288.521382833782,469 L 288.521382833782,474" fill="none" stroke="#131300" stroke-width="2"/><path d="M 304.43709002043073,469 L 304.43709002043073,474" fill="none" stroke="#131300" stroke-width="2"/><path d="M 320.35279720707945,469 L 320.35279720707945,474" fill="none" stroke="#131300" stroke-width="2"/><path d="M 336.26850439372816,469 L 336.26850439372816,474" fill="none" stroke="#131300" stroke-width="2"/><path d="M 352.1842115803769,469 L 352.1842115803769,474" fill="none" stroke="#131300" stroke-width="2"/><path d="M 368.0999187670256,469 L 368.0999187670256,474" fill="none" stroke="#131300" stroke-width="2"/><path d="M 384.0156259536743,469 L 384.0156259536743,474" fill="none" stroke="#131300" stroke-width="2"/><path d="M 399.93133314032303,469 L 399.93133314032303,474" fill="none" stroke="#131300" stroke-width="2"/><path d="M 415.84704032697175,469 L 415.84704032697175,474" fill="none" stroke="#131300" stroke-width="2"/><path d="M 431.76274751362047,469 L 431.76274751362047,474" fill="none" stroke="#131300" stroke-width="2"/><path d="M 447.6784547002692,469 L 447.6784547002692,474" fill="none" stroke="#131300" stroke-width="2"/><path d="M 463.59416188691796,469 L 463.59416188691796,474" fill="none" stroke="#131300" stroke-width="2"/><path d="M 479.5098690735667,469 L 479.5098690735667,474" fill="none" stroke="#131300" stroke-width="2"/><path d="M 495.4255762602154,469 L 495.4255762602154,474" fill="none" stroke="#131300" stroke-width="2"/><path d="M 511.3412834468641,469 L 511.3412834468641,474" fill="none" stroke="#131300" stroke-width="2"/><path d="M 527.2569906335128,469 L 527.2569906335128,474" fill="none" stroke="#131300" stroke-width="2"/><path d="M 543.1726978201616,469 L 543.1726978201616,474" fill="none" stroke="#131300" stroke-width="2"/><path d="M 559.0884050068103,469 L 559.0884050068103,474" fill="none" stroke="#131300" stroke-width="2"/><path d="M 575.0041121934589,469 L 575.0041121934589,474" fill="none" stroke="#131300" stroke-width="2"/><path d="M 590.9198193801077,469 L 590.9198193801077,474" fill="none" stroke="#131300" stroke-width="2"/><path d="M 606.8355265667565,469 L 606.8355265667565,474" fill="none" stroke="#131300" stroke-width="2"/><path d="M 622.7512337534051,469 L 622.7512337534051,474" fill="none" stroke="#131300" stroke-width="2"/><path d="M 638.6669409400539,469 L 638.6669409400539,474" fill="none" stroke="#131300" stroke-width="2"/><path d="M 654.5826481267026,469 L 654.5826481267026,474" fill="none" stroke="#131300" stroke-width="2"/><path d="M 670.4983553133513,469 L 670.4983553133513,474" fill="none" stroke="#131300" stroke-width="2"/><path d="M 686.4140625,469 L 686.4140625,474" fill="none" stroke="#131300" stroke-width="2"/></g></g><g class="left-axis"><g class="axisl-line"><path d="M 67.03125190734863,43.1796875 L 67.03125190734863,467" fill="none" stroke="#131300" stroke-width="2"/></g><g class="label"><text x="0" y="0" fill="#131300" font-size="14" dominant-baseline="middle" text-anchor="end" transform="translate(56.03125190734863, 51.1796875) rotate(0)">280</text><text x="0" y="0" fill="#131300" font-size="14" dominant-baseline="middle" text-anchor="end" transform="translate(56.03125190734863, 80.30970982142856) rotate(0)">260</text><text x="0" y="0" fill="#131300" font-size="14" dominant-baseline="middle" text-anchor="end" transform="translate(56.03125190734863, 109.43973214285717) rotate(0)">240</text><text x="0" y="0" fill="#131300" font-size="14" dominant-baseline="middle" text-anchor="end" transform="translate(56.03125190734863, 138.56975446428572) rotate(0)">220</text><text x="0" y="0" fill="#131300" font-size="14" dominant-baseline="middle" text-anchor="end" transform="translate(56.03125190734863, 167.69977678571428) rotate(0)">200</text><text x="0" y="0" fill="#131300" font-size="14" dominant-baseline="middle" text-anchor="end" transform="translate(56.03125190734863, 196.82979910714283) rotate(0)">180</text><text x="0" y="0" fill="#131300" font-size="14" dominant-baseline="middle" text-anchor="end" transform="translate(56.03125190734863, 225.95982142857144) rotate(0)">160</text><text x="0" y="0" fill="#131300" font-size="14" dominant-baseline="middle" text-anchor="end" transform="translate(56.03125190734863, 255.08984375) rotate(0)">140</text><text x="0" y="0" fill="#131300" font-size="14" dominant-baseline="middle" text-anchor="end" transform="translate(56.03125190734863, 284.21986607142856) rotate(0)">120</text><text x="0" y="0" fill="#131300" font-size="14" dominant-baseline="middle" text-anchor="end" transform="translate(56.03125190734863, 313.3498883928571) rotate(0)">100</text><text x="0" y="0" fill="#131300" font-size="14" dominant-baseline="middle" text-anchor="end" transform="translate(56.03125190734863, 342.4799107142857) rotate(0)">80</text><text x="0" y="0" fill="#131300" font-size="14" dominant-baseline="middle" text-anchor="end" transform="translate(56.03125190734863, 371.6099330357143) rotate(0)">60</text><text x="0" y="0" fill="#131300" font-size="14" dominant-baseline="middle" text-anchor="end" transform="translate(56.03125190734863, 400.7399553571429) rotate(0)">40</text><text x="0" y="0" fill="#131300" font-size="14" dominant-baseline="middle" text-anchor="end" transform="translate(56.03125190734863, 429.86997767857144) rotate(0)">20</text><text x="0" y="0" fill="#131300" font-size="14" dominant-baseline="middle" text-anchor="end" transform="translate(56.03125190734863, 459) rotate(0)">0</text></g><g class="ticks"><path d="M 66.03125190734863,51.1796875 L 61.03125190734863,51.1796875" fill="none" stroke="#131300" stroke-width="2"/><path d="M 66.03125190734863,80.30970982142856 L 61.03125190734863,80.30970982142856" fill="none" stroke="#131300" stroke-width="2"/><path d="M 66.03125190734863,109.43973214285717 L 61.03125190734863,109.43973214285717" fill="none" stroke="#131300" stroke-width="2"/><path d="M 66.03125190734863,138.56975446428572 L 61.03125190734863,138.56975446428572" fill="none" stroke="#131300" stroke-width="2"/><path d="M 66.03125190734863,167.69977678571428 L 61.03125190734863,167.69977678571428" fill="none" stroke="#131300" stroke-width="2"/><path d="M 66.03125190734863,196.82979910714283 L 61.03125190734863,196.82979910714283" fill="none" stroke="#131300" stroke-width="2"/><path d="M 66.03125190734863,225.95982142857144 L 61.03125190734863,225.95982142857144" fill="none" stroke="#131300" stroke-width="2"/><path d="M 66.03125190734863,255.08984375 L 61.03125190734863,255.08984375" fill="none" stroke="#131300" stroke-width="2"/><path d="M 66.03125190734863,284.21986607142856 L 61.03125190734863,284.21986607142856" fill="none" stroke="#131300" stroke-width="2"/><path d="M 66.03125190734863,313.3498883928571 L 61.03125190734863,313.3498883928571" fill="none" stroke="#131300" stroke-width="2"/><path d="M 66.03125190734863,342.4799107142857 L 61.03125190734863,342.4799107142857" fill="none" stroke="#131300" stroke-width="2"/><path d="M 66.03125190734863,371.6099330357143 L 61.03125190734863,371.6099330357143" fill="none" stroke="#131300" stroke-width="2"/><path d="M 66.03125190734863,400.7399553571429 L 61.03125190734863,400.7399553571429" fill="none" stroke="#131300" stroke-width="2"/><path d="M 66.03125190734863,429.86997767857144 L 61.03125190734863,429.86997767857144" fill="none" stroke="#131300" stroke-width="2"/><path d="M 66.03125190734863,459 L 61.03125190734863,459" fill="none" stroke="#131300" stroke-width="2"/></g><g class="title"><text x="0" y="0" fill="#131300" font-size="16" dominant-baseline="text-before-edge" text-anchor="middle" transform="translate(5, 255.08984375) rotate(270)">Members</text></g></g></g><g class="mermaid-tmp-group"/></svg>