<svg id="my-svg" width="100%" xmlns="http://www.w3.org/2000/svg" xmlns:xlink="http://www.w3.org/1999/xlink" style="max-width: 700px; background-color: white;" viewBox="0 0 700 500" role="graphics-document document" aria-roledescription="xychart"><style>#my-svg{font-family:"trebuchet ms",verdana,arial,sans-serif;font-size:16px;fill:#333;}@keyframes edge-animation-frame{from{stroke-dashoffset:0;}}@keyframes dash{to{stroke-dashoffset:0;}}#my-svg .edge-animation-slow{stroke-dasharray:9,5!important;stroke-dashoffset:900;animation:dash 50s linear infinite;stroke-linecap:round;}#my-svg .edge-animation-fast{stroke-dasharray:9,5!important;stroke-dashoffset:900;animation:dash 20s linear infinite;stroke-linecap:round;}#my-svg .error-icon{fill:#552222;}#my-svg .error-text{fill:#552222;stroke:#552222;}#my-svg .edge-thickness-normal{stroke-width:1px;}#my-svg .edge-thickness-thick{stroke-width:3.5px;}#my-svg .edge-pattern-solid{stroke-dasharray:0;}#my-svg .edge-thickness-invisible{stroke-width:0;fill:none;}#my-svg .edge-pattern-dashed{stroke-dasharray:3;}#my-svg .edge-pattern-dotted{stroke-dasharray:2;}#my-svg .marker{fill:#333333;stroke:#333333;}#my-svg .marker.cross{stroke:#333333;}#my-svg svg{font-family:"trebuchet ms",verdana,arial,sans-serif;font-size:16px;}#my-svg p{margin:0;}#my-svg :root{--mermaid-font-family:"trebuchet ms",verdana,arial,sans-serif;}</style><g/><g class="main"><rect width="700" height="500" class="background" fill="white"/><g class="chart-title"><text x="0" y="0" fill="#131300" font-size="20" dominant-baseline="middle" text-anchor="middle" transform="translate(350, 21.58984375) rotate(0)">Daily Cumulative Member Tally (2026) - Full Scale</text></g><g class="plot"><g class="bar-plot-0"><rect x="74.4352265393734" y="224.1517510775862" width="14.36392573595047" height="242.8482489224138" fill="#ECECFF" stroke="#ECECFF" stroke-width="0"/><rect x="89.94283866995421" y="219.9329202586207" width="14.36392573595047" height="247.0670797413793" fill="#ECECFF" stroke="#ECECFF" stroke-width="0"/><rect x="105.45045080053501" y="215.7140894396552" width="14.36392573595047" height="251.2859105603448" fill="#ECECFF" stroke="#ECECFF" stroke-width="0"/><rect x="120.95806293111583" y="212.90153556034483" width="14.36392573595047" height="254.09846443965517" fill="#ECECFF" stroke="#ECECFF" stroke-width="0"/><rect x="136.4656750616966" y="204.46387392241377" width="14.36392573595047" height="262.53612607758623" fill="#ECECFF" stroke="#ECECFF" stroke-width="0"/><rect x="151.9732871922774" y="201.65132004310345" width="14.36392573595047" height="265.34867995689655" fill="#ECECFF" stroke="#ECECFF" stroke-width="0"/><rect x="167.48089932285822" y="201.65132004310345" width="14.36392573595047" height="265.34867995689655" fill="#ECECFF" stroke="#ECECFF" stroke-width="0"/><rect x="182.988511453439" y="197.43248922413795" width="14.36392573595047" height="269.56751077586205" fill="#ECECFF" stroke="#ECECFF" stroke-width="0"/><rect x="198.4961235840198" y="196.0262122844828" width="14.36392573595047" height="270.97378771551723" fill="#ECECFF" stroke="#ECECFF" stroke-width="0"/><rect x="214.00373571460062" y="191.80738146551724" width="14.36392573595047" height="275.1926185344828" fill="#ECECFF" stroke="#ECECFF" stroke-width="0"/><rect x="229.51134784518143" y="183.36971982758618" width="14.36392573595047" height="283.6302801724138" fill="#ECECFF" stroke="#ECECFF" stroke-width="0"/><rect x="245.01895997576224" y="173.52578125000002" width="14.36392573595047" height="293.47421875" fill="#ECECFF" stroke="#ECECFF" stroke-width="0"/><rect x="260.52657210634305" y="162.27556573275862" width="14.36392573595047" height="304.72443426724135" fill="#ECECFF" stroke="#ECECFF" stroke-width="0"/><rect x="276.03418423692386" y="158.0567349137931" width="14.36392573595047" height="308.9432650862069" fill="#ECECFF" stroke="#ECECFF" stroke-width="0"/><rect x="291.5417963675046" y="153.83790409482756" width="14.36392573595047" height="313.16209590517246" fill="#ECECFF" stroke="#ECECFF" stroke-width="0"/><rect x="307.0494084980854" y="153.83790409482756" width="14.36392573595047" height="313.16209590517246" fill="#ECECFF" stroke="#ECECFF" stroke-width="0"/><rect x="322.55702062866624" y="153.83790409482756" width="14.36392573595047" height="313.16209590517246" fill="#ECECFF" stroke="#ECECFF" stroke-width="0"/><rect x="338.06463275924705" y="149.6190732758621" width="14.36392573595047" height="317.3809267241379" fill="#ECECFF" stroke="#ECECFF" stroke-width="0"/><rect x="353.57224488982786" y="142.58768857758622" width="14.36392573595047" height="324.4123114224138" fill="#ECECFF" stroke="#ECECFF" stroke-width="0"/><rect x="369.07985702040867" y="134.15002693965516" width="14.36392573595047" height="332.84997306034484" fill="#ECECFF" stroke="#ECECFF" stroke-width="0"/><rect x="384.5874691509895" y="129.9311961206897" width="14.36392573595047" height="337.0688038793103" fill="#ECECFF" stroke="#ECECFF" stroke-width="0"/><rect x="400.0950812815703" y="125.71236530172416" width="14.36392573595047" height="341.28763469827584" fill="#ECECFF" stroke="#ECECFF" stroke-width="0"/><rect x="415.6026934121511" y="121.49353448275863" width="14.36392573595047" height="345.5064655172414" fill="#ECECFF" stroke="#ECECFF" stroke-width="0"/><rect x="431.1103055427319" y="121.49353448275863" width="14.36392573595047" height="345.5064655172414" fill="#ECECFF" stroke="#ECECFF" stroke-width="0"/><rect x="446.6179176733127" y="115.86842672413793" width="14.36392573595047" height="351.1315732758621" fill="#ECECFF" stroke="#ECECFF" stroke-width="0"/><rect x="462.1255298038935" y="113.05587284482758" width="14.36392573595047" height="353.9441271551724" fill="#ECECFF" stroke="#ECECFF" stroke-width="0"/><rect x="477.63314193447434" y="113.05587284482758" width="14.36392573595047" height="353.9441271551724" fill="#ECECFF" stroke="#ECECFF" stroke-width="0"/><rect x="493.1407540650551" y="113.05587284482758" width="14.36392573595047" height="353.9441271551724" fill="#ECECFF" stroke="#ECECFF" stroke-width="0"/><rect x="508.64836619563584" y="113.05587284482758" width="14.36392573595047" height="353.9441271551724" fill="#ECECFF" stroke="#ECECFF" stroke-width="0"/><rect x="524.1559783262167" y="113.05587284482758" width="14.36392573595047" height="353.9441271551724" fill="#ECECFF" stroke="#ECECFF" stroke-width="0"/><rect x="539.6635904567975" y="113.05587284482758" width="14.36392573595047" height="353.9441271551724" fill="#ECECFF" stroke="#ECECFF" stroke-width="0"/><rect x="555.1712025873783" y="113.05587284482758" width="14.36392573595047" height="353.9441271551724" fill="#ECECFF" stroke="#ECECFF" stroke-width="0"/><rect x="570.6788147179591" y="113.05587284482758" width="14.36392573595047" height="353.9441271551724" fill="#ECECFF" stroke="#ECECFF" stroke-width="0"/><rect x="586.1864268485399" y="113.05587284482758" width="14.36392573595047" height="353.9441271551724" fill="#ECECFF" stroke="#ECECFF" stroke-width="0"/><rect x="601.6940389791207" y="111.64959590517239" width="14.36392573595047" height="355.3504040948276" fill="#ECECFF" stroke="#ECECFF" stroke-width="0"/><rect x="617.2016511097015" y="110.24331896551723" width="14.36392573595047" height="356.75668103448277" fill="#ECECFF" stroke="#ECECFF" stroke-width="0"/><rect x="632.7092632402823" y="107.43076508620692" width="14.36392573595047" height="359.5692349137931" fill="#ECECFF" stroke="#ECECFF" stroke-width="0"/><rect x="648.2168753708631" y="107.43076508620692" width="14.36392573595047" height="359.5692349137931" fill="#ECECFF" stroke="#ECECFF" stroke-width="0"/><rect x="663.724487501444" y="83.52405711206899" width="14.36392573595047" height="383.475942887931" fill="#ECECFF" stroke="#ECECFF" stroke-width="0"/><rect x="679.2320996320248" y="79.30522629310346" width="14.36392573595047" height="387.6947737068965" fill="#ECECFF" stroke="#ECECFF" stroke-width="0"/></g></g><g class="bottom-axis"><g class="axis-line"><path d="M 68.03125190734863,468 L 700,468" fill="none" stroke="#131300" stroke-width="2"/></g><g class="label"><text x="0" y="0" fill="#131300" font-size="14" dominant-baseline="text-before-edge" text-anchor="middle" transform="translate(81.61718940734863, 479) rotate(0)">2.25</text><text x="0" y="0" fill="#131300" font-size="14" dominant-baseline="text-before-edge" text-anchor="middle" transform="translate(97.12480153792944, 479) rotate(0)">вЂ‹вЂ‹</text><text x="0" y="0" fill="#131300" font-size="14" dominant-baseline="text-before-edge" text-anchor="middle" transform="translate(112.63241366851024, 479) rotate(0)">вЂ‹вЂ‹вЂ‹</text><text x="0" y="0" fill="#131300" font-size="14" dominant-baseline="text-before-edge" text-anchor="middle" transform="translate(128.14002579909106, 479) rotate(0)">вЂ‹вЂ‹вЂ‹вЂ‹</text><text x="0" y="0" fill="#131300" font-size="14" dominant-baseline="text-before-edge" text-anchor="middle" transform="translate(143.64763792967184, 479) rotate(0)">3.1</text><text x="0" y="0" fill="#131300" font-size="14" dominant-baseline="text-before-edge" text-anchor="middle" transform="translate(159.15525006025265, 479) rotate(0)">вЂ‹вЂ‹вЂ‹вЂ‹вЂ‹вЂ‹</text><text x="0" y="0" fill="#131300" font-size="14" dominant-baseline="text-before-edge" text-anchor="middle" transform="translate(174.66286219083347, 479) rotate(0)">вЂ‹вЂ‹вЂ‹вЂ‹вЂ‹вЂ‹вЂ‹</text><text x="0" y="0" fill="#131300" font-size="14" dominant-baseline="text-before-edge" text-anchor="middle" transform="translate(190.17047432141425, 479) rotate(0)">вЂ‹вЂ‹вЂ‹вЂ‹вЂ‹вЂ‹вЂ‹вЂ‹</text><text x="0" y="0" fill="#131300" font-size="14" dominant-baseline="text-before-edge" text-anchor="middle" transform="translate(205.67808645199506, 479) rotate(0)">вЂ‹вЂ‹вЂ‹вЂ‹вЂ‹вЂ‹вЂ‹вЂ‹вЂ‹</text><text x="0" y="0" fill="#131300" font-size="14" dominant-baseline="text-before-edge" text-anchor="middle" transform="translate(221.18569858257587, 479) rotate(0)">вЂ‹вЂ‹вЂ‹вЂ‹вЂ‹вЂ‹вЂ‹вЂ‹вЂ‹вЂ‹</text><text x="0" y="0" fill="#131300" font-size="14" dominant-baseline="text-before-edge" text-anchor="middle" transform="translate(236.69331071315668, 479) rotate(0)">вЂ‹вЂ‹вЂ‹вЂ‹вЂ‹вЂ‹вЂ‹вЂ‹вЂ‹вЂ‹вЂ‹</text><text x="0" y="0" fill="#131300" font-size="14" dominant-baseline="text-before-edge" text-anchor="middle" transform="translate(252.2009228437375, 479) rotate(0)">3.8</text><text x="0" y="0" fill="#131300" font-size="14" dominant-baseline="text-before-edge" text-anchor="middle" transform="translate(267.7085349743183, 479) rotate(0)">вЂ‹вЂ‹вЂ‹вЂ‹вЂ‹вЂ‹вЂ‹вЂ‹вЂ‹вЂ‹вЂ‹вЂ‹вЂ‹</text><text x="0" y="0" fill="#131300" font-size="14" dominant-baseline="text-before-edge" text-anchor="middle" transform="translate(283.2161471048991, 479) rotate(0)">вЂ‹вЂ‹вЂ‹вЂ‹вЂ‹вЂ‹вЂ‹вЂ‹вЂ‹вЂ‹вЂ‹вЂ‹вЂ‹вЂ‹</text><text x="0" y="0" fill="#131300" font-size="14" dominant-baseline="text-before-edge" text-anchor="middle" transform="translate(298.72375923547986, 479) rotate(0)">вЂ‹вЂ‹вЂ‹вЂ‹вЂ‹вЂ‹вЂ‹вЂ‹вЂ‹вЂ‹вЂ‹вЂ‹вЂ‹вЂ‹вЂ‹</text><text x="0" y="0" fill="#131300" font-size="14" dominant-baseline="text-before-edge" text-anchor="middle" transform="translate(314.23137136606067, 479) rotate(0)">вЂ‹вЂ‹вЂ‹вЂ‹вЂ‹вЂ‹вЂ‹вЂ‹вЂ‹вЂ‹вЂ‹вЂ‹вЂ‹вЂ‹вЂ‹вЂ‹</text><text x="0" y="0" fill="#131300" font-size="14" dominant-baseline="text-before-edge" text-anchor="middle" transform="translate(329.7389834966415, 479) rotate(0)">вЂ‹вЂ‹вЂ‹вЂ‹вЂ‹вЂ‹вЂ‹вЂ‹вЂ‹вЂ‹вЂ‹вЂ‹вЂ‹вЂ‹вЂ‹вЂ‹вЂ‹</text><text x="0" y="0" fill="#131300" font-size="14" dominant-baseline="text-before-edge" text-anchor="middle" transform="translate(345.2465956272223, 479) rotate(0)">вЂ‹вЂ‹вЂ‹вЂ‹вЂ‹вЂ‹вЂ‹вЂ‹вЂ‹вЂ‹вЂ‹вЂ‹вЂ‹вЂ‹вЂ‹вЂ‹вЂ‹вЂ‹</text><text x="0" y="0" fill="#131300" font-size="14" dominant-baseline="text-before-edge" text-anchor="middle" transform="translate(360.7542077578031, 479) rotate(0)">3.15</text><text x="0" y="0" fill="#131300" font-size="14" dominant-baseline="text-before-edge" text-anchor="middle" transform="translate(376.2618198883839, 479) rotate(0)">вЂ‹вЂ‹вЂ‹вЂ‹вЂ‹вЂ‹вЂ‹вЂ‹вЂ‹вЂ‹вЂ‹вЂ‹вЂ‹вЂ‹вЂ‹вЂ‹вЂ‹вЂ‹вЂ‹вЂ‹</text><text x="0" y="0" fill="#131300" font-size="14" dominant-baseline="text-before-edge" text-anchor="middle" transform="translate(391.7694320189647, 479) rotate(0)">вЂ‹вЂ‹вЂ‹вЂ‹вЂ‹вЂ‹вЂ‹вЂ‹вЂ‹вЂ‹вЂ‹вЂ‹вЂ‹вЂ‹вЂ‹вЂ‹вЂ‹вЂ‹вЂ‹вЂ‹вЂ‹</text><text x="0" y="0" fill="#131300" font-size="14" dominant-baseline="text-before-edge" text-anchor="middle" transform="translate(407.27704414954553, 479) rotate(0)">вЂ‹вЂ‹вЂ‹вЂ‹вЂ‹вЂ‹вЂ‹вЂ‹вЂ‹вЂ‹вЂ‹вЂ‹вЂ‹вЂ‹вЂ‹вЂ‹вЂ‹вЂ‹вЂ‹вЂ‹вЂ‹вЂ‹</text><text x="0" y="0" fill="#131300" font-size="14" dominant-baseline="text-before-edge" text-anchor="middle" transform="translate(422.78465628012634, 479) rotate(0)">вЂ‹вЂ‹вЂ‹вЂ‹вЂ‹вЂ‹вЂ‹вЂ‹вЂ‹вЂ‹вЂ‹вЂ‹вЂ‹вЂ‹вЂ‹вЂ‹вЂ‹вЂ‹вЂ‹вЂ‹вЂ‹вЂ‹вЂ‹</text><text x="0" y="0" fill="#131300" font-size="14" dominant-baseline="text-before-edge" text-anchor="middle" transform="translate(438.29226841070715, 479) rotate(0)">вЂ‹вЂ‹вЂ‹вЂ‹вЂ‹вЂ‹вЂ‹вЂ‹вЂ‹вЂ‹вЂ‹вЂ‹вЂ‹вЂ‹вЂ‹вЂ‹вЂ‹вЂ‹вЂ‹вЂ‹вЂ‹вЂ‹вЂ‹вЂ‹</text><text x="0" y="0" fill="#131300" font-size="14" dominant-baseline="text-before-edge" text-anchor="middle" transform="translate(453.79988054128796, 479) rotate(0)">вЂ‹вЂ‹вЂ‹вЂ‹вЂ‹вЂ‹вЂ‹вЂ‹вЂ‹вЂ‹вЂ‹вЂ‹вЂ‹вЂ‹вЂ‹вЂ‹вЂ‹вЂ‹вЂ‹вЂ‹вЂ‹вЂ‹вЂ‹вЂ‹вЂ‹</text><text x="0" y="0" fill="#131300" font-size="14" dominant-baseline="text-before-edge" text-anchor="middle" transform="translate(469.3074926718688, 479) rotate(0)">3.22</text><text x="0" y="0" fill="#131300" font-size="14" dominant-baseline="text-before-edge" text-anchor="middle" transform="translate(484.8151048024496, 479) rotate(0)">вЂ‹вЂ‹вЂ‹вЂ‹вЂ‹вЂ‹вЂ‹вЂ‹вЂ‹вЂ‹вЂ‹вЂ‹вЂ‹вЂ‹вЂ‹вЂ‹вЂ‹вЂ‹вЂ‹вЂ‹вЂ‹вЂ‹вЂ‹вЂ‹вЂ‹вЂ‹вЂ‹</text><text x="0" y="0" fill="#131300" font-size="14" dominant-baseline="text-before-edge" text-anchor="middle" transform="translate(500.32271693303034, 479) rotate(0)">вЂ‹вЂ‹вЂ‹вЂ‹вЂ‹вЂ‹вЂ‹вЂ‹вЂ‹вЂ‹вЂ‹вЂ‹вЂ‹вЂ‹вЂ‹вЂ‹вЂ‹вЂ‹вЂ‹вЂ‹вЂ‹вЂ‹вЂ‹вЂ‹вЂ‹вЂ‹вЂ‹вЂ‹</text><text x="0" y="0" fill="#131300" font-size="14" dominant-baseline="text-before-edge" text-anchor="middle" transform="translate(515.8303290636111, 479) rotate(0)">вЂ‹вЂ‹вЂ‹вЂ‹вЂ‹вЂ‹вЂ‹вЂ‹вЂ‹вЂ‹вЂ‹вЂ‹вЂ‹вЂ‹вЂ‹вЂ‹вЂ‹вЂ‹вЂ‹вЂ‹вЂ‹вЂ‹вЂ‹вЂ‹вЂ‹вЂ‹вЂ‹вЂ‹вЂ‹</text><text x="0" y="0" fill="#131300" font-size="14" dominant-baseline="text-before-edge" text-anchor="middle" transform="translate(531.3379411941919, 479) rotate(0)">вЂ‹вЂ‹вЂ‹вЂ‹вЂ‹вЂ‹вЂ‹вЂ‹вЂ‹вЂ‹вЂ‹вЂ‹вЂ‹вЂ‹вЂ‹вЂ‹вЂ‹вЂ‹вЂ‹вЂ‹вЂ‹вЂ‹вЂ‹вЂ‹вЂ‹вЂ‹вЂ‹вЂ‹вЂ‹вЂ‹</text><text x="0" y="0" fill="#131300" font-size="14" dominant-baseline="text-before-edge" text-anchor="middle" transform="translate(546.8455533247727, 479) rotate(0)">вЂ‹вЂ‹вЂ‹вЂ‹вЂ‹вЂ‹вЂ‹вЂ‹вЂ‹вЂ‹вЂ‹вЂ‹вЂ‹вЂ‹вЂ‹вЂ‹вЂ‹вЂ‹вЂ‹вЂ‹вЂ‹вЂ‹вЂ‹вЂ‹вЂ‹вЂ‹вЂ‹вЂ‹вЂ‹вЂ‹вЂ‹</text><text x="0" y="0" fill="#131300" font-size="14" dominant-baseline="text-before-edge" text-anchor="middle" transform="translate(562.3531654553535, 479) rotate(0)">вЂ‹вЂ‹вЂ‹вЂ‹вЂ‹вЂ‹вЂ‹вЂ‹вЂ‹вЂ‹вЂ‹вЂ‹вЂ‹вЂ‹вЂ‹вЂ‹вЂ‹вЂ‹вЂ‹вЂ‹вЂ‹вЂ‹вЂ‹вЂ‹вЂ‹вЂ‹вЂ‹вЂ‹вЂ‹вЂ‹вЂ‹вЂ‹</text><text x="0" y="0" fill="#131300" font-size="14" dominant-baseline="text-before-edge" text-anchor="middle" transform="translate(577.8607775859343, 479) rotate(0)">3.29</text><text x="0" y="0" fill="#131300" font-size="14" dominant-baseline="text-before-edge" text-anchor="middle" transform="translate(593.3683897165151, 479) rotate(0)">вЂ‹вЂ‹вЂ‹вЂ‹вЂ‹вЂ‹вЂ‹вЂ‹вЂ‹вЂ‹вЂ‹вЂ‹вЂ‹вЂ‹вЂ‹вЂ‹вЂ‹вЂ‹вЂ‹вЂ‹вЂ‹вЂ‹вЂ‹вЂ‹вЂ‹вЂ‹вЂ‹вЂ‹вЂ‹вЂ‹вЂ‹вЂ‹вЂ‹вЂ‹</text><text x="0" y="0" fill="#131300" font-size="14" dominant-baseline="text-before-edge" text-anchor="middle" transform="translate(608.876001847096, 479) rotate(0)">вЂ‹вЂ‹вЂ‹вЂ‹вЂ‹вЂ‹вЂ‹вЂ‹вЂ‹вЂ‹вЂ‹вЂ‹вЂ‹вЂ‹вЂ‹вЂ‹вЂ‹вЂ‹вЂ‹вЂ‹вЂ‹вЂ‹вЂ‹вЂ‹вЂ‹вЂ‹вЂ‹вЂ‹вЂ‹вЂ‹вЂ‹вЂ‹вЂ‹вЂ‹вЂ‹</text><text x="0" y="0" fill="#131300" font-size="14" dominant-baseline="text-before-edge" text-anchor="middle" transform="translate(624.3836139776768, 479) rotate(0)">4.1</text><text x="0" y="0" fill="#131300" font-size="14" dominant-baseline="text-before-edge" text-anchor="middle" transform="translate(639.8912261082576, 479) rotate(0)">вЂ‹вЂ‹вЂ‹вЂ‹вЂ‹вЂ‹вЂ‹вЂ‹вЂ‹вЂ‹вЂ‹вЂ‹вЂ‹вЂ‹вЂ‹вЂ‹вЂ‹вЂ‹вЂ‹вЂ‹вЂ‹вЂ‹вЂ‹вЂ‹вЂ‹вЂ‹вЂ‹вЂ‹вЂ‹вЂ‹вЂ‹вЂ‹вЂ‹вЂ‹вЂ‹вЂ‹вЂ‹</text><text x="0" y="0" fill="#131300" font-size="14" dominant-baseline="text-before-edge" text-anchor="middle" transform="translate(655.3988382388384, 479) rotate(0)">вЂ‹вЂ‹вЂ‹вЂ‹вЂ‹вЂ‹вЂ‹вЂ‹вЂ‹вЂ‹вЂ‹вЂ‹вЂ‹вЂ‹вЂ‹вЂ‹вЂ‹вЂ‹вЂ‹вЂ‹вЂ‹вЂ‹вЂ‹вЂ‹вЂ‹вЂ‹вЂ‹вЂ‹вЂ‹вЂ‹вЂ‹вЂ‹вЂ‹вЂ‹вЂ‹вЂ‹вЂ‹вЂ‹</text><text x="0" y="0" fill="#131300" font-size="14" dominant-baseline="text-before-edge" text-anchor="middle" transform="translate(670.9064503694192, 479) rotate(0)">вЂ‹вЂ‹вЂ‹вЂ‹вЂ‹вЂ‹вЂ‹вЂ‹вЂ‹вЂ‹вЂ‹вЂ‹вЂ‹вЂ‹вЂ‹вЂ‹вЂ‹вЂ‹вЂ‹вЂ‹вЂ‹вЂ‹вЂ‹вЂ‹вЂ‹вЂ‹вЂ‹вЂ‹вЂ‹вЂ‹вЂ‹вЂ‹вЂ‹вЂ‹вЂ‹вЂ‹вЂ‹вЂ‹вЂ‹</text><text x="0" y="0" fill="#131300" font-size="14" dominant-baseline="text-before-edge" text-anchor="middle" transform="translate(686.4140625, 479) rotate(0)">4.5</text></g><g class="ticks"><path d="M 81.61718940734863,469 L 81.61718940734863,474" fill="none" stroke="#131300" stroke-width="2"/><path d="M 97.12480153792944,469 L 97.12480153792944,474" fill="none" stroke="#131300" stroke-width="2"/><path d="M 112.63241366851024,469 L 112.63241366851024,474" fill="none" stroke="#131300" stroke-width="2"/><path d="M 128.14002579909106,469 L 128.14002579909106,474" fill="none" stroke="#131300" stroke-width="2"/><path d="M 143.64763792967184,469 L 143.64763792967184,474" fill="none" stroke="#131300" stroke-width="2"/><path d="M 159.15525006025265,469 L 159.15525006025265,474" fill="none" stroke="#131300" stroke-width="2"/><path d="M 174.66286219083347,469 L 174.66286219083347,474" fill="none" stroke="#131300" stroke-width="2"/><path d="M 190.17047432141425,469 L 190.17047432141425,474" fill="none" stroke="#131300" stroke-width="2"/><path d="M 205.67808645199506,469 L 205.67808645199506,474" fill="none" stroke="#131300" stroke-width="2"/><path d="M 221.18569858257587,469 L 221.18569858257587,474" fill="none" stroke="#131300" stroke-width="2"/><path d="M 236.69331071315668,469 L 236.69331071315668,474" fill="none" stroke="#131300" stroke-width="2"/><path d="M 252.2009228437375,469 L 252.2009228437375,474" fill="none" stroke="#131300" stroke-width="2"/><path d="M 267.7085349743183,469 L 267.7085349743183,474" fill="none" stroke="#131300" stroke-width="2"/><path d="M 283.2161471048991,469 L 283.2161471048991,474" fill="none" stroke="#131300" stroke-width="2"/><path d="M 298.72375923547986,469 L 298.72375923547986,474" fill="none" stroke="#131300" stroke-width="2"/><path d="M 314.23137136606067,469 L 314.23137136606067,474" fill="none" stroke="#131300" stroke-width="2"/><path d="M 329.7389834966415,469 L 329.7389834966415,474" fill="none" stroke="#131300" stroke-width="2"/><path d="M 345.2465956272223,469 L 345.2465956272223,474" fill="none" stroke="#131300" stroke-width="2"/><path d="M 360.7542077578031,469 L 360.7542077578031,474" fill="none" stroke="#131300" stroke-width="2"/><path d="M 376.2618198883839,469 L 376.2618198883839,474" fill="none" stroke="#131300" stroke-width="2"/><path d="M 391.7694320189647,469 L 391.7694320189647,474" fill="none" stroke="#131300" stroke-width="2"/><path d="M 407.27704414954553,469 L 407.27704414954553,474" fill="none" stroke="#131300" stroke-width="2"/><path d="M 422.78465628012634,469 L 422.78465628012634,474" fill="none" stroke="#131300" stroke-width="2"/><path d="M 438.29226841070715,469 L 438.29226841070715,474" fill="none" stroke="#131300" stroke-width="2"/><path d="M 453.79988054128796,469 L 453.79988054128796,474" fill="none" stroke="#131300" stroke-width="2"/><path d="M 469.3074926718688,469 L 469.3074926718688,474" fill="none" stroke="#131300" stroke-width="2"/><path d="M 484.8151048024496,469 L 484.8151048024496,474" fill="none" stroke="#131300" stroke-width="2"/><path d="M 500.32271693303034,469 L 500.32271693303034,474" fill="none" stroke="#131300" stroke-width="2"/><path d="M 515.8303290636111,469 L 515.8303290636111,474" fill="none" stroke="#131300" stroke-width="2"/><path d="M 531.3379411941919,469 L 531.3379411941919,474" fill="none" stroke="#131300" stroke-width="2"/><path d="M 546.8455533247727,469 L 546.8455533247727,474" fill="none" stroke="#131300" stroke-width="2"/><path d="M 562.3531654553535,469 L 562.3531654553535,474" fill="none" stroke="#131300" stroke-width="2"/><path d="M 577.8607775859343,469 L 577.8607775859343,474" fill="none" stroke="#131300" stroke-width="2"/><path d="M 593.3683897165151,469 L 593.3683897165151,474" fill="none" stroke="#131300" stroke-width="2"/><path d="M 608.876001847096,469 L 608.876001847096,474" fill="none" stroke="#131300" stroke-width="2"/><path d="M 624.3836139776768,469 L 624.3836139776768,474" fill="none" stroke="#131300" stroke-width="2"/><path d="M 639.8912261082576,469 L 639.8912261082576,474" fill="none" stroke="#131300" stroke-width="2"/><path d="M 655.3988382388384,469 L 655.3988382388384,474" fill="none" stroke="#131300" stroke-width="2"/><path d="M 670.9064503694192,469 L 670.9064503694192,474" fill="none" stroke="#131300" stroke-width="2"/><path d="M 686.4140625,469 L 686.4140625,474" fill="none" stroke="#131300" stroke-width="2"/></g></g><g class="left-axis"><g class="axisl-line"><path d="M 67.03125190734863,43.1796875 L 67.03125190734863,467" fill="none" stroke="#131300" stroke-width="2"/></g><g class="label"><text x="0" y="0" fill="#131300" font-size="14" dominant-baseline="middle" text-anchor="end" transform="translate(56.03125190734863, 65.2424568965517) rotate(0)">280</text><text x="0" y="0" fill="#131300" font-size="14" dominant-baseline="middle" text-anchor="end" transform="translate(56.03125190734863, 93.36799568965517) rotate(0)">260</text><text x="0" y="0" fill="#131300" font-size="14" dominant-baseline="middle" text-anchor="end" transform="translate(56.03125190734863, 121.49353448275863) rotate(0)">240</text><text x="0" y="0" fill="#131300" font-size="14" dominant-baseline="middle" text-anchor="end" transform="translate(56.03125190734863, 149.6190732758621) rotate(0)">220</text><text x="0" y="0" fill="#131300" font-size="14" dominant-baseline="middle" text-anchor="end" transform="translate(56.03125190734863, 177.74461206896552) rotate(0)">200</text><text x="0" y="0" fill="#131300" font-size="14" dominant-baseline="middle" text-anchor="end" transform="translate(56.03125190734863, 205.87015086206895) rotate(0)">180</text><text x="0" y="0" fill="#131300" font-size="14" dominant-baseline="middle" text-anchor="end" transform="translate(56.03125190734863, 233.9956896551724) rotate(0)">160</text><text x="0" y="0" fill="#131300" font-size="14" dominant-baseline="middle" text-anchor="end" transform="translate(56.03125190734863, 262.1212284482758) rotate(0)">140</text><text x="0" y="0" fill="#131300" font-size="14" dominant-baseline="middle" text-anchor="end" transform="translate(56.03125190734863, 290.2467672413793) rotate(0)">120</text><text x="0" y="0" fill="#131300" font-size="14" dominant-baseline="middle" text-anchor="end" transform="translate(56.03125190734863, 318.37230603448273) rotate(0)">100</text><text x="0" y="0" fill="#131300" font-size="14" dominant-baseline="middle" text-anchor="end" transform="translate(56.03125190734863, 346.4978448275862) rotate(0)">80</text><text x="0" y="0" fill="#131300" font-size="14" dominant-baseline="middle" text-anchor="end" transform="translate(56.03125190734863, 374.62338362068965) rotate(0)">60</text><text x="0" y="0" fill="#131300" font-size="14" dominant-baseline="middle" text-anchor="end" transform="translate(56.03125190734863, 402.7489224137931) rotate(0)">40</text><text x="0" y="0" fill="#131300" font-size="14" dominant-baseline="middle" text-anchor="end" transform="translate(56.03125190734863, 430.8744612068965) rotate(0)">20</text><text x="0" y="0" fill="#131300" font-size="14" dominant-baseline="middle" text-anchor="end" transform="translate(56.03125190734863, 459) rotate(0)">0</text></g><g class="ticks"><path d="M 66.03125190734863,65.2424568965517 L 61.03125190734863,65.2424568965517" fill="none" stroke="#131300" stroke-width="2"/><path d="M 66.03125190734863,93.36799568965517 L 61.03125190734863,93.36799568965517" fill="none" stroke="#131300" stroke-width="2"/><path d="M 66.03125190734863,121.49353448275863 L 61.03125190734863,121.49353448275863" fill="none" stroke="#131300" stroke-width="2"/><path d="M 66.03125190734863,149.6190732758621 L 61.03125190734863,149.6190732758621" fill="none" stroke="#131300" stroke-width="2"/><path d="M 66.03125190734863,177.74461206896552 L 61.03125190734863,177.74461206896552" fill="none" stroke="#131300" stroke-width="2"/><path d="M 66.03125190734863,205.87015086206895 L 61.03125190734863,205.87015086206895" fill="none" stroke="#131300" stroke-width="2"/><path d="M 66.03125190734863,233.9956896551724 L 61.03125190734863,233.9956896551724" fill="none" stroke="#131300" stroke-width="2"/><path d="M 66.03125190734863,262.1212284482758 L 61.03125190734863,262.1212284482758" fill="none" stroke="#131300" stroke-width="2"/><path d="M 66.03125190734863,290.2467672413793 L 61.03125190734863,290.2467672413793" fill="none" stroke="#131300" stroke-width="2"/><path d="M 66.03125190734863,318.37230603448273 L 61.03125190734863,318.37230603448273" fill="none" stroke="#131300" stroke-width="2"/><path d="M 66.03125190734863,346.4978448275862 L 61.03125190734863,346.4978448275862" fill="none" stroke="#131300" stroke-width="2"/><path d="M 66.03125190734863,374.62338362068965 L 61.03125190734863,374.62338362068965" fill="none" stroke="#131300" stroke-width="2"/><path d="M 66.03125190734863,402.7489224137931 L 61.03125190734863,402.7489224137931" fill="none" stroke="#131300" stroke-width="2"/><path d="M 66.03125190734863,430.8744612068965 L 61.03125190734863,430.8744612068965" fill="none" stroke="#131300" stroke-width="2"/><path d="M 66.03125190734863,459 L 61.03125190734863,459" fill="none" stroke="#131300" stroke-width="2"/></g><g class="title"><text x="0" y="0" fill="#131300" font-size="16" dominant-baseline="text-before-edge" text-anchor="middle" transform="translate(5, 255.08984375) rotate(270)">Members</text></g></g></g><g class="mermaid-tmp-group"/></svg>