<svg id="my-svg" width="100%" xmlns="http://www.w3.org/2000/svg" xmlns:xlink="http://www.w3.org/1999/xlink" style="max-width: 700px; background-color: white;" viewBox="0 0 700 500" role="graphics-document document" aria-roledescription="xychart"><style>#my-svg{font-family:"trebuchet ms",verdana,arial,sans-serif;font-size:16px;fill:#333;}@keyframes edge-animation-frame{from{stroke-dashoffset:0;}}@keyframes dash{to{stroke-dashoffset:0;}}#my-svg .edge-animation-slow{stroke-dasharray:9,5!important;stroke-dashoffset:900;animation:dash 50s linear infinite;stroke-linecap:round;}#my-svg .edge-animation-fast{stroke-dasharray:9,5!important;stroke-dashoffset:900;animation:dash 20s linear infinite;stroke-linecap:round;}#my-svg .error-icon{fill:#552222;}#my-svg .error-text{fill:#552222;stroke:#552222;}#my-svg .edge-thickness-normal{stroke-width:1px;}#my-svg .edge-thickness-thick{stroke-width:3.5px;}#my-svg .edge-pattern-solid{stroke-dasharray:0;}#my-svg .edge-thickness-invisible{stroke-width:0;fill:none;}#my-svg .edge-pattern-dashed{stroke-dasharray:3;}#my-svg .edge-pattern-dotted{stroke-dasharray:2;}#my-svg .marker{fill:#333333;stroke:#333333;}#my-svg .marker.cross{stroke:#333333;}#my-svg svg{font-family:"trebuchet ms",verdana,arial,sans-serif;font-size:16px;}#my-svg p{margin:0;}#my-svg :root{--mermaid-font-family:"trebuchet ms",verdana,arial,sans-serif;}</style><g/><g class="main"><rect width="700" height="500" class="background" fill="white"/><g class="chart-title"><text x="0" y="0" fill="#131300" font-size="20" dominant-baseline="middle" text-anchor="middle" transform="translate(350, 21.58984375) rotate(0)">Daily Cumulative Member Tally (2026) - Full Scale</text></g><g class="plot"><g class="bar-plot-0"><rect x="69.12681920217432" y="197.05387620192306" width="24.98074041034864" height="269.94612379807694" fill="#ECECFF" stroke="#ECECFF" stroke-width="0"/><rect x="96.6175861609312" y="192.34825721153845" width="24.98074041034864" height="274.65174278846155" fill="#ECECFF" stroke="#ECECFF" stroke-width="0"/><rect x="124.10835311968808" y="187.64263822115387" width="24.98074041034864" height="279.3573617788461" fill="#ECECFF" stroke="#ECECFF" stroke-width="0"/><rect x="151.59912007844497" y="184.50555889423077" width="24.98074041034864" height="282.4944411057692" fill="#ECECFF" stroke="#ECECFF" stroke-width="0"/><rect x="179.08988703720183" y="175.09432091346156" width="24.98074041034864" height="291.90567908653844" fill="#ECECFF" stroke="#ECECFF" stroke-width="0"/><rect x="206.5806539959587" y="171.95724158653846" width="24.98074041034864" height="295.04275841346157" fill="#ECECFF" stroke="#ECECFF" stroke-width="0"/><rect x="234.0714209547156" y="171.95724158653846" width="24.98074041034864" height="295.04275841346157" fill="#ECECFF" stroke="#ECECFF" stroke-width="0"/><rect x="261.5621879134725" y="167.25162259615385" width="24.98074041034864" height="299.7483774038461" fill="#ECECFF" stroke="#ECECFF" stroke-width="0"/><rect x="289.05295487222935" y="165.68308293269232" width="24.98074041034864" height="301.3169170673077" fill="#ECECFF" stroke="#ECECFF" stroke-width="0"/><rect x="316.5437218309862" y="160.9774639423077" width="24.98074041034864" height="306.02253605769226" fill="#ECECFF" stroke="#ECECFF" stroke-width="0"/><rect x="344.0344887897431" y="151.56622596153846" width="24.98074041034864" height="315.43377403846154" fill="#ECECFF" stroke="#ECECFF" stroke-width="0"/><rect x="371.5252557485" y="140.58644831730768" width="24.98074041034864" height="326.4135516826923" fill="#ECECFF" stroke="#ECECFF" stroke-width="0"/><rect x="399.01602270725687" y="128.03813100961537" width="24.98074041034864" height="338.96186899038463" fill="#ECECFF" stroke="#ECECFF" stroke-width="0"/><rect x="426.50678966601373" y="123.33251201923079" width="24.98074041034864" height="343.66748798076924" fill="#ECECFF" stroke="#ECECFF" stroke-width="0"/><rect x="453.99755662477065" y="118.62689302884613" width="24.98074041034864" height="348.3731069711539" fill="#ECECFF" stroke="#ECECFF" stroke-width="0"/><rect x="481.4883235835275" y="118.62689302884613" width="24.98074041034864" height="348.3731069711539" fill="#ECECFF" stroke="#ECECFF" stroke-width="0"/><rect x="508.9790905422844" y="118.62689302884613" width="24.98074041034864" height="348.3731069711539" fill="#ECECFF" stroke="#ECECFF" stroke-width="0"/><rect x="536.4698575010412" y="113.92127403846153" width="24.98074041034864" height="353.07872596153845" fill="#ECECFF" stroke="#ECECFF" stroke-width="0"/><rect x="563.960624459798" y="106.07857572115384" width="24.98074041034864" height="360.9214242788462" fill="#ECECFF" stroke="#ECECFF" stroke-width="0"/><rect x="591.451391418555" y="96.66733774038464" width="24.98074041034864" height="370.33266225961535" fill="#ECECFF" stroke="#ECECFF" stroke-width="0"/><rect x="618.9421583773118" y="91.96171874999999" width="24.98074041034864" height="375.03828125" fill="#ECECFF" stroke="#ECECFF" stroke-width="0"/><rect x="646.4329253360687" y="87.2560997596154" width="24.98074041034864" height="379.7439002403846" fill="#ECECFF" stroke="#ECECFF" stroke-width="0"/><rect x="673.9236922948256" y="82.55048076923075" width="24.98074041034864" height="384.4495192307693" fill="#ECECFF" stroke="#ECECFF" stroke-width="0"/></g></g><g class="bottom-axis"><g class="axis-line"><path d="M 68.03125190734863,468 L 700,468" fill="none" stroke="#131300" stroke-width="2"/></g><g class="label"><text x="0" y="0" fill="#131300" font-size="14" dominant-baseline="text-before-edge" text-anchor="middle" transform="translate(81.61718940734863, 479) rotate(0)">2.25</text><text x="0" y="0" fill="#131300" font-size="14" dominant-baseline="text-before-edge" text-anchor="middle" transform="translate(109.10795636610551, 479) rotate(0)">26</text><text x="0" y="0" fill="#131300" font-size="14" dominant-baseline="text-before-edge" text-anchor="middle" transform="translate(136.5987233248624, 479) rotate(0)">27</text><text x="0" y="0" fill="#131300" font-size="14" dominant-baseline="text-before-edge" text-anchor="middle" transform="translate(164.08949028361928, 479) rotate(0)">28</text><text x="0" y="0" fill="#131300" font-size="14" dominant-baseline="text-before-edge" text-anchor="middle" transform="translate(191.58025724237615, 479) rotate(0)">3.1</text><text x="0" y="0" fill="#131300" font-size="14" dominant-baseline="text-before-edge" text-anchor="middle" transform="translate(219.071024201133, 479) rotate(0)">2</text><text x="0" y="0" fill="#131300" font-size="14" dominant-baseline="text-before-edge" text-anchor="middle" transform="translate(246.5617911598899, 479) rotate(0)">3</text><text x="0" y="0" fill="#131300" font-size="14" dominant-baseline="text-before-edge" text-anchor="middle" transform="translate(274.0525581186468, 479) rotate(0)">4</text><text x="0" y="0" fill="#131300" font-size="14" dominant-baseline="text-before-edge" text-anchor="middle" transform="translate(301.54332507740367, 479) rotate(0)">5</text><text x="0" y="0" fill="#131300" font-size="14" dominant-baseline="text-before-edge" text-anchor="middle" transform="translate(329.03409203616053, 479) rotate(0)">6</text><text x="0" y="0" fill="#131300" font-size="14" dominant-baseline="text-before-edge" text-anchor="middle" transform="translate(356.5248589949174, 479) rotate(0)">7</text><text x="0" y="0" fill="#131300" font-size="14" dominant-baseline="text-before-edge" text-anchor="middle" transform="translate(384.0156259536743, 479) rotate(0)">8</text><text x="0" y="0" fill="#131300" font-size="14" dominant-baseline="text-before-edge" text-anchor="middle" transform="translate(411.5063929124312, 479) rotate(0)">9</text><text x="0" y="0" fill="#131300" font-size="14" dominant-baseline="text-before-edge" text-anchor="middle" transform="translate(438.99715987118805, 479) rotate(0)">10</text><text x="0" y="0" fill="#131300" font-size="14" dominant-baseline="text-before-edge" text-anchor="middle" transform="translate(466.48792682994497, 479) rotate(0)">11</text><text x="0" y="0" fill="#131300" font-size="14" dominant-baseline="text-before-edge" text-anchor="middle" transform="translate(493.97869378870183, 479) rotate(0)">12</text><text x="0" y="0" fill="#131300" font-size="14" dominant-baseline="text-before-edge" text-anchor="middle" transform="translate(521.4694607474587, 479) rotate(0)">13</text><text x="0" y="0" fill="#131300" font-size="14" dominant-baseline="text-before-edge" text-anchor="middle" transform="translate(548.9602277062156, 479) rotate(0)">14</text><text x="0" y="0" fill="#131300" font-size="14" dominant-baseline="text-before-edge" text-anchor="middle" transform="translate(576.4509946649724, 479) rotate(0)">15</text><text x="0" y="0" fill="#131300" font-size="14" dominant-baseline="text-before-edge" text-anchor="middle" transform="translate(603.9417616237293, 479) rotate(0)">16</text><text x="0" y="0" fill="#131300" font-size="14" dominant-baseline="text-before-edge" text-anchor="middle" transform="translate(631.4325285824862, 479) rotate(0)">17</text><text x="0" y="0" fill="#131300" font-size="14" dominant-baseline="text-before-edge" text-anchor="middle" transform="translate(658.9232955412431, 479) rotate(0)">18</text><text x="0" y="0" fill="#131300" font-size="14" dominant-baseline="text-before-edge" text-anchor="middle" transform="translate(686.4140625, 479) rotate(0)">19</text></g><g class="ticks"><path d="M 81.61718940734863,469 L 81.61718940734863,474" fill="none" stroke="#131300" stroke-width="2"/><path d="M 109.10795636610551,469 L 109.10795636610551,474" fill="none" stroke="#131300" stroke-width="2"/><path d="M 136.5987233248624,469 L 136.5987233248624,474" fill="none" stroke="#131300" stroke-width="2"/><path d="M 164.08949028361928,469 L 164.08949028361928,474" fill="none" stroke="#131300" stroke-width="2"/><path d="M 191.58025724237615,469 L 191.58025724237615,474" fill="none" stroke="#131300" stroke-width="2"/><path d="M 219.071024201133,469 L 219.071024201133,474" fill="none" stroke="#131300" stroke-width="2"/><path d="M 246.5617911598899,469 L 246.5617911598899,474" fill="none" stroke="#131300" stroke-width="2"/><path d="M 274.0525581186468,469 L 274.0525581186468,474" fill="none" stroke="#131300" stroke-width="2"/><path d="M 301.54332507740367,469 L 301.54332507740367,474" fill="none" stroke="#131300" stroke-width="2"/><path d="M 329.03409203616053,469 L 329.03409203616053,474" fill="none" stroke="#131300" stroke-width="2"/><path d="M 356.5248589949174,469 L 356.5248589949174,474" fill="none" stroke="#131300" stroke-width="2"/><path d="M 384.0156259536743,469 L 384.0156259536743,474" fill="none" stroke="#131300" stroke-width="2"/><path d="M 411.5063929124312,469 L 411.5063929124312,474" fill="none" stroke="#131300" stroke-width="2"/><path d="M 438.99715987118805,469 L 438.99715987118805,474" fill="none" stroke="#131300" stroke-width="2"/><path d="M 466.48792682994497,469 L 466.48792682994497,474" fill="none" stroke="#131300" stroke-width="2"/><path d="M 493.97869378870183,469 L 493.97869378870183,474" fill="none" stroke="#131300" stroke-width="2"/><path d="M 521.4694607474587,469 L 521.4694607474587,474" fill="none" stroke="#131300" stroke-width="2"/><path d="M 548.9602277062156,469 L 548.9602277062156,474" fill="none" stroke="#131300" stroke-width="2"/><path d="M 576.4509946649724,469 L 576.4509946649724,474" fill="none" stroke="#131300" stroke-width="2"/><path d="M 603.9417616237293,469 L 603.9417616237293,474" fill="none" stroke="#131300" stroke-width="2"/><path d="M 631.4325285824862,469 L 631.4325285824862,474" fill="none" stroke="#131300" stroke-width="2"/><path d="M 658.9232955412431,469 L 658.9232955412431,474" fill="none" stroke="#131300" stroke-width="2"/><path d="M 686.4140625,469 L 686.4140625,474" fill="none" stroke="#131300" stroke-width="2"/></g></g><g class="left-axis"><g class="axisl-line"><path d="M 67.03125190734863,43.1796875 L 67.03125190734863,467" fill="none" stroke="#131300" stroke-width="2"/></g><g class="label"><text x="0" y="0" fill="#131300" font-size="14" dominant-baseline="middle" text-anchor="end" transform="translate(56.03125190734863, 51.1796875) rotate(0)">260</text><text x="0" y="0" fill="#131300" font-size="14" dominant-baseline="middle" text-anchor="end" transform="translate(56.03125190734863, 82.55048076923075) rotate(0)">240</text><text x="0" y="0" fill="#131300" font-size="14" dominant-baseline="middle" text-anchor="end" transform="translate(56.03125190734863, 113.92127403846153) rotate(0)">220</text><text x="0" y="0" fill="#131300" font-size="14" dominant-baseline="middle" text-anchor="end" transform="translate(56.03125190734863, 145.2920673076923) rotate(0)">200</text><text x="0" y="0" fill="#131300" font-size="14" dominant-baseline="middle" text-anchor="end" transform="translate(56.03125190734863, 176.66286057692307) rotate(0)">180</text><text x="0" y="0" fill="#131300" font-size="14" dominant-baseline="middle" text-anchor="end" transform="translate(56.03125190734863, 208.03365384615384) rotate(0)">160</text><text x="0" y="0" fill="#131300" font-size="14" dominant-baseline="middle" text-anchor="end" transform="translate(56.03125190734863, 239.40444711538464) rotate(0)">140</text><text x="0" y="0" fill="#131300" font-size="14" dominant-baseline="middle" text-anchor="end" transform="translate(56.03125190734863, 270.77524038461536) rotate(0)">120</text><text x="0" y="0" fill="#131300" font-size="14" dominant-baseline="middle" text-anchor="end" transform="translate(56.03125190734863, 302.14603365384613) rotate(0)">100</text><text x="0" y="0" fill="#131300" font-size="14" dominant-baseline="middle" text-anchor="end" transform="translate(56.03125190734863, 333.5168269230769) rotate(0)">80</text><text x="0" y="0" fill="#131300" font-size="14" dominant-baseline="middle" text-anchor="end" transform="translate(56.03125190734863, 364.8876201923077) rotate(0)">60</text><text x="0" y="0" fill="#131300" font-size="14" dominant-baseline="middle" text-anchor="end" transform="translate(56.03125190734863, 396.25841346153845) rotate(0)">40</text><text x="0" y="0" fill="#131300" font-size="14" dominant-baseline="middle" text-anchor="end" transform="translate(56.03125190734863, 427.6292067307693) rotate(0)">20</text><text x="0" y="0" fill="#131300" font-size="14" dominant-baseline="middle" text-anchor="end" transform="translate(56.03125190734863, 459) rotate(0)">0</text></g><g class="ticks"><path d="M 66.03125190734863,51.1796875 L 61.03125190734863,51.1796875" fill="none" stroke="#131300" stroke-width="2"/><path d="M 66.03125190734863,82.55048076923075 L 61.03125190734863,82.55048076923075" fill="none" stroke="#131300" stroke-width="2"/><path d="M 66.03125190734863,113.92127403846153 L 61.03125190734863,113.92127403846153" fill="none" stroke="#131300" stroke-width="2"/><path d="M 66.03125190734863,145.2920673076923 L 61.03125190734863,145.2920673076923" fill="none" stroke="#131300" stroke-width="2"/><path d="M 66.03125190734863,176.66286057692307 L 61.03125190734863,176.66286057692307" fill="none" stroke="#131300" stroke-width="2"/><path d="M 66.03125190734863,208.03365384615384 L 61.03125190734863,208.03365384615384" fill="none" stroke="#131300" stroke-width="2"/><path d="M 66.03125190734863,239.40444711538464 L 61.03125190734863,239.40444711538464" fill="none" stroke="#131300" stroke-width="2"/><path d="M 66.03125190734863,270.77524038461536 L 61.03125190734863,270.77524038461536" fill="none" stroke="#131300" stroke-width="2"/><path d="M 66.03125190734863,302.14603365384613 L 61.03125190734863,302.14603365384613" fill="none" stroke="#131300" stroke-width="2"/><path d="M 66.03125190734863,333.5168269230769 L 61.03125190734863,333.5168269230769" fill="none" stroke="#131300" stroke-width="2"/><path d="M 66.03125190734863,364.8876201923077 L 61.03125190734863,364.8876201923077" fill="none" stroke="#131300" stroke-width="2"/><path d="M 66.03125190734863,396.25841346153845 L 61.03125190734863,396.25841346153845" fill="none" stroke="#131300" stroke-width="2"/><path d="M 66.03125190734863,427.6292067307693 L 61.03125190734863,427.6292067307693" fill="none" stroke="#131300" stroke-width="2"/><path d="M 66.03125190734863,459 L 61.03125190734863,459" fill="none" stroke="#131300" stroke-width="2"/></g><g class="title"><text x="0" y="0" fill="#131300" font-size="16" dominant-baseline="text-before-edge" text-anchor="middle" transform="translate(5, 255.08984375) rotate(270)">Members</text></g></g></g><g class="mermaid-tmp-group"/></svg>