<svg id="my-svg" width="100%" xmlns="http://www.w3.org/2000/svg" xmlns:xlink="http://www.w3.org/1999/xlink" style="max-width: 700px; background-color: white;" viewBox="0 0 700 500" role="graphics-document document" aria-roledescription="xychart"><style>#my-svg{font-family:"trebuchet ms",verdana,arial,sans-serif;font-size:16px;fill:#333;}@keyframes edge-animation-frame{from{stroke-dashoffset:0;}}@keyframes dash{to{stroke-dashoffset:0;}}#my-svg .edge-animation-slow{stroke-dasharray:9,5!important;stroke-dashoffset:900;animation:dash 50s linear infinite;stroke-linecap:round;}#my-svg .edge-animation-fast{stroke-dasharray:9,5!important;stroke-dashoffset:900;animation:dash 20s linear infinite;stroke-linecap:round;}#my-svg .error-icon{fill:#552222;}#my-svg .error-text{fill:#552222;stroke:#552222;}#my-svg .edge-thickness-normal{stroke-width:1px;}#my-svg .edge-thickness-thick{stroke-width:3.5px;}#my-svg .edge-pattern-solid{stroke-dasharray:0;}#my-svg .edge-thickness-invisible{stroke-width:0;fill:none;}#my-svg .edge-pattern-dashed{stroke-dasharray:3;}#my-svg .edge-pattern-dotted{stroke-dasharray:2;}#my-svg .marker{fill:#333333;stroke:#333333;}#my-svg .marker.cross{stroke:#333333;}#my-svg svg{font-family:"trebuchet ms",verdana,arial,sans-serif;font-size:16px;}#my-svg p{margin:0;}#my-svg :root{--mermaid-font-family:"trebuchet ms",verdana,arial,sans-serif;}</style><g/><g class="main"><rect width="700" height="500" class="background" fill="white"/><g class="chart-title"><text x="0" y="0" fill="#131300" font-size="20" dominant-baseline="middle" text-anchor="middle" transform="translate(350, 21.58984375) rotate(0)">Daily Cumulative Member Tally (2026) - Zoomed</text></g><g class="plot"><g class="bar-plot-0"><rect x="73.40923184394836" y="395.97322443181815" width="16.415915126800538" height="71.02677556818185" fill="#ECECFF" stroke="#ECECFF" stroke-width="0"/><rect x="92.91880839532422" y="384.85085227272725" width="16.415915126800538" height="82.14914772727275" fill="#ECECFF" stroke="#ECECFF" stroke-width="0"/><rect x="112.42838494670006" y="373.72848011363635" width="16.415915126800538" height="93.27151988636365" fill="#ECECFF" stroke="#ECECFF" stroke-width="0"/><rect x="131.9379614980759" y="366.3135653409091" width="16.415915126800538" height="100.68643465909088" fill="#ECECFF" stroke="#ECECFF" stroke-width="0"/><rect x="151.44753804945177" y="344.0688210227273" width="16.415915126800538" height="122.93117897727268" fill="#ECECFF" stroke="#ECECFF" stroke-width="0"/><rect x="170.95711460082762" y="336.65390625" width="16.415915126800538" height="130.34609375000002" fill="#ECECFF" stroke="#ECECFF" stroke-width="0"/><rect x="190.46669115220345" y="336.65390625" width="16.415915126800538" height="130.34609375000002" fill="#ECECFF" stroke="#ECECFF" stroke-width="0"/><rect x="209.9762677035793" y="325.53153409090913" width="16.415915126800538" height="141.46846590909087" fill="#ECECFF" stroke="#ECECFF" stroke-width="0"/><rect x="229.48584425495517" y="321.8240767045454" width="16.415915126800538" height="145.1759232954546" fill="#ECECFF" stroke="#ECECFF" stroke-width="0"/><rect x="248.99542080633103" y="310.7017045454545" width="16.415915126800538" height="156.2982954545455" fill="#ECECFF" stroke="#ECECFF" stroke-width="0"/><rect x="268.5049973577069" y="288.45696022727276" width="16.415915126800538" height="178.54303977272724" fill="#ECECFF" stroke="#ECECFF" stroke-width="0"/><rect x="288.0145739090827" y="262.5047585227273" width="16.415915126800538" height="204.4952414772727" fill="#ECECFF" stroke="#ECECFF" stroke-width="0"/><rect x="307.52415046045854" y="232.8450994318182" width="16.415915126800538" height="234.1549005681818" fill="#ECECFF" stroke="#ECECFF" stroke-width="0"/><rect x="327.0337270118344" y="221.7227272727273" width="16.415915126800538" height="245.2772727272727" fill="#ECECFF" stroke="#ECECFF" stroke-width="0"/><rect x="346.54330356321026" y="210.60035511363634" width="16.415915126800538" height="256.39964488636366" fill="#ECECFF" stroke="#ECECFF" stroke-width="0"/><rect x="366.0528801145861" y="210.60035511363634" width="16.415915126800538" height="256.39964488636366" fill="#ECECFF" stroke="#ECECFF" stroke-width="0"/><rect x="385.562456665962" y="210.60035511363634" width="16.415915126800538" height="256.39964488636366" fill="#ECECFF" stroke="#ECECFF" stroke-width="0"/><rect x="405.07203321733783" y="199.47798295454544" width="16.415915126800538" height="267.52201704545456" fill="#ECECFF" stroke="#ECECFF" stroke-width="0"/><rect x="424.5816097687137" y="180.94069602272728" width="16.415915126800538" height="286.05930397727275" fill="#ECECFF" stroke="#ECECFF" stroke-width="0"/><rect x="444.09118632008955" y="158.69595170454548" width="16.415915126800538" height="308.30404829545455" fill="#ECECFF" stroke="#ECECFF" stroke-width="0"/><rect x="463.6007628714654" y="147.57357954545452" width="16.415915126800538" height="319.42642045454545" fill="#ECECFF" stroke="#ECECFF" stroke-width="0"/><rect x="483.1103394228412" y="136.45120738636365" width="16.415915126800538" height="330.54879261363635" fill="#ECECFF" stroke="#ECECFF" stroke-width="0"/><rect x="502.61991597421707" y="125.32883522727269" width="16.415915126800538" height="341.6711647727273" fill="#ECECFF" stroke="#ECECFF" stroke-width="0"/><rect x="522.1294925255929" y="125.32883522727269" width="16.415915126800538" height="341.6711647727273" fill="#ECECFF" stroke="#ECECFF" stroke-width="0"/><rect x="541.6390690769688" y="110.4990056818182" width="16.415915126800538" height="356.5009943181818" fill="#ECECFF" stroke="#ECECFF" stroke-width="0"/><rect x="561.1486456283446" y="103.08409090909092" width="16.415915126800538" height="363.91590909090905" fill="#ECECFF" stroke="#ECECFF" stroke-width="0"/><rect x="580.6582221797205" y="103.08409090909092" width="16.415915126800538" height="363.91590909090905" fill="#ECECFF" stroke="#ECECFF" stroke-width="0"/><rect x="600.1677987310964" y="103.08409090909092" width="16.415915126800538" height="363.91590909090905" fill="#ECECFF" stroke="#ECECFF" stroke-width="0"/><rect x="619.6773752824722" y="103.08409090909092" width="16.415915126800538" height="363.91590909090905" fill="#ECECFF" stroke="#ECECFF" stroke-width="0"/><rect x="92.91880839532422" y="103.08409090909092" width="16.415915126800538" height="363.91590909090905" fill="#ECECFF" stroke="#ECECFF" stroke-width="0"/><rect x="112.42838494670006" y="103.08409090909092" width="16.415915126800538" height="363.91590909090905" fill="#ECECFF" stroke="#ECECFF" stroke-width="0"/><rect x="131.9379614980759" y="103.08409090909092" width="16.415915126800538" height="363.91590909090905" fill="#ECECFF" stroke="#ECECFF" stroke-width="0"/><rect x="639.1869518338481" y="103.08409090909092" width="16.415915126800538" height="363.91590909090905" fill="#ECECFF" stroke="#ECECFF" stroke-width="0"/><rect x="658.6965283852239" y="103.08409090909092" width="16.415915126800538" height="363.91590909090905" fill="#ECECFF" stroke="#ECECFF" stroke-width="0"/><rect x="678.2061049365998" y="99.37663352272726" width="16.415915126800538" height="367.6233664772727" fill="#ECECFF" stroke="#ECECFF" stroke-width="0"/></g></g><g class="bottom-axis"><g class="axis-line"><path d="M 68.03125190734863,468 L 700,468" fill="none" stroke="#131300" stroke-width="2"/></g><g class="label"><text x="0" y="0" fill="#131300" font-size="14" dominant-baseline="text-before-edge" text-anchor="middle" transform="translate(81.61718940734863, 479) rotate(0)">2.25</text><text x="0" y="0" fill="#131300" font-size="14" dominant-baseline="text-before-edge" text-anchor="middle" transform="translate(101.12676595872449, 479) rotate(0)">26</text><text x="0" y="0" fill="#131300" font-size="14" dominant-baseline="text-before-edge" text-anchor="middle" transform="translate(120.63634251010033, 479) rotate(0)">27</text><text x="0" y="0" fill="#131300" font-size="14" dominant-baseline="text-before-edge" text-anchor="middle" transform="translate(140.14591906147618, 479) rotate(0)">28</text><text x="0" y="0" fill="#131300" font-size="14" dominant-baseline="text-before-edge" text-anchor="middle" transform="translate(159.65549561285204, 479) rotate(0)">3.1</text><text x="0" y="0" fill="#131300" font-size="14" dominant-baseline="text-before-edge" text-anchor="middle" transform="translate(179.1650721642279, 479) rotate(0)">2</text><text x="0" y="0" fill="#131300" font-size="14" dominant-baseline="text-before-edge" text-anchor="middle" transform="translate(198.67464871560372, 479) rotate(0)">3</text><text x="0" y="0" fill="#131300" font-size="14" dominant-baseline="text-before-edge" text-anchor="middle" transform="translate(218.18422526697958, 479) rotate(0)">4</text><text x="0" y="0" fill="#131300" font-size="14" dominant-baseline="text-before-edge" text-anchor="middle" transform="translate(237.69380181835544, 479) rotate(0)">5</text><text x="0" y="0" fill="#131300" font-size="14" dominant-baseline="text-before-edge" text-anchor="middle" transform="translate(257.2033783697313, 479) rotate(0)">6</text><text x="0" y="0" fill="#131300" font-size="14" dominant-baseline="text-before-edge" text-anchor="middle" transform="translate(276.71295492110715, 479) rotate(0)">7</text><text x="0" y="0" fill="#131300" font-size="14" dominant-baseline="text-before-edge" text-anchor="middle" transform="translate(296.22253147248296, 479) rotate(0)">8</text><text x="0" y="0" fill="#131300" font-size="14" dominant-baseline="text-before-edge" text-anchor="middle" transform="translate(315.7321080238588, 479) rotate(0)">9</text><text x="0" y="0" fill="#131300" font-size="14" dominant-baseline="text-before-edge" text-anchor="middle" transform="translate(335.2416845752347, 479) rotate(0)">10</text><text x="0" y="0" fill="#131300" font-size="14" dominant-baseline="text-before-edge" text-anchor="middle" transform="translate(354.75126112661053, 479) rotate(0)">11</text><text x="0" y="0" fill="#131300" font-size="14" dominant-baseline="text-before-edge" text-anchor="middle" transform="translate(374.2608376779864, 479) rotate(0)">12</text><text x="0" y="0" fill="#131300" font-size="14" dominant-baseline="text-before-edge" text-anchor="middle" transform="translate(393.77041422936225, 479) rotate(0)">13</text><text x="0" y="0" fill="#131300" font-size="14" dominant-baseline="text-before-edge" text-anchor="middle" transform="translate(413.2799907807381, 479) rotate(0)">14</text><text x="0" y="0" fill="#131300" font-size="14" dominant-baseline="text-before-edge" text-anchor="middle" transform="translate(432.78956733211396, 479) rotate(0)">15</text><text x="0" y="0" fill="#131300" font-size="14" dominant-baseline="text-before-edge" text-anchor="middle" transform="translate(452.2991438834898, 479) rotate(0)">16</text><text x="0" y="0" fill="#131300" font-size="14" dominant-baseline="text-before-edge" text-anchor="middle" transform="translate(471.8087204348657, 479) rotate(0)">17</text><text x="0" y="0" fill="#131300" font-size="14" dominant-baseline="text-before-edge" text-anchor="middle" transform="translate(491.3182969862415, 479) rotate(0)">18</text><text x="0" y="0" fill="#131300" font-size="14" dominant-baseline="text-before-edge" text-anchor="middle" transform="translate(510.82787353761734, 479) rotate(0)">19</text><text x="0" y="0" fill="#131300" font-size="14" dominant-baseline="text-before-edge" text-anchor="middle" transform="translate(530.3374500889931, 479) rotate(0)">20</text><text x="0" y="0" fill="#131300" font-size="14" dominant-baseline="text-before-edge" text-anchor="middle" transform="translate(549.847026640369, 479) rotate(0)">21</text><text x="0" y="0" fill="#131300" font-size="14" dominant-baseline="text-before-edge" text-anchor="middle" transform="translate(569.3566031917449, 479) rotate(0)">22</text><text x="0" y="0" fill="#131300" font-size="14" dominant-baseline="text-before-edge" text-anchor="middle" transform="translate(588.8661797431207, 479) rotate(0)">23</text><text x="0" y="0" fill="#131300" font-size="14" dominant-baseline="text-before-edge" text-anchor="middle" transform="translate(608.3757562944966, 479) rotate(0)">24</text><text x="0" y="0" fill="#131300" font-size="14" dominant-baseline="text-before-edge" text-anchor="middle" transform="translate(627.8853328458724, 479) rotate(0)">25</text><text x="0" y="0" fill="#131300" font-size="14" dominant-baseline="text-before-edge" text-anchor="middle" transform="translate(101.12676595872449, 479) rotate(0)">26</text><text x="0" y="0" fill="#131300" font-size="14" dominant-baseline="text-before-edge" text-anchor="middle" transform="translate(120.63634251010033, 479) rotate(0)">27</text><text x="0" y="0" fill="#131300" font-size="14" dominant-baseline="text-before-edge" text-anchor="middle" transform="translate(140.14591906147618, 479) rotate(0)">28</text><text x="0" y="0" fill="#131300" font-size="14" dominant-baseline="text-before-edge" text-anchor="middle" transform="translate(647.3949093972483, 479) rotate(0)">29</text><text x="0" y="0" fill="#131300" font-size="14" dominant-baseline="text-before-edge" text-anchor="middle" transform="translate(666.9044859486241, 479) rotate(0)">30</text><text x="0" y="0" fill="#131300" font-size="14" dominant-baseline="text-before-edge" text-anchor="middle" transform="translate(686.4140625, 479) rotate(0)">31</text></g><g class="ticks"><path d="M 81.61718940734863,469 L 81.61718940734863,474" fill="none" stroke="#131300" stroke-width="2"/><path d="M 101.12676595872449,469 L 101.12676595872449,474" fill="none" stroke="#131300" stroke-width="2"/><path d="M 120.63634251010033,469 L 120.63634251010033,474" fill="none" stroke="#131300" stroke-width="2"/><path d="M 140.14591906147618,469 L 140.14591906147618,474" fill="none" stroke="#131300" stroke-width="2"/><path d="M 159.65549561285204,469 L 159.65549561285204,474" fill="none" stroke="#131300" stroke-width="2"/><path d="M 179.1650721642279,469 L 179.1650721642279,474" fill="none" stroke="#131300" stroke-width="2"/><path d="M 198.67464871560372,469 L 198.67464871560372,474" fill="none" stroke="#131300" stroke-width="2"/><path d="M 218.18422526697958,469 L 218.18422526697958,474" fill="none" stroke="#131300" stroke-width="2"/><path d="M 237.69380181835544,469 L 237.69380181835544,474" fill="none" stroke="#131300" stroke-width="2"/><path d="M 257.2033783697313,469 L 257.2033783697313,474" fill="none" stroke="#131300" stroke-width="2"/><path d="M 276.71295492110715,469 L 276.71295492110715,474" fill="none" stroke="#131300" stroke-width="2"/><path d="M 296.22253147248296,469 L 296.22253147248296,474" fill="none" stroke="#131300" stroke-width="2"/><path d="M 315.7321080238588,469 L 315.7321080238588,474" fill="none" stroke="#131300" stroke-width="2"/><path d="M 335.2416845752347,469 L 335.2416845752347,474" fill="none" stroke="#131300" stroke-width="2"/><path d="M 354.75126112661053,469 L 354.75126112661053,474" fill="none" stroke="#131300" stroke-width="2"/><path d="M 374.2608376779864,469 L 374.2608376779864,474" fill="none" stroke="#131300" stroke-width="2"/><path d="M 393.77041422936225,469 L 393.77041422936225,474" fill="none" stroke="#131300" stroke-width="2"/><path d="M 413.2799907807381,469 L 413.2799907807381,474" fill="none" stroke="#131300" stroke-width="2"/><path d="M 432.78956733211396,469 L 432.78956733211396,474" fill="none" stroke="#131300" stroke-width="2"/><path d="M 452.2991438834898,469 L 452.2991438834898,474" fill="none" stroke="#131300" stroke-width="2"/><path d="M 471.8087204348657,469 L 471.8087204348657,474" fill="none" stroke="#131300" stroke-width="2"/><path d="M 491.3182969862415,469 L 491.3182969862415,474" fill="none" stroke="#131300" stroke-width="2"/><path d="M 510.82787353761734,469 L 510.82787353761734,474" fill="none" stroke="#131300" stroke-width="2"/><path d="M 530.3374500889931,469 L 530.3374500889931,474" fill="none" stroke="#131300" stroke-width="2"/><path d="M 549.847026640369,469 L 549.847026640369,474" fill="none" stroke="#131300" stroke-width="2"/><path d="M 569.3566031917449,469 L 569.3566031917449,474" fill="none" stroke="#131300" stroke-width="2"/><path d="M 588.8661797431207,469 L 588.8661797431207,474" fill="none" stroke="#131300" stroke-width="2"/><path d="M 608.3757562944966,469 L 608.3757562944966,474" fill="none" stroke="#131300" stroke-width="2"/><path d="M 627.8853328458724,469 L 627.8853328458724,474" fill="none" stroke="#131300" stroke-width="2"/><path d="M 101.12676595872449,469 L 101.12676595872449,474" fill="none" stroke="#131300" stroke-width="2"/><path d="M 120.63634251010033,469 L 120.63634251010033,474" fill="none" stroke="#131300" stroke-width="2"/><path d="M 140.14591906147618,469 L 140.14591906147618,474" fill="none" stroke="#131300" stroke-width="2"/><path d="M 647.3949093972483,469 L 647.3949093972483,474" fill="none" stroke="#131300" stroke-width="2"/><path d="M 666.9044859486241,469 L 666.9044859486241,474" fill="none" stroke="#131300" stroke-width="2"/><path d="M 686.4140625,469 L 686.4140625,474" fill="none" stroke="#131300" stroke-width="2"/></g></g><g class="left-axis"><g class="axisl-line"><path d="M 67.03125190734863,43.1796875 L 67.03125190734863,467" fill="none" stroke="#131300" stroke-width="2"/></g><g class="label"><text x="0" y="0" fill="#131300" font-size="14" dominant-baseline="middle" text-anchor="end" transform="translate(56.03125190734863, 51.1796875) rotate(0)">260</text><text x="0" y="0" fill="#131300" font-size="14" dominant-baseline="middle" text-anchor="end" transform="translate(56.03125190734863, 88.25426136363637) rotate(0)">250</text><text x="0" y="0" fill="#131300" font-size="14" dominant-baseline="middle" text-anchor="end" transform="translate(56.03125190734863, 125.32883522727269) rotate(0)">240</text><text x="0" y="0" fill="#131300" font-size="14" dominant-baseline="middle" text-anchor="end" transform="translate(56.03125190734863, 162.4034090909091) rotate(0)">230</text><text x="0" y="0" fill="#131300" font-size="14" dominant-baseline="middle" text-anchor="end" transform="translate(56.03125190734863, 199.47798295454544) rotate(0)">220</text><text x="0" y="0" fill="#131300" font-size="14" dominant-baseline="middle" text-anchor="end" transform="translate(56.03125190734863, 236.55255681818184) rotate(0)">210</text><text x="0" y="0" fill="#131300" font-size="14" dominant-baseline="middle" text-anchor="end" transform="translate(56.03125190734863, 273.6271306818182) rotate(0)">200</text><text x="0" y="0" fill="#131300" font-size="14" dominant-baseline="middle" text-anchor="end" transform="translate(56.03125190734863, 310.7017045454545) rotate(0)">190</text><text x="0" y="0" fill="#131300" font-size="14" dominant-baseline="middle" text-anchor="end" transform="translate(56.03125190734863, 347.7762784090909) rotate(0)">180</text><text x="0" y="0" fill="#131300" font-size="14" dominant-baseline="middle" text-anchor="end" transform="translate(56.03125190734863, 384.85085227272725) rotate(0)">170</text><text x="0" y="0" fill="#131300" font-size="14" dominant-baseline="middle" text-anchor="end" transform="translate(56.03125190734863, 421.9254261363636) rotate(0)">160</text><text x="0" y="0" fill="#131300" font-size="14" dominant-baseline="middle" text-anchor="end" transform="translate(56.03125190734863, 459) rotate(0)">150</text></g><g class="ticks"><path d="M 66.03125190734863,51.1796875 L 61.03125190734863,51.1796875" fill="none" stroke="#131300" stroke-width="2"/><path d="M 66.03125190734863,88.25426136363637 L 61.03125190734863,88.25426136363637" fill="none" stroke="#131300" stroke-width="2"/><path d="M 66.03125190734863,125.32883522727269 L 61.03125190734863,125.32883522727269" fill="none" stroke="#131300" stroke-width="2"/><path d="M 66.03125190734863,162.4034090909091 L 61.03125190734863,162.4034090909091" fill="none" stroke="#131300" stroke-width="2"/><path d="M 66.03125190734863,199.47798295454544 L 61.03125190734863,199.47798295454544" fill="none" stroke="#131300" stroke-width="2"/><path d="M 66.03125190734863,236.55255681818184 L 61.03125190734863,236.55255681818184" fill="none" stroke="#131300" stroke-width="2"/><path d="M 66.03125190734863,273.6271306818182 L 61.03125190734863,273.6271306818182" fill="none" stroke="#131300" stroke-width="2"/><path d="M 66.03125190734863,310.7017045454545 L 61.03125190734863,310.7017045454545" fill="none" stroke="#131300" stroke-width="2"/><path d="M 66.03125190734863,347.7762784090909 L 61.03125190734863,347.7762784090909" fill="none" stroke="#131300" stroke-width="2"/><path d="M 66.03125190734863,384.85085227272725 L 61.03125190734863,384.85085227272725" fill="none" stroke="#131300" stroke-width="2"/><path d="M 66.03125190734863,421.9254261363636 L 61.03125190734863,421.9254261363636" fill="none" stroke="#131300" stroke-width="2"/><path d="M 66.03125190734863,459 L 61.03125190734863,459" fill="none" stroke="#131300" stroke-width="2"/></g><g class="title"><text x="0" y="0" fill="#131300" font-size="16" dominant-baseline="text-before-edge" text-anchor="middle" transform="translate(5, 255.08984375) rotate(270)">Members</text></g></g></g><g class="mermaid-tmp-group"/></svg>