<svg id="my-svg" width="100%" xmlns="http://www.w3.org/2000/svg" xmlns:xlink="http://www.w3.org/1999/xlink" style="max-width: 700px; background-color: white;" viewBox="0 0 700 500" role="graphics-document document" aria-roledescription="xychart"><style>#my-svg{font-family:"trebuchet ms",verdana,arial,sans-serif;font-size:16px;fill:#333;}@keyframes edge-animation-frame{from{stroke-dashoffset:0;}}@keyframes dash{to{stroke-dashoffset:0;}}#my-svg .edge-animation-slow{stroke-dasharray:9,5!important;stroke-dashoffset:900;animation:dash 50s linear infinite;stroke-linecap:round;}#my-svg .edge-animation-fast{stroke-dasharray:9,5!important;stroke-dashoffset:900;animation:dash 20s linear infinite;stroke-linecap:round;}#my-svg .error-icon{fill:#552222;}#my-svg .error-text{fill:#552222;stroke:#552222;}#my-svg .edge-thickness-normal{stroke-width:1px;}#my-svg .edge-thickness-thick{stroke-width:3.5px;}#my-svg .edge-pattern-solid{stroke-dasharray:0;}#my-svg .edge-thickness-invisible{stroke-width:0;fill:none;}#my-svg .edge-pattern-dashed{stroke-dasharray:3;}#my-svg .edge-pattern-dotted{stroke-dasharray:2;}#my-svg .marker{fill:#333333;stroke:#333333;}#my-svg .marker.cross{stroke:#333333;}#my-svg svg{font-family:"trebuchet ms",verdana,arial,sans-serif;font-size:16px;}#my-svg p{margin:0;}#my-svg :root{--mermaid-font-family:"trebuchet ms",verdana,arial,sans-serif;}</style><g/><g class="main"><rect width="700" height="500" class="background" fill="white"/><g class="chart-title"><text x="0" y="0" fill="#131300" font-size="20" dominant-baseline="middle" text-anchor="middle" transform="translate(350, 21.58984375) rotate(0)">Daily Cumulative Member Tally (2026) - Zoomed</text></g><g class="plot"><g class="bar-plot-0"><rect x="68.78125190734863" y="372.33818359375" width="28.5" height="94.66181640625001" fill="#ECECFF" stroke="#ECECFF" stroke-width="0"/><rect x="115.08654022216797" y="357.044921875" width="28.5" height="109.955078125" fill="#ECECFF" stroke="#ECECFF" stroke-width="0"/><rect x="161.3918285369873" y="341.75166015625" width="28.5" height="125.24833984374999" fill="#ECECFF" stroke="#ECECFF" stroke-width="0"/><rect x="207.69711685180664" y="331.55615234375" width="28.5" height="135.44384765625" fill="#ECECFF" stroke="#ECECFF" stroke-width="0"/><rect x="254.00240516662598" y="300.96962890625" width="28.5" height="166.03037109374998" fill="#ECECFF" stroke="#ECECFF" stroke-width="0"/><rect x="300.3076934814453" y="290.77412109375" width="28.5" height="176.22587890625" fill="#ECECFF" stroke="#ECECFF" stroke-width="0"/><rect x="346.61298179626465" y="290.77412109375" width="28.5" height="176.22587890625" fill="#ECECFF" stroke="#ECECFF" stroke-width="0"/><rect x="392.918270111084" y="275.480859375" width="28.5" height="191.51914062499998" fill="#ECECFF" stroke="#ECECFF" stroke-width="0"/><rect x="439.2235584259033" y="270.38310546875" width="28.5" height="196.61689453125" fill="#ECECFF" stroke="#ECECFF" stroke-width="0"/><rect x="485.52884674072266" y="255.08984375" width="28.5" height="211.91015625" fill="#ECECFF" stroke="#ECECFF" stroke-width="0"/><rect x="531.834135055542" y="224.50332031250002" width="28.5" height="242.49667968749998" fill="#ECECFF" stroke="#ECECFF" stroke-width="0"/><rect x="578.1394233703613" y="188.81904296875" width="28.5" height="278.18095703125" fill="#ECECFF" stroke="#ECECFF" stroke-width="0"/><rect x="624.4447116851807" y="148.03701171875002" width="28.5" height="318.96298828125" fill="#ECECFF" stroke="#ECECFF" stroke-width="0"/><rect x="670.75" y="132.74374999999998" width="28.5" height="334.25625" fill="#ECECFF" stroke="#ECECFF" stroke-width="0"/></g></g><g class="bottom-axis"><g class="axis-line"><path d="M 68.03125190734863,468 L 700,468" fill="none" stroke="#131300" stroke-width="2"/></g><g class="label"><text x="0" y="0" fill="#131300" font-size="14" dominant-baseline="text-before-edge" text-anchor="middle" transform="translate(83.03125190734863, 479) rotate(0)">2.25</text><text x="0" y="0" fill="#131300" font-size="14" dominant-baseline="text-before-edge" text-anchor="middle" transform="translate(129.33654022216797, 479) rotate(0)">26</text><text x="0" y="0" fill="#131300" font-size="14" dominant-baseline="text-before-edge" text-anchor="middle" transform="translate(175.6418285369873, 479) rotate(0)">27</text><text x="0" y="0" fill="#131300" font-size="14" dominant-baseline="text-before-edge" text-anchor="middle" transform="translate(221.94711685180664, 479) rotate(0)">28</text><text x="0" y="0" fill="#131300" font-size="14" dominant-baseline="text-before-edge" text-anchor="middle" transform="translate(268.252405166626, 479) rotate(0)">3.1</text><text x="0" y="0" fill="#131300" font-size="14" dominant-baseline="text-before-edge" text-anchor="middle" transform="translate(314.5576934814453, 479) rotate(0)">2</text><text x="0" y="0" fill="#131300" font-size="14" dominant-baseline="text-before-edge" text-anchor="middle" transform="translate(360.86298179626465, 479) rotate(0)">3</text><text x="0" y="0" fill="#131300" font-size="14" dominant-baseline="text-before-edge" text-anchor="middle" transform="translate(407.168270111084, 479) rotate(0)">4</text><text x="0" y="0" fill="#131300" font-size="14" dominant-baseline="text-before-edge" text-anchor="middle" transform="translate(453.4735584259033, 479) rotate(0)">5</text><text x="0" y="0" fill="#131300" font-size="14" dominant-baseline="text-before-edge" text-anchor="middle" transform="translate(499.77884674072266, 479) rotate(0)">6</text><text x="0" y="0" fill="#131300" font-size="14" dominant-baseline="text-before-edge" text-anchor="middle" transform="translate(546.084135055542, 479) rotate(0)">7</text><text x="0" y="0" fill="#131300" font-size="14" dominant-baseline="text-before-edge" text-anchor="middle" transform="translate(592.3894233703613, 479) rotate(0)">8</text><text x="0" y="0" fill="#131300" font-size="14" dominant-baseline="text-before-edge" text-anchor="middle" transform="translate(638.6947116851807, 479) rotate(0)">9</text><text x="0" y="0" fill="#131300" font-size="14" dominant-baseline="text-before-edge" text-anchor="middle" transform="translate(685, 479) rotate(0)">10</text></g><g class="ticks"><path d="M 83.03125190734863,469 L 83.03125190734863,474" fill="none" stroke="#131300" stroke-width="2"/><path d="M 129.33654022216797,469 L 129.33654022216797,474" fill="none" stroke="#131300" stroke-width="2"/><path d="M 175.6418285369873,469 L 175.6418285369873,474" fill="none" stroke="#131300" stroke-width="2"/><path d="M 221.94711685180664,469 L 221.94711685180664,474" fill="none" stroke="#131300" stroke-width="2"/><path d="M 268.252405166626,469 L 268.252405166626,474" fill="none" stroke="#131300" stroke-width="2"/><path d="M 314.5576934814453,469 L 314.5576934814453,474" fill="none" stroke="#131300" stroke-width="2"/><path d="M 360.86298179626465,469 L 360.86298179626465,474" fill="none" stroke="#131300" stroke-width="2"/><path d="M 407.168270111084,469 L 407.168270111084,474" fill="none" stroke="#131300" stroke-width="2"/><path d="M 453.4735584259033,469 L 453.4735584259033,474" fill="none" stroke="#131300" stroke-width="2"/><path d="M 499.77884674072266,469 L 499.77884674072266,474" fill="none" stroke="#131300" stroke-width="2"/><path d="M 546.084135055542,469 L 546.084135055542,474" fill="none" stroke="#131300" stroke-width="2"/><path d="M 592.3894233703613,469 L 592.3894233703613,474" fill="none" stroke="#131300" stroke-width="2"/><path d="M 638.6947116851807,469 L 638.6947116851807,474" fill="none" stroke="#131300" stroke-width="2"/><path d="M 685,469 L 685,474" fill="none" stroke="#131300" stroke-width="2"/></g></g><g class="left-axis"><g class="axisl-line"><path d="M 67.03125190734863,43.1796875 L 67.03125190734863,467" fill="none" stroke="#131300" stroke-width="2"/></g><g class="label"><text x="0" y="0" fill="#131300" font-size="14" dominant-baseline="middle" text-anchor="end" transform="translate(56.03125190734863, 51.1796875) rotate(0)">230</text><text x="0" y="0" fill="#131300" font-size="14" dominant-baseline="middle" text-anchor="end" transform="translate(56.03125190734863, 102.1572265625) rotate(0)">220</text><text x="0" y="0" fill="#131300" font-size="14" dominant-baseline="middle" text-anchor="end" transform="translate(56.03125190734863, 153.134765625) rotate(0)">210</text><text x="0" y="0" fill="#131300" font-size="14" dominant-baseline="middle" text-anchor="end" transform="translate(56.03125190734863, 204.1123046875) rotate(0)">200</text><text x="0" y="0" fill="#131300" font-size="14" dominant-baseline="middle" text-anchor="end" transform="translate(56.03125190734863, 255.08984375) rotate(0)">190</text><text x="0" y="0" fill="#131300" font-size="14" dominant-baseline="middle" text-anchor="end" transform="translate(56.03125190734863, 306.0673828125) rotate(0)">180</text><text x="0" y="0" fill="#131300" font-size="14" dominant-baseline="middle" text-anchor="end" transform="translate(56.03125190734863, 357.044921875) rotate(0)">170</text><text x="0" y="0" fill="#131300" font-size="14" dominant-baseline="middle" text-anchor="end" transform="translate(56.03125190734863, 408.0224609375) rotate(0)">160</text><text x="0" y="0" fill="#131300" font-size="14" dominant-baseline="middle" text-anchor="end" transform="translate(56.03125190734863, 459) rotate(0)">150</text></g><g class="ticks"><path d="M 66.03125190734863,51.1796875 L 61.03125190734863,51.1796875" fill="none" stroke="#131300" stroke-width="2"/><path d="M 66.03125190734863,102.1572265625 L 61.03125190734863,102.1572265625" fill="none" stroke="#131300" stroke-width="2"/><path d="M 66.03125190734863,153.134765625 L 61.03125190734863,153.134765625" fill="none" stroke="#131300" stroke-width="2"/><path d="M 66.03125190734863,204.1123046875 L 61.03125190734863,204.1123046875" fill="none" stroke="#131300" stroke-width="2"/><path d="M 66.03125190734863,255.08984375 L 61.03125190734863,255.08984375" fill="none" stroke="#131300" stroke-width="2"/><path d="M 66.03125190734863,306.0673828125 L 61.03125190734863,306.0673828125" fill="none" stroke="#131300" stroke-width="2"/><path d="M 66.03125190734863,357.044921875 L 61.03125190734863,357.044921875" fill="none" stroke="#131300" stroke-width="2"/><path d="M 66.03125190734863,408.0224609375 L 61.03125190734863,408.0224609375" fill="none" stroke="#131300" stroke-width="2"/><path d="M 66.03125190734863,459 L 61.03125190734863,459" fill="none" stroke="#131300" stroke-width="2"/></g><g class="title"><text x="0" y="0" fill="#131300" font-size="16" dominant-baseline="text-before-edge" text-anchor="middle" transform="translate(5, 255.08984375) rotate(270)">Members</text></g></g></g><g class="mermaid-tmp-group"/></svg>