<svg id="my-svg" width="100%" xmlns="http://www.w3.org/2000/svg" xmlns:xlink="http://www.w3.org/1999/xlink" style="max-width: 700px; background-color: white;" viewBox="0 0 700 500" role="graphics-document document" aria-roledescription="xychart"><style>#my-svg{font-family:"trebuchet ms",verdana,arial,sans-serif;font-size:16px;fill:#333;}@keyframes edge-animation-frame{from{stroke-dashoffset:0;}}@keyframes dash{to{stroke-dashoffset:0;}}#my-svg .edge-animation-slow{stroke-dasharray:9,5!important;stroke-dashoffset:900;animation:dash 50s linear infinite;stroke-linecap:round;}#my-svg .edge-animation-fast{stroke-dasharray:9,5!important;stroke-dashoffset:900;animation:dash 20s linear infinite;stroke-linecap:round;}#my-svg .error-icon{fill:#552222;}#my-svg .error-text{fill:#552222;stroke:#552222;}#my-svg .edge-thickness-normal{stroke-width:1px;}#my-svg .edge-thickness-thick{stroke-width:3.5px;}#my-svg .edge-pattern-solid{stroke-dasharray:0;}#my-svg .edge-thickness-invisible{stroke-width:0;fill:none;}#my-svg .edge-pattern-dashed{stroke-dasharray:3;}#my-svg .edge-pattern-dotted{stroke-dasharray:2;}#my-svg .marker{fill:#333333;stroke:#333333;}#my-svg .marker.cross{stroke:#333333;}#my-svg svg{font-family:"trebuchet ms",verdana,arial,sans-serif;font-size:16px;}#my-svg p{margin:0;}#my-svg :root{--mermaid-font-family:"trebuchet ms",verdana,arial,sans-serif;}</style><g/><g class="main"><rect width="700" height="500" class="background" fill="white"/><g class="chart-title"><text x="0" y="0" fill="#131300" font-size="20" dominant-baseline="middle" text-anchor="middle" transform="translate(350, 21.58984375) rotate(0)">Daily Cumulative Member Tally (2026) - Zoomed</text></g><g class="plot"><g class="bar-plot-0"><rect x="70.5680157643098" y="395.97322443181815" width="22.098347286077647" height="71.02677556818185" fill="#ECECFF" stroke="#ECECFF" stroke-width="0"/><rect x="94.75989068801586" y="384.85085227272725" width="22.098347286077647" height="82.14914772727275" fill="#ECECFF" stroke="#ECECFF" stroke-width="0"/><rect x="118.95176561172191" y="373.72848011363635" width="22.098347286077647" height="93.27151988636365" fill="#ECECFF" stroke="#ECECFF" stroke-width="0"/><rect x="143.14364053542798" y="366.3135653409091" width="22.098347286077647" height="100.68643465909088" fill="#ECECFF" stroke="#ECECFF" stroke-width="0"/><rect x="167.33551545913403" y="344.0688210227273" width="22.098347286077647" height="122.93117897727268" fill="#ECECFF" stroke="#ECECFF" stroke-width="0"/><rect x="191.52739038284008" y="336.65390625" width="22.098347286077647" height="130.34609375000002" fill="#ECECFF" stroke="#ECECFF" stroke-width="0"/><rect x="215.71926530654616" y="336.65390625" width="22.098347286077647" height="130.34609375000002" fill="#ECECFF" stroke="#ECECFF" stroke-width="0"/><rect x="239.91114023025222" y="325.53153409090913" width="22.098347286077647" height="141.46846590909087" fill="#ECECFF" stroke="#ECECFF" stroke-width="0"/><rect x="264.1030151539582" y="321.8240767045454" width="22.098347286077647" height="145.1759232954546" fill="#ECECFF" stroke="#ECECFF" stroke-width="0"/><rect x="288.2948900776643" y="310.7017045454545" width="22.098347286077647" height="156.2982954545455" fill="#ECECFF" stroke="#ECECFF" stroke-width="0"/><rect x="312.4867650013703" y="288.45696022727276" width="22.098347286077647" height="178.54303977272724" fill="#ECECFF" stroke="#ECECFF" stroke-width="0"/><rect x="336.6786399250764" y="262.5047585227273" width="22.098347286077647" height="204.4952414772727" fill="#ECECFF" stroke="#ECECFF" stroke-width="0"/><rect x="360.8705148487825" y="232.8450994318182" width="22.098347286077647" height="234.1549005681818" fill="#ECECFF" stroke="#ECECFF" stroke-width="0"/><rect x="385.06238977248853" y="221.7227272727273" width="22.098347286077647" height="245.2772727272727" fill="#ECECFF" stroke="#ECECFF" stroke-width="0"/><rect x="409.2542646961946" y="210.60035511363634" width="22.098347286077647" height="256.39964488636366" fill="#ECECFF" stroke="#ECECFF" stroke-width="0"/><rect x="433.44613961990063" y="210.60035511363634" width="22.098347286077647" height="256.39964488636366" fill="#ECECFF" stroke="#ECECFF" stroke-width="0"/><rect x="457.6380145436067" y="210.60035511363634" width="22.098347286077647" height="256.39964488636366" fill="#ECECFF" stroke="#ECECFF" stroke-width="0"/><rect x="481.82988946731274" y="199.47798295454544" width="22.098347286077647" height="267.52201704545456" fill="#ECECFF" stroke="#ECECFF" stroke-width="0"/><rect x="506.02176439101885" y="180.94069602272728" width="22.098347286077647" height="286.05930397727275" fill="#ECECFF" stroke="#ECECFF" stroke-width="0"/><rect x="530.2136393147249" y="158.69595170454548" width="22.098347286077647" height="308.30404829545455" fill="#ECECFF" stroke="#ECECFF" stroke-width="0"/><rect x="554.4055142384309" y="147.57357954545452" width="22.098347286077647" height="319.42642045454545" fill="#ECECFF" stroke="#ECECFF" stroke-width="0"/><rect x="578.597389162137" y="136.45120738636365" width="22.098347286077647" height="330.54879261363635" fill="#ECECFF" stroke="#ECECFF" stroke-width="0"/><rect x="602.7892640858431" y="125.32883522727269" width="22.098347286077647" height="341.6711647727273" fill="#ECECFF" stroke="#ECECFF" stroke-width="0"/><rect x="626.9811390095491" y="125.32883522727269" width="22.098347286077647" height="341.6711647727273" fill="#ECECFF" stroke="#ECECFF" stroke-width="0"/><rect x="651.1730139332552" y="110.4990056818182" width="22.098347286077647" height="356.5009943181818" fill="#ECECFF" stroke="#ECECFF" stroke-width="0"/><rect x="675.3648888569612" y="103.08409090909092" width="22.098347286077647" height="363.91590909090905" fill="#ECECFF" stroke="#ECECFF" stroke-width="0"/></g></g><g class="bottom-axis"><g class="axis-line"><path d="M 68.03125190734863,468 L 700,468" fill="none" stroke="#131300" stroke-width="2"/></g><g class="label"><text x="0" y="0" fill="#131300" font-size="14" dominant-baseline="text-before-edge" text-anchor="middle" transform="translate(81.61718940734863, 479) rotate(0)">2.25</text><text x="0" y="0" fill="#131300" font-size="14" dominant-baseline="text-before-edge" text-anchor="middle" transform="translate(105.80906433105469, 479) rotate(0)">26</text><text x="0" y="0" fill="#131300" font-size="14" dominant-baseline="text-before-edge" text-anchor="middle" transform="translate(130.00093925476074, 479) rotate(0)">27</text><text x="0" y="0" fill="#131300" font-size="14" dominant-baseline="text-before-edge" text-anchor="middle" transform="translate(154.1928141784668, 479) rotate(0)">28</text><text x="0" y="0" fill="#131300" font-size="14" dominant-baseline="text-before-edge" text-anchor="middle" transform="translate(178.38468910217284, 479) rotate(0)">3.1</text><text x="0" y="0" fill="#131300" font-size="14" dominant-baseline="text-before-edge" text-anchor="middle" transform="translate(202.5765640258789, 479) rotate(0)">2</text><text x="0" y="0" fill="#131300" font-size="14" dominant-baseline="text-before-edge" text-anchor="middle" transform="translate(226.76843894958498, 479) rotate(0)">3</text><text x="0" y="0" fill="#131300" font-size="14" dominant-baseline="text-before-edge" text-anchor="middle" transform="translate(250.96031387329103, 479) rotate(0)">4</text><text x="0" y="0" fill="#131300" font-size="14" dominant-baseline="text-before-edge" text-anchor="middle" transform="translate(275.15218879699705, 479) rotate(0)">5</text><text x="0" y="0" fill="#131300" font-size="14" dominant-baseline="text-before-edge" text-anchor="middle" transform="translate(299.34406372070316, 479) rotate(0)">6</text><text x="0" y="0" fill="#131300" font-size="14" dominant-baseline="text-before-edge" text-anchor="middle" transform="translate(323.53593864440916, 479) rotate(0)">7</text><text x="0" y="0" fill="#131300" font-size="14" dominant-baseline="text-before-edge" text-anchor="middle" transform="translate(347.72781356811527, 479) rotate(0)">8</text><text x="0" y="0" fill="#131300" font-size="14" dominant-baseline="text-before-edge" text-anchor="middle" transform="translate(371.9196884918213, 479) rotate(0)">9</text><text x="0" y="0" fill="#131300" font-size="14" dominant-baseline="text-before-edge" text-anchor="middle" transform="translate(396.11156341552737, 479) rotate(0)">10</text><text x="0" y="0" fill="#131300" font-size="14" dominant-baseline="text-before-edge" text-anchor="middle" transform="translate(420.3034383392334, 479) rotate(0)">11</text><text x="0" y="0" fill="#131300" font-size="14" dominant-baseline="text-before-edge" text-anchor="middle" transform="translate(444.4953132629395, 479) rotate(0)">12</text><text x="0" y="0" fill="#131300" font-size="14" dominant-baseline="text-before-edge" text-anchor="middle" transform="translate(468.6871881866455, 479) rotate(0)">13</text><text x="0" y="0" fill="#131300" font-size="14" dominant-baseline="text-before-edge" text-anchor="middle" transform="translate(492.8790631103516, 479) rotate(0)">14</text><text x="0" y="0" fill="#131300" font-size="14" dominant-baseline="text-before-edge" text-anchor="middle" transform="translate(517.0709380340577, 479) rotate(0)">15</text><text x="0" y="0" fill="#131300" font-size="14" dominant-baseline="text-before-edge" text-anchor="middle" transform="translate(541.2628129577637, 479) rotate(0)">16</text><text x="0" y="0" fill="#131300" font-size="14" dominant-baseline="text-before-edge" text-anchor="middle" transform="translate(565.4546878814697, 479) rotate(0)">17</text><text x="0" y="0" fill="#131300" font-size="14" dominant-baseline="text-before-edge" text-anchor="middle" transform="translate(589.6465628051758, 479) rotate(0)">18</text><text x="0" y="0" fill="#131300" font-size="14" dominant-baseline="text-before-edge" text-anchor="middle" transform="translate(613.8384377288819, 479) rotate(0)">19</text><text x="0" y="0" fill="#131300" font-size="14" dominant-baseline="text-before-edge" text-anchor="middle" transform="translate(638.0303126525879, 479) rotate(0)">20</text><text x="0" y="0" fill="#131300" font-size="14" dominant-baseline="text-before-edge" text-anchor="middle" transform="translate(662.222187576294, 479) rotate(0)">21</text><text x="0" y="0" fill="#131300" font-size="14" dominant-baseline="text-before-edge" text-anchor="middle" transform="translate(686.4140625, 479) rotate(0)">22</text></g><g class="ticks"><path d="M 81.61718940734863,469 L 81.61718940734863,474" fill="none" stroke="#131300" stroke-width="2"/><path d="M 105.80906433105469,469 L 105.80906433105469,474" fill="none" stroke="#131300" stroke-width="2"/><path d="M 130.00093925476074,469 L 130.00093925476074,474" fill="none" stroke="#131300" stroke-width="2"/><path d="M 154.1928141784668,469 L 154.1928141784668,474" fill="none" stroke="#131300" stroke-width="2"/><path d="M 178.38468910217284,469 L 178.38468910217284,474" fill="none" stroke="#131300" stroke-width="2"/><path d="M 202.5765640258789,469 L 202.5765640258789,474" fill="none" stroke="#131300" stroke-width="2"/><path d="M 226.76843894958498,469 L 226.76843894958498,474" fill="none" stroke="#131300" stroke-width="2"/><path d="M 250.96031387329103,469 L 250.96031387329103,474" fill="none" stroke="#131300" stroke-width="2"/><path d="M 275.15218879699705,469 L 275.15218879699705,474" fill="none" stroke="#131300" stroke-width="2"/><path d="M 299.34406372070316,469 L 299.34406372070316,474" fill="none" stroke="#131300" stroke-width="2"/><path d="M 323.53593864440916,469 L 323.53593864440916,474" fill="none" stroke="#131300" stroke-width="2"/><path d="M 347.72781356811527,469 L 347.72781356811527,474" fill="none" stroke="#131300" stroke-width="2"/><path d="M 371.9196884918213,469 L 371.9196884918213,474" fill="none" stroke="#131300" stroke-width="2"/><path d="M 396.11156341552737,469 L 396.11156341552737,474" fill="none" stroke="#131300" stroke-width="2"/><path d="M 420.3034383392334,469 L 420.3034383392334,474" fill="none" stroke="#131300" stroke-width="2"/><path d="M 444.4953132629395,469 L 444.4953132629395,474" fill="none" stroke="#131300" stroke-width="2"/><path d="M 468.6871881866455,469 L 468.6871881866455,474" fill="none" stroke="#131300" stroke-width="2"/><path d="M 492.8790631103516,469 L 492.8790631103516,474" fill="none" stroke="#131300" stroke-width="2"/><path d="M 517.0709380340577,469 L 517.0709380340577,474" fill="none" stroke="#131300" stroke-width="2"/><path d="M 541.2628129577637,469 L 541.2628129577637,474" fill="none" stroke="#131300" stroke-width="2"/><path d="M 565.4546878814697,469 L 565.4546878814697,474" fill="none" stroke="#131300" stroke-width="2"/><path d="M 589.6465628051758,469 L 589.6465628051758,474" fill="none" stroke="#131300" stroke-width="2"/><path d="M 613.8384377288819,469 L 613.8384377288819,474" fill="none" stroke="#131300" stroke-width="2"/><path d="M 638.0303126525879,469 L 638.0303126525879,474" fill="none" stroke="#131300" stroke-width="2"/><path d="M 662.222187576294,469 L 662.222187576294,474" fill="none" stroke="#131300" stroke-width="2"/><path d="M 686.4140625,469 L 686.4140625,474" fill="none" stroke="#131300" stroke-width="2"/></g></g><g class="left-axis"><g class="axisl-line"><path d="M 67.03125190734863,43.1796875 L 67.03125190734863,467" fill="none" stroke="#131300" stroke-width="2"/></g><g class="label"><text x="0" y="0" fill="#131300" font-size="14" dominant-baseline="middle" text-anchor="end" transform="translate(56.03125190734863, 51.1796875) rotate(0)">260</text><text x="0" y="0" fill="#131300" font-size="14" dominant-baseline="middle" text-anchor="end" transform="translate(56.03125190734863, 88.25426136363637) rotate(0)">250</text><text x="0" y="0" fill="#131300" font-size="14" dominant-baseline="middle" text-anchor="end" transform="translate(56.03125190734863, 125.32883522727269) rotate(0)">240</text><text x="0" y="0" fill="#131300" font-size="14" dominant-baseline="middle" text-anchor="end" transform="translate(56.03125190734863, 162.4034090909091) rotate(0)">230</text><text x="0" y="0" fill="#131300" font-size="14" dominant-baseline="middle" text-anchor="end" transform="translate(56.03125190734863, 199.47798295454544) rotate(0)">220</text><text x="0" y="0" fill="#131300" font-size="14" dominant-baseline="middle" text-anchor="end" transform="translate(56.03125190734863, 236.55255681818184) rotate(0)">210</text><text x="0" y="0" fill="#131300" font-size="14" dominant-baseline="middle" text-anchor="end" transform="translate(56.03125190734863, 273.6271306818182) rotate(0)">200</text><text x="0" y="0" fill="#131300" font-size="14" dominant-baseline="middle" text-anchor="end" transform="translate(56.03125190734863, 310.7017045454545) rotate(0)">190</text><text x="0" y="0" fill="#131300" font-size="14" dominant-baseline="middle" text-anchor="end" transform="translate(56.03125190734863, 347.7762784090909) rotate(0)">180</text><text x="0" y="0" fill="#131300" font-size="14" dominant-baseline="middle" text-anchor="end" transform="translate(56.03125190734863, 384.85085227272725) rotate(0)">170</text><text x="0" y="0" fill="#131300" font-size="14" dominant-baseline="middle" text-anchor="end" transform="translate(56.03125190734863, 421.9254261363636) rotate(0)">160</text><text x="0" y="0" fill="#131300" font-size="14" dominant-baseline="middle" text-anchor="end" transform="translate(56.03125190734863, 459) rotate(0)">150</text></g><g class="ticks"><path d="M 66.03125190734863,51.1796875 L 61.03125190734863,51.1796875" fill="none" stroke="#131300" stroke-width="2"/><path d="M 66.03125190734863,88.25426136363637 L 61.03125190734863,88.25426136363637" fill="none" stroke="#131300" stroke-width="2"/><path d="M 66.03125190734863,125.32883522727269 L 61.03125190734863,125.32883522727269" fill="none" stroke="#131300" stroke-width="2"/><path d="M 66.03125190734863,162.4034090909091 L 61.03125190734863,162.4034090909091" fill="none" stroke="#131300" stroke-width="2"/><path d="M 66.03125190734863,199.47798295454544 L 61.03125190734863,199.47798295454544" fill="none" stroke="#131300" stroke-width="2"/><path d="M 66.03125190734863,236.55255681818184 L 61.03125190734863,236.55255681818184" fill="none" stroke="#131300" stroke-width="2"/><path d="M 66.03125190734863,273.6271306818182 L 61.03125190734863,273.6271306818182" fill="none" stroke="#131300" stroke-width="2"/><path d="M 66.03125190734863,310.7017045454545 L 61.03125190734863,310.7017045454545" fill="none" stroke="#131300" stroke-width="2"/><path d="M 66.03125190734863,347.7762784090909 L 61.03125190734863,347.7762784090909" fill="none" stroke="#131300" stroke-width="2"/><path d="M 66.03125190734863,384.85085227272725 L 61.03125190734863,384.85085227272725" fill="none" stroke="#131300" stroke-width="2"/><path d="M 66.03125190734863,421.9254261363636 L 61.03125190734863,421.9254261363636" fill="none" stroke="#131300" stroke-width="2"/><path d="M 66.03125190734863,459 L 61.03125190734863,459" fill="none" stroke="#131300" stroke-width="2"/></g><g class="title"><text x="0" y="0" fill="#131300" font-size="16" dominant-baseline="text-before-edge" text-anchor="middle" transform="translate(5, 255.08984375) rotate(270)">Members</text></g></g></g><g class="mermaid-tmp-group"/></svg>