<svg id="my-svg" width="100%" xmlns="http://www.w3.org/2000/svg" xmlns:xlink="http://www.w3.org/1999/xlink" style="max-width: 700px; background-color: white;" viewBox="0 0 700 500" role="graphics-document document" aria-roledescription="xychart"><style>#my-svg{font-family:"trebuchet ms",verdana,arial,sans-serif;font-size:16px;fill:#333;}@keyframes edge-animation-frame{from{stroke-dashoffset:0;}}@keyframes dash{to{stroke-dashoffset:0;}}#my-svg .edge-animation-slow{stroke-dasharray:9,5!important;stroke-dashoffset:900;animation:dash 50s linear infinite;stroke-linecap:round;}#my-svg .edge-animation-fast{stroke-dasharray:9,5!important;stroke-dashoffset:900;animation:dash 20s linear infinite;stroke-linecap:round;}#my-svg .error-icon{fill:#552222;}#my-svg .error-text{fill:#552222;stroke:#552222;}#my-svg .edge-thickness-normal{stroke-width:1px;}#my-svg .edge-thickness-thick{stroke-width:3.5px;}#my-svg .edge-pattern-solid{stroke-dasharray:0;}#my-svg .edge-thickness-invisible{stroke-width:0;fill:none;}#my-svg .edge-pattern-dashed{stroke-dasharray:3;}#my-svg .edge-pattern-dotted{stroke-dasharray:2;}#my-svg .marker{fill:#333333;stroke:#333333;}#my-svg .marker.cross{stroke:#333333;}#my-svg svg{font-family:"trebuchet ms",verdana,arial,sans-serif;font-size:16px;}#my-svg p{margin:0;}#my-svg :root{--mermaid-font-family:"trebuchet ms",verdana,arial,sans-serif;}</style><g/><g class="main"><rect width="700" height="500" class="background" fill="white"/><g class="chart-title"><text x="0" y="0" fill="#131300" font-size="20" dominant-baseline="middle" text-anchor="middle" transform="translate(350, 21.58984375) rotate(0)">Daily Cumulative Member Tally (2026) - Zoomed</text></g><g class="plot"><g class="bar-plot-0"><rect x="68.71054878234864" y="381.9672743055556" width="25.81328125" height="85.03272569444442" fill="#ECECFF" stroke="#ECECFF" stroke-width="0"/><rect x="102.31037506527372" y="368.3732638888889" width="25.81328125" height="98.62673611111109" fill="#ECECFF" stroke="#ECECFF" stroke-width="0"/><rect x="135.9102013481988" y="354.7792534722222" width="25.81328125" height="112.2207465277778" fill="#ECECFF" stroke="#ECECFF" stroke-width="0"/><rect x="169.51002763112388" y="345.7165798611111" width="25.81328125" height="121.28342013888891" fill="#ECECFF" stroke="#ECECFF" stroke-width="0"/><rect x="203.10985391404895" y="318.52855902777776" width="25.81328125" height="148.47144097222224" fill="#ECECFF" stroke="#ECECFF" stroke-width="0"/><rect x="236.70968019697403" y="309.46588541666665" width="25.81328125" height="157.53411458333335" fill="#ECECFF" stroke="#ECECFF" stroke-width="0"/><rect x="270.3095064798991" y="309.46588541666665" width="25.81328125" height="157.53411458333335" fill="#ECECFF" stroke="#ECECFF" stroke-width="0"/><rect x="303.9093327628242" y="295.871875" width="25.81328125" height="171.128125" fill="#ECECFF" stroke="#ECECFF" stroke-width="0"/><rect x="337.50915904574924" y="291.34053819444443" width="25.81328125" height="175.65946180555557" fill="#ECECFF" stroke="#ECECFF" stroke-width="0"/><rect x="371.1089853286743" y="277.74652777777777" width="25.81328125" height="189.25347222222223" fill="#ECECFF" stroke="#ECECFF" stroke-width="0"/><rect x="404.7088116115994" y="250.55850694444445" width="25.81328125" height="216.44149305555555" fill="#ECECFF" stroke="#ECECFF" stroke-width="0"/><rect x="438.3086378945245" y="218.83914930555554" width="25.81328125" height="248.16085069444446" fill="#ECECFF" stroke="#ECECFF" stroke-width="0"/><rect x="471.90846417744956" y="182.58845486111107" width="25.81328125" height="284.4115451388889" fill="#ECECFF" stroke="#ECECFF" stroke-width="0"/><rect x="505.5082904603746" y="168.99444444444444" width="25.81328125" height="298.0055555555556" fill="#ECECFF" stroke="#ECECFF" stroke-width="0"/><rect x="539.1081167432998" y="155.40043402777778" width="25.81328125" height="311.5995659722222" fill="#ECECFF" stroke="#ECECFF" stroke-width="0"/><rect x="572.7079430262248" y="155.40043402777778" width="25.81328125" height="311.5995659722222" fill="#ECECFF" stroke="#ECECFF" stroke-width="0"/><rect x="606.3077693091499" y="155.40043402777778" width="25.81328125" height="311.5995659722222" fill="#ECECFF" stroke="#ECECFF" stroke-width="0"/><rect x="639.9075955920749" y="141.80642361111111" width="25.81328125" height="325.1935763888889" fill="#ECECFF" stroke="#ECECFF" stroke-width="0"/><rect x="673.507421875" y="119.14973958333331" width="25.81328125" height="347.8502604166667" fill="#ECECFF" stroke="#ECECFF" stroke-width="0"/></g></g><g class="bottom-axis"><g class="axis-line"><path d="M 68.03125190734863,468 L 700,468" fill="none" stroke="#131300" stroke-width="2"/></g><g class="label"><text x="0" y="0" fill="#131300" font-size="14" dominant-baseline="text-before-edge" text-anchor="middle" transform="translate(81.61718940734863, 479) rotate(0)">2.25</text><text x="0" y="0" fill="#131300" font-size="14" dominant-baseline="text-before-edge" text-anchor="middle" transform="translate(115.21701569027371, 479) rotate(0)">26</text><text x="0" y="0" fill="#131300" font-size="14" dominant-baseline="text-before-edge" text-anchor="middle" transform="translate(148.8168419731988, 479) rotate(0)">27</text><text x="0" y="0" fill="#131300" font-size="14" dominant-baseline="text-before-edge" text-anchor="middle" transform="translate(182.41666825612387, 479) rotate(0)">28</text><text x="0" y="0" fill="#131300" font-size="14" dominant-baseline="text-before-edge" text-anchor="middle" transform="translate(216.01649453904895, 479) rotate(0)">3.1</text><text x="0" y="0" fill="#131300" font-size="14" dominant-baseline="text-before-edge" text-anchor="middle" transform="translate(249.61632082197403, 479) rotate(0)">2</text><text x="0" y="0" fill="#131300" font-size="14" dominant-baseline="text-before-edge" text-anchor="middle" transform="translate(283.2161471048991, 479) rotate(0)">3</text><text x="0" y="0" fill="#131300" font-size="14" dominant-baseline="text-before-edge" text-anchor="middle" transform="translate(316.8159733878242, 479) rotate(0)">4</text><text x="0" y="0" fill="#131300" font-size="14" dominant-baseline="text-before-edge" text-anchor="middle" transform="translate(350.41579967074927, 479) rotate(0)">5</text><text x="0" y="0" fill="#131300" font-size="14" dominant-baseline="text-before-edge" text-anchor="middle" transform="translate(384.0156259536743, 479) rotate(0)">6</text><text x="0" y="0" fill="#131300" font-size="14" dominant-baseline="text-before-edge" text-anchor="middle" transform="translate(417.6154522365994, 479) rotate(0)">7</text><text x="0" y="0" fill="#131300" font-size="14" dominant-baseline="text-before-edge" text-anchor="middle" transform="translate(451.21527851952453, 479) rotate(0)">8</text><text x="0" y="0" fill="#131300" font-size="14" dominant-baseline="text-before-edge" text-anchor="middle" transform="translate(484.8151048024496, 479) rotate(0)">9</text><text x="0" y="0" fill="#131300" font-size="14" dominant-baseline="text-before-edge" text-anchor="middle" transform="translate(518.4149310853746, 479) rotate(0)">10</text><text x="0" y="0" fill="#131300" font-size="14" dominant-baseline="text-before-edge" text-anchor="middle" transform="translate(552.0147573682998, 479) rotate(0)">11</text><text x="0" y="0" fill="#131300" font-size="14" dominant-baseline="text-before-edge" text-anchor="middle" transform="translate(585.6145836512248, 479) rotate(0)">12</text><text x="0" y="0" fill="#131300" font-size="14" dominant-baseline="text-before-edge" text-anchor="middle" transform="translate(619.2144099341499, 479) rotate(0)">13</text><text x="0" y="0" fill="#131300" font-size="14" dominant-baseline="text-before-edge" text-anchor="middle" transform="translate(652.814236217075, 479) rotate(0)">14</text><text x="0" y="0" fill="#131300" font-size="14" dominant-baseline="text-before-edge" text-anchor="middle" transform="translate(686.4140625, 479) rotate(0)">15</text></g><g class="ticks"><path d="M 81.61718940734863,469 L 81.61718940734863,474" fill="none" stroke="#131300" stroke-width="2"/><path d="M 115.21701569027371,469 L 115.21701569027371,474" fill="none" stroke="#131300" stroke-width="2"/><path d="M 148.8168419731988,469 L 148.8168419731988,474" fill="none" stroke="#131300" stroke-width="2"/><path d="M 182.41666825612387,469 L 182.41666825612387,474" fill="none" stroke="#131300" stroke-width="2"/><path d="M 216.01649453904895,469 L 216.01649453904895,474" fill="none" stroke="#131300" stroke-width="2"/><path d="M 249.61632082197403,469 L 249.61632082197403,474" fill="none" stroke="#131300" stroke-width="2"/><path d="M 283.2161471048991,469 L 283.2161471048991,474" fill="none" stroke="#131300" stroke-width="2"/><path d="M 316.8159733878242,469 L 316.8159733878242,474" fill="none" stroke="#131300" stroke-width="2"/><path d="M 350.41579967074927,469 L 350.41579967074927,474" fill="none" stroke="#131300" stroke-width="2"/><path d="M 384.0156259536743,469 L 384.0156259536743,474" fill="none" stroke="#131300" stroke-width="2"/><path d="M 417.6154522365994,469 L 417.6154522365994,474" fill="none" stroke="#131300" stroke-width="2"/><path d="M 451.21527851952453,469 L 451.21527851952453,474" fill="none" stroke="#131300" stroke-width="2"/><path d="M 484.8151048024496,469 L 484.8151048024496,474" fill="none" stroke="#131300" stroke-width="2"/><path d="M 518.4149310853746,469 L 518.4149310853746,474" fill="none" stroke="#131300" stroke-width="2"/><path d="M 552.0147573682998,469 L 552.0147573682998,474" fill="none" stroke="#131300" stroke-width="2"/><path d="M 585.6145836512248,469 L 585.6145836512248,474" fill="none" stroke="#131300" stroke-width="2"/><path d="M 619.2144099341499,469 L 619.2144099341499,474" fill="none" stroke="#131300" stroke-width="2"/><path d="M 652.814236217075,469 L 652.814236217075,474" fill="none" stroke="#131300" stroke-width="2"/><path d="M 686.4140625,469 L 686.4140625,474" fill="none" stroke="#131300" stroke-width="2"/></g></g><g class="left-axis"><g class="axisl-line"><path d="M 67.03125190734863,43.1796875 L 67.03125190734863,467" fill="none" stroke="#131300" stroke-width="2"/></g><g class="label"><text x="0" y="0" fill="#131300" font-size="14" dominant-baseline="middle" text-anchor="end" transform="translate(56.03125190734863, 51.1796875) rotate(0)">240</text><text x="0" y="0" fill="#131300" font-size="14" dominant-baseline="middle" text-anchor="end" transform="translate(56.03125190734863, 96.49305555555557) rotate(0)">230</text><text x="0" y="0" fill="#131300" font-size="14" dominant-baseline="middle" text-anchor="end" transform="translate(56.03125190734863, 141.80642361111111) rotate(0)">220</text><text x="0" y="0" fill="#131300" font-size="14" dominant-baseline="middle" text-anchor="end" transform="translate(56.03125190734863, 187.11979166666669) rotate(0)">210</text><text x="0" y="0" fill="#131300" font-size="14" dominant-baseline="middle" text-anchor="end" transform="translate(56.03125190734863, 232.43315972222223) rotate(0)">200</text><text x="0" y="0" fill="#131300" font-size="14" dominant-baseline="middle" text-anchor="end" transform="translate(56.03125190734863, 277.74652777777777) rotate(0)">190</text><text x="0" y="0" fill="#131300" font-size="14" dominant-baseline="middle" text-anchor="end" transform="translate(56.03125190734863, 323.05989583333337) rotate(0)">180</text><text x="0" y="0" fill="#131300" font-size="14" dominant-baseline="middle" text-anchor="end" transform="translate(56.03125190734863, 368.3732638888889) rotate(0)">170</text><text x="0" y="0" fill="#131300" font-size="14" dominant-baseline="middle" text-anchor="end" transform="translate(56.03125190734863, 413.68663194444446) rotate(0)">160</text><text x="0" y="0" fill="#131300" font-size="14" dominant-baseline="middle" text-anchor="end" transform="translate(56.03125190734863, 459) rotate(0)">150</text></g><g class="ticks"><path d="M 66.03125190734863,51.1796875 L 61.03125190734863,51.1796875" fill="none" stroke="#131300" stroke-width="2"/><path d="M 66.03125190734863,96.49305555555557 L 61.03125190734863,96.49305555555557" fill="none" stroke="#131300" stroke-width="2"/><path d="M 66.03125190734863,141.80642361111111 L 61.03125190734863,141.80642361111111" fill="none" stroke="#131300" stroke-width="2"/><path d="M 66.03125190734863,187.11979166666669 L 61.03125190734863,187.11979166666669" fill="none" stroke="#131300" stroke-width="2"/><path d="M 66.03125190734863,232.43315972222223 L 61.03125190734863,232.43315972222223" fill="none" stroke="#131300" stroke-width="2"/><path d="M 66.03125190734863,277.74652777777777 L 61.03125190734863,277.74652777777777" fill="none" stroke="#131300" stroke-width="2"/><path d="M 66.03125190734863,323.05989583333337 L 61.03125190734863,323.05989583333337" fill="none" stroke="#131300" stroke-width="2"/><path d="M 66.03125190734863,368.3732638888889 L 61.03125190734863,368.3732638888889" fill="none" stroke="#131300" stroke-width="2"/><path d="M 66.03125190734863,413.68663194444446 L 61.03125190734863,413.68663194444446" fill="none" stroke="#131300" stroke-width="2"/><path d="M 66.03125190734863,459 L 61.03125190734863,459" fill="none" stroke="#131300" stroke-width="2"/></g><g class="title"><text x="0" y="0" fill="#131300" font-size="16" dominant-baseline="text-before-edge" text-anchor="middle" transform="translate(5, 255.08984375) rotate(270)">Members</text></g></g></g><g class="mermaid-tmp-group"/></svg>