<svg id="my-svg" width="100%" xmlns="http://www.w3.org/2000/svg" xmlns:xlink="http://www.w3.org/1999/xlink" style="max-width: 700px; background-color: white;" viewBox="0 0 700 500" role="graphics-document document" aria-roledescription="xychart"><style>#my-svg{font-family:"trebuchet ms",verdana,arial,sans-serif;font-size:16px;fill:#333;}@keyframes edge-animation-frame{from{stroke-dashoffset:0;}}@keyframes dash{to{stroke-dashoffset:0;}}#my-svg .edge-animation-slow{stroke-dasharray:9,5!important;stroke-dashoffset:900;animation:dash 50s linear infinite;stroke-linecap:round;}#my-svg .edge-animation-fast{stroke-dasharray:9,5!important;stroke-dashoffset:900;animation:dash 20s linear infinite;stroke-linecap:round;}#my-svg .error-icon{fill:#552222;}#my-svg .error-text{fill:#552222;stroke:#552222;}#my-svg .edge-thickness-normal{stroke-width:1px;}#my-svg .edge-thickness-thick{stroke-width:3.5px;}#my-svg .edge-pattern-solid{stroke-dasharray:0;}#my-svg .edge-thickness-invisible{stroke-width:0;fill:none;}#my-svg .edge-pattern-dashed{stroke-dasharray:3;}#my-svg .edge-pattern-dotted{stroke-dasharray:2;}#my-svg .marker{fill:#333333;stroke:#333333;}#my-svg .marker.cross{stroke:#333333;}#my-svg svg{font-family:"trebuchet ms",verdana,arial,sans-serif;font-size:16px;}#my-svg p{margin:0;}#my-svg :root{--mermaid-font-family:"trebuchet ms",verdana,arial,sans-serif;}</style><g/><g class="main"><rect width="700" height="500" class="background" fill="white"/><g class="chart-title"><text x="0" y="0" fill="#131300" font-size="20" dominant-baseline="middle" text-anchor="middle" transform="translate(350, 21.58984375) rotate(0)">Daily Cumulative Member Tally (2026) - Zoomed</text></g><g class="plot"><g class="bar-plot-0"><rect x="69.12681920217432" y="389.67054687499996" width="24.98074041034864" height="77.32945312500004" fill="#ECECFF" stroke="#ECECFF" stroke-width="0"/><rect x="96.6175861609312" y="377.4359375" width="24.98074041034864" height="89.56406249999998" fill="#ECECFF" stroke="#ECECFF" stroke-width="0"/><rect x="124.10835311968808" y="365.20132812500003" width="24.98074041034864" height="101.79867187499997" fill="#ECECFF" stroke="#ECECFF" stroke-width="0"/><rect x="151.59912007844497" y="357.044921875" width="24.98074041034864" height="109.955078125" fill="#ECECFF" stroke="#ECECFF" stroke-width="0"/><rect x="179.08988703720183" y="332.57570312499996" width="24.98074041034864" height="134.42429687500004" fill="#ECECFF" stroke="#ECECFF" stroke-width="0"/><rect x="206.5806539959587" y="324.419296875" width="24.98074041034864" height="142.580703125" fill="#ECECFF" stroke="#ECECFF" stroke-width="0"/><rect x="234.0714209547156" y="324.419296875" width="24.98074041034864" height="142.580703125" fill="#ECECFF" stroke="#ECECFF" stroke-width="0"/><rect x="261.5621879134725" y="312.1846875" width="24.98074041034864" height="154.8153125" fill="#ECECFF" stroke="#ECECFF" stroke-width="0"/><rect x="289.05295487222935" y="308.10648437500004" width="24.98074041034864" height="158.89351562499996" fill="#ECECFF" stroke="#ECECFF" stroke-width="0"/><rect x="316.5437218309862" y="295.871875" width="24.98074041034864" height="171.128125" fill="#ECECFF" stroke="#ECECFF" stroke-width="0"/><rect x="344.0344887897431" y="271.40265625" width="24.98074041034864" height="195.59734375" fill="#ECECFF" stroke="#ECECFF" stroke-width="0"/><rect x="371.5252557485" y="242.85523437499998" width="24.98074041034864" height="224.14476562500002" fill="#ECECFF" stroke="#ECECFF" stroke-width="0"/><rect x="399.01602270725687" y="210.22960937500002" width="24.98074041034864" height="256.770390625" fill="#ECECFF" stroke="#ECECFF" stroke-width="0"/><rect x="426.50678966601373" y="197.99499999999998" width="24.98074041034864" height="269.005" fill="#ECECFF" stroke="#ECECFF" stroke-width="0"/><rect x="453.99755662477065" y="185.76039062499996" width="24.98074041034864" height="281.23960937500004" fill="#ECECFF" stroke="#ECECFF" stroke-width="0"/><rect x="481.4883235835275" y="185.76039062499996" width="24.98074041034864" height="281.23960937500004" fill="#ECECFF" stroke="#ECECFF" stroke-width="0"/><rect x="508.9790905422844" y="185.76039062499996" width="24.98074041034864" height="281.23960937500004" fill="#ECECFF" stroke="#ECECFF" stroke-width="0"/><rect x="536.4698575010412" y="173.52578125000002" width="24.98074041034864" height="293.47421875" fill="#ECECFF" stroke="#ECECFF" stroke-width="0"/><rect x="563.960624459798" y="153.134765625" width="24.98074041034864" height="313.865234375" fill="#ECECFF" stroke="#ECECFF" stroke-width="0"/><rect x="591.451391418555" y="128.665546875" width="24.98074041034864" height="338.334453125" fill="#ECECFF" stroke="#ECECFF" stroke-width="0"/><rect x="618.9421583773118" y="116.43093750000001" width="24.98074041034864" height="350.5690625" fill="#ECECFF" stroke="#ECECFF" stroke-width="0"/><rect x="646.4329253360687" y="104.19632812500001" width="24.98074041034864" height="362.80367187499996" fill="#ECECFF" stroke="#ECECFF" stroke-width="0"/><rect x="673.9236922948256" y="96.039921875" width="24.98074041034864" height="370.960078125" fill="#ECECFF" stroke="#ECECFF" stroke-width="0"/></g></g><g class="bottom-axis"><g class="axis-line"><path d="M 68.03125190734863,468 L 700,468" fill="none" stroke="#131300" stroke-width="2"/></g><g class="label"><text x="0" y="0" fill="#131300" font-size="14" dominant-baseline="text-before-edge" text-anchor="middle" transform="translate(81.61718940734863, 479) rotate(0)">2.25</text><text x="0" y="0" fill="#131300" font-size="14" dominant-baseline="text-before-edge" text-anchor="middle" transform="translate(109.10795636610551, 479) rotate(0)">26</text><text x="0" y="0" fill="#131300" font-size="14" dominant-baseline="text-before-edge" text-anchor="middle" transform="translate(136.5987233248624, 479) rotate(0)">27</text><text x="0" y="0" fill="#131300" font-size="14" dominant-baseline="text-before-edge" text-anchor="middle" transform="translate(164.08949028361928, 479) rotate(0)">28</text><text x="0" y="0" fill="#131300" font-size="14" dominant-baseline="text-before-edge" text-anchor="middle" transform="translate(191.58025724237615, 479) rotate(0)">3.1</text><text x="0" y="0" fill="#131300" font-size="14" dominant-baseline="text-before-edge" text-anchor="middle" transform="translate(219.071024201133, 479) rotate(0)">2</text><text x="0" y="0" fill="#131300" font-size="14" dominant-baseline="text-before-edge" text-anchor="middle" transform="translate(246.5617911598899, 479) rotate(0)">3</text><text x="0" y="0" fill="#131300" font-size="14" dominant-baseline="text-before-edge" text-anchor="middle" transform="translate(274.0525581186468, 479) rotate(0)">4</text><text x="0" y="0" fill="#131300" font-size="14" dominant-baseline="text-before-edge" text-anchor="middle" transform="translate(301.54332507740367, 479) rotate(0)">5</text><text x="0" y="0" fill="#131300" font-size="14" dominant-baseline="text-before-edge" text-anchor="middle" transform="translate(329.03409203616053, 479) rotate(0)">6</text><text x="0" y="0" fill="#131300" font-size="14" dominant-baseline="text-before-edge" text-anchor="middle" transform="translate(356.5248589949174, 479) rotate(0)">7</text><text x="0" y="0" fill="#131300" font-size="14" dominant-baseline="text-before-edge" text-anchor="middle" transform="translate(384.0156259536743, 479) rotate(0)">8</text><text x="0" y="0" fill="#131300" font-size="14" dominant-baseline="text-before-edge" text-anchor="middle" transform="translate(411.5063929124312, 479) rotate(0)">9</text><text x="0" y="0" fill="#131300" font-size="14" dominant-baseline="text-before-edge" text-anchor="middle" transform="translate(438.99715987118805, 479) rotate(0)">10</text><text x="0" y="0" fill="#131300" font-size="14" dominant-baseline="text-before-edge" text-anchor="middle" transform="translate(466.48792682994497, 479) rotate(0)">11</text><text x="0" y="0" fill="#131300" font-size="14" dominant-baseline="text-before-edge" text-anchor="middle" transform="translate(493.97869378870183, 479) rotate(0)">12</text><text x="0" y="0" fill="#131300" font-size="14" dominant-baseline="text-before-edge" text-anchor="middle" transform="translate(521.4694607474587, 479) rotate(0)">13</text><text x="0" y="0" fill="#131300" font-size="14" dominant-baseline="text-before-edge" text-anchor="middle" transform="translate(548.9602277062156, 479) rotate(0)">14</text><text x="0" y="0" fill="#131300" font-size="14" dominant-baseline="text-before-edge" text-anchor="middle" transform="translate(576.4509946649724, 479) rotate(0)">15</text><text x="0" y="0" fill="#131300" font-size="14" dominant-baseline="text-before-edge" text-anchor="middle" transform="translate(603.9417616237293, 479) rotate(0)">16</text><text x="0" y="0" fill="#131300" font-size="14" dominant-baseline="text-before-edge" text-anchor="middle" transform="translate(631.4325285824862, 479) rotate(0)">17</text><text x="0" y="0" fill="#131300" font-size="14" dominant-baseline="text-before-edge" text-anchor="middle" transform="translate(658.9232955412431, 479) rotate(0)">18</text><text x="0" y="0" fill="#131300" font-size="14" dominant-baseline="text-before-edge" text-anchor="middle" transform="translate(686.4140625, 479) rotate(0)">19</text></g><g class="ticks"><path d="M 81.61718940734863,469 L 81.61718940734863,474" fill="none" stroke="#131300" stroke-width="2"/><path d="M 109.10795636610551,469 L 109.10795636610551,474" fill="none" stroke="#131300" stroke-width="2"/><path d="M 136.5987233248624,469 L 136.5987233248624,474" fill="none" stroke="#131300" stroke-width="2"/><path d="M 164.08949028361928,469 L 164.08949028361928,474" fill="none" stroke="#131300" stroke-width="2"/><path d="M 191.58025724237615,469 L 191.58025724237615,474" fill="none" stroke="#131300" stroke-width="2"/><path d="M 219.071024201133,469 L 219.071024201133,474" fill="none" stroke="#131300" stroke-width="2"/><path d="M 246.5617911598899,469 L 246.5617911598899,474" fill="none" stroke="#131300" stroke-width="2"/><path d="M 274.0525581186468,469 L 274.0525581186468,474" fill="none" stroke="#131300" stroke-width="2"/><path d="M 301.54332507740367,469 L 301.54332507740367,474" fill="none" stroke="#131300" stroke-width="2"/><path d="M 329.03409203616053,469 L 329.03409203616053,474" fill="none" stroke="#131300" stroke-width="2"/><path d="M 356.5248589949174,469 L 356.5248589949174,474" fill="none" stroke="#131300" stroke-width="2"/><path d="M 384.0156259536743,469 L 384.0156259536743,474" fill="none" stroke="#131300" stroke-width="2"/><path d="M 411.5063929124312,469 L 411.5063929124312,474" fill="none" stroke="#131300" stroke-width="2"/><path d="M 438.99715987118805,469 L 438.99715987118805,474" fill="none" stroke="#131300" stroke-width="2"/><path d="M 466.48792682994497,469 L 466.48792682994497,474" fill="none" stroke="#131300" stroke-width="2"/><path d="M 493.97869378870183,469 L 493.97869378870183,474" fill="none" stroke="#131300" stroke-width="2"/><path d="M 521.4694607474587,469 L 521.4694607474587,474" fill="none" stroke="#131300" stroke-width="2"/><path d="M 548.9602277062156,469 L 548.9602277062156,474" fill="none" stroke="#131300" stroke-width="2"/><path d="M 576.4509946649724,469 L 576.4509946649724,474" fill="none" stroke="#131300" stroke-width="2"/><path d="M 603.9417616237293,469 L 603.9417616237293,474" fill="none" stroke="#131300" stroke-width="2"/><path d="M 631.4325285824862,469 L 631.4325285824862,474" fill="none" stroke="#131300" stroke-width="2"/><path d="M 658.9232955412431,469 L 658.9232955412431,474" fill="none" stroke="#131300" stroke-width="2"/><path d="M 686.4140625,469 L 686.4140625,474" fill="none" stroke="#131300" stroke-width="2"/></g></g><g class="left-axis"><g class="axisl-line"><path d="M 67.03125190734863,43.1796875 L 67.03125190734863,467" fill="none" stroke="#131300" stroke-width="2"/></g><g class="label"><text x="0" y="0" fill="#131300" font-size="14" dominant-baseline="middle" text-anchor="end" transform="translate(56.03125190734863, 51.1796875) rotate(0)">250</text><text x="0" y="0" fill="#131300" font-size="14" dominant-baseline="middle" text-anchor="end" transform="translate(56.03125190734863, 91.96171874999999) rotate(0)">240</text><text x="0" y="0" fill="#131300" font-size="14" dominant-baseline="middle" text-anchor="end" transform="translate(56.03125190734863, 132.74374999999998) rotate(0)">230</text><text x="0" y="0" fill="#131300" font-size="14" dominant-baseline="middle" text-anchor="end" transform="translate(56.03125190734863, 173.52578125000002) rotate(0)">220</text><text x="0" y="0" fill="#131300" font-size="14" dominant-baseline="middle" text-anchor="end" transform="translate(56.03125190734863, 214.3078125) rotate(0)">210</text><text x="0" y="0" fill="#131300" font-size="14" dominant-baseline="middle" text-anchor="end" transform="translate(56.03125190734863, 255.08984375) rotate(0)">200</text><text x="0" y="0" fill="#131300" font-size="14" dominant-baseline="middle" text-anchor="end" transform="translate(56.03125190734863, 295.871875) rotate(0)">190</text><text x="0" y="0" fill="#131300" font-size="14" dominant-baseline="middle" text-anchor="end" transform="translate(56.03125190734863, 336.65390625) rotate(0)">180</text><text x="0" y="0" fill="#131300" font-size="14" dominant-baseline="middle" text-anchor="end" transform="translate(56.03125190734863, 377.4359375) rotate(0)">170</text><text x="0" y="0" fill="#131300" font-size="14" dominant-baseline="middle" text-anchor="end" transform="translate(56.03125190734863, 418.21796875) rotate(0)">160</text><text x="0" y="0" fill="#131300" font-size="14" dominant-baseline="middle" text-anchor="end" transform="translate(56.03125190734863, 459) rotate(0)">150</text></g><g class="ticks"><path d="M 66.03125190734863,51.1796875 L 61.03125190734863,51.1796875" fill="none" stroke="#131300" stroke-width="2"/><path d="M 66.03125190734863,91.96171874999999 L 61.03125190734863,91.96171874999999" fill="none" stroke="#131300" stroke-width="2"/><path d="M 66.03125190734863,132.74374999999998 L 61.03125190734863,132.74374999999998" fill="none" stroke="#131300" stroke-width="2"/><path d="M 66.03125190734863,173.52578125000002 L 61.03125190734863,173.52578125000002" fill="none" stroke="#131300" stroke-width="2"/><path d="M 66.03125190734863,214.3078125 L 61.03125190734863,214.3078125" fill="none" stroke="#131300" stroke-width="2"/><path d="M 66.03125190734863,255.08984375 L 61.03125190734863,255.08984375" fill="none" stroke="#131300" stroke-width="2"/><path d="M 66.03125190734863,295.871875 L 61.03125190734863,295.871875" fill="none" stroke="#131300" stroke-width="2"/><path d="M 66.03125190734863,336.65390625 L 61.03125190734863,336.65390625" fill="none" stroke="#131300" stroke-width="2"/><path d="M 66.03125190734863,377.4359375 L 61.03125190734863,377.4359375" fill="none" stroke="#131300" stroke-width="2"/><path d="M 66.03125190734863,418.21796875 L 61.03125190734863,418.21796875" fill="none" stroke="#131300" stroke-width="2"/><path d="M 66.03125190734863,459 L 61.03125190734863,459" fill="none" stroke="#131300" stroke-width="2"/></g><g class="title"><text x="0" y="0" fill="#131300" font-size="16" dominant-baseline="text-before-edge" text-anchor="middle" transform="translate(5, 255.08984375) rotate(270)">Members</text></g></g></g><g class="mermaid-tmp-group"/></svg>