<svg id="my-svg" width="100%" xmlns="http://www.w3.org/2000/svg" xmlns:xlink="http://www.w3.org/1999/xlink" style="max-width: 700px; background-color: white;" viewBox="0 0 700 500" role="graphics-document document" aria-roledescription="xychart"><style>#my-svg{font-family:"trebuchet ms",verdana,arial,sans-serif;font-size:16px;fill:#333;}@keyframes edge-animation-frame{from{stroke-dashoffset:0;}}@keyframes dash{to{stroke-dashoffset:0;}}#my-svg .edge-animation-slow{stroke-dasharray:9,5!important;stroke-dashoffset:900;animation:dash 50s linear infinite;stroke-linecap:round;}#my-svg .edge-animation-fast{stroke-dasharray:9,5!important;stroke-dashoffset:900;animation:dash 20s linear infinite;stroke-linecap:round;}#my-svg .error-icon{fill:#552222;}#my-svg .error-text{fill:#552222;stroke:#552222;}#my-svg .edge-thickness-normal{stroke-width:1px;}#my-svg .edge-thickness-thick{stroke-width:3.5px;}#my-svg .edge-pattern-solid{stroke-dasharray:0;}#my-svg .edge-thickness-invisible{stroke-width:0;fill:none;}#my-svg .edge-pattern-dashed{stroke-dasharray:3;}#my-svg .edge-pattern-dotted{stroke-dasharray:2;}#my-svg .marker{fill:#333333;stroke:#333333;}#my-svg .marker.cross{stroke:#333333;}#my-svg svg{font-family:"trebuchet ms",verdana,arial,sans-serif;font-size:16px;}#my-svg p{margin:0;}#my-svg :root{--mermaid-font-family:"trebuchet ms",verdana,arial,sans-serif;}</style><g/><g class="main"><rect width="700" height="500" class="background" fill="white"/><g class="chart-title"><text x="0" y="0" fill="#131300" font-size="20" dominant-baseline="middle" text-anchor="middle" transform="translate(350, 21.58984375) rotate(0)">Daily Cumulative Member Tally (2026) - Zoomed</text></g><g class="plot"><g class="bar-plot-0"><rect x="74.25107364532275" y="405.66965144230767" width="14.732231524051764" height="61.33034855769233" fill="#ECECFF" stroke="#ECECFF" stroke-width="0"/><rect x="90.16678083197147" y="396.25841346153845" width="14.732231524051764" height="70.74158653846155" fill="#ECECFF" stroke="#ECECFF" stroke-width="0"/><rect x="106.08248801862018" y="386.84717548076924" width="14.732231524051764" height="80.15282451923076" fill="#ECECFF" stroke="#ECECFF" stroke-width="0"/><rect x="121.9981952052689" y="380.5730168269231" width="14.732231524051764" height="86.4269831730769" fill="#ECECFF" stroke="#ECECFF" stroke-width="0"/><rect x="137.91390239191762" y="361.75054086538455" width="14.732231524051764" height="105.24945913461545" fill="#ECECFF" stroke="#ECECFF" stroke-width="0"/><rect x="153.82960957856633" y="355.47638221153846" width="14.732231524051764" height="111.52361778846154" fill="#ECECFF" stroke="#ECECFF" stroke-width="0"/><rect x="169.74531676521508" y="355.47638221153846" width="14.732231524051764" height="111.52361778846154" fill="#ECECFF" stroke="#ECECFF" stroke-width="0"/><rect x="185.6610239518638" y="346.0651442307692" width="14.732231524051764" height="120.93485576923081" fill="#ECECFF" stroke="#ECECFF" stroke-width="0"/><rect x="201.5767311385125" y="342.9280649038462" width="14.732231524051764" height="124.07193509615382" fill="#ECECFF" stroke="#ECECFF" stroke-width="0"/><rect x="217.49243832516123" y="333.5168269230769" width="14.732231524051764" height="133.4831730769231" fill="#ECECFF" stroke="#ECECFF" stroke-width="0"/><rect x="233.40814551180995" y="314.6943509615384" width="14.732231524051764" height="152.30564903846158" fill="#ECECFF" stroke="#ECECFF" stroke-width="0"/><rect x="249.3238526984587" y="292.734795673077" width="14.732231524051764" height="174.26520432692303" fill="#ECECFF" stroke="#ECECFF" stroke-width="0"/><rect x="265.23955988510744" y="267.6381610576923" width="14.732231524051764" height="199.3618389423077" fill="#ECECFF" stroke="#ECECFF" stroke-width="0"/><rect x="281.15526707175616" y="258.2269230769231" width="14.732231524051764" height="208.77307692307693" fill="#ECECFF" stroke="#ECECFF" stroke-width="0"/><rect x="297.0709742584049" y="248.81568509615386" width="14.732231524051764" height="218.18431490384614" fill="#ECECFF" stroke="#ECECFF" stroke-width="0"/><rect x="312.9866814450536" y="248.81568509615386" width="14.732231524051764" height="218.18431490384614" fill="#ECECFF" stroke="#ECECFF" stroke-width="0"/><rect x="328.9023886317023" y="248.81568509615386" width="14.732231524051764" height="218.18431490384614" fill="#ECECFF" stroke="#ECECFF" stroke-width="0"/><rect x="344.818095818351" y="239.40444711538464" width="14.732231524051764" height="227.59555288461536" fill="#ECECFF" stroke="#ECECFF" stroke-width="0"/><rect x="360.73380300499974" y="223.71905048076925" width="14.732231524051764" height="243.28094951923075" fill="#ECECFF" stroke="#ECECFF" stroke-width="0"/><rect x="376.64951019164846" y="204.89657451923077" width="14.732231524051764" height="262.10342548076926" fill="#ECECFF" stroke="#ECECFF" stroke-width="0"/><rect x="392.5652173782972" y="195.48533653846152" width="14.732231524051764" height="271.5146634615385" fill="#ECECFF" stroke="#ECECFF" stroke-width="0"/><rect x="408.4809245649459" y="186.0740985576923" width="14.732231524051764" height="280.9259014423077" fill="#ECECFF" stroke="#ECECFF" stroke-width="0"/><rect x="424.3966317515946" y="176.66286057692307" width="14.732231524051764" height="290.3371394230769" fill="#ECECFF" stroke="#ECECFF" stroke-width="0"/><rect x="440.31233893824333" y="176.66286057692307" width="14.732231524051764" height="290.3371394230769" fill="#ECECFF" stroke="#ECECFF" stroke-width="0"/><rect x="456.2280461248921" y="164.11454326923078" width="14.732231524051764" height="302.8854567307692" fill="#ECECFF" stroke="#ECECFF" stroke-width="0"/><rect x="472.1437533115408" y="157.8403846153846" width="14.732231524051764" height="309.1596153846154" fill="#ECECFF" stroke="#ECECFF" stroke-width="0"/><rect x="488.05946049818954" y="157.8403846153846" width="14.732231524051764" height="309.1596153846154" fill="#ECECFF" stroke="#ECECFF" stroke-width="0"/><rect x="503.97516768483825" y="157.8403846153846" width="14.732231524051764" height="309.1596153846154" fill="#ECECFF" stroke="#ECECFF" stroke-width="0"/><rect x="519.890874871487" y="157.8403846153846" width="14.732231524051764" height="309.1596153846154" fill="#ECECFF" stroke="#ECECFF" stroke-width="0"/><rect x="535.8065820581357" y="157.8403846153846" width="14.732231524051764" height="309.1596153846154" fill="#ECECFF" stroke="#ECECFF" stroke-width="0"/><rect x="551.7222892447844" y="157.8403846153846" width="14.732231524051764" height="309.1596153846154" fill="#ECECFF" stroke="#ECECFF" stroke-width="0"/><rect x="567.6379964314331" y="157.8403846153846" width="14.732231524051764" height="309.1596153846154" fill="#ECECFF" stroke="#ECECFF" stroke-width="0"/><rect x="583.5537036180818" y="157.8403846153846" width="14.732231524051764" height="309.1596153846154" fill="#ECECFF" stroke="#ECECFF" stroke-width="0"/><rect x="599.4694108047306" y="157.8403846153846" width="14.732231524051764" height="309.1596153846154" fill="#ECECFF" stroke="#ECECFF" stroke-width="0"/><rect x="615.3851179913793" y="154.70330528846154" width="14.732231524051764" height="312.29669471153846" fill="#ECECFF" stroke="#ECECFF" stroke-width="0"/><rect x="631.300825178028" y="151.56622596153846" width="14.732231524051764" height="315.43377403846154" fill="#ECECFF" stroke="#ECECFF" stroke-width="0"/><rect x="647.2165323646767" y="145.2920673076923" width="14.732231524051764" height="321.70793269230774" fill="#ECECFF" stroke="#ECECFF" stroke-width="0"/><rect x="663.1322395513255" y="91.96171874999999" width="14.732231524051764" height="375.03828125" fill="#ECECFF" stroke="#ECECFF" stroke-width="0"/><rect x="679.0479467379741" y="91.96171874999999" width="14.732231524051764" height="375.03828125" fill="#ECECFF" stroke="#ECECFF" stroke-width="0"/></g></g><g class="bottom-axis"><g class="axis-line"><path d="M 68.03125190734863,468 L 700,468" fill="none" stroke="#131300" stroke-width="2"/></g><g class="label"><text x="0" y="0" fill="#131300" font-size="14" dominant-baseline="text-before-edge" text-anchor="middle" transform="translate(81.61718940734863, 479) rotate(0)">2.25</text><text x="0" y="0" fill="#131300" font-size="14" dominant-baseline="text-before-edge" text-anchor="middle" transform="translate(97.53289659399735, 479) rotate(0)">вЂ‹вЂ‹</text><text x="0" y="0" fill="#131300" font-size="14" dominant-baseline="text-before-edge" text-anchor="middle" transform="translate(113.44860378064607, 479) rotate(0)">вЂ‹вЂ‹вЂ‹</text><text x="0" y="0" fill="#131300" font-size="14" dominant-baseline="text-before-edge" text-anchor="middle" transform="translate(129.36431096729478, 479) rotate(0)">вЂ‹вЂ‹вЂ‹вЂ‹</text><text x="0" y="0" fill="#131300" font-size="14" dominant-baseline="text-before-edge" text-anchor="middle" transform="translate(145.2800181539435, 479) rotate(0)">3.1</text><text x="0" y="0" fill="#131300" font-size="14" dominant-baseline="text-before-edge" text-anchor="middle" transform="translate(161.19572534059222, 479) rotate(0)">вЂ‹вЂ‹вЂ‹вЂ‹вЂ‹вЂ‹</text><text x="0" y="0" fill="#131300" font-size="14" dominant-baseline="text-before-edge" text-anchor="middle" transform="translate(177.11143252724096, 479) rotate(0)">вЂ‹вЂ‹вЂ‹вЂ‹вЂ‹вЂ‹вЂ‹</text><text x="0" y="0" fill="#131300" font-size="14" dominant-baseline="text-before-edge" text-anchor="middle" transform="translate(193.02713971388968, 479) rotate(0)">вЂ‹вЂ‹вЂ‹вЂ‹вЂ‹вЂ‹вЂ‹вЂ‹</text><text x="0" y="0" fill="#131300" font-size="14" dominant-baseline="text-before-edge" text-anchor="middle" transform="translate(208.9428469005384, 479) rotate(0)">вЂ‹вЂ‹вЂ‹вЂ‹вЂ‹вЂ‹вЂ‹вЂ‹вЂ‹</text><text x="0" y="0" fill="#131300" font-size="14" dominant-baseline="text-before-edge" text-anchor="middle" transform="translate(224.85855408718712, 479) rotate(0)">вЂ‹вЂ‹вЂ‹вЂ‹вЂ‹вЂ‹вЂ‹вЂ‹вЂ‹вЂ‹</text><text x="0" y="0" fill="#131300" font-size="14" dominant-baseline="text-before-edge" text-anchor="middle" transform="translate(240.77426127383583, 479) rotate(0)">вЂ‹вЂ‹вЂ‹вЂ‹вЂ‹вЂ‹вЂ‹вЂ‹вЂ‹вЂ‹вЂ‹</text><text x="0" y="0" fill="#131300" font-size="14" dominant-baseline="text-before-edge" text-anchor="middle" transform="translate(256.6899684604846, 479) rotate(0)">3.8</text><text x="0" y="0" fill="#131300" font-size="14" dominant-baseline="text-before-edge" text-anchor="middle" transform="translate(272.6056756471333, 479) rotate(0)">вЂ‹вЂ‹вЂ‹вЂ‹вЂ‹вЂ‹вЂ‹вЂ‹вЂ‹вЂ‹вЂ‹вЂ‹вЂ‹</text><text x="0" y="0" fill="#131300" font-size="14" dominant-baseline="text-before-edge" text-anchor="middle" transform="translate(288.521382833782, 479) rotate(0)">вЂ‹вЂ‹вЂ‹вЂ‹вЂ‹вЂ‹вЂ‹вЂ‹вЂ‹вЂ‹вЂ‹вЂ‹вЂ‹вЂ‹</text><text x="0" y="0" fill="#131300" font-size="14" dominant-baseline="text-before-edge" text-anchor="middle" transform="translate(304.43709002043073, 479) rotate(0)">вЂ‹вЂ‹вЂ‹вЂ‹вЂ‹вЂ‹вЂ‹вЂ‹вЂ‹вЂ‹вЂ‹вЂ‹вЂ‹вЂ‹вЂ‹</text><text x="0" y="0" fill="#131300" font-size="14" dominant-baseline="text-before-edge" text-anchor="middle" transform="translate(320.35279720707945, 479) rotate(0)">вЂ‹вЂ‹вЂ‹вЂ‹вЂ‹вЂ‹вЂ‹вЂ‹вЂ‹вЂ‹вЂ‹вЂ‹вЂ‹вЂ‹вЂ‹вЂ‹</text><text x="0" y="0" fill="#131300" font-size="14" dominant-baseline="text-before-edge" text-anchor="middle" transform="translate(336.26850439372816, 479) rotate(0)">вЂ‹вЂ‹вЂ‹вЂ‹вЂ‹вЂ‹вЂ‹вЂ‹вЂ‹вЂ‹вЂ‹вЂ‹вЂ‹вЂ‹вЂ‹вЂ‹вЂ‹</text><text x="0" y="0" fill="#131300" font-size="14" dominant-baseline="text-before-edge" text-anchor="middle" transform="translate(352.1842115803769, 479) rotate(0)">вЂ‹вЂ‹вЂ‹вЂ‹вЂ‹вЂ‹вЂ‹вЂ‹вЂ‹вЂ‹вЂ‹вЂ‹вЂ‹вЂ‹вЂ‹вЂ‹вЂ‹вЂ‹</text><text x="0" y="0" fill="#131300" font-size="14" dominant-baseline="text-before-edge" text-anchor="middle" transform="translate(368.0999187670256, 479) rotate(0)">3.15</text><text x="0" y="0" fill="#131300" font-size="14" dominant-baseline="text-before-edge" text-anchor="middle" transform="translate(384.0156259536743, 479) rotate(0)">вЂ‹вЂ‹вЂ‹вЂ‹вЂ‹вЂ‹вЂ‹вЂ‹вЂ‹вЂ‹вЂ‹вЂ‹вЂ‹вЂ‹вЂ‹вЂ‹вЂ‹вЂ‹вЂ‹вЂ‹</text><text x="0" y="0" fill="#131300" font-size="14" dominant-baseline="text-before-edge" text-anchor="middle" transform="translate(399.93133314032303, 479) rotate(0)">вЂ‹вЂ‹вЂ‹вЂ‹вЂ‹вЂ‹вЂ‹вЂ‹вЂ‹вЂ‹вЂ‹вЂ‹вЂ‹вЂ‹вЂ‹вЂ‹вЂ‹вЂ‹вЂ‹вЂ‹вЂ‹</text><text x="0" y="0" fill="#131300" font-size="14" dominant-baseline="text-before-edge" text-anchor="middle" transform="translate(415.84704032697175, 479) rotate(0)">вЂ‹вЂ‹вЂ‹вЂ‹вЂ‹вЂ‹вЂ‹вЂ‹вЂ‹вЂ‹вЂ‹вЂ‹вЂ‹вЂ‹вЂ‹вЂ‹вЂ‹вЂ‹вЂ‹вЂ‹вЂ‹вЂ‹</text><text x="0" y="0" fill="#131300" font-size="14" dominant-baseline="text-before-edge" text-anchor="middle" transform="translate(431.76274751362047, 479) rotate(0)">вЂ‹вЂ‹вЂ‹вЂ‹вЂ‹вЂ‹вЂ‹вЂ‹вЂ‹вЂ‹вЂ‹вЂ‹вЂ‹вЂ‹вЂ‹вЂ‹вЂ‹вЂ‹вЂ‹вЂ‹вЂ‹вЂ‹вЂ‹</text><text x="0" y="0" fill="#131300" font-size="14" dominant-baseline="text-before-edge" text-anchor="middle" transform="translate(447.6784547002692, 479) rotate(0)">вЂ‹вЂ‹вЂ‹вЂ‹вЂ‹вЂ‹вЂ‹вЂ‹вЂ‹вЂ‹вЂ‹вЂ‹вЂ‹вЂ‹вЂ‹вЂ‹вЂ‹вЂ‹вЂ‹вЂ‹вЂ‹вЂ‹вЂ‹вЂ‹</text><text x="0" y="0" fill="#131300" font-size="14" dominant-baseline="text-before-edge" text-anchor="middle" transform="translate(463.59416188691796, 479) rotate(0)">вЂ‹вЂ‹вЂ‹вЂ‹вЂ‹вЂ‹вЂ‹вЂ‹вЂ‹вЂ‹вЂ‹вЂ‹вЂ‹вЂ‹вЂ‹вЂ‹вЂ‹вЂ‹вЂ‹вЂ‹вЂ‹вЂ‹вЂ‹вЂ‹вЂ‹</text><text x="0" y="0" fill="#131300" font-size="14" dominant-baseline="text-before-edge" text-anchor="middle" transform="translate(479.5098690735667, 479) rotate(0)">3.22</text><text x="0" y="0" fill="#131300" font-size="14" dominant-baseline="text-before-edge" text-anchor="middle" transform="translate(495.4255762602154, 479) rotate(0)">вЂ‹вЂ‹вЂ‹вЂ‹вЂ‹вЂ‹вЂ‹вЂ‹вЂ‹вЂ‹вЂ‹вЂ‹вЂ‹вЂ‹вЂ‹вЂ‹вЂ‹вЂ‹вЂ‹вЂ‹вЂ‹вЂ‹вЂ‹вЂ‹вЂ‹вЂ‹вЂ‹</text><text x="0" y="0" fill="#131300" font-size="14" dominant-baseline="text-before-edge" text-anchor="middle" transform="translate(511.3412834468641, 479) rotate(0)">вЂ‹вЂ‹вЂ‹вЂ‹вЂ‹вЂ‹вЂ‹вЂ‹вЂ‹вЂ‹вЂ‹вЂ‹вЂ‹вЂ‹вЂ‹вЂ‹вЂ‹вЂ‹вЂ‹вЂ‹вЂ‹вЂ‹вЂ‹вЂ‹вЂ‹вЂ‹вЂ‹вЂ‹</text><text x="0" y="0" fill="#131300" font-size="14" dominant-baseline="text-before-edge" text-anchor="middle" transform="translate(527.2569906335128, 479) rotate(0)">вЂ‹вЂ‹вЂ‹вЂ‹вЂ‹вЂ‹вЂ‹вЂ‹вЂ‹вЂ‹вЂ‹вЂ‹вЂ‹вЂ‹вЂ‹вЂ‹вЂ‹вЂ‹вЂ‹вЂ‹вЂ‹вЂ‹вЂ‹вЂ‹вЂ‹вЂ‹вЂ‹вЂ‹вЂ‹</text><text x="0" y="0" fill="#131300" font-size="14" dominant-baseline="text-before-edge" text-anchor="middle" transform="translate(543.1726978201616, 479) rotate(0)">вЂ‹вЂ‹вЂ‹вЂ‹вЂ‹вЂ‹вЂ‹вЂ‹вЂ‹вЂ‹вЂ‹вЂ‹вЂ‹вЂ‹вЂ‹вЂ‹вЂ‹вЂ‹вЂ‹вЂ‹вЂ‹вЂ‹вЂ‹вЂ‹вЂ‹вЂ‹вЂ‹вЂ‹вЂ‹вЂ‹</text><text x="0" y="0" fill="#131300" font-size="14" dominant-baseline="text-before-edge" text-anchor="middle" transform="translate(559.0884050068103, 479) rotate(0)">вЂ‹вЂ‹вЂ‹вЂ‹вЂ‹вЂ‹вЂ‹вЂ‹вЂ‹вЂ‹вЂ‹вЂ‹вЂ‹вЂ‹вЂ‹вЂ‹вЂ‹вЂ‹вЂ‹вЂ‹вЂ‹вЂ‹вЂ‹вЂ‹вЂ‹вЂ‹вЂ‹вЂ‹вЂ‹вЂ‹вЂ‹</text><text x="0" y="0" fill="#131300" font-size="14" dominant-baseline="text-before-edge" text-anchor="middle" transform="translate(575.0041121934589, 479) rotate(0)">вЂ‹вЂ‹вЂ‹вЂ‹вЂ‹вЂ‹вЂ‹вЂ‹вЂ‹вЂ‹вЂ‹вЂ‹вЂ‹вЂ‹вЂ‹вЂ‹вЂ‹вЂ‹вЂ‹вЂ‹вЂ‹вЂ‹вЂ‹вЂ‹вЂ‹вЂ‹вЂ‹вЂ‹вЂ‹вЂ‹вЂ‹вЂ‹</text><text x="0" y="0" fill="#131300" font-size="14" dominant-baseline="text-before-edge" text-anchor="middle" transform="translate(590.9198193801077, 479) rotate(0)">3.29</text><text x="0" y="0" fill="#131300" font-size="14" dominant-baseline="text-before-edge" text-anchor="middle" transform="translate(606.8355265667565, 479) rotate(0)">вЂ‹вЂ‹вЂ‹вЂ‹вЂ‹вЂ‹вЂ‹вЂ‹вЂ‹вЂ‹вЂ‹вЂ‹вЂ‹вЂ‹вЂ‹вЂ‹вЂ‹вЂ‹вЂ‹вЂ‹вЂ‹вЂ‹вЂ‹вЂ‹вЂ‹вЂ‹вЂ‹вЂ‹вЂ‹вЂ‹вЂ‹вЂ‹вЂ‹вЂ‹</text><text x="0" y="0" fill="#131300" font-size="14" dominant-baseline="text-before-edge" text-anchor="middle" transform="translate(622.7512337534051, 479) rotate(0)">вЂ‹вЂ‹вЂ‹вЂ‹вЂ‹вЂ‹вЂ‹вЂ‹вЂ‹вЂ‹вЂ‹вЂ‹вЂ‹вЂ‹вЂ‹вЂ‹вЂ‹вЂ‹вЂ‹вЂ‹вЂ‹вЂ‹вЂ‹вЂ‹вЂ‹вЂ‹вЂ‹вЂ‹вЂ‹вЂ‹вЂ‹вЂ‹вЂ‹вЂ‹вЂ‹</text><text x="0" y="0" fill="#131300" font-size="14" dominant-baseline="text-before-edge" text-anchor="middle" transform="translate(638.6669409400539, 479) rotate(0)">4.1</text><text x="0" y="0" fill="#131300" font-size="14" dominant-baseline="text-before-edge" text-anchor="middle" transform="translate(654.5826481267026, 479) rotate(0)">вЂ‹вЂ‹вЂ‹вЂ‹вЂ‹вЂ‹вЂ‹вЂ‹вЂ‹вЂ‹вЂ‹вЂ‹вЂ‹вЂ‹вЂ‹вЂ‹вЂ‹вЂ‹вЂ‹вЂ‹вЂ‹вЂ‹вЂ‹вЂ‹вЂ‹вЂ‹вЂ‹вЂ‹вЂ‹вЂ‹вЂ‹вЂ‹вЂ‹вЂ‹вЂ‹вЂ‹вЂ‹</text><text x="0" y="0" fill="#131300" font-size="14" dominant-baseline="text-before-edge" text-anchor="middle" transform="translate(670.4983553133513, 479) rotate(0)">вЂ‹вЂ‹вЂ‹вЂ‹вЂ‹вЂ‹вЂ‹вЂ‹вЂ‹вЂ‹вЂ‹вЂ‹вЂ‹вЂ‹вЂ‹вЂ‹вЂ‹вЂ‹вЂ‹вЂ‹вЂ‹вЂ‹вЂ‹вЂ‹вЂ‹вЂ‹вЂ‹вЂ‹вЂ‹вЂ‹вЂ‹вЂ‹вЂ‹вЂ‹вЂ‹вЂ‹вЂ‹вЂ‹</text><text x="0" y="0" fill="#131300" font-size="14" dominant-baseline="text-before-edge" text-anchor="middle" transform="translate(686.4140625, 479) rotate(0)">4.4</text></g><g class="ticks"><path d="M 81.61718940734863,469 L 81.61718940734863,474" fill="none" stroke="#131300" stroke-width="2"/><path d="M 97.53289659399735,469 L 97.53289659399735,474" fill="none" stroke="#131300" stroke-width="2"/><path d="M 113.44860378064607,469 L 113.44860378064607,474" fill="none" stroke="#131300" stroke-width="2"/><path d="M 129.36431096729478,469 L 129.36431096729478,474" fill="none" stroke="#131300" stroke-width="2"/><path d="M 145.2800181539435,469 L 145.2800181539435,474" fill="none" stroke="#131300" stroke-width="2"/><path d="M 161.19572534059222,469 L 161.19572534059222,474" fill="none" stroke="#131300" stroke-width="2"/><path d="M 177.11143252724096,469 L 177.11143252724096,474" fill="none" stroke="#131300" stroke-width="2"/><path d="M 193.02713971388968,469 L 193.02713971388968,474" fill="none" stroke="#131300" stroke-width="2"/><path d="M 208.9428469005384,469 L 208.9428469005384,474" fill="none" stroke="#131300" stroke-width="2"/><path d="M 224.85855408718712,469 L 224.85855408718712,474" fill="none" stroke="#131300" stroke-width="2"/><path d="M 240.77426127383583,469 L 240.77426127383583,474" fill="none" stroke="#131300" stroke-width="2"/><path d="M 256.6899684604846,469 L 256.6899684604846,474" fill="none" stroke="#131300" stroke-width="2"/><path d="M 272.6056756471333,469 L 272.6056756471333,474" fill="none" stroke="#131300" stroke-width="2"/><path d="M 288.521382833782,469 L 288.521382833782,474" fill="none" stroke="#131300" stroke-width="2"/><path d="M 304.43709002043073,469 L 304.43709002043073,474" fill="none" stroke="#131300" stroke-width="2"/><path d="M 320.35279720707945,469 L 320.35279720707945,474" fill="none" stroke="#131300" stroke-width="2"/><path d="M 336.26850439372816,469 L 336.26850439372816,474" fill="none" stroke="#131300" stroke-width="2"/><path d="M 352.1842115803769,469 L 352.1842115803769,474" fill="none" stroke="#131300" stroke-width="2"/><path d="M 368.0999187670256,469 L 368.0999187670256,474" fill="none" stroke="#131300" stroke-width="2"/><path d="M 384.0156259536743,469 L 384.0156259536743,474" fill="none" stroke="#131300" stroke-width="2"/><path d="M 399.93133314032303,469 L 399.93133314032303,474" fill="none" stroke="#131300" stroke-width="2"/><path d="M 415.84704032697175,469 L 415.84704032697175,474" fill="none" stroke="#131300" stroke-width="2"/><path d="M 431.76274751362047,469 L 431.76274751362047,474" fill="none" stroke="#131300" stroke-width="2"/><path d="M 447.6784547002692,469 L 447.6784547002692,474" fill="none" stroke="#131300" stroke-width="2"/><path d="M 463.59416188691796,469 L 463.59416188691796,474" fill="none" stroke="#131300" stroke-width="2"/><path d="M 479.5098690735667,469 L 479.5098690735667,474" fill="none" stroke="#131300" stroke-width="2"/><path d="M 495.4255762602154,469 L 495.4255762602154,474" fill="none" stroke="#131300" stroke-width="2"/><path d="M 511.3412834468641,469 L 511.3412834468641,474" fill="none" stroke="#131300" stroke-width="2"/><path d="M 527.2569906335128,469 L 527.2569906335128,474" fill="none" stroke="#131300" stroke-width="2"/><path d="M 543.1726978201616,469 L 543.1726978201616,474" fill="none" stroke="#131300" stroke-width="2"/><path d="M 559.0884050068103,469 L 559.0884050068103,474" fill="none" stroke="#131300" stroke-width="2"/><path d="M 575.0041121934589,469 L 575.0041121934589,474" fill="none" stroke="#131300" stroke-width="2"/><path d="M 590.9198193801077,469 L 590.9198193801077,474" fill="none" stroke="#131300" stroke-width="2"/><path d="M 606.8355265667565,469 L 606.8355265667565,474" fill="none" stroke="#131300" stroke-width="2"/><path d="M 622.7512337534051,469 L 622.7512337534051,474" fill="none" stroke="#131300" stroke-width="2"/><path d="M 638.6669409400539,469 L 638.6669409400539,474" fill="none" stroke="#131300" stroke-width="2"/><path d="M 654.5826481267026,469 L 654.5826481267026,474" fill="none" stroke="#131300" stroke-width="2"/><path d="M 670.4983553133513,469 L 670.4983553133513,474" fill="none" stroke="#131300" stroke-width="2"/><path d="M 686.4140625,469 L 686.4140625,474" fill="none" stroke="#131300" stroke-width="2"/></g></g><g class="left-axis"><g class="axisl-line"><path d="M 67.03125190734863,43.1796875 L 67.03125190734863,467" fill="none" stroke="#131300" stroke-width="2"/></g><g class="label"><text x="0" y="0" fill="#131300" font-size="14" dominant-baseline="middle" text-anchor="end" transform="translate(56.03125190734863, 51.1796875) rotate(0)">280</text><text x="0" y="0" fill="#131300" font-size="14" dominant-baseline="middle" text-anchor="end" transform="translate(56.03125190734863, 82.55048076923075) rotate(0)">270</text><text x="0" y="0" fill="#131300" font-size="14" dominant-baseline="middle" text-anchor="end" transform="translate(56.03125190734863, 113.92127403846153) rotate(0)">260</text><text x="0" y="0" fill="#131300" font-size="14" dominant-baseline="middle" text-anchor="end" transform="translate(56.03125190734863, 145.2920673076923) rotate(0)">250</text><text x="0" y="0" fill="#131300" font-size="14" dominant-baseline="middle" text-anchor="end" transform="translate(56.03125190734863, 176.66286057692307) rotate(0)">240</text><text x="0" y="0" fill="#131300" font-size="14" dominant-baseline="middle" text-anchor="end" transform="translate(56.03125190734863, 208.03365384615384) rotate(0)">230</text><text x="0" y="0" fill="#131300" font-size="14" dominant-baseline="middle" text-anchor="end" transform="translate(56.03125190734863, 239.40444711538464) rotate(0)">220</text><text x="0" y="0" fill="#131300" font-size="14" dominant-baseline="middle" text-anchor="end" transform="translate(56.03125190734863, 270.77524038461536) rotate(0)">210</text><text x="0" y="0" fill="#131300" font-size="14" dominant-baseline="middle" text-anchor="end" transform="translate(56.03125190734863, 302.14603365384613) rotate(0)">200</text><text x="0" y="0" fill="#131300" font-size="14" dominant-baseline="middle" text-anchor="end" transform="translate(56.03125190734863, 333.5168269230769) rotate(0)">190</text><text x="0" y="0" fill="#131300" font-size="14" dominant-baseline="middle" text-anchor="end" transform="translate(56.03125190734863, 364.8876201923077) rotate(0)">180</text><text x="0" y="0" fill="#131300" font-size="14" dominant-baseline="middle" text-anchor="end" transform="translate(56.03125190734863, 396.25841346153845) rotate(0)">170</text><text x="0" y="0" fill="#131300" font-size="14" dominant-baseline="middle" text-anchor="end" transform="translate(56.03125190734863, 427.6292067307693) rotate(0)">160</text><text x="0" y="0" fill="#131300" font-size="14" dominant-baseline="middle" text-anchor="end" transform="translate(56.03125190734863, 459) rotate(0)">150</text></g><g class="ticks"><path d="M 66.03125190734863,51.1796875 L 61.03125190734863,51.1796875" fill="none" stroke="#131300" stroke-width="2"/><path d="M 66.03125190734863,82.55048076923075 L 61.03125190734863,82.55048076923075" fill="none" stroke="#131300" stroke-width="2"/><path d="M 66.03125190734863,113.92127403846153 L 61.03125190734863,113.92127403846153" fill="none" stroke="#131300" stroke-width="2"/><path d="M 66.03125190734863,145.2920673076923 L 61.03125190734863,145.2920673076923" fill="none" stroke="#131300" stroke-width="2"/><path d="M 66.03125190734863,176.66286057692307 L 61.03125190734863,176.66286057692307" fill="none" stroke="#131300" stroke-width="2"/><path d="M 66.03125190734863,208.03365384615384 L 61.03125190734863,208.03365384615384" fill="none" stroke="#131300" stroke-width="2"/><path d="M 66.03125190734863,239.40444711538464 L 61.03125190734863,239.40444711538464" fill="none" stroke="#131300" stroke-width="2"/><path d="M 66.03125190734863,270.77524038461536 L 61.03125190734863,270.77524038461536" fill="none" stroke="#131300" stroke-width="2"/><path d="M 66.03125190734863,302.14603365384613 L 61.03125190734863,302.14603365384613" fill="none" stroke="#131300" stroke-width="2"/><path d="M 66.03125190734863,333.5168269230769 L 61.03125190734863,333.5168269230769" fill="none" stroke="#131300" stroke-width="2"/><path d="M 66.03125190734863,364.8876201923077 L 61.03125190734863,364.8876201923077" fill="none" stroke="#131300" stroke-width="2"/><path d="M 66.03125190734863,396.25841346153845 L 61.03125190734863,396.25841346153845" fill="none" stroke="#131300" stroke-width="2"/><path d="M 66.03125190734863,427.6292067307693 L 61.03125190734863,427.6292067307693" fill="none" stroke="#131300" stroke-width="2"/><path d="M 66.03125190734863,459 L 61.03125190734863,459" fill="none" stroke="#131300" stroke-width="2"/></g><g class="title"><text x="0" y="0" fill="#131300" font-size="16" dominant-baseline="text-before-edge" text-anchor="middle" transform="translate(5, 255.08984375) rotate(270)">Members</text></g></g></g><g class="mermaid-tmp-group"/></svg>