<svg id="my-svg" width="100%" xmlns="http://www.w3.org/2000/svg" xmlns:xlink="http://www.w3.org/1999/xlink" style="max-width: 700px; background-color: white;" viewBox="0 0 700 500" role="graphics-document document" aria-roledescription="xychart"><style>#my-svg{font-family:"trebuchet ms",verdana,arial,sans-serif;font-size:16px;fill:#333;}@keyframes edge-animation-frame{from{stroke-dashoffset:0;}}@keyframes dash{to{stroke-dashoffset:0;}}#my-svg .edge-animation-slow{stroke-dasharray:9,5!important;stroke-dashoffset:900;animation:dash 50s linear infinite;stroke-linecap:round;}#my-svg .edge-animation-fast{stroke-dasharray:9,5!important;stroke-dashoffset:900;animation:dash 20s linear infinite;stroke-linecap:round;}#my-svg .error-icon{fill:#552222;}#my-svg .error-text{fill:#552222;stroke:#552222;}#my-svg .edge-thickness-normal{stroke-width:1px;}#my-svg .edge-thickness-thick{stroke-width:3.5px;}#my-svg .edge-pattern-solid{stroke-dasharray:0;}#my-svg .edge-thickness-invisible{stroke-width:0;fill:none;}#my-svg .edge-pattern-dashed{stroke-dasharray:3;}#my-svg .edge-pattern-dotted{stroke-dasharray:2;}#my-svg .marker{fill:#333333;stroke:#333333;}#my-svg .marker.cross{stroke:#333333;}#my-svg svg{font-family:"trebuchet ms",verdana,arial,sans-serif;font-size:16px;}#my-svg p{margin:0;}#my-svg :root{--mermaid-font-family:"trebuchet ms",verdana,arial,sans-serif;}</style><g/><g class="main"><rect width="700" height="500" class="background" fill="white"/><g class="chart-title"><text x="0" y="0" fill="#131300" font-size="20" dominant-baseline="middle" text-anchor="middle" transform="translate(350, 21.58984375) rotate(0)">Daily Cumulative Member Tally (2026) - Zoomed</text></g><g class="plot"><g class="bar-plot-0"><rect x="68.71054878234864" y="389.67054687499996" width="25.81328125" height="77.32945312500004" fill="#ECECFF" stroke="#ECECFF" stroke-width="0"/><rect x="100.54196315564607" y="377.4359375" width="25.81328125" height="89.56406249999998" fill="#ECECFF" stroke="#ECECFF" stroke-width="0"/><rect x="132.3733775289435" y="365.20132812500003" width="25.81328125" height="101.79867187499997" fill="#ECECFF" stroke="#ECECFF" stroke-width="0"/><rect x="164.20479190224097" y="357.044921875" width="25.81328125" height="109.955078125" fill="#ECECFF" stroke="#ECECFF" stroke-width="0"/><rect x="196.0362062755384" y="332.57570312499996" width="25.81328125" height="134.42429687500004" fill="#ECECFF" stroke="#ECECFF" stroke-width="0"/><rect x="227.86762064883584" y="324.419296875" width="25.81328125" height="142.580703125" fill="#ECECFF" stroke="#ECECFF" stroke-width="0"/><rect x="259.6990350221333" y="324.419296875" width="25.81328125" height="142.580703125" fill="#ECECFF" stroke="#ECECFF" stroke-width="0"/><rect x="291.5304493954307" y="312.1846875" width="25.81328125" height="154.8153125" fill="#ECECFF" stroke="#ECECFF" stroke-width="0"/><rect x="323.36186376872814" y="308.10648437500004" width="25.81328125" height="158.89351562499996" fill="#ECECFF" stroke="#ECECFF" stroke-width="0"/><rect x="355.1932781420256" y="295.871875" width="25.81328125" height="171.128125" fill="#ECECFF" stroke="#ECECFF" stroke-width="0"/><rect x="387.024692515323" y="271.40265625" width="25.81328125" height="195.59734375" fill="#ECECFF" stroke="#ECECFF" stroke-width="0"/><rect x="418.85610688862045" y="242.85523437499998" width="25.81328125" height="224.14476562500002" fill="#ECECFF" stroke="#ECECFF" stroke-width="0"/><rect x="450.68752126191794" y="210.22960937500002" width="25.81328125" height="256.770390625" fill="#ECECFF" stroke="#ECECFF" stroke-width="0"/><rect x="482.51893563521537" y="197.99499999999998" width="25.81328125" height="269.005" fill="#ECECFF" stroke="#ECECFF" stroke-width="0"/><rect x="514.3503500085128" y="185.76039062499996" width="25.81328125" height="281.23960937500004" fill="#ECECFF" stroke="#ECECFF" stroke-width="0"/><rect x="546.1817643818102" y="185.76039062499996" width="25.81328125" height="281.23960937500004" fill="#ECECFF" stroke="#ECECFF" stroke-width="0"/><rect x="578.0131787551077" y="185.76039062499996" width="25.81328125" height="281.23960937500004" fill="#ECECFF" stroke="#ECECFF" stroke-width="0"/><rect x="609.8445931284051" y="173.52578125000002" width="25.81328125" height="293.47421875" fill="#ECECFF" stroke="#ECECFF" stroke-width="0"/><rect x="641.6760075017025" y="153.134765625" width="25.81328125" height="313.865234375" fill="#ECECFF" stroke="#ECECFF" stroke-width="0"/><rect x="673.507421875" y="128.665546875" width="25.81328125" height="338.334453125" fill="#ECECFF" stroke="#ECECFF" stroke-width="0"/></g></g><g class="bottom-axis"><g class="axis-line"><path d="M 68.03125190734863,468 L 700,468" fill="none" stroke="#131300" stroke-width="2"/></g><g class="label"><text x="0" y="0" fill="#131300" font-size="14" dominant-baseline="text-before-edge" text-anchor="middle" transform="translate(81.61718940734863, 479) rotate(0)">2.25</text><text x="0" y="0" fill="#131300" font-size="14" dominant-baseline="text-before-edge" text-anchor="middle" transform="translate(113.44860378064607, 479) rotate(0)">26</text><text x="0" y="0" fill="#131300" font-size="14" dominant-baseline="text-before-edge" text-anchor="middle" transform="translate(145.2800181539435, 479) rotate(0)">27</text><text x="0" y="0" fill="#131300" font-size="14" dominant-baseline="text-before-edge" text-anchor="middle" transform="translate(177.11143252724096, 479) rotate(0)">28</text><text x="0" y="0" fill="#131300" font-size="14" dominant-baseline="text-before-edge" text-anchor="middle" transform="translate(208.9428469005384, 479) rotate(0)">3.1</text><text x="0" y="0" fill="#131300" font-size="14" dominant-baseline="text-before-edge" text-anchor="middle" transform="translate(240.77426127383583, 479) rotate(0)">2</text><text x="0" y="0" fill="#131300" font-size="14" dominant-baseline="text-before-edge" text-anchor="middle" transform="translate(272.6056756471333, 479) rotate(0)">3</text><text x="0" y="0" fill="#131300" font-size="14" dominant-baseline="text-before-edge" text-anchor="middle" transform="translate(304.43709002043073, 479) rotate(0)">4</text><text x="0" y="0" fill="#131300" font-size="14" dominant-baseline="text-before-edge" text-anchor="middle" transform="translate(336.26850439372816, 479) rotate(0)">5</text><text x="0" y="0" fill="#131300" font-size="14" dominant-baseline="text-before-edge" text-anchor="middle" transform="translate(368.0999187670256, 479) rotate(0)">6</text><text x="0" y="0" fill="#131300" font-size="14" dominant-baseline="text-before-edge" text-anchor="middle" transform="translate(399.93133314032303, 479) rotate(0)">7</text><text x="0" y="0" fill="#131300" font-size="14" dominant-baseline="text-before-edge" text-anchor="middle" transform="translate(431.76274751362047, 479) rotate(0)">8</text><text x="0" y="0" fill="#131300" font-size="14" dominant-baseline="text-before-edge" text-anchor="middle" transform="translate(463.59416188691796, 479) rotate(0)">9</text><text x="0" y="0" fill="#131300" font-size="14" dominant-baseline="text-before-edge" text-anchor="middle" transform="translate(495.4255762602154, 479) rotate(0)">10</text><text x="0" y="0" fill="#131300" font-size="14" dominant-baseline="text-before-edge" text-anchor="middle" transform="translate(527.2569906335128, 479) rotate(0)">11</text><text x="0" y="0" fill="#131300" font-size="14" dominant-baseline="text-before-edge" text-anchor="middle" transform="translate(559.0884050068103, 479) rotate(0)">12</text><text x="0" y="0" fill="#131300" font-size="14" dominant-baseline="text-before-edge" text-anchor="middle" transform="translate(590.9198193801077, 479) rotate(0)">13</text><text x="0" y="0" fill="#131300" font-size="14" dominant-baseline="text-before-edge" text-anchor="middle" transform="translate(622.7512337534051, 479) rotate(0)">14</text><text x="0" y="0" fill="#131300" font-size="14" dominant-baseline="text-before-edge" text-anchor="middle" transform="translate(654.5826481267026, 479) rotate(0)">15</text><text x="0" y="0" fill="#131300" font-size="14" dominant-baseline="text-before-edge" text-anchor="middle" transform="translate(686.4140625, 479) rotate(0)">16</text></g><g class="ticks"><path d="M 81.61718940734863,469 L 81.61718940734863,474" fill="none" stroke="#131300" stroke-width="2"/><path d="M 113.44860378064607,469 L 113.44860378064607,474" fill="none" stroke="#131300" stroke-width="2"/><path d="M 145.2800181539435,469 L 145.2800181539435,474" fill="none" stroke="#131300" stroke-width="2"/><path d="M 177.11143252724096,469 L 177.11143252724096,474" fill="none" stroke="#131300" stroke-width="2"/><path d="M 208.9428469005384,469 L 208.9428469005384,474" fill="none" stroke="#131300" stroke-width="2"/><path d="M 240.77426127383583,469 L 240.77426127383583,474" fill="none" stroke="#131300" stroke-width="2"/><path d="M 272.6056756471333,469 L 272.6056756471333,474" fill="none" stroke="#131300" stroke-width="2"/><path d="M 304.43709002043073,469 L 304.43709002043073,474" fill="none" stroke="#131300" stroke-width="2"/><path d="M 336.26850439372816,469 L 336.26850439372816,474" fill="none" stroke="#131300" stroke-width="2"/><path d="M 368.0999187670256,469 L 368.0999187670256,474" fill="none" stroke="#131300" stroke-width="2"/><path d="M 399.93133314032303,469 L 399.93133314032303,474" fill="none" stroke="#131300" stroke-width="2"/><path d="M 431.76274751362047,469 L 431.76274751362047,474" fill="none" stroke="#131300" stroke-width="2"/><path d="M 463.59416188691796,469 L 463.59416188691796,474" fill="none" stroke="#131300" stroke-width="2"/><path d="M 495.4255762602154,469 L 495.4255762602154,474" fill="none" stroke="#131300" stroke-width="2"/><path d="M 527.2569906335128,469 L 527.2569906335128,474" fill="none" stroke="#131300" stroke-width="2"/><path d="M 559.0884050068103,469 L 559.0884050068103,474" fill="none" stroke="#131300" stroke-width="2"/><path d="M 590.9198193801077,469 L 590.9198193801077,474" fill="none" stroke="#131300" stroke-width="2"/><path d="M 622.7512337534051,469 L 622.7512337534051,474" fill="none" stroke="#131300" stroke-width="2"/><path d="M 654.5826481267026,469 L 654.5826481267026,474" fill="none" stroke="#131300" stroke-width="2"/><path d="M 686.4140625,469 L 686.4140625,474" fill="none" stroke="#131300" stroke-width="2"/></g></g><g class="left-axis"><g class="axisl-line"><path d="M 67.03125190734863,43.1796875 L 67.03125190734863,467" fill="none" stroke="#131300" stroke-width="2"/></g><g class="label"><text x="0" y="0" fill="#131300" font-size="14" dominant-baseline="middle" text-anchor="end" transform="translate(56.03125190734863, 51.1796875) rotate(0)">250</text><text x="0" y="0" fill="#131300" font-size="14" dominant-baseline="middle" text-anchor="end" transform="translate(56.03125190734863, 91.96171874999999) rotate(0)">240</text><text x="0" y="0" fill="#131300" font-size="14" dominant-baseline="middle" text-anchor="end" transform="translate(56.03125190734863, 132.74374999999998) rotate(0)">230</text><text x="0" y="0" fill="#131300" font-size="14" dominant-baseline="middle" text-anchor="end" transform="translate(56.03125190734863, 173.52578125000002) rotate(0)">220</text><text x="0" y="0" fill="#131300" font-size="14" dominant-baseline="middle" text-anchor="end" transform="translate(56.03125190734863, 214.3078125) rotate(0)">210</text><text x="0" y="0" fill="#131300" font-size="14" dominant-baseline="middle" text-anchor="end" transform="translate(56.03125190734863, 255.08984375) rotate(0)">200</text><text x="0" y="0" fill="#131300" font-size="14" dominant-baseline="middle" text-anchor="end" transform="translate(56.03125190734863, 295.871875) rotate(0)">190</text><text x="0" y="0" fill="#131300" font-size="14" dominant-baseline="middle" text-anchor="end" transform="translate(56.03125190734863, 336.65390625) rotate(0)">180</text><text x="0" y="0" fill="#131300" font-size="14" dominant-baseline="middle" text-anchor="end" transform="translate(56.03125190734863, 377.4359375) rotate(0)">170</text><text x="0" y="0" fill="#131300" font-size="14" dominant-baseline="middle" text-anchor="end" transform="translate(56.03125190734863, 418.21796875) rotate(0)">160</text><text x="0" y="0" fill="#131300" font-size="14" dominant-baseline="middle" text-anchor="end" transform="translate(56.03125190734863, 459) rotate(0)">150</text></g><g class="ticks"><path d="M 66.03125190734863,51.1796875 L 61.03125190734863,51.1796875" fill="none" stroke="#131300" stroke-width="2"/><path d="M 66.03125190734863,91.96171874999999 L 61.03125190734863,91.96171874999999" fill="none" stroke="#131300" stroke-width="2"/><path d="M 66.03125190734863,132.74374999999998 L 61.03125190734863,132.74374999999998" fill="none" stroke="#131300" stroke-width="2"/><path d="M 66.03125190734863,173.52578125000002 L 61.03125190734863,173.52578125000002" fill="none" stroke="#131300" stroke-width="2"/><path d="M 66.03125190734863,214.3078125 L 61.03125190734863,214.3078125" fill="none" stroke="#131300" stroke-width="2"/><path d="M 66.03125190734863,255.08984375 L 61.03125190734863,255.08984375" fill="none" stroke="#131300" stroke-width="2"/><path d="M 66.03125190734863,295.871875 L 61.03125190734863,295.871875" fill="none" stroke="#131300" stroke-width="2"/><path d="M 66.03125190734863,336.65390625 L 61.03125190734863,336.65390625" fill="none" stroke="#131300" stroke-width="2"/><path d="M 66.03125190734863,377.4359375 L 61.03125190734863,377.4359375" fill="none" stroke="#131300" stroke-width="2"/><path d="M 66.03125190734863,418.21796875 L 61.03125190734863,418.21796875" fill="none" stroke="#131300" stroke-width="2"/><path d="M 66.03125190734863,459 L 61.03125190734863,459" fill="none" stroke="#131300" stroke-width="2"/></g><g class="title"><text x="0" y="0" fill="#131300" font-size="16" dominant-baseline="text-before-edge" text-anchor="middle" transform="translate(5, 255.08984375) rotate(270)">Members</text></g></g></g><g class="mermaid-tmp-group"/></svg>