<svg id="my-svg" width="100%" xmlns="http://www.w3.org/2000/svg" xmlns:xlink="http://www.w3.org/1999/xlink" style="max-width: 700px; background-color: white;" viewBox="0 0 700 500" role="graphics-document document" aria-roledescription="xychart"><style>#my-svg{font-family:"trebuchet ms",verdana,arial,sans-serif;font-size:16px;fill:#333;}@keyframes edge-animation-frame{from{stroke-dashoffset:0;}}@keyframes dash{to{stroke-dashoffset:0;}}#my-svg .edge-animation-slow{stroke-dasharray:9,5!important;stroke-dashoffset:900;animation:dash 50s linear infinite;stroke-linecap:round;}#my-svg .edge-animation-fast{stroke-dasharray:9,5!important;stroke-dashoffset:900;animation:dash 20s linear infinite;stroke-linecap:round;}#my-svg .error-icon{fill:#552222;}#my-svg .error-text{fill:#552222;stroke:#552222;}#my-svg .edge-thickness-normal{stroke-width:1px;}#my-svg .edge-thickness-thick{stroke-width:3.5px;}#my-svg .edge-pattern-solid{stroke-dasharray:0;}#my-svg .edge-thickness-invisible{stroke-width:0;fill:none;}#my-svg .edge-pattern-dashed{stroke-dasharray:3;}#my-svg .edge-pattern-dotted{stroke-dasharray:2;}#my-svg .marker{fill:#333333;stroke:#333333;}#my-svg .marker.cross{stroke:#333333;}#my-svg svg{font-family:"trebuchet ms",verdana,arial,sans-serif;font-size:16px;}#my-svg p{margin:0;}#my-svg :root{--mermaid-font-family:"trebuchet ms",verdana,arial,sans-serif;}</style><g/><g class="main"><rect width="700" height="500" class="background" fill="white"/><g class="chart-title"><text x="0" y="0" fill="#131300" font-size="20" dominant-baseline="middle" text-anchor="middle" transform="translate(350, 21.58984375) rotate(0)">Daily Cumulative Member Tally (2026) - Zoomed</text></g><g class="plot"><g class="bar-plot-0"><rect x="68.71054878234864" y="389.67054687499996" width="25.81328125" height="77.32945312500004" fill="#ECECFF" stroke="#ECECFF" stroke-width="0"/><rect x="97.51039988199871" y="377.4359375" width="25.81328125" height="89.56406249999998" fill="#ECECFF" stroke="#ECECFF" stroke-width="0"/><rect x="126.31025098164878" y="365.20132812500003" width="25.81328125" height="101.79867187499997" fill="#ECECFF" stroke="#ECECFF" stroke-width="0"/><rect x="155.11010208129883" y="357.044921875" width="25.81328125" height="109.955078125" fill="#ECECFF" stroke="#ECECFF" stroke-width="0"/><rect x="183.90995318094892" y="332.57570312499996" width="25.81328125" height="134.42429687500004" fill="#ECECFF" stroke="#ECECFF" stroke-width="0"/><rect x="212.70980428059897" y="324.419296875" width="25.81328125" height="142.580703125" fill="#ECECFF" stroke="#ECECFF" stroke-width="0"/><rect x="241.50965538024903" y="324.419296875" width="25.81328125" height="142.580703125" fill="#ECECFF" stroke="#ECECFF" stroke-width="0"/><rect x="270.3095064798991" y="312.1846875" width="25.81328125" height="154.8153125" fill="#ECECFF" stroke="#ECECFF" stroke-width="0"/><rect x="299.10935757954917" y="308.10648437500004" width="25.81328125" height="158.89351562499996" fill="#ECECFF" stroke="#ECECFF" stroke-width="0"/><rect x="327.9092086791992" y="295.871875" width="25.81328125" height="171.128125" fill="#ECECFF" stroke="#ECECFF" stroke-width="0"/><rect x="356.7090597788493" y="271.40265625" width="25.81328125" height="195.59734375" fill="#ECECFF" stroke="#ECECFF" stroke-width="0"/><rect x="385.50891087849936" y="242.85523437499998" width="25.81328125" height="224.14476562500002" fill="#ECECFF" stroke="#ECECFF" stroke-width="0"/><rect x="414.3087619781494" y="210.22960937500002" width="25.81328125" height="256.770390625" fill="#ECECFF" stroke="#ECECFF" stroke-width="0"/><rect x="443.1086130777995" y="197.99499999999998" width="25.81328125" height="269.005" fill="#ECECFF" stroke="#ECECFF" stroke-width="0"/><rect x="471.90846417744956" y="185.76039062499996" width="25.81328125" height="281.23960937500004" fill="#ECECFF" stroke="#ECECFF" stroke-width="0"/><rect x="500.7083152770996" y="185.76039062499996" width="25.81328125" height="281.23960937500004" fill="#ECECFF" stroke="#ECECFF" stroke-width="0"/><rect x="529.5081663767497" y="185.76039062499996" width="25.81328125" height="281.23960937500004" fill="#ECECFF" stroke="#ECECFF" stroke-width="0"/><rect x="558.3080174763998" y="173.52578125000002" width="25.81328125" height="293.47421875" fill="#ECECFF" stroke="#ECECFF" stroke-width="0"/><rect x="587.1078685760498" y="153.134765625" width="25.81328125" height="313.865234375" fill="#ECECFF" stroke="#ECECFF" stroke-width="0"/><rect x="615.9077196756999" y="128.665546875" width="25.81328125" height="338.334453125" fill="#ECECFF" stroke="#ECECFF" stroke-width="0"/><rect x="644.70757077535" y="116.43093750000001" width="25.81328125" height="350.5690625" fill="#ECECFF" stroke="#ECECFF" stroke-width="0"/><rect x="673.507421875" y="112.35273437500001" width="25.81328125" height="354.647265625" fill="#ECECFF" stroke="#ECECFF" stroke-width="0"/></g></g><g class="bottom-axis"><g class="axis-line"><path d="M 68.03125190734863,468 L 700,468" fill="none" stroke="#131300" stroke-width="2"/></g><g class="label"><text x="0" y="0" fill="#131300" font-size="14" dominant-baseline="text-before-edge" text-anchor="middle" transform="translate(81.61718940734863, 479) rotate(0)">2.25</text><text x="0" y="0" fill="#131300" font-size="14" dominant-baseline="text-before-edge" text-anchor="middle" transform="translate(110.4170405069987, 479) rotate(0)">26</text><text x="0" y="0" fill="#131300" font-size="14" dominant-baseline="text-before-edge" text-anchor="middle" transform="translate(139.21689160664877, 479) rotate(0)">27</text><text x="0" y="0" fill="#131300" font-size="14" dominant-baseline="text-before-edge" text-anchor="middle" transform="translate(168.01674270629883, 479) rotate(0)">28</text><text x="0" y="0" fill="#131300" font-size="14" dominant-baseline="text-before-edge" text-anchor="middle" transform="translate(196.8165938059489, 479) rotate(0)">3.1</text><text x="0" y="0" fill="#131300" font-size="14" dominant-baseline="text-before-edge" text-anchor="middle" transform="translate(225.61644490559897, 479) rotate(0)">2</text><text x="0" y="0" fill="#131300" font-size="14" dominant-baseline="text-before-edge" text-anchor="middle" transform="translate(254.41629600524902, 479) rotate(0)">3</text><text x="0" y="0" fill="#131300" font-size="14" dominant-baseline="text-before-edge" text-anchor="middle" transform="translate(283.2161471048991, 479) rotate(0)">4</text><text x="0" y="0" fill="#131300" font-size="14" dominant-baseline="text-before-edge" text-anchor="middle" transform="translate(312.0159982045492, 479) rotate(0)">5</text><text x="0" y="0" fill="#131300" font-size="14" dominant-baseline="text-before-edge" text-anchor="middle" transform="translate(340.8158493041992, 479) rotate(0)">6</text><text x="0" y="0" fill="#131300" font-size="14" dominant-baseline="text-before-edge" text-anchor="middle" transform="translate(369.6157004038493, 479) rotate(0)">7</text><text x="0" y="0" fill="#131300" font-size="14" dominant-baseline="text-before-edge" text-anchor="middle" transform="translate(398.4155515034994, 479) rotate(0)">8</text><text x="0" y="0" fill="#131300" font-size="14" dominant-baseline="text-before-edge" text-anchor="middle" transform="translate(427.2154026031494, 479) rotate(0)">9</text><text x="0" y="0" fill="#131300" font-size="14" dominant-baseline="text-before-edge" text-anchor="middle" transform="translate(456.0152537027995, 479) rotate(0)">10</text><text x="0" y="0" fill="#131300" font-size="14" dominant-baseline="text-before-edge" text-anchor="middle" transform="translate(484.8151048024496, 479) rotate(0)">11</text><text x="0" y="0" fill="#131300" font-size="14" dominant-baseline="text-before-edge" text-anchor="middle" transform="translate(513.6149559020996, 479) rotate(0)">12</text><text x="0" y="0" fill="#131300" font-size="14" dominant-baseline="text-before-edge" text-anchor="middle" transform="translate(542.4148070017498, 479) rotate(0)">13</text><text x="0" y="0" fill="#131300" font-size="14" dominant-baseline="text-before-edge" text-anchor="middle" transform="translate(571.2146581013998, 479) rotate(0)">14</text><text x="0" y="0" fill="#131300" font-size="14" dominant-baseline="text-before-edge" text-anchor="middle" transform="translate(600.0145092010498, 479) rotate(0)">15</text><text x="0" y="0" fill="#131300" font-size="14" dominant-baseline="text-before-edge" text-anchor="middle" transform="translate(628.8143603007, 479) rotate(0)">16</text><text x="0" y="0" fill="#131300" font-size="14" dominant-baseline="text-before-edge" text-anchor="middle" transform="translate(657.61421140035, 479) rotate(0)">17</text><text x="0" y="0" fill="#131300" font-size="14" dominant-baseline="text-before-edge" text-anchor="middle" transform="translate(686.4140625, 479) rotate(0)">18</text></g><g class="ticks"><path d="M 81.61718940734863,469 L 81.61718940734863,474" fill="none" stroke="#131300" stroke-width="2"/><path d="M 110.4170405069987,469 L 110.4170405069987,474" fill="none" stroke="#131300" stroke-width="2"/><path d="M 139.21689160664877,469 L 139.21689160664877,474" fill="none" stroke="#131300" stroke-width="2"/><path d="M 168.01674270629883,469 L 168.01674270629883,474" fill="none" stroke="#131300" stroke-width="2"/><path d="M 196.8165938059489,469 L 196.8165938059489,474" fill="none" stroke="#131300" stroke-width="2"/><path d="M 225.61644490559897,469 L 225.61644490559897,474" fill="none" stroke="#131300" stroke-width="2"/><path d="M 254.41629600524902,469 L 254.41629600524902,474" fill="none" stroke="#131300" stroke-width="2"/><path d="M 283.2161471048991,469 L 283.2161471048991,474" fill="none" stroke="#131300" stroke-width="2"/><path d="M 312.0159982045492,469 L 312.0159982045492,474" fill="none" stroke="#131300" stroke-width="2"/><path d="M 340.8158493041992,469 L 340.8158493041992,474" fill="none" stroke="#131300" stroke-width="2"/><path d="M 369.6157004038493,469 L 369.6157004038493,474" fill="none" stroke="#131300" stroke-width="2"/><path d="M 398.4155515034994,469 L 398.4155515034994,474" fill="none" stroke="#131300" stroke-width="2"/><path d="M 427.2154026031494,469 L 427.2154026031494,474" fill="none" stroke="#131300" stroke-width="2"/><path d="M 456.0152537027995,469 L 456.0152537027995,474" fill="none" stroke="#131300" stroke-width="2"/><path d="M 484.8151048024496,469 L 484.8151048024496,474" fill="none" stroke="#131300" stroke-width="2"/><path d="M 513.6149559020996,469 L 513.6149559020996,474" fill="none" stroke="#131300" stroke-width="2"/><path d="M 542.4148070017498,469 L 542.4148070017498,474" fill="none" stroke="#131300" stroke-width="2"/><path d="M 571.2146581013998,469 L 571.2146581013998,474" fill="none" stroke="#131300" stroke-width="2"/><path d="M 600.0145092010498,469 L 600.0145092010498,474" fill="none" stroke="#131300" stroke-width="2"/><path d="M 628.8143603007,469 L 628.8143603007,474" fill="none" stroke="#131300" stroke-width="2"/><path d="M 657.61421140035,469 L 657.61421140035,474" fill="none" stroke="#131300" stroke-width="2"/><path d="M 686.4140625,469 L 686.4140625,474" fill="none" stroke="#131300" stroke-width="2"/></g></g><g class="left-axis"><g class="axisl-line"><path d="M 67.03125190734863,43.1796875 L 67.03125190734863,467" fill="none" stroke="#131300" stroke-width="2"/></g><g class="label"><text x="0" y="0" fill="#131300" font-size="14" dominant-baseline="middle" text-anchor="end" transform="translate(56.03125190734863, 51.1796875) rotate(0)">250</text><text x="0" y="0" fill="#131300" font-size="14" dominant-baseline="middle" text-anchor="end" transform="translate(56.03125190734863, 91.96171874999999) rotate(0)">240</text><text x="0" y="0" fill="#131300" font-size="14" dominant-baseline="middle" text-anchor="end" transform="translate(56.03125190734863, 132.74374999999998) rotate(0)">230</text><text x="0" y="0" fill="#131300" font-size="14" dominant-baseline="middle" text-anchor="end" transform="translate(56.03125190734863, 173.52578125000002) rotate(0)">220</text><text x="0" y="0" fill="#131300" font-size="14" dominant-baseline="middle" text-anchor="end" transform="translate(56.03125190734863, 214.3078125) rotate(0)">210</text><text x="0" y="0" fill="#131300" font-size="14" dominant-baseline="middle" text-anchor="end" transform="translate(56.03125190734863, 255.08984375) rotate(0)">200</text><text x="0" y="0" fill="#131300" font-size="14" dominant-baseline="middle" text-anchor="end" transform="translate(56.03125190734863, 295.871875) rotate(0)">190</text><text x="0" y="0" fill="#131300" font-size="14" dominant-baseline="middle" text-anchor="end" transform="translate(56.03125190734863, 336.65390625) rotate(0)">180</text><text x="0" y="0" fill="#131300" font-size="14" dominant-baseline="middle" text-anchor="end" transform="translate(56.03125190734863, 377.4359375) rotate(0)">170</text><text x="0" y="0" fill="#131300" font-size="14" dominant-baseline="middle" text-anchor="end" transform="translate(56.03125190734863, 418.21796875) rotate(0)">160</text><text x="0" y="0" fill="#131300" font-size="14" dominant-baseline="middle" text-anchor="end" transform="translate(56.03125190734863, 459) rotate(0)">150</text></g><g class="ticks"><path d="M 66.03125190734863,51.1796875 L 61.03125190734863,51.1796875" fill="none" stroke="#131300" stroke-width="2"/><path d="M 66.03125190734863,91.96171874999999 L 61.03125190734863,91.96171874999999" fill="none" stroke="#131300" stroke-width="2"/><path d="M 66.03125190734863,132.74374999999998 L 61.03125190734863,132.74374999999998" fill="none" stroke="#131300" stroke-width="2"/><path d="M 66.03125190734863,173.52578125000002 L 61.03125190734863,173.52578125000002" fill="none" stroke="#131300" stroke-width="2"/><path d="M 66.03125190734863,214.3078125 L 61.03125190734863,214.3078125" fill="none" stroke="#131300" stroke-width="2"/><path d="M 66.03125190734863,255.08984375 L 61.03125190734863,255.08984375" fill="none" stroke="#131300" stroke-width="2"/><path d="M 66.03125190734863,295.871875 L 61.03125190734863,295.871875" fill="none" stroke="#131300" stroke-width="2"/><path d="M 66.03125190734863,336.65390625 L 61.03125190734863,336.65390625" fill="none" stroke="#131300" stroke-width="2"/><path d="M 66.03125190734863,377.4359375 L 61.03125190734863,377.4359375" fill="none" stroke="#131300" stroke-width="2"/><path d="M 66.03125190734863,418.21796875 L 61.03125190734863,418.21796875" fill="none" stroke="#131300" stroke-width="2"/><path d="M 66.03125190734863,459 L 61.03125190734863,459" fill="none" stroke="#131300" stroke-width="2"/></g><g class="title"><text x="0" y="0" fill="#131300" font-size="16" dominant-baseline="text-before-edge" text-anchor="middle" transform="translate(5, 255.08984375) rotate(270)">Members</text></g></g></g><g class="mermaid-tmp-group"/></svg>