<svg id="my-svg" width="100%" xmlns="http://www.w3.org/2000/svg" xmlns:xlink="http://www.w3.org/1999/xlink" style="max-width: 700px; background-color: white;" viewBox="0 0 700 500" role="graphics-document document" aria-roledescription="xychart"><style>#my-svg{font-family:"trebuchet ms",verdana,arial,sans-serif;font-size:16px;fill:#333;}@keyframes edge-animation-frame{from{stroke-dashoffset:0;}}@keyframes dash{to{stroke-dashoffset:0;}}#my-svg .edge-animation-slow{stroke-dasharray:9,5!important;stroke-dashoffset:900;animation:dash 50s linear infinite;stroke-linecap:round;}#my-svg .edge-animation-fast{stroke-dasharray:9,5!important;stroke-dashoffset:900;animation:dash 20s linear infinite;stroke-linecap:round;}#my-svg .error-icon{fill:#552222;}#my-svg .error-text{fill:#552222;stroke:#552222;}#my-svg .edge-thickness-normal{stroke-width:1px;}#my-svg .edge-thickness-thick{stroke-width:3.5px;}#my-svg .edge-pattern-solid{stroke-dasharray:0;}#my-svg .edge-thickness-invisible{stroke-width:0;fill:none;}#my-svg .edge-pattern-dashed{stroke-dasharray:3;}#my-svg .edge-pattern-dotted{stroke-dasharray:2;}#my-svg .marker{fill:#333333;stroke:#333333;}#my-svg .marker.cross{stroke:#333333;}#my-svg svg{font-family:"trebuchet ms",verdana,arial,sans-serif;font-size:16px;}#my-svg p{margin:0;}#my-svg :root{--mermaid-font-family:"trebuchet ms",verdana,arial,sans-serif;}</style><g/><g class="main"><rect width="700" height="500" class="background" fill="white"/><g class="chart-title"><text x="0" y="0" fill="#131300" font-size="20" dominant-baseline="middle" text-anchor="middle" transform="translate(350, 21.58984375) rotate(0)">Daily Cumulative Member Tally (2026) - Zoomed</text></g><g class="plot"><g class="bar-plot-0"><rect x="68.73125190734864" y="372.33818359375" width="26.599999999999998" height="94.66181640625001" fill="#ECECFF" stroke="#ECECFF" stroke-width="0"/><rect x="111.87187677110946" y="357.044921875" width="26.599999999999998" height="109.955078125" fill="#ECECFF" stroke="#ECECFF" stroke-width="0"/><rect x="155.01250163487026" y="341.75166015625" width="26.599999999999998" height="125.24833984374999" fill="#ECECFF" stroke="#ECECFF" stroke-width="0"/><rect x="198.15312649863105" y="331.55615234375" width="26.599999999999998" height="135.44384765625" fill="#ECECFF" stroke="#ECECFF" stroke-width="0"/><rect x="241.29375136239187" y="300.96962890625" width="26.599999999999998" height="166.03037109374998" fill="#ECECFF" stroke="#ECECFF" stroke-width="0"/><rect x="284.43437622615266" y="290.77412109375" width="26.599999999999998" height="176.22587890625" fill="#ECECFF" stroke="#ECECFF" stroke-width="0"/><rect x="327.5750010899135" y="290.77412109375" width="26.599999999999998" height="176.22587890625" fill="#ECECFF" stroke="#ECECFF" stroke-width="0"/><rect x="370.7156259536743" y="275.480859375" width="26.599999999999998" height="191.51914062499998" fill="#ECECFF" stroke="#ECECFF" stroke-width="0"/><rect x="413.8562508174351" y="270.38310546875" width="26.599999999999998" height="196.61689453125" fill="#ECECFF" stroke="#ECECFF" stroke-width="0"/><rect x="456.99687568119595" y="255.08984375" width="26.599999999999998" height="211.91015625" fill="#ECECFF" stroke="#ECECFF" stroke-width="0"/><rect x="500.1375005449567" y="224.50332031250002" width="26.599999999999998" height="242.49667968749998" fill="#ECECFF" stroke="#ECECFF" stroke-width="0"/><rect x="543.2781254087176" y="188.81904296875" width="26.599999999999998" height="278.18095703125" fill="#ECECFF" stroke="#ECECFF" stroke-width="0"/><rect x="586.4187502724784" y="148.03701171875002" width="26.599999999999998" height="318.96298828125" fill="#ECECFF" stroke="#ECECFF" stroke-width="0"/><rect x="629.5593751362393" y="132.74374999999998" width="26.599999999999998" height="334.25625" fill="#ECECFF" stroke="#ECECFF" stroke-width="0"/><rect x="672.7" y="117.45048828124999" width="26.599999999999998" height="349.54951171875" fill="#ECECFF" stroke="#ECECFF" stroke-width="0"/></g></g><g class="bottom-axis"><g class="axis-line"><path d="M 68.03125190734863,468 L 700,468" fill="none" stroke="#131300" stroke-width="2"/></g><g class="label"><text x="0" y="0" fill="#131300" font-size="14" dominant-baseline="text-before-edge" text-anchor="middle" transform="translate(82.03125190734863, 479) rotate(0)">2.25</text><text x="0" y="0" fill="#131300" font-size="14" dominant-baseline="text-before-edge" text-anchor="middle" transform="translate(125.17187677110945, 479) rotate(0)">26</text><text x="0" y="0" fill="#131300" font-size="14" dominant-baseline="text-before-edge" text-anchor="middle" transform="translate(168.31250163487027, 479) rotate(0)">27</text><text x="0" y="0" fill="#131300" font-size="14" dominant-baseline="text-before-edge" text-anchor="middle" transform="translate(211.45312649863106, 479) rotate(0)">28</text><text x="0" y="0" fill="#131300" font-size="14" dominant-baseline="text-before-edge" text-anchor="middle" transform="translate(254.59375136239188, 479) rotate(0)">3.1</text><text x="0" y="0" fill="#131300" font-size="14" dominant-baseline="text-before-edge" text-anchor="middle" transform="translate(297.7343762261527, 479) rotate(0)">2</text><text x="0" y="0" fill="#131300" font-size="14" dominant-baseline="text-before-edge" text-anchor="middle" transform="translate(340.8750010899135, 479) rotate(0)">3</text><text x="0" y="0" fill="#131300" font-size="14" dominant-baseline="text-before-edge" text-anchor="middle" transform="translate(384.0156259536743, 479) rotate(0)">4</text><text x="0" y="0" fill="#131300" font-size="14" dominant-baseline="text-before-edge" text-anchor="middle" transform="translate(427.15625081743514, 479) rotate(0)">5</text><text x="0" y="0" fill="#131300" font-size="14" dominant-baseline="text-before-edge" text-anchor="middle" transform="translate(470.29687568119596, 479) rotate(0)">6</text><text x="0" y="0" fill="#131300" font-size="14" dominant-baseline="text-before-edge" text-anchor="middle" transform="translate(513.4375005449567, 479) rotate(0)">7</text><text x="0" y="0" fill="#131300" font-size="14" dominant-baseline="text-before-edge" text-anchor="middle" transform="translate(556.5781254087176, 479) rotate(0)">8</text><text x="0" y="0" fill="#131300" font-size="14" dominant-baseline="text-before-edge" text-anchor="middle" transform="translate(599.7187502724784, 479) rotate(0)">9</text><text x="0" y="0" fill="#131300" font-size="14" dominant-baseline="text-before-edge" text-anchor="middle" transform="translate(642.8593751362392, 479) rotate(0)">10</text><text x="0" y="0" fill="#131300" font-size="14" dominant-baseline="text-before-edge" text-anchor="middle" transform="translate(686, 479) rotate(0)">11</text></g><g class="ticks"><path d="M 82.03125190734863,469 L 82.03125190734863,474" fill="none" stroke="#131300" stroke-width="2"/><path d="M 125.17187677110945,469 L 125.17187677110945,474" fill="none" stroke="#131300" stroke-width="2"/><path d="M 168.31250163487027,469 L 168.31250163487027,474" fill="none" stroke="#131300" stroke-width="2"/><path d="M 211.45312649863106,469 L 211.45312649863106,474" fill="none" stroke="#131300" stroke-width="2"/><path d="M 254.59375136239188,469 L 254.59375136239188,474" fill="none" stroke="#131300" stroke-width="2"/><path d="M 297.7343762261527,469 L 297.7343762261527,474" fill="none" stroke="#131300" stroke-width="2"/><path d="M 340.8750010899135,469 L 340.8750010899135,474" fill="none" stroke="#131300" stroke-width="2"/><path d="M 384.0156259536743,469 L 384.0156259536743,474" fill="none" stroke="#131300" stroke-width="2"/><path d="M 427.15625081743514,469 L 427.15625081743514,474" fill="none" stroke="#131300" stroke-width="2"/><path d="M 470.29687568119596,469 L 470.29687568119596,474" fill="none" stroke="#131300" stroke-width="2"/><path d="M 513.4375005449567,469 L 513.4375005449567,474" fill="none" stroke="#131300" stroke-width="2"/><path d="M 556.5781254087176,469 L 556.5781254087176,474" fill="none" stroke="#131300" stroke-width="2"/><path d="M 599.7187502724784,469 L 599.7187502724784,474" fill="none" stroke="#131300" stroke-width="2"/><path d="M 642.8593751362392,469 L 642.8593751362392,474" fill="none" stroke="#131300" stroke-width="2"/><path d="M 686,469 L 686,474" fill="none" stroke="#131300" stroke-width="2"/></g></g><g class="left-axis"><g class="axisl-line"><path d="M 67.03125190734863,43.1796875 L 67.03125190734863,467" fill="none" stroke="#131300" stroke-width="2"/></g><g class="label"><text x="0" y="0" fill="#131300" font-size="14" dominant-baseline="middle" text-anchor="end" transform="translate(56.03125190734863, 51.1796875) rotate(0)">230</text><text x="0" y="0" fill="#131300" font-size="14" dominant-baseline="middle" text-anchor="end" transform="translate(56.03125190734863, 102.1572265625) rotate(0)">220</text><text x="0" y="0" fill="#131300" font-size="14" dominant-baseline="middle" text-anchor="end" transform="translate(56.03125190734863, 153.134765625) rotate(0)">210</text><text x="0" y="0" fill="#131300" font-size="14" dominant-baseline="middle" text-anchor="end" transform="translate(56.03125190734863, 204.1123046875) rotate(0)">200</text><text x="0" y="0" fill="#131300" font-size="14" dominant-baseline="middle" text-anchor="end" transform="translate(56.03125190734863, 255.08984375) rotate(0)">190</text><text x="0" y="0" fill="#131300" font-size="14" dominant-baseline="middle" text-anchor="end" transform="translate(56.03125190734863, 306.0673828125) rotate(0)">180</text><text x="0" y="0" fill="#131300" font-size="14" dominant-baseline="middle" text-anchor="end" transform="translate(56.03125190734863, 357.044921875) rotate(0)">170</text><text x="0" y="0" fill="#131300" font-size="14" dominant-baseline="middle" text-anchor="end" transform="translate(56.03125190734863, 408.0224609375) rotate(0)">160</text><text x="0" y="0" fill="#131300" font-size="14" dominant-baseline="middle" text-anchor="end" transform="translate(56.03125190734863, 459) rotate(0)">150</text></g><g class="ticks"><path d="M 66.03125190734863,51.1796875 L 61.03125190734863,51.1796875" fill="none" stroke="#131300" stroke-width="2"/><path d="M 66.03125190734863,102.1572265625 L 61.03125190734863,102.1572265625" fill="none" stroke="#131300" stroke-width="2"/><path d="M 66.03125190734863,153.134765625 L 61.03125190734863,153.134765625" fill="none" stroke="#131300" stroke-width="2"/><path d="M 66.03125190734863,204.1123046875 L 61.03125190734863,204.1123046875" fill="none" stroke="#131300" stroke-width="2"/><path d="M 66.03125190734863,255.08984375 L 61.03125190734863,255.08984375" fill="none" stroke="#131300" stroke-width="2"/><path d="M 66.03125190734863,306.0673828125 L 61.03125190734863,306.0673828125" fill="none" stroke="#131300" stroke-width="2"/><path d="M 66.03125190734863,357.044921875 L 61.03125190734863,357.044921875" fill="none" stroke="#131300" stroke-width="2"/><path d="M 66.03125190734863,408.0224609375 L 61.03125190734863,408.0224609375" fill="none" stroke="#131300" stroke-width="2"/><path d="M 66.03125190734863,459 L 61.03125190734863,459" fill="none" stroke="#131300" stroke-width="2"/></g><g class="title"><text x="0" y="0" fill="#131300" font-size="16" dominant-baseline="text-before-edge" text-anchor="middle" transform="translate(5, 255.08984375) rotate(270)">Members</text></g></g></g><g class="mermaid-tmp-group"/></svg>