<svg id="my-svg" width="100%" xmlns="http://www.w3.org/2000/svg" xmlns:xlink="http://www.w3.org/1999/xlink" style="max-width: 700px; background-color: white;" viewBox="0 0 700 500" role="graphics-document document" aria-roledescription="xychart"><style>#my-svg{font-family:"trebuchet ms",verdana,arial,sans-serif;font-size:16px;fill:#333;}@keyframes edge-animation-frame{from{stroke-dashoffset:0;}}@keyframes dash{to{stroke-dashoffset:0;}}#my-svg .edge-animation-slow{stroke-dasharray:9,5!important;stroke-dashoffset:900;animation:dash 50s linear infinite;stroke-linecap:round;}#my-svg .edge-animation-fast{stroke-dasharray:9,5!important;stroke-dashoffset:900;animation:dash 20s linear infinite;stroke-linecap:round;}#my-svg .error-icon{fill:#552222;}#my-svg .error-text{fill:#552222;stroke:#552222;}#my-svg .edge-thickness-normal{stroke-width:1px;}#my-svg .edge-thickness-thick{stroke-width:3.5px;}#my-svg .edge-pattern-solid{stroke-dasharray:0;}#my-svg .edge-thickness-invisible{stroke-width:0;fill:none;}#my-svg .edge-pattern-dashed{stroke-dasharray:3;}#my-svg .edge-pattern-dotted{stroke-dasharray:2;}#my-svg .marker{fill:#333333;stroke:#333333;}#my-svg .marker.cross{stroke:#333333;}#my-svg svg{font-family:"trebuchet ms",verdana,arial,sans-serif;font-size:16px;}#my-svg p{margin:0;}#my-svg :root{--mermaid-font-family:"trebuchet ms",verdana,arial,sans-serif;}</style><g/><g class="main"><rect width="700" height="500" class="background" fill="white"/><g class="chart-title"><text x="0" y="0" fill="#131300" font-size="20" dominant-baseline="middle" text-anchor="middle" transform="translate(350, 21.58984375) rotate(0)">Daily Cumulative Member Tally (2026) - Zoomed</text></g><g class="plot"><g class="bar-plot-0"><rect x="74.77722477118175" y="409.4789620535714" width="13.67992927233378" height="57.52103794642858" fill="#ECECFF" stroke="#ECECFF" stroke-width="0"/><rect x="89.52836801734398" y="400.7399553571429" width="13.67992927233378" height="66.26004464285711" fill="#ECECFF" stroke="#ECECFF" stroke-width="0"/><rect x="104.27951126350621" y="392.0009486607143" width="13.67992927233378" height="74.9990513392857" fill="#ECECFF" stroke="#ECECFF" stroke-width="0"/><rect x="119.03065450966844" y="386.17494419642856" width="13.67992927233378" height="80.82505580357144" fill="#ECECFF" stroke="#ECECFF" stroke-width="0"/><rect x="133.78179775583067" y="368.69693080357143" width="13.67992927233378" height="98.30306919642857" fill="#ECECFF" stroke="#ECECFF" stroke-width="0"/><rect x="148.5329410019929" y="362.8709263392857" width="13.67992927233378" height="104.12907366071431" fill="#ECECFF" stroke="#ECECFF" stroke-width="0"/><rect x="163.28408424815512" y="362.8709263392857" width="13.67992927233378" height="104.12907366071431" fill="#ECECFF" stroke="#ECECFF" stroke-width="0"/><rect x="178.03522749431735" y="354.13191964285716" width="13.67992927233378" height="112.86808035714284" fill="#ECECFF" stroke="#ECECFF" stroke-width="0"/><rect x="192.78637074047958" y="351.2189174107143" width="13.67992927233378" height="115.78108258928569" fill="#ECECFF" stroke="#ECECFF" stroke-width="0"/><rect x="207.5375139866418" y="342.4799107142857" width="13.67992927233378" height="124.52008928571428" fill="#ECECFF" stroke="#ECECFF" stroke-width="0"/><rect x="222.28865723280404" y="325.0018973214286" width="13.67992927233378" height="141.9981026785714" fill="#ECECFF" stroke="#ECECFF" stroke-width="0"/><rect x="237.03980047896627" y="304.6108816964286" width="13.67992927233378" height="162.38911830357142" fill="#ECECFF" stroke="#ECECFF" stroke-width="0"/><rect x="251.7909437251285" y="281.3068638392857" width="13.67992927233378" height="185.6931361607143" fill="#ECECFF" stroke="#ECECFF" stroke-width="0"/><rect x="266.5420869712907" y="272.5678571428572" width="13.67992927233378" height="194.43214285714282" fill="#ECECFF" stroke="#ECECFF" stroke-width="0"/><rect x="281.29323021745296" y="263.82885044642853" width="13.67992927233378" height="203.17114955357147" fill="#ECECFF" stroke="#ECECFF" stroke-width="0"/><rect x="296.0443734636152" y="263.82885044642853" width="13.67992927233378" height="203.17114955357147" fill="#ECECFF" stroke="#ECECFF" stroke-width="0"/><rect x="310.7955167097774" y="263.82885044642853" width="13.67992927233378" height="203.17114955357147" fill="#ECECFF" stroke="#ECECFF" stroke-width="0"/><rect x="325.5466599559396" y="255.08984375" width="13.67992927233378" height="211.91015625" fill="#ECECFF" stroke="#ECECFF" stroke-width="0"/><rect x="340.2978032021019" y="240.52483258928572" width="13.67992927233378" height="226.47516741071428" fill="#ECECFF" stroke="#ECECFF" stroke-width="0"/><rect x="355.04894644826413" y="223.04681919642854" width="13.67992927233378" height="243.95318080357146" fill="#ECECFF" stroke="#ECECFF" stroke-width="0"/><rect x="369.80008969442633" y="214.3078125" width="13.67992927233378" height="252.6921875" fill="#ECECFF" stroke="#ECECFF" stroke-width="0"/><rect x="384.55123294058853" y="205.56880580357142" width="13.67992927233378" height="261.4311941964286" fill="#ECECFF" stroke="#ECECFF" stroke-width="0"/><rect x="399.3023761867508" y="196.82979910714283" width="13.67992927233378" height="270.17020089285717" fill="#ECECFF" stroke="#ECECFF" stroke-width="0"/><rect x="414.05351943291305" y="196.82979910714283" width="13.67992927233378" height="270.17020089285717" fill="#ECECFF" stroke="#ECECFF" stroke-width="0"/><rect x="428.80466267907525" y="185.17779017857146" width="13.67992927233378" height="281.82220982142854" fill="#ECECFF" stroke="#ECECFF" stroke-width="0"/><rect x="443.55580592523745" y="179.3517857142857" width="13.67992927233378" height="287.6482142857143" fill="#ECECFF" stroke="#ECECFF" stroke-width="0"/><rect x="458.3069491713997" y="179.3517857142857" width="13.67992927233378" height="287.6482142857143" fill="#ECECFF" stroke="#ECECFF" stroke-width="0"/><rect x="473.05809241756197" y="179.3517857142857" width="13.67992927233378" height="287.6482142857143" fill="#ECECFF" stroke="#ECECFF" stroke-width="0"/><rect x="487.80923566372417" y="179.3517857142857" width="13.67992927233378" height="287.6482142857143" fill="#ECECFF" stroke="#ECECFF" stroke-width="0"/><rect x="502.56037890988637" y="179.3517857142857" width="13.67992927233378" height="287.6482142857143" fill="#ECECFF" stroke="#ECECFF" stroke-width="0"/><rect x="517.3115221560487" y="179.3517857142857" width="13.67992927233378" height="287.6482142857143" fill="#ECECFF" stroke="#ECECFF" stroke-width="0"/><rect x="532.0626654022109" y="179.3517857142857" width="13.67992927233378" height="287.6482142857143" fill="#ECECFF" stroke="#ECECFF" stroke-width="0"/><rect x="546.8138086483731" y="179.3517857142857" width="13.67992927233378" height="287.6482142857143" fill="#ECECFF" stroke="#ECECFF" stroke-width="0"/><rect x="561.5649518945353" y="179.3517857142857" width="13.67992927233378" height="287.6482142857143" fill="#ECECFF" stroke="#ECECFF" stroke-width="0"/><rect x="576.3160951406975" y="176.43878348214287" width="13.67992927233378" height="290.56121651785713" fill="#ECECFF" stroke="#ECECFF" stroke-width="0"/><rect x="591.0672383868598" y="173.52578125000002" width="13.67992927233378" height="293.47421875" fill="#ECECFF" stroke="#ECECFF" stroke-width="0"/><rect x="605.818381633022" y="167.69977678571428" width="13.67992927233378" height="299.3002232142857" fill="#ECECFF" stroke="#ECECFF" stroke-width="0"/><rect x="620.5695248791842" y="167.69977678571428" width="13.67992927233378" height="299.3002232142857" fill="#ECECFF" stroke="#ECECFF" stroke-width="0"/><rect x="635.3206681253465" y="118.1787388392857" width="13.67992927233378" height="348.8212611607143" fill="#ECECFF" stroke="#ECECFF" stroke-width="0"/><rect x="650.0718113715087" y="109.43973214285717" width="13.67992927233378" height="357.56026785714283" fill="#ECECFF" stroke="#ECECFF" stroke-width="0"/><rect x="664.8229546176709" y="109.43973214285717" width="13.67992927233378" height="357.56026785714283" fill="#ECECFF" stroke="#ECECFF" stroke-width="0"/><rect x="679.5740978638331" y="100.70072544642858" width="13.67992927233378" height="366.2992745535714" fill="#ECECFF" stroke="#ECECFF" stroke-width="0"/></g></g><g class="bottom-axis"><g class="axis-line"><path d="M 68.03125190734863,468 L 700,468" fill="none" stroke="#131300" stroke-width="2"/></g><g class="label"><text x="0" y="0" fill="#131300" font-size="14" dominant-baseline="text-before-edge" text-anchor="middle" transform="translate(81.61718940734863, 479) rotate(0)">2.25</text><text x="0" y="0" fill="#131300" font-size="14" dominant-baseline="text-before-edge" text-anchor="middle" transform="translate(96.36833265351086, 479) rotate(0)">вЂ‹вЂ‹</text><text x="0" y="0" fill="#131300" font-size="14" dominant-baseline="text-before-edge" text-anchor="middle" transform="translate(111.11947589967309, 479) rotate(0)">вЂ‹вЂ‹вЂ‹</text><text x="0" y="0" fill="#131300" font-size="14" dominant-baseline="text-before-edge" text-anchor="middle" transform="translate(125.87061914583532, 479) rotate(0)">вЂ‹вЂ‹вЂ‹вЂ‹</text><text x="0" y="0" fill="#131300" font-size="14" dominant-baseline="text-before-edge" text-anchor="middle" transform="translate(140.62176239199755, 479) rotate(0)">3.1</text><text x="0" y="0" fill="#131300" font-size="14" dominant-baseline="text-before-edge" text-anchor="middle" transform="translate(155.37290563815978, 479) rotate(0)">вЂ‹вЂ‹вЂ‹вЂ‹вЂ‹вЂ‹</text><text x="0" y="0" fill="#131300" font-size="14" dominant-baseline="text-before-edge" text-anchor="middle" transform="translate(170.124048884322, 479) rotate(0)">вЂ‹вЂ‹вЂ‹вЂ‹вЂ‹вЂ‹вЂ‹</text><text x="0" y="0" fill="#131300" font-size="14" dominant-baseline="text-before-edge" text-anchor="middle" transform="translate(184.87519213048424, 479) rotate(0)">вЂ‹вЂ‹вЂ‹вЂ‹вЂ‹вЂ‹вЂ‹вЂ‹</text><text x="0" y="0" fill="#131300" font-size="14" dominant-baseline="text-before-edge" text-anchor="middle" transform="translate(199.62633537664647, 479) rotate(0)">вЂ‹вЂ‹вЂ‹вЂ‹вЂ‹вЂ‹вЂ‹вЂ‹вЂ‹</text><text x="0" y="0" fill="#131300" font-size="14" dominant-baseline="text-before-edge" text-anchor="middle" transform="translate(214.3774786228087, 479) rotate(0)">вЂ‹вЂ‹вЂ‹вЂ‹вЂ‹вЂ‹вЂ‹вЂ‹вЂ‹вЂ‹</text><text x="0" y="0" fill="#131300" font-size="14" dominant-baseline="text-before-edge" text-anchor="middle" transform="translate(229.12862186897092, 479) rotate(0)">вЂ‹вЂ‹вЂ‹вЂ‹вЂ‹вЂ‹вЂ‹вЂ‹вЂ‹вЂ‹вЂ‹</text><text x="0" y="0" fill="#131300" font-size="14" dominant-baseline="text-before-edge" text-anchor="middle" transform="translate(243.87976511513315, 479) rotate(0)">3.8</text><text x="0" y="0" fill="#131300" font-size="14" dominant-baseline="text-before-edge" text-anchor="middle" transform="translate(258.6309083612954, 479) rotate(0)">вЂ‹вЂ‹вЂ‹вЂ‹вЂ‹вЂ‹вЂ‹вЂ‹вЂ‹вЂ‹вЂ‹вЂ‹вЂ‹</text><text x="0" y="0" fill="#131300" font-size="14" dominant-baseline="text-before-edge" text-anchor="middle" transform="translate(273.3820516074576, 479) rotate(0)">вЂ‹вЂ‹вЂ‹вЂ‹вЂ‹вЂ‹вЂ‹вЂ‹вЂ‹вЂ‹вЂ‹вЂ‹вЂ‹вЂ‹</text><text x="0" y="0" fill="#131300" font-size="14" dominant-baseline="text-before-edge" text-anchor="middle" transform="translate(288.13319485361984, 479) rotate(0)">вЂ‹вЂ‹вЂ‹вЂ‹вЂ‹вЂ‹вЂ‹вЂ‹вЂ‹вЂ‹вЂ‹вЂ‹вЂ‹вЂ‹вЂ‹</text><text x="0" y="0" fill="#131300" font-size="14" dominant-baseline="text-before-edge" text-anchor="middle" transform="translate(302.8843380997821, 479) rotate(0)">вЂ‹вЂ‹вЂ‹вЂ‹вЂ‹вЂ‹вЂ‹вЂ‹вЂ‹вЂ‹вЂ‹вЂ‹вЂ‹вЂ‹вЂ‹вЂ‹</text><text x="0" y="0" fill="#131300" font-size="14" dominant-baseline="text-before-edge" text-anchor="middle" transform="translate(317.6354813459443, 479) rotate(0)">вЂ‹вЂ‹вЂ‹вЂ‹вЂ‹вЂ‹вЂ‹вЂ‹вЂ‹вЂ‹вЂ‹вЂ‹вЂ‹вЂ‹вЂ‹вЂ‹вЂ‹</text><text x="0" y="0" fill="#131300" font-size="14" dominant-baseline="text-before-edge" text-anchor="middle" transform="translate(332.3866245921065, 479) rotate(0)">вЂ‹вЂ‹вЂ‹вЂ‹вЂ‹вЂ‹вЂ‹вЂ‹вЂ‹вЂ‹вЂ‹вЂ‹вЂ‹вЂ‹вЂ‹вЂ‹вЂ‹вЂ‹</text><text x="0" y="0" fill="#131300" font-size="14" dominant-baseline="text-before-edge" text-anchor="middle" transform="translate(347.13776783826876, 479) rotate(0)">3.15</text><text x="0" y="0" fill="#131300" font-size="14" dominant-baseline="text-before-edge" text-anchor="middle" transform="translate(361.888911084431, 479) rotate(0)">вЂ‹вЂ‹вЂ‹вЂ‹вЂ‹вЂ‹вЂ‹вЂ‹вЂ‹вЂ‹вЂ‹вЂ‹вЂ‹вЂ‹вЂ‹вЂ‹вЂ‹вЂ‹вЂ‹вЂ‹</text><text x="0" y="0" fill="#131300" font-size="14" dominant-baseline="text-before-edge" text-anchor="middle" transform="translate(376.6400543305932, 479) rotate(0)">вЂ‹вЂ‹вЂ‹вЂ‹вЂ‹вЂ‹вЂ‹вЂ‹вЂ‹вЂ‹вЂ‹вЂ‹вЂ‹вЂ‹вЂ‹вЂ‹вЂ‹вЂ‹вЂ‹вЂ‹вЂ‹</text><text x="0" y="0" fill="#131300" font-size="14" dominant-baseline="text-before-edge" text-anchor="middle" transform="translate(391.3911975767554, 479) rotate(0)">вЂ‹вЂ‹вЂ‹вЂ‹вЂ‹вЂ‹вЂ‹вЂ‹вЂ‹вЂ‹вЂ‹вЂ‹вЂ‹вЂ‹вЂ‹вЂ‹вЂ‹вЂ‹вЂ‹вЂ‹вЂ‹вЂ‹</text><text x="0" y="0" fill="#131300" font-size="14" dominant-baseline="text-before-edge" text-anchor="middle" transform="translate(406.1423408229177, 479) rotate(0)">вЂ‹вЂ‹вЂ‹вЂ‹вЂ‹вЂ‹вЂ‹вЂ‹вЂ‹вЂ‹вЂ‹вЂ‹вЂ‹вЂ‹вЂ‹вЂ‹вЂ‹вЂ‹вЂ‹вЂ‹вЂ‹вЂ‹вЂ‹</text><text x="0" y="0" fill="#131300" font-size="14" dominant-baseline="text-before-edge" text-anchor="middle" transform="translate(420.89348406907993, 479) rotate(0)">вЂ‹вЂ‹вЂ‹вЂ‹вЂ‹вЂ‹вЂ‹вЂ‹вЂ‹вЂ‹вЂ‹вЂ‹вЂ‹вЂ‹вЂ‹вЂ‹вЂ‹вЂ‹вЂ‹вЂ‹вЂ‹вЂ‹вЂ‹вЂ‹</text><text x="0" y="0" fill="#131300" font-size="14" dominant-baseline="text-before-edge" text-anchor="middle" transform="translate(435.64462731524213, 479) rotate(0)">вЂ‹вЂ‹вЂ‹вЂ‹вЂ‹вЂ‹вЂ‹вЂ‹вЂ‹вЂ‹вЂ‹вЂ‹вЂ‹вЂ‹вЂ‹вЂ‹вЂ‹вЂ‹вЂ‹вЂ‹вЂ‹вЂ‹вЂ‹вЂ‹вЂ‹</text><text x="0" y="0" fill="#131300" font-size="14" dominant-baseline="text-before-edge" text-anchor="middle" transform="translate(450.39577056140433, 479) rotate(0)">3.22</text><text x="0" y="0" fill="#131300" font-size="14" dominant-baseline="text-before-edge" text-anchor="middle" transform="translate(465.1469138075666, 479) rotate(0)">вЂ‹вЂ‹вЂ‹вЂ‹вЂ‹вЂ‹вЂ‹вЂ‹вЂ‹вЂ‹вЂ‹вЂ‹вЂ‹вЂ‹вЂ‹вЂ‹вЂ‹вЂ‹вЂ‹вЂ‹вЂ‹вЂ‹вЂ‹вЂ‹вЂ‹вЂ‹вЂ‹</text><text x="0" y="0" fill="#131300" font-size="14" dominant-baseline="text-before-edge" text-anchor="middle" transform="translate(479.89805705372885, 479) rotate(0)">вЂ‹вЂ‹вЂ‹вЂ‹вЂ‹вЂ‹вЂ‹вЂ‹вЂ‹вЂ‹вЂ‹вЂ‹вЂ‹вЂ‹вЂ‹вЂ‹вЂ‹вЂ‹вЂ‹вЂ‹вЂ‹вЂ‹вЂ‹вЂ‹вЂ‹вЂ‹вЂ‹вЂ‹</text><text x="0" y="0" fill="#131300" font-size="14" dominant-baseline="text-before-edge" text-anchor="middle" transform="translate(494.64920029989105, 479) rotate(0)">вЂ‹вЂ‹вЂ‹вЂ‹вЂ‹вЂ‹вЂ‹вЂ‹вЂ‹вЂ‹вЂ‹вЂ‹вЂ‹вЂ‹вЂ‹вЂ‹вЂ‹вЂ‹вЂ‹вЂ‹вЂ‹вЂ‹вЂ‹вЂ‹вЂ‹вЂ‹вЂ‹вЂ‹вЂ‹</text><text x="0" y="0" fill="#131300" font-size="14" dominant-baseline="text-before-edge" text-anchor="middle" transform="translate(509.40034354605325, 479) rotate(0)">вЂ‹вЂ‹вЂ‹вЂ‹вЂ‹вЂ‹вЂ‹вЂ‹вЂ‹вЂ‹вЂ‹вЂ‹вЂ‹вЂ‹вЂ‹вЂ‹вЂ‹вЂ‹вЂ‹вЂ‹вЂ‹вЂ‹вЂ‹вЂ‹вЂ‹вЂ‹вЂ‹вЂ‹вЂ‹вЂ‹</text><text x="0" y="0" fill="#131300" font-size="14" dominant-baseline="text-before-edge" text-anchor="middle" transform="translate(524.1514867922156, 479) rotate(0)">вЂ‹вЂ‹вЂ‹вЂ‹вЂ‹вЂ‹вЂ‹вЂ‹вЂ‹вЂ‹вЂ‹вЂ‹вЂ‹вЂ‹вЂ‹вЂ‹вЂ‹вЂ‹вЂ‹вЂ‹вЂ‹вЂ‹вЂ‹вЂ‹вЂ‹вЂ‹вЂ‹вЂ‹вЂ‹вЂ‹вЂ‹</text><text x="0" y="0" fill="#131300" font-size="14" dominant-baseline="text-before-edge" text-anchor="middle" transform="translate(538.9026300383778, 479) rotate(0)">вЂ‹вЂ‹вЂ‹вЂ‹вЂ‹вЂ‹вЂ‹вЂ‹вЂ‹вЂ‹вЂ‹вЂ‹вЂ‹вЂ‹вЂ‹вЂ‹вЂ‹вЂ‹вЂ‹вЂ‹вЂ‹вЂ‹вЂ‹вЂ‹вЂ‹вЂ‹вЂ‹вЂ‹вЂ‹вЂ‹вЂ‹вЂ‹</text><text x="0" y="0" fill="#131300" font-size="14" dominant-baseline="text-before-edge" text-anchor="middle" transform="translate(553.65377328454, 479) rotate(0)">3.29</text><text x="0" y="0" fill="#131300" font-size="14" dominant-baseline="text-before-edge" text-anchor="middle" transform="translate(568.4049165307022, 479) rotate(0)">вЂ‹вЂ‹вЂ‹вЂ‹вЂ‹вЂ‹вЂ‹вЂ‹вЂ‹вЂ‹вЂ‹вЂ‹вЂ‹вЂ‹вЂ‹вЂ‹вЂ‹вЂ‹вЂ‹вЂ‹вЂ‹вЂ‹вЂ‹вЂ‹вЂ‹вЂ‹вЂ‹вЂ‹вЂ‹вЂ‹вЂ‹вЂ‹вЂ‹вЂ‹</text><text x="0" y="0" fill="#131300" font-size="14" dominant-baseline="text-before-edge" text-anchor="middle" transform="translate(583.1560597768644, 479) rotate(0)">вЂ‹вЂ‹вЂ‹вЂ‹вЂ‹вЂ‹вЂ‹вЂ‹вЂ‹вЂ‹вЂ‹вЂ‹вЂ‹вЂ‹вЂ‹вЂ‹вЂ‹вЂ‹вЂ‹вЂ‹вЂ‹вЂ‹вЂ‹вЂ‹вЂ‹вЂ‹вЂ‹вЂ‹вЂ‹вЂ‹вЂ‹вЂ‹вЂ‹вЂ‹вЂ‹</text><text x="0" y="0" fill="#131300" font-size="14" dominant-baseline="text-before-edge" text-anchor="middle" transform="translate(597.9072030230267, 479) rotate(0)">4.1</text><text x="0" y="0" fill="#131300" font-size="14" dominant-baseline="text-before-edge" text-anchor="middle" transform="translate(612.6583462691889, 479) rotate(0)">вЂ‹вЂ‹вЂ‹вЂ‹вЂ‹вЂ‹вЂ‹вЂ‹вЂ‹вЂ‹вЂ‹вЂ‹вЂ‹вЂ‹вЂ‹вЂ‹вЂ‹вЂ‹вЂ‹вЂ‹вЂ‹вЂ‹вЂ‹вЂ‹вЂ‹вЂ‹вЂ‹вЂ‹вЂ‹вЂ‹вЂ‹вЂ‹вЂ‹вЂ‹вЂ‹вЂ‹вЂ‹</text><text x="0" y="0" fill="#131300" font-size="14" dominant-baseline="text-before-edge" text-anchor="middle" transform="translate(627.4094895153511, 479) rotate(0)">вЂ‹вЂ‹вЂ‹вЂ‹вЂ‹вЂ‹вЂ‹вЂ‹вЂ‹вЂ‹вЂ‹вЂ‹вЂ‹вЂ‹вЂ‹вЂ‹вЂ‹вЂ‹вЂ‹вЂ‹вЂ‹вЂ‹вЂ‹вЂ‹вЂ‹вЂ‹вЂ‹вЂ‹вЂ‹вЂ‹вЂ‹вЂ‹вЂ‹вЂ‹вЂ‹вЂ‹вЂ‹вЂ‹</text><text x="0" y="0" fill="#131300" font-size="14" dominant-baseline="text-before-edge" text-anchor="middle" transform="translate(642.1606327615134, 479) rotate(0)">вЂ‹вЂ‹вЂ‹вЂ‹вЂ‹вЂ‹вЂ‹вЂ‹вЂ‹вЂ‹вЂ‹вЂ‹вЂ‹вЂ‹вЂ‹вЂ‹вЂ‹вЂ‹вЂ‹вЂ‹вЂ‹вЂ‹вЂ‹вЂ‹вЂ‹вЂ‹вЂ‹вЂ‹вЂ‹вЂ‹вЂ‹вЂ‹вЂ‹вЂ‹вЂ‹вЂ‹вЂ‹вЂ‹вЂ‹</text><text x="0" y="0" fill="#131300" font-size="14" dominant-baseline="text-before-edge" text-anchor="middle" transform="translate(656.9117760076756, 479) rotate(0)">вЂ‹вЂ‹вЂ‹вЂ‹вЂ‹вЂ‹вЂ‹вЂ‹вЂ‹вЂ‹вЂ‹вЂ‹вЂ‹вЂ‹вЂ‹вЂ‹вЂ‹вЂ‹вЂ‹вЂ‹вЂ‹вЂ‹вЂ‹вЂ‹вЂ‹вЂ‹вЂ‹вЂ‹вЂ‹вЂ‹вЂ‹вЂ‹вЂ‹вЂ‹вЂ‹вЂ‹вЂ‹вЂ‹вЂ‹вЂ‹</text><text x="0" y="0" fill="#131300" font-size="14" dominant-baseline="text-before-edge" text-anchor="middle" transform="translate(671.6629192538378, 479) rotate(0)">вЂ‹вЂ‹вЂ‹вЂ‹вЂ‹вЂ‹вЂ‹вЂ‹вЂ‹вЂ‹вЂ‹вЂ‹вЂ‹вЂ‹вЂ‹вЂ‹вЂ‹вЂ‹вЂ‹вЂ‹вЂ‹вЂ‹вЂ‹вЂ‹вЂ‹вЂ‹вЂ‹вЂ‹вЂ‹вЂ‹вЂ‹вЂ‹вЂ‹вЂ‹вЂ‹вЂ‹вЂ‹вЂ‹вЂ‹вЂ‹вЂ‹</text><text x="0" y="0" fill="#131300" font-size="14" dominant-baseline="text-before-edge" text-anchor="middle" transform="translate(686.4140625, 479) rotate(0)">4.7</text></g><g class="ticks"><path d="M 81.61718940734863,469 L 81.61718940734863,474" fill="none" stroke="#131300" stroke-width="2"/><path d="M 96.36833265351086,469 L 96.36833265351086,474" fill="none" stroke="#131300" stroke-width="2"/><path d="M 111.11947589967309,469 L 111.11947589967309,474" fill="none" stroke="#131300" stroke-width="2"/><path d="M 125.87061914583532,469 L 125.87061914583532,474" fill="none" stroke="#131300" stroke-width="2"/><path d="M 140.62176239199755,469 L 140.62176239199755,474" fill="none" stroke="#131300" stroke-width="2"/><path d="M 155.37290563815978,469 L 155.37290563815978,474" fill="none" stroke="#131300" stroke-width="2"/><path d="M 170.124048884322,469 L 170.124048884322,474" fill="none" stroke="#131300" stroke-width="2"/><path d="M 184.87519213048424,469 L 184.87519213048424,474" fill="none" stroke="#131300" stroke-width="2"/><path d="M 199.62633537664647,469 L 199.62633537664647,474" fill="none" stroke="#131300" stroke-width="2"/><path d="M 214.3774786228087,469 L 214.3774786228087,474" fill="none" stroke="#131300" stroke-width="2"/><path d="M 229.12862186897092,469 L 229.12862186897092,474" fill="none" stroke="#131300" stroke-width="2"/><path d="M 243.87976511513315,469 L 243.87976511513315,474" fill="none" stroke="#131300" stroke-width="2"/><path d="M 258.6309083612954,469 L 258.6309083612954,474" fill="none" stroke="#131300" stroke-width="2"/><path d="M 273.3820516074576,469 L 273.3820516074576,474" fill="none" stroke="#131300" stroke-width="2"/><path d="M 288.13319485361984,469 L 288.13319485361984,474" fill="none" stroke="#131300" stroke-width="2"/><path d="M 302.8843380997821,469 L 302.8843380997821,474" fill="none" stroke="#131300" stroke-width="2"/><path d="M 317.6354813459443,469 L 317.6354813459443,474" fill="none" stroke="#131300" stroke-width="2"/><path d="M 332.3866245921065,469 L 332.3866245921065,474" fill="none" stroke="#131300" stroke-width="2"/><path d="M 347.13776783826876,469 L 347.13776783826876,474" fill="none" stroke="#131300" stroke-width="2"/><path d="M 361.888911084431,469 L 361.888911084431,474" fill="none" stroke="#131300" stroke-width="2"/><path d="M 376.6400543305932,469 L 376.6400543305932,474" fill="none" stroke="#131300" stroke-width="2"/><path d="M 391.3911975767554,469 L 391.3911975767554,474" fill="none" stroke="#131300" stroke-width="2"/><path d="M 406.1423408229177,469 L 406.1423408229177,474" fill="none" stroke="#131300" stroke-width="2"/><path d="M 420.89348406907993,469 L 420.89348406907993,474" fill="none" stroke="#131300" stroke-width="2"/><path d="M 435.64462731524213,469 L 435.64462731524213,474" fill="none" stroke="#131300" stroke-width="2"/><path d="M 450.39577056140433,469 L 450.39577056140433,474" fill="none" stroke="#131300" stroke-width="2"/><path d="M 465.1469138075666,469 L 465.1469138075666,474" fill="none" stroke="#131300" stroke-width="2"/><path d="M 479.89805705372885,469 L 479.89805705372885,474" fill="none" stroke="#131300" stroke-width="2"/><path d="M 494.64920029989105,469 L 494.64920029989105,474" fill="none" stroke="#131300" stroke-width="2"/><path d="M 509.40034354605325,469 L 509.40034354605325,474" fill="none" stroke="#131300" stroke-width="2"/><path d="M 524.1514867922156,469 L 524.1514867922156,474" fill="none" stroke="#131300" stroke-width="2"/><path d="M 538.9026300383778,469 L 538.9026300383778,474" fill="none" stroke="#131300" stroke-width="2"/><path d="M 553.65377328454,469 L 553.65377328454,474" fill="none" stroke="#131300" stroke-width="2"/><path d="M 568.4049165307022,469 L 568.4049165307022,474" fill="none" stroke="#131300" stroke-width="2"/><path d="M 583.1560597768644,469 L 583.1560597768644,474" fill="none" stroke="#131300" stroke-width="2"/><path d="M 597.9072030230267,469 L 597.9072030230267,474" fill="none" stroke="#131300" stroke-width="2"/><path d="M 612.6583462691889,469 L 612.6583462691889,474" fill="none" stroke="#131300" stroke-width="2"/><path d="M 627.4094895153511,469 L 627.4094895153511,474" fill="none" stroke="#131300" stroke-width="2"/><path d="M 642.1606327615134,469 L 642.1606327615134,474" fill="none" stroke="#131300" stroke-width="2"/><path d="M 656.9117760076756,469 L 656.9117760076756,474" fill="none" stroke="#131300" stroke-width="2"/><path d="M 671.6629192538378,469 L 671.6629192538378,474" fill="none" stroke="#131300" stroke-width="2"/><path d="M 686.4140625,469 L 686.4140625,474" fill="none" stroke="#131300" stroke-width="2"/></g></g><g class="left-axis"><g class="axisl-line"><path d="M 67.03125190734863,43.1796875 L 67.03125190734863,467" fill="none" stroke="#131300" stroke-width="2"/></g><g class="label"><text x="0" y="0" fill="#131300" font-size="14" dominant-baseline="middle" text-anchor="end" transform="translate(56.03125190734863, 51.1796875) rotate(0)">290</text><text x="0" y="0" fill="#131300" font-size="14" dominant-baseline="middle" text-anchor="end" transform="translate(56.03125190734863, 80.30970982142856) rotate(0)">280</text><text x="0" y="0" fill="#131300" font-size="14" dominant-baseline="middle" text-anchor="end" transform="translate(56.03125190734863, 109.43973214285717) rotate(0)">270</text><text x="0" y="0" fill="#131300" font-size="14" dominant-baseline="middle" text-anchor="end" transform="translate(56.03125190734863, 138.56975446428572) rotate(0)">260</text><text x="0" y="0" fill="#131300" font-size="14" dominant-baseline="middle" text-anchor="end" transform="translate(56.03125190734863, 167.69977678571428) rotate(0)">250</text><text x="0" y="0" fill="#131300" font-size="14" dominant-baseline="middle" text-anchor="end" transform="translate(56.03125190734863, 196.82979910714283) rotate(0)">240</text><text x="0" y="0" fill="#131300" font-size="14" dominant-baseline="middle" text-anchor="end" transform="translate(56.03125190734863, 225.95982142857144) rotate(0)">230</text><text x="0" y="0" fill="#131300" font-size="14" dominant-baseline="middle" text-anchor="end" transform="translate(56.03125190734863, 255.08984375) rotate(0)">220</text><text x="0" y="0" fill="#131300" font-size="14" dominant-baseline="middle" text-anchor="end" transform="translate(56.03125190734863, 284.21986607142856) rotate(0)">210</text><text x="0" y="0" fill="#131300" font-size="14" dominant-baseline="middle" text-anchor="end" transform="translate(56.03125190734863, 313.3498883928571) rotate(0)">200</text><text x="0" y="0" fill="#131300" font-size="14" dominant-baseline="middle" text-anchor="end" transform="translate(56.03125190734863, 342.4799107142857) rotate(0)">190</text><text x="0" y="0" fill="#131300" font-size="14" dominant-baseline="middle" text-anchor="end" transform="translate(56.03125190734863, 371.6099330357143) rotate(0)">180</text><text x="0" y="0" fill="#131300" font-size="14" dominant-baseline="middle" text-anchor="end" transform="translate(56.03125190734863, 400.7399553571429) rotate(0)">170</text><text x="0" y="0" fill="#131300" font-size="14" dominant-baseline="middle" text-anchor="end" transform="translate(56.03125190734863, 429.86997767857144) rotate(0)">160</text><text x="0" y="0" fill="#131300" font-size="14" dominant-baseline="middle" text-anchor="end" transform="translate(56.03125190734863, 459) rotate(0)">150</text></g><g class="ticks"><path d="M 66.03125190734863,51.1796875 L 61.03125190734863,51.1796875" fill="none" stroke="#131300" stroke-width="2"/><path d="M 66.03125190734863,80.30970982142856 L 61.03125190734863,80.30970982142856" fill="none" stroke="#131300" stroke-width="2"/><path d="M 66.03125190734863,109.43973214285717 L 61.03125190734863,109.43973214285717" fill="none" stroke="#131300" stroke-width="2"/><path d="M 66.03125190734863,138.56975446428572 L 61.03125190734863,138.56975446428572" fill="none" stroke="#131300" stroke-width="2"/><path d="M 66.03125190734863,167.69977678571428 L 61.03125190734863,167.69977678571428" fill="none" stroke="#131300" stroke-width="2"/><path d="M 66.03125190734863,196.82979910714283 L 61.03125190734863,196.82979910714283" fill="none" stroke="#131300" stroke-width="2"/><path d="M 66.03125190734863,225.95982142857144 L 61.03125190734863,225.95982142857144" fill="none" stroke="#131300" stroke-width="2"/><path d="M 66.03125190734863,255.08984375 L 61.03125190734863,255.08984375" fill="none" stroke="#131300" stroke-width="2"/><path d="M 66.03125190734863,284.21986607142856 L 61.03125190734863,284.21986607142856" fill="none" stroke="#131300" stroke-width="2"/><path d="M 66.03125190734863,313.3498883928571 L 61.03125190734863,313.3498883928571" fill="none" stroke="#131300" stroke-width="2"/><path d="M 66.03125190734863,342.4799107142857 L 61.03125190734863,342.4799107142857" fill="none" stroke="#131300" stroke-width="2"/><path d="M 66.03125190734863,371.6099330357143 L 61.03125190734863,371.6099330357143" fill="none" stroke="#131300" stroke-width="2"/><path d="M 66.03125190734863,400.7399553571429 L 61.03125190734863,400.7399553571429" fill="none" stroke="#131300" stroke-width="2"/><path d="M 66.03125190734863,429.86997767857144 L 61.03125190734863,429.86997767857144" fill="none" stroke="#131300" stroke-width="2"/><path d="M 66.03125190734863,459 L 61.03125190734863,459" fill="none" stroke="#131300" stroke-width="2"/></g><g class="title"><text x="0" y="0" fill="#131300" font-size="16" dominant-baseline="text-before-edge" text-anchor="middle" transform="translate(5, 255.08984375) rotate(270)">Members</text></g></g></g><g class="mermaid-tmp-group"/></svg>