<svg id="my-svg" width="100%" xmlns="http://www.w3.org/2000/svg" xmlns:xlink="http://www.w3.org/1999/xlink" style="max-width: 700px; background-color: white;" viewBox="0 0 700 500" role="graphics-document document" aria-roledescription="xychart"><style>#my-svg{font-family:"trebuchet ms",verdana,arial,sans-serif;font-size:16px;fill:#333;}@keyframes edge-animation-frame{from{stroke-dashoffset:0;}}@keyframes dash{to{stroke-dashoffset:0;}}#my-svg .edge-animation-slow{stroke-dasharray:9,5!important;stroke-dashoffset:900;animation:dash 50s linear infinite;stroke-linecap:round;}#my-svg .edge-animation-fast{stroke-dasharray:9,5!important;stroke-dashoffset:900;animation:dash 20s linear infinite;stroke-linecap:round;}#my-svg .error-icon{fill:#552222;}#my-svg .error-text{fill:#552222;stroke:#552222;}#my-svg .edge-thickness-normal{stroke-width:1px;}#my-svg .edge-thickness-thick{stroke-width:3.5px;}#my-svg .edge-pattern-solid{stroke-dasharray:0;}#my-svg .edge-thickness-invisible{stroke-width:0;fill:none;}#my-svg .edge-pattern-dashed{stroke-dasharray:3;}#my-svg .edge-pattern-dotted{stroke-dasharray:2;}#my-svg .marker{fill:#333333;stroke:#333333;}#my-svg .marker.cross{stroke:#333333;}#my-svg svg{font-family:"trebuchet ms",verdana,arial,sans-serif;font-size:16px;}#my-svg p{margin:0;}#my-svg :root{--mermaid-font-family:"trebuchet ms",verdana,arial,sans-serif;}</style><g/><g class="main"><rect width="700" height="500" class="background" fill="white"/><g class="chart-title"><text x="0" y="0" fill="#131300" font-size="20" dominant-baseline="middle" text-anchor="middle" transform="translate(350, 21.58984375) rotate(0)">Daily Cumulative Member Tally (2026) - Zoomed</text></g><g class="plot"><g class="bar-plot-0"><rect x="74.4352265393734" y="409.4789620535714" width="14.36392573595047" height="57.52103794642858" fill="#ECECFF" stroke="#ECECFF" stroke-width="0"/><rect x="89.94283866995421" y="400.7399553571429" width="14.36392573595047" height="66.26004464285711" fill="#ECECFF" stroke="#ECECFF" stroke-width="0"/><rect x="105.45045080053501" y="392.0009486607143" width="14.36392573595047" height="74.9990513392857" fill="#ECECFF" stroke="#ECECFF" stroke-width="0"/><rect x="120.95806293111583" y="386.17494419642856" width="14.36392573595047" height="80.82505580357144" fill="#ECECFF" stroke="#ECECFF" stroke-width="0"/><rect x="136.4656750616966" y="368.69693080357143" width="14.36392573595047" height="98.30306919642857" fill="#ECECFF" stroke="#ECECFF" stroke-width="0"/><rect x="151.9732871922774" y="362.8709263392857" width="14.36392573595047" height="104.12907366071431" fill="#ECECFF" stroke="#ECECFF" stroke-width="0"/><rect x="167.48089932285822" y="362.8709263392857" width="14.36392573595047" height="104.12907366071431" fill="#ECECFF" stroke="#ECECFF" stroke-width="0"/><rect x="182.988511453439" y="354.13191964285716" width="14.36392573595047" height="112.86808035714284" fill="#ECECFF" stroke="#ECECFF" stroke-width="0"/><rect x="198.4961235840198" y="351.2189174107143" width="14.36392573595047" height="115.78108258928569" fill="#ECECFF" stroke="#ECECFF" stroke-width="0"/><rect x="214.00373571460062" y="342.4799107142857" width="14.36392573595047" height="124.52008928571428" fill="#ECECFF" stroke="#ECECFF" stroke-width="0"/><rect x="229.51134784518143" y="325.0018973214286" width="14.36392573595047" height="141.9981026785714" fill="#ECECFF" stroke="#ECECFF" stroke-width="0"/><rect x="245.01895997576224" y="304.6108816964286" width="14.36392573595047" height="162.38911830357142" fill="#ECECFF" stroke="#ECECFF" stroke-width="0"/><rect x="260.52657210634305" y="281.3068638392857" width="14.36392573595047" height="185.6931361607143" fill="#ECECFF" stroke="#ECECFF" stroke-width="0"/><rect x="276.03418423692386" y="272.5678571428572" width="14.36392573595047" height="194.43214285714282" fill="#ECECFF" stroke="#ECECFF" stroke-width="0"/><rect x="291.5417963675046" y="263.82885044642853" width="14.36392573595047" height="203.17114955357147" fill="#ECECFF" stroke="#ECECFF" stroke-width="0"/><rect x="307.0494084980854" y="263.82885044642853" width="14.36392573595047" height="203.17114955357147" fill="#ECECFF" stroke="#ECECFF" stroke-width="0"/><rect x="322.55702062866624" y="263.82885044642853" width="14.36392573595047" height="203.17114955357147" fill="#ECECFF" stroke="#ECECFF" stroke-width="0"/><rect x="338.06463275924705" y="255.08984375" width="14.36392573595047" height="211.91015625" fill="#ECECFF" stroke="#ECECFF" stroke-width="0"/><rect x="353.57224488982786" y="240.52483258928572" width="14.36392573595047" height="226.47516741071428" fill="#ECECFF" stroke="#ECECFF" stroke-width="0"/><rect x="369.07985702040867" y="223.04681919642854" width="14.36392573595047" height="243.95318080357146" fill="#ECECFF" stroke="#ECECFF" stroke-width="0"/><rect x="384.5874691509895" y="214.3078125" width="14.36392573595047" height="252.6921875" fill="#ECECFF" stroke="#ECECFF" stroke-width="0"/><rect x="400.0950812815703" y="205.56880580357142" width="14.36392573595047" height="261.4311941964286" fill="#ECECFF" stroke="#ECECFF" stroke-width="0"/><rect x="415.6026934121511" y="196.82979910714283" width="14.36392573595047" height="270.17020089285717" fill="#ECECFF" stroke="#ECECFF" stroke-width="0"/><rect x="431.1103055427319" y="196.82979910714283" width="14.36392573595047" height="270.17020089285717" fill="#ECECFF" stroke="#ECECFF" stroke-width="0"/><rect x="446.6179176733127" y="185.17779017857146" width="14.36392573595047" height="281.82220982142854" fill="#ECECFF" stroke="#ECECFF" stroke-width="0"/><rect x="462.1255298038935" y="179.3517857142857" width="14.36392573595047" height="287.6482142857143" fill="#ECECFF" stroke="#ECECFF" stroke-width="0"/><rect x="477.63314193447434" y="179.3517857142857" width="14.36392573595047" height="287.6482142857143" fill="#ECECFF" stroke="#ECECFF" stroke-width="0"/><rect x="493.1407540650551" y="179.3517857142857" width="14.36392573595047" height="287.6482142857143" fill="#ECECFF" stroke="#ECECFF" stroke-width="0"/><rect x="508.64836619563584" y="179.3517857142857" width="14.36392573595047" height="287.6482142857143" fill="#ECECFF" stroke="#ECECFF" stroke-width="0"/><rect x="524.1559783262167" y="179.3517857142857" width="14.36392573595047" height="287.6482142857143" fill="#ECECFF" stroke="#ECECFF" stroke-width="0"/><rect x="539.6635904567975" y="179.3517857142857" width="14.36392573595047" height="287.6482142857143" fill="#ECECFF" stroke="#ECECFF" stroke-width="0"/><rect x="555.1712025873783" y="179.3517857142857" width="14.36392573595047" height="287.6482142857143" fill="#ECECFF" stroke="#ECECFF" stroke-width="0"/><rect x="570.6788147179591" y="179.3517857142857" width="14.36392573595047" height="287.6482142857143" fill="#ECECFF" stroke="#ECECFF" stroke-width="0"/><rect x="586.1864268485399" y="179.3517857142857" width="14.36392573595047" height="287.6482142857143" fill="#ECECFF" stroke="#ECECFF" stroke-width="0"/><rect x="601.6940389791207" y="176.43878348214287" width="14.36392573595047" height="290.56121651785713" fill="#ECECFF" stroke="#ECECFF" stroke-width="0"/><rect x="617.2016511097015" y="173.52578125000002" width="14.36392573595047" height="293.47421875" fill="#ECECFF" stroke="#ECECFF" stroke-width="0"/><rect x="632.7092632402823" y="167.69977678571428" width="14.36392573595047" height="299.3002232142857" fill="#ECECFF" stroke="#ECECFF" stroke-width="0"/><rect x="648.2168753708631" y="167.69977678571428" width="14.36392573595047" height="299.3002232142857" fill="#ECECFF" stroke="#ECECFF" stroke-width="0"/><rect x="663.724487501444" y="118.1787388392857" width="14.36392573595047" height="348.8212611607143" fill="#ECECFF" stroke="#ECECFF" stroke-width="0"/><rect x="679.2320996320248" y="109.43973214285717" width="14.36392573595047" height="357.56026785714283" fill="#ECECFF" stroke="#ECECFF" stroke-width="0"/></g></g><g class="bottom-axis"><g class="axis-line"><path d="M 68.03125190734863,468 L 700,468" fill="none" stroke="#131300" stroke-width="2"/></g><g class="label"><text x="0" y="0" fill="#131300" font-size="14" dominant-baseline="text-before-edge" text-anchor="middle" transform="translate(81.61718940734863, 479) rotate(0)">2.25</text><text x="0" y="0" fill="#131300" font-size="14" dominant-baseline="text-before-edge" text-anchor="middle" transform="translate(97.12480153792944, 479) rotate(0)">вЂ‹вЂ‹</text><text x="0" y="0" fill="#131300" font-size="14" dominant-baseline="text-before-edge" text-anchor="middle" transform="translate(112.63241366851024, 479) rotate(0)">вЂ‹вЂ‹вЂ‹</text><text x="0" y="0" fill="#131300" font-size="14" dominant-baseline="text-before-edge" text-anchor="middle" transform="translate(128.14002579909106, 479) rotate(0)">вЂ‹вЂ‹вЂ‹вЂ‹</text><text x="0" y="0" fill="#131300" font-size="14" dominant-baseline="text-before-edge" text-anchor="middle" transform="translate(143.64763792967184, 479) rotate(0)">3.1</text><text x="0" y="0" fill="#131300" font-size="14" dominant-baseline="text-before-edge" text-anchor="middle" transform="translate(159.15525006025265, 479) rotate(0)">вЂ‹вЂ‹вЂ‹вЂ‹вЂ‹вЂ‹</text><text x="0" y="0" fill="#131300" font-size="14" dominant-baseline="text-before-edge" text-anchor="middle" transform="translate(174.66286219083347, 479) rotate(0)">вЂ‹вЂ‹вЂ‹вЂ‹вЂ‹вЂ‹вЂ‹</text><text x="0" y="0" fill="#131300" font-size="14" dominant-baseline="text-before-edge" text-anchor="middle" transform="translate(190.17047432141425, 479) rotate(0)">вЂ‹вЂ‹вЂ‹вЂ‹вЂ‹вЂ‹вЂ‹вЂ‹</text><text x="0" y="0" fill="#131300" font-size="14" dominant-baseline="text-before-edge" text-anchor="middle" transform="translate(205.67808645199506, 479) rotate(0)">вЂ‹вЂ‹вЂ‹вЂ‹вЂ‹вЂ‹вЂ‹вЂ‹вЂ‹</text><text x="0" y="0" fill="#131300" font-size="14" dominant-baseline="text-before-edge" text-anchor="middle" transform="translate(221.18569858257587, 479) rotate(0)">вЂ‹вЂ‹вЂ‹вЂ‹вЂ‹вЂ‹вЂ‹вЂ‹вЂ‹вЂ‹</text><text x="0" y="0" fill="#131300" font-size="14" dominant-baseline="text-before-edge" text-anchor="middle" transform="translate(236.69331071315668, 479) rotate(0)">вЂ‹вЂ‹вЂ‹вЂ‹вЂ‹вЂ‹вЂ‹вЂ‹вЂ‹вЂ‹вЂ‹</text><text x="0" y="0" fill="#131300" font-size="14" dominant-baseline="text-before-edge" text-anchor="middle" transform="translate(252.2009228437375, 479) rotate(0)">3.8</text><text x="0" y="0" fill="#131300" font-size="14" dominant-baseline="text-before-edge" text-anchor="middle" transform="translate(267.7085349743183, 479) rotate(0)">вЂ‹вЂ‹вЂ‹вЂ‹вЂ‹вЂ‹вЂ‹вЂ‹вЂ‹вЂ‹вЂ‹вЂ‹вЂ‹</text><text x="0" y="0" fill="#131300" font-size="14" dominant-baseline="text-before-edge" text-anchor="middle" transform="translate(283.2161471048991, 479) rotate(0)">вЂ‹вЂ‹вЂ‹вЂ‹вЂ‹вЂ‹вЂ‹вЂ‹вЂ‹вЂ‹вЂ‹вЂ‹вЂ‹вЂ‹</text><text x="0" y="0" fill="#131300" font-size="14" dominant-baseline="text-before-edge" text-anchor="middle" transform="translate(298.72375923547986, 479) rotate(0)">вЂ‹вЂ‹вЂ‹вЂ‹вЂ‹вЂ‹вЂ‹вЂ‹вЂ‹вЂ‹вЂ‹вЂ‹вЂ‹вЂ‹вЂ‹</text><text x="0" y="0" fill="#131300" font-size="14" dominant-baseline="text-before-edge" text-anchor="middle" transform="translate(314.23137136606067, 479) rotate(0)">вЂ‹вЂ‹вЂ‹вЂ‹вЂ‹вЂ‹вЂ‹вЂ‹вЂ‹вЂ‹вЂ‹вЂ‹вЂ‹вЂ‹вЂ‹вЂ‹</text><text x="0" y="0" fill="#131300" font-size="14" dominant-baseline="text-before-edge" text-anchor="middle" transform="translate(329.7389834966415, 479) rotate(0)">вЂ‹вЂ‹вЂ‹вЂ‹вЂ‹вЂ‹вЂ‹вЂ‹вЂ‹вЂ‹вЂ‹вЂ‹вЂ‹вЂ‹вЂ‹вЂ‹вЂ‹</text><text x="0" y="0" fill="#131300" font-size="14" dominant-baseline="text-before-edge" text-anchor="middle" transform="translate(345.2465956272223, 479) rotate(0)">вЂ‹вЂ‹вЂ‹вЂ‹вЂ‹вЂ‹вЂ‹вЂ‹вЂ‹вЂ‹вЂ‹вЂ‹вЂ‹вЂ‹вЂ‹вЂ‹вЂ‹вЂ‹</text><text x="0" y="0" fill="#131300" font-size="14" dominant-baseline="text-before-edge" text-anchor="middle" transform="translate(360.7542077578031, 479) rotate(0)">3.15</text><text x="0" y="0" fill="#131300" font-size="14" dominant-baseline="text-before-edge" text-anchor="middle" transform="translate(376.2618198883839, 479) rotate(0)">вЂ‹вЂ‹вЂ‹вЂ‹вЂ‹вЂ‹вЂ‹вЂ‹вЂ‹вЂ‹вЂ‹вЂ‹вЂ‹вЂ‹вЂ‹вЂ‹вЂ‹вЂ‹вЂ‹вЂ‹</text><text x="0" y="0" fill="#131300" font-size="14" dominant-baseline="text-before-edge" text-anchor="middle" transform="translate(391.7694320189647, 479) rotate(0)">вЂ‹вЂ‹вЂ‹вЂ‹вЂ‹вЂ‹вЂ‹вЂ‹вЂ‹вЂ‹вЂ‹вЂ‹вЂ‹вЂ‹вЂ‹вЂ‹вЂ‹вЂ‹вЂ‹вЂ‹вЂ‹</text><text x="0" y="0" fill="#131300" font-size="14" dominant-baseline="text-before-edge" text-anchor="middle" transform="translate(407.27704414954553, 479) rotate(0)">вЂ‹вЂ‹вЂ‹вЂ‹вЂ‹вЂ‹вЂ‹вЂ‹вЂ‹вЂ‹вЂ‹вЂ‹вЂ‹вЂ‹вЂ‹вЂ‹вЂ‹вЂ‹вЂ‹вЂ‹вЂ‹вЂ‹</text><text x="0" y="0" fill="#131300" font-size="14" dominant-baseline="text-before-edge" text-anchor="middle" transform="translate(422.78465628012634, 479) rotate(0)">вЂ‹вЂ‹вЂ‹вЂ‹вЂ‹вЂ‹вЂ‹вЂ‹вЂ‹вЂ‹вЂ‹вЂ‹вЂ‹вЂ‹вЂ‹вЂ‹вЂ‹вЂ‹вЂ‹вЂ‹вЂ‹вЂ‹вЂ‹</text><text x="0" y="0" fill="#131300" font-size="14" dominant-baseline="text-before-edge" text-anchor="middle" transform="translate(438.29226841070715, 479) rotate(0)">вЂ‹вЂ‹вЂ‹вЂ‹вЂ‹вЂ‹вЂ‹вЂ‹вЂ‹вЂ‹вЂ‹вЂ‹вЂ‹вЂ‹вЂ‹вЂ‹вЂ‹вЂ‹вЂ‹вЂ‹вЂ‹вЂ‹вЂ‹вЂ‹</text><text x="0" y="0" fill="#131300" font-size="14" dominant-baseline="text-before-edge" text-anchor="middle" transform="translate(453.79988054128796, 479) rotate(0)">вЂ‹вЂ‹вЂ‹вЂ‹вЂ‹вЂ‹вЂ‹вЂ‹вЂ‹вЂ‹вЂ‹вЂ‹вЂ‹вЂ‹вЂ‹вЂ‹вЂ‹вЂ‹вЂ‹вЂ‹вЂ‹вЂ‹вЂ‹вЂ‹вЂ‹</text><text x="0" y="0" fill="#131300" font-size="14" dominant-baseline="text-before-edge" text-anchor="middle" transform="translate(469.3074926718688, 479) rotate(0)">3.22</text><text x="0" y="0" fill="#131300" font-size="14" dominant-baseline="text-before-edge" text-anchor="middle" transform="translate(484.8151048024496, 479) rotate(0)">вЂ‹вЂ‹вЂ‹вЂ‹вЂ‹вЂ‹вЂ‹вЂ‹вЂ‹вЂ‹вЂ‹вЂ‹вЂ‹вЂ‹вЂ‹вЂ‹вЂ‹вЂ‹вЂ‹вЂ‹вЂ‹вЂ‹вЂ‹вЂ‹вЂ‹вЂ‹вЂ‹</text><text x="0" y="0" fill="#131300" font-size="14" dominant-baseline="text-before-edge" text-anchor="middle" transform="translate(500.32271693303034, 479) rotate(0)">вЂ‹вЂ‹вЂ‹вЂ‹вЂ‹вЂ‹вЂ‹вЂ‹вЂ‹вЂ‹вЂ‹вЂ‹вЂ‹вЂ‹вЂ‹вЂ‹вЂ‹вЂ‹вЂ‹вЂ‹вЂ‹вЂ‹вЂ‹вЂ‹вЂ‹вЂ‹вЂ‹вЂ‹</text><text x="0" y="0" fill="#131300" font-size="14" dominant-baseline="text-before-edge" text-anchor="middle" transform="translate(515.8303290636111, 479) rotate(0)">вЂ‹вЂ‹вЂ‹вЂ‹вЂ‹вЂ‹вЂ‹вЂ‹вЂ‹вЂ‹вЂ‹вЂ‹вЂ‹вЂ‹вЂ‹вЂ‹вЂ‹вЂ‹вЂ‹вЂ‹вЂ‹вЂ‹вЂ‹вЂ‹вЂ‹вЂ‹вЂ‹вЂ‹вЂ‹</text><text x="0" y="0" fill="#131300" font-size="14" dominant-baseline="text-before-edge" text-anchor="middle" transform="translate(531.3379411941919, 479) rotate(0)">вЂ‹вЂ‹вЂ‹вЂ‹вЂ‹вЂ‹вЂ‹вЂ‹вЂ‹вЂ‹вЂ‹вЂ‹вЂ‹вЂ‹вЂ‹вЂ‹вЂ‹вЂ‹вЂ‹вЂ‹вЂ‹вЂ‹вЂ‹вЂ‹вЂ‹вЂ‹вЂ‹вЂ‹вЂ‹вЂ‹</text><text x="0" y="0" fill="#131300" font-size="14" dominant-baseline="text-before-edge" text-anchor="middle" transform="translate(546.8455533247727, 479) rotate(0)">вЂ‹вЂ‹вЂ‹вЂ‹вЂ‹вЂ‹вЂ‹вЂ‹вЂ‹вЂ‹вЂ‹вЂ‹вЂ‹вЂ‹вЂ‹вЂ‹вЂ‹вЂ‹вЂ‹вЂ‹вЂ‹вЂ‹вЂ‹вЂ‹вЂ‹вЂ‹вЂ‹вЂ‹вЂ‹вЂ‹вЂ‹</text><text x="0" y="0" fill="#131300" font-size="14" dominant-baseline="text-before-edge" text-anchor="middle" transform="translate(562.3531654553535, 479) rotate(0)">вЂ‹вЂ‹вЂ‹вЂ‹вЂ‹вЂ‹вЂ‹вЂ‹вЂ‹вЂ‹вЂ‹вЂ‹вЂ‹вЂ‹вЂ‹вЂ‹вЂ‹вЂ‹вЂ‹вЂ‹вЂ‹вЂ‹вЂ‹вЂ‹вЂ‹вЂ‹вЂ‹вЂ‹вЂ‹вЂ‹вЂ‹вЂ‹</text><text x="0" y="0" fill="#131300" font-size="14" dominant-baseline="text-before-edge" text-anchor="middle" transform="translate(577.8607775859343, 479) rotate(0)">3.29</text><text x="0" y="0" fill="#131300" font-size="14" dominant-baseline="text-before-edge" text-anchor="middle" transform="translate(593.3683897165151, 479) rotate(0)">вЂ‹вЂ‹вЂ‹вЂ‹вЂ‹вЂ‹вЂ‹вЂ‹вЂ‹вЂ‹вЂ‹вЂ‹вЂ‹вЂ‹вЂ‹вЂ‹вЂ‹вЂ‹вЂ‹вЂ‹вЂ‹вЂ‹вЂ‹вЂ‹вЂ‹вЂ‹вЂ‹вЂ‹вЂ‹вЂ‹вЂ‹вЂ‹вЂ‹вЂ‹</text><text x="0" y="0" fill="#131300" font-size="14" dominant-baseline="text-before-edge" text-anchor="middle" transform="translate(608.876001847096, 479) rotate(0)">вЂ‹вЂ‹вЂ‹вЂ‹вЂ‹вЂ‹вЂ‹вЂ‹вЂ‹вЂ‹вЂ‹вЂ‹вЂ‹вЂ‹вЂ‹вЂ‹вЂ‹вЂ‹вЂ‹вЂ‹вЂ‹вЂ‹вЂ‹вЂ‹вЂ‹вЂ‹вЂ‹вЂ‹вЂ‹вЂ‹вЂ‹вЂ‹вЂ‹вЂ‹вЂ‹</text><text x="0" y="0" fill="#131300" font-size="14" dominant-baseline="text-before-edge" text-anchor="middle" transform="translate(624.3836139776768, 479) rotate(0)">4.1</text><text x="0" y="0" fill="#131300" font-size="14" dominant-baseline="text-before-edge" text-anchor="middle" transform="translate(639.8912261082576, 479) rotate(0)">вЂ‹вЂ‹вЂ‹вЂ‹вЂ‹вЂ‹вЂ‹вЂ‹вЂ‹вЂ‹вЂ‹вЂ‹вЂ‹вЂ‹вЂ‹вЂ‹вЂ‹вЂ‹вЂ‹вЂ‹вЂ‹вЂ‹вЂ‹вЂ‹вЂ‹вЂ‹вЂ‹вЂ‹вЂ‹вЂ‹вЂ‹вЂ‹вЂ‹вЂ‹вЂ‹вЂ‹вЂ‹</text><text x="0" y="0" fill="#131300" font-size="14" dominant-baseline="text-before-edge" text-anchor="middle" transform="translate(655.3988382388384, 479) rotate(0)">вЂ‹вЂ‹вЂ‹вЂ‹вЂ‹вЂ‹вЂ‹вЂ‹вЂ‹вЂ‹вЂ‹вЂ‹вЂ‹вЂ‹вЂ‹вЂ‹вЂ‹вЂ‹вЂ‹вЂ‹вЂ‹вЂ‹вЂ‹вЂ‹вЂ‹вЂ‹вЂ‹вЂ‹вЂ‹вЂ‹вЂ‹вЂ‹вЂ‹вЂ‹вЂ‹вЂ‹вЂ‹вЂ‹</text><text x="0" y="0" fill="#131300" font-size="14" dominant-baseline="text-before-edge" text-anchor="middle" transform="translate(670.9064503694192, 479) rotate(0)">вЂ‹вЂ‹вЂ‹вЂ‹вЂ‹вЂ‹вЂ‹вЂ‹вЂ‹вЂ‹вЂ‹вЂ‹вЂ‹вЂ‹вЂ‹вЂ‹вЂ‹вЂ‹вЂ‹вЂ‹вЂ‹вЂ‹вЂ‹вЂ‹вЂ‹вЂ‹вЂ‹вЂ‹вЂ‹вЂ‹вЂ‹вЂ‹вЂ‹вЂ‹вЂ‹вЂ‹вЂ‹вЂ‹вЂ‹</text><text x="0" y="0" fill="#131300" font-size="14" dominant-baseline="text-before-edge" text-anchor="middle" transform="translate(686.4140625, 479) rotate(0)">4.5</text></g><g class="ticks"><path d="M 81.61718940734863,469 L 81.61718940734863,474" fill="none" stroke="#131300" stroke-width="2"/><path d="M 97.12480153792944,469 L 97.12480153792944,474" fill="none" stroke="#131300" stroke-width="2"/><path d="M 112.63241366851024,469 L 112.63241366851024,474" fill="none" stroke="#131300" stroke-width="2"/><path d="M 128.14002579909106,469 L 128.14002579909106,474" fill="none" stroke="#131300" stroke-width="2"/><path d="M 143.64763792967184,469 L 143.64763792967184,474" fill="none" stroke="#131300" stroke-width="2"/><path d="M 159.15525006025265,469 L 159.15525006025265,474" fill="none" stroke="#131300" stroke-width="2"/><path d="M 174.66286219083347,469 L 174.66286219083347,474" fill="none" stroke="#131300" stroke-width="2"/><path d="M 190.17047432141425,469 L 190.17047432141425,474" fill="none" stroke="#131300" stroke-width="2"/><path d="M 205.67808645199506,469 L 205.67808645199506,474" fill="none" stroke="#131300" stroke-width="2"/><path d="M 221.18569858257587,469 L 221.18569858257587,474" fill="none" stroke="#131300" stroke-width="2"/><path d="M 236.69331071315668,469 L 236.69331071315668,474" fill="none" stroke="#131300" stroke-width="2"/><path d="M 252.2009228437375,469 L 252.2009228437375,474" fill="none" stroke="#131300" stroke-width="2"/><path d="M 267.7085349743183,469 L 267.7085349743183,474" fill="none" stroke="#131300" stroke-width="2"/><path d="M 283.2161471048991,469 L 283.2161471048991,474" fill="none" stroke="#131300" stroke-width="2"/><path d="M 298.72375923547986,469 L 298.72375923547986,474" fill="none" stroke="#131300" stroke-width="2"/><path d="M 314.23137136606067,469 L 314.23137136606067,474" fill="none" stroke="#131300" stroke-width="2"/><path d="M 329.7389834966415,469 L 329.7389834966415,474" fill="none" stroke="#131300" stroke-width="2"/><path d="M 345.2465956272223,469 L 345.2465956272223,474" fill="none" stroke="#131300" stroke-width="2"/><path d="M 360.7542077578031,469 L 360.7542077578031,474" fill="none" stroke="#131300" stroke-width="2"/><path d="M 376.2618198883839,469 L 376.2618198883839,474" fill="none" stroke="#131300" stroke-width="2"/><path d="M 391.7694320189647,469 L 391.7694320189647,474" fill="none" stroke="#131300" stroke-width="2"/><path d="M 407.27704414954553,469 L 407.27704414954553,474" fill="none" stroke="#131300" stroke-width="2"/><path d="M 422.78465628012634,469 L 422.78465628012634,474" fill="none" stroke="#131300" stroke-width="2"/><path d="M 438.29226841070715,469 L 438.29226841070715,474" fill="none" stroke="#131300" stroke-width="2"/><path d="M 453.79988054128796,469 L 453.79988054128796,474" fill="none" stroke="#131300" stroke-width="2"/><path d="M 469.3074926718688,469 L 469.3074926718688,474" fill="none" stroke="#131300" stroke-width="2"/><path d="M 484.8151048024496,469 L 484.8151048024496,474" fill="none" stroke="#131300" stroke-width="2"/><path d="M 500.32271693303034,469 L 500.32271693303034,474" fill="none" stroke="#131300" stroke-width="2"/><path d="M 515.8303290636111,469 L 515.8303290636111,474" fill="none" stroke="#131300" stroke-width="2"/><path d="M 531.3379411941919,469 L 531.3379411941919,474" fill="none" stroke="#131300" stroke-width="2"/><path d="M 546.8455533247727,469 L 546.8455533247727,474" fill="none" stroke="#131300" stroke-width="2"/><path d="M 562.3531654553535,469 L 562.3531654553535,474" fill="none" stroke="#131300" stroke-width="2"/><path d="M 577.8607775859343,469 L 577.8607775859343,474" fill="none" stroke="#131300" stroke-width="2"/><path d="M 593.3683897165151,469 L 593.3683897165151,474" fill="none" stroke="#131300" stroke-width="2"/><path d="M 608.876001847096,469 L 608.876001847096,474" fill="none" stroke="#131300" stroke-width="2"/><path d="M 624.3836139776768,469 L 624.3836139776768,474" fill="none" stroke="#131300" stroke-width="2"/><path d="M 639.8912261082576,469 L 639.8912261082576,474" fill="none" stroke="#131300" stroke-width="2"/><path d="M 655.3988382388384,469 L 655.3988382388384,474" fill="none" stroke="#131300" stroke-width="2"/><path d="M 670.9064503694192,469 L 670.9064503694192,474" fill="none" stroke="#131300" stroke-width="2"/><path d="M 686.4140625,469 L 686.4140625,474" fill="none" stroke="#131300" stroke-width="2"/></g></g><g class="left-axis"><g class="axisl-line"><path d="M 67.03125190734863,43.1796875 L 67.03125190734863,467" fill="none" stroke="#131300" stroke-width="2"/></g><g class="label"><text x="0" y="0" fill="#131300" font-size="14" dominant-baseline="middle" text-anchor="end" transform="translate(56.03125190734863, 51.1796875) rotate(0)">290</text><text x="0" y="0" fill="#131300" font-size="14" dominant-baseline="middle" text-anchor="end" transform="translate(56.03125190734863, 80.30970982142856) rotate(0)">280</text><text x="0" y="0" fill="#131300" font-size="14" dominant-baseline="middle" text-anchor="end" transform="translate(56.03125190734863, 109.43973214285717) rotate(0)">270</text><text x="0" y="0" fill="#131300" font-size="14" dominant-baseline="middle" text-anchor="end" transform="translate(56.03125190734863, 138.56975446428572) rotate(0)">260</text><text x="0" y="0" fill="#131300" font-size="14" dominant-baseline="middle" text-anchor="end" transform="translate(56.03125190734863, 167.69977678571428) rotate(0)">250</text><text x="0" y="0" fill="#131300" font-size="14" dominant-baseline="middle" text-anchor="end" transform="translate(56.03125190734863, 196.82979910714283) rotate(0)">240</text><text x="0" y="0" fill="#131300" font-size="14" dominant-baseline="middle" text-anchor="end" transform="translate(56.03125190734863, 225.95982142857144) rotate(0)">230</text><text x="0" y="0" fill="#131300" font-size="14" dominant-baseline="middle" text-anchor="end" transform="translate(56.03125190734863, 255.08984375) rotate(0)">220</text><text x="0" y="0" fill="#131300" font-size="14" dominant-baseline="middle" text-anchor="end" transform="translate(56.03125190734863, 284.21986607142856) rotate(0)">210</text><text x="0" y="0" fill="#131300" font-size="14" dominant-baseline="middle" text-anchor="end" transform="translate(56.03125190734863, 313.3498883928571) rotate(0)">200</text><text x="0" y="0" fill="#131300" font-size="14" dominant-baseline="middle" text-anchor="end" transform="translate(56.03125190734863, 342.4799107142857) rotate(0)">190</text><text x="0" y="0" fill="#131300" font-size="14" dominant-baseline="middle" text-anchor="end" transform="translate(56.03125190734863, 371.6099330357143) rotate(0)">180</text><text x="0" y="0" fill="#131300" font-size="14" dominant-baseline="middle" text-anchor="end" transform="translate(56.03125190734863, 400.7399553571429) rotate(0)">170</text><text x="0" y="0" fill="#131300" font-size="14" dominant-baseline="middle" text-anchor="end" transform="translate(56.03125190734863, 429.86997767857144) rotate(0)">160</text><text x="0" y="0" fill="#131300" font-size="14" dominant-baseline="middle" text-anchor="end" transform="translate(56.03125190734863, 459) rotate(0)">150</text></g><g class="ticks"><path d="M 66.03125190734863,51.1796875 L 61.03125190734863,51.1796875" fill="none" stroke="#131300" stroke-width="2"/><path d="M 66.03125190734863,80.30970982142856 L 61.03125190734863,80.30970982142856" fill="none" stroke="#131300" stroke-width="2"/><path d="M 66.03125190734863,109.43973214285717 L 61.03125190734863,109.43973214285717" fill="none" stroke="#131300" stroke-width="2"/><path d="M 66.03125190734863,138.56975446428572 L 61.03125190734863,138.56975446428572" fill="none" stroke="#131300" stroke-width="2"/><path d="M 66.03125190734863,167.69977678571428 L 61.03125190734863,167.69977678571428" fill="none" stroke="#131300" stroke-width="2"/><path d="M 66.03125190734863,196.82979910714283 L 61.03125190734863,196.82979910714283" fill="none" stroke="#131300" stroke-width="2"/><path d="M 66.03125190734863,225.95982142857144 L 61.03125190734863,225.95982142857144" fill="none" stroke="#131300" stroke-width="2"/><path d="M 66.03125190734863,255.08984375 L 61.03125190734863,255.08984375" fill="none" stroke="#131300" stroke-width="2"/><path d="M 66.03125190734863,284.21986607142856 L 61.03125190734863,284.21986607142856" fill="none" stroke="#131300" stroke-width="2"/><path d="M 66.03125190734863,313.3498883928571 L 61.03125190734863,313.3498883928571" fill="none" stroke="#131300" stroke-width="2"/><path d="M 66.03125190734863,342.4799107142857 L 61.03125190734863,342.4799107142857" fill="none" stroke="#131300" stroke-width="2"/><path d="M 66.03125190734863,371.6099330357143 L 61.03125190734863,371.6099330357143" fill="none" stroke="#131300" stroke-width="2"/><path d="M 66.03125190734863,400.7399553571429 L 61.03125190734863,400.7399553571429" fill="none" stroke="#131300" stroke-width="2"/><path d="M 66.03125190734863,429.86997767857144 L 61.03125190734863,429.86997767857144" fill="none" stroke="#131300" stroke-width="2"/><path d="M 66.03125190734863,459 L 61.03125190734863,459" fill="none" stroke="#131300" stroke-width="2"/></g><g class="title"><text x="0" y="0" fill="#131300" font-size="16" dominant-baseline="text-before-edge" text-anchor="middle" transform="translate(5, 255.08984375) rotate(270)">Members</text></g></g></g><g class="mermaid-tmp-group"/></svg>