<svg id="my-svg" width="100%" xmlns="http://www.w3.org/2000/svg" xmlns:xlink="http://www.w3.org/1999/xlink" style="max-width: 700px; background-color: white;" viewBox="0 0 700 500" role="graphics-document document" aria-roledescription="xychart"><style>#my-svg{font-family:"trebuchet ms",verdana,arial,sans-serif;font-size:16px;fill:#333;}@keyframes edge-animation-frame{from{stroke-dashoffset:0;}}@keyframes dash{to{stroke-dashoffset:0;}}#my-svg .edge-animation-slow{stroke-dasharray:9,5!important;stroke-dashoffset:900;animation:dash 50s linear infinite;stroke-linecap:round;}#my-svg .edge-animation-fast{stroke-dasharray:9,5!important;stroke-dashoffset:900;animation:dash 20s linear infinite;stroke-linecap:round;}#my-svg .error-icon{fill:#552222;}#my-svg .error-text{fill:#552222;stroke:#552222;}#my-svg .edge-thickness-normal{stroke-width:1px;}#my-svg .edge-thickness-thick{stroke-width:3.5px;}#my-svg .edge-pattern-solid{stroke-dasharray:0;}#my-svg .edge-thickness-invisible{stroke-width:0;fill:none;}#my-svg .edge-pattern-dashed{stroke-dasharray:3;}#my-svg .edge-pattern-dotted{stroke-dasharray:2;}#my-svg .marker{fill:#333333;stroke:#333333;}#my-svg .marker.cross{stroke:#333333;}#my-svg svg{font-family:"trebuchet ms",verdana,arial,sans-serif;font-size:16px;}#my-svg p{margin:0;}#my-svg :root{--mermaid-font-family:"trebuchet ms",verdana,arial,sans-serif;}</style><g/><g class="main"><rect width="700" height="500" class="background" fill="white"/><g class="chart-title"><text x="0" y="0" fill="#131300" font-size="20" dominant-baseline="middle" text-anchor="middle" transform="translate(350, 21.58984375) rotate(0)">Daily Net Member Change (2026)</text></g><g class="plot"><g class="bar-plot-0"><rect x="67.0042695081234" y="459" width="14.538339798450469" height="8" fill="#ECECFF" stroke="#ECECFF" stroke-width="0"/><rect x="82.70018292075548" y="397.826953125" width="14.538339798450469" height="69.17304687500001" fill="#ECECFF" stroke="#ECECFF" stroke-width="0"/><rect x="98.39609633338758" y="397.826953125" width="14.538339798450469" height="69.17304687500001" fill="#ECECFF" stroke="#ECECFF" stroke-width="0"/><rect x="114.09200974601966" y="418.21796875" width="14.538339798450469" height="48.78203124999999" fill="#ECECFF" stroke="#ECECFF" stroke-width="0"/><rect x="129.78792315865175" y="336.65390625" width="14.538339798450469" height="130.34609375000002" fill="#ECECFF" stroke="#ECECFF" stroke-width="0"/><rect x="145.48383657128383" y="418.21796875" width="14.538339798450469" height="48.78203124999999" fill="#ECECFF" stroke="#ECECFF" stroke-width="0"/><rect x="161.1797499839159" y="459" width="14.538339798450469" height="8" fill="#ECECFF" stroke="#ECECFF" stroke-width="0"/><rect x="176.87566339654802" y="397.826953125" width="14.538339798450469" height="69.17304687500001" fill="#ECECFF" stroke="#ECECFF" stroke-width="0"/><rect x="192.5715768091801" y="438.608984375" width="14.538339798450469" height="28.391015625000023" fill="#ECECFF" stroke="#ECECFF" stroke-width="0"/><rect x="208.26749022181218" y="397.826953125" width="14.538339798450469" height="69.17304687500001" fill="#ECECFF" stroke="#ECECFF" stroke-width="0"/><rect x="223.96340363444426" y="336.65390625" width="14.538339798450469" height="130.34609375000002" fill="#ECECFF" stroke="#ECECFF" stroke-width="0"/><rect x="239.65931704707634" y="316.262890625" width="14.538339798450469" height="150.737109375" fill="#ECECFF" stroke="#ECECFF" stroke-width="0"/><rect x="255.35523045970842" y="295.871875" width="14.538339798450469" height="171.128125" fill="#ECECFF" stroke="#ECECFF" stroke-width="0"/><rect x="271.0511438723405" y="397.826953125" width="14.538339798450469" height="69.17304687500001" fill="#ECECFF" stroke="#ECECFF" stroke-width="0"/><rect x="286.74705728497264" y="397.826953125" width="14.538339798450469" height="69.17304687500001" fill="#ECECFF" stroke="#ECECFF" stroke-width="0"/><rect x="302.4429706976047" y="459" width="14.538339798450469" height="8" fill="#ECECFF" stroke="#ECECFF" stroke-width="0"/><rect x="318.1388841102368" y="459" width="14.538339798450469" height="8" fill="#ECECFF" stroke="#ECECFF" stroke-width="0"/><rect x="333.8347975228689" y="397.826953125" width="14.538339798450469" height="69.17304687500001" fill="#ECECFF" stroke="#ECECFF" stroke-width="0"/><rect x="349.53071093550096" y="357.044921875" width="14.538339798450469" height="109.955078125" fill="#ECECFF" stroke="#ECECFF" stroke-width="0"/><rect x="365.22662434813304" y="336.65390625" width="14.538339798450469" height="130.34609375000002" fill="#ECECFF" stroke="#ECECFF" stroke-width="0"/><rect x="380.9225377607651" y="397.826953125" width="14.538339798450469" height="69.17304687500001" fill="#ECECFF" stroke="#ECECFF" stroke-width="0"/><rect x="396.6184511733972" y="397.826953125" width="14.538339798450469" height="69.17304687500001" fill="#ECECFF" stroke="#ECECFF" stroke-width="0"/><rect x="412.3143645860293" y="397.826953125" width="14.538339798450469" height="69.17304687500001" fill="#ECECFF" stroke="#ECECFF" stroke-width="0"/><rect x="428.01027799866137" y="459" width="14.538339798450469" height="8" fill="#ECECFF" stroke="#ECECFF" stroke-width="0"/><rect x="443.70619141129345" y="377.4359375" width="14.538339798450469" height="89.56406249999998" fill="#ECECFF" stroke="#ECECFF" stroke-width="0"/><rect x="459.4021048239255" y="418.21796875" width="14.538339798450469" height="48.78203124999999" fill="#ECECFF" stroke="#ECECFF" stroke-width="0"/><rect x="475.0980182365576" y="459" width="14.538339798450469" height="8" fill="#ECECFF" stroke="#ECECFF" stroke-width="0"/><rect x="490.79393164918974" y="459" width="14.538339798450469" height="8" fill="#ECECFF" stroke="#ECECFF" stroke-width="0"/><rect x="506.4898450618219" y="459" width="14.538339798450469" height="8" fill="#ECECFF" stroke="#ECECFF" stroke-width="0"/><rect x="522.1857584744539" y="459" width="14.538339798450469" height="8" fill="#ECECFF" stroke="#ECECFF" stroke-width="0"/><rect x="537.881671887086" y="459" width="14.538339798450469" height="8" fill="#ECECFF" stroke="#ECECFF" stroke-width="0"/><rect x="553.5775852997181" y="459" width="14.538339798450469" height="8" fill="#ECECFF" stroke="#ECECFF" stroke-width="0"/><rect x="569.2734987123501" y="459" width="14.538339798450469" height="8" fill="#ECECFF" stroke="#ECECFF" stroke-width="0"/><rect x="584.9694121249822" y="459" width="14.538339798450469" height="8" fill="#ECECFF" stroke="#ECECFF" stroke-width="0"/><rect x="600.6653255376143" y="438.608984375" width="14.538339798450469" height="28.391015625000023" fill="#ECECFF" stroke="#ECECFF" stroke-width="0"/><rect x="616.3612389502464" y="438.608984375" width="14.538339798450469" height="28.391015625000023" fill="#ECECFF" stroke="#ECECFF" stroke-width="0"/><rect x="632.0571523628785" y="418.21796875" width="14.538339798450469" height="48.78203124999999" fill="#ECECFF" stroke="#ECECFF" stroke-width="0"/><rect x="647.7530657755105" y="459" width="14.538339798450469" height="8" fill="#ECECFF" stroke="#ECECFF" stroke-width="0"/><rect x="663.4489791881426" y="112.35273437500001" width="14.538339798450469" height="354.647265625" fill="#ECECFF" stroke="#ECECFF" stroke-width="0"/><rect x="679.1448926007747" y="397.826953125" width="14.538339798450469" height="69.17304687500001" fill="#ECECFF" stroke="#ECECFF" stroke-width="0"/></g></g><g class="bottom-axis"><g class="axis-line"><path d="M 60.68750190734863,468 L 700,468" fill="none" stroke="#131300" stroke-width="2"/></g><g class="label"><text x="0" y="0" fill="#131300" font-size="14" dominant-baseline="text-before-edge" text-anchor="middle" transform="translate(74.27343940734863, 479) rotate(0)">2.25</text><text x="0" y="0" fill="#131300" font-size="14" dominant-baseline="text-before-edge" text-anchor="middle" transform="translate(89.96935281998071, 479) rotate(0)">‚Äč‚Äč</text><text x="0" y="0" fill="#131300" font-size="14" dominant-baseline="text-before-edge" text-anchor="middle" transform="translate(105.66526623261281, 479) rotate(0)">‚Äč‚Äč‚Äč</text><text x="0" y="0" fill="#131300" font-size="14" dominant-baseline="text-before-edge" text-anchor="middle" transform="translate(121.36117964524489, 479) rotate(0)">‚Äč‚Äč‚Äč‚Äč</text><text x="0" y="0" fill="#131300" font-size="14" dominant-baseline="text-before-edge" text-anchor="middle" transform="translate(137.05709305787698, 479) rotate(0)">3.1</text><text x="0" y="0" fill="#131300" font-size="14" dominant-baseline="text-before-edge" text-anchor="middle" transform="translate(152.75300647050906, 479) rotate(0)">‚Äč‚Äč‚Äč‚Äč‚Äč‚Äč</text><text x="0" y="0" fill="#131300" font-size="14" dominant-baseline="text-before-edge" text-anchor="middle" transform="translate(168.44891988314114, 479) rotate(0)">‚Äč‚Äč‚Äč‚Äč‚Äč‚Äč‚Äč</text><text x="0" y="0" fill="#131300" font-size="14" dominant-baseline="text-before-edge" text-anchor="middle" transform="translate(184.14483329577325, 479) rotate(0)">‚Äč‚Äč‚Äč‚Äč‚Äč‚Äč‚Äč‚Äč</text><text x="0" y="0" fill="#131300" font-size="14" dominant-baseline="text-before-edge" text-anchor="middle" transform="translate(199.84074670840533, 479) rotate(0)">‚Äč‚Äč‚Äč‚Äč‚Äč‚Äč‚Äč‚Äč‚Äč</text><text x="0" y="0" fill="#131300" font-size="14" dominant-baseline="text-before-edge" text-anchor="middle" transform="translate(215.53666012103741, 479) rotate(0)">‚Äč‚Äč‚Äč‚Äč‚Äč‚Äč‚Äč‚Äč‚Äč‚Äč</text><text x="0" y="0" fill="#131300" font-size="14" dominant-baseline="text-before-edge" text-anchor="middle" transform="translate(231.2325735336695, 479) rotate(0)">‚Äč‚Äč‚Äč‚Äč‚Äč‚Äč‚Äč‚Äč‚Äč‚Äč‚Äč</text><text x="0" y="0" fill="#131300" font-size="14" dominant-baseline="text-before-edge" text-anchor="middle" transform="translate(246.92848694630158, 479) rotate(0)">3.8</text><text x="0" y="0" fill="#131300" font-size="14" dominant-baseline="text-before-edge" text-anchor="middle" transform="translate(262.62440035893366, 479) rotate(0)">‚Äč‚Äč‚Äč‚Äč‚Äč‚Äč‚Äč‚Äč‚Äč‚Äč‚Äč‚Äč‚Äč</text><text x="0" y="0" fill="#131300" font-size="14" dominant-baseline="text-before-edge" text-anchor="middle" transform="translate(278.32031377156574, 479) rotate(0)">‚Äč‚Äč‚Äč‚Äč‚Äč‚Äč‚Äč‚Äč‚Äč‚Äč‚Äč‚Äč‚Äč‚Äč</text><text x="0" y="0" fill="#131300" font-size="14" dominant-baseline="text-before-edge" text-anchor="middle" transform="translate(294.0162271841979, 479) rotate(0)">‚Äč‚Äč‚Äč‚Äč‚Äč‚Äč‚Äč‚Äč‚Äč‚Äč‚Äč‚Äč‚Äč‚Äč‚Äč</text><text x="0" y="0" fill="#131300" font-size="14" dominant-baseline="text-before-edge" text-anchor="middle" transform="translate(309.71214059682995, 479) rotate(0)">‚Äč‚Äč‚Äč‚Äč‚Äč‚Äč‚Äč‚Äč‚Äč‚Äč‚Äč‚Äč‚Äč‚Äč‚Äč‚Äč</text><text x="0" y="0" fill="#131300" font-size="14" dominant-baseline="text-before-edge" text-anchor="middle" transform="translate(325.40805400946203, 479) rotate(0)">‚Äč‚Äč‚Äč‚Äč‚Äč‚Äč‚Äč‚Äč‚Äč‚Äč‚Äč‚Äč‚Äč‚Äč‚Äč‚Äč‚Äč</text><text x="0" y="0" fill="#131300" font-size="14" dominant-baseline="text-before-edge" text-anchor="middle" transform="translate(341.1039674220941, 479) rotate(0)">‚Äč‚Äč‚Äč‚Äč‚Äč‚Äč‚Äč‚Äč‚Äč‚Äč‚Äč‚Äč‚Äč‚Äč‚Äč‚Äč‚Äč‚Äč</text><text x="0" y="0" fill="#131300" font-size="14" dominant-baseline="text-before-edge" text-anchor="middle" transform="translate(356.7998808347262, 479) rotate(0)">3.15</text><text x="0" y="0" fill="#131300" font-size="14" dominant-baseline="text-before-edge" text-anchor="middle" transform="translate(372.4957942473583, 479) rotate(0)">‚Äč‚Äč‚Äč‚Äč‚Äč‚Äč‚Äč‚Äč‚Äč‚Äč‚Äč‚Äč‚Äč‚Äč‚Äč‚Äč‚Äč‚Äč‚Äč‚Äč</text><text x="0" y="0" fill="#131300" font-size="14" dominant-baseline="text-before-edge" text-anchor="middle" transform="translate(388.19170765999036, 479) rotate(0)">‚Äč‚Äč‚Äč‚Äč‚Äč‚Äč‚Äč‚Äč‚Äč‚Äč‚Äč‚Äč‚Äč‚Äč‚Äč‚Äč‚Äč‚Äč‚Äč‚Äč‚Äč</text><text x="0" y="0" fill="#131300" font-size="14" dominant-baseline="text-before-edge" text-anchor="middle" transform="translate(403.88762107262244, 479) rotate(0)">‚Äč‚Äč‚Äč‚Äč‚Äč‚Äč‚Äč‚Äč‚Äč‚Äč‚Äč‚Äč‚Äč‚Äč‚Äč‚Äč‚Äč‚Äč‚Äč‚Äč‚Äč‚Äč</text><text x="0" y="0" fill="#131300" font-size="14" dominant-baseline="text-before-edge" text-anchor="middle" transform="translate(419.5835344852545, 479) rotate(0)">‚Äč‚Äč‚Äč‚Äč‚Äč‚Äč‚Äč‚Äč‚Äč‚Äč‚Äč‚Äč‚Äč‚Äč‚Äč‚Äč‚Äč‚Äč‚Äč‚Äč‚Äč‚Äč‚Äč</text><text x="0" y="0" fill="#131300" font-size="14" dominant-baseline="text-before-edge" text-anchor="middle" transform="translate(435.2794478978866, 479) rotate(0)">‚Äč‚Äč‚Äč‚Äč‚Äč‚Äč‚Äč‚Äč‚Äč‚Äč‚Äč‚Äč‚Äč‚Äč‚Äč‚Äč‚Äč‚Äč‚Äč‚Äč‚Äč‚Äč‚Äč‚Äč</text><text x="0" y="0" fill="#131300" font-size="14" dominant-baseline="text-before-edge" text-anchor="middle" transform="translate(450.9753613105187, 479) rotate(0)">‚Äč‚Äč‚Äč‚Äč‚Äč‚Äč‚Äč‚Äč‚Äč‚Äč‚Äč‚Äč‚Äč‚Äč‚Äč‚Äč‚Äč‚Äč‚Äč‚Äč‚Äč‚Äč‚Äč‚Äč‚Äč</text><text x="0" y="0" fill="#131300" font-size="14" dominant-baseline="text-before-edge" text-anchor="middle" transform="translate(466.67127472315076, 479) rotate(0)">3.22</text><text x="0" y="0" fill="#131300" font-size="14" dominant-baseline="text-before-edge" text-anchor="middle" transform="translate(482.36718813578284, 479) rotate(0)">‚Äč‚Äč‚Äč‚Äč‚Äč‚Äč‚Äč‚Äč‚Äč‚Äč‚Äč‚Äč‚Äč‚Äč‚Äč‚Äč‚Äč‚Äč‚Äč‚Äč‚Äč‚Äč‚Äč‚Äč‚Äč‚Äč‚Äč</text><text x="0" y="0" fill="#131300" font-size="14" dominant-baseline="text-before-edge" text-anchor="middle" transform="translate(498.063101548415, 479) rotate(0)">‚Äč‚Äč‚Äč‚Äč‚Äč‚Äč‚Äč‚Äč‚Äč‚Äč‚Äč‚Äč‚Äč‚Äč‚Äč‚Äč‚Äč‚Äč‚Äč‚Äč‚Äč‚Äč‚Äč‚Äč‚Äč‚Äč‚Äč‚Äč</text><text x="0" y="0" fill="#131300" font-size="14" dominant-baseline="text-before-edge" text-anchor="middle" transform="translate(513.7590149610471, 479) rotate(0)">‚Äč‚Äč‚Äč‚Äč‚Äč‚Äč‚Äč‚Äč‚Äč‚Äč‚Äč‚Äč‚Äč‚Äč‚Äč‚Äč‚Äč‚Äč‚Äč‚Äč‚Äč‚Äč‚Äč‚Äč‚Äč‚Äč‚Äč‚Äč‚Äč</text><text x="0" y="0" fill="#131300" font-size="14" dominant-baseline="text-before-edge" text-anchor="middle" transform="translate(529.4549283736792, 479) rotate(0)">‚Äč‚Äč‚Äč‚Äč‚Äč‚Äč‚Äč‚Äč‚Äč‚Äč‚Äč‚Äč‚Äč‚Äč‚Äč‚Äč‚Äč‚Äč‚Äč‚Äč‚Äč‚Äč‚Äč‚Äč‚Äč‚Äč‚Äč‚Äč‚Äč‚Äč</text><text x="0" y="0" fill="#131300" font-size="14" dominant-baseline="text-before-edge" text-anchor="middle" transform="translate(545.1508417863113, 479) rotate(0)">‚Äč‚Äč‚Äč‚Äč‚Äč‚Äč‚Äč‚Äč‚Äč‚Äč‚Äč‚Äč‚Äč‚Äč‚Äč‚Äč‚Äč‚Äč‚Äč‚Äč‚Äč‚Äč‚Äč‚Äč‚Äč‚Äč‚Äč‚Äč‚Äč‚Äč‚Äč</text><text x="0" y="0" fill="#131300" font-size="14" dominant-baseline="text-before-edge" text-anchor="middle" transform="translate(560.8467551989434, 479) rotate(0)">‚Äč‚Äč‚Äč‚Äč‚Äč‚Äč‚Äč‚Äč‚Äč‚Äč‚Äč‚Äč‚Äč‚Äč‚Äč‚Äč‚Äč‚Äč‚Äč‚Äč‚Äč‚Äč‚Äč‚Äč‚Äč‚Äč‚Äč‚Äč‚Äč‚Äč‚Äč‚Äč</text><text x="0" y="0" fill="#131300" font-size="14" dominant-baseline="text-before-edge" text-anchor="middle" transform="translate(576.5426686115754, 479) rotate(0)">3.29</text><text x="0" y="0" fill="#131300" font-size="14" dominant-baseline="text-before-edge" text-anchor="middle" transform="translate(592.2385820242075, 479) rotate(0)">‚Äč‚Äč‚Äč‚Äč‚Äč‚Äč‚Äč‚Äč‚Äč‚Äč‚Äč‚Äč‚Äč‚Äč‚Äč‚Äč‚Äč‚Äč‚Äč‚Äč‚Äč‚Äč‚Äč‚Äč‚Äč‚Äč‚Äč‚Äč‚Äč‚Äč‚Äč‚Äč‚Äč‚Äč</text><text x="0" y="0" fill="#131300" font-size="14" dominant-baseline="text-before-edge" text-anchor="middle" transform="translate(607.9344954368396, 479) rotate(0)">‚Äč‚Äč‚Äč‚Äč‚Äč‚Äč‚Äč‚Äč‚Äč‚Äč‚Äč‚Äč‚Äč‚Äč‚Äč‚Äč‚Äč‚Äč‚Äč‚Äč‚Äč‚Äč‚Äč‚Äč‚Äč‚Äč‚Äč‚Äč‚Äč‚Äč‚Äč‚Äč‚Äč‚Äč‚Äč</text><text x="0" y="0" fill="#131300" font-size="14" dominant-baseline="text-before-edge" text-anchor="middle" transform="translate(623.6304088494717, 479) rotate(0)">4.1</text><text x="0" y="0" fill="#131300" font-size="14" dominant-baseline="text-before-edge" text-anchor="middle" transform="translate(639.3263222621038, 479) rotate(0)">‚Äč‚Äč‚Äč‚Äč‚Äč‚Äč‚Äč‚Äč‚Äč‚Äč‚Äč‚Äč‚Äč‚Äč‚Äč‚Äč‚Äč‚Äč‚Äč‚Äč‚Äč‚Äč‚Äč‚Äč‚Äč‚Äč‚Äč‚Äč‚Äč‚Äč‚Äč‚Äč‚Äč‚Äč‚Äč‚Äč‚Äč</text><text x="0" y="0" fill="#131300" font-size="14" dominant-baseline="text-before-edge" text-anchor="middle" transform="translate(655.0222356747358, 479) rotate(0)">‚Äč‚Äč‚Äč‚Äč‚Äč‚Äč‚Äč‚Äč‚Äč‚Äč‚Äč‚Äč‚Äč‚Äč‚Äč‚Äč‚Äč‚Äč‚Äč‚Äč‚Äč‚Äč‚Äč‚Äč‚Äč‚Äč‚Äč‚Äč‚Äč‚Äč‚Äč‚Äč‚Äč‚Äč‚Äč‚Äč‚Äč‚Äč</text><text x="0" y="0" fill="#131300" font-size="14" dominant-baseline="text-before-edge" text-anchor="middle" transform="translate(670.7181490873679, 479) rotate(0)">‚Äč‚Äč‚Äč‚Äč‚Äč‚Äč‚Äč‚Äč‚Äč‚Äč‚Äč‚Äč‚Äč‚Äč‚Äč‚Äč‚Äč‚Äč‚Äč‚Äč‚Äč‚Äč‚Äč‚Äč‚Äč‚Äč‚Äč‚Äč‚Äč‚Äč‚Äč‚Äč‚Äč‚Äč‚Äč‚Äč‚Äč‚Äč‚Äč</text><text x="0" y="0" fill="#131300" font-size="14" dominant-baseline="text-before-edge" text-anchor="middle" transform="translate(686.4140625, 479) rotate(0)">4.5</text></g><g class="ticks"><path d="M 74.27343940734863,469 L 74.27343940734863,474" fill="none" stroke="#131300" stroke-width="2"/><path d="M 89.96935281998071,469 L 89.96935281998071,474" fill="none" stroke="#131300" stroke-width="2"/><path d="M 105.66526623261281,469 L 105.66526623261281,474" fill="none" stroke="#131300" stroke-width="2"/><path d="M 121.36117964524489,469 L 121.36117964524489,474" fill="none" stroke="#131300" stroke-width="2"/><path d="M 137.05709305787698,469 L 137.05709305787698,474" fill="none" stroke="#131300" stroke-width="2"/><path d="M 152.75300647050906,469 L 152.75300647050906,474" fill="none" stroke="#131300" stroke-width="2"/><path d="M 168.44891988314114,469 L 168.44891988314114,474" fill="none" stroke="#131300" stroke-width="2"/><path d="M 184.14483329577325,469 L 184.14483329577325,474" fill="none" stroke="#131300" stroke-width="2"/><path d="M 199.84074670840533,469 L 199.84074670840533,474" fill="none" stroke="#131300" stroke-width="2"/><path d="M 215.53666012103741,469 L 215.53666012103741,474" fill="none" stroke="#131300" stroke-width="2"/><path d="M 231.2325735336695,469 L 231.2325735336695,474" fill="none" stroke="#131300" stroke-width="2"/><path d="M 246.92848694630158,469 L 246.92848694630158,474" fill="none" stroke="#131300" stroke-width="2"/><path d="M 262.62440035893366,469 L 262.62440035893366,474" fill="none" stroke="#131300" stroke-width="2"/><path d="M 278.32031377156574,469 L 278.32031377156574,474" fill="none" stroke="#131300" stroke-width="2"/><path d="M 294.0162271841979,469 L 294.0162271841979,474" fill="none" stroke="#131300" stroke-width="2"/><path d="M 309.71214059682995,469 L 309.71214059682995,474" fill="none" stroke="#131300" stroke-width="2"/><path d="M 325.40805400946203,469 L 325.40805400946203,474" fill="none" stroke="#131300" stroke-width="2"/><path d="M 341.1039674220941,469 L 341.1039674220941,474" fill="none" stroke="#131300" stroke-width="2"/><path d="M 356.7998808347262,469 L 356.7998808347262,474" fill="none" stroke="#131300" stroke-width="2"/><path d="M 372.4957942473583,469 L 372.4957942473583,474" fill="none" stroke="#131300" stroke-width="2"/><path d="M 388.19170765999036,469 L 388.19170765999036,474" fill="none" stroke="#131300" stroke-width="2"/><path d="M 403.88762107262244,469 L 403.88762107262244,474" fill="none" stroke="#131300" stroke-width="2"/><path d="M 419.5835344852545,469 L 419.5835344852545,474" fill="none" stroke="#131300" stroke-width="2"/><path d="M 435.2794478978866,469 L 435.2794478978866,474" fill="none" stroke="#131300" stroke-width="2"/><path d="M 450.9753613105187,469 L 450.9753613105187,474" fill="none" stroke="#131300" stroke-width="2"/><path d="M 466.67127472315076,469 L 466.67127472315076,474" fill="none" stroke="#131300" stroke-width="2"/><path d="M 482.36718813578284,469 L 482.36718813578284,474" fill="none" stroke="#131300" stroke-width="2"/><path d="M 498.063101548415,469 L 498.063101548415,474" fill="none" stroke="#131300" stroke-width="2"/><path d="M 513.7590149610471,469 L 513.7590149610471,474" fill="none" stroke="#131300" stroke-width="2"/><path d="M 529.4549283736792,469 L 529.4549283736792,474" fill="none" stroke="#131300" stroke-width="2"/><path d="M 545.1508417863113,469 L 545.1508417863113,474" fill="none" stroke="#131300" stroke-width="2"/><path d="M 560.8467551989434,469 L 560.8467551989434,474" fill="none" stroke="#131300" stroke-width="2"/><path d="M 576.5426686115754,469 L 576.5426686115754,474" fill="none" stroke="#131300" stroke-width="2"/><path d="M 592.2385820242075,469 L 592.2385820242075,474" fill="none" stroke="#131300" stroke-width="2"/><path d="M 607.9344954368396,469 L 607.9344954368396,474" fill="none" stroke="#131300" stroke-width="2"/><path d="M 623.6304088494717,469 L 623.6304088494717,474" fill="none" stroke="#131300" stroke-width="2"/><path d="M 639.3263222621038,469 L 639.3263222621038,474" fill="none" stroke="#131300" stroke-width="2"/><path d="M 655.0222356747358,469 L 655.0222356747358,474" fill="none" stroke="#131300" stroke-width="2"/><path d="M 670.7181490873679,469 L 670.7181490873679,474" fill="none" stroke="#131300" stroke-width="2"/><path d="M 686.4140625,469 L 686.4140625,474" fill="none" stroke="#131300" stroke-width="2"/></g></g><g class="left-axis"><g class="axisl-line"><path d="M 59.68750190734863,43.1796875 L 59.68750190734863,467" fill="none" stroke="#131300" stroke-width="2"/></g><g class="label"><text x="0" y="0" fill="#131300" font-size="14" dominant-baseline="middle" text-anchor="end" transform="translate(48.68750190734863, 51.1796875) rotate(0)">20</text><text x="0" y="0" fill="#131300" font-size="14" dominant-baseline="middle" text-anchor="end" transform="translate(48.68750190734863, 91.96171874999999) rotate(0)">18</text><text x="0" y="0" fill="#131300" font-size="14" dominant-baseline="middle" text-anchor="end" transform="translate(48.68750190734863, 132.74374999999998) rotate(0)">16</text><text x="0" y="0" fill="#131300" font-size="14" dominant-baseline="middle" text-anchor="end" transform="translate(48.68750190734863, 173.52578125000002) rotate(0)">14</text><text x="0" y="0" fill="#131300" font-size="14" dominant-baseline="middle" text-anchor="end" transform="translate(48.68750190734863, 214.3078125) rotate(0)">12</text><text x="0" y="0" fill="#131300" font-size="14" dominant-baseline="middle" text-anchor="end" transform="translate(48.68750190734863, 255.08984375) rotate(0)">10</text><text x="0" y="0" fill="#131300" font-size="14" dominant-baseline="middle" text-anchor="end" transform="translate(48.68750190734863, 295.871875) rotate(0)">8</text><text x="0" y="0" fill="#131300" font-size="14" dominant-baseline="middle" text-anchor="end" transform="translate(48.68750190734863, 336.65390625) rotate(0)">6</text><text x="0" y="0" fill="#131300" font-size="14" dominant-baseline="middle" text-anchor="end" transform="translate(48.68750190734863, 377.4359375) rotate(0)">4</text><text x="0" y="0" fill="#131300" font-size="14" dominant-baseline="middle" text-anchor="end" transform="translate(48.68750190734863, 418.21796875) rotate(0)">2</text><text x="0" y="0" fill="#131300" font-size="14" dominant-baseline="middle" text-anchor="end" transform="translate(48.68750190734863, 459) rotate(0)">0</text></g><g class="ticks"><path d="M 58.68750190734863,51.1796875 L 53.68750190734863,51.1796875" fill="none" stroke="#131300" stroke-width="2"/><path d="M 58.68750190734863,91.96171874999999 L 53.68750190734863,91.96171874999999" fill="none" stroke="#131300" stroke-width="2"/><path d="M 58.68750190734863,132.74374999999998 L 53.68750190734863,132.74374999999998" fill="none" stroke="#131300" stroke-width="2"/><path d="M 58.68750190734863,173.52578125000002 L 53.68750190734863,173.52578125000002" fill="none" stroke="#131300" stroke-width="2"/><path d="M 58.68750190734863,214.3078125 L 53.68750190734863,214.3078125" fill="none" stroke="#131300" stroke-width="2"/><path d="M 58.68750190734863,255.08984375 L 53.68750190734863,255.08984375" fill="none" stroke="#131300" stroke-width="2"/><path d="M 58.68750190734863,295.871875 L 53.68750190734863,295.871875" fill="none" stroke="#131300" stroke-width="2"/><path d="M 58.68750190734863,336.65390625 L 53.68750190734863,336.65390625" fill="none" stroke="#131300" stroke-width="2"/><path d="M 58.68750190734863,377.4359375 L 53.68750190734863,377.4359375" fill="none" stroke="#131300" stroke-width="2"/><path d="M 58.68750190734863,418.21796875 L 53.68750190734863,418.21796875" fill="none" stroke="#131300" stroke-width="2"/><path d="M 58.68750190734863,459 L 53.68750190734863,459" fill="none" stroke="#131300" stroke-width="2"/></g><g class="title"><text x="0" y="0" fill="#131300" font-size="16" dominant-baseline="text-before-edge" text-anchor="middle" transform="translate(5, 255.08984375) rotate(270)">New Members</text></g></g></g><g class="mermaid-tmp-group"/></svg>