<svg id="my-svg" width="100%" xmlns="http://www.w3.org/2000/svg" xmlns:xlink="http://www.w3.org/1999/xlink" style="max-width: 700px; background-color: white;" viewBox="0 0 700 500" role="graphics-document document" aria-roledescription="xychart"><style>#my-svg{font-family:"trebuchet ms",verdana,arial,sans-serif;font-size:16px;fill:#333;}@keyframes edge-animation-frame{from{stroke-dashoffset:0;}}@keyframes dash{to{stroke-dashoffset:0;}}#my-svg .edge-animation-slow{stroke-dasharray:9,5!important;stroke-dashoffset:900;animation:dash 50s linear infinite;stroke-linecap:round;}#my-svg .edge-animation-fast{stroke-dasharray:9,5!important;stroke-dashoffset:900;animation:dash 20s linear infinite;stroke-linecap:round;}#my-svg .error-icon{fill:#552222;}#my-svg .error-text{fill:#552222;stroke:#552222;}#my-svg .edge-thickness-normal{stroke-width:1px;}#my-svg .edge-thickness-thick{stroke-width:3.5px;}#my-svg .edge-pattern-solid{stroke-dasharray:0;}#my-svg .edge-thickness-invisible{stroke-width:0;fill:none;}#my-svg .edge-pattern-dashed{stroke-dasharray:3;}#my-svg .edge-pattern-dotted{stroke-dasharray:2;}#my-svg .marker{fill:#333333;stroke:#333333;}#my-svg .marker.cross{stroke:#333333;}#my-svg svg{font-family:"trebuchet ms",verdana,arial,sans-serif;font-size:16px;}#my-svg p{margin:0;}#my-svg :root{--mermaid-font-family:"trebuchet ms",verdana,arial,sans-serif;}</style><g/><g class="main"><rect width="700" height="500" class="background" fill="white"/><g class="chart-title"><text x="0" y="0" fill="#131300" font-size="20" dominant-baseline="middle" text-anchor="middle" transform="translate(350, 21.58984375) rotate(0)">Daily Net Member Change (2026)</text></g><g class="plot"><g class="bar-plot-0"><rect x="61.6314048000004" y="459" width="25.28406921469647" height="8" fill="#ECECFF" stroke="#ECECFF" stroke-width="0"/><rect x="89.4559785769391" y="336.65390625" width="25.28406921469647" height="130.34609375000002" fill="#ECECFF" stroke="#ECECFF" stroke-width="0"/><rect x="117.28055235387781" y="336.65390625" width="25.28406921469647" height="130.34609375000002" fill="#ECECFF" stroke="#ECECFF" stroke-width="0"/><rect x="145.1051261308165" y="377.4359375" width="25.28406921469647" height="89.56406249999998" fill="#ECECFF" stroke="#ECECFF" stroke-width="0"/><rect x="172.9296999077552" y="214.3078125" width="25.28406921469647" height="252.6921875" fill="#ECECFF" stroke="#ECECFF" stroke-width="0"/><rect x="200.7542736846939" y="377.4359375" width="25.28406921469647" height="89.56406249999998" fill="#ECECFF" stroke="#ECECFF" stroke-width="0"/><rect x="228.5788474616326" y="459" width="25.28406921469647" height="8" fill="#ECECFF" stroke="#ECECFF" stroke-width="0"/><rect x="256.40342123857124" y="336.65390625" width="25.28406921469647" height="130.34609375000002" fill="#ECECFF" stroke="#ECECFF" stroke-width="0"/><rect x="284.22799501551" y="418.21796875" width="25.28406921469647" height="48.78203124999999" fill="#ECECFF" stroke="#ECECFF" stroke-width="0"/><rect x="312.0525687924487" y="336.65390625" width="25.28406921469647" height="130.34609375000002" fill="#ECECFF" stroke="#ECECFF" stroke-width="0"/><rect x="339.8771425693874" y="214.3078125" width="25.28406921469647" height="252.6921875" fill="#ECECFF" stroke="#ECECFF" stroke-width="0"/><rect x="367.70171634632607" y="173.52578125000002" width="25.28406921469647" height="293.47421875" fill="#ECECFF" stroke="#ECECFF" stroke-width="0"/><rect x="395.52629012326474" y="132.74374999999998" width="25.28406921469647" height="334.25625" fill="#ECECFF" stroke="#ECECFF" stroke-width="0"/><rect x="423.3508639002035" y="336.65390625" width="25.28406921469647" height="130.34609375000002" fill="#ECECFF" stroke="#ECECFF" stroke-width="0"/><rect x="451.17543767714216" y="336.65390625" width="25.28406921469647" height="130.34609375000002" fill="#ECECFF" stroke="#ECECFF" stroke-width="0"/><rect x="479.0000114540809" y="459" width="25.28406921469647" height="8" fill="#ECECFF" stroke="#ECECFF" stroke-width="0"/><rect x="506.82458523101957" y="459" width="25.28406921469647" height="8" fill="#ECECFF" stroke="#ECECFF" stroke-width="0"/><rect x="534.6491590079582" y="336.65390625" width="25.28406921469647" height="130.34609375000002" fill="#ECECFF" stroke="#ECECFF" stroke-width="0"/><rect x="562.473732784897" y="255.08984375" width="25.28406921469647" height="211.91015625" fill="#ECECFF" stroke="#ECECFF" stroke-width="0"/><rect x="590.2983065618357" y="214.3078125" width="25.28406921469647" height="252.6921875" fill="#ECECFF" stroke="#ECECFF" stroke-width="0"/><rect x="618.1228803387744" y="336.65390625" width="25.28406921469647" height="130.34609375000002" fill="#ECECFF" stroke="#ECECFF" stroke-width="0"/><rect x="645.9474541157131" y="336.65390625" width="25.28406921469647" height="130.34609375000002" fill="#ECECFF" stroke="#ECECFF" stroke-width="0"/><rect x="673.7720278926517" y="336.65390625" width="25.28406921469647" height="130.34609375000002" fill="#ECECFF" stroke="#ECECFF" stroke-width="0"/></g></g><g class="bottom-axis"><g class="axis-line"><path d="M 60.68750190734863,468 L 700,468" fill="none" stroke="#131300" stroke-width="2"/></g><g class="label"><text x="0" y="0" fill="#131300" font-size="14" dominant-baseline="text-before-edge" text-anchor="middle" transform="translate(74.27343940734863, 479) rotate(0)">2.25</text><text x="0" y="0" fill="#131300" font-size="14" dominant-baseline="text-before-edge" text-anchor="middle" transform="translate(102.09801318428734, 479) rotate(0)">26</text><text x="0" y="0" fill="#131300" font-size="14" dominant-baseline="text-before-edge" text-anchor="middle" transform="translate(129.92258696122605, 479) rotate(0)">27</text><text x="0" y="0" fill="#131300" font-size="14" dominant-baseline="text-before-edge" text-anchor="middle" transform="translate(157.74716073816472, 479) rotate(0)">28</text><text x="0" y="0" fill="#131300" font-size="14" dominant-baseline="text-before-edge" text-anchor="middle" transform="translate(185.57173451510343, 479) rotate(0)">3.1</text><text x="0" y="0" fill="#131300" font-size="14" dominant-baseline="text-before-edge" text-anchor="middle" transform="translate(213.39630829204214, 479) rotate(0)">2</text><text x="0" y="0" fill="#131300" font-size="14" dominant-baseline="text-before-edge" text-anchor="middle" transform="translate(241.2208820689808, 479) rotate(0)">3</text><text x="0" y="0" fill="#131300" font-size="14" dominant-baseline="text-before-edge" text-anchor="middle" transform="translate(269.0454558459195, 479) rotate(0)">4</text><text x="0" y="0" fill="#131300" font-size="14" dominant-baseline="text-before-edge" text-anchor="middle" transform="translate(296.8700296228582, 479) rotate(0)">5</text><text x="0" y="0" fill="#131300" font-size="14" dominant-baseline="text-before-edge" text-anchor="middle" transform="translate(324.69460339979696, 479) rotate(0)">6</text><text x="0" y="0" fill="#131300" font-size="14" dominant-baseline="text-before-edge" text-anchor="middle" transform="translate(352.51917717673564, 479) rotate(0)">7</text><text x="0" y="0" fill="#131300" font-size="14" dominant-baseline="text-before-edge" text-anchor="middle" transform="translate(380.3437509536743, 479) rotate(0)">8</text><text x="0" y="0" fill="#131300" font-size="14" dominant-baseline="text-before-edge" text-anchor="middle" transform="translate(408.168324730613, 479) rotate(0)">9</text><text x="0" y="0" fill="#131300" font-size="14" dominant-baseline="text-before-edge" text-anchor="middle" transform="translate(435.99289850755173, 479) rotate(0)">10</text><text x="0" y="0" fill="#131300" font-size="14" dominant-baseline="text-before-edge" text-anchor="middle" transform="translate(463.8174722844904, 479) rotate(0)">11</text><text x="0" y="0" fill="#131300" font-size="14" dominant-baseline="text-before-edge" text-anchor="middle" transform="translate(491.64204606142914, 479) rotate(0)">12</text><text x="0" y="0" fill="#131300" font-size="14" dominant-baseline="text-before-edge" text-anchor="middle" transform="translate(519.4666198383678, 479) rotate(0)">13</text><text x="0" y="0" fill="#131300" font-size="14" dominant-baseline="text-before-edge" text-anchor="middle" transform="translate(547.2911936153065, 479) rotate(0)">14</text><text x="0" y="0" fill="#131300" font-size="14" dominant-baseline="text-before-edge" text-anchor="middle" transform="translate(575.1157673922453, 479) rotate(0)">15</text><text x="0" y="0" fill="#131300" font-size="14" dominant-baseline="text-before-edge" text-anchor="middle" transform="translate(602.940341169184, 479) rotate(0)">16</text><text x="0" y="0" fill="#131300" font-size="14" dominant-baseline="text-before-edge" text-anchor="middle" transform="translate(630.7649149461226, 479) rotate(0)">17</text><text x="0" y="0" fill="#131300" font-size="14" dominant-baseline="text-before-edge" text-anchor="middle" transform="translate(658.5894887230613, 479) rotate(0)">18</text><text x="0" y="0" fill="#131300" font-size="14" dominant-baseline="text-before-edge" text-anchor="middle" transform="translate(686.4140625, 479) rotate(0)">19</text></g><g class="ticks"><path d="M 74.27343940734863,469 L 74.27343940734863,474" fill="none" stroke="#131300" stroke-width="2"/><path d="M 102.09801318428734,469 L 102.09801318428734,474" fill="none" stroke="#131300" stroke-width="2"/><path d="M 129.92258696122605,469 L 129.92258696122605,474" fill="none" stroke="#131300" stroke-width="2"/><path d="M 157.74716073816472,469 L 157.74716073816472,474" fill="none" stroke="#131300" stroke-width="2"/><path d="M 185.57173451510343,469 L 185.57173451510343,474" fill="none" stroke="#131300" stroke-width="2"/><path d="M 213.39630829204214,469 L 213.39630829204214,474" fill="none" stroke="#131300" stroke-width="2"/><path d="M 241.2208820689808,469 L 241.2208820689808,474" fill="none" stroke="#131300" stroke-width="2"/><path d="M 269.0454558459195,469 L 269.0454558459195,474" fill="none" stroke="#131300" stroke-width="2"/><path d="M 296.8700296228582,469 L 296.8700296228582,474" fill="none" stroke="#131300" stroke-width="2"/><path d="M 324.69460339979696,469 L 324.69460339979696,474" fill="none" stroke="#131300" stroke-width="2"/><path d="M 352.51917717673564,469 L 352.51917717673564,474" fill="none" stroke="#131300" stroke-width="2"/><path d="M 380.3437509536743,469 L 380.3437509536743,474" fill="none" stroke="#131300" stroke-width="2"/><path d="M 408.168324730613,469 L 408.168324730613,474" fill="none" stroke="#131300" stroke-width="2"/><path d="M 435.99289850755173,469 L 435.99289850755173,474" fill="none" stroke="#131300" stroke-width="2"/><path d="M 463.8174722844904,469 L 463.8174722844904,474" fill="none" stroke="#131300" stroke-width="2"/><path d="M 491.64204606142914,469 L 491.64204606142914,474" fill="none" stroke="#131300" stroke-width="2"/><path d="M 519.4666198383678,469 L 519.4666198383678,474" fill="none" stroke="#131300" stroke-width="2"/><path d="M 547.2911936153065,469 L 547.2911936153065,474" fill="none" stroke="#131300" stroke-width="2"/><path d="M 575.1157673922453,469 L 575.1157673922453,474" fill="none" stroke="#131300" stroke-width="2"/><path d="M 602.940341169184,469 L 602.940341169184,474" fill="none" stroke="#131300" stroke-width="2"/><path d="M 630.7649149461226,469 L 630.7649149461226,474" fill="none" stroke="#131300" stroke-width="2"/><path d="M 658.5894887230613,469 L 658.5894887230613,474" fill="none" stroke="#131300" stroke-width="2"/><path d="M 686.4140625,469 L 686.4140625,474" fill="none" stroke="#131300" stroke-width="2"/></g></g><g class="left-axis"><g class="axisl-line"><path d="M 59.68750190734863,43.1796875 L 59.68750190734863,467" fill="none" stroke="#131300" stroke-width="2"/></g><g class="label"><text x="0" y="0" fill="#131300" font-size="14" dominant-baseline="middle" text-anchor="end" transform="translate(48.68750190734863, 51.1796875) rotate(0)">10</text><text x="0" y="0" fill="#131300" font-size="14" dominant-baseline="middle" text-anchor="end" transform="translate(48.68750190734863, 91.96171874999999) rotate(0)">9</text><text x="0" y="0" fill="#131300" font-size="14" dominant-baseline="middle" text-anchor="end" transform="translate(48.68750190734863, 132.74374999999998) rotate(0)">8</text><text x="0" y="0" fill="#131300" font-size="14" dominant-baseline="middle" text-anchor="end" transform="translate(48.68750190734863, 173.52578125000002) rotate(0)">7</text><text x="0" y="0" fill="#131300" font-size="14" dominant-baseline="middle" text-anchor="end" transform="translate(48.68750190734863, 214.3078125) rotate(0)">6</text><text x="0" y="0" fill="#131300" font-size="14" dominant-baseline="middle" text-anchor="end" transform="translate(48.68750190734863, 255.08984375) rotate(0)">5</text><text x="0" y="0" fill="#131300" font-size="14" dominant-baseline="middle" text-anchor="end" transform="translate(48.68750190734863, 295.871875) rotate(0)">4</text><text x="0" y="0" fill="#131300" font-size="14" dominant-baseline="middle" text-anchor="end" transform="translate(48.68750190734863, 336.65390625) rotate(0)">3</text><text x="0" y="0" fill="#131300" font-size="14" dominant-baseline="middle" text-anchor="end" transform="translate(48.68750190734863, 377.4359375) rotate(0)">2</text><text x="0" y="0" fill="#131300" font-size="14" dominant-baseline="middle" text-anchor="end" transform="translate(48.68750190734863, 418.21796875) rotate(0)">1</text><text x="0" y="0" fill="#131300" font-size="14" dominant-baseline="middle" text-anchor="end" transform="translate(48.68750190734863, 459) rotate(0)">0</text></g><g class="ticks"><path d="M 58.68750190734863,51.1796875 L 53.68750190734863,51.1796875" fill="none" stroke="#131300" stroke-width="2"/><path d="M 58.68750190734863,91.96171874999999 L 53.68750190734863,91.96171874999999" fill="none" stroke="#131300" stroke-width="2"/><path d="M 58.68750190734863,132.74374999999998 L 53.68750190734863,132.74374999999998" fill="none" stroke="#131300" stroke-width="2"/><path d="M 58.68750190734863,173.52578125000002 L 53.68750190734863,173.52578125000002" fill="none" stroke="#131300" stroke-width="2"/><path d="M 58.68750190734863,214.3078125 L 53.68750190734863,214.3078125" fill="none" stroke="#131300" stroke-width="2"/><path d="M 58.68750190734863,255.08984375 L 53.68750190734863,255.08984375" fill="none" stroke="#131300" stroke-width="2"/><path d="M 58.68750190734863,295.871875 L 53.68750190734863,295.871875" fill="none" stroke="#131300" stroke-width="2"/><path d="M 58.68750190734863,336.65390625 L 53.68750190734863,336.65390625" fill="none" stroke="#131300" stroke-width="2"/><path d="M 58.68750190734863,377.4359375 L 53.68750190734863,377.4359375" fill="none" stroke="#131300" stroke-width="2"/><path d="M 58.68750190734863,418.21796875 L 53.68750190734863,418.21796875" fill="none" stroke="#131300" stroke-width="2"/><path d="M 58.68750190734863,459 L 53.68750190734863,459" fill="none" stroke="#131300" stroke-width="2"/></g><g class="title"><text x="0" y="0" fill="#131300" font-size="16" dominant-baseline="text-before-edge" text-anchor="middle" transform="translate(5, 255.08984375) rotate(270)">New Members</text></g></g></g><g class="mermaid-tmp-group"/></svg>