<svg id="my-svg" width="100%" xmlns="http://www.w3.org/2000/svg" xmlns:xlink="http://www.w3.org/1999/xlink" style="max-width: 700px; background-color: white;" viewBox="0 0 700 500" role="graphics-document document" aria-roledescription="xychart"><style>#my-svg{font-family:"trebuchet ms",verdana,arial,sans-serif;font-size:16px;fill:#333;}@keyframes edge-animation-frame{from{stroke-dashoffset:0;}}@keyframes dash{to{stroke-dashoffset:0;}}#my-svg .edge-animation-slow{stroke-dasharray:9,5!important;stroke-dashoffset:900;animation:dash 50s linear infinite;stroke-linecap:round;}#my-svg .edge-animation-fast{stroke-dasharray:9,5!important;stroke-dashoffset:900;animation:dash 20s linear infinite;stroke-linecap:round;}#my-svg .error-icon{fill:#552222;}#my-svg .error-text{fill:#552222;stroke:#552222;}#my-svg .edge-thickness-normal{stroke-width:1px;}#my-svg .edge-thickness-thick{stroke-width:3.5px;}#my-svg .edge-pattern-solid{stroke-dasharray:0;}#my-svg .edge-thickness-invisible{stroke-width:0;fill:none;}#my-svg .edge-pattern-dashed{stroke-dasharray:3;}#my-svg .edge-pattern-dotted{stroke-dasharray:2;}#my-svg .marker{fill:#333333;stroke:#333333;}#my-svg .marker.cross{stroke:#333333;}#my-svg svg{font-family:"trebuchet ms",verdana,arial,sans-serif;font-size:16px;}#my-svg p{margin:0;}#my-svg :root{--mermaid-font-family:"trebuchet ms",verdana,arial,sans-serif;}</style><g/><g class="main"><rect width="700" height="500" class="background" fill="white"/><g class="chart-title"><text x="0" y="0" fill="#131300" font-size="20" dominant-baseline="middle" text-anchor="middle" transform="translate(350, 21.58984375) rotate(0)">Daily Net Member Change (2026)</text></g><g class="plot"><g class="bar-plot-0"><rect x="66.8178805363484" y="459" width="14.911117742000481" height="8" fill="#ECECFF" stroke="#ECECFF" stroke-width="0"/><rect x="85.94727500799375" y="397.826953125" width="14.911117742000481" height="69.17304687500001" fill="#ECECFF" stroke="#ECECFF" stroke-width="0"/><rect x="105.07666947963911" y="397.826953125" width="14.911117742000481" height="69.17304687500001" fill="#ECECFF" stroke="#ECECFF" stroke-width="0"/><rect x="124.20606395128446" y="418.21796875" width="14.911117742000481" height="48.78203124999999" fill="#ECECFF" stroke="#ECECFF" stroke-width="0"/><rect x="143.3354584229298" y="336.65390625" width="14.911117742000481" height="130.34609375000002" fill="#ECECFF" stroke="#ECECFF" stroke-width="0"/><rect x="162.46485289457516" y="418.21796875" width="14.911117742000481" height="48.78203124999999" fill="#ECECFF" stroke="#ECECFF" stroke-width="0"/><rect x="181.59424736622051" y="459" width="14.911117742000481" height="8" fill="#ECECFF" stroke="#ECECFF" stroke-width="0"/><rect x="200.72364183786587" y="397.826953125" width="14.911117742000481" height="69.17304687500001" fill="#ECECFF" stroke="#ECECFF" stroke-width="0"/><rect x="219.85303630951122" y="438.608984375" width="14.911117742000481" height="28.391015625000023" fill="#ECECFF" stroke="#ECECFF" stroke-width="0"/><rect x="238.98243078115658" y="397.826953125" width="14.911117742000481" height="69.17304687500001" fill="#ECECFF" stroke="#ECECFF" stroke-width="0"/><rect x="258.11182525280196" y="336.65390625" width="14.911117742000481" height="130.34609375000002" fill="#ECECFF" stroke="#ECECFF" stroke-width="0"/><rect x="277.2412197244473" y="316.262890625" width="14.911117742000481" height="150.737109375" fill="#ECECFF" stroke="#ECECFF" stroke-width="0"/><rect x="296.3706141960927" y="295.871875" width="14.911117742000481" height="171.128125" fill="#ECECFF" stroke="#ECECFF" stroke-width="0"/><rect x="315.50000866773803" y="397.826953125" width="14.911117742000481" height="69.17304687500001" fill="#ECECFF" stroke="#ECECFF" stroke-width="0"/><rect x="334.6294031393834" y="397.826953125" width="14.911117742000481" height="69.17304687500001" fill="#ECECFF" stroke="#ECECFF" stroke-width="0"/><rect x="353.75879761102874" y="459" width="14.911117742000481" height="8" fill="#ECECFF" stroke="#ECECFF" stroke-width="0"/><rect x="372.8881920826741" y="459" width="14.911117742000481" height="8" fill="#ECECFF" stroke="#ECECFF" stroke-width="0"/><rect x="392.01758655431945" y="397.826953125" width="14.911117742000481" height="69.17304687500001" fill="#ECECFF" stroke="#ECECFF" stroke-width="0"/><rect x="411.1469810259648" y="357.044921875" width="14.911117742000481" height="109.955078125" fill="#ECECFF" stroke="#ECECFF" stroke-width="0"/><rect x="430.27637549761016" y="336.65390625" width="14.911117742000481" height="130.34609375000002" fill="#ECECFF" stroke="#ECECFF" stroke-width="0"/><rect x="449.4057699692555" y="397.826953125" width="14.911117742000481" height="69.17304687500001" fill="#ECECFF" stroke="#ECECFF" stroke-width="0"/><rect x="468.53516444090087" y="397.826953125" width="14.911117742000481" height="69.17304687500001" fill="#ECECFF" stroke="#ECECFF" stroke-width="0"/><rect x="487.6645589125462" y="397.826953125" width="14.911117742000481" height="69.17304687500001" fill="#ECECFF" stroke="#ECECFF" stroke-width="0"/><rect x="506.7939533841916" y="459" width="14.911117742000481" height="8" fill="#ECECFF" stroke="#ECECFF" stroke-width="0"/><rect x="525.9233478558369" y="377.4359375" width="14.911117742000481" height="89.56406249999998" fill="#ECECFF" stroke="#ECECFF" stroke-width="0"/><rect x="545.0527423274823" y="418.21796875" width="14.911117742000481" height="48.78203124999999" fill="#ECECFF" stroke="#ECECFF" stroke-width="0"/><rect x="564.1821367991276" y="459" width="14.911117742000481" height="8" fill="#ECECFF" stroke="#ECECFF" stroke-width="0"/><rect x="583.311531270773" y="459" width="14.911117742000481" height="8" fill="#ECECFF" stroke="#ECECFF" stroke-width="0"/><rect x="602.4409257424184" y="459" width="14.911117742000481" height="8" fill="#ECECFF" stroke="#ECECFF" stroke-width="0"/><rect x="85.94727500799375" y="459" width="14.911117742000481" height="8" fill="#ECECFF" stroke="#ECECFF" stroke-width="0"/><rect x="105.07666947963911" y="459" width="14.911117742000481" height="8" fill="#ECECFF" stroke="#ECECFF" stroke-width="0"/><rect x="124.20606395128446" y="459" width="14.911117742000481" height="8" fill="#ECECFF" stroke="#ECECFF" stroke-width="0"/><rect x="621.5703202140637" y="459" width="14.911117742000481" height="8" fill="#ECECFF" stroke="#ECECFF" stroke-width="0"/><rect x="640.6997146857091" y="459" width="14.911117742000481" height="8" fill="#ECECFF" stroke="#ECECFF" stroke-width="0"/><rect x="659.8291091573544" y="438.608984375" width="14.911117742000481" height="28.391015625000023" fill="#ECECFF" stroke="#ECECFF" stroke-width="0"/><rect x="678.9585036289998" y="438.608984375" width="14.911117742000481" height="28.391015625000023" fill="#ECECFF" stroke="#ECECFF" stroke-width="0"/><rect x="162.46485289457516" y="418.21796875" width="14.911117742000481" height="48.78203124999999" fill="#ECECFF" stroke="#ECECFF" stroke-width="0"/><rect x="181.59424736622051" y="112.35273437500001" width="14.911117742000481" height="354.647265625" fill="#ECECFF" stroke="#ECECFF" stroke-width="0"/><rect x="200.72364183786587" y="459" width="14.911117742000481" height="8" fill="#ECECFF" stroke="#ECECFF" stroke-width="0"/></g></g><g class="bottom-axis"><g class="axis-line"><path d="M 60.68750190734863,468 L 700,468" fill="none" stroke="#131300" stroke-width="2"/></g><g class="label"><text x="0" y="0" fill="#131300" font-size="14" dominant-baseline="text-before-edge" text-anchor="middle" transform="translate(74.27343940734863, 479) rotate(0)">2.25</text><text x="0" y="0" fill="#131300" font-size="14" dominant-baseline="text-before-edge" text-anchor="middle" transform="translate(93.40283387899399, 479) rotate(0)">26</text><text x="0" y="0" fill="#131300" font-size="14" dominant-baseline="text-before-edge" text-anchor="middle" transform="translate(112.53222835063934, 479) rotate(0)">27</text><text x="0" y="0" fill="#131300" font-size="14" dominant-baseline="text-before-edge" text-anchor="middle" transform="translate(131.6616228222847, 479) rotate(0)">28</text><text x="0" y="0" fill="#131300" font-size="14" dominant-baseline="text-before-edge" text-anchor="middle" transform="translate(150.79101729393005, 479) rotate(0)">3.1</text><text x="0" y="0" fill="#131300" font-size="14" dominant-baseline="text-before-edge" text-anchor="middle" transform="translate(169.9204117655754, 479) rotate(0)">2</text><text x="0" y="0" fill="#131300" font-size="14" dominant-baseline="text-before-edge" text-anchor="middle" transform="translate(189.04980623722076, 479) rotate(0)">3</text><text x="0" y="0" fill="#131300" font-size="14" dominant-baseline="text-before-edge" text-anchor="middle" transform="translate(208.17920070886612, 479) rotate(0)">4</text><text x="0" y="0" fill="#131300" font-size="14" dominant-baseline="text-before-edge" text-anchor="middle" transform="translate(227.30859518051147, 479) rotate(0)">5</text><text x="0" y="0" fill="#131300" font-size="14" dominant-baseline="text-before-edge" text-anchor="middle" transform="translate(246.43798965215683, 479) rotate(0)">6</text><text x="0" y="0" fill="#131300" font-size="14" dominant-baseline="text-before-edge" text-anchor="middle" transform="translate(265.5673841238022, 479) rotate(0)">7</text><text x="0" y="0" fill="#131300" font-size="14" dominant-baseline="text-before-edge" text-anchor="middle" transform="translate(284.69677859544754, 479) rotate(0)">8</text><text x="0" y="0" fill="#131300" font-size="14" dominant-baseline="text-before-edge" text-anchor="middle" transform="translate(303.8261730670929, 479) rotate(0)">9</text><text x="0" y="0" fill="#131300" font-size="14" dominant-baseline="text-before-edge" text-anchor="middle" transform="translate(322.95556753873825, 479) rotate(0)">10</text><text x="0" y="0" fill="#131300" font-size="14" dominant-baseline="text-before-edge" text-anchor="middle" transform="translate(342.0849620103836, 479) rotate(0)">11</text><text x="0" y="0" fill="#131300" font-size="14" dominant-baseline="text-before-edge" text-anchor="middle" transform="translate(361.21435648202896, 479) rotate(0)">12</text><text x="0" y="0" fill="#131300" font-size="14" dominant-baseline="text-before-edge" text-anchor="middle" transform="translate(380.3437509536743, 479) rotate(0)">13</text><text x="0" y="0" fill="#131300" font-size="14" dominant-baseline="text-before-edge" text-anchor="middle" transform="translate(399.4731454253197, 479) rotate(0)">14</text><text x="0" y="0" fill="#131300" font-size="14" dominant-baseline="text-before-edge" text-anchor="middle" transform="translate(418.602539896965, 479) rotate(0)">15</text><text x="0" y="0" fill="#131300" font-size="14" dominant-baseline="text-before-edge" text-anchor="middle" transform="translate(437.7319343686104, 479) rotate(0)">16</text><text x="0" y="0" fill="#131300" font-size="14" dominant-baseline="text-before-edge" text-anchor="middle" transform="translate(456.86132884025574, 479) rotate(0)">17</text><text x="0" y="0" fill="#131300" font-size="14" dominant-baseline="text-before-edge" text-anchor="middle" transform="translate(475.9907233119011, 479) rotate(0)">18</text><text x="0" y="0" fill="#131300" font-size="14" dominant-baseline="text-before-edge" text-anchor="middle" transform="translate(495.12011778354645, 479) rotate(0)">19</text><text x="0" y="0" fill="#131300" font-size="14" dominant-baseline="text-before-edge" text-anchor="middle" transform="translate(514.2495122551918, 479) rotate(0)">20</text><text x="0" y="0" fill="#131300" font-size="14" dominant-baseline="text-before-edge" text-anchor="middle" transform="translate(533.3789067268372, 479) rotate(0)">21</text><text x="0" y="0" fill="#131300" font-size="14" dominant-baseline="text-before-edge" text-anchor="middle" transform="translate(552.5083011984825, 479) rotate(0)">22</text><text x="0" y="0" fill="#131300" font-size="14" dominant-baseline="text-before-edge" text-anchor="middle" transform="translate(571.6376956701279, 479) rotate(0)">23</text><text x="0" y="0" fill="#131300" font-size="14" dominant-baseline="text-before-edge" text-anchor="middle" transform="translate(590.7670901417732, 479) rotate(0)">24</text><text x="0" y="0" fill="#131300" font-size="14" dominant-baseline="text-before-edge" text-anchor="middle" transform="translate(609.8964846134186, 479) rotate(0)">25</text><text x="0" y="0" fill="#131300" font-size="14" dominant-baseline="text-before-edge" text-anchor="middle" transform="translate(93.40283387899399, 479) rotate(0)">26</text><text x="0" y="0" fill="#131300" font-size="14" dominant-baseline="text-before-edge" text-anchor="middle" transform="translate(112.53222835063934, 479) rotate(0)">27</text><text x="0" y="0" fill="#131300" font-size="14" dominant-baseline="text-before-edge" text-anchor="middle" transform="translate(131.6616228222847, 479) rotate(0)">28</text><text x="0" y="0" fill="#131300" font-size="14" dominant-baseline="text-before-edge" text-anchor="middle" transform="translate(629.0258790850639, 479) rotate(0)">29</text><text x="0" y="0" fill="#131300" font-size="14" dominant-baseline="text-before-edge" text-anchor="middle" transform="translate(648.1552735567093, 479) rotate(0)">30</text><text x="0" y="0" fill="#131300" font-size="14" dominant-baseline="text-before-edge" text-anchor="middle" transform="translate(667.2846680283546, 479) rotate(0)">31</text><text x="0" y="0" fill="#131300" font-size="14" dominant-baseline="text-before-edge" text-anchor="middle" transform="translate(686.4140625, 479) rotate(0)">4.1</text><text x="0" y="0" fill="#131300" font-size="14" dominant-baseline="text-before-edge" text-anchor="middle" transform="translate(169.9204117655754, 479) rotate(0)">2</text><text x="0" y="0" fill="#131300" font-size="14" dominant-baseline="text-before-edge" text-anchor="middle" transform="translate(189.04980623722076, 479) rotate(0)">3</text><text x="0" y="0" fill="#131300" font-size="14" dominant-baseline="text-before-edge" text-anchor="middle" transform="translate(208.17920070886612, 479) rotate(0)">4</text></g><g class="ticks"><path d="M 74.27343940734863,469 L 74.27343940734863,474" fill="none" stroke="#131300" stroke-width="2"/><path d="M 93.40283387899399,469 L 93.40283387899399,474" fill="none" stroke="#131300" stroke-width="2"/><path d="M 112.53222835063934,469 L 112.53222835063934,474" fill="none" stroke="#131300" stroke-width="2"/><path d="M 131.6616228222847,469 L 131.6616228222847,474" fill="none" stroke="#131300" stroke-width="2"/><path d="M 150.79101729393005,469 L 150.79101729393005,474" fill="none" stroke="#131300" stroke-width="2"/><path d="M 169.9204117655754,469 L 169.9204117655754,474" fill="none" stroke="#131300" stroke-width="2"/><path d="M 189.04980623722076,469 L 189.04980623722076,474" fill="none" stroke="#131300" stroke-width="2"/><path d="M 208.17920070886612,469 L 208.17920070886612,474" fill="none" stroke="#131300" stroke-width="2"/><path d="M 227.30859518051147,469 L 227.30859518051147,474" fill="none" stroke="#131300" stroke-width="2"/><path d="M 246.43798965215683,469 L 246.43798965215683,474" fill="none" stroke="#131300" stroke-width="2"/><path d="M 265.5673841238022,469 L 265.5673841238022,474" fill="none" stroke="#131300" stroke-width="2"/><path d="M 284.69677859544754,469 L 284.69677859544754,474" fill="none" stroke="#131300" stroke-width="2"/><path d="M 303.8261730670929,469 L 303.8261730670929,474" fill="none" stroke="#131300" stroke-width="2"/><path d="M 322.95556753873825,469 L 322.95556753873825,474" fill="none" stroke="#131300" stroke-width="2"/><path d="M 342.0849620103836,469 L 342.0849620103836,474" fill="none" stroke="#131300" stroke-width="2"/><path d="M 361.21435648202896,469 L 361.21435648202896,474" fill="none" stroke="#131300" stroke-width="2"/><path d="M 380.3437509536743,469 L 380.3437509536743,474" fill="none" stroke="#131300" stroke-width="2"/><path d="M 399.4731454253197,469 L 399.4731454253197,474" fill="none" stroke="#131300" stroke-width="2"/><path d="M 418.602539896965,469 L 418.602539896965,474" fill="none" stroke="#131300" stroke-width="2"/><path d="M 437.7319343686104,469 L 437.7319343686104,474" fill="none" stroke="#131300" stroke-width="2"/><path d="M 456.86132884025574,469 L 456.86132884025574,474" fill="none" stroke="#131300" stroke-width="2"/><path d="M 475.9907233119011,469 L 475.9907233119011,474" fill="none" stroke="#131300" stroke-width="2"/><path d="M 495.12011778354645,469 L 495.12011778354645,474" fill="none" stroke="#131300" stroke-width="2"/><path d="M 514.2495122551918,469 L 514.2495122551918,474" fill="none" stroke="#131300" stroke-width="2"/><path d="M 533.3789067268372,469 L 533.3789067268372,474" fill="none" stroke="#131300" stroke-width="2"/><path d="M 552.5083011984825,469 L 552.5083011984825,474" fill="none" stroke="#131300" stroke-width="2"/><path d="M 571.6376956701279,469 L 571.6376956701279,474" fill="none" stroke="#131300" stroke-width="2"/><path d="M 590.7670901417732,469 L 590.7670901417732,474" fill="none" stroke="#131300" stroke-width="2"/><path d="M 609.8964846134186,469 L 609.8964846134186,474" fill="none" stroke="#131300" stroke-width="2"/><path d="M 93.40283387899399,469 L 93.40283387899399,474" fill="none" stroke="#131300" stroke-width="2"/><path d="M 112.53222835063934,469 L 112.53222835063934,474" fill="none" stroke="#131300" stroke-width="2"/><path d="M 131.6616228222847,469 L 131.6616228222847,474" fill="none" stroke="#131300" stroke-width="2"/><path d="M 629.0258790850639,469 L 629.0258790850639,474" fill="none" stroke="#131300" stroke-width="2"/><path d="M 648.1552735567093,469 L 648.1552735567093,474" fill="none" stroke="#131300" stroke-width="2"/><path d="M 667.2846680283546,469 L 667.2846680283546,474" fill="none" stroke="#131300" stroke-width="2"/><path d="M 686.4140625,469 L 686.4140625,474" fill="none" stroke="#131300" stroke-width="2"/><path d="M 169.9204117655754,469 L 169.9204117655754,474" fill="none" stroke="#131300" stroke-width="2"/><path d="M 189.04980623722076,469 L 189.04980623722076,474" fill="none" stroke="#131300" stroke-width="2"/><path d="M 208.17920070886612,469 L 208.17920070886612,474" fill="none" stroke="#131300" stroke-width="2"/></g></g><g class="left-axis"><g class="axisl-line"><path d="M 59.68750190734863,43.1796875 L 59.68750190734863,467" fill="none" stroke="#131300" stroke-width="2"/></g><g class="label"><text x="0" y="0" fill="#131300" font-size="14" dominant-baseline="middle" text-anchor="end" transform="translate(48.68750190734863, 51.1796875) rotate(0)">20</text><text x="0" y="0" fill="#131300" font-size="14" dominant-baseline="middle" text-anchor="end" transform="translate(48.68750190734863, 91.96171874999999) rotate(0)">18</text><text x="0" y="0" fill="#131300" font-size="14" dominant-baseline="middle" text-anchor="end" transform="translate(48.68750190734863, 132.74374999999998) rotate(0)">16</text><text x="0" y="0" fill="#131300" font-size="14" dominant-baseline="middle" text-anchor="end" transform="translate(48.68750190734863, 173.52578125000002) rotate(0)">14</text><text x="0" y="0" fill="#131300" font-size="14" dominant-baseline="middle" text-anchor="end" transform="translate(48.68750190734863, 214.3078125) rotate(0)">12</text><text x="0" y="0" fill="#131300" font-size="14" dominant-baseline="middle" text-anchor="end" transform="translate(48.68750190734863, 255.08984375) rotate(0)">10</text><text x="0" y="0" fill="#131300" font-size="14" dominant-baseline="middle" text-anchor="end" transform="translate(48.68750190734863, 295.871875) rotate(0)">8</text><text x="0" y="0" fill="#131300" font-size="14" dominant-baseline="middle" text-anchor="end" transform="translate(48.68750190734863, 336.65390625) rotate(0)">6</text><text x="0" y="0" fill="#131300" font-size="14" dominant-baseline="middle" text-anchor="end" transform="translate(48.68750190734863, 377.4359375) rotate(0)">4</text><text x="0" y="0" fill="#131300" font-size="14" dominant-baseline="middle" text-anchor="end" transform="translate(48.68750190734863, 418.21796875) rotate(0)">2</text><text x="0" y="0" fill="#131300" font-size="14" dominant-baseline="middle" text-anchor="end" transform="translate(48.68750190734863, 459) rotate(0)">0</text></g><g class="ticks"><path d="M 58.68750190734863,51.1796875 L 53.68750190734863,51.1796875" fill="none" stroke="#131300" stroke-width="2"/><path d="M 58.68750190734863,91.96171874999999 L 53.68750190734863,91.96171874999999" fill="none" stroke="#131300" stroke-width="2"/><path d="M 58.68750190734863,132.74374999999998 L 53.68750190734863,132.74374999999998" fill="none" stroke="#131300" stroke-width="2"/><path d="M 58.68750190734863,173.52578125000002 L 53.68750190734863,173.52578125000002" fill="none" stroke="#131300" stroke-width="2"/><path d="M 58.68750190734863,214.3078125 L 53.68750190734863,214.3078125" fill="none" stroke="#131300" stroke-width="2"/><path d="M 58.68750190734863,255.08984375 L 53.68750190734863,255.08984375" fill="none" stroke="#131300" stroke-width="2"/><path d="M 58.68750190734863,295.871875 L 53.68750190734863,295.871875" fill="none" stroke="#131300" stroke-width="2"/><path d="M 58.68750190734863,336.65390625 L 53.68750190734863,336.65390625" fill="none" stroke="#131300" stroke-width="2"/><path d="M 58.68750190734863,377.4359375 L 53.68750190734863,377.4359375" fill="none" stroke="#131300" stroke-width="2"/><path d="M 58.68750190734863,418.21796875 L 53.68750190734863,418.21796875" fill="none" stroke="#131300" stroke-width="2"/><path d="M 58.68750190734863,459 L 53.68750190734863,459" fill="none" stroke="#131300" stroke-width="2"/></g><g class="title"><text x="0" y="0" fill="#131300" font-size="16" dominant-baseline="text-before-edge" text-anchor="middle" transform="translate(5, 255.08984375) rotate(270)">New Members</text></g></g></g><g class="mermaid-tmp-group"/></svg>