<svg id="my-svg" width="100%" xmlns="http://www.w3.org/2000/svg" xmlns:xlink="http://www.w3.org/1999/xlink" style="max-width: 700px; background-color: white;" viewBox="0 0 700 500" role="graphics-document document" aria-roledescription="xychart"><style>#my-svg{font-family:"trebuchet ms",verdana,arial,sans-serif;font-size:16px;fill:#333;}@keyframes edge-animation-frame{from{stroke-dashoffset:0;}}@keyframes dash{to{stroke-dashoffset:0;}}#my-svg .edge-animation-slow{stroke-dasharray:9,5!important;stroke-dashoffset:900;animation:dash 50s linear infinite;stroke-linecap:round;}#my-svg .edge-animation-fast{stroke-dasharray:9,5!important;stroke-dashoffset:900;animation:dash 20s linear infinite;stroke-linecap:round;}#my-svg .error-icon{fill:#552222;}#my-svg .error-text{fill:#552222;stroke:#552222;}#my-svg .edge-thickness-normal{stroke-width:1px;}#my-svg .edge-thickness-thick{stroke-width:3.5px;}#my-svg .edge-pattern-solid{stroke-dasharray:0;}#my-svg .edge-thickness-invisible{stroke-width:0;fill:none;}#my-svg .edge-pattern-dashed{stroke-dasharray:3;}#my-svg .edge-pattern-dotted{stroke-dasharray:2;}#my-svg .marker{fill:#333333;stroke:#333333;}#my-svg .marker.cross{stroke:#333333;}#my-svg svg{font-family:"trebuchet ms",verdana,arial,sans-serif;font-size:16px;}#my-svg p{margin:0;}#my-svg :root{--mermaid-font-family:"trebuchet ms",verdana,arial,sans-serif;}</style><g/><g class="main"><rect width="700" height="500" class="background" fill="white"/><g class="chart-title"><text x="0" y="0" fill="#131300" font-size="20" dominant-baseline="middle" text-anchor="middle" transform="translate(350, 21.58984375) rotate(0)">Daily Net Member Change (2026)</text></g><g class="plot"><g class="bar-plot-0"><rect x="61.36679878234863" y="459" width="25.81328125" height="8" fill="#ECECFF" stroke="#ECECFF" stroke-width="0"/><rect x="93.58472631354081" y="336.65390625" width="25.81328125" height="130.34609375000002" fill="#ECECFF" stroke="#ECECFF" stroke-width="0"/><rect x="125.80265384473299" y="336.65390625" width="25.81328125" height="130.34609375000002" fill="#ECECFF" stroke="#ECECFF" stroke-width="0"/><rect x="158.02058137592516" y="377.4359375" width="25.81328125" height="89.56406249999998" fill="#ECECFF" stroke="#ECECFF" stroke-width="0"/><rect x="190.23850890711734" y="214.3078125" width="25.81328125" height="252.6921875" fill="#ECECFF" stroke="#ECECFF" stroke-width="0"/><rect x="222.4564364383095" y="377.4359375" width="25.81328125" height="89.56406249999998" fill="#ECECFF" stroke="#ECECFF" stroke-width="0"/><rect x="254.67436396950168" y="459" width="25.81328125" height="8" fill="#ECECFF" stroke="#ECECFF" stroke-width="0"/><rect x="286.89229150069383" y="336.65390625" width="25.81328125" height="130.34609375000002" fill="#ECECFF" stroke="#ECECFF" stroke-width="0"/><rect x="319.110219031886" y="418.21796875" width="25.81328125" height="48.78203124999999" fill="#ECECFF" stroke="#ECECFF" stroke-width="0"/><rect x="351.3281465630782" y="336.65390625" width="25.81328125" height="130.34609375000002" fill="#ECECFF" stroke="#ECECFF" stroke-width="0"/><rect x="383.54607409427035" y="214.3078125" width="25.81328125" height="252.6921875" fill="#ECECFF" stroke="#ECECFF" stroke-width="0"/><rect x="415.7640016254625" y="173.52578125000002" width="25.81328125" height="293.47421875" fill="#ECECFF" stroke="#ECECFF" stroke-width="0"/><rect x="447.9819291566547" y="132.74374999999998" width="25.81328125" height="334.25625" fill="#ECECFF" stroke="#ECECFF" stroke-width="0"/><rect x="480.1998566878469" y="336.65390625" width="25.81328125" height="130.34609375000002" fill="#ECECFF" stroke="#ECECFF" stroke-width="0"/><rect x="512.417784219039" y="336.65390625" width="25.81328125" height="130.34609375000002" fill="#ECECFF" stroke="#ECECFF" stroke-width="0"/><rect x="544.6357117502313" y="459" width="25.81328125" height="8" fill="#ECECFF" stroke="#ECECFF" stroke-width="0"/><rect x="576.8536392814234" y="459" width="25.81328125" height="8" fill="#ECECFF" stroke="#ECECFF" stroke-width="0"/><rect x="609.0715668126155" y="336.65390625" width="25.81328125" height="130.34609375000002" fill="#ECECFF" stroke="#ECECFF" stroke-width="0"/><rect x="641.2894943438077" y="255.08984375" width="25.81328125" height="211.91015625" fill="#ECECFF" stroke="#ECECFF" stroke-width="0"/><rect x="673.507421875" y="377.4359375" width="25.81328125" height="89.56406249999998" fill="#ECECFF" stroke="#ECECFF" stroke-width="0"/></g></g><g class="bottom-axis"><g class="axis-line"><path d="M 60.68750190734863,468 L 700,468" fill="none" stroke="#131300" stroke-width="2"/></g><g class="label"><text x="0" y="0" fill="#131300" font-size="14" dominant-baseline="text-before-edge" text-anchor="middle" transform="translate(74.27343940734863, 479) rotate(0)">2.25</text><text x="0" y="0" fill="#131300" font-size="14" dominant-baseline="text-before-edge" text-anchor="middle" transform="translate(106.4913669385408, 479) rotate(0)">26</text><text x="0" y="0" fill="#131300" font-size="14" dominant-baseline="text-before-edge" text-anchor="middle" transform="translate(138.70929446973298, 479) rotate(0)">27</text><text x="0" y="0" fill="#131300" font-size="14" dominant-baseline="text-before-edge" text-anchor="middle" transform="translate(170.92722200092516, 479) rotate(0)">28</text><text x="0" y="0" fill="#131300" font-size="14" dominant-baseline="text-before-edge" text-anchor="middle" transform="translate(203.14514953211733, 479) rotate(0)">3.1</text><text x="0" y="0" fill="#131300" font-size="14" dominant-baseline="text-before-edge" text-anchor="middle" transform="translate(235.3630770633095, 479) rotate(0)">2</text><text x="0" y="0" fill="#131300" font-size="14" dominant-baseline="text-before-edge" text-anchor="middle" transform="translate(267.5810045945017, 479) rotate(0)">3</text><text x="0" y="0" fill="#131300" font-size="14" dominant-baseline="text-before-edge" text-anchor="middle" transform="translate(299.79893212569385, 479) rotate(0)">4</text><text x="0" y="0" fill="#131300" font-size="14" dominant-baseline="text-before-edge" text-anchor="middle" transform="translate(332.016859656886, 479) rotate(0)">5</text><text x="0" y="0" fill="#131300" font-size="14" dominant-baseline="text-before-edge" text-anchor="middle" transform="translate(364.2347871880782, 479) rotate(0)">6</text><text x="0" y="0" fill="#131300" font-size="14" dominant-baseline="text-before-edge" text-anchor="middle" transform="translate(396.4527147192704, 479) rotate(0)">7</text><text x="0" y="0" fill="#131300" font-size="14" dominant-baseline="text-before-edge" text-anchor="middle" transform="translate(428.67064225046255, 479) rotate(0)">8</text><text x="0" y="0" fill="#131300" font-size="14" dominant-baseline="text-before-edge" text-anchor="middle" transform="translate(460.8885697816547, 479) rotate(0)">9</text><text x="0" y="0" fill="#131300" font-size="14" dominant-baseline="text-before-edge" text-anchor="middle" transform="translate(493.1064973128469, 479) rotate(0)">10</text><text x="0" y="0" fill="#131300" font-size="14" dominant-baseline="text-before-edge" text-anchor="middle" transform="translate(525.3244248440391, 479) rotate(0)">11</text><text x="0" y="0" fill="#131300" font-size="14" dominant-baseline="text-before-edge" text-anchor="middle" transform="translate(557.5423523752313, 479) rotate(0)">12</text><text x="0" y="0" fill="#131300" font-size="14" dominant-baseline="text-before-edge" text-anchor="middle" transform="translate(589.7602799064234, 479) rotate(0)">13</text><text x="0" y="0" fill="#131300" font-size="14" dominant-baseline="text-before-edge" text-anchor="middle" transform="translate(621.9782074376155, 479) rotate(0)">14</text><text x="0" y="0" fill="#131300" font-size="14" dominant-baseline="text-before-edge" text-anchor="middle" transform="translate(654.1961349688078, 479) rotate(0)">15</text><text x="0" y="0" fill="#131300" font-size="14" dominant-baseline="text-before-edge" text-anchor="middle" transform="translate(686.4140625, 479) rotate(0)">16</text></g><g class="ticks"><path d="M 74.27343940734863,469 L 74.27343940734863,474" fill="none" stroke="#131300" stroke-width="2"/><path d="M 106.4913669385408,469 L 106.4913669385408,474" fill="none" stroke="#131300" stroke-width="2"/><path d="M 138.70929446973298,469 L 138.70929446973298,474" fill="none" stroke="#131300" stroke-width="2"/><path d="M 170.92722200092516,469 L 170.92722200092516,474" fill="none" stroke="#131300" stroke-width="2"/><path d="M 203.14514953211733,469 L 203.14514953211733,474" fill="none" stroke="#131300" stroke-width="2"/><path d="M 235.3630770633095,469 L 235.3630770633095,474" fill="none" stroke="#131300" stroke-width="2"/><path d="M 267.5810045945017,469 L 267.5810045945017,474" fill="none" stroke="#131300" stroke-width="2"/><path d="M 299.79893212569385,469 L 299.79893212569385,474" fill="none" stroke="#131300" stroke-width="2"/><path d="M 332.016859656886,469 L 332.016859656886,474" fill="none" stroke="#131300" stroke-width="2"/><path d="M 364.2347871880782,469 L 364.2347871880782,474" fill="none" stroke="#131300" stroke-width="2"/><path d="M 396.4527147192704,469 L 396.4527147192704,474" fill="none" stroke="#131300" stroke-width="2"/><path d="M 428.67064225046255,469 L 428.67064225046255,474" fill="none" stroke="#131300" stroke-width="2"/><path d="M 460.8885697816547,469 L 460.8885697816547,474" fill="none" stroke="#131300" stroke-width="2"/><path d="M 493.1064973128469,469 L 493.1064973128469,474" fill="none" stroke="#131300" stroke-width="2"/><path d="M 525.3244248440391,469 L 525.3244248440391,474" fill="none" stroke="#131300" stroke-width="2"/><path d="M 557.5423523752313,469 L 557.5423523752313,474" fill="none" stroke="#131300" stroke-width="2"/><path d="M 589.7602799064234,469 L 589.7602799064234,474" fill="none" stroke="#131300" stroke-width="2"/><path d="M 621.9782074376155,469 L 621.9782074376155,474" fill="none" stroke="#131300" stroke-width="2"/><path d="M 654.1961349688078,469 L 654.1961349688078,474" fill="none" stroke="#131300" stroke-width="2"/><path d="M 686.4140625,469 L 686.4140625,474" fill="none" stroke="#131300" stroke-width="2"/></g></g><g class="left-axis"><g class="axisl-line"><path d="M 59.68750190734863,43.1796875 L 59.68750190734863,467" fill="none" stroke="#131300" stroke-width="2"/></g><g class="label"><text x="0" y="0" fill="#131300" font-size="14" dominant-baseline="middle" text-anchor="end" transform="translate(48.68750190734863, 51.1796875) rotate(0)">10</text><text x="0" y="0" fill="#131300" font-size="14" dominant-baseline="middle" text-anchor="end" transform="translate(48.68750190734863, 91.96171874999999) rotate(0)">9</text><text x="0" y="0" fill="#131300" font-size="14" dominant-baseline="middle" text-anchor="end" transform="translate(48.68750190734863, 132.74374999999998) rotate(0)">8</text><text x="0" y="0" fill="#131300" font-size="14" dominant-baseline="middle" text-anchor="end" transform="translate(48.68750190734863, 173.52578125000002) rotate(0)">7</text><text x="0" y="0" fill="#131300" font-size="14" dominant-baseline="middle" text-anchor="end" transform="translate(48.68750190734863, 214.3078125) rotate(0)">6</text><text x="0" y="0" fill="#131300" font-size="14" dominant-baseline="middle" text-anchor="end" transform="translate(48.68750190734863, 255.08984375) rotate(0)">5</text><text x="0" y="0" fill="#131300" font-size="14" dominant-baseline="middle" text-anchor="end" transform="translate(48.68750190734863, 295.871875) rotate(0)">4</text><text x="0" y="0" fill="#131300" font-size="14" dominant-baseline="middle" text-anchor="end" transform="translate(48.68750190734863, 336.65390625) rotate(0)">3</text><text x="0" y="0" fill="#131300" font-size="14" dominant-baseline="middle" text-anchor="end" transform="translate(48.68750190734863, 377.4359375) rotate(0)">2</text><text x="0" y="0" fill="#131300" font-size="14" dominant-baseline="middle" text-anchor="end" transform="translate(48.68750190734863, 418.21796875) rotate(0)">1</text><text x="0" y="0" fill="#131300" font-size="14" dominant-baseline="middle" text-anchor="end" transform="translate(48.68750190734863, 459) rotate(0)">0</text></g><g class="ticks"><path d="M 58.68750190734863,51.1796875 L 53.68750190734863,51.1796875" fill="none" stroke="#131300" stroke-width="2"/><path d="M 58.68750190734863,91.96171874999999 L 53.68750190734863,91.96171874999999" fill="none" stroke="#131300" stroke-width="2"/><path d="M 58.68750190734863,132.74374999999998 L 53.68750190734863,132.74374999999998" fill="none" stroke="#131300" stroke-width="2"/><path d="M 58.68750190734863,173.52578125000002 L 53.68750190734863,173.52578125000002" fill="none" stroke="#131300" stroke-width="2"/><path d="M 58.68750190734863,214.3078125 L 53.68750190734863,214.3078125" fill="none" stroke="#131300" stroke-width="2"/><path d="M 58.68750190734863,255.08984375 L 53.68750190734863,255.08984375" fill="none" stroke="#131300" stroke-width="2"/><path d="M 58.68750190734863,295.871875 L 53.68750190734863,295.871875" fill="none" stroke="#131300" stroke-width="2"/><path d="M 58.68750190734863,336.65390625 L 53.68750190734863,336.65390625" fill="none" stroke="#131300" stroke-width="2"/><path d="M 58.68750190734863,377.4359375 L 53.68750190734863,377.4359375" fill="none" stroke="#131300" stroke-width="2"/><path d="M 58.68750190734863,418.21796875 L 53.68750190734863,418.21796875" fill="none" stroke="#131300" stroke-width="2"/><path d="M 58.68750190734863,459 L 53.68750190734863,459" fill="none" stroke="#131300" stroke-width="2"/></g><g class="title"><text x="0" y="0" fill="#131300" font-size="16" dominant-baseline="text-before-edge" text-anchor="middle" transform="translate(5, 255.08984375) rotate(270)">New Members</text></g></g></g><g class="mermaid-tmp-group"/></svg>