<svg id="my-svg" width="100%" xmlns="http://www.w3.org/2000/svg" xmlns:xlink="http://www.w3.org/1999/xlink" style="max-width: 700px; background-color: white;" viewBox="0 0 700 500" role="graphics-document document" aria-roledescription="xychart"><style>#my-svg{font-family:"trebuchet ms",verdana,arial,sans-serif;font-size:16px;fill:#333;}@keyframes edge-animation-frame{from{stroke-dashoffset:0;}}@keyframes dash{to{stroke-dashoffset:0;}}#my-svg .edge-animation-slow{stroke-dasharray:9,5!important;stroke-dashoffset:900;animation:dash 50s linear infinite;stroke-linecap:round;}#my-svg .edge-animation-fast{stroke-dasharray:9,5!important;stroke-dashoffset:900;animation:dash 20s linear infinite;stroke-linecap:round;}#my-svg .error-icon{fill:#552222;}#my-svg .error-text{fill:#552222;stroke:#552222;}#my-svg .edge-thickness-normal{stroke-width:1px;}#my-svg .edge-thickness-thick{stroke-width:3.5px;}#my-svg .edge-pattern-solid{stroke-dasharray:0;}#my-svg .edge-thickness-invisible{stroke-width:0;fill:none;}#my-svg .edge-pattern-dashed{stroke-dasharray:3;}#my-svg .edge-pattern-dotted{stroke-dasharray:2;}#my-svg .marker{fill:#333333;stroke:#333333;}#my-svg .marker.cross{stroke:#333333;}#my-svg svg{font-family:"trebuchet ms",verdana,arial,sans-serif;font-size:16px;}#my-svg p{margin:0;}#my-svg :root{--mermaid-font-family:"trebuchet ms",verdana,arial,sans-serif;}</style><g/><g class="main"><rect width="700" height="500" class="background" fill="white"/><g class="chart-title"><text x="0" y="0" fill="#131300" font-size="20" dominant-baseline="middle" text-anchor="middle" transform="translate(350, 21.58984375) rotate(0)">Daily Net Member Change (2026)</text></g><g class="plot"><g class="bar-plot-0"><rect x="68.08691183353992" y="459" width="12.373055147617421" height="8" fill="#ECECFF" stroke="#ECECFF" stroke-width="0"/><rect x="81.39431668338017" y="397.826953125" width="12.373055147617421" height="69.17304687500001" fill="#ECECFF" stroke="#ECECFF" stroke-width="0"/><rect x="94.70172153322042" y="397.826953125" width="12.373055147617421" height="69.17304687500001" fill="#ECECFF" stroke="#ECECFF" stroke-width="0"/><rect x="108.00912638306067" y="418.21796875" width="12.373055147617421" height="48.78203124999999" fill="#ECECFF" stroke="#ECECFF" stroke-width="0"/><rect x="121.3165312329009" y="336.65390625" width="12.373055147617421" height="130.34609375000002" fill="#ECECFF" stroke="#ECECFF" stroke-width="0"/><rect x="134.62393608274115" y="418.21796875" width="12.373055147617421" height="48.78203124999999" fill="#ECECFF" stroke="#ECECFF" stroke-width="0"/><rect x="147.9313409325814" y="459" width="12.373055147617421" height="8" fill="#ECECFF" stroke="#ECECFF" stroke-width="0"/><rect x="161.23874578242166" y="397.826953125" width="12.373055147617421" height="69.17304687500001" fill="#ECECFF" stroke="#ECECFF" stroke-width="0"/><rect x="174.54615063226188" y="438.608984375" width="12.373055147617421" height="28.391015625000023" fill="#ECECFF" stroke="#ECECFF" stroke-width="0"/><rect x="187.85355548210217" y="397.826953125" width="12.373055147617421" height="69.17304687500001" fill="#ECECFF" stroke="#ECECFF" stroke-width="0"/><rect x="201.1609603319424" y="336.65390625" width="12.373055147617421" height="130.34609375000002" fill="#ECECFF" stroke="#ECECFF" stroke-width="0"/><rect x="214.46836518178264" y="316.262890625" width="12.373055147617421" height="150.737109375" fill="#ECECFF" stroke="#ECECFF" stroke-width="0"/><rect x="227.7757700316229" y="295.871875" width="12.373055147617421" height="171.128125" fill="#ECECFF" stroke="#ECECFF" stroke-width="0"/><rect x="241.08317488146315" y="397.826953125" width="12.373055147617421" height="69.17304687500001" fill="#ECECFF" stroke="#ECECFF" stroke-width="0"/><rect x="254.3905797313034" y="397.826953125" width="12.373055147617421" height="69.17304687500001" fill="#ECECFF" stroke="#ECECFF" stroke-width="0"/><rect x="267.69798458114366" y="459" width="12.373055147617421" height="8" fill="#ECECFF" stroke="#ECECFF" stroke-width="0"/><rect x="281.0053894309839" y="459" width="12.373055147617421" height="8" fill="#ECECFF" stroke="#ECECFF" stroke-width="0"/><rect x="294.31279428082416" y="397.826953125" width="12.373055147617421" height="69.17304687500001" fill="#ECECFF" stroke="#ECECFF" stroke-width="0"/><rect x="307.62019913066445" y="357.044921875" width="12.373055147617421" height="109.955078125" fill="#ECECFF" stroke="#ECECFF" stroke-width="0"/><rect x="320.9276039805046" y="336.65390625" width="12.373055147617421" height="130.34609375000002" fill="#ECECFF" stroke="#ECECFF" stroke-width="0"/><rect x="334.2350088303449" y="397.826953125" width="12.373055147617421" height="69.17304687500001" fill="#ECECFF" stroke="#ECECFF" stroke-width="0"/><rect x="347.5424136801852" y="397.826953125" width="12.373055147617421" height="69.17304687500001" fill="#ECECFF" stroke="#ECECFF" stroke-width="0"/><rect x="360.8498185300254" y="397.826953125" width="12.373055147617421" height="69.17304687500001" fill="#ECECFF" stroke="#ECECFF" stroke-width="0"/><rect x="374.1572233798656" y="459" width="12.373055147617421" height="8" fill="#ECECFF" stroke="#ECECFF" stroke-width="0"/><rect x="387.4646282297059" y="377.4359375" width="12.373055147617421" height="89.56406249999998" fill="#ECECFF" stroke="#ECECFF" stroke-width="0"/><rect x="400.77203307954613" y="418.21796875" width="12.373055147617421" height="48.78203124999999" fill="#ECECFF" stroke="#ECECFF" stroke-width="0"/><rect x="414.0794379293864" y="459" width="12.373055147617421" height="8" fill="#ECECFF" stroke="#ECECFF" stroke-width="0"/><rect x="427.38684277922664" y="459" width="12.373055147617421" height="8" fill="#ECECFF" stroke="#ECECFF" stroke-width="0"/><rect x="440.69424762906687" y="459" width="12.373055147617421" height="8" fill="#ECECFF" stroke="#ECECFF" stroke-width="0"/><rect x="454.00165247890715" y="459" width="12.373055147617421" height="8" fill="#ECECFF" stroke="#ECECFF" stroke-width="0"/><rect x="467.3090573287474" y="459" width="12.373055147617421" height="8" fill="#ECECFF" stroke="#ECECFF" stroke-width="0"/><rect x="480.61646217858765" y="459" width="12.373055147617421" height="8" fill="#ECECFF" stroke="#ECECFF" stroke-width="0"/><rect x="493.9238670284279" y="459" width="12.373055147617421" height="8" fill="#ECECFF" stroke="#ECECFF" stroke-width="0"/><rect x="507.2312718782681" y="459" width="12.373055147617421" height="8" fill="#ECECFF" stroke="#ECECFF" stroke-width="0"/><rect x="520.5386767281084" y="438.608984375" width="12.373055147617421" height="28.391015625000023" fill="#ECECFF" stroke="#ECECFF" stroke-width="0"/><rect x="533.8460815779486" y="438.608984375" width="12.373055147617421" height="28.391015625000023" fill="#ECECFF" stroke="#ECECFF" stroke-width="0"/><rect x="547.153486427789" y="418.21796875" width="12.373055147617421" height="48.78203124999999" fill="#ECECFF" stroke="#ECECFF" stroke-width="0"/><rect x="560.4608912776291" y="459" width="12.373055147617421" height="8" fill="#ECECFF" stroke="#ECECFF" stroke-width="0"/><rect x="573.7682961274693" y="112.35273437500001" width="12.373055147617421" height="354.647265625" fill="#ECECFF" stroke="#ECECFF" stroke-width="0"/><rect x="587.0757009773096" y="397.826953125" width="12.373055147617421" height="69.17304687500001" fill="#ECECFF" stroke="#ECECFF" stroke-width="0"/><rect x="600.3831058271498" y="459" width="12.373055147617421" height="8" fill="#ECECFF" stroke="#ECECFF" stroke-width="0"/><rect x="613.6905106769901" y="397.826953125" width="12.373055147617421" height="69.17304687500001" fill="#ECECFF" stroke="#ECECFF" stroke-width="0"/><rect x="626.9979155268304" y="459" width="12.373055147617421" height="8" fill="#ECECFF" stroke="#ECECFF" stroke-width="0"/><rect x="640.3053203766706" y="316.262890625" width="12.373055147617421" height="150.737109375" fill="#ECECFF" stroke="#ECECFF" stroke-width="0"/><rect x="653.6127252265109" y="459" width="12.373055147617421" height="8" fill="#ECECFF" stroke="#ECECFF" stroke-width="0"/><rect x="666.9201300763511" y="459" width="12.373055147617421" height="8" fill="#ECECFF" stroke="#ECECFF" stroke-width="0"/><rect x="680.2275349261913" y="377.4359375" width="12.373055147617421" height="89.56406249999998" fill="#ECECFF" stroke="#ECECFF" stroke-width="0"/></g></g><g class="bottom-axis"><g class="axis-line"><path d="M 60.68750190734863,468 L 700,468" fill="none" stroke="#131300" stroke-width="2"/></g><g class="label"><text x="0" y="0" fill="#131300" font-size="14" dominant-baseline="text-before-edge" text-anchor="middle" transform="translate(74.27343940734863, 479) rotate(0)">2.25</text><text x="0" y="0" fill="#131300" font-size="14" dominant-baseline="text-before-edge" text-anchor="middle" transform="translate(87.58084425718889, 479) rotate(0)">вЂ‹вЂ‹</text><text x="0" y="0" fill="#131300" font-size="14" dominant-baseline="text-before-edge" text-anchor="middle" transform="translate(100.88824910702913, 479) rotate(0)">вЂ‹вЂ‹вЂ‹</text><text x="0" y="0" fill="#131300" font-size="14" dominant-baseline="text-before-edge" text-anchor="middle" transform="translate(114.19565395686938, 479) rotate(0)">вЂ‹вЂ‹вЂ‹вЂ‹</text><text x="0" y="0" fill="#131300" font-size="14" dominant-baseline="text-before-edge" text-anchor="middle" transform="translate(127.50305880670962, 479) rotate(0)">3.1</text><text x="0" y="0" fill="#131300" font-size="14" dominant-baseline="text-before-edge" text-anchor="middle" transform="translate(140.81046365654987, 479) rotate(0)">вЂ‹вЂ‹вЂ‹вЂ‹вЂ‹вЂ‹</text><text x="0" y="0" fill="#131300" font-size="14" dominant-baseline="text-before-edge" text-anchor="middle" transform="translate(154.11786850639012, 479) rotate(0)">вЂ‹вЂ‹вЂ‹вЂ‹вЂ‹вЂ‹вЂ‹</text><text x="0" y="0" fill="#131300" font-size="14" dominant-baseline="text-before-edge" text-anchor="middle" transform="translate(167.42527335623038, 479) rotate(0)">вЂ‹вЂ‹вЂ‹вЂ‹вЂ‹вЂ‹вЂ‹вЂ‹</text><text x="0" y="0" fill="#131300" font-size="14" dominant-baseline="text-before-edge" text-anchor="middle" transform="translate(180.7326782060706, 479) rotate(0)">вЂ‹вЂ‹вЂ‹вЂ‹вЂ‹вЂ‹вЂ‹вЂ‹вЂ‹</text><text x="0" y="0" fill="#131300" font-size="14" dominant-baseline="text-before-edge" text-anchor="middle" transform="translate(194.04008305591088, 479) rotate(0)">вЂ‹вЂ‹вЂ‹вЂ‹вЂ‹вЂ‹вЂ‹вЂ‹вЂ‹вЂ‹</text><text x="0" y="0" fill="#131300" font-size="14" dominant-baseline="text-before-edge" text-anchor="middle" transform="translate(207.3474879057511, 479) rotate(0)">вЂ‹вЂ‹вЂ‹вЂ‹вЂ‹вЂ‹вЂ‹вЂ‹вЂ‹вЂ‹вЂ‹</text><text x="0" y="0" fill="#131300" font-size="14" dominant-baseline="text-before-edge" text-anchor="middle" transform="translate(220.65489275559136, 479) rotate(0)">3.8</text><text x="0" y="0" fill="#131300" font-size="14" dominant-baseline="text-before-edge" text-anchor="middle" transform="translate(233.96229760543162, 479) rotate(0)">вЂ‹вЂ‹вЂ‹вЂ‹вЂ‹вЂ‹вЂ‹вЂ‹вЂ‹вЂ‹вЂ‹вЂ‹вЂ‹</text><text x="0" y="0" fill="#131300" font-size="14" dominant-baseline="text-before-edge" text-anchor="middle" transform="translate(247.26970245527187, 479) rotate(0)">вЂ‹вЂ‹вЂ‹вЂ‹вЂ‹вЂ‹вЂ‹вЂ‹вЂ‹вЂ‹вЂ‹вЂ‹вЂ‹вЂ‹</text><text x="0" y="0" fill="#131300" font-size="14" dominant-baseline="text-before-edge" text-anchor="middle" transform="translate(260.5771073051121, 479) rotate(0)">вЂ‹вЂ‹вЂ‹вЂ‹вЂ‹вЂ‹вЂ‹вЂ‹вЂ‹вЂ‹вЂ‹вЂ‹вЂ‹вЂ‹вЂ‹</text><text x="0" y="0" fill="#131300" font-size="14" dominant-baseline="text-before-edge" text-anchor="middle" transform="translate(273.88451215495235, 479) rotate(0)">вЂ‹вЂ‹вЂ‹вЂ‹вЂ‹вЂ‹вЂ‹вЂ‹вЂ‹вЂ‹вЂ‹вЂ‹вЂ‹вЂ‹вЂ‹вЂ‹</text><text x="0" y="0" fill="#131300" font-size="14" dominant-baseline="text-before-edge" text-anchor="middle" transform="translate(287.1919170047926, 479) rotate(0)">вЂ‹вЂ‹вЂ‹вЂ‹вЂ‹вЂ‹вЂ‹вЂ‹вЂ‹вЂ‹вЂ‹вЂ‹вЂ‹вЂ‹вЂ‹вЂ‹вЂ‹</text><text x="0" y="0" fill="#131300" font-size="14" dominant-baseline="text-before-edge" text-anchor="middle" transform="translate(300.49932185463285, 479) rotate(0)">вЂ‹вЂ‹вЂ‹вЂ‹вЂ‹вЂ‹вЂ‹вЂ‹вЂ‹вЂ‹вЂ‹вЂ‹вЂ‹вЂ‹вЂ‹вЂ‹вЂ‹вЂ‹</text><text x="0" y="0" fill="#131300" font-size="14" dominant-baseline="text-before-edge" text-anchor="middle" transform="translate(313.80672670447314, 479) rotate(0)">3.15</text><text x="0" y="0" fill="#131300" font-size="14" dominant-baseline="text-before-edge" text-anchor="middle" transform="translate(327.1141315543133, 479) rotate(0)">вЂ‹вЂ‹вЂ‹вЂ‹вЂ‹вЂ‹вЂ‹вЂ‹вЂ‹вЂ‹вЂ‹вЂ‹вЂ‹вЂ‹вЂ‹вЂ‹вЂ‹вЂ‹вЂ‹вЂ‹</text><text x="0" y="0" fill="#131300" font-size="14" dominant-baseline="text-before-edge" text-anchor="middle" transform="translate(340.4215364041536, 479) rotate(0)">вЂ‹вЂ‹вЂ‹вЂ‹вЂ‹вЂ‹вЂ‹вЂ‹вЂ‹вЂ‹вЂ‹вЂ‹вЂ‹вЂ‹вЂ‹вЂ‹вЂ‹вЂ‹вЂ‹вЂ‹вЂ‹</text><text x="0" y="0" fill="#131300" font-size="14" dominant-baseline="text-before-edge" text-anchor="middle" transform="translate(353.72894125399387, 479) rotate(0)">вЂ‹вЂ‹вЂ‹вЂ‹вЂ‹вЂ‹вЂ‹вЂ‹вЂ‹вЂ‹вЂ‹вЂ‹вЂ‹вЂ‹вЂ‹вЂ‹вЂ‹вЂ‹вЂ‹вЂ‹вЂ‹вЂ‹</text><text x="0" y="0" fill="#131300" font-size="14" dominant-baseline="text-before-edge" text-anchor="middle" transform="translate(367.0363461038341, 479) rotate(0)">вЂ‹вЂ‹вЂ‹вЂ‹вЂ‹вЂ‹вЂ‹вЂ‹вЂ‹вЂ‹вЂ‹вЂ‹вЂ‹вЂ‹вЂ‹вЂ‹вЂ‹вЂ‹вЂ‹вЂ‹вЂ‹вЂ‹вЂ‹</text><text x="0" y="0" fill="#131300" font-size="14" dominant-baseline="text-before-edge" text-anchor="middle" transform="translate(380.3437509536743, 479) rotate(0)">вЂ‹вЂ‹вЂ‹вЂ‹вЂ‹вЂ‹вЂ‹вЂ‹вЂ‹вЂ‹вЂ‹вЂ‹вЂ‹вЂ‹вЂ‹вЂ‹вЂ‹вЂ‹вЂ‹вЂ‹вЂ‹вЂ‹вЂ‹вЂ‹</text><text x="0" y="0" fill="#131300" font-size="14" dominant-baseline="text-before-edge" text-anchor="middle" transform="translate(393.6511558035146, 479) rotate(0)">вЂ‹вЂ‹вЂ‹вЂ‹вЂ‹вЂ‹вЂ‹вЂ‹вЂ‹вЂ‹вЂ‹вЂ‹вЂ‹вЂ‹вЂ‹вЂ‹вЂ‹вЂ‹вЂ‹вЂ‹вЂ‹вЂ‹вЂ‹вЂ‹вЂ‹</text><text x="0" y="0" fill="#131300" font-size="14" dominant-baseline="text-before-edge" text-anchor="middle" transform="translate(406.9585606533548, 479) rotate(0)">3.22</text><text x="0" y="0" fill="#131300" font-size="14" dominant-baseline="text-before-edge" text-anchor="middle" transform="translate(420.2659655031951, 479) rotate(0)">вЂ‹вЂ‹вЂ‹вЂ‹вЂ‹вЂ‹вЂ‹вЂ‹вЂ‹вЂ‹вЂ‹вЂ‹вЂ‹вЂ‹вЂ‹вЂ‹вЂ‹вЂ‹вЂ‹вЂ‹вЂ‹вЂ‹вЂ‹вЂ‹вЂ‹вЂ‹вЂ‹</text><text x="0" y="0" fill="#131300" font-size="14" dominant-baseline="text-before-edge" text-anchor="middle" transform="translate(433.57337035303533, 479) rotate(0)">вЂ‹вЂ‹вЂ‹вЂ‹вЂ‹вЂ‹вЂ‹вЂ‹вЂ‹вЂ‹вЂ‹вЂ‹вЂ‹вЂ‹вЂ‹вЂ‹вЂ‹вЂ‹вЂ‹вЂ‹вЂ‹вЂ‹вЂ‹вЂ‹вЂ‹вЂ‹вЂ‹вЂ‹</text><text x="0" y="0" fill="#131300" font-size="14" dominant-baseline="text-before-edge" text-anchor="middle" transform="translate(446.88077520287555, 479) rotate(0)">вЂ‹вЂ‹вЂ‹вЂ‹вЂ‹вЂ‹вЂ‹вЂ‹вЂ‹вЂ‹вЂ‹вЂ‹вЂ‹вЂ‹вЂ‹вЂ‹вЂ‹вЂ‹вЂ‹вЂ‹вЂ‹вЂ‹вЂ‹вЂ‹вЂ‹вЂ‹вЂ‹вЂ‹вЂ‹</text><text x="0" y="0" fill="#131300" font-size="14" dominant-baseline="text-before-edge" text-anchor="middle" transform="translate(460.18818005271584, 479) rotate(0)">вЂ‹вЂ‹вЂ‹вЂ‹вЂ‹вЂ‹вЂ‹вЂ‹вЂ‹вЂ‹вЂ‹вЂ‹вЂ‹вЂ‹вЂ‹вЂ‹вЂ‹вЂ‹вЂ‹вЂ‹вЂ‹вЂ‹вЂ‹вЂ‹вЂ‹вЂ‹вЂ‹вЂ‹вЂ‹вЂ‹</text><text x="0" y="0" fill="#131300" font-size="14" dominant-baseline="text-before-edge" text-anchor="middle" transform="translate(473.49558490255606, 479) rotate(0)">вЂ‹вЂ‹вЂ‹вЂ‹вЂ‹вЂ‹вЂ‹вЂ‹вЂ‹вЂ‹вЂ‹вЂ‹вЂ‹вЂ‹вЂ‹вЂ‹вЂ‹вЂ‹вЂ‹вЂ‹вЂ‹вЂ‹вЂ‹вЂ‹вЂ‹вЂ‹вЂ‹вЂ‹вЂ‹вЂ‹вЂ‹</text><text x="0" y="0" fill="#131300" font-size="14" dominant-baseline="text-before-edge" text-anchor="middle" transform="translate(486.80298975239634, 479) rotate(0)">вЂ‹вЂ‹вЂ‹вЂ‹вЂ‹вЂ‹вЂ‹вЂ‹вЂ‹вЂ‹вЂ‹вЂ‹вЂ‹вЂ‹вЂ‹вЂ‹вЂ‹вЂ‹вЂ‹вЂ‹вЂ‹вЂ‹вЂ‹вЂ‹вЂ‹вЂ‹вЂ‹вЂ‹вЂ‹вЂ‹вЂ‹вЂ‹</text><text x="0" y="0" fill="#131300" font-size="14" dominant-baseline="text-before-edge" text-anchor="middle" transform="translate(500.11039460223657, 479) rotate(0)">3.29</text><text x="0" y="0" fill="#131300" font-size="14" dominant-baseline="text-before-edge" text-anchor="middle" transform="translate(513.4177994520768, 479) rotate(0)">вЂ‹вЂ‹вЂ‹вЂ‹вЂ‹вЂ‹вЂ‹вЂ‹вЂ‹вЂ‹вЂ‹вЂ‹вЂ‹вЂ‹вЂ‹вЂ‹вЂ‹вЂ‹вЂ‹вЂ‹вЂ‹вЂ‹вЂ‹вЂ‹вЂ‹вЂ‹вЂ‹вЂ‹вЂ‹вЂ‹вЂ‹вЂ‹вЂ‹вЂ‹</text><text x="0" y="0" fill="#131300" font-size="14" dominant-baseline="text-before-edge" text-anchor="middle" transform="translate(526.7252043019171, 479) rotate(0)">вЂ‹вЂ‹вЂ‹вЂ‹вЂ‹вЂ‹вЂ‹вЂ‹вЂ‹вЂ‹вЂ‹вЂ‹вЂ‹вЂ‹вЂ‹вЂ‹вЂ‹вЂ‹вЂ‹вЂ‹вЂ‹вЂ‹вЂ‹вЂ‹вЂ‹вЂ‹вЂ‹вЂ‹вЂ‹вЂ‹вЂ‹вЂ‹вЂ‹вЂ‹вЂ‹</text><text x="0" y="0" fill="#131300" font-size="14" dominant-baseline="text-before-edge" text-anchor="middle" transform="translate(540.0326091517572, 479) rotate(0)">4.1</text><text x="0" y="0" fill="#131300" font-size="14" dominant-baseline="text-before-edge" text-anchor="middle" transform="translate(553.3400140015976, 479) rotate(0)">вЂ‹вЂ‹вЂ‹вЂ‹вЂ‹вЂ‹вЂ‹вЂ‹вЂ‹вЂ‹вЂ‹вЂ‹вЂ‹вЂ‹вЂ‹вЂ‹вЂ‹вЂ‹вЂ‹вЂ‹вЂ‹вЂ‹вЂ‹вЂ‹вЂ‹вЂ‹вЂ‹вЂ‹вЂ‹вЂ‹вЂ‹вЂ‹вЂ‹вЂ‹вЂ‹вЂ‹вЂ‹</text><text x="0" y="0" fill="#131300" font-size="14" dominant-baseline="text-before-edge" text-anchor="middle" transform="translate(566.6474188514378, 479) rotate(0)">вЂ‹вЂ‹вЂ‹вЂ‹вЂ‹вЂ‹вЂ‹вЂ‹вЂ‹вЂ‹вЂ‹вЂ‹вЂ‹вЂ‹вЂ‹вЂ‹вЂ‹вЂ‹вЂ‹вЂ‹вЂ‹вЂ‹вЂ‹вЂ‹вЂ‹вЂ‹вЂ‹вЂ‹вЂ‹вЂ‹вЂ‹вЂ‹вЂ‹вЂ‹вЂ‹вЂ‹вЂ‹вЂ‹</text><text x="0" y="0" fill="#131300" font-size="14" dominant-baseline="text-before-edge" text-anchor="middle" transform="translate(579.954823701278, 479) rotate(0)">вЂ‹вЂ‹вЂ‹вЂ‹вЂ‹вЂ‹вЂ‹вЂ‹вЂ‹вЂ‹вЂ‹вЂ‹вЂ‹вЂ‹вЂ‹вЂ‹вЂ‹вЂ‹вЂ‹вЂ‹вЂ‹вЂ‹вЂ‹вЂ‹вЂ‹вЂ‹вЂ‹вЂ‹вЂ‹вЂ‹вЂ‹вЂ‹вЂ‹вЂ‹вЂ‹вЂ‹вЂ‹вЂ‹вЂ‹</text><text x="0" y="0" fill="#131300" font-size="14" dominant-baseline="text-before-edge" text-anchor="middle" transform="translate(593.2622285511183, 479) rotate(0)">вЂ‹вЂ‹вЂ‹вЂ‹вЂ‹вЂ‹вЂ‹вЂ‹вЂ‹вЂ‹вЂ‹вЂ‹вЂ‹вЂ‹вЂ‹вЂ‹вЂ‹вЂ‹вЂ‹вЂ‹вЂ‹вЂ‹вЂ‹вЂ‹вЂ‹вЂ‹вЂ‹вЂ‹вЂ‹вЂ‹вЂ‹вЂ‹вЂ‹вЂ‹вЂ‹вЂ‹вЂ‹вЂ‹вЂ‹вЂ‹</text><text x="0" y="0" fill="#131300" font-size="14" dominant-baseline="text-before-edge" text-anchor="middle" transform="translate(606.5696334009585, 479) rotate(0)">вЂ‹вЂ‹вЂ‹вЂ‹вЂ‹вЂ‹вЂ‹вЂ‹вЂ‹вЂ‹вЂ‹вЂ‹вЂ‹вЂ‹вЂ‹вЂ‹вЂ‹вЂ‹вЂ‹вЂ‹вЂ‹вЂ‹вЂ‹вЂ‹вЂ‹вЂ‹вЂ‹вЂ‹вЂ‹вЂ‹вЂ‹вЂ‹вЂ‹вЂ‹вЂ‹вЂ‹вЂ‹вЂ‹вЂ‹вЂ‹вЂ‹</text><text x="0" y="0" fill="#131300" font-size="14" dominant-baseline="text-before-edge" text-anchor="middle" transform="translate(619.8770382507988, 479) rotate(0)">вЂ‹вЂ‹вЂ‹вЂ‹вЂ‹вЂ‹вЂ‹вЂ‹вЂ‹вЂ‹вЂ‹вЂ‹вЂ‹вЂ‹вЂ‹вЂ‹вЂ‹вЂ‹вЂ‹вЂ‹вЂ‹вЂ‹вЂ‹вЂ‹вЂ‹вЂ‹вЂ‹вЂ‹вЂ‹вЂ‹вЂ‹вЂ‹вЂ‹вЂ‹вЂ‹вЂ‹вЂ‹вЂ‹вЂ‹вЂ‹вЂ‹вЂ‹</text><text x="0" y="0" fill="#131300" font-size="14" dominant-baseline="text-before-edge" text-anchor="middle" transform="translate(633.1844431006391, 479) rotate(0)">4.8</text><text x="0" y="0" fill="#131300" font-size="14" dominant-baseline="text-before-edge" text-anchor="middle" transform="translate(646.4918479504793, 479) rotate(0)">вЂ‹вЂ‹вЂ‹вЂ‹вЂ‹вЂ‹вЂ‹вЂ‹вЂ‹вЂ‹вЂ‹вЂ‹вЂ‹вЂ‹вЂ‹вЂ‹вЂ‹вЂ‹вЂ‹вЂ‹вЂ‹вЂ‹вЂ‹вЂ‹вЂ‹вЂ‹вЂ‹вЂ‹вЂ‹вЂ‹вЂ‹вЂ‹вЂ‹вЂ‹вЂ‹вЂ‹вЂ‹вЂ‹вЂ‹вЂ‹вЂ‹вЂ‹вЂ‹вЂ‹</text><text x="0" y="0" fill="#131300" font-size="14" dominant-baseline="text-before-edge" text-anchor="middle" transform="translate(659.7992528003196, 479) rotate(0)">вЂ‹вЂ‹вЂ‹вЂ‹вЂ‹вЂ‹вЂ‹вЂ‹вЂ‹вЂ‹вЂ‹вЂ‹вЂ‹вЂ‹вЂ‹вЂ‹вЂ‹вЂ‹вЂ‹вЂ‹вЂ‹вЂ‹вЂ‹вЂ‹вЂ‹вЂ‹вЂ‹вЂ‹вЂ‹вЂ‹вЂ‹вЂ‹вЂ‹вЂ‹вЂ‹вЂ‹вЂ‹вЂ‹вЂ‹вЂ‹вЂ‹вЂ‹вЂ‹вЂ‹вЂ‹</text><text x="0" y="0" fill="#131300" font-size="14" dominant-baseline="text-before-edge" text-anchor="middle" transform="translate(673.1066576501598, 479) rotate(0)">вЂ‹вЂ‹вЂ‹вЂ‹вЂ‹вЂ‹вЂ‹вЂ‹вЂ‹вЂ‹вЂ‹вЂ‹вЂ‹вЂ‹вЂ‹вЂ‹вЂ‹вЂ‹вЂ‹вЂ‹вЂ‹вЂ‹вЂ‹вЂ‹вЂ‹вЂ‹вЂ‹вЂ‹вЂ‹вЂ‹вЂ‹вЂ‹вЂ‹вЂ‹вЂ‹вЂ‹вЂ‹вЂ‹вЂ‹вЂ‹вЂ‹вЂ‹вЂ‹вЂ‹вЂ‹вЂ‹</text><text x="0" y="0" fill="#131300" font-size="14" dominant-baseline="text-before-edge" text-anchor="middle" transform="translate(686.4140625, 479) rotate(0)">4.12</text></g><g class="ticks"><path d="M 74.27343940734863,469 L 74.27343940734863,474" fill="none" stroke="#131300" stroke-width="2"/><path d="M 87.58084425718889,469 L 87.58084425718889,474" fill="none" stroke="#131300" stroke-width="2"/><path d="M 100.88824910702913,469 L 100.88824910702913,474" fill="none" stroke="#131300" stroke-width="2"/><path d="M 114.19565395686938,469 L 114.19565395686938,474" fill="none" stroke="#131300" stroke-width="2"/><path d="M 127.50305880670962,469 L 127.50305880670962,474" fill="none" stroke="#131300" stroke-width="2"/><path d="M 140.81046365654987,469 L 140.81046365654987,474" fill="none" stroke="#131300" stroke-width="2"/><path d="M 154.11786850639012,469 L 154.11786850639012,474" fill="none" stroke="#131300" stroke-width="2"/><path d="M 167.42527335623038,469 L 167.42527335623038,474" fill="none" stroke="#131300" stroke-width="2"/><path d="M 180.7326782060706,469 L 180.7326782060706,474" fill="none" stroke="#131300" stroke-width="2"/><path d="M 194.04008305591088,469 L 194.04008305591088,474" fill="none" stroke="#131300" stroke-width="2"/><path d="M 207.3474879057511,469 L 207.3474879057511,474" fill="none" stroke="#131300" stroke-width="2"/><path d="M 220.65489275559136,469 L 220.65489275559136,474" fill="none" stroke="#131300" stroke-width="2"/><path d="M 233.96229760543162,469 L 233.96229760543162,474" fill="none" stroke="#131300" stroke-width="2"/><path d="M 247.26970245527187,469 L 247.26970245527187,474" fill="none" stroke="#131300" stroke-width="2"/><path d="M 260.5771073051121,469 L 260.5771073051121,474" fill="none" stroke="#131300" stroke-width="2"/><path d="M 273.88451215495235,469 L 273.88451215495235,474" fill="none" stroke="#131300" stroke-width="2"/><path d="M 287.1919170047926,469 L 287.1919170047926,474" fill="none" stroke="#131300" stroke-width="2"/><path d="M 300.49932185463285,469 L 300.49932185463285,474" fill="none" stroke="#131300" stroke-width="2"/><path d="M 313.80672670447314,469 L 313.80672670447314,474" fill="none" stroke="#131300" stroke-width="2"/><path d="M 327.1141315543133,469 L 327.1141315543133,474" fill="none" stroke="#131300" stroke-width="2"/><path d="M 340.4215364041536,469 L 340.4215364041536,474" fill="none" stroke="#131300" stroke-width="2"/><path d="M 353.72894125399387,469 L 353.72894125399387,474" fill="none" stroke="#131300" stroke-width="2"/><path d="M 367.0363461038341,469 L 367.0363461038341,474" fill="none" stroke="#131300" stroke-width="2"/><path d="M 380.3437509536743,469 L 380.3437509536743,474" fill="none" stroke="#131300" stroke-width="2"/><path d="M 393.6511558035146,469 L 393.6511558035146,474" fill="none" stroke="#131300" stroke-width="2"/><path d="M 406.9585606533548,469 L 406.9585606533548,474" fill="none" stroke="#131300" stroke-width="2"/><path d="M 420.2659655031951,469 L 420.2659655031951,474" fill="none" stroke="#131300" stroke-width="2"/><path d="M 433.57337035303533,469 L 433.57337035303533,474" fill="none" stroke="#131300" stroke-width="2"/><path d="M 446.88077520287555,469 L 446.88077520287555,474" fill="none" stroke="#131300" stroke-width="2"/><path d="M 460.18818005271584,469 L 460.18818005271584,474" fill="none" stroke="#131300" stroke-width="2"/><path d="M 473.49558490255606,469 L 473.49558490255606,474" fill="none" stroke="#131300" stroke-width="2"/><path d="M 486.80298975239634,469 L 486.80298975239634,474" fill="none" stroke="#131300" stroke-width="2"/><path d="M 500.11039460223657,469 L 500.11039460223657,474" fill="none" stroke="#131300" stroke-width="2"/><path d="M 513.4177994520768,469 L 513.4177994520768,474" fill="none" stroke="#131300" stroke-width="2"/><path d="M 526.7252043019171,469 L 526.7252043019171,474" fill="none" stroke="#131300" stroke-width="2"/><path d="M 540.0326091517572,469 L 540.0326091517572,474" fill="none" stroke="#131300" stroke-width="2"/><path d="M 553.3400140015976,469 L 553.3400140015976,474" fill="none" stroke="#131300" stroke-width="2"/><path d="M 566.6474188514378,469 L 566.6474188514378,474" fill="none" stroke="#131300" stroke-width="2"/><path d="M 579.954823701278,469 L 579.954823701278,474" fill="none" stroke="#131300" stroke-width="2"/><path d="M 593.2622285511183,469 L 593.2622285511183,474" fill="none" stroke="#131300" stroke-width="2"/><path d="M 606.5696334009585,469 L 606.5696334009585,474" fill="none" stroke="#131300" stroke-width="2"/><path d="M 619.8770382507988,469 L 619.8770382507988,474" fill="none" stroke="#131300" stroke-width="2"/><path d="M 633.1844431006391,469 L 633.1844431006391,474" fill="none" stroke="#131300" stroke-width="2"/><path d="M 646.4918479504793,469 L 646.4918479504793,474" fill="none" stroke="#131300" stroke-width="2"/><path d="M 659.7992528003196,469 L 659.7992528003196,474" fill="none" stroke="#131300" stroke-width="2"/><path d="M 673.1066576501598,469 L 673.1066576501598,474" fill="none" stroke="#131300" stroke-width="2"/><path d="M 686.4140625,469 L 686.4140625,474" fill="none" stroke="#131300" stroke-width="2"/></g></g><g class="left-axis"><g class="axisl-line"><path d="M 59.68750190734863,43.1796875 L 59.68750190734863,467" fill="none" stroke="#131300" stroke-width="2"/></g><g class="label"><text x="0" y="0" fill="#131300" font-size="14" dominant-baseline="middle" text-anchor="end" transform="translate(48.68750190734863, 51.1796875) rotate(0)">20</text><text x="0" y="0" fill="#131300" font-size="14" dominant-baseline="middle" text-anchor="end" transform="translate(48.68750190734863, 91.96171874999999) rotate(0)">18</text><text x="0" y="0" fill="#131300" font-size="14" dominant-baseline="middle" text-anchor="end" transform="translate(48.68750190734863, 132.74374999999998) rotate(0)">16</text><text x="0" y="0" fill="#131300" font-size="14" dominant-baseline="middle" text-anchor="end" transform="translate(48.68750190734863, 173.52578125000002) rotate(0)">14</text><text x="0" y="0" fill="#131300" font-size="14" dominant-baseline="middle" text-anchor="end" transform="translate(48.68750190734863, 214.3078125) rotate(0)">12</text><text x="0" y="0" fill="#131300" font-size="14" dominant-baseline="middle" text-anchor="end" transform="translate(48.68750190734863, 255.08984375) rotate(0)">10</text><text x="0" y="0" fill="#131300" font-size="14" dominant-baseline="middle" text-anchor="end" transform="translate(48.68750190734863, 295.871875) rotate(0)">8</text><text x="0" y="0" fill="#131300" font-size="14" dominant-baseline="middle" text-anchor="end" transform="translate(48.68750190734863, 336.65390625) rotate(0)">6</text><text x="0" y="0" fill="#131300" font-size="14" dominant-baseline="middle" text-anchor="end" transform="translate(48.68750190734863, 377.4359375) rotate(0)">4</text><text x="0" y="0" fill="#131300" font-size="14" dominant-baseline="middle" text-anchor="end" transform="translate(48.68750190734863, 418.21796875) rotate(0)">2</text><text x="0" y="0" fill="#131300" font-size="14" dominant-baseline="middle" text-anchor="end" transform="translate(48.68750190734863, 459) rotate(0)">0</text></g><g class="ticks"><path d="M 58.68750190734863,51.1796875 L 53.68750190734863,51.1796875" fill="none" stroke="#131300" stroke-width="2"/><path d="M 58.68750190734863,91.96171874999999 L 53.68750190734863,91.96171874999999" fill="none" stroke="#131300" stroke-width="2"/><path d="M 58.68750190734863,132.74374999999998 L 53.68750190734863,132.74374999999998" fill="none" stroke="#131300" stroke-width="2"/><path d="M 58.68750190734863,173.52578125000002 L 53.68750190734863,173.52578125000002" fill="none" stroke="#131300" stroke-width="2"/><path d="M 58.68750190734863,214.3078125 L 53.68750190734863,214.3078125" fill="none" stroke="#131300" stroke-width="2"/><path d="M 58.68750190734863,255.08984375 L 53.68750190734863,255.08984375" fill="none" stroke="#131300" stroke-width="2"/><path d="M 58.68750190734863,295.871875 L 53.68750190734863,295.871875" fill="none" stroke="#131300" stroke-width="2"/><path d="M 58.68750190734863,336.65390625 L 53.68750190734863,336.65390625" fill="none" stroke="#131300" stroke-width="2"/><path d="M 58.68750190734863,377.4359375 L 53.68750190734863,377.4359375" fill="none" stroke="#131300" stroke-width="2"/><path d="M 58.68750190734863,418.21796875 L 53.68750190734863,418.21796875" fill="none" stroke="#131300" stroke-width="2"/><path d="M 58.68750190734863,459 L 53.68750190734863,459" fill="none" stroke="#131300" stroke-width="2"/></g><g class="title"><text x="0" y="0" fill="#131300" font-size="16" dominant-baseline="text-before-edge" text-anchor="middle" transform="translate(5, 255.08984375) rotate(270)">New Members</text></g></g></g><g class="mermaid-tmp-group"/></svg>