<svg id="my-svg" width="100%" xmlns="http://www.w3.org/2000/svg" xmlns:xlink="http://www.w3.org/1999/xlink" style="max-width: 700px; background-color: white;" viewBox="0 0 700 500" role="graphics-document document" aria-roledescription="xychart"><style>#my-svg{font-family:"trebuchet ms",verdana,arial,sans-serif;font-size:16px;fill:#333;}@keyframes edge-animation-frame{from{stroke-dashoffset:0;}}@keyframes dash{to{stroke-dashoffset:0;}}#my-svg .edge-animation-slow{stroke-dasharray:9,5!important;stroke-dashoffset:900;animation:dash 50s linear infinite;stroke-linecap:round;}#my-svg .edge-animation-fast{stroke-dasharray:9,5!important;stroke-dashoffset:900;animation:dash 20s linear infinite;stroke-linecap:round;}#my-svg .error-icon{fill:#552222;}#my-svg .error-text{fill:#552222;stroke:#552222;}#my-svg .edge-thickness-normal{stroke-width:1px;}#my-svg .edge-thickness-thick{stroke-width:3.5px;}#my-svg .edge-pattern-solid{stroke-dasharray:0;}#my-svg .edge-thickness-invisible{stroke-width:0;fill:none;}#my-svg .edge-pattern-dashed{stroke-dasharray:3;}#my-svg .edge-pattern-dotted{stroke-dasharray:2;}#my-svg .marker{fill:#333333;stroke:#333333;}#my-svg .marker.cross{stroke:#333333;}#my-svg svg{font-family:"trebuchet ms",verdana,arial,sans-serif;font-size:16px;}#my-svg p{margin:0;}#my-svg :root{--mermaid-font-family:"trebuchet ms",verdana,arial,sans-serif;}</style><g/><g class="main"><rect width="700" height="500" class="background" fill="white"/><g class="chart-title"><text x="0" y="0" fill="#131300" font-size="20" dominant-baseline="middle" text-anchor="middle" transform="translate(350, 21.58984375) rotate(0)">Daily Net Member Change (2026)</text></g><g class="plot"><g class="bar-plot-0"><rect x="62.642767568588255" y="459" width="23.261343677520752" height="8" fill="#ECECFF" stroke="#ECECFF" stroke-width="0"/><rect x="88.1486268641154" y="336.65390625" width="23.261343677520752" height="130.34609375000002" fill="#ECECFF" stroke="#ECECFF" stroke-width="0"/><rect x="113.65448615964254" y="336.65390625" width="23.261343677520752" height="130.34609375000002" fill="#ECECFF" stroke="#ECECFF" stroke-width="0"/><rect x="139.16034545516968" y="377.4359375" width="23.261343677520752" height="89.56406249999998" fill="#ECECFF" stroke="#ECECFF" stroke-width="0"/><rect x="164.66620475069683" y="214.3078125" width="23.261343677520752" height="252.6921875" fill="#ECECFF" stroke="#ECECFF" stroke-width="0"/><rect x="190.17206404622397" y="377.4359375" width="23.261343677520752" height="89.56406249999998" fill="#ECECFF" stroke="#ECECFF" stroke-width="0"/><rect x="215.6779233417511" y="459" width="23.261343677520752" height="8" fill="#ECECFF" stroke="#ECECFF" stroke-width="0"/><rect x="241.18378263727826" y="336.65390625" width="23.261343677520752" height="130.34609375000002" fill="#ECECFF" stroke="#ECECFF" stroke-width="0"/><rect x="266.68964193280544" y="418.21796875" width="23.261343677520752" height="48.78203124999999" fill="#ECECFF" stroke="#ECECFF" stroke-width="0"/><rect x="292.19550122833255" y="336.65390625" width="23.261343677520752" height="130.34609375000002" fill="#ECECFF" stroke="#ECECFF" stroke-width="0"/><rect x="317.7013605238597" y="214.3078125" width="23.261343677520752" height="252.6921875" fill="#ECECFF" stroke="#ECECFF" stroke-width="0"/><rect x="343.20721981938686" y="173.52578125000002" width="23.261343677520752" height="293.47421875" fill="#ECECFF" stroke="#ECECFF" stroke-width="0"/><rect x="368.71307911491397" y="132.74374999999998" width="23.261343677520752" height="334.25625" fill="#ECECFF" stroke="#ECECFF" stroke-width="0"/><rect x="394.2189384104411" y="336.65390625" width="23.261343677520752" height="130.34609375000002" fill="#ECECFF" stroke="#ECECFF" stroke-width="0"/><rect x="419.7247977059683" y="336.65390625" width="23.261343677520752" height="130.34609375000002" fill="#ECECFF" stroke="#ECECFF" stroke-width="0"/><rect x="445.2306570014954" y="459" width="23.261343677520752" height="8" fill="#ECECFF" stroke="#ECECFF" stroke-width="0"/><rect x="470.73651629702255" y="459" width="23.261343677520752" height="8" fill="#ECECFF" stroke="#ECECFF" stroke-width="0"/><rect x="496.2423755925497" y="336.65390625" width="23.261343677520752" height="130.34609375000002" fill="#ECECFF" stroke="#ECECFF" stroke-width="0"/><rect x="521.7482348880768" y="255.08984375" width="23.261343677520752" height="211.91015625" fill="#ECECFF" stroke="#ECECFF" stroke-width="0"/><rect x="547.254094183604" y="214.3078125" width="23.261343677520752" height="252.6921875" fill="#ECECFF" stroke="#ECECFF" stroke-width="0"/><rect x="572.7599534791311" y="336.65390625" width="23.261343677520752" height="130.34609375000002" fill="#ECECFF" stroke="#ECECFF" stroke-width="0"/><rect x="598.2658127746582" y="336.65390625" width="23.261343677520752" height="130.34609375000002" fill="#ECECFF" stroke="#ECECFF" stroke-width="0"/><rect x="623.7716720701854" y="336.65390625" width="23.261343677520752" height="130.34609375000002" fill="#ECECFF" stroke="#ECECFF" stroke-width="0"/><rect x="649.2775313657125" y="459" width="23.261343677520752" height="8" fill="#ECECFF" stroke="#ECECFF" stroke-width="0"/><rect x="674.7833906612397" y="295.871875" width="23.261343677520752" height="171.128125" fill="#ECECFF" stroke="#ECECFF" stroke-width="0"/></g></g><g class="bottom-axis"><g class="axis-line"><path d="M 60.68750190734863,468 L 700,468" fill="none" stroke="#131300" stroke-width="2"/></g><g class="label"><text x="0" y="0" fill="#131300" font-size="14" dominant-baseline="text-before-edge" text-anchor="middle" transform="translate(74.27343940734863, 479) rotate(0)">2.25</text><text x="0" y="0" fill="#131300" font-size="14" dominant-baseline="text-before-edge" text-anchor="middle" transform="translate(99.77929870287578, 479) rotate(0)">26</text><text x="0" y="0" fill="#131300" font-size="14" dominant-baseline="text-before-edge" text-anchor="middle" transform="translate(125.28515799840292, 479) rotate(0)">27</text><text x="0" y="0" fill="#131300" font-size="14" dominant-baseline="text-before-edge" text-anchor="middle" transform="translate(150.79101729393005, 479) rotate(0)">28</text><text x="0" y="0" fill="#131300" font-size="14" dominant-baseline="text-before-edge" text-anchor="middle" transform="translate(176.2968765894572, 479) rotate(0)">3.1</text><text x="0" y="0" fill="#131300" font-size="14" dominant-baseline="text-before-edge" text-anchor="middle" transform="translate(201.80273588498434, 479) rotate(0)">2</text><text x="0" y="0" fill="#131300" font-size="14" dominant-baseline="text-before-edge" text-anchor="middle" transform="translate(227.30859518051147, 479) rotate(0)">3</text><text x="0" y="0" fill="#131300" font-size="14" dominant-baseline="text-before-edge" text-anchor="middle" transform="translate(252.81445447603863, 479) rotate(0)">4</text><text x="0" y="0" fill="#131300" font-size="14" dominant-baseline="text-before-edge" text-anchor="middle" transform="translate(278.3203137715658, 479) rotate(0)">5</text><text x="0" y="0" fill="#131300" font-size="14" dominant-baseline="text-before-edge" text-anchor="middle" transform="translate(303.8261730670929, 479) rotate(0)">6</text><text x="0" y="0" fill="#131300" font-size="14" dominant-baseline="text-before-edge" text-anchor="middle" transform="translate(329.33203236262005, 479) rotate(0)">7</text><text x="0" y="0" fill="#131300" font-size="14" dominant-baseline="text-before-edge" text-anchor="middle" transform="translate(354.8378916581472, 479) rotate(0)">8</text><text x="0" y="0" fill="#131300" font-size="14" dominant-baseline="text-before-edge" text-anchor="middle" transform="translate(380.3437509536743, 479) rotate(0)">9</text><text x="0" y="0" fill="#131300" font-size="14" dominant-baseline="text-before-edge" text-anchor="middle" transform="translate(405.8496102492015, 479) rotate(0)">10</text><text x="0" y="0" fill="#131300" font-size="14" dominant-baseline="text-before-edge" text-anchor="middle" transform="translate(431.35546954472863, 479) rotate(0)">11</text><text x="0" y="0" fill="#131300" font-size="14" dominant-baseline="text-before-edge" text-anchor="middle" transform="translate(456.86132884025574, 479) rotate(0)">12</text><text x="0" y="0" fill="#131300" font-size="14" dominant-baseline="text-before-edge" text-anchor="middle" transform="translate(482.3671881357829, 479) rotate(0)">13</text><text x="0" y="0" fill="#131300" font-size="14" dominant-baseline="text-before-edge" text-anchor="middle" transform="translate(507.87304743131006, 479) rotate(0)">14</text><text x="0" y="0" fill="#131300" font-size="14" dominant-baseline="text-before-edge" text-anchor="middle" transform="translate(533.3789067268372, 479) rotate(0)">15</text><text x="0" y="0" fill="#131300" font-size="14" dominant-baseline="text-before-edge" text-anchor="middle" transform="translate(558.8847660223644, 479) rotate(0)">16</text><text x="0" y="0" fill="#131300" font-size="14" dominant-baseline="text-before-edge" text-anchor="middle" transform="translate(584.3906253178915, 479) rotate(0)">17</text><text x="0" y="0" fill="#131300" font-size="14" dominant-baseline="text-before-edge" text-anchor="middle" transform="translate(609.8964846134186, 479) rotate(0)">18</text><text x="0" y="0" fill="#131300" font-size="14" dominant-baseline="text-before-edge" text-anchor="middle" transform="translate(635.4023439089458, 479) rotate(0)">19</text><text x="0" y="0" fill="#131300" font-size="14" dominant-baseline="text-before-edge" text-anchor="middle" transform="translate(660.9082032044729, 479) rotate(0)">20</text><text x="0" y="0" fill="#131300" font-size="14" dominant-baseline="text-before-edge" text-anchor="middle" transform="translate(686.4140625, 479) rotate(0)">21</text></g><g class="ticks"><path d="M 74.27343940734863,469 L 74.27343940734863,474" fill="none" stroke="#131300" stroke-width="2"/><path d="M 99.77929870287578,469 L 99.77929870287578,474" fill="none" stroke="#131300" stroke-width="2"/><path d="M 125.28515799840292,469 L 125.28515799840292,474" fill="none" stroke="#131300" stroke-width="2"/><path d="M 150.79101729393005,469 L 150.79101729393005,474" fill="none" stroke="#131300" stroke-width="2"/><path d="M 176.2968765894572,469 L 176.2968765894572,474" fill="none" stroke="#131300" stroke-width="2"/><path d="M 201.80273588498434,469 L 201.80273588498434,474" fill="none" stroke="#131300" stroke-width="2"/><path d="M 227.30859518051147,469 L 227.30859518051147,474" fill="none" stroke="#131300" stroke-width="2"/><path d="M 252.81445447603863,469 L 252.81445447603863,474" fill="none" stroke="#131300" stroke-width="2"/><path d="M 278.3203137715658,469 L 278.3203137715658,474" fill="none" stroke="#131300" stroke-width="2"/><path d="M 303.8261730670929,469 L 303.8261730670929,474" fill="none" stroke="#131300" stroke-width="2"/><path d="M 329.33203236262005,469 L 329.33203236262005,474" fill="none" stroke="#131300" stroke-width="2"/><path d="M 354.8378916581472,469 L 354.8378916581472,474" fill="none" stroke="#131300" stroke-width="2"/><path d="M 380.3437509536743,469 L 380.3437509536743,474" fill="none" stroke="#131300" stroke-width="2"/><path d="M 405.8496102492015,469 L 405.8496102492015,474" fill="none" stroke="#131300" stroke-width="2"/><path d="M 431.35546954472863,469 L 431.35546954472863,474" fill="none" stroke="#131300" stroke-width="2"/><path d="M 456.86132884025574,469 L 456.86132884025574,474" fill="none" stroke="#131300" stroke-width="2"/><path d="M 482.3671881357829,469 L 482.3671881357829,474" fill="none" stroke="#131300" stroke-width="2"/><path d="M 507.87304743131006,469 L 507.87304743131006,474" fill="none" stroke="#131300" stroke-width="2"/><path d="M 533.3789067268372,469 L 533.3789067268372,474" fill="none" stroke="#131300" stroke-width="2"/><path d="M 558.8847660223644,469 L 558.8847660223644,474" fill="none" stroke="#131300" stroke-width="2"/><path d="M 584.3906253178915,469 L 584.3906253178915,474" fill="none" stroke="#131300" stroke-width="2"/><path d="M 609.8964846134186,469 L 609.8964846134186,474" fill="none" stroke="#131300" stroke-width="2"/><path d="M 635.4023439089458,469 L 635.4023439089458,474" fill="none" stroke="#131300" stroke-width="2"/><path d="M 660.9082032044729,469 L 660.9082032044729,474" fill="none" stroke="#131300" stroke-width="2"/><path d="M 686.4140625,469 L 686.4140625,474" fill="none" stroke="#131300" stroke-width="2"/></g></g><g class="left-axis"><g class="axisl-line"><path d="M 59.68750190734863,43.1796875 L 59.68750190734863,467" fill="none" stroke="#131300" stroke-width="2"/></g><g class="label"><text x="0" y="0" fill="#131300" font-size="14" dominant-baseline="middle" text-anchor="end" transform="translate(48.68750190734863, 51.1796875) rotate(0)">10</text><text x="0" y="0" fill="#131300" font-size="14" dominant-baseline="middle" text-anchor="end" transform="translate(48.68750190734863, 91.96171874999999) rotate(0)">9</text><text x="0" y="0" fill="#131300" font-size="14" dominant-baseline="middle" text-anchor="end" transform="translate(48.68750190734863, 132.74374999999998) rotate(0)">8</text><text x="0" y="0" fill="#131300" font-size="14" dominant-baseline="middle" text-anchor="end" transform="translate(48.68750190734863, 173.52578125000002) rotate(0)">7</text><text x="0" y="0" fill="#131300" font-size="14" dominant-baseline="middle" text-anchor="end" transform="translate(48.68750190734863, 214.3078125) rotate(0)">6</text><text x="0" y="0" fill="#131300" font-size="14" dominant-baseline="middle" text-anchor="end" transform="translate(48.68750190734863, 255.08984375) rotate(0)">5</text><text x="0" y="0" fill="#131300" font-size="14" dominant-baseline="middle" text-anchor="end" transform="translate(48.68750190734863, 295.871875) rotate(0)">4</text><text x="0" y="0" fill="#131300" font-size="14" dominant-baseline="middle" text-anchor="end" transform="translate(48.68750190734863, 336.65390625) rotate(0)">3</text><text x="0" y="0" fill="#131300" font-size="14" dominant-baseline="middle" text-anchor="end" transform="translate(48.68750190734863, 377.4359375) rotate(0)">2</text><text x="0" y="0" fill="#131300" font-size="14" dominant-baseline="middle" text-anchor="end" transform="translate(48.68750190734863, 418.21796875) rotate(0)">1</text><text x="0" y="0" fill="#131300" font-size="14" dominant-baseline="middle" text-anchor="end" transform="translate(48.68750190734863, 459) rotate(0)">0</text></g><g class="ticks"><path d="M 58.68750190734863,51.1796875 L 53.68750190734863,51.1796875" fill="none" stroke="#131300" stroke-width="2"/><path d="M 58.68750190734863,91.96171874999999 L 53.68750190734863,91.96171874999999" fill="none" stroke="#131300" stroke-width="2"/><path d="M 58.68750190734863,132.74374999999998 L 53.68750190734863,132.74374999999998" fill="none" stroke="#131300" stroke-width="2"/><path d="M 58.68750190734863,173.52578125000002 L 53.68750190734863,173.52578125000002" fill="none" stroke="#131300" stroke-width="2"/><path d="M 58.68750190734863,214.3078125 L 53.68750190734863,214.3078125" fill="none" stroke="#131300" stroke-width="2"/><path d="M 58.68750190734863,255.08984375 L 53.68750190734863,255.08984375" fill="none" stroke="#131300" stroke-width="2"/><path d="M 58.68750190734863,295.871875 L 53.68750190734863,295.871875" fill="none" stroke="#131300" stroke-width="2"/><path d="M 58.68750190734863,336.65390625 L 53.68750190734863,336.65390625" fill="none" stroke="#131300" stroke-width="2"/><path d="M 58.68750190734863,377.4359375 L 53.68750190734863,377.4359375" fill="none" stroke="#131300" stroke-width="2"/><path d="M 58.68750190734863,418.21796875 L 53.68750190734863,418.21796875" fill="none" stroke="#131300" stroke-width="2"/><path d="M 58.68750190734863,459 L 53.68750190734863,459" fill="none" stroke="#131300" stroke-width="2"/></g><g class="title"><text x="0" y="0" fill="#131300" font-size="16" dominant-baseline="text-before-edge" text-anchor="middle" transform="translate(5, 255.08984375) rotate(270)">New Members</text></g></g></g><g class="mermaid-tmp-group"/></svg>