<svg id="my-svg" width="100%" xmlns="http://www.w3.org/2000/svg" xmlns:xlink="http://www.w3.org/1999/xlink" style="max-width: 700px; background-color: white;" viewBox="0 0 700 500" role="graphics-document document" aria-roledescription="xychart"><style>#my-svg{font-family:"trebuchet ms",verdana,arial,sans-serif;font-size:16px;fill:#333;}@keyframes edge-animation-frame{from{stroke-dashoffset:0;}}@keyframes dash{to{stroke-dashoffset:0;}}#my-svg .edge-animation-slow{stroke-dasharray:9,5!important;stroke-dashoffset:900;animation:dash 50s linear infinite;stroke-linecap:round;}#my-svg .edge-animation-fast{stroke-dasharray:9,5!important;stroke-dashoffset:900;animation:dash 20s linear infinite;stroke-linecap:round;}#my-svg .error-icon{fill:#552222;}#my-svg .error-text{fill:#552222;stroke:#552222;}#my-svg .edge-thickness-normal{stroke-width:1px;}#my-svg .edge-thickness-thick{stroke-width:3.5px;}#my-svg .edge-pattern-solid{stroke-dasharray:0;}#my-svg .edge-thickness-invisible{stroke-width:0;fill:none;}#my-svg .edge-pattern-dashed{stroke-dasharray:3;}#my-svg .edge-pattern-dotted{stroke-dasharray:2;}#my-svg .marker{fill:#333333;stroke:#333333;}#my-svg .marker.cross{stroke:#333333;}#my-svg svg{font-family:"trebuchet ms",verdana,arial,sans-serif;font-size:16px;}#my-svg p{margin:0;}#my-svg :root{--mermaid-font-family:"trebuchet ms",verdana,arial,sans-serif;}</style><g/><g class="main"><rect width="700" height="500" class="background" fill="white"/><g class="chart-title"><text x="0" y="0" fill="#131300" font-size="20" dominant-baseline="middle" text-anchor="middle" transform="translate(350, 21.58984375) rotate(0)">Daily Net Member Change (2026)</text></g><g class="plot"><g class="bar-plot-0"><rect x="67.6651031353257" y="459" width="13.216672544045881" height="8" fill="#ECECFF" stroke="#ECECFF" stroke-width="0"/><rect x="81.90093157934083" y="397.826953125" width="13.216672544045881" height="69.17304687500001" fill="#ECECFF" stroke="#ECECFF" stroke-width="0"/><rect x="96.13676002335599" y="397.826953125" width="13.216672544045881" height="69.17304687500001" fill="#ECECFF" stroke="#ECECFF" stroke-width="0"/><rect x="110.37258846737114" y="418.21796875" width="13.216672544045881" height="48.78203124999999" fill="#ECECFF" stroke="#ECECFF" stroke-width="0"/><rect x="124.60841691138629" y="336.65390625" width="13.216672544045881" height="130.34609375000002" fill="#ECECFF" stroke="#ECECFF" stroke-width="0"/><rect x="138.84424535540143" y="418.21796875" width="13.216672544045881" height="48.78203124999999" fill="#ECECFF" stroke="#ECECFF" stroke-width="0"/><rect x="153.0800737994166" y="459" width="13.216672544045881" height="8" fill="#ECECFF" stroke="#ECECFF" stroke-width="0"/><rect x="167.31590224343174" y="397.826953125" width="13.216672544045881" height="69.17304687500001" fill="#ECECFF" stroke="#ECECFF" stroke-width="0"/><rect x="181.55173068744688" y="438.608984375" width="13.216672544045881" height="28.391015625000023" fill="#ECECFF" stroke="#ECECFF" stroke-width="0"/><rect x="195.78755913146202" y="397.826953125" width="13.216672544045881" height="69.17304687500001" fill="#ECECFF" stroke="#ECECFF" stroke-width="0"/><rect x="210.02338757547716" y="336.65390625" width="13.216672544045881" height="130.34609375000002" fill="#ECECFF" stroke="#ECECFF" stroke-width="0"/><rect x="224.25921601949233" y="316.262890625" width="13.216672544045881" height="150.737109375" fill="#ECECFF" stroke="#ECECFF" stroke-width="0"/><rect x="238.49504446350747" y="295.871875" width="13.216672544045881" height="171.128125" fill="#ECECFF" stroke="#ECECFF" stroke-width="0"/><rect x="252.7308729075226" y="397.826953125" width="13.216672544045881" height="69.17304687500001" fill="#ECECFF" stroke="#ECECFF" stroke-width="0"/><rect x="266.9667013515378" y="397.826953125" width="13.216672544045881" height="69.17304687500001" fill="#ECECFF" stroke="#ECECFF" stroke-width="0"/><rect x="281.2025297955529" y="459" width="13.216672544045881" height="8" fill="#ECECFF" stroke="#ECECFF" stroke-width="0"/><rect x="295.43835823956806" y="459" width="13.216672544045881" height="8" fill="#ECECFF" stroke="#ECECFF" stroke-width="0"/><rect x="309.67418668358323" y="397.826953125" width="13.216672544045881" height="69.17304687500001" fill="#ECECFF" stroke="#ECECFF" stroke-width="0"/><rect x="323.91001512759834" y="357.044921875" width="13.216672544045881" height="109.955078125" fill="#ECECFF" stroke="#ECECFF" stroke-width="0"/><rect x="338.1458435716135" y="336.65390625" width="13.216672544045881" height="130.34609375000002" fill="#ECECFF" stroke="#ECECFF" stroke-width="0"/><rect x="352.3816720156286" y="397.826953125" width="13.216672544045881" height="69.17304687500001" fill="#ECECFF" stroke="#ECECFF" stroke-width="0"/><rect x="366.6175004596438" y="397.826953125" width="13.216672544045881" height="69.17304687500001" fill="#ECECFF" stroke="#ECECFF" stroke-width="0"/><rect x="380.85332890365896" y="397.826953125" width="13.216672544045881" height="69.17304687500001" fill="#ECECFF" stroke="#ECECFF" stroke-width="0"/><rect x="395.0891573476741" y="459" width="13.216672544045881" height="8" fill="#ECECFF" stroke="#ECECFF" stroke-width="0"/><rect x="409.32498579168924" y="377.4359375" width="13.216672544045881" height="89.56406249999998" fill="#ECECFF" stroke="#ECECFF" stroke-width="0"/><rect x="423.5608142357044" y="418.21796875" width="13.216672544045881" height="48.78203124999999" fill="#ECECFF" stroke="#ECECFF" stroke-width="0"/><rect x="437.7966426797195" y="459" width="13.216672544045881" height="8" fill="#ECECFF" stroke="#ECECFF" stroke-width="0"/><rect x="452.0324711237347" y="459" width="13.216672544045881" height="8" fill="#ECECFF" stroke="#ECECFF" stroke-width="0"/><rect x="466.26829956774986" y="459" width="13.216672544045881" height="8" fill="#ECECFF" stroke="#ECECFF" stroke-width="0"/><rect x="480.504128011765" y="459" width="13.216672544045881" height="8" fill="#ECECFF" stroke="#ECECFF" stroke-width="0"/><rect x="494.73995645578015" y="459" width="13.216672544045881" height="8" fill="#ECECFF" stroke="#ECECFF" stroke-width="0"/><rect x="508.97578489979526" y="459" width="13.216672544045881" height="8" fill="#ECECFF" stroke="#ECECFF" stroke-width="0"/><rect x="523.2116133438104" y="459" width="13.216672544045881" height="8" fill="#ECECFF" stroke="#ECECFF" stroke-width="0"/><rect x="537.4474417878256" y="459" width="13.216672544045881" height="8" fill="#ECECFF" stroke="#ECECFF" stroke-width="0"/><rect x="551.6832702318408" y="438.608984375" width="13.216672544045881" height="28.391015625000023" fill="#ECECFF" stroke="#ECECFF" stroke-width="0"/><rect x="565.9190986758559" y="438.608984375" width="13.216672544045881" height="28.391015625000023" fill="#ECECFF" stroke="#ECECFF" stroke-width="0"/><rect x="580.154927119871" y="418.21796875" width="13.216672544045881" height="48.78203124999999" fill="#ECECFF" stroke="#ECECFF" stroke-width="0"/><rect x="594.3907555638862" y="459" width="13.216672544045881" height="8" fill="#ECECFF" stroke="#ECECFF" stroke-width="0"/><rect x="608.6265840079013" y="112.35273437500001" width="13.216672544045881" height="354.647265625" fill="#ECECFF" stroke="#ECECFF" stroke-width="0"/><rect x="622.8624124519165" y="397.826953125" width="13.216672544045881" height="69.17304687500001" fill="#ECECFF" stroke="#ECECFF" stroke-width="0"/><rect x="637.0982408959316" y="459" width="13.216672544045881" height="8" fill="#ECECFF" stroke="#ECECFF" stroke-width="0"/><rect x="651.3340693399467" y="397.826953125" width="13.216672544045881" height="69.17304687500001" fill="#ECECFF" stroke="#ECECFF" stroke-width="0"/><rect x="665.5698977839619" y="459" width="13.216672544045881" height="8" fill="#ECECFF" stroke="#ECECFF" stroke-width="0"/><rect x="679.8057262279771" y="316.262890625" width="13.216672544045881" height="150.737109375" fill="#ECECFF" stroke="#ECECFF" stroke-width="0"/></g></g><g class="bottom-axis"><g class="axis-line"><path d="M 60.68750190734863,468 L 700,468" fill="none" stroke="#131300" stroke-width="2"/></g><g class="label"><text x="0" y="0" fill="#131300" font-size="14" dominant-baseline="text-before-edge" text-anchor="middle" transform="translate(74.27343940734863, 479) rotate(0)">2.25</text><text x="0" y="0" fill="#131300" font-size="14" dominant-baseline="text-before-edge" text-anchor="middle" transform="translate(88.50926785136377, 479) rotate(0)">‚Äč‚Äč</text><text x="0" y="0" fill="#131300" font-size="14" dominant-baseline="text-before-edge" text-anchor="middle" transform="translate(102.74509629537893, 479) rotate(0)">‚Äč‚Äč‚Äč</text><text x="0" y="0" fill="#131300" font-size="14" dominant-baseline="text-before-edge" text-anchor="middle" transform="translate(116.98092473939408, 479) rotate(0)">‚Äč‚Äč‚Äč‚Äč</text><text x="0" y="0" fill="#131300" font-size="14" dominant-baseline="text-before-edge" text-anchor="middle" transform="translate(131.21675318340922, 479) rotate(0)">3.1</text><text x="0" y="0" fill="#131300" font-size="14" dominant-baseline="text-before-edge" text-anchor="middle" transform="translate(145.45258162742437, 479) rotate(0)">‚Äč‚Äč‚Äč‚Äč‚Äč‚Äč</text><text x="0" y="0" fill="#131300" font-size="14" dominant-baseline="text-before-edge" text-anchor="middle" transform="translate(159.68841007143953, 479) rotate(0)">‚Äč‚Äč‚Äč‚Äč‚Äč‚Äč‚Äč</text><text x="0" y="0" fill="#131300" font-size="14" dominant-baseline="text-before-edge" text-anchor="middle" transform="translate(173.92423851545468, 479) rotate(0)">‚Äč‚Äč‚Äč‚Äč‚Äč‚Äč‚Äč‚Äč</text><text x="0" y="0" fill="#131300" font-size="14" dominant-baseline="text-before-edge" text-anchor="middle" transform="translate(188.16006695946982, 479) rotate(0)">‚Äč‚Äč‚Äč‚Äč‚Äč‚Äč‚Äč‚Äč‚Äč</text><text x="0" y="0" fill="#131300" font-size="14" dominant-baseline="text-before-edge" text-anchor="middle" transform="translate(202.39589540348496, 479) rotate(0)">‚Äč‚Äč‚Äč‚Äč‚Äč‚Äč‚Äč‚Äč‚Äč‚Äč</text><text x="0" y="0" fill="#131300" font-size="14" dominant-baseline="text-before-edge" text-anchor="middle" transform="translate(216.6317238475001, 479) rotate(0)">‚Äč‚Äč‚Äč‚Äč‚Äč‚Äč‚Äč‚Äč‚Äč‚Äč‚Äč</text><text x="0" y="0" fill="#131300" font-size="14" dominant-baseline="text-before-edge" text-anchor="middle" transform="translate(230.86755229151527, 479) rotate(0)">3.8</text><text x="0" y="0" fill="#131300" font-size="14" dominant-baseline="text-before-edge" text-anchor="middle" transform="translate(245.1033807355304, 479) rotate(0)">‚Äč‚Äč‚Äč‚Äč‚Äč‚Äč‚Äč‚Äč‚Äč‚Äč‚Äč‚Äč‚Äč</text><text x="0" y="0" fill="#131300" font-size="14" dominant-baseline="text-before-edge" text-anchor="middle" transform="translate(259.33920917954555, 479) rotate(0)">‚Äč‚Äč‚Äč‚Äč‚Äč‚Äč‚Äč‚Äč‚Äč‚Äč‚Äč‚Äč‚Äč‚Äč</text><text x="0" y="0" fill="#131300" font-size="14" dominant-baseline="text-before-edge" text-anchor="middle" transform="translate(273.5750376235607, 479) rotate(0)">‚Äč‚Äč‚Äč‚Äč‚Äč‚Äč‚Äč‚Äč‚Äč‚Äč‚Äč‚Äč‚Äč‚Äč‚Äč</text><text x="0" y="0" fill="#131300" font-size="14" dominant-baseline="text-before-edge" text-anchor="middle" transform="translate(287.81086606757583, 479) rotate(0)">‚Äč‚Äč‚Äč‚Äč‚Äč‚Äč‚Äč‚Äč‚Äč‚Äč‚Äč‚Äč‚Äč‚Äč‚Äč‚Äč</text><text x="0" y="0" fill="#131300" font-size="14" dominant-baseline="text-before-edge" text-anchor="middle" transform="translate(302.046694511591, 479) rotate(0)">‚Äč‚Äč‚Äč‚Äč‚Äč‚Äč‚Äč‚Äč‚Äč‚Äč‚Äč‚Äč‚Äč‚Äč‚Äč‚Äč‚Äč</text><text x="0" y="0" fill="#131300" font-size="14" dominant-baseline="text-before-edge" text-anchor="middle" transform="translate(316.28252295560617, 479) rotate(0)">‚Äč‚Äč‚Äč‚Äč‚Äč‚Äč‚Äč‚Äč‚Äč‚Äč‚Äč‚Äč‚Äč‚Äč‚Äč‚Äč‚Äč‚Äč</text><text x="0" y="0" fill="#131300" font-size="14" dominant-baseline="text-before-edge" text-anchor="middle" transform="translate(330.5183513996213, 479) rotate(0)">3.15</text><text x="0" y="0" fill="#131300" font-size="14" dominant-baseline="text-before-edge" text-anchor="middle" transform="translate(344.75417984363645, 479) rotate(0)">‚Äč‚Äč‚Äč‚Äč‚Äč‚Äč‚Äč‚Äč‚Äč‚Äč‚Äč‚Äč‚Äč‚Äč‚Äč‚Äč‚Äč‚Äč‚Äč‚Äč</text><text x="0" y="0" fill="#131300" font-size="14" dominant-baseline="text-before-edge" text-anchor="middle" transform="translate(358.99000828765156, 479) rotate(0)">‚Äč‚Äč‚Äč‚Äč‚Äč‚Äč‚Äč‚Äč‚Äč‚Äč‚Äč‚Äč‚Äč‚Äč‚Äč‚Äč‚Äč‚Äč‚Äč‚Äč‚Äč</text><text x="0" y="0" fill="#131300" font-size="14" dominant-baseline="text-before-edge" text-anchor="middle" transform="translate(373.22583673166673, 479) rotate(0)">‚Äč‚Äč‚Äč‚Äč‚Äč‚Äč‚Äč‚Äč‚Äč‚Äč‚Äč‚Äč‚Äč‚Äč‚Äč‚Äč‚Äč‚Äč‚Äč‚Äč‚Äč‚Äč</text><text x="0" y="0" fill="#131300" font-size="14" dominant-baseline="text-before-edge" text-anchor="middle" transform="translate(387.4616651756819, 479) rotate(0)">‚Äč‚Äč‚Äč‚Äč‚Äč‚Äč‚Äč‚Äč‚Äč‚Äč‚Äč‚Äč‚Äč‚Äč‚Äč‚Äč‚Äč‚Äč‚Äč‚Äč‚Äč‚Äč‚Äč</text><text x="0" y="0" fill="#131300" font-size="14" dominant-baseline="text-before-edge" text-anchor="middle" transform="translate(401.697493619697, 479) rotate(0)">‚Äč‚Äč‚Äč‚Äč‚Äč‚Äč‚Äč‚Äč‚Äč‚Äč‚Äč‚Äč‚Äč‚Äč‚Äč‚Äč‚Äč‚Äč‚Äč‚Äč‚Äč‚Äč‚Äč‚Äč</text><text x="0" y="0" fill="#131300" font-size="14" dominant-baseline="text-before-edge" text-anchor="middle" transform="translate(415.9333220637122, 479) rotate(0)">‚Äč‚Äč‚Äč‚Äč‚Äč‚Äč‚Äč‚Äč‚Äč‚Äč‚Äč‚Äč‚Äč‚Äč‚Äč‚Äč‚Äč‚Äč‚Äč‚Äč‚Äč‚Äč‚Äč‚Äč‚Äč</text><text x="0" y="0" fill="#131300" font-size="14" dominant-baseline="text-before-edge" text-anchor="middle" transform="translate(430.16915050772735, 479) rotate(0)">3.22</text><text x="0" y="0" fill="#131300" font-size="14" dominant-baseline="text-before-edge" text-anchor="middle" transform="translate(444.40497895174246, 479) rotate(0)">‚Äč‚Äč‚Äč‚Äč‚Äč‚Äč‚Äč‚Äč‚Äč‚Äč‚Äč‚Äč‚Äč‚Äč‚Äč‚Äč‚Äč‚Äč‚Äč‚Äč‚Äč‚Äč‚Äč‚Äč‚Äč‚Äč‚Äč</text><text x="0" y="0" fill="#131300" font-size="14" dominant-baseline="text-before-edge" text-anchor="middle" transform="translate(458.64080739575763, 479) rotate(0)">‚Äč‚Äč‚Äč‚Äč‚Äč‚Äč‚Äč‚Äč‚Äč‚Äč‚Äč‚Äč‚Äč‚Äč‚Äč‚Äč‚Äč‚Äč‚Äč‚Äč‚Äč‚Äč‚Äč‚Äč‚Äč‚Äč‚Äč‚Äč</text><text x="0" y="0" fill="#131300" font-size="14" dominant-baseline="text-before-edge" text-anchor="middle" transform="translate(472.8766358397728, 479) rotate(0)">‚Äč‚Äč‚Äč‚Äč‚Äč‚Äč‚Äč‚Äč‚Äč‚Äč‚Äč‚Äč‚Äč‚Äč‚Äč‚Äč‚Äč‚Äč‚Äč‚Äč‚Äč‚Äč‚Äč‚Äč‚Äč‚Äč‚Äč‚Äč‚Äč</text><text x="0" y="0" fill="#131300" font-size="14" dominant-baseline="text-before-edge" text-anchor="middle" transform="translate(487.1124642837879, 479) rotate(0)">‚Äč‚Äč‚Äč‚Äč‚Äč‚Äč‚Äč‚Äč‚Äč‚Äč‚Äč‚Äč‚Äč‚Äč‚Äč‚Äč‚Äč‚Äč‚Äč‚Äč‚Äč‚Äč‚Äč‚Äč‚Äč‚Äč‚Äč‚Äč‚Äč‚Äč</text><text x="0" y="0" fill="#131300" font-size="14" dominant-baseline="text-before-edge" text-anchor="middle" transform="translate(501.3482927278031, 479) rotate(0)">‚Äč‚Äč‚Äč‚Äč‚Äč‚Äč‚Äč‚Äč‚Äč‚Äč‚Äč‚Äč‚Äč‚Äč‚Äč‚Äč‚Äč‚Äč‚Äč‚Äč‚Äč‚Äč‚Äč‚Äč‚Äč‚Äč‚Äč‚Äč‚Äč‚Äč‚Äč</text><text x="0" y="0" fill="#131300" font-size="14" dominant-baseline="text-before-edge" text-anchor="middle" transform="translate(515.5841211718182, 479) rotate(0)">‚Äč‚Äč‚Äč‚Äč‚Äč‚Äč‚Äč‚Äč‚Äč‚Äč‚Äč‚Äč‚Äč‚Äč‚Äč‚Äč‚Äč‚Äč‚Äč‚Äč‚Äč‚Äč‚Äč‚Äč‚Äč‚Äč‚Äč‚Äč‚Äč‚Äč‚Äč‚Äč</text><text x="0" y="0" fill="#131300" font-size="14" dominant-baseline="text-before-edge" text-anchor="middle" transform="translate(529.8199496158334, 479) rotate(0)">3.29</text><text x="0" y="0" fill="#131300" font-size="14" dominant-baseline="text-before-edge" text-anchor="middle" transform="translate(544.0557780598485, 479) rotate(0)">‚Äč‚Äč‚Äč‚Äč‚Äč‚Äč‚Äč‚Äč‚Äč‚Äč‚Äč‚Äč‚Äč‚Äč‚Äč‚Äč‚Äč‚Äč‚Äč‚Äč‚Äč‚Äč‚Äč‚Äč‚Äč‚Äč‚Äč‚Äč‚Äč‚Äč‚Äč‚Äč‚Äč‚Äč</text><text x="0" y="0" fill="#131300" font-size="14" dominant-baseline="text-before-edge" text-anchor="middle" transform="translate(558.2916065038637, 479) rotate(0)">‚Äč‚Äč‚Äč‚Äč‚Äč‚Äč‚Äč‚Äč‚Äč‚Äč‚Äč‚Äč‚Äč‚Äč‚Äč‚Äč‚Äč‚Äč‚Äč‚Äč‚Äč‚Äč‚Äč‚Äč‚Äč‚Äč‚Äč‚Äč‚Äč‚Äč‚Äč‚Äč‚Äč‚Äč‚Äč</text><text x="0" y="0" fill="#131300" font-size="14" dominant-baseline="text-before-edge" text-anchor="middle" transform="translate(572.5274349478789, 479) rotate(0)">4.1</text><text x="0" y="0" fill="#131300" font-size="14" dominant-baseline="text-before-edge" text-anchor="middle" transform="translate(586.7632633918939, 479) rotate(0)">‚Äč‚Äč‚Äč‚Äč‚Äč‚Äč‚Äč‚Äč‚Äč‚Äč‚Äč‚Äč‚Äč‚Äč‚Äč‚Äč‚Äč‚Äč‚Äč‚Äč‚Äč‚Äč‚Äč‚Äč‚Äč‚Äč‚Äč‚Äč‚Äč‚Äč‚Äč‚Äč‚Äč‚Äč‚Äč‚Äč‚Äč</text><text x="0" y="0" fill="#131300" font-size="14" dominant-baseline="text-before-edge" text-anchor="middle" transform="translate(600.9990918359091, 479) rotate(0)">‚Äč‚Äč‚Äč‚Äč‚Äč‚Äč‚Äč‚Äč‚Äč‚Äč‚Äč‚Äč‚Äč‚Äč‚Äč‚Äč‚Äč‚Äč‚Äč‚Äč‚Äč‚Äč‚Äč‚Äč‚Äč‚Äč‚Äč‚Äč‚Äč‚Äč‚Äč‚Äč‚Äč‚Äč‚Äč‚Äč‚Äč‚Äč</text><text x="0" y="0" fill="#131300" font-size="14" dominant-baseline="text-before-edge" text-anchor="middle" transform="translate(615.2349202799243, 479) rotate(0)">‚Äč‚Äč‚Äč‚Äč‚Äč‚Äč‚Äč‚Äč‚Äč‚Äč‚Äč‚Äč‚Äč‚Äč‚Äč‚Äč‚Äč‚Äč‚Äč‚Äč‚Äč‚Äč‚Äč‚Äč‚Äč‚Äč‚Äč‚Äč‚Äč‚Äč‚Äč‚Äč‚Äč‚Äč‚Äč‚Äč‚Äč‚Äč‚Äč</text><text x="0" y="0" fill="#131300" font-size="14" dominant-baseline="text-before-edge" text-anchor="middle" transform="translate(629.4707487239394, 479) rotate(0)">‚Äč‚Äč‚Äč‚Äč‚Äč‚Äč‚Äč‚Äč‚Äč‚Äč‚Äč‚Äč‚Äč‚Äč‚Äč‚Äč‚Äč‚Äč‚Äč‚Äč‚Äč‚Äč‚Äč‚Äč‚Äč‚Äč‚Äč‚Äč‚Äč‚Äč‚Äč‚Äč‚Äč‚Äč‚Äč‚Äč‚Äč‚Äč‚Äč‚Äč</text><text x="0" y="0" fill="#131300" font-size="14" dominant-baseline="text-before-edge" text-anchor="middle" transform="translate(643.7065771679545, 479) rotate(0)">‚Äč‚Äč‚Äč‚Äč‚Äč‚Äč‚Äč‚Äč‚Äč‚Äč‚Äč‚Äč‚Äč‚Äč‚Äč‚Äč‚Äč‚Äč‚Äč‚Äč‚Äč‚Äč‚Äč‚Äč‚Äč‚Äč‚Äč‚Äč‚Äč‚Äč‚Äč‚Äč‚Äč‚Äč‚Äč‚Äč‚Äč‚Äč‚Äč‚Äč‚Äč</text><text x="0" y="0" fill="#131300" font-size="14" dominant-baseline="text-before-edge" text-anchor="middle" transform="translate(657.9424056119697, 479) rotate(0)">‚Äč‚Äč‚Äč‚Äč‚Äč‚Äč‚Äč‚Äč‚Äč‚Äč‚Äč‚Äč‚Äč‚Äč‚Äč‚Äč‚Äč‚Äč‚Äč‚Äč‚Äč‚Äč‚Äč‚Äč‚Äč‚Äč‚Äč‚Äč‚Äč‚Äč‚Äč‚Äč‚Äč‚Äč‚Äč‚Äč‚Äč‚Äč‚Äč‚Äč‚Äč‚Äč</text><text x="0" y="0" fill="#131300" font-size="14" dominant-baseline="text-before-edge" text-anchor="middle" transform="translate(672.1782340559848, 479) rotate(0)">4.8</text><text x="0" y="0" fill="#131300" font-size="14" dominant-baseline="text-before-edge" text-anchor="middle" transform="translate(686.4140625, 479) rotate(0)">4.9</text></g><g class="ticks"><path d="M 74.27343940734863,469 L 74.27343940734863,474" fill="none" stroke="#131300" stroke-width="2"/><path d="M 88.50926785136377,469 L 88.50926785136377,474" fill="none" stroke="#131300" stroke-width="2"/><path d="M 102.74509629537893,469 L 102.74509629537893,474" fill="none" stroke="#131300" stroke-width="2"/><path d="M 116.98092473939408,469 L 116.98092473939408,474" fill="none" stroke="#131300" stroke-width="2"/><path d="M 131.21675318340922,469 L 131.21675318340922,474" fill="none" stroke="#131300" stroke-width="2"/><path d="M 145.45258162742437,469 L 145.45258162742437,474" fill="none" stroke="#131300" stroke-width="2"/><path d="M 159.68841007143953,469 L 159.68841007143953,474" fill="none" stroke="#131300" stroke-width="2"/><path d="M 173.92423851545468,469 L 173.92423851545468,474" fill="none" stroke="#131300" stroke-width="2"/><path d="M 188.16006695946982,469 L 188.16006695946982,474" fill="none" stroke="#131300" stroke-width="2"/><path d="M 202.39589540348496,469 L 202.39589540348496,474" fill="none" stroke="#131300" stroke-width="2"/><path d="M 216.6317238475001,469 L 216.6317238475001,474" fill="none" stroke="#131300" stroke-width="2"/><path d="M 230.86755229151527,469 L 230.86755229151527,474" fill="none" stroke="#131300" stroke-width="2"/><path d="M 245.1033807355304,469 L 245.1033807355304,474" fill="none" stroke="#131300" stroke-width="2"/><path d="M 259.33920917954555,469 L 259.33920917954555,474" fill="none" stroke="#131300" stroke-width="2"/><path d="M 273.5750376235607,469 L 273.5750376235607,474" fill="none" stroke="#131300" stroke-width="2"/><path d="M 287.81086606757583,469 L 287.81086606757583,474" fill="none" stroke="#131300" stroke-width="2"/><path d="M 302.046694511591,469 L 302.046694511591,474" fill="none" stroke="#131300" stroke-width="2"/><path d="M 316.28252295560617,469 L 316.28252295560617,474" fill="none" stroke="#131300" stroke-width="2"/><path d="M 330.5183513996213,469 L 330.5183513996213,474" fill="none" stroke="#131300" stroke-width="2"/><path d="M 344.75417984363645,469 L 344.75417984363645,474" fill="none" stroke="#131300" stroke-width="2"/><path d="M 358.99000828765156,469 L 358.99000828765156,474" fill="none" stroke="#131300" stroke-width="2"/><path d="M 373.22583673166673,469 L 373.22583673166673,474" fill="none" stroke="#131300" stroke-width="2"/><path d="M 387.4616651756819,469 L 387.4616651756819,474" fill="none" stroke="#131300" stroke-width="2"/><path d="M 401.697493619697,469 L 401.697493619697,474" fill="none" stroke="#131300" stroke-width="2"/><path d="M 415.9333220637122,469 L 415.9333220637122,474" fill="none" stroke="#131300" stroke-width="2"/><path d="M 430.16915050772735,469 L 430.16915050772735,474" fill="none" stroke="#131300" stroke-width="2"/><path d="M 444.40497895174246,469 L 444.40497895174246,474" fill="none" stroke="#131300" stroke-width="2"/><path d="M 458.64080739575763,469 L 458.64080739575763,474" fill="none" stroke="#131300" stroke-width="2"/><path d="M 472.8766358397728,469 L 472.8766358397728,474" fill="none" stroke="#131300" stroke-width="2"/><path d="M 487.1124642837879,469 L 487.1124642837879,474" fill="none" stroke="#131300" stroke-width="2"/><path d="M 501.3482927278031,469 L 501.3482927278031,474" fill="none" stroke="#131300" stroke-width="2"/><path d="M 515.5841211718182,469 L 515.5841211718182,474" fill="none" stroke="#131300" stroke-width="2"/><path d="M 529.8199496158334,469 L 529.8199496158334,474" fill="none" stroke="#131300" stroke-width="2"/><path d="M 544.0557780598485,469 L 544.0557780598485,474" fill="none" stroke="#131300" stroke-width="2"/><path d="M 558.2916065038637,469 L 558.2916065038637,474" fill="none" stroke="#131300" stroke-width="2"/><path d="M 572.5274349478789,469 L 572.5274349478789,474" fill="none" stroke="#131300" stroke-width="2"/><path d="M 586.7632633918939,469 L 586.7632633918939,474" fill="none" stroke="#131300" stroke-width="2"/><path d="M 600.9990918359091,469 L 600.9990918359091,474" fill="none" stroke="#131300" stroke-width="2"/><path d="M 615.2349202799243,469 L 615.2349202799243,474" fill="none" stroke="#131300" stroke-width="2"/><path d="M 629.4707487239394,469 L 629.4707487239394,474" fill="none" stroke="#131300" stroke-width="2"/><path d="M 643.7065771679545,469 L 643.7065771679545,474" fill="none" stroke="#131300" stroke-width="2"/><path d="M 657.9424056119697,469 L 657.9424056119697,474" fill="none" stroke="#131300" stroke-width="2"/><path d="M 672.1782340559848,469 L 672.1782340559848,474" fill="none" stroke="#131300" stroke-width="2"/><path d="M 686.4140625,469 L 686.4140625,474" fill="none" stroke="#131300" stroke-width="2"/></g></g><g class="left-axis"><g class="axisl-line"><path d="M 59.68750190734863,43.1796875 L 59.68750190734863,467" fill="none" stroke="#131300" stroke-width="2"/></g><g class="label"><text x="0" y="0" fill="#131300" font-size="14" dominant-baseline="middle" text-anchor="end" transform="translate(48.68750190734863, 51.1796875) rotate(0)">20</text><text x="0" y="0" fill="#131300" font-size="14" dominant-baseline="middle" text-anchor="end" transform="translate(48.68750190734863, 91.96171874999999) rotate(0)">18</text><text x="0" y="0" fill="#131300" font-size="14" dominant-baseline="middle" text-anchor="end" transform="translate(48.68750190734863, 132.74374999999998) rotate(0)">16</text><text x="0" y="0" fill="#131300" font-size="14" dominant-baseline="middle" text-anchor="end" transform="translate(48.68750190734863, 173.52578125000002) rotate(0)">14</text><text x="0" y="0" fill="#131300" font-size="14" dominant-baseline="middle" text-anchor="end" transform="translate(48.68750190734863, 214.3078125) rotate(0)">12</text><text x="0" y="0" fill="#131300" font-size="14" dominant-baseline="middle" text-anchor="end" transform="translate(48.68750190734863, 255.08984375) rotate(0)">10</text><text x="0" y="0" fill="#131300" font-size="14" dominant-baseline="middle" text-anchor="end" transform="translate(48.68750190734863, 295.871875) rotate(0)">8</text><text x="0" y="0" fill="#131300" font-size="14" dominant-baseline="middle" text-anchor="end" transform="translate(48.68750190734863, 336.65390625) rotate(0)">6</text><text x="0" y="0" fill="#131300" font-size="14" dominant-baseline="middle" text-anchor="end" transform="translate(48.68750190734863, 377.4359375) rotate(0)">4</text><text x="0" y="0" fill="#131300" font-size="14" dominant-baseline="middle" text-anchor="end" transform="translate(48.68750190734863, 418.21796875) rotate(0)">2</text><text x="0" y="0" fill="#131300" font-size="14" dominant-baseline="middle" text-anchor="end" transform="translate(48.68750190734863, 459) rotate(0)">0</text></g><g class="ticks"><path d="M 58.68750190734863,51.1796875 L 53.68750190734863,51.1796875" fill="none" stroke="#131300" stroke-width="2"/><path d="M 58.68750190734863,91.96171874999999 L 53.68750190734863,91.96171874999999" fill="none" stroke="#131300" stroke-width="2"/><path d="M 58.68750190734863,132.74374999999998 L 53.68750190734863,132.74374999999998" fill="none" stroke="#131300" stroke-width="2"/><path d="M 58.68750190734863,173.52578125000002 L 53.68750190734863,173.52578125000002" fill="none" stroke="#131300" stroke-width="2"/><path d="M 58.68750190734863,214.3078125 L 53.68750190734863,214.3078125" fill="none" stroke="#131300" stroke-width="2"/><path d="M 58.68750190734863,255.08984375 L 53.68750190734863,255.08984375" fill="none" stroke="#131300" stroke-width="2"/><path d="M 58.68750190734863,295.871875 L 53.68750190734863,295.871875" fill="none" stroke="#131300" stroke-width="2"/><path d="M 58.68750190734863,336.65390625 L 53.68750190734863,336.65390625" fill="none" stroke="#131300" stroke-width="2"/><path d="M 58.68750190734863,377.4359375 L 53.68750190734863,377.4359375" fill="none" stroke="#131300" stroke-width="2"/><path d="M 58.68750190734863,418.21796875 L 53.68750190734863,418.21796875" fill="none" stroke="#131300" stroke-width="2"/><path d="M 58.68750190734863,459 L 53.68750190734863,459" fill="none" stroke="#131300" stroke-width="2"/></g><g class="title"><text x="0" y="0" fill="#131300" font-size="16" dominant-baseline="text-before-edge" text-anchor="middle" transform="translate(5, 255.08984375) rotate(270)">New Members</text></g></g></g><g class="mermaid-tmp-group"/></svg>