<svg id="my-svg" width="100%" xmlns="http://www.w3.org/2000/svg" xmlns:xlink="http://www.w3.org/1999/xlink" style="max-width: 700px; background-color: white;" viewBox="0 0 700 500" role="graphics-document document" aria-roledescription="xychart"><style>#my-svg{font-family:"trebuchet ms",verdana,arial,sans-serif;font-size:16px;fill:#333;}@keyframes edge-animation-frame{from{stroke-dashoffset:0;}}@keyframes dash{to{stroke-dashoffset:0;}}#my-svg .edge-animation-slow{stroke-dasharray:9,5!important;stroke-dashoffset:900;animation:dash 50s linear infinite;stroke-linecap:round;}#my-svg .edge-animation-fast{stroke-dasharray:9,5!important;stroke-dashoffset:900;animation:dash 20s linear infinite;stroke-linecap:round;}#my-svg .error-icon{fill:#552222;}#my-svg .error-text{fill:#552222;stroke:#552222;}#my-svg .edge-thickness-normal{stroke-width:1px;}#my-svg .edge-thickness-thick{stroke-width:3.5px;}#my-svg .edge-pattern-solid{stroke-dasharray:0;}#my-svg .edge-thickness-invisible{stroke-width:0;fill:none;}#my-svg .edge-pattern-dashed{stroke-dasharray:3;}#my-svg .edge-pattern-dotted{stroke-dasharray:2;}#my-svg .marker{fill:#333333;stroke:#333333;}#my-svg .marker.cross{stroke:#333333;}#my-svg svg{font-family:"trebuchet ms",verdana,arial,sans-serif;font-size:16px;}#my-svg p{margin:0;}#my-svg :root{--mermaid-font-family:"trebuchet ms",verdana,arial,sans-serif;}</style><g/><g class="main"><rect width="700" height="500" class="background" fill="white"/><g class="chart-title"><text x="0" y="0" fill="#131300" font-size="20" dominant-baseline="middle" text-anchor="middle" transform="translate(350, 21.58984375) rotate(0)">Daily Net Member Change (2026)</text></g><g class="plot"><g class="bar-plot-0"><rect x="67.35042045570555" y="459" width="13.846037903286161" height="8" fill="#ECECFF" stroke="#ECECFF" stroke-width="0"/><rect x="82.2806795555263" y="397.826953125" width="13.846037903286161" height="69.17304687500001" fill="#ECECFF" stroke="#ECECFF" stroke-width="0"/><rect x="97.21093865534708" y="397.826953125" width="13.846037903286161" height="69.17304687500001" fill="#ECECFF" stroke="#ECECFF" stroke-width="0"/><rect x="112.14119775516784" y="418.21796875" width="13.846037903286161" height="48.78203124999999" fill="#ECECFF" stroke="#ECECFF" stroke-width="0"/><rect x="127.07145685498861" y="336.65390625" width="13.846037903286161" height="130.34609375000002" fill="#ECECFF" stroke="#ECECFF" stroke-width="0"/><rect x="142.00171595480936" y="418.21796875" width="13.846037903286161" height="48.78203124999999" fill="#ECECFF" stroke="#ECECFF" stroke-width="0"/><rect x="156.93197505463013" y="459" width="13.846037903286161" height="8" fill="#ECECFF" stroke="#ECECFF" stroke-width="0"/><rect x="171.8622341544509" y="397.826953125" width="13.846037903286161" height="69.17304687500001" fill="#ECECFF" stroke="#ECECFF" stroke-width="0"/><rect x="186.79249325427168" y="438.608984375" width="13.846037903286161" height="28.391015625000023" fill="#ECECFF" stroke="#ECECFF" stroke-width="0"/><rect x="201.72275235409242" y="397.826953125" width="13.846037903286161" height="69.17304687500001" fill="#ECECFF" stroke="#ECECFF" stroke-width="0"/><rect x="216.6530114539132" y="336.65390625" width="13.846037903286161" height="130.34609375000002" fill="#ECECFF" stroke="#ECECFF" stroke-width="0"/><rect x="231.58327055373397" y="316.262890625" width="13.846037903286161" height="150.737109375" fill="#ECECFF" stroke="#ECECFF" stroke-width="0"/><rect x="246.5135296535547" y="295.871875" width="13.846037903286161" height="171.128125" fill="#ECECFF" stroke="#ECECFF" stroke-width="0"/><rect x="261.4437887533755" y="397.826953125" width="13.846037903286161" height="69.17304687500001" fill="#ECECFF" stroke="#ECECFF" stroke-width="0"/><rect x="276.37404785319626" y="397.826953125" width="13.846037903286161" height="69.17304687500001" fill="#ECECFF" stroke="#ECECFF" stroke-width="0"/><rect x="291.30430695301703" y="459" width="13.846037903286161" height="8" fill="#ECECFF" stroke="#ECECFF" stroke-width="0"/><rect x="306.2345660528378" y="459" width="13.846037903286161" height="8" fill="#ECECFF" stroke="#ECECFF" stroke-width="0"/><rect x="321.1648251526586" y="397.826953125" width="13.846037903286161" height="69.17304687500001" fill="#ECECFF" stroke="#ECECFF" stroke-width="0"/><rect x="336.0950842524793" y="357.044921875" width="13.846037903286161" height="109.955078125" fill="#ECECFF" stroke="#ECECFF" stroke-width="0"/><rect x="351.02534335230007" y="336.65390625" width="13.846037903286161" height="130.34609375000002" fill="#ECECFF" stroke="#ECECFF" stroke-width="0"/><rect x="365.95560245212084" y="397.826953125" width="13.846037903286161" height="69.17304687500001" fill="#ECECFF" stroke="#ECECFF" stroke-width="0"/><rect x="380.8858615519416" y="397.826953125" width="13.846037903286161" height="69.17304687500001" fill="#ECECFF" stroke="#ECECFF" stroke-width="0"/><rect x="395.8161206517624" y="397.826953125" width="13.846037903286161" height="69.17304687500001" fill="#ECECFF" stroke="#ECECFF" stroke-width="0"/><rect x="410.7463797515831" y="459" width="13.846037903286161" height="8" fill="#ECECFF" stroke="#ECECFF" stroke-width="0"/><rect x="425.6766388514039" y="377.4359375" width="13.846037903286161" height="89.56406249999998" fill="#ECECFF" stroke="#ECECFF" stroke-width="0"/><rect x="440.60689795122465" y="418.21796875" width="13.846037903286161" height="48.78203124999999" fill="#ECECFF" stroke="#ECECFF" stroke-width="0"/><rect x="455.5371570510454" y="459" width="13.846037903286161" height="8" fill="#ECECFF" stroke="#ECECFF" stroke-width="0"/><rect x="470.4674161508662" y="459" width="13.846037903286161" height="8" fill="#ECECFF" stroke="#ECECFF" stroke-width="0"/><rect x="485.397675250687" y="459" width="13.846037903286161" height="8" fill="#ECECFF" stroke="#ECECFF" stroke-width="0"/><rect x="500.3279343505077" y="459" width="13.846037903286161" height="8" fill="#ECECFF" stroke="#ECECFF" stroke-width="0"/><rect x="515.2581934503286" y="459" width="13.846037903286161" height="8" fill="#ECECFF" stroke="#ECECFF" stroke-width="0"/><rect x="530.1884525501492" y="459" width="13.846037903286161" height="8" fill="#ECECFF" stroke="#ECECFF" stroke-width="0"/><rect x="545.1187116499701" y="459" width="13.846037903286161" height="8" fill="#ECECFF" stroke="#ECECFF" stroke-width="0"/><rect x="560.0489707497908" y="459" width="13.846037903286161" height="8" fill="#ECECFF" stroke="#ECECFF" stroke-width="0"/><rect x="574.9792298496117" y="438.608984375" width="13.846037903286161" height="28.391015625000023" fill="#ECECFF" stroke="#ECECFF" stroke-width="0"/><rect x="589.9094889494323" y="438.608984375" width="13.846037903286161" height="28.391015625000023" fill="#ECECFF" stroke="#ECECFF" stroke-width="0"/><rect x="604.8397480492531" y="418.21796875" width="13.846037903286161" height="48.78203124999999" fill="#ECECFF" stroke="#ECECFF" stroke-width="0"/><rect x="619.7700071490739" y="459" width="13.846037903286161" height="8" fill="#ECECFF" stroke="#ECECFF" stroke-width="0"/><rect x="634.7002662488946" y="112.35273437500001" width="13.846037903286161" height="354.647265625" fill="#ECECFF" stroke="#ECECFF" stroke-width="0"/><rect x="649.6305253487154" y="397.826953125" width="13.846037903286161" height="69.17304687500001" fill="#ECECFF" stroke="#ECECFF" stroke-width="0"/><rect x="664.5607844485362" y="459" width="13.846037903286161" height="8" fill="#ECECFF" stroke="#ECECFF" stroke-width="0"/><rect x="679.491043548357" y="397.826953125" width="13.846037903286161" height="69.17304687500001" fill="#ECECFF" stroke="#ECECFF" stroke-width="0"/></g></g><g class="bottom-axis"><g class="axis-line"><path d="M 60.68750190734863,468 L 700,468" fill="none" stroke="#131300" stroke-width="2"/></g><g class="label"><text x="0" y="0" fill="#131300" font-size="14" dominant-baseline="text-before-edge" text-anchor="middle" transform="translate(74.27343940734863, 479) rotate(0)">2.25</text><text x="0" y="0" fill="#131300" font-size="14" dominant-baseline="text-before-edge" text-anchor="middle" transform="translate(89.20369850716939, 479) rotate(0)">‚Äč‚Äč</text><text x="0" y="0" fill="#131300" font-size="14" dominant-baseline="text-before-edge" text-anchor="middle" transform="translate(104.13395760699017, 479) rotate(0)">‚Äč‚Äč‚Äč</text><text x="0" y="0" fill="#131300" font-size="14" dominant-baseline="text-before-edge" text-anchor="middle" transform="translate(119.06421670681092, 479) rotate(0)">‚Äč‚Äč‚Äč‚Äč</text><text x="0" y="0" fill="#131300" font-size="14" dominant-baseline="text-before-edge" text-anchor="middle" transform="translate(133.9944758066317, 479) rotate(0)">3.1</text><text x="0" y="0" fill="#131300" font-size="14" dominant-baseline="text-before-edge" text-anchor="middle" transform="translate(148.92473490645244, 479) rotate(0)">‚Äč‚Äč‚Äč‚Äč‚Äč‚Äč</text><text x="0" y="0" fill="#131300" font-size="14" dominant-baseline="text-before-edge" text-anchor="middle" transform="translate(163.85499400627322, 479) rotate(0)">‚Äč‚Äč‚Äč‚Äč‚Äč‚Äč‚Äč</text><text x="0" y="0" fill="#131300" font-size="14" dominant-baseline="text-before-edge" text-anchor="middle" transform="translate(178.785253106094, 479) rotate(0)">‚Äč‚Äč‚Äč‚Äč‚Äč‚Äč‚Äč‚Äč</text><text x="0" y="0" fill="#131300" font-size="14" dominant-baseline="text-before-edge" text-anchor="middle" transform="translate(193.71551220591476, 479) rotate(0)">‚Äč‚Äč‚Äč‚Äč‚Äč‚Äč‚Äč‚Äč‚Äč</text><text x="0" y="0" fill="#131300" font-size="14" dominant-baseline="text-before-edge" text-anchor="middle" transform="translate(208.6457713057355, 479) rotate(0)">‚Äč‚Äč‚Äč‚Äč‚Äč‚Äč‚Äč‚Äč‚Äč‚Äč</text><text x="0" y="0" fill="#131300" font-size="14" dominant-baseline="text-before-edge" text-anchor="middle" transform="translate(223.57603040555628, 479) rotate(0)">‚Äč‚Äč‚Äč‚Äč‚Äč‚Äč‚Äč‚Äč‚Äč‚Äč‚Äč</text><text x="0" y="0" fill="#131300" font-size="14" dominant-baseline="text-before-edge" text-anchor="middle" transform="translate(238.50628950537705, 479) rotate(0)">3.8</text><text x="0" y="0" fill="#131300" font-size="14" dominant-baseline="text-before-edge" text-anchor="middle" transform="translate(253.4365486051978, 479) rotate(0)">‚Äč‚Äč‚Äč‚Äč‚Äč‚Äč‚Äč‚Äč‚Äč‚Äč‚Äč‚Äč‚Äč</text><text x="0" y="0" fill="#131300" font-size="14" dominant-baseline="text-before-edge" text-anchor="middle" transform="translate(268.3668077050186, 479) rotate(0)">‚Äč‚Äč‚Äč‚Äč‚Äč‚Äč‚Äč‚Äč‚Äč‚Äč‚Äč‚Äč‚Äč‚Äč</text><text x="0" y="0" fill="#131300" font-size="14" dominant-baseline="text-before-edge" text-anchor="middle" transform="translate(283.29706680483935, 479) rotate(0)">‚Äč‚Äč‚Äč‚Äč‚Äč‚Äč‚Äč‚Äč‚Äč‚Äč‚Äč‚Äč‚Äč‚Äč‚Äč</text><text x="0" y="0" fill="#131300" font-size="14" dominant-baseline="text-before-edge" text-anchor="middle" transform="translate(298.2273259046601, 479) rotate(0)">‚Äč‚Äč‚Äč‚Äč‚Äč‚Äč‚Äč‚Äč‚Äč‚Äč‚Äč‚Äč‚Äč‚Äč‚Äč‚Äč</text><text x="0" y="0" fill="#131300" font-size="14" dominant-baseline="text-before-edge" text-anchor="middle" transform="translate(313.1575850044809, 479) rotate(0)">‚Äč‚Äč‚Äč‚Äč‚Äč‚Äč‚Äč‚Äč‚Äč‚Äč‚Äč‚Äč‚Äč‚Äč‚Äč‚Äč‚Äč</text><text x="0" y="0" fill="#131300" font-size="14" dominant-baseline="text-before-edge" text-anchor="middle" transform="translate(328.08784410430167, 479) rotate(0)">‚Äč‚Äč‚Äč‚Äč‚Äč‚Äč‚Äč‚Äč‚Äč‚Äč‚Äč‚Äč‚Äč‚Äč‚Äč‚Äč‚Äč‚Äč</text><text x="0" y="0" fill="#131300" font-size="14" dominant-baseline="text-before-edge" text-anchor="middle" transform="translate(343.0181032041224, 479) rotate(0)">3.15</text><text x="0" y="0" fill="#131300" font-size="14" dominant-baseline="text-before-edge" text-anchor="middle" transform="translate(357.94836230394316, 479) rotate(0)">‚Äč‚Äč‚Äč‚Äč‚Äč‚Äč‚Äč‚Äč‚Äč‚Äč‚Äč‚Äč‚Äč‚Äč‚Äč‚Äč‚Äč‚Äč‚Äč‚Äč</text><text x="0" y="0" fill="#131300" font-size="14" dominant-baseline="text-before-edge" text-anchor="middle" transform="translate(372.87862140376393, 479) rotate(0)">‚Äč‚Äč‚Äč‚Äč‚Äč‚Äč‚Äč‚Äč‚Äč‚Äč‚Äč‚Äč‚Äč‚Äč‚Äč‚Äč‚Äč‚Äč‚Äč‚Äč‚Äč</text><text x="0" y="0" fill="#131300" font-size="14" dominant-baseline="text-before-edge" text-anchor="middle" transform="translate(387.8088805035847, 479) rotate(0)">‚Äč‚Äč‚Äč‚Äč‚Äč‚Äč‚Äč‚Äč‚Äč‚Äč‚Äč‚Äč‚Äč‚Äč‚Äč‚Äč‚Äč‚Äč‚Äč‚Äč‚Äč‚Äč</text><text x="0" y="0" fill="#131300" font-size="14" dominant-baseline="text-before-edge" text-anchor="middle" transform="translate(402.7391396034055, 479) rotate(0)">‚Äč‚Äč‚Äč‚Äč‚Äč‚Äč‚Äč‚Äč‚Äč‚Äč‚Äč‚Äč‚Äč‚Äč‚Äč‚Äč‚Äč‚Äč‚Äč‚Äč‚Äč‚Äč‚Äč</text><text x="0" y="0" fill="#131300" font-size="14" dominant-baseline="text-before-edge" text-anchor="middle" transform="translate(417.6693987032262, 479) rotate(0)">‚Äč‚Äč‚Äč‚Äč‚Äč‚Äč‚Äč‚Äč‚Äč‚Äč‚Äč‚Äč‚Äč‚Äč‚Äč‚Äč‚Äč‚Äč‚Äč‚Äč‚Äč‚Äč‚Äč‚Äč</text><text x="0" y="0" fill="#131300" font-size="14" dominant-baseline="text-before-edge" text-anchor="middle" transform="translate(432.59965780304697, 479) rotate(0)">‚Äč‚Äč‚Äč‚Äč‚Äč‚Äč‚Äč‚Äč‚Äč‚Äč‚Äč‚Äč‚Äč‚Äč‚Äč‚Äč‚Äč‚Äč‚Äč‚Äč‚Äč‚Äč‚Äč‚Äč‚Äč</text><text x="0" y="0" fill="#131300" font-size="14" dominant-baseline="text-before-edge" text-anchor="middle" transform="translate(447.52991690286774, 479) rotate(0)">3.22</text><text x="0" y="0" fill="#131300" font-size="14" dominant-baseline="text-before-edge" text-anchor="middle" transform="translate(462.4601760026885, 479) rotate(0)">‚Äč‚Äč‚Äč‚Äč‚Äč‚Äč‚Äč‚Äč‚Äč‚Äč‚Äč‚Äč‚Äč‚Äč‚Äč‚Äč‚Äč‚Äč‚Äč‚Äč‚Äč‚Äč‚Äč‚Äč‚Äč‚Äč‚Äč</text><text x="0" y="0" fill="#131300" font-size="14" dominant-baseline="text-before-edge" text-anchor="middle" transform="translate(477.3904351025093, 479) rotate(0)">‚Äč‚Äč‚Äč‚Äč‚Äč‚Äč‚Äč‚Äč‚Äč‚Äč‚Äč‚Äč‚Äč‚Äč‚Äč‚Äč‚Äč‚Äč‚Äč‚Äč‚Äč‚Äč‚Äč‚Äč‚Äč‚Äč‚Äč‚Äč</text><text x="0" y="0" fill="#131300" font-size="14" dominant-baseline="text-before-edge" text-anchor="middle" transform="translate(492.32069420233006, 479) rotate(0)">‚Äč‚Äč‚Äč‚Äč‚Äč‚Äč‚Äč‚Äč‚Äč‚Äč‚Äč‚Äč‚Äč‚Äč‚Äč‚Äč‚Äč‚Äč‚Äč‚Äč‚Äč‚Äč‚Äč‚Äč‚Äč‚Äč‚Äč‚Äč‚Äč</text><text x="0" y="0" fill="#131300" font-size="14" dominant-baseline="text-before-edge" text-anchor="middle" transform="translate(507.2509533021508, 479) rotate(0)">‚Äč‚Äč‚Äč‚Äč‚Äč‚Äč‚Äč‚Äč‚Äč‚Äč‚Äč‚Äč‚Äč‚Äč‚Äč‚Äč‚Äč‚Äč‚Äč‚Äč‚Äč‚Äč‚Äč‚Äč‚Äč‚Äč‚Äč‚Äč‚Äč‚Äč</text><text x="0" y="0" fill="#131300" font-size="14" dominant-baseline="text-before-edge" text-anchor="middle" transform="translate(522.1812124019716, 479) rotate(0)">‚Äč‚Äč‚Äč‚Äč‚Äč‚Äč‚Äč‚Äč‚Äč‚Äč‚Äč‚Äč‚Äč‚Äč‚Äč‚Äč‚Äč‚Äč‚Äč‚Äč‚Äč‚Äč‚Äč‚Äč‚Äč‚Äč‚Äč‚Äč‚Äč‚Äč‚Äč</text><text x="0" y="0" fill="#131300" font-size="14" dominant-baseline="text-before-edge" text-anchor="middle" transform="translate(537.1114715017923, 479) rotate(0)">‚Äč‚Äč‚Äč‚Äč‚Äč‚Äč‚Äč‚Äč‚Äč‚Äč‚Äč‚Äč‚Äč‚Äč‚Äč‚Äč‚Äč‚Äč‚Äč‚Äč‚Äč‚Äč‚Äč‚Äč‚Äč‚Äč‚Äč‚Äč‚Äč‚Äč‚Äč‚Äč</text><text x="0" y="0" fill="#131300" font-size="14" dominant-baseline="text-before-edge" text-anchor="middle" transform="translate(552.0417306016132, 479) rotate(0)">3.29</text><text x="0" y="0" fill="#131300" font-size="14" dominant-baseline="text-before-edge" text-anchor="middle" transform="translate(566.9719897014338, 479) rotate(0)">‚Äč‚Äč‚Äč‚Äč‚Äč‚Äč‚Äč‚Äč‚Äč‚Äč‚Äč‚Äč‚Äč‚Äč‚Äč‚Äč‚Äč‚Äč‚Äč‚Äč‚Äč‚Äč‚Äč‚Äč‚Äč‚Äč‚Äč‚Äč‚Äč‚Äč‚Äč‚Äč‚Äč‚Äč</text><text x="0" y="0" fill="#131300" font-size="14" dominant-baseline="text-before-edge" text-anchor="middle" transform="translate(581.9022488012547, 479) rotate(0)">‚Äč‚Äč‚Äč‚Äč‚Äč‚Äč‚Äč‚Äč‚Äč‚Äč‚Äč‚Äč‚Äč‚Äč‚Äč‚Äč‚Äč‚Äč‚Äč‚Äč‚Äč‚Äč‚Äč‚Äč‚Äč‚Äč‚Äč‚Äč‚Äč‚Äč‚Äč‚Äč‚Äč‚Äč‚Äč</text><text x="0" y="0" fill="#131300" font-size="14" dominant-baseline="text-before-edge" text-anchor="middle" transform="translate(596.8325079010754, 479) rotate(0)">4.1</text><text x="0" y="0" fill="#131300" font-size="14" dominant-baseline="text-before-edge" text-anchor="middle" transform="translate(611.7627670008961, 479) rotate(0)">‚Äč‚Äč‚Äč‚Äč‚Äč‚Äč‚Äč‚Äč‚Äč‚Äč‚Äč‚Äč‚Äč‚Äč‚Äč‚Äč‚Äč‚Äč‚Äč‚Äč‚Äč‚Äč‚Äč‚Äč‚Äč‚Äč‚Äč‚Äč‚Äč‚Äč‚Äč‚Äč‚Äč‚Äč‚Äč‚Äč‚Äč</text><text x="0" y="0" fill="#131300" font-size="14" dominant-baseline="text-before-edge" text-anchor="middle" transform="translate(626.6930261007169, 479) rotate(0)">‚Äč‚Äč‚Äč‚Äč‚Äč‚Äč‚Äč‚Äč‚Äč‚Äč‚Äč‚Äč‚Äč‚Äč‚Äč‚Äč‚Äč‚Äč‚Äč‚Äč‚Äč‚Äč‚Äč‚Äč‚Äč‚Äč‚Äč‚Äč‚Äč‚Äč‚Äč‚Äč‚Äč‚Äč‚Äč‚Äč‚Äč‚Äč</text><text x="0" y="0" fill="#131300" font-size="14" dominant-baseline="text-before-edge" text-anchor="middle" transform="translate(641.6232852005377, 479) rotate(0)">‚Äč‚Äč‚Äč‚Äč‚Äč‚Äč‚Äč‚Äč‚Äč‚Äč‚Äč‚Äč‚Äč‚Äč‚Äč‚Äč‚Äč‚Äč‚Äč‚Äč‚Äč‚Äč‚Äč‚Äč‚Äč‚Äč‚Äč‚Äč‚Äč‚Äč‚Äč‚Äč‚Äč‚Äč‚Äč‚Äč‚Äč‚Äč‚Äč</text><text x="0" y="0" fill="#131300" font-size="14" dominant-baseline="text-before-edge" text-anchor="middle" transform="translate(656.5535443003585, 479) rotate(0)">‚Äč‚Äč‚Äč‚Äč‚Äč‚Äč‚Äč‚Äč‚Äč‚Äč‚Äč‚Äč‚Äč‚Äč‚Äč‚Äč‚Äč‚Äč‚Äč‚Äč‚Äč‚Äč‚Äč‚Äč‚Äč‚Äč‚Äč‚Äč‚Äč‚Äč‚Äč‚Äč‚Äč‚Äč‚Äč‚Äč‚Äč‚Äč‚Äč‚Äč</text><text x="0" y="0" fill="#131300" font-size="14" dominant-baseline="text-before-edge" text-anchor="middle" transform="translate(671.4838034001792, 479) rotate(0)">‚Äč‚Äč‚Äč‚Äč‚Äč‚Äč‚Äč‚Äč‚Äč‚Äč‚Äč‚Äč‚Äč‚Äč‚Äč‚Äč‚Äč‚Äč‚Äč‚Äč‚Äč‚Äč‚Äč‚Äč‚Äč‚Äč‚Äč‚Äč‚Äč‚Äč‚Äč‚Äč‚Äč‚Äč‚Äč‚Äč‚Äč‚Äč‚Äč‚Äč‚Äč</text><text x="0" y="0" fill="#131300" font-size="14" dominant-baseline="text-before-edge" text-anchor="middle" transform="translate(686.4140625, 479) rotate(0)">4.7</text></g><g class="ticks"><path d="M 74.27343940734863,469 L 74.27343940734863,474" fill="none" stroke="#131300" stroke-width="2"/><path d="M 89.20369850716939,469 L 89.20369850716939,474" fill="none" stroke="#131300" stroke-width="2"/><path d="M 104.13395760699017,469 L 104.13395760699017,474" fill="none" stroke="#131300" stroke-width="2"/><path d="M 119.06421670681092,469 L 119.06421670681092,474" fill="none" stroke="#131300" stroke-width="2"/><path d="M 133.9944758066317,469 L 133.9944758066317,474" fill="none" stroke="#131300" stroke-width="2"/><path d="M 148.92473490645244,469 L 148.92473490645244,474" fill="none" stroke="#131300" stroke-width="2"/><path d="M 163.85499400627322,469 L 163.85499400627322,474" fill="none" stroke="#131300" stroke-width="2"/><path d="M 178.785253106094,469 L 178.785253106094,474" fill="none" stroke="#131300" stroke-width="2"/><path d="M 193.71551220591476,469 L 193.71551220591476,474" fill="none" stroke="#131300" stroke-width="2"/><path d="M 208.6457713057355,469 L 208.6457713057355,474" fill="none" stroke="#131300" stroke-width="2"/><path d="M 223.57603040555628,469 L 223.57603040555628,474" fill="none" stroke="#131300" stroke-width="2"/><path d="M 238.50628950537705,469 L 238.50628950537705,474" fill="none" stroke="#131300" stroke-width="2"/><path d="M 253.4365486051978,469 L 253.4365486051978,474" fill="none" stroke="#131300" stroke-width="2"/><path d="M 268.3668077050186,469 L 268.3668077050186,474" fill="none" stroke="#131300" stroke-width="2"/><path d="M 283.29706680483935,469 L 283.29706680483935,474" fill="none" stroke="#131300" stroke-width="2"/><path d="M 298.2273259046601,469 L 298.2273259046601,474" fill="none" stroke="#131300" stroke-width="2"/><path d="M 313.1575850044809,469 L 313.1575850044809,474" fill="none" stroke="#131300" stroke-width="2"/><path d="M 328.08784410430167,469 L 328.08784410430167,474" fill="none" stroke="#131300" stroke-width="2"/><path d="M 343.0181032041224,469 L 343.0181032041224,474" fill="none" stroke="#131300" stroke-width="2"/><path d="M 357.94836230394316,469 L 357.94836230394316,474" fill="none" stroke="#131300" stroke-width="2"/><path d="M 372.87862140376393,469 L 372.87862140376393,474" fill="none" stroke="#131300" stroke-width="2"/><path d="M 387.8088805035847,469 L 387.8088805035847,474" fill="none" stroke="#131300" stroke-width="2"/><path d="M 402.7391396034055,469 L 402.7391396034055,474" fill="none" stroke="#131300" stroke-width="2"/><path d="M 417.6693987032262,469 L 417.6693987032262,474" fill="none" stroke="#131300" stroke-width="2"/><path d="M 432.59965780304697,469 L 432.59965780304697,474" fill="none" stroke="#131300" stroke-width="2"/><path d="M 447.52991690286774,469 L 447.52991690286774,474" fill="none" stroke="#131300" stroke-width="2"/><path d="M 462.4601760026885,469 L 462.4601760026885,474" fill="none" stroke="#131300" stroke-width="2"/><path d="M 477.3904351025093,469 L 477.3904351025093,474" fill="none" stroke="#131300" stroke-width="2"/><path d="M 492.32069420233006,469 L 492.32069420233006,474" fill="none" stroke="#131300" stroke-width="2"/><path d="M 507.2509533021508,469 L 507.2509533021508,474" fill="none" stroke="#131300" stroke-width="2"/><path d="M 522.1812124019716,469 L 522.1812124019716,474" fill="none" stroke="#131300" stroke-width="2"/><path d="M 537.1114715017923,469 L 537.1114715017923,474" fill="none" stroke="#131300" stroke-width="2"/><path d="M 552.0417306016132,469 L 552.0417306016132,474" fill="none" stroke="#131300" stroke-width="2"/><path d="M 566.9719897014338,469 L 566.9719897014338,474" fill="none" stroke="#131300" stroke-width="2"/><path d="M 581.9022488012547,469 L 581.9022488012547,474" fill="none" stroke="#131300" stroke-width="2"/><path d="M 596.8325079010754,469 L 596.8325079010754,474" fill="none" stroke="#131300" stroke-width="2"/><path d="M 611.7627670008961,469 L 611.7627670008961,474" fill="none" stroke="#131300" stroke-width="2"/><path d="M 626.6930261007169,469 L 626.6930261007169,474" fill="none" stroke="#131300" stroke-width="2"/><path d="M 641.6232852005377,469 L 641.6232852005377,474" fill="none" stroke="#131300" stroke-width="2"/><path d="M 656.5535443003585,469 L 656.5535443003585,474" fill="none" stroke="#131300" stroke-width="2"/><path d="M 671.4838034001792,469 L 671.4838034001792,474" fill="none" stroke="#131300" stroke-width="2"/><path d="M 686.4140625,469 L 686.4140625,474" fill="none" stroke="#131300" stroke-width="2"/></g></g><g class="left-axis"><g class="axisl-line"><path d="M 59.68750190734863,43.1796875 L 59.68750190734863,467" fill="none" stroke="#131300" stroke-width="2"/></g><g class="label"><text x="0" y="0" fill="#131300" font-size="14" dominant-baseline="middle" text-anchor="end" transform="translate(48.68750190734863, 51.1796875) rotate(0)">20</text><text x="0" y="0" fill="#131300" font-size="14" dominant-baseline="middle" text-anchor="end" transform="translate(48.68750190734863, 91.96171874999999) rotate(0)">18</text><text x="0" y="0" fill="#131300" font-size="14" dominant-baseline="middle" text-anchor="end" transform="translate(48.68750190734863, 132.74374999999998) rotate(0)">16</text><text x="0" y="0" fill="#131300" font-size="14" dominant-baseline="middle" text-anchor="end" transform="translate(48.68750190734863, 173.52578125000002) rotate(0)">14</text><text x="0" y="0" fill="#131300" font-size="14" dominant-baseline="middle" text-anchor="end" transform="translate(48.68750190734863, 214.3078125) rotate(0)">12</text><text x="0" y="0" fill="#131300" font-size="14" dominant-baseline="middle" text-anchor="end" transform="translate(48.68750190734863, 255.08984375) rotate(0)">10</text><text x="0" y="0" fill="#131300" font-size="14" dominant-baseline="middle" text-anchor="end" transform="translate(48.68750190734863, 295.871875) rotate(0)">8</text><text x="0" y="0" fill="#131300" font-size="14" dominant-baseline="middle" text-anchor="end" transform="translate(48.68750190734863, 336.65390625) rotate(0)">6</text><text x="0" y="0" fill="#131300" font-size="14" dominant-baseline="middle" text-anchor="end" transform="translate(48.68750190734863, 377.4359375) rotate(0)">4</text><text x="0" y="0" fill="#131300" font-size="14" dominant-baseline="middle" text-anchor="end" transform="translate(48.68750190734863, 418.21796875) rotate(0)">2</text><text x="0" y="0" fill="#131300" font-size="14" dominant-baseline="middle" text-anchor="end" transform="translate(48.68750190734863, 459) rotate(0)">0</text></g><g class="ticks"><path d="M 58.68750190734863,51.1796875 L 53.68750190734863,51.1796875" fill="none" stroke="#131300" stroke-width="2"/><path d="M 58.68750190734863,91.96171874999999 L 53.68750190734863,91.96171874999999" fill="none" stroke="#131300" stroke-width="2"/><path d="M 58.68750190734863,132.74374999999998 L 53.68750190734863,132.74374999999998" fill="none" stroke="#131300" stroke-width="2"/><path d="M 58.68750190734863,173.52578125000002 L 53.68750190734863,173.52578125000002" fill="none" stroke="#131300" stroke-width="2"/><path d="M 58.68750190734863,214.3078125 L 53.68750190734863,214.3078125" fill="none" stroke="#131300" stroke-width="2"/><path d="M 58.68750190734863,255.08984375 L 53.68750190734863,255.08984375" fill="none" stroke="#131300" stroke-width="2"/><path d="M 58.68750190734863,295.871875 L 53.68750190734863,295.871875" fill="none" stroke="#131300" stroke-width="2"/><path d="M 58.68750190734863,336.65390625 L 53.68750190734863,336.65390625" fill="none" stroke="#131300" stroke-width="2"/><path d="M 58.68750190734863,377.4359375 L 53.68750190734863,377.4359375" fill="none" stroke="#131300" stroke-width="2"/><path d="M 58.68750190734863,418.21796875 L 53.68750190734863,418.21796875" fill="none" stroke="#131300" stroke-width="2"/><path d="M 58.68750190734863,459 L 53.68750190734863,459" fill="none" stroke="#131300" stroke-width="2"/></g><g class="title"><text x="0" y="0" fill="#131300" font-size="16" dominant-baseline="text-before-edge" text-anchor="middle" transform="translate(5, 255.08984375) rotate(270)">New Members</text></g></g></g><g class="mermaid-tmp-group"/></svg>