<svg id="my-svg" width="100%" xmlns="http://www.w3.org/2000/svg" xmlns:xlink="http://www.w3.org/1999/xlink" style="max-width: 700px; background-color: white;" viewBox="0 0 700 500" role="graphics-document document" aria-roledescription="xychart"><style>#my-svg{font-family:"trebuchet ms",verdana,arial,sans-serif;font-size:16px;fill:#333;}@keyframes edge-animation-frame{from{stroke-dashoffset:0;}}@keyframes dash{to{stroke-dashoffset:0;}}#my-svg .edge-animation-slow{stroke-dasharray:9,5!important;stroke-dashoffset:900;animation:dash 50s linear infinite;stroke-linecap:round;}#my-svg .edge-animation-fast{stroke-dasharray:9,5!important;stroke-dashoffset:900;animation:dash 20s linear infinite;stroke-linecap:round;}#my-svg .error-icon{fill:#552222;}#my-svg .error-text{fill:#552222;stroke:#552222;}#my-svg .edge-thickness-normal{stroke-width:1px;}#my-svg .edge-thickness-thick{stroke-width:3.5px;}#my-svg .edge-pattern-solid{stroke-dasharray:0;}#my-svg .edge-thickness-invisible{stroke-width:0;fill:none;}#my-svg .edge-pattern-dashed{stroke-dasharray:3;}#my-svg .edge-pattern-dotted{stroke-dasharray:2;}#my-svg .marker{fill:#333333;stroke:#333333;}#my-svg .marker.cross{stroke:#333333;}#my-svg svg{font-family:"trebuchet ms",verdana,arial,sans-serif;font-size:16px;}#my-svg p{margin:0;}#my-svg :root{--mermaid-font-family:"trebuchet ms",verdana,arial,sans-serif;}</style><g/><g class="main"><rect width="700" height="500" class="background" fill="white"/><g class="chart-title"><text x="0" y="0" fill="#131300" font-size="20" dominant-baseline="middle" text-anchor="middle" transform="translate(350, 21.58984375) rotate(0)">Daily Net Member Change (2026)</text></g><g class="plot"><g class="bar-plot-0"><rect x="61.36679878234863" y="459" width="25.81328125" height="8" fill="#ECECFF" stroke="#ECECFF" stroke-width="0"/><rect x="95.37461117638483" y="336.65390625" width="25.81328125" height="130.34609375000002" fill="#ECECFF" stroke="#ECECFF" stroke-width="0"/><rect x="129.38242357042103" y="336.65390625" width="25.81328125" height="130.34609375000002" fill="#ECECFF" stroke="#ECECFF" stroke-width="0"/><rect x="163.3902359644572" y="377.4359375" width="25.81328125" height="89.56406249999998" fill="#ECECFF" stroke="#ECECFF" stroke-width="0"/><rect x="197.39804835849338" y="214.3078125" width="25.81328125" height="252.6921875" fill="#ECECFF" stroke="#ECECFF" stroke-width="0"/><rect x="231.40586075252958" y="377.4359375" width="25.81328125" height="89.56406249999998" fill="#ECECFF" stroke="#ECECFF" stroke-width="0"/><rect x="265.4136731465657" y="459" width="25.81328125" height="8" fill="#ECECFF" stroke="#ECECFF" stroke-width="0"/><rect x="299.4214855406019" y="336.65390625" width="25.81328125" height="130.34609375000002" fill="#ECECFF" stroke="#ECECFF" stroke-width="0"/><rect x="333.4292979346381" y="418.21796875" width="25.81328125" height="48.78203124999999" fill="#ECECFF" stroke="#ECECFF" stroke-width="0"/><rect x="367.4371103286743" y="336.65390625" width="25.81328125" height="130.34609375000002" fill="#ECECFF" stroke="#ECECFF" stroke-width="0"/><rect x="401.4449227227105" y="214.3078125" width="25.81328125" height="252.6921875" fill="#ECECFF" stroke="#ECECFF" stroke-width="0"/><rect x="435.4527351167467" y="173.52578125000002" width="25.81328125" height="293.47421875" fill="#ECECFF" stroke="#ECECFF" stroke-width="0"/><rect x="469.4605475107828" y="132.74374999999998" width="25.81328125" height="334.25625" fill="#ECECFF" stroke="#ECECFF" stroke-width="0"/><rect x="503.46835990481907" y="336.65390625" width="25.81328125" height="130.34609375000002" fill="#ECECFF" stroke="#ECECFF" stroke-width="0"/><rect x="537.4761722988552" y="336.65390625" width="25.81328125" height="130.34609375000002" fill="#ECECFF" stroke="#ECECFF" stroke-width="0"/><rect x="571.4839846928913" y="459" width="25.81328125" height="8" fill="#ECECFF" stroke="#ECECFF" stroke-width="0"/><rect x="605.4917970869276" y="459" width="25.81328125" height="8" fill="#ECECFF" stroke="#ECECFF" stroke-width="0"/><rect x="639.4996094809637" y="336.65390625" width="25.81328125" height="130.34609375000002" fill="#ECECFF" stroke="#ECECFF" stroke-width="0"/><rect x="673.507421875" y="255.08984375" width="25.81328125" height="211.91015625" fill="#ECECFF" stroke="#ECECFF" stroke-width="0"/></g></g><g class="bottom-axis"><g class="axis-line"><path d="M 60.68750190734863,468 L 700,468" fill="none" stroke="#131300" stroke-width="2"/></g><g class="label"><text x="0" y="0" fill="#131300" font-size="14" dominant-baseline="text-before-edge" text-anchor="middle" transform="translate(74.27343940734863, 479) rotate(0)">2.25</text><text x="0" y="0" fill="#131300" font-size="14" dominant-baseline="text-before-edge" text-anchor="middle" transform="translate(108.28125180138483, 479) rotate(0)">26</text><text x="0" y="0" fill="#131300" font-size="14" dominant-baseline="text-before-edge" text-anchor="middle" transform="translate(142.28906419542102, 479) rotate(0)">27</text><text x="0" y="0" fill="#131300" font-size="14" dominant-baseline="text-before-edge" text-anchor="middle" transform="translate(176.29687658945718, 479) rotate(0)">28</text><text x="0" y="0" fill="#131300" font-size="14" dominant-baseline="text-before-edge" text-anchor="middle" transform="translate(210.30468898349338, 479) rotate(0)">3.1</text><text x="0" y="0" fill="#131300" font-size="14" dominant-baseline="text-before-edge" text-anchor="middle" transform="translate(244.31250137752957, 479) rotate(0)">2</text><text x="0" y="0" fill="#131300" font-size="14" dominant-baseline="text-before-edge" text-anchor="middle" transform="translate(278.32031377156574, 479) rotate(0)">3</text><text x="0" y="0" fill="#131300" font-size="14" dominant-baseline="text-before-edge" text-anchor="middle" transform="translate(312.32812616560193, 479) rotate(0)">4</text><text x="0" y="0" fill="#131300" font-size="14" dominant-baseline="text-before-edge" text-anchor="middle" transform="translate(346.3359385596381, 479) rotate(0)">5</text><text x="0" y="0" fill="#131300" font-size="14" dominant-baseline="text-before-edge" text-anchor="middle" transform="translate(380.3437509536743, 479) rotate(0)">6</text><text x="0" y="0" fill="#131300" font-size="14" dominant-baseline="text-before-edge" text-anchor="middle" transform="translate(414.3515633477105, 479) rotate(0)">7</text><text x="0" y="0" fill="#131300" font-size="14" dominant-baseline="text-before-edge" text-anchor="middle" transform="translate(448.3593757417467, 479) rotate(0)">8</text><text x="0" y="0" fill="#131300" font-size="14" dominant-baseline="text-before-edge" text-anchor="middle" transform="translate(482.36718813578284, 479) rotate(0)">9</text><text x="0" y="0" fill="#131300" font-size="14" dominant-baseline="text-before-edge" text-anchor="middle" transform="translate(516.3750005298191, 479) rotate(0)">10</text><text x="0" y="0" fill="#131300" font-size="14" dominant-baseline="text-before-edge" text-anchor="middle" transform="translate(550.3828129238552, 479) rotate(0)">11</text><text x="0" y="0" fill="#131300" font-size="14" dominant-baseline="text-before-edge" text-anchor="middle" transform="translate(584.3906253178914, 479) rotate(0)">12</text><text x="0" y="0" fill="#131300" font-size="14" dominant-baseline="text-before-edge" text-anchor="middle" transform="translate(618.3984377119276, 479) rotate(0)">13</text><text x="0" y="0" fill="#131300" font-size="14" dominant-baseline="text-before-edge" text-anchor="middle" transform="translate(652.4062501059637, 479) rotate(0)">14</text><text x="0" y="0" fill="#131300" font-size="14" dominant-baseline="text-before-edge" text-anchor="middle" transform="translate(686.4140625, 479) rotate(0)">15</text></g><g class="ticks"><path d="M 74.27343940734863,469 L 74.27343940734863,474" fill="none" stroke="#131300" stroke-width="2"/><path d="M 108.28125180138483,469 L 108.28125180138483,474" fill="none" stroke="#131300" stroke-width="2"/><path d="M 142.28906419542102,469 L 142.28906419542102,474" fill="none" stroke="#131300" stroke-width="2"/><path d="M 176.29687658945718,469 L 176.29687658945718,474" fill="none" stroke="#131300" stroke-width="2"/><path d="M 210.30468898349338,469 L 210.30468898349338,474" fill="none" stroke="#131300" stroke-width="2"/><path d="M 244.31250137752957,469 L 244.31250137752957,474" fill="none" stroke="#131300" stroke-width="2"/><path d="M 278.32031377156574,469 L 278.32031377156574,474" fill="none" stroke="#131300" stroke-width="2"/><path d="M 312.32812616560193,469 L 312.32812616560193,474" fill="none" stroke="#131300" stroke-width="2"/><path d="M 346.3359385596381,469 L 346.3359385596381,474" fill="none" stroke="#131300" stroke-width="2"/><path d="M 380.3437509536743,469 L 380.3437509536743,474" fill="none" stroke="#131300" stroke-width="2"/><path d="M 414.3515633477105,469 L 414.3515633477105,474" fill="none" stroke="#131300" stroke-width="2"/><path d="M 448.3593757417467,469 L 448.3593757417467,474" fill="none" stroke="#131300" stroke-width="2"/><path d="M 482.36718813578284,469 L 482.36718813578284,474" fill="none" stroke="#131300" stroke-width="2"/><path d="M 516.3750005298191,469 L 516.3750005298191,474" fill="none" stroke="#131300" stroke-width="2"/><path d="M 550.3828129238552,469 L 550.3828129238552,474" fill="none" stroke="#131300" stroke-width="2"/><path d="M 584.3906253178914,469 L 584.3906253178914,474" fill="none" stroke="#131300" stroke-width="2"/><path d="M 618.3984377119276,469 L 618.3984377119276,474" fill="none" stroke="#131300" stroke-width="2"/><path d="M 652.4062501059637,469 L 652.4062501059637,474" fill="none" stroke="#131300" stroke-width="2"/><path d="M 686.4140625,469 L 686.4140625,474" fill="none" stroke="#131300" stroke-width="2"/></g></g><g class="left-axis"><g class="axisl-line"><path d="M 59.68750190734863,43.1796875 L 59.68750190734863,467" fill="none" stroke="#131300" stroke-width="2"/></g><g class="label"><text x="0" y="0" fill="#131300" font-size="14" dominant-baseline="middle" text-anchor="end" transform="translate(48.68750190734863, 51.1796875) rotate(0)">10</text><text x="0" y="0" fill="#131300" font-size="14" dominant-baseline="middle" text-anchor="end" transform="translate(48.68750190734863, 91.96171874999999) rotate(0)">9</text><text x="0" y="0" fill="#131300" font-size="14" dominant-baseline="middle" text-anchor="end" transform="translate(48.68750190734863, 132.74374999999998) rotate(0)">8</text><text x="0" y="0" fill="#131300" font-size="14" dominant-baseline="middle" text-anchor="end" transform="translate(48.68750190734863, 173.52578125000002) rotate(0)">7</text><text x="0" y="0" fill="#131300" font-size="14" dominant-baseline="middle" text-anchor="end" transform="translate(48.68750190734863, 214.3078125) rotate(0)">6</text><text x="0" y="0" fill="#131300" font-size="14" dominant-baseline="middle" text-anchor="end" transform="translate(48.68750190734863, 255.08984375) rotate(0)">5</text><text x="0" y="0" fill="#131300" font-size="14" dominant-baseline="middle" text-anchor="end" transform="translate(48.68750190734863, 295.871875) rotate(0)">4</text><text x="0" y="0" fill="#131300" font-size="14" dominant-baseline="middle" text-anchor="end" transform="translate(48.68750190734863, 336.65390625) rotate(0)">3</text><text x="0" y="0" fill="#131300" font-size="14" dominant-baseline="middle" text-anchor="end" transform="translate(48.68750190734863, 377.4359375) rotate(0)">2</text><text x="0" y="0" fill="#131300" font-size="14" dominant-baseline="middle" text-anchor="end" transform="translate(48.68750190734863, 418.21796875) rotate(0)">1</text><text x="0" y="0" fill="#131300" font-size="14" dominant-baseline="middle" text-anchor="end" transform="translate(48.68750190734863, 459) rotate(0)">0</text></g><g class="ticks"><path d="M 58.68750190734863,51.1796875 L 53.68750190734863,51.1796875" fill="none" stroke="#131300" stroke-width="2"/><path d="M 58.68750190734863,91.96171874999999 L 53.68750190734863,91.96171874999999" fill="none" stroke="#131300" stroke-width="2"/><path d="M 58.68750190734863,132.74374999999998 L 53.68750190734863,132.74374999999998" fill="none" stroke="#131300" stroke-width="2"/><path d="M 58.68750190734863,173.52578125000002 L 53.68750190734863,173.52578125000002" fill="none" stroke="#131300" stroke-width="2"/><path d="M 58.68750190734863,214.3078125 L 53.68750190734863,214.3078125" fill="none" stroke="#131300" stroke-width="2"/><path d="M 58.68750190734863,255.08984375 L 53.68750190734863,255.08984375" fill="none" stroke="#131300" stroke-width="2"/><path d="M 58.68750190734863,295.871875 L 53.68750190734863,295.871875" fill="none" stroke="#131300" stroke-width="2"/><path d="M 58.68750190734863,336.65390625 L 53.68750190734863,336.65390625" fill="none" stroke="#131300" stroke-width="2"/><path d="M 58.68750190734863,377.4359375 L 53.68750190734863,377.4359375" fill="none" stroke="#131300" stroke-width="2"/><path d="M 58.68750190734863,418.21796875 L 53.68750190734863,418.21796875" fill="none" stroke="#131300" stroke-width="2"/><path d="M 58.68750190734863,459 L 53.68750190734863,459" fill="none" stroke="#131300" stroke-width="2"/></g><g class="title"><text x="0" y="0" fill="#131300" font-size="16" dominant-baseline="text-before-edge" text-anchor="middle" transform="translate(5, 255.08984375) rotate(270)">New Members</text></g></g></g><g class="mermaid-tmp-group"/></svg>