<svg id="my-svg" width="100%" xmlns="http://www.w3.org/2000/svg" xmlns:xlink="http://www.w3.org/1999/xlink" style="max-width: 700px; background-color: white;" viewBox="0 0 700 500" role="graphics-document document" aria-roledescription="xychart"><style>#my-svg{font-family:"trebuchet ms",verdana,arial,sans-serif;font-size:16px;fill:#333;}@keyframes edge-animation-frame{from{stroke-dashoffset:0;}}@keyframes dash{to{stroke-dashoffset:0;}}#my-svg .edge-animation-slow{stroke-dasharray:9,5!important;stroke-dashoffset:900;animation:dash 50s linear infinite;stroke-linecap:round;}#my-svg .edge-animation-fast{stroke-dasharray:9,5!important;stroke-dashoffset:900;animation:dash 20s linear infinite;stroke-linecap:round;}#my-svg .error-icon{fill:#552222;}#my-svg .error-text{fill:#552222;stroke:#552222;}#my-svg .edge-thickness-normal{stroke-width:1px;}#my-svg .edge-thickness-thick{stroke-width:3.5px;}#my-svg .edge-pattern-solid{stroke-dasharray:0;}#my-svg .edge-thickness-invisible{stroke-width:0;fill:none;}#my-svg .edge-pattern-dashed{stroke-dasharray:3;}#my-svg .edge-pattern-dotted{stroke-dasharray:2;}#my-svg .marker{fill:#333333;stroke:#333333;}#my-svg .marker.cross{stroke:#333333;}#my-svg svg{font-family:"trebuchet ms",verdana,arial,sans-serif;font-size:16px;}#my-svg p{margin:0;}#my-svg :root{--mermaid-font-family:"trebuchet ms",verdana,arial,sans-serif;}</style><g/><g class="main"><rect width="700" height="500" class="background" fill="white"/><g class="chart-title"><text x="0" y="0" fill="#131300" font-size="20" dominant-baseline="middle" text-anchor="middle" transform="translate(350, 21.58984375) rotate(0)">Daily Net Member Change (2026)</text></g><g class="plot"><g class="bar-plot-0"><rect x="61.36679878234863" y="459" width="25.81328125" height="8" fill="#ECECFF" stroke="#ECECFF" stroke-width="0"/><rect x="91.9738299369812" y="336.65390625" width="25.81328125" height="130.34609375000002" fill="#ECECFF" stroke="#ECECFF" stroke-width="0"/><rect x="122.58086109161377" y="336.65390625" width="25.81328125" height="130.34609375000002" fill="#ECECFF" stroke="#ECECFF" stroke-width="0"/><rect x="153.18789224624635" y="377.4359375" width="25.81328125" height="89.56406249999998" fill="#ECECFF" stroke="#ECECFF" stroke-width="0"/><rect x="183.7949234008789" y="214.3078125" width="25.81328125" height="252.6921875" fill="#ECECFF" stroke="#ECECFF" stroke-width="0"/><rect x="214.40195455551148" y="377.4359375" width="25.81328125" height="89.56406249999998" fill="#ECECFF" stroke="#ECECFF" stroke-width="0"/><rect x="245.00898571014406" y="459" width="25.81328125" height="8" fill="#ECECFF" stroke="#ECECFF" stroke-width="0"/><rect x="275.6160168647766" y="336.65390625" width="25.81328125" height="130.34609375000002" fill="#ECECFF" stroke="#ECECFF" stroke-width="0"/><rect x="306.22304801940913" y="418.21796875" width="25.81328125" height="48.78203124999999" fill="#ECECFF" stroke="#ECECFF" stroke-width="0"/><rect x="336.8300791740417" y="336.65390625" width="25.81328125" height="130.34609375000002" fill="#ECECFF" stroke="#ECECFF" stroke-width="0"/><rect x="367.4371103286743" y="214.3078125" width="25.81328125" height="252.6921875" fill="#ECECFF" stroke="#ECECFF" stroke-width="0"/><rect x="398.0441414833069" y="173.52578125000002" width="25.81328125" height="293.47421875" fill="#ECECFF" stroke="#ECECFF" stroke-width="0"/><rect x="428.65117263793945" y="132.74374999999998" width="25.81328125" height="334.25625" fill="#ECECFF" stroke="#ECECFF" stroke-width="0"/><rect x="459.25820379257203" y="336.65390625" width="25.81328125" height="130.34609375000002" fill="#ECECFF" stroke="#ECECFF" stroke-width="0"/><rect x="489.86523494720456" y="336.65390625" width="25.81328125" height="130.34609375000002" fill="#ECECFF" stroke="#ECECFF" stroke-width="0"/><rect x="520.4722661018371" y="459" width="25.81328125" height="8" fill="#ECECFF" stroke="#ECECFF" stroke-width="0"/><rect x="551.0792972564697" y="459" width="25.81328125" height="8" fill="#ECECFF" stroke="#ECECFF" stroke-width="0"/><rect x="581.6863284111023" y="336.65390625" width="25.81328125" height="130.34609375000002" fill="#ECECFF" stroke="#ECECFF" stroke-width="0"/><rect x="612.2933595657348" y="255.08984375" width="25.81328125" height="211.91015625" fill="#ECECFF" stroke="#ECECFF" stroke-width="0"/><rect x="642.9003907203675" y="214.3078125" width="25.81328125" height="252.6921875" fill="#ECECFF" stroke="#ECECFF" stroke-width="0"/><rect x="673.507421875" y="336.65390625" width="25.81328125" height="130.34609375000002" fill="#ECECFF" stroke="#ECECFF" stroke-width="0"/></g></g><g class="bottom-axis"><g class="axis-line"><path d="M 60.68750190734863,468 L 700,468" fill="none" stroke="#131300" stroke-width="2"/></g><g class="label"><text x="0" y="0" fill="#131300" font-size="14" dominant-baseline="text-before-edge" text-anchor="middle" transform="translate(74.27343940734863, 479) rotate(0)">2.25</text><text x="0" y="0" fill="#131300" font-size="14" dominant-baseline="text-before-edge" text-anchor="middle" transform="translate(104.8804705619812, 479) rotate(0)">26</text><text x="0" y="0" fill="#131300" font-size="14" dominant-baseline="text-before-edge" text-anchor="middle" transform="translate(135.48750171661376, 479) rotate(0)">27</text><text x="0" y="0" fill="#131300" font-size="14" dominant-baseline="text-before-edge" text-anchor="middle" transform="translate(166.09453287124634, 479) rotate(0)">28</text><text x="0" y="0" fill="#131300" font-size="14" dominant-baseline="text-before-edge" text-anchor="middle" transform="translate(196.7015640258789, 479) rotate(0)">3.1</text><text x="0" y="0" fill="#131300" font-size="14" dominant-baseline="text-before-edge" text-anchor="middle" transform="translate(227.30859518051147, 479) rotate(0)">2</text><text x="0" y="0" fill="#131300" font-size="14" dominant-baseline="text-before-edge" text-anchor="middle" transform="translate(257.91562633514405, 479) rotate(0)">3</text><text x="0" y="0" fill="#131300" font-size="14" dominant-baseline="text-before-edge" text-anchor="middle" transform="translate(288.52265748977663, 479) rotate(0)">4</text><text x="0" y="0" fill="#131300" font-size="14" dominant-baseline="text-before-edge" text-anchor="middle" transform="translate(319.12968864440916, 479) rotate(0)">5</text><text x="0" y="0" fill="#131300" font-size="14" dominant-baseline="text-before-edge" text-anchor="middle" transform="translate(349.73671979904174, 479) rotate(0)">6</text><text x="0" y="0" fill="#131300" font-size="14" dominant-baseline="text-before-edge" text-anchor="middle" transform="translate(380.3437509536743, 479) rotate(0)">7</text><text x="0" y="0" fill="#131300" font-size="14" dominant-baseline="text-before-edge" text-anchor="middle" transform="translate(410.9507821083069, 479) rotate(0)">8</text><text x="0" y="0" fill="#131300" font-size="14" dominant-baseline="text-before-edge" text-anchor="middle" transform="translate(441.5578132629395, 479) rotate(0)">9</text><text x="0" y="0" fill="#131300" font-size="14" dominant-baseline="text-before-edge" text-anchor="middle" transform="translate(472.16484441757206, 479) rotate(0)">10</text><text x="0" y="0" fill="#131300" font-size="14" dominant-baseline="text-before-edge" text-anchor="middle" transform="translate(502.7718755722046, 479) rotate(0)">11</text><text x="0" y="0" fill="#131300" font-size="14" dominant-baseline="text-before-edge" text-anchor="middle" transform="translate(533.3789067268372, 479) rotate(0)">12</text><text x="0" y="0" fill="#131300" font-size="14" dominant-baseline="text-before-edge" text-anchor="middle" transform="translate(563.9859378814697, 479) rotate(0)">13</text><text x="0" y="0" fill="#131300" font-size="14" dominant-baseline="text-before-edge" text-anchor="middle" transform="translate(594.5929690361023, 479) rotate(0)">14</text><text x="0" y="0" fill="#131300" font-size="14" dominant-baseline="text-before-edge" text-anchor="middle" transform="translate(625.2000001907348, 479) rotate(0)">15</text><text x="0" y="0" fill="#131300" font-size="14" dominant-baseline="text-before-edge" text-anchor="middle" transform="translate(655.8070313453675, 479) rotate(0)">16</text><text x="0" y="0" fill="#131300" font-size="14" dominant-baseline="text-before-edge" text-anchor="middle" transform="translate(686.4140625, 479) rotate(0)">17</text></g><g class="ticks"><path d="M 74.27343940734863,469 L 74.27343940734863,474" fill="none" stroke="#131300" stroke-width="2"/><path d="M 104.8804705619812,469 L 104.8804705619812,474" fill="none" stroke="#131300" stroke-width="2"/><path d="M 135.48750171661376,469 L 135.48750171661376,474" fill="none" stroke="#131300" stroke-width="2"/><path d="M 166.09453287124634,469 L 166.09453287124634,474" fill="none" stroke="#131300" stroke-width="2"/><path d="M 196.7015640258789,469 L 196.7015640258789,474" fill="none" stroke="#131300" stroke-width="2"/><path d="M 227.30859518051147,469 L 227.30859518051147,474" fill="none" stroke="#131300" stroke-width="2"/><path d="M 257.91562633514405,469 L 257.91562633514405,474" fill="none" stroke="#131300" stroke-width="2"/><path d="M 288.52265748977663,469 L 288.52265748977663,474" fill="none" stroke="#131300" stroke-width="2"/><path d="M 319.12968864440916,469 L 319.12968864440916,474" fill="none" stroke="#131300" stroke-width="2"/><path d="M 349.73671979904174,469 L 349.73671979904174,474" fill="none" stroke="#131300" stroke-width="2"/><path d="M 380.3437509536743,469 L 380.3437509536743,474" fill="none" stroke="#131300" stroke-width="2"/><path d="M 410.9507821083069,469 L 410.9507821083069,474" fill="none" stroke="#131300" stroke-width="2"/><path d="M 441.5578132629395,469 L 441.5578132629395,474" fill="none" stroke="#131300" stroke-width="2"/><path d="M 472.16484441757206,469 L 472.16484441757206,474" fill="none" stroke="#131300" stroke-width="2"/><path d="M 502.7718755722046,469 L 502.7718755722046,474" fill="none" stroke="#131300" stroke-width="2"/><path d="M 533.3789067268372,469 L 533.3789067268372,474" fill="none" stroke="#131300" stroke-width="2"/><path d="M 563.9859378814697,469 L 563.9859378814697,474" fill="none" stroke="#131300" stroke-width="2"/><path d="M 594.5929690361023,469 L 594.5929690361023,474" fill="none" stroke="#131300" stroke-width="2"/><path d="M 625.2000001907348,469 L 625.2000001907348,474" fill="none" stroke="#131300" stroke-width="2"/><path d="M 655.8070313453675,469 L 655.8070313453675,474" fill="none" stroke="#131300" stroke-width="2"/><path d="M 686.4140625,469 L 686.4140625,474" fill="none" stroke="#131300" stroke-width="2"/></g></g><g class="left-axis"><g class="axisl-line"><path d="M 59.68750190734863,43.1796875 L 59.68750190734863,467" fill="none" stroke="#131300" stroke-width="2"/></g><g class="label"><text x="0" y="0" fill="#131300" font-size="14" dominant-baseline="middle" text-anchor="end" transform="translate(48.68750190734863, 51.1796875) rotate(0)">10</text><text x="0" y="0" fill="#131300" font-size="14" dominant-baseline="middle" text-anchor="end" transform="translate(48.68750190734863, 91.96171874999999) rotate(0)">9</text><text x="0" y="0" fill="#131300" font-size="14" dominant-baseline="middle" text-anchor="end" transform="translate(48.68750190734863, 132.74374999999998) rotate(0)">8</text><text x="0" y="0" fill="#131300" font-size="14" dominant-baseline="middle" text-anchor="end" transform="translate(48.68750190734863, 173.52578125000002) rotate(0)">7</text><text x="0" y="0" fill="#131300" font-size="14" dominant-baseline="middle" text-anchor="end" transform="translate(48.68750190734863, 214.3078125) rotate(0)">6</text><text x="0" y="0" fill="#131300" font-size="14" dominant-baseline="middle" text-anchor="end" transform="translate(48.68750190734863, 255.08984375) rotate(0)">5</text><text x="0" y="0" fill="#131300" font-size="14" dominant-baseline="middle" text-anchor="end" transform="translate(48.68750190734863, 295.871875) rotate(0)">4</text><text x="0" y="0" fill="#131300" font-size="14" dominant-baseline="middle" text-anchor="end" transform="translate(48.68750190734863, 336.65390625) rotate(0)">3</text><text x="0" y="0" fill="#131300" font-size="14" dominant-baseline="middle" text-anchor="end" transform="translate(48.68750190734863, 377.4359375) rotate(0)">2</text><text x="0" y="0" fill="#131300" font-size="14" dominant-baseline="middle" text-anchor="end" transform="translate(48.68750190734863, 418.21796875) rotate(0)">1</text><text x="0" y="0" fill="#131300" font-size="14" dominant-baseline="middle" text-anchor="end" transform="translate(48.68750190734863, 459) rotate(0)">0</text></g><g class="ticks"><path d="M 58.68750190734863,51.1796875 L 53.68750190734863,51.1796875" fill="none" stroke="#131300" stroke-width="2"/><path d="M 58.68750190734863,91.96171874999999 L 53.68750190734863,91.96171874999999" fill="none" stroke="#131300" stroke-width="2"/><path d="M 58.68750190734863,132.74374999999998 L 53.68750190734863,132.74374999999998" fill="none" stroke="#131300" stroke-width="2"/><path d="M 58.68750190734863,173.52578125000002 L 53.68750190734863,173.52578125000002" fill="none" stroke="#131300" stroke-width="2"/><path d="M 58.68750190734863,214.3078125 L 53.68750190734863,214.3078125" fill="none" stroke="#131300" stroke-width="2"/><path d="M 58.68750190734863,255.08984375 L 53.68750190734863,255.08984375" fill="none" stroke="#131300" stroke-width="2"/><path d="M 58.68750190734863,295.871875 L 53.68750190734863,295.871875" fill="none" stroke="#131300" stroke-width="2"/><path d="M 58.68750190734863,336.65390625 L 53.68750190734863,336.65390625" fill="none" stroke="#131300" stroke-width="2"/><path d="M 58.68750190734863,377.4359375 L 53.68750190734863,377.4359375" fill="none" stroke="#131300" stroke-width="2"/><path d="M 58.68750190734863,418.21796875 L 53.68750190734863,418.21796875" fill="none" stroke="#131300" stroke-width="2"/><path d="M 58.68750190734863,459 L 53.68750190734863,459" fill="none" stroke="#131300" stroke-width="2"/></g><g class="title"><text x="0" y="0" fill="#131300" font-size="16" dominant-baseline="text-before-edge" text-anchor="middle" transform="translate(5, 255.08984375) rotate(270)">New Members</text></g></g></g><g class="mermaid-tmp-group"/></svg>