<svg id="my-svg" width="100%" xmlns="http://www.w3.org/2000/svg" xmlns:xlink="http://www.w3.org/1999/xlink" style="max-width: 700px; background-color: white;" viewBox="0 0 700 500" role="graphics-document document" aria-roledescription="xychart"><style>#my-svg{font-family:"trebuchet ms",verdana,arial,sans-serif;font-size:16px;fill:#333;}@keyframes edge-animation-frame{from{stroke-dashoffset:0;}}@keyframes dash{to{stroke-dashoffset:0;}}#my-svg .edge-animation-slow{stroke-dasharray:9,5!important;stroke-dashoffset:900;animation:dash 50s linear infinite;stroke-linecap:round;}#my-svg .edge-animation-fast{stroke-dasharray:9,5!important;stroke-dashoffset:900;animation:dash 20s linear infinite;stroke-linecap:round;}#my-svg .error-icon{fill:#552222;}#my-svg .error-text{fill:#552222;stroke:#552222;}#my-svg .edge-thickness-normal{stroke-width:1px;}#my-svg .edge-thickness-thick{stroke-width:3.5px;}#my-svg .edge-pattern-solid{stroke-dasharray:0;}#my-svg .edge-thickness-invisible{stroke-width:0;fill:none;}#my-svg .edge-pattern-dashed{stroke-dasharray:3;}#my-svg .edge-pattern-dotted{stroke-dasharray:2;}#my-svg .marker{fill:#333333;stroke:#333333;}#my-svg .marker.cross{stroke:#333333;}#my-svg svg{font-family:"trebuchet ms",verdana,arial,sans-serif;font-size:16px;}#my-svg p{margin:0;}#my-svg :root{--mermaid-font-family:"trebuchet ms",verdana,arial,sans-serif;}</style><g/><g class="main"><rect width="700" height="500" class="background" fill="white"/><g class="chart-title"><text x="0" y="0" fill="#131300" font-size="20" dominant-baseline="middle" text-anchor="middle" transform="translate(350, 21.58984375) rotate(0)">Daily Net Member Change (2026)</text></g><g class="plot"><g class="bar-plot-0"><rect x="65.96581666537693" y="459" width="16.615245483943394" height="8" fill="#ECECFF" stroke="#ECECFF" stroke-width="0"/><rect x="85.71228837804311" y="336.65390625" width="16.615245483943394" height="130.34609375000002" fill="#ECECFF" stroke="#ECECFF" stroke-width="0"/><rect x="105.45876009070929" y="336.65390625" width="16.615245483943394" height="130.34609375000002" fill="#ECECFF" stroke="#ECECFF" stroke-width="0"/><rect x="125.20523180337545" y="377.4359375" width="16.615245483943394" height="89.56406249999998" fill="#ECECFF" stroke="#ECECFF" stroke-width="0"/><rect x="144.95170351604165" y="214.3078125" width="16.615245483943394" height="252.6921875" fill="#ECECFF" stroke="#ECECFF" stroke-width="0"/><rect x="164.6981752287078" y="377.4359375" width="16.615245483943394" height="89.56406249999998" fill="#ECECFF" stroke="#ECECFF" stroke-width="0"/><rect x="184.44464694137397" y="459" width="16.615245483943394" height="8" fill="#ECECFF" stroke="#ECECFF" stroke-width="0"/><rect x="204.19111865404017" y="336.65390625" width="16.615245483943394" height="130.34609375000002" fill="#ECECFF" stroke="#ECECFF" stroke-width="0"/><rect x="223.93759036670633" y="418.21796875" width="16.615245483943394" height="48.78203124999999" fill="#ECECFF" stroke="#ECECFF" stroke-width="0"/><rect x="243.6840620793725" y="336.65390625" width="16.615245483943394" height="130.34609375000002" fill="#ECECFF" stroke="#ECECFF" stroke-width="0"/><rect x="263.4305337920387" y="214.3078125" width="16.615245483943394" height="252.6921875" fill="#ECECFF" stroke="#ECECFF" stroke-width="0"/><rect x="283.1770055047049" y="173.52578125000002" width="16.615245483943394" height="293.47421875" fill="#ECECFF" stroke="#ECECFF" stroke-width="0"/><rect x="302.92347721737104" y="132.74374999999998" width="16.615245483943394" height="334.25625" fill="#ECECFF" stroke="#ECECFF" stroke-width="0"/><rect x="322.6699489300372" y="336.65390625" width="16.615245483943394" height="130.34609375000002" fill="#ECECFF" stroke="#ECECFF" stroke-width="0"/><rect x="342.41642064270343" y="336.65390625" width="16.615245483943394" height="130.34609375000002" fill="#ECECFF" stroke="#ECECFF" stroke-width="0"/><rect x="362.1628923553696" y="459" width="16.615245483943394" height="8" fill="#ECECFF" stroke="#ECECFF" stroke-width="0"/><rect x="381.90936406803576" y="459" width="16.615245483943394" height="8" fill="#ECECFF" stroke="#ECECFF" stroke-width="0"/><rect x="401.6558357807019" y="336.65390625" width="16.615245483943394" height="130.34609375000002" fill="#ECECFF" stroke="#ECECFF" stroke-width="0"/><rect x="421.4023074933681" y="255.08984375" width="16.615245483943394" height="211.91015625" fill="#ECECFF" stroke="#ECECFF" stroke-width="0"/><rect x="441.1487792060343" y="214.3078125" width="16.615245483943394" height="252.6921875" fill="#ECECFF" stroke="#ECECFF" stroke-width="0"/><rect x="460.89525091870047" y="336.65390625" width="16.615245483943394" height="130.34609375000002" fill="#ECECFF" stroke="#ECECFF" stroke-width="0"/><rect x="480.64172263136663" y="336.65390625" width="16.615245483943394" height="130.34609375000002" fill="#ECECFF" stroke="#ECECFF" stroke-width="0"/><rect x="500.3881943440328" y="336.65390625" width="16.615245483943394" height="130.34609375000002" fill="#ECECFF" stroke="#ECECFF" stroke-width="0"/><rect x="520.134666056699" y="459" width="16.615245483943394" height="8" fill="#ECECFF" stroke="#ECECFF" stroke-width="0"/><rect x="539.8811377693651" y="295.871875" width="16.615245483943394" height="171.128125" fill="#ECECFF" stroke="#ECECFF" stroke-width="0"/><rect x="559.6276094820313" y="377.4359375" width="16.615245483943394" height="89.56406249999998" fill="#ECECFF" stroke="#ECECFF" stroke-width="0"/><rect x="579.3740811946974" y="459" width="16.615245483943394" height="8" fill="#ECECFF" stroke="#ECECFF" stroke-width="0"/><rect x="599.1205529073636" y="459" width="16.615245483943394" height="8" fill="#ECECFF" stroke="#ECECFF" stroke-width="0"/><rect x="618.8670246200298" y="459" width="16.615245483943394" height="8" fill="#ECECFF" stroke="#ECECFF" stroke-width="0"/><rect x="85.71228837804311" y="459" width="16.615245483943394" height="8" fill="#ECECFF" stroke="#ECECFF" stroke-width="0"/><rect x="105.45876009070929" y="459" width="16.615245483943394" height="8" fill="#ECECFF" stroke="#ECECFF" stroke-width="0"/><rect x="125.20523180337545" y="459" width="16.615245483943394" height="8" fill="#ECECFF" stroke="#ECECFF" stroke-width="0"/><rect x="638.613496332696" y="459" width="16.615245483943394" height="8" fill="#ECECFF" stroke="#ECECFF" stroke-width="0"/><rect x="658.3599680453622" y="459" width="16.615245483943394" height="8" fill="#ECECFF" stroke="#ECECFF" stroke-width="0"/><rect x="678.1064397580283" y="418.21796875" width="16.615245483943394" height="48.78203124999999" fill="#ECECFF" stroke="#ECECFF" stroke-width="0"/></g></g><g class="bottom-axis"><g class="axis-line"><path d="M 60.68750190734863,468 L 700,468" fill="none" stroke="#131300" stroke-width="2"/></g><g class="label"><text x="0" y="0" fill="#131300" font-size="14" dominant-baseline="text-before-edge" text-anchor="middle" transform="translate(74.27343940734863, 479) rotate(0)">2.25</text><text x="0" y="0" fill="#131300" font-size="14" dominant-baseline="text-before-edge" text-anchor="middle" transform="translate(94.01991112001481, 479) rotate(0)">26</text><text x="0" y="0" fill="#131300" font-size="14" dominant-baseline="text-before-edge" text-anchor="middle" transform="translate(113.76638283268099, 479) rotate(0)">27</text><text x="0" y="0" fill="#131300" font-size="14" dominant-baseline="text-before-edge" text-anchor="middle" transform="translate(133.51285454534715, 479) rotate(0)">28</text><text x="0" y="0" fill="#131300" font-size="14" dominant-baseline="text-before-edge" text-anchor="middle" transform="translate(153.25932625801335, 479) rotate(0)">3.1</text><text x="0" y="0" fill="#131300" font-size="14" dominant-baseline="text-before-edge" text-anchor="middle" transform="translate(173.0057979706795, 479) rotate(0)">2</text><text x="0" y="0" fill="#131300" font-size="14" dominant-baseline="text-before-edge" text-anchor="middle" transform="translate(192.75226968334567, 479) rotate(0)">3</text><text x="0" y="0" fill="#131300" font-size="14" dominant-baseline="text-before-edge" text-anchor="middle" transform="translate(212.49874139601187, 479) rotate(0)">4</text><text x="0" y="0" fill="#131300" font-size="14" dominant-baseline="text-before-edge" text-anchor="middle" transform="translate(232.24521310867803, 479) rotate(0)">5</text><text x="0" y="0" fill="#131300" font-size="14" dominant-baseline="text-before-edge" text-anchor="middle" transform="translate(251.9916848213442, 479) rotate(0)">6</text><text x="0" y="0" fill="#131300" font-size="14" dominant-baseline="text-before-edge" text-anchor="middle" transform="translate(271.7381565340104, 479) rotate(0)">7</text><text x="0" y="0" fill="#131300" font-size="14" dominant-baseline="text-before-edge" text-anchor="middle" transform="translate(291.48462824667655, 479) rotate(0)">8</text><text x="0" y="0" fill="#131300" font-size="14" dominant-baseline="text-before-edge" text-anchor="middle" transform="translate(311.2310999593427, 479) rotate(0)">9</text><text x="0" y="0" fill="#131300" font-size="14" dominant-baseline="text-before-edge" text-anchor="middle" transform="translate(330.9775716720089, 479) rotate(0)">10</text><text x="0" y="0" fill="#131300" font-size="14" dominant-baseline="text-before-edge" text-anchor="middle" transform="translate(350.7240433846751, 479) rotate(0)">11</text><text x="0" y="0" fill="#131300" font-size="14" dominant-baseline="text-before-edge" text-anchor="middle" transform="translate(370.47051509734126, 479) rotate(0)">12</text><text x="0" y="0" fill="#131300" font-size="14" dominant-baseline="text-before-edge" text-anchor="middle" transform="translate(390.2169868100074, 479) rotate(0)">13</text><text x="0" y="0" fill="#131300" font-size="14" dominant-baseline="text-before-edge" text-anchor="middle" transform="translate(409.9634585226736, 479) rotate(0)">14</text><text x="0" y="0" fill="#131300" font-size="14" dominant-baseline="text-before-edge" text-anchor="middle" transform="translate(429.70993023533975, 479) rotate(0)">15</text><text x="0" y="0" fill="#131300" font-size="14" dominant-baseline="text-before-edge" text-anchor="middle" transform="translate(449.456401948006, 479) rotate(0)">16</text><text x="0" y="0" fill="#131300" font-size="14" dominant-baseline="text-before-edge" text-anchor="middle" transform="translate(469.20287366067214, 479) rotate(0)">17</text><text x="0" y="0" fill="#131300" font-size="14" dominant-baseline="text-before-edge" text-anchor="middle" transform="translate(488.9493453733383, 479) rotate(0)">18</text><text x="0" y="0" fill="#131300" font-size="14" dominant-baseline="text-before-edge" text-anchor="middle" transform="translate(508.69581708600447, 479) rotate(0)">19</text><text x="0" y="0" fill="#131300" font-size="14" dominant-baseline="text-before-edge" text-anchor="middle" transform="translate(528.4422887986707, 479) rotate(0)">20</text><text x="0" y="0" fill="#131300" font-size="14" dominant-baseline="text-before-edge" text-anchor="middle" transform="translate(548.1887605113368, 479) rotate(0)">21</text><text x="0" y="0" fill="#131300" font-size="14" dominant-baseline="text-before-edge" text-anchor="middle" transform="translate(567.935232224003, 479) rotate(0)">22</text><text x="0" y="0" fill="#131300" font-size="14" dominant-baseline="text-before-edge" text-anchor="middle" transform="translate(587.6817039366691, 479) rotate(0)">23</text><text x="0" y="0" fill="#131300" font-size="14" dominant-baseline="text-before-edge" text-anchor="middle" transform="translate(607.4281756493353, 479) rotate(0)">24</text><text x="0" y="0" fill="#131300" font-size="14" dominant-baseline="text-before-edge" text-anchor="middle" transform="translate(627.1746473620016, 479) rotate(0)">25</text><text x="0" y="0" fill="#131300" font-size="14" dominant-baseline="text-before-edge" text-anchor="middle" transform="translate(94.01991112001481, 479) rotate(0)">26</text><text x="0" y="0" fill="#131300" font-size="14" dominant-baseline="text-before-edge" text-anchor="middle" transform="translate(113.76638283268099, 479) rotate(0)">27</text><text x="0" y="0" fill="#131300" font-size="14" dominant-baseline="text-before-edge" text-anchor="middle" transform="translate(133.51285454534715, 479) rotate(0)">28</text><text x="0" y="0" fill="#131300" font-size="14" dominant-baseline="text-before-edge" text-anchor="middle" transform="translate(646.9211190746677, 479) rotate(0)">29</text><text x="0" y="0" fill="#131300" font-size="14" dominant-baseline="text-before-edge" text-anchor="middle" transform="translate(666.6675907873339, 479) rotate(0)">30</text><text x="0" y="0" fill="#131300" font-size="14" dominant-baseline="text-before-edge" text-anchor="middle" transform="translate(686.4140625, 479) rotate(0)">31</text></g><g class="ticks"><path d="M 74.27343940734863,469 L 74.27343940734863,474" fill="none" stroke="#131300" stroke-width="2"/><path d="M 94.01991112001481,469 L 94.01991112001481,474" fill="none" stroke="#131300" stroke-width="2"/><path d="M 113.76638283268099,469 L 113.76638283268099,474" fill="none" stroke="#131300" stroke-width="2"/><path d="M 133.51285454534715,469 L 133.51285454534715,474" fill="none" stroke="#131300" stroke-width="2"/><path d="M 153.25932625801335,469 L 153.25932625801335,474" fill="none" stroke="#131300" stroke-width="2"/><path d="M 173.0057979706795,469 L 173.0057979706795,474" fill="none" stroke="#131300" stroke-width="2"/><path d="M 192.75226968334567,469 L 192.75226968334567,474" fill="none" stroke="#131300" stroke-width="2"/><path d="M 212.49874139601187,469 L 212.49874139601187,474" fill="none" stroke="#131300" stroke-width="2"/><path d="M 232.24521310867803,469 L 232.24521310867803,474" fill="none" stroke="#131300" stroke-width="2"/><path d="M 251.9916848213442,469 L 251.9916848213442,474" fill="none" stroke="#131300" stroke-width="2"/><path d="M 271.7381565340104,469 L 271.7381565340104,474" fill="none" stroke="#131300" stroke-width="2"/><path d="M 291.48462824667655,469 L 291.48462824667655,474" fill="none" stroke="#131300" stroke-width="2"/><path d="M 311.2310999593427,469 L 311.2310999593427,474" fill="none" stroke="#131300" stroke-width="2"/><path d="M 330.9775716720089,469 L 330.9775716720089,474" fill="none" stroke="#131300" stroke-width="2"/><path d="M 350.7240433846751,469 L 350.7240433846751,474" fill="none" stroke="#131300" stroke-width="2"/><path d="M 370.47051509734126,469 L 370.47051509734126,474" fill="none" stroke="#131300" stroke-width="2"/><path d="M 390.2169868100074,469 L 390.2169868100074,474" fill="none" stroke="#131300" stroke-width="2"/><path d="M 409.9634585226736,469 L 409.9634585226736,474" fill="none" stroke="#131300" stroke-width="2"/><path d="M 429.70993023533975,469 L 429.70993023533975,474" fill="none" stroke="#131300" stroke-width="2"/><path d="M 449.456401948006,469 L 449.456401948006,474" fill="none" stroke="#131300" stroke-width="2"/><path d="M 469.20287366067214,469 L 469.20287366067214,474" fill="none" stroke="#131300" stroke-width="2"/><path d="M 488.9493453733383,469 L 488.9493453733383,474" fill="none" stroke="#131300" stroke-width="2"/><path d="M 508.69581708600447,469 L 508.69581708600447,474" fill="none" stroke="#131300" stroke-width="2"/><path d="M 528.4422887986707,469 L 528.4422887986707,474" fill="none" stroke="#131300" stroke-width="2"/><path d="M 548.1887605113368,469 L 548.1887605113368,474" fill="none" stroke="#131300" stroke-width="2"/><path d="M 567.935232224003,469 L 567.935232224003,474" fill="none" stroke="#131300" stroke-width="2"/><path d="M 587.6817039366691,469 L 587.6817039366691,474" fill="none" stroke="#131300" stroke-width="2"/><path d="M 607.4281756493353,469 L 607.4281756493353,474" fill="none" stroke="#131300" stroke-width="2"/><path d="M 627.1746473620016,469 L 627.1746473620016,474" fill="none" stroke="#131300" stroke-width="2"/><path d="M 94.01991112001481,469 L 94.01991112001481,474" fill="none" stroke="#131300" stroke-width="2"/><path d="M 113.76638283268099,469 L 113.76638283268099,474" fill="none" stroke="#131300" stroke-width="2"/><path d="M 133.51285454534715,469 L 133.51285454534715,474" fill="none" stroke="#131300" stroke-width="2"/><path d="M 646.9211190746677,469 L 646.9211190746677,474" fill="none" stroke="#131300" stroke-width="2"/><path d="M 666.6675907873339,469 L 666.6675907873339,474" fill="none" stroke="#131300" stroke-width="2"/><path d="M 686.4140625,469 L 686.4140625,474" fill="none" stroke="#131300" stroke-width="2"/></g></g><g class="left-axis"><g class="axisl-line"><path d="M 59.68750190734863,43.1796875 L 59.68750190734863,467" fill="none" stroke="#131300" stroke-width="2"/></g><g class="label"><text x="0" y="0" fill="#131300" font-size="14" dominant-baseline="middle" text-anchor="end" transform="translate(48.68750190734863, 51.1796875) rotate(0)">10</text><text x="0" y="0" fill="#131300" font-size="14" dominant-baseline="middle" text-anchor="end" transform="translate(48.68750190734863, 91.96171874999999) rotate(0)">9</text><text x="0" y="0" fill="#131300" font-size="14" dominant-baseline="middle" text-anchor="end" transform="translate(48.68750190734863, 132.74374999999998) rotate(0)">8</text><text x="0" y="0" fill="#131300" font-size="14" dominant-baseline="middle" text-anchor="end" transform="translate(48.68750190734863, 173.52578125000002) rotate(0)">7</text><text x="0" y="0" fill="#131300" font-size="14" dominant-baseline="middle" text-anchor="end" transform="translate(48.68750190734863, 214.3078125) rotate(0)">6</text><text x="0" y="0" fill="#131300" font-size="14" dominant-baseline="middle" text-anchor="end" transform="translate(48.68750190734863, 255.08984375) rotate(0)">5</text><text x="0" y="0" fill="#131300" font-size="14" dominant-baseline="middle" text-anchor="end" transform="translate(48.68750190734863, 295.871875) rotate(0)">4</text><text x="0" y="0" fill="#131300" font-size="14" dominant-baseline="middle" text-anchor="end" transform="translate(48.68750190734863, 336.65390625) rotate(0)">3</text><text x="0" y="0" fill="#131300" font-size="14" dominant-baseline="middle" text-anchor="end" transform="translate(48.68750190734863, 377.4359375) rotate(0)">2</text><text x="0" y="0" fill="#131300" font-size="14" dominant-baseline="middle" text-anchor="end" transform="translate(48.68750190734863, 418.21796875) rotate(0)">1</text><text x="0" y="0" fill="#131300" font-size="14" dominant-baseline="middle" text-anchor="end" transform="translate(48.68750190734863, 459) rotate(0)">0</text></g><g class="ticks"><path d="M 58.68750190734863,51.1796875 L 53.68750190734863,51.1796875" fill="none" stroke="#131300" stroke-width="2"/><path d="M 58.68750190734863,91.96171874999999 L 53.68750190734863,91.96171874999999" fill="none" stroke="#131300" stroke-width="2"/><path d="M 58.68750190734863,132.74374999999998 L 53.68750190734863,132.74374999999998" fill="none" stroke="#131300" stroke-width="2"/><path d="M 58.68750190734863,173.52578125000002 L 53.68750190734863,173.52578125000002" fill="none" stroke="#131300" stroke-width="2"/><path d="M 58.68750190734863,214.3078125 L 53.68750190734863,214.3078125" fill="none" stroke="#131300" stroke-width="2"/><path d="M 58.68750190734863,255.08984375 L 53.68750190734863,255.08984375" fill="none" stroke="#131300" stroke-width="2"/><path d="M 58.68750190734863,295.871875 L 53.68750190734863,295.871875" fill="none" stroke="#131300" stroke-width="2"/><path d="M 58.68750190734863,336.65390625 L 53.68750190734863,336.65390625" fill="none" stroke="#131300" stroke-width="2"/><path d="M 58.68750190734863,377.4359375 L 53.68750190734863,377.4359375" fill="none" stroke="#131300" stroke-width="2"/><path d="M 58.68750190734863,418.21796875 L 53.68750190734863,418.21796875" fill="none" stroke="#131300" stroke-width="2"/><path d="M 58.68750190734863,459 L 53.68750190734863,459" fill="none" stroke="#131300" stroke-width="2"/></g><g class="title"><text x="0" y="0" fill="#131300" font-size="16" dominant-baseline="text-before-edge" text-anchor="middle" transform="translate(5, 255.08984375) rotate(270)">New Members</text></g></g></g><g class="mermaid-tmp-group"/></svg>