<svg id="my-svg" width="100%" xmlns="http://www.w3.org/2000/svg" xmlns:xlink="http://www.w3.org/1999/xlink" style="max-width: 700px; background-color: white;" viewBox="0 0 700 500" role="graphics-document document" aria-roledescription="xychart"><style>#my-svg{font-family:"trebuchet ms",verdana,arial,sans-serif;font-size:16px;fill:#333;}@keyframes edge-animation-frame{from{stroke-dashoffset:0;}}@keyframes dash{to{stroke-dashoffset:0;}}#my-svg .edge-animation-slow{stroke-dasharray:9,5!important;stroke-dashoffset:900;animation:dash 50s linear infinite;stroke-linecap:round;}#my-svg .edge-animation-fast{stroke-dasharray:9,5!important;stroke-dashoffset:900;animation:dash 20s linear infinite;stroke-linecap:round;}#my-svg .error-icon{fill:#552222;}#my-svg .error-text{fill:#552222;stroke:#552222;}#my-svg .edge-thickness-normal{stroke-width:1px;}#my-svg .edge-thickness-thick{stroke-width:3.5px;}#my-svg .edge-pattern-solid{stroke-dasharray:0;}#my-svg .edge-thickness-invisible{stroke-width:0;fill:none;}#my-svg .edge-pattern-dashed{stroke-dasharray:3;}#my-svg .edge-pattern-dotted{stroke-dasharray:2;}#my-svg .marker{fill:#333333;stroke:#333333;}#my-svg .marker.cross{stroke:#333333;}#my-svg svg{font-family:"trebuchet ms",verdana,arial,sans-serif;font-size:16px;}#my-svg p{margin:0;}#my-svg :root{--mermaid-font-family:"trebuchet ms",verdana,arial,sans-serif;}</style><g/><g class="main"><rect width="700" height="500" class="background" fill="white"/><g class="chart-title"><text x="0" y="0" fill="#131300" font-size="20" dominant-baseline="middle" text-anchor="middle" transform="translate(350, 21.58984375) rotate(0)">Daily Net Member Change (2026)</text></g><g class="plot"><g class="bar-plot-0"><rect x="63.09010110084827" y="459" width="22.36667661300072" height="8" fill="#ECECFF" stroke="#ECECFF" stroke-width="0"/><rect x="87.57572602455433" y="336.65390625" width="22.36667661300072" height="130.34609375000002" fill="#ECECFF" stroke="#ECECFF" stroke-width="0"/><rect x="112.06135094826038" y="336.65390625" width="22.36667661300072" height="130.34609375000002" fill="#ECECFF" stroke="#ECECFF" stroke-width="0"/><rect x="136.54697587196645" y="377.4359375" width="22.36667661300072" height="89.56406249999998" fill="#ECECFF" stroke="#ECECFF" stroke-width="0"/><rect x="161.0326007956725" y="214.3078125" width="22.36667661300072" height="252.6921875" fill="#ECECFF" stroke="#ECECFF" stroke-width="0"/><rect x="185.51822571937853" y="377.4359375" width="22.36667661300072" height="89.56406249999998" fill="#ECECFF" stroke="#ECECFF" stroke-width="0"/><rect x="210.0038506430846" y="459" width="22.36667661300072" height="8" fill="#ECECFF" stroke="#ECECFF" stroke-width="0"/><rect x="234.48947556679067" y="336.65390625" width="22.36667661300072" height="130.34609375000002" fill="#ECECFF" stroke="#ECECFF" stroke-width="0"/><rect x="258.97510049049674" y="418.21796875" width="22.36667661300072" height="48.78203124999999" fill="#ECECFF" stroke="#ECECFF" stroke-width="0"/><rect x="283.4607254142028" y="336.65390625" width="22.36667661300072" height="130.34609375000002" fill="#ECECFF" stroke="#ECECFF" stroke-width="0"/><rect x="307.9463503379088" y="214.3078125" width="22.36667661300072" height="252.6921875" fill="#ECECFF" stroke="#ECECFF" stroke-width="0"/><rect x="332.43197526161487" y="173.52578125000002" width="22.36667661300072" height="293.47421875" fill="#ECECFF" stroke="#ECECFF" stroke-width="0"/><rect x="356.9176001853209" y="132.74374999999998" width="22.36667661300072" height="334.25625" fill="#ECECFF" stroke="#ECECFF" stroke-width="0"/><rect x="381.40322510902695" y="336.65390625" width="22.36667661300072" height="130.34609375000002" fill="#ECECFF" stroke="#ECECFF" stroke-width="0"/><rect x="405.8888500327331" y="336.65390625" width="22.36667661300072" height="130.34609375000002" fill="#ECECFF" stroke="#ECECFF" stroke-width="0"/><rect x="430.37447495643914" y="459" width="22.36667661300072" height="8" fill="#ECECFF" stroke="#ECECFF" stroke-width="0"/><rect x="454.8600998801452" y="459" width="22.36667661300072" height="8" fill="#ECECFF" stroke="#ECECFF" stroke-width="0"/><rect x="479.3457248038512" y="336.65390625" width="22.36667661300072" height="130.34609375000002" fill="#ECECFF" stroke="#ECECFF" stroke-width="0"/><rect x="503.83134972755727" y="255.08984375" width="22.36667661300072" height="211.91015625" fill="#ECECFF" stroke="#ECECFF" stroke-width="0"/><rect x="528.3169746512634" y="214.3078125" width="22.36667661300072" height="252.6921875" fill="#ECECFF" stroke="#ECECFF" stroke-width="0"/><rect x="552.8025995749693" y="336.65390625" width="22.36667661300072" height="130.34609375000002" fill="#ECECFF" stroke="#ECECFF" stroke-width="0"/><rect x="577.2882244986755" y="336.65390625" width="22.36667661300072" height="130.34609375000002" fill="#ECECFF" stroke="#ECECFF" stroke-width="0"/><rect x="601.7738494223815" y="336.65390625" width="22.36667661300072" height="130.34609375000002" fill="#ECECFF" stroke="#ECECFF" stroke-width="0"/><rect x="626.2594743460876" y="459" width="22.36667661300072" height="8" fill="#ECECFF" stroke="#ECECFF" stroke-width="0"/><rect x="650.7450992697936" y="295.871875" width="22.36667661300072" height="171.128125" fill="#ECECFF" stroke="#ECECFF" stroke-width="0"/><rect x="675.2307241934997" y="377.4359375" width="22.36667661300072" height="89.56406249999998" fill="#ECECFF" stroke="#ECECFF" stroke-width="0"/></g></g><g class="bottom-axis"><g class="axis-line"><path d="M 60.68750190734863,468 L 700,468" fill="none" stroke="#131300" stroke-width="2"/></g><g class="label"><text x="0" y="0" fill="#131300" font-size="14" dominant-baseline="text-before-edge" text-anchor="middle" transform="translate(74.27343940734863, 479) rotate(0)">2.25</text><text x="0" y="0" fill="#131300" font-size="14" dominant-baseline="text-before-edge" text-anchor="middle" transform="translate(98.75906433105469, 479) rotate(0)">26</text><text x="0" y="0" fill="#131300" font-size="14" dominant-baseline="text-before-edge" text-anchor="middle" transform="translate(123.24468925476074, 479) rotate(0)">27</text><text x="0" y="0" fill="#131300" font-size="14" dominant-baseline="text-before-edge" text-anchor="middle" transform="translate(147.7303141784668, 479) rotate(0)">28</text><text x="0" y="0" fill="#131300" font-size="14" dominant-baseline="text-before-edge" text-anchor="middle" transform="translate(172.21593910217285, 479) rotate(0)">3.1</text><text x="0" y="0" fill="#131300" font-size="14" dominant-baseline="text-before-edge" text-anchor="middle" transform="translate(196.7015640258789, 479) rotate(0)">2</text><text x="0" y="0" fill="#131300" font-size="14" dominant-baseline="text-before-edge" text-anchor="middle" transform="translate(221.18718894958496, 479) rotate(0)">3</text><text x="0" y="0" fill="#131300" font-size="14" dominant-baseline="text-before-edge" text-anchor="middle" transform="translate(245.67281387329103, 479) rotate(0)">4</text><text x="0" y="0" fill="#131300" font-size="14" dominant-baseline="text-before-edge" text-anchor="middle" transform="translate(270.1584387969971, 479) rotate(0)">5</text><text x="0" y="0" fill="#131300" font-size="14" dominant-baseline="text-before-edge" text-anchor="middle" transform="translate(294.6440637207031, 479) rotate(0)">6</text><text x="0" y="0" fill="#131300" font-size="14" dominant-baseline="text-before-edge" text-anchor="middle" transform="translate(319.12968864440916, 479) rotate(0)">7</text><text x="0" y="0" fill="#131300" font-size="14" dominant-baseline="text-before-edge" text-anchor="middle" transform="translate(343.61531356811525, 479) rotate(0)">8</text><text x="0" y="0" fill="#131300" font-size="14" dominant-baseline="text-before-edge" text-anchor="middle" transform="translate(368.1009384918213, 479) rotate(0)">9</text><text x="0" y="0" fill="#131300" font-size="14" dominant-baseline="text-before-edge" text-anchor="middle" transform="translate(392.58656341552734, 479) rotate(0)">10</text><text x="0" y="0" fill="#131300" font-size="14" dominant-baseline="text-before-edge" text-anchor="middle" transform="translate(417.07218833923343, 479) rotate(0)">11</text><text x="0" y="0" fill="#131300" font-size="14" dominant-baseline="text-before-edge" text-anchor="middle" transform="translate(441.5578132629395, 479) rotate(0)">12</text><text x="0" y="0" fill="#131300" font-size="14" dominant-baseline="text-before-edge" text-anchor="middle" transform="translate(466.0434381866455, 479) rotate(0)">13</text><text x="0" y="0" fill="#131300" font-size="14" dominant-baseline="text-before-edge" text-anchor="middle" transform="translate(490.52906311035156, 479) rotate(0)">14</text><text x="0" y="0" fill="#131300" font-size="14" dominant-baseline="text-before-edge" text-anchor="middle" transform="translate(515.0146880340576, 479) rotate(0)">15</text><text x="0" y="0" fill="#131300" font-size="14" dominant-baseline="text-before-edge" text-anchor="middle" transform="translate(539.5003129577638, 479) rotate(0)">16</text><text x="0" y="0" fill="#131300" font-size="14" dominant-baseline="text-before-edge" text-anchor="middle" transform="translate(563.9859378814697, 479) rotate(0)">17</text><text x="0" y="0" fill="#131300" font-size="14" dominant-baseline="text-before-edge" text-anchor="middle" transform="translate(588.4715628051758, 479) rotate(0)">18</text><text x="0" y="0" fill="#131300" font-size="14" dominant-baseline="text-before-edge" text-anchor="middle" transform="translate(612.9571877288819, 479) rotate(0)">19</text><text x="0" y="0" fill="#131300" font-size="14" dominant-baseline="text-before-edge" text-anchor="middle" transform="translate(637.4428126525879, 479) rotate(0)">20</text><text x="0" y="0" fill="#131300" font-size="14" dominant-baseline="text-before-edge" text-anchor="middle" transform="translate(661.928437576294, 479) rotate(0)">21</text><text x="0" y="0" fill="#131300" font-size="14" dominant-baseline="text-before-edge" text-anchor="middle" transform="translate(686.4140625, 479) rotate(0)">22</text></g><g class="ticks"><path d="M 74.27343940734863,469 L 74.27343940734863,474" fill="none" stroke="#131300" stroke-width="2"/><path d="M 98.75906433105469,469 L 98.75906433105469,474" fill="none" stroke="#131300" stroke-width="2"/><path d="M 123.24468925476074,469 L 123.24468925476074,474" fill="none" stroke="#131300" stroke-width="2"/><path d="M 147.7303141784668,469 L 147.7303141784668,474" fill="none" stroke="#131300" stroke-width="2"/><path d="M 172.21593910217285,469 L 172.21593910217285,474" fill="none" stroke="#131300" stroke-width="2"/><path d="M 196.7015640258789,469 L 196.7015640258789,474" fill="none" stroke="#131300" stroke-width="2"/><path d="M 221.18718894958496,469 L 221.18718894958496,474" fill="none" stroke="#131300" stroke-width="2"/><path d="M 245.67281387329103,469 L 245.67281387329103,474" fill="none" stroke="#131300" stroke-width="2"/><path d="M 270.1584387969971,469 L 270.1584387969971,474" fill="none" stroke="#131300" stroke-width="2"/><path d="M 294.6440637207031,469 L 294.6440637207031,474" fill="none" stroke="#131300" stroke-width="2"/><path d="M 319.12968864440916,469 L 319.12968864440916,474" fill="none" stroke="#131300" stroke-width="2"/><path d="M 343.61531356811525,469 L 343.61531356811525,474" fill="none" stroke="#131300" stroke-width="2"/><path d="M 368.1009384918213,469 L 368.1009384918213,474" fill="none" stroke="#131300" stroke-width="2"/><path d="M 392.58656341552734,469 L 392.58656341552734,474" fill="none" stroke="#131300" stroke-width="2"/><path d="M 417.07218833923343,469 L 417.07218833923343,474" fill="none" stroke="#131300" stroke-width="2"/><path d="M 441.5578132629395,469 L 441.5578132629395,474" fill="none" stroke="#131300" stroke-width="2"/><path d="M 466.0434381866455,469 L 466.0434381866455,474" fill="none" stroke="#131300" stroke-width="2"/><path d="M 490.52906311035156,469 L 490.52906311035156,474" fill="none" stroke="#131300" stroke-width="2"/><path d="M 515.0146880340576,469 L 515.0146880340576,474" fill="none" stroke="#131300" stroke-width="2"/><path d="M 539.5003129577638,469 L 539.5003129577638,474" fill="none" stroke="#131300" stroke-width="2"/><path d="M 563.9859378814697,469 L 563.9859378814697,474" fill="none" stroke="#131300" stroke-width="2"/><path d="M 588.4715628051758,469 L 588.4715628051758,474" fill="none" stroke="#131300" stroke-width="2"/><path d="M 612.9571877288819,469 L 612.9571877288819,474" fill="none" stroke="#131300" stroke-width="2"/><path d="M 637.4428126525879,469 L 637.4428126525879,474" fill="none" stroke="#131300" stroke-width="2"/><path d="M 661.928437576294,469 L 661.928437576294,474" fill="none" stroke="#131300" stroke-width="2"/><path d="M 686.4140625,469 L 686.4140625,474" fill="none" stroke="#131300" stroke-width="2"/></g></g><g class="left-axis"><g class="axisl-line"><path d="M 59.68750190734863,43.1796875 L 59.68750190734863,467" fill="none" stroke="#131300" stroke-width="2"/></g><g class="label"><text x="0" y="0" fill="#131300" font-size="14" dominant-baseline="middle" text-anchor="end" transform="translate(48.68750190734863, 51.1796875) rotate(0)">10</text><text x="0" y="0" fill="#131300" font-size="14" dominant-baseline="middle" text-anchor="end" transform="translate(48.68750190734863, 91.96171874999999) rotate(0)">9</text><text x="0" y="0" fill="#131300" font-size="14" dominant-baseline="middle" text-anchor="end" transform="translate(48.68750190734863, 132.74374999999998) rotate(0)">8</text><text x="0" y="0" fill="#131300" font-size="14" dominant-baseline="middle" text-anchor="end" transform="translate(48.68750190734863, 173.52578125000002) rotate(0)">7</text><text x="0" y="0" fill="#131300" font-size="14" dominant-baseline="middle" text-anchor="end" transform="translate(48.68750190734863, 214.3078125) rotate(0)">6</text><text x="0" y="0" fill="#131300" font-size="14" dominant-baseline="middle" text-anchor="end" transform="translate(48.68750190734863, 255.08984375) rotate(0)">5</text><text x="0" y="0" fill="#131300" font-size="14" dominant-baseline="middle" text-anchor="end" transform="translate(48.68750190734863, 295.871875) rotate(0)">4</text><text x="0" y="0" fill="#131300" font-size="14" dominant-baseline="middle" text-anchor="end" transform="translate(48.68750190734863, 336.65390625) rotate(0)">3</text><text x="0" y="0" fill="#131300" font-size="14" dominant-baseline="middle" text-anchor="end" transform="translate(48.68750190734863, 377.4359375) rotate(0)">2</text><text x="0" y="0" fill="#131300" font-size="14" dominant-baseline="middle" text-anchor="end" transform="translate(48.68750190734863, 418.21796875) rotate(0)">1</text><text x="0" y="0" fill="#131300" font-size="14" dominant-baseline="middle" text-anchor="end" transform="translate(48.68750190734863, 459) rotate(0)">0</text></g><g class="ticks"><path d="M 58.68750190734863,51.1796875 L 53.68750190734863,51.1796875" fill="none" stroke="#131300" stroke-width="2"/><path d="M 58.68750190734863,91.96171874999999 L 53.68750190734863,91.96171874999999" fill="none" stroke="#131300" stroke-width="2"/><path d="M 58.68750190734863,132.74374999999998 L 53.68750190734863,132.74374999999998" fill="none" stroke="#131300" stroke-width="2"/><path d="M 58.68750190734863,173.52578125000002 L 53.68750190734863,173.52578125000002" fill="none" stroke="#131300" stroke-width="2"/><path d="M 58.68750190734863,214.3078125 L 53.68750190734863,214.3078125" fill="none" stroke="#131300" stroke-width="2"/><path d="M 58.68750190734863,255.08984375 L 53.68750190734863,255.08984375" fill="none" stroke="#131300" stroke-width="2"/><path d="M 58.68750190734863,295.871875 L 53.68750190734863,295.871875" fill="none" stroke="#131300" stroke-width="2"/><path d="M 58.68750190734863,336.65390625 L 53.68750190734863,336.65390625" fill="none" stroke="#131300" stroke-width="2"/><path d="M 58.68750190734863,377.4359375 L 53.68750190734863,377.4359375" fill="none" stroke="#131300" stroke-width="2"/><path d="M 58.68750190734863,418.21796875 L 53.68750190734863,418.21796875" fill="none" stroke="#131300" stroke-width="2"/><path d="M 58.68750190734863,459 L 53.68750190734863,459" fill="none" stroke="#131300" stroke-width="2"/></g><g class="title"><text x="0" y="0" fill="#131300" font-size="16" dominant-baseline="text-before-edge" text-anchor="middle" transform="translate(5, 255.08984375) rotate(270)">New Members</text></g></g></g><g class="mermaid-tmp-group"/></svg>